<?xml version="1.0" encoding="utf-8"?>
<!-- Generator: Adobe Illustrator 25.0.0, SVG Export Plug-In . SVG Version: 6.00 Build 0)  -->
<svg version="1.1" id="Layer_1" xmlns="http://www.w3.org/2000/svg" xmlns:xlink="http://www.w3.org/1999/xlink" x="0px" y="0px"
	 viewBox="0 0 305.13 335.1" style="enable-background:new 0 0 305.13 335.1;" xml:space="preserve">
<g>
	<g>
		<path d="M97.14,172.46c16.48-18.45,44.37-51.19,58.34-70.3c3.97-5.44,7.41-10.36,10.28-14.86c7.05-11.03,15.22-24.74,10.77-39.5
			c0.26,0.15,1.18,0.67,2.44,1.51c13.07,8.73,21.49,23.34,21.49,39.9c0,2.79-0.27,5.61-0.82,8.63c-0.01,0.04-0.01,0.09-0.01,0.13
			c-4.03,7.48-9.23,15.7-15.91,24.83c-21.13,28.92-58.74,71.75-82.15,96.68c-1.86,1.98-5.19,0.65-5.19-2.07v-42.97
			C96.38,173.72,96.65,173.01,97.14,172.46z"/>
		<g>
			<path d="M207.95,172.5c-8.51-9.53-20.07-22.88-31.19-36.19c-6.7,8.61-14.41,18.06-22.54,27.72
				c17.2,20.37,35.64,40.95,49.27,55.47c1.86,1.98,5.19,0.65,5.19-2.07v-43.01C208.68,173.7,208.43,173.03,207.95,172.5z"/>
			<path d="M105.44,97.98c4.03,7.48,9.23,15.7,15.91,24.83c2.18,2.98,4.54,6.11,7.03,9.35c8.33-10.02,16.38-20.01,22.54-28.2
				c-0.45-0.61-0.89-1.21-1.32-1.79c-3.97-5.44-7.41-10.36-10.28-14.86c-7.05-11.03-15.22-24.74-10.77-39.5
				c-0.26,0.15-1.18,0.67-2.44,1.51c-13.07,8.73-21.49,23.34-21.49,39.9c0,2.79,0.27,5.61,0.82,8.63
				C105.43,97.89,105.43,97.94,105.44,97.98z"/>
		</g>
		<g>
			<path d="M205.7,35.66c-9.36-18.71-29.65-30.5-52.95-30.77h-0.43c-23.3,0.27-43.59,12.06-52.95,30.77
				c-6.44,12.87-9.86,29.09,2.61,55.52c-0.03-0.66-0.05-1.32-0.05-1.97c0-26.63,20.83-48.79,47.42-50.44
				c1.03-0.11,2.11-0.18,3.16-0.2c1.09,0.02,2.17,0.09,3.27,0.2c26.53,1.65,47.36,23.81,47.36,50.44c0,0.65-0.02,1.31-0.05,1.97
				C215.56,64.76,212.14,48.54,205.7,35.66z M134.97,27.43c-1.07,0.31-2.13,0.65-3.19,1.01c0-0.22,0-0.45,0-0.67
				c-0.85,0.3-1.7,0.61-2.54,0.94c0,1.67,0,3.33,0,5c0.38-0.15,0.77-0.3,1.15-0.44c0,1.07,0,2.15,0,3.22
				c-1.95,0.73-3.88,1.56-5.77,2.48c0-1.07,0-2.15,0-3.22c0.38-0.19,0.76-0.37,1.15-0.55c0-4.32,0-8.64,0-12.96
				c-0.38,0.18-0.77,0.36-1.15,0.55c0-1.07,0-2.15,0-3.22c4.02-1.97,8.19-3.49,12.45-4.57c0,1.85,0,3.71,0,5.56
				c-1.07,0.27-2.13,0.57-3.19,0.89c0-0.78,0-1.56,0-2.34c-1.56,0.48-3.11,1.03-4.65,1.63c0,1.58,0,3.15,0,4.73
				c0.84-0.33,1.69-0.65,2.54-0.94c0-0.22,0-0.45,0-0.67c1.06-0.37,2.12-0.7,3.19-1.01C134.97,24.39,134.97,25.91,134.97,27.43z
				 M150.17,16.35c-0.41,0.02-0.83,0.04-1.24,0.06c0,4.73,0,9.46,0,14.19c-0.55,0.7-1.1,1.4-1.65,2.11
				c-2.91,0.25-5.8,0.69-8.66,1.34c-0.54-0.55-1.08-1.09-1.62-1.63c0-1.33,0-2.67,0-4c1.2-0.31,2.41-0.58,3.63-0.81
				c0,0.93,0,1.86,0,2.8c1.53-0.3,3.07-0.53,4.62-0.72c0-4.32,0-8.64,0-12.96c-0.41,0.05-0.82,0.1-1.23,0.16c0-1.07,0-2.15,0-3.22
				c2.05-0.28,4.1-0.46,6.16-0.54C150.17,14.2,150.17,15.27,150.17,16.35z M165.98,20.57c-1.08-0.23-2.16-0.43-3.24-0.6
				c0-0.96,0-1.92,0-2.88c-1.84-0.29-3.69-0.51-5.55-0.64c0,4.32,0,8.64,0,12.96c1.86,0.13,3.71,0.34,5.55,0.64c0-0.95,0-1.9,0-2.85
				c1.08,0.17,2.16,0.37,3.24,0.6c0,1.36,0,2.72,0,4.08c-0.54,0.55-1.09,1.1-1.63,1.66c-3.04-0.57-6.12-0.91-9.19-1.03
				c-0.55-0.69-1.1-1.38-1.66-2.06c0-5.14,0-10.29,0-15.43c0.55-0.65,1.1-1.29,1.66-1.92c3.08,0.12,6.15,0.46,9.19,1.03
				c0.55,0.75,1.09,1.5,1.63,2.26C165.98,17.8,165.98,19.18,165.98,20.57z M180.75,25.68c-1.01-0.49-2.03-0.96-3.05-1.4
				c0-0.96,0-1.92,0-2.88c-1.74-0.74-3.51-1.41-5.3-1.99c0,4.32,0,8.64,0,12.96c1.79,0.58,3.56,1.24,5.3,1.99c0-0.95,0-1.9,0-2.85
				c1.03,0.44,2.05,0.9,3.05,1.4c0,1.36,0,2.72,0,4.08c-0.51,0.41-1.02,0.84-1.53,1.26c-2.87-1.31-5.81-2.4-8.8-3.26
				c-0.54-0.83-1.07-1.65-1.61-2.46c0-5.14,0-10.29,0-15.43c0.54-0.51,1.07-1.02,1.61-1.52c2.99,0.86,5.93,1.95,8.8,3.26
				c0.51,0.88,1.02,1.77,1.53,2.66C180.75,22.9,180.75,24.29,180.75,25.68z"/>
		</g>
	</g>
	<g>
		<path d="M76.32,252v4.92h7.29v4.07h-7.29v10.69h-4.58v-23.75h14.25V252H76.32z"/>
		<path d="M103.97,255.22v16.45h-4.24v-1.32c-1.29,1.15-2.85,1.66-4.45,1.66c-2.27,0-4.31-1.05-5.6-2.65
			c-1.05-1.29-1.66-2.99-1.66-5.43v-8.72h4.41v8.89c0,1.49,0.31,2.24,0.81,2.82c0.68,0.75,1.63,1.02,2.48,1.02
			c1.87,0,3.22-1.25,3.83-2.04v-10.69H103.97z"/>
		<path d="M108.37,271.67v-16.45h4.24v1.32c1.26-1.02,2.82-1.66,4.65-1.66c2.27,0,4.34,1.02,5.7,2.65c1.08,1.29,1.7,2.95,1.7,5.77
			v8.38h-4.41v-8.72c0-1.63-0.37-2.48-0.98-3.09c-0.58-0.58-1.46-0.92-2.48-0.92c-1.86,0-3.39,1.19-4,2.04v10.69H108.37z"/>
		<path d="M140.93,271.67v-1.32c-1.36,1.15-2.92,1.66-4.58,1.66c-2.44,0-4.75-1.09-6.21-2.78c-1.29-1.49-2.1-3.53-2.1-5.77
			c0-4.85,3.6-8.58,8.07-8.58c1.8,0,3.36,0.51,4.65,1.53v-8.82h4.41v24.09H140.93z M140.77,260.99c-0.92-1.22-2.37-2.04-4.07-2.04
			c-2.58,0-4.24,2.14-4.24,4.51c0,2.58,1.87,4.48,4.34,4.48c1.66,0,3.12-0.81,3.97-2.04V260.99z"/>
		<path d="M166.03,271.67h-4.24v-1.32c-1.36,1.15-2.92,1.66-4.58,1.66c-2.44,0-4.75-1.09-6.21-2.78c-1.29-1.49-2.1-3.53-2.1-5.77
			c0-4.85,3.6-8.58,8.07-8.58c1.87,0,3.53,0.61,4.82,1.66v-1.32h4.24V271.67z M161.62,260.99c-0.92-1.22-2.37-2.04-4.07-2.04
			c-2.58,0-4.24,2.14-4.24,4.51c0,2.58,1.87,4.48,4.34,4.48c1.66,0,3.12-0.81,3.97-2.04V260.99z"/>
		<path d="M186.04,268.31c-1.93,2.58-4.38,3.7-7.46,3.7c-5.09,0-8.82-3.8-8.82-8.55c0-4.78,3.83-8.58,8.85-8.58
			c2.85,0,5.39,1.32,6.92,3.29l-3.12,2.75c-0.88-1.15-2.21-1.97-3.8-1.97c-2.54,0-4.44,2-4.44,4.51c0,2.58,1.87,4.48,4.55,4.48
			c1.8,0,3.22-1.09,3.94-2.17L186.04,268.31z"/>
		<path d="M191.64,246.57c1.59,0,2.88,1.25,2.88,2.88c0,1.63-1.29,2.88-2.88,2.88c-1.59,0-2.88-1.25-2.88-2.88
			C188.76,247.82,190.04,246.57,191.64,246.57z M193.84,271.67h-4.41v-16.45h4.41V271.67z"/>
		<path d="M206.33,254.88c4.99,0,8.75,3.83,8.75,8.58c0,4.75-3.77,8.55-8.75,8.55s-8.75-3.8-8.75-8.55
			C197.57,258.71,201.34,254.88,206.33,254.88z M206.33,267.94c2.58,0,4.34-2,4.34-4.48c0-2.48-1.76-4.51-4.34-4.51
			s-4.34,2.04-4.34,4.51C201.98,265.94,203.75,267.94,206.33,267.94z M211.92,247.25l-4.07,5.43h-3.05l2.37-5.43H211.92z"/>
		<path d="M218.81,271.67v-16.45h4.24v1.32c1.26-1.02,2.82-1.66,4.65-1.66c2.27,0,4.34,1.02,5.7,2.65c1.08,1.29,1.7,2.95,1.7,5.77
			v8.38h-4.41v-8.72c0-1.63-0.37-2.48-0.98-3.09c-0.58-0.58-1.46-0.92-2.48-0.92c-1.86,0-3.39,1.19-4,2.04v10.69H218.81z"/>
		<path d="M171.65,288.72v3.73h-36.98v-3.73H171.65z"/>
		<path d="M16.02,322.4c0,1.9-0.2,3.19-0.75,4.21c-1.22,2.27-3.73,3.6-6.48,3.6c-3.09,0-5.6-1.63-6.68-4.17l3.94-1.97
			c0.37,0.95,1.22,2.07,2.78,2.07c0.85,0,1.59-0.34,2.07-0.95c0.34-0.44,0.54-1.02,0.54-2.27v-16.79h4.58V322.4z"/>
		<path d="M36.54,313.41v16.45H32.3v-1.32c-1.29,1.15-2.85,1.66-4.45,1.66c-2.27,0-4.31-1.05-5.6-2.65
			c-1.05-1.29-1.66-2.99-1.66-5.43v-8.72H25v8.89c0,1.49,0.31,2.24,0.81,2.82c0.68,0.75,1.63,1.02,2.48,1.02
			c1.87,0,3.22-1.25,3.83-2.04v-10.69H36.54z"/>
		<path d="M45.35,329.86h-4.41v-24.09h4.41V329.86z"/>
		<path d="M51.97,304.76c1.59,0,2.88,1.22,2.88,2.82c0,1.59-1.29,2.82-2.88,2.82c-1.59,0-2.88-1.22-2.88-2.82
			C49.08,305.98,50.37,304.76,51.97,304.76z M54.17,329.86h-4.41v-16.45h4.41V329.86z"/>
		<path d="M65.97,313.07c4.99,0,8.75,3.83,8.75,8.58c0,4.75-3.77,8.55-8.75,8.55s-8.75-3.8-8.75-8.55
			C57.22,316.9,60.99,313.07,65.97,313.07z M65.97,326.13c2.58,0,4.34-2,4.34-4.48c0-2.48-1.76-4.51-4.34-4.51
			c-2.58,0-4.34,2.04-4.34,4.51C61.63,324.13,63.4,326.13,65.97,326.13z"/>
		<path d="M90.67,317.99c0,4.61,3.53,8.14,8.11,8.14c3.09,0,5.33-1.49,6.72-3.29l3.15,2.82c-2.1,2.68-5.63,4.55-9.98,4.55
			c-7.39,0-12.59-5.39-12.59-12.21c0-6.82,5.12-12.21,12.52-12.21c3.53,0,6.55,1.32,8.68,3.39l-2.95,3.12
			c-1.42-1.43-3.43-2.44-5.77-2.44C94.06,309.85,90.67,313.48,90.67,317.99z"/>
		<path d="M125.87,327.25c-1.59,1.9-4.21,2.95-6.75,2.95c-4.92,0-8.62-3.39-8.62-8.55c0-4.58,3.12-8.58,8.01-8.58
			c4.55,0,7.77,3.83,7.77,8.41c0,0.44-0.03,0.88-0.1,1.26h-11.4c0.24,2.31,2.1,3.9,4.44,3.9c1.87,0,3.36-1.05,4.14-1.9
			L125.87,327.25z M121.77,319.52c-0.14-1.46-1.46-2.88-3.26-2.88c-1.83,0-3.32,1.39-3.53,2.88H121.77z M124.15,305.44l-4.07,5.43
			h-3.05l2.37-5.43H124.15z"/>
		<path d="M130.69,324.84c1.12,1.02,2.85,1.63,4.51,1.63c1.19,0,2.1-0.58,2.1-1.39c0-2.48-7.97-1.59-7.97-6.89
			c0-3.15,3.05-5.12,6.31-5.12c2.14,0,4.48,0.81,5.56,1.66l-2.07,3.19c-0.85-0.61-1.97-1.12-3.15-1.12c-1.22,0-2.24,0.48-2.24,1.32
			c0,2.14,7.97,1.29,7.97,6.99c0,3.15-3.09,5.09-6.55,5.09c-2.27,0-4.68-0.78-6.62-2.21L130.69,324.84z"/>
		<path d="M161.56,329.86h-4.24v-1.32c-1.36,1.15-2.92,1.66-4.58,1.66c-2.44,0-4.75-1.09-6.21-2.78c-1.29-1.49-2.1-3.53-2.1-5.77
			c0-4.85,3.6-8.58,8.07-8.58c1.87,0,3.53,0.61,4.82,1.66v-1.32h4.24V329.86z M157.15,319.18c-0.92-1.22-2.37-2.04-4.07-2.04
			c-2.58,0-4.24,2.14-4.24,4.51c0,2.58,1.87,4.48,4.34,4.48c1.66,0,3.12-0.81,3.97-2.04V319.18z"/>
		<path d="M175.97,317.31c-0.3-0.1-0.95-0.17-1.59-0.17c-1.93,0-3.46,1.39-4,2.37v10.35h-4.41v-16.45h4.24v1.66
			c0.98-1.22,2.78-2,4.78-2c0.64,0,1.02,0.07,1.49,0.14L175.97,317.31z"/>
		<path d="M192.08,317.99c0,4.61,3.53,8.14,8.11,8.14c3.09,0,5.33-1.49,6.72-3.29l3.15,2.82c-2.1,2.68-5.63,4.55-9.98,4.55
			c-7.39,0-12.59-5.39-12.59-12.21c0-6.82,5.12-12.21,12.52-12.21c3.53,0,6.55,1.32,8.68,3.39l-2.95,3.12
			c-1.42-1.43-3.43-2.44-5.77-2.44C195.47,309.85,192.08,313.48,192.08,317.99z"/>
		<path d="M217.69,329.86h-4.41v-24.09h4.41v8.82c1.22-0.95,2.78-1.53,4.48-1.53c2.27,0,4.34,1.02,5.7,2.65
			c1.08,1.29,1.7,2.95,1.7,5.77v8.38h-4.41v-8.72c0-1.63-0.37-2.48-0.98-3.09c-0.58-0.58-1.46-0.92-2.48-0.92
			c-1.86,0-3.39,1.19-4,2.04V329.86z"/>
		<path d="M249.4,329.86h-4.24v-1.32c-1.36,1.15-2.92,1.66-4.58,1.66c-2.44,0-4.75-1.09-6.21-2.78c-1.29-1.49-2.1-3.53-2.1-5.77
			c0-4.85,3.6-8.58,8.07-8.58c1.87,0,3.53,0.61,4.82,1.66v-1.32h4.24V329.86z M244.99,319.18c-0.92-1.22-2.37-2.04-4.07-2.04
			c-2.58,0-4.24,2.14-4.24,4.51c0,2.58,1.87,4.48,4.34,4.48c1.66,0,3.12-0.81,3.97-2.04V319.18z M247.03,305.44l-4.07,5.43h-3.05
			l2.37-5.43H247.03z"/>
		<path d="M260.7,323.45l4.51-10.04h4.58l-7.57,16.45h-3.05l-7.57-16.45h4.58L260.7,323.45z"/>
		<path d="M285.49,327.25c-1.59,1.9-4.21,2.95-6.75,2.95c-4.92,0-8.62-3.39-8.62-8.55c0-4.58,3.12-8.58,8.01-8.58
			c4.55,0,7.77,3.83,7.77,8.41c0,0.44-0.03,0.88-0.1,1.26h-11.4c0.24,2.31,2.1,3.9,4.44,3.9c1.87,0,3.36-1.05,4.14-1.9
			L285.49,327.25z M281.39,319.52c-0.14-1.46-1.46-2.88-3.26-2.88c-1.83,0-3.32,1.39-3.53,2.88H281.39z"/>
		<path d="M302.35,316.12l-7.97,10.01h8.65v3.73h-14.59v-2.71l7.87-10.01h-7.19v-3.73h13.23V316.12z"/>
	</g>
</g>
</svg>
