<?xml version="1.0" encoding="utf-8"?>
<!-- Generator: Adobe Illustrator 25.0.0, SVG Export Plug-In . SVG Version: 6.00 Build 0)  -->
<svg version="1.1" id="Capa_1" xmlns="http://www.w3.org/2000/svg" xmlns:xlink="http://www.w3.org/1999/xlink" x="0px" y="0px"
	 viewBox="0 0 953 803" style="enable-background:new 0 0 953 803;" xml:space="preserve">
<style type="text/css">
	.st0{fill:#FFFEFD;}
</style>
<g id="layer101">
	<path d="M953,401.5V803H476.5H0V401.5V0h476.5H953"/>
</g>
<g id="layer102">
	<path d="M953,401.5V803H476.5H0V401.5V0h176.6h176.5l-2,2.6c-3.8,4.9-2.3,8.2,3.9,8c2.8-0.1,3.5-0.6,4-2.6c0.4-1.4,0.1-3.7-0.7-5.3
		L356.9,0H655h298 M679,670.1c58.7-0.9,57.5-0.8,69-5.9c2.5-1.1,5.5-2.9,6.7-4.1s2.6-2.1,3.1-2.1c1.1,0,9.3-8.7,10.7-11.4
		c0.7-1.2,2-3.1,3-4.3c1.9-2.2,3.2-5.5,6.6-15.8c1.5-4.7,1.9-8.8,1.9-19.3c0-14.4-0.7-18.7-4.9-27.2c-5.9-12-27.6-54.5-28.1-55
		c-0.3-0.3-2.5-4.5-5.1-9.5c-2.5-4.9-5.7-11.2-7.1-14c-1.5-2.7-4-7.7-5.6-11c-4.7-9.6-11.3-21.4-12.3-22.1c-0.5-0.3-0.9-1.8-0.9-3.3
		s-0.9-3.6-2-4.6c-1.1-1-2-2.6-2-3.5s-0.9-2.5-2-3.5c-1.1-1-2-2.4-2-3.2c0-0.7-1-3-2.3-5.1c-1.3-2-3.4-5.8-4.6-8.4
		c-1.3-2.7-2.7-4.8-3.2-4.8s-0.9-0.9-0.9-2s-2.3-6.4-5.1-11.7c-2.8-5.3-7.3-13.9-10-19.2c-2.7-5.3-5.3-10.3-5.8-11.1
		c-0.5-0.8-1.9-3.6-3-6.2c-1.1-2.5-2.5-4.9-3.1-5.3c-0.5-0.3-1-1.5-1-2.6c0-1-0.4-1.9-1-1.9c-0.5,0-1-0.8-1-1.8s-0.4-2.2-0.9-2.8
		c-0.5-0.5-4.2-7.4-8.2-15.4s-8.1-15.6-9.1-16.9c-1-1.3-1.8-3.1-1.8-3.9c0-0.8-1.1-3-2.5-4.8c-1.4-1.8-2.5-3.7-2.5-4.1
		c0-0.5-0.6-1.5-1.2-2.2c-0.7-0.6-1.3-1.7-1.3-2.4c0-0.7-0.8-1.1-1.8-1.1c-0.9,0.1-1.4-0.2-1.2-0.7c0.9-1.3-5.5-7.9-9.6-9.7
		c-5.5-2.6-10-1.7-14.7,2.7c-2.2,2-4.8,5.2-5.8,7.1c-1.1,1.9-2.2,3.7-2.5,4c-0.5,0.5-4.8,9.2-11.9,24.5c-1.6,3.3-5,10.5-7.6,16
		c-2.6,5.5-7.6,16.1-11,23.5c-3.5,7.4-6.9,14.3-7.4,15.2c-0.6,1-1,2.5-1,3.3c0,0.8-0.4,1.5-1,1.5c-0.5,0-1,0.4-1,0.9
		c0,1-11.8,26.3-15,32.4c-1.2,2.1-1.8,4.3-1.4,4.9c0.4,0.6,0.3,0.8-0.3,0.5c-0.5-0.3-1.5,1.1-2.2,3.1c-0.7,2-2.4,5.4-3.7,7.4
		s-2.6,4.8-3,6.2c-0.3,1.4-1,2.6-1.4,2.6c-0.5,0-1.1,1-1.5,2.3c-0.3,1.2-2.5,6-4.7,10.7c-2.3,4.7-5.7,11.9-7.6,16s-3.8,8.2-4.3,9
		c-3.6,7-10.4,21.2-16.4,34.5c-1.3,2.9-7.3,15.6-18.4,38.6c-2.8,5.9-5.1,11.1-5.1,11.7c0,0.5-0.7,2.3-1.5,3.8
		c-0.8,1.6-1.5,4-1.5,5.4c-0.1,1.4-0.6,4.8-1.3,7.7c-2.4,10.2,0.8,34.7,5,39.1c0.7,0.7,1.3,2,1.3,2.8c0,3.4,15.6,21.3,18.6,21.4
		c0.6,0,1.7,0.6,2.3,1.4c1.4,1.6,12,4.5,18.1,4.8C526.4,671.7,619.6,671,679,670.1z M37,668.5c0-1.4-0.4-2.5-1-2.5
		c-0.5,0-1,1.1-1,2.5c0,1.4,0.5,2.5,1,2.5C36.6,671,37,669.9,37,668.5z M391.7,668.4c26.6-6.1,42.8-26.2,44.9-55.7
		c0.7-10.6-1.6-27.7-4.3-30.8c-0.7-0.8-1.3-2-1.3-2.6c0-0.6-1.9-4.6-4.3-8.9c-2.4-4.4-6.3-11.7-8.6-16.4c-2.3-4.7-4.5-9.2-5-10
		c-1-1.9-3.4-6.4-5.7-11c-7.3-14.6-17.2-33.6-20.6-40c-4.2-7.6-5.6-10.5-9.2-18c-1.4-3-3-6.2-3.6-7c-0.5-0.8-2.3-4.5-4-8.2
		c-1.8-3.7-3.5-6.8-3.8-7c-0.6-0.3-3.3-5.4-18.3-34.9c-2.7-5.3-4.9-10.1-4.9-10.7c0-0.6-0.3-1.2-0.7-1.4c-0.9-0.3-3.7-5.8-15.5-29.3
		c-4.4-8.8-8.4-16.1-8.9-16.3c-0.5-0.2-0.9-0.9-0.9-1.6c0-0.7-1.9-4.8-4.1-9.2c-2.3-4.3-5.9-11.4-8.1-15.8c-2.1-4.3-4.4-8.4-5.1-9
		c-0.7-0.7-2.1-2.9-3.2-4.9s-2.3-3.7-2.7-3.7c-0.5,0-0.8-0.4-0.8-0.9c0-1.4-5.2-6.5-9.1-8.9c-3.8-2.3-8.8-2.2-11.9,0.3
		c-0.8,0.7-2.3,1.5-3.2,1.8c-2.3,0.8-7.4,8.9-12.8,20.2c-2.4,5-6.4,13.5-9.1,19c-6.3,13.3-14.7,31.2-16.6,35.5
		c-0.9,1.9-3.3,6.9-5.4,11.2c-2.2,4.2-3.9,8.3-3.9,9.1c0,0.9-0.4,1.7-0.9,1.9c-1.6,0.6-10,19.8-9.5,21.6c0.5,1.3,0.4,1.4-0.4,0.3
		c-0.8-1.1-1.1-0.9-1.7,1c-0.4,1.3-3.6,8.3-7.1,15.4c-3.5,7.2-6.4,13.5-6.4,14.1c0,1.6-2.4,6.4-3.2,6.4c-0.5,0-0.8,0.8-0.8,1.9
		c0,1-0.7,2.4-1.5,3.1c-0.8,0.7-1.5,1.7-1.5,2.1c0,1-8.1,18.8-10.2,22.4c-2,3.6-2.7,4.9-6.3,13c-2,4.4-4.7,10.1-6.1,12.7
		c-1.3,2.6-2.4,5.4-2.4,6.3c0,0.8-0.4,1.5-1,1.5c-0.5,0-1,0.6-1,1.3c0,0.6-1.8,4.7-4,9c-2.2,4.3-4,8.5-4,9.3s-0.4,1.4-0.9,1.4
		s-1.3,1-1.7,2.3c-1,3.4-11.5,25.8-12.5,26.7c-1.2,1.1-6,18-7.4,26c-1.7,9.9-1.9,14.6-0.5,15.5c0.6,0.3,1,3,1,6
		c0,6.4,4.7,19.1,9.1,24.7c1.6,2,2.9,4,2.9,4.4c0,2,10.4,10,17.5,13.5l8,4l108.2-0.6C369.6,670,386,669.8,391.7,668.4z M95,658.5
		V651l-3.6,2c-3.3,1.9-5.3,2-39.2,1.9c-21.7,0-36.4-0.4-37.5-1.1c-1-0.5-2.1-0.7-2.4-0.5c-0.8,0.8,5.1,5.7,6.9,5.7
		c0.9,0,2,0.5,2.3,1c0.3,0.6,2.5,1,4.8,1s5.5,0.7,7.1,1.5c2.6,1.4,3.1,1.4,4.6,0c1.5-1.3,4.7-1.6,20.1-1.5
		c18.9,0.1,29.5,1.3,33.9,3.6c1.4,0.7,2.6,1.3,2.8,1.4C94.9,666,95,662.6,95,658.5z M37,647.5c0-2.5-0.4-4.5-1-4.5c-0.5,0-1,2-1,4.5
		s0.5,4.5,1,4.5C36.6,652,37,650,37,647.5z M12.1,635.9c-0.3-0.4-1.6-1-2.8-1.4c-2.1-0.6-2.3-0.3-2.3,3.7v4.3l2.8-3
		C11.4,637.8,12.4,636.2,12.1,635.9z M38.5,630c0.4-0.6,7.1-1,16.7-1c25.9,0,34.8-2.7,38.9-11.7c2.5-5.6,3.6-10.9,2.1-9.9
		c-0.7,0.4-1.2,1.6-1.2,2.6c0,2.8-6.6,9-9.6,9c-1.4,0-2.3,0.4-2,0.9c0.8,1.2-29.7,2.3-40.9,1.5c-8.3-0.6-9.5-0.5-9.5,0.9
		c0,0.9,0.5,1.9,1,2.2c0.6,0.3,1,1.9,1,3.6C35,631,37.2,632.2,38.5,630z M38.2,578c0.6-1.9,41.8-1.8,41.8,0.1c0,1.6,3,0.9,5-1.1
		c1.1-1.1,2.9-2,4.1-2c3.9,0,5.9-1.9,5.9-5.6c0-3.2-0.2-3.5-2.2-2.8c-1.3,0.4-2.6,1.1-2.9,1.6c-0.4,0.6-11.8,1.1-28.8,1.2
		c-15.4,0-28.1,0.5-28.1,0.9c0,0.5,0.7,1.5,1.5,2.3c0.9,1,1.3,2.4,0.9,4c-0.5,1.7-0.2,2.4,0.9,2.4C37.1,579,38,578.5,38.2,578z
		 M43.1,545.7c0.3-0.5,8.9-0.6,19-0.3c17.7,0.5,27.5,1.5,31.2,3.1c1.5,0.6,1.7,0,1.7-5.9c0-5.8-0.2-6.5-1.7-5.9
		c-1,0.3-2.4,1-3.1,1.6c-1.6,1.3-37,0.9-39.5-0.5c-1.2-0.6-1.7-0.6-1.3,0c1.1,1.8-2.3,3.4-7.1,3.2c-8.4-0.3-8.4-0.3-7.7,2.8
		c1.1,5.2,1,5.2,4.6,3.9C41,547,42.8,546.1,43.1,545.7z M33.6,506.1c1.5-3.9,7.5-9.1,10.5-9.1c0.8,0,1.9-0.4,2.5-0.8
		c0.5-0.5,5.2-1.4,10.4-2.1c13.8-1.7,32.7-0.3,36.4,2.9c1.4,1.1,1.6,0.4,1.6-5.9V484l-3.6,1.5c-2.7,1.1-7.5,1.5-18.3,1.5
		c-8.3,0-18.1,0.7-22.6,1.5c-4.4,0.8-8.1,1.4-8.3,1.5c-0.1,0-1.8,1.6-3.8,3.5c-3.5,3.6-7.4,11.1-7.4,14.6
		C31,511,31.9,510.4,33.6,506.1z M74.5,468c0.3-0.5,1.6-1,2.9-1c1.2,0,3.2-0.9,4.4-2c1.2-1.1,2.4-2,2.8-2c1.2,0,8.4-8,8.4-9.3
		c0-0.7,0.4-1.7,0.9-2.3c0.5-0.5,1.2-2,1.5-3.4c0.7-2.3,0.6-2.4-0.6-0.5c-0.7,1.1-1.3,2.5-1.3,3c-0.1,0.6-0.7,0.9-1.4,0.7
		c-0.7-0.1-1.5,0.7-1.8,1.8c-0.3,1.1-1.2,2-2,2c-0.7,0-2.4,0.7-3.6,1.5c-7.4,4.8-25,6-35.3,2.5c-3.2-1.1-6.3-2.5-6.8-3
		c-0.6-0.6-1.8-1-2.9-1c-1,0-1.6-0.4-1.3-0.9c0.7-1.1-2.2-3.6-3.1-2.7c-2.5,2.5,11.4,15.6,16.6,15.6c1.1,0,2.3,0.5,2.6,1
		c0.3,0.6,4.8,1,10,1S74.2,468.6,74.5,468z M33.8,447.5c-0.6-1.4-1.3-2.4-1.4-2.2c-0.6,0.6,0.9,4.7,1.7,4.7
		C34.6,450,34.4,448.9,33.8,447.5z M85.4,413.5c-0.4-0.9,0.1-1.7,1.2-2.1c5.7-1.8,8.2-3.9,8.7-6.8c0.6-3.8-0.2-5.4-1.7-3.4
		c-2.1,2.9-14.4,3.8-51.2,3.8c-27.9,0-35.5,0.3-34.6,1.2c0.7,0.7,1.2,2.4,1.2,3.9c0,3.2,1.8,4.8,3.1,2.8c0.6-1.1,4.5-1.5,15.9-1.7
		c12.9-0.3,15.4-0.1,16.9,1.2c1.7,1.5,2.2,1.5,6.2,0.2c7.7-2.7,21.7-2,30.4,1.5C84.6,415.3,86,415.1,85.4,413.5z M84.2,387.1
		c5.2-2,10.8-8.9,10.8-13.2c0-1,0.5-2.1,1-2.4c0.6-0.3,1-2.5,0.9-4.8v-4.2l-1.3,4.1c-2.9,9.1-7.5,12.4-17.2,12.4
		c-7.7,0-9.5-0.8-13.3-6.1c-1.6-2.2-3.2-3.6-3.5-3.1c-0.8,1.3,1.3,7.2,2.5,7.2c0.5,0,0.9,0.8,0.9,1.9c0,1,1.7,3.4,3.8,5.3
		c3,2.7,4.6,3.4,8.4,3.5C79.9,387.9,83,387.6,84.2,387.1z M40.4,383.5c1.9-1.4,1.8-1.5-1-3.7c-1.6-1.3-3.7-3.1-4.6-4
		c-1.7-1.7-1.8-1.7-1.8,0.2c0,1.1,0.5,2,1,2c0.6,0,1,0.7,1,1.6c0,1.9,1.8,5.4,2.8,5.4C38.2,385,39.4,384.3,40.4,383.5z M39.1,341.2
		c2.1-1.2,4.5-2.2,5.3-2.2c0.9,0,1.6-0.4,1.6-0.9c0-1.4,32.9-1.4,34.6,0c1.6,1.3,6.4-0.2,6.4-2.1c0-0.5,1.3-1,2.8-1
		c3.7,0,5.2-1.7,5.2-5.7v-3.4l-3,1.6c-2.1,1.1-8.6,1.8-23.2,2.5c-11.2,0.6-21.7,1.2-23.3,1.5c-4.1,0.7-9.8,5.5-10,8.6
		c-0.1,1.3-0.8,2.3-1.4,2.2c-0.6-0.2-1.1,0.3-1.1,1.1s-0.3,2.3-0.6,3.3s0.1,0.7,1.1-0.7C34.4,344.6,36.9,342.4,39.1,341.2z
		 M74.3,310.9c8.1-2.7,16.2-8.8,17.8-13.4c0.7-1.9,1.6-3.5,2-3.5c0.7,0,1.8-4.4,2.5-10.5c0.4-3.7,0.2-3.6-1.6,1.8
		c-2.3,6.4-7.9,12.7-13.2,14.7c-1.8,0.7-4.4,1.7-5.7,2.3c-1.4,0.7-7.2,1.1-14.3,1.1c-12.8-0.2-17.8-1.7-23.2-7.1
		c-2-1.9-2.5-2.1-3-0.8c-0.3,1,1.5,3.6,5.3,7.4C50.2,312.3,61.9,315.1,74.3,310.9z M33.7,291.8c-0.3-0.8-0.6-0.5-0.6,0.6
		c-0.1,1.1,0.2,1.7,0.5,1.3C33.9,293.4,34,292.5,33.7,291.8z M298.2,277.4c2.7-0.3,4.5-1,4.2-1.5c-0.3-0.5,0.2-0.9,1.2-0.9
		c3,0,9.3-2.2,11.1-4c1-0.9,4.3-2.8,7.4-4.3c11-5.2,24.3-22.2,29.1-37.2c5.3-16.3,4.6-36.4-1.7-50.2c-1.4-2.9-2.5-5.8-2.5-6.3
		c0-0.6-0.4-1-1-1c-0.5,0-1-0.9-1-1.9c0-1.1-1.3-3-2.9-4.3c-1.6-1.4-3.1-3.4-3.5-4.5c-0.6-1.9-8.6-9.3-15.7-14.5
		c-3.7-2.7-14.2-7.8-15.9-7.8c-0.6,0-1.8-0.4-2.8-0.9c-4.8-2.5-10.4-3.2-22.2-2.8c-17.1,0.6-18.5,0.9-30,6.6
		c-7.4,3.6-9.9,5.1-12,6.8c-7.7,6.3-9.3,8-10.7,10.7c-0.9,1.7-2.8,4.2-4.3,5.6c-1.5,1.4-3.3,3.9-4.2,5.5c-1.4,3-2.1,4.3-5.3,10.3
		c-4.8,9.4-5.8,40.6-1.3,45.7c0.4,0.5,0.8,1.9,0.8,3c0,3.1,5.6,14.3,9.8,19.5c8.1,10.1,17.1,17.7,26.2,22.2c6.2,3,14.4,5.8,17.5,5.9
		c1.7,0,3.9,0.4,5,0.9C275.5,279,289.4,278.6,298.2,277.4z M642,277.2c12.9-2.7,28.1-11.2,36.2-20.1c7.3-8.1,12.8-16.6,12.8-19.7
		c0-1.5,0.3-2.4,0.7-2.1c0.8,0.8,3.3-3.9,3.3-6.2c0-0.9,0.4-2.1,0.9-2.6c0.9-1,1.8-6.5,2.7-17.5c0.8-8.8-2.6-26.4-5.2-27.4
		c-0.7-0.3-1.1-1.2-0.8-1.9c0.5-1.5-4.6-11.9-7.2-14.4c-0.8-0.8-1.4-1.7-1.4-2.1c0-1.4-10-11.1-15.4-15.1c-3-2.2-7.4-4.8-9.8-5.7
		c-2.4-0.8-6.3-2.4-8.8-3.4c-8.9-3.5-11.8-4-23.2-4c-8.8,0-12.9,0.5-17.4,2c-3.2,1.1-6.9,2-8,2c-1.2,0-3.2,0.8-4.5,1.8
		s-3.6,2.4-5.1,3.1c-1.6,0.8-2.8,1.8-2.8,2.3c0,0.4-0.9,0.8-2,0.8c-1.1,0-2,0.4-2,0.8c0,0.5-1.1,1.4-2.5,2c-1.4,0.7-2.5,2-2.5,3.1
		c0,1.3-0.6,1.8-1.7,1.5c-1.2-0.2-3,1.1-5.1,3.9c-9.8,12.4-10.2,13.2-9.7,15.6c0.5,1.8,0.3,2.2-0.9,1.8c-1-0.4-1.6-0.1-1.6,0.6
		s-0.9,3.2-2,5.5c-1.1,2.2-2,5.4-2,7c0,1.5-0.5,3.3-1.1,3.9c-0.7,0.7-0.9,5.2-0.6,13.4c0.6,14.4,1.6,21.1,4,25.8
		c0.9,1.9,1.7,4.2,1.7,5.3c0,1,0.4,1.8,0.8,1.8c0.5,0,1.8,1.9,2.8,4.2c1,2.4,3.4,5.8,5.2,7.6c1.7,1.9,3.2,3.8,3.2,4.2
		c0,0.5,3,3.4,6.8,6.4c8,6.6,21,13.6,25.3,13.6c1.7,0,2.8,0.4,2.4,1c-0.4,0.6,0.8,1,2.7,1.1c1.8,0,4.2,0.5,5.3,1
		C617.8,279.1,635.5,278.5,642,277.2z M35,263.7c0-0.7,2.6-2.9,5.8-5.1c5.3-3.6,5.5-3.8,2.5-3.4c-2.1,0.3-3.4,0-3.7-0.9
		c-0.3-0.7-1-1.3-1.5-1.3c-1.1,0-3.3,5.9-2.5,7.1c0.3,0.5-0.2,1.2-1,1.5c-0.9,0.3-1.6,1.5-1.6,2.6c0,1,0.5,1.6,1,1.3
		C34.6,265.2,35,264.3,35,263.7z M95.1,226.8l-0.3-2.7l-4.2,1.7c-3.5,1.5-8,1.7-30.8,1.7C45,227.5,33,227.7,33,228
		c0,0.2,0.7,2.4,1.7,4.8c1.3,3.4,2,4.1,3.2,3.5c0.9-0.4,12.3-0.9,25.3-1.1c21.1-0.2,24.1-0.1,27.5,1.5l3.8,1.8L95,234
		C95.3,231.5,95.3,228.3,95.1,226.8z M17.8,235.1c1.8-1.1,1.1-6.1-1-7.5c-2.6-1.6-5.2,0.4-5.6,4.4c-0.2,1.7,0,3,0.5,2.7
		s1.5-0.2,2.3,0.4C15.8,236.2,16.2,236.2,17.8,235.1z M75,207.7c4.1-1.3,11.8-6.3,14.2-9.2c1.9-2.1,6.8-11.8,6.8-13.2
		c0-0.4-0.8,0.6-1.9,2.2c-2.3,3.8-6.3,7.8-9.3,9.2c-9.1,4.4-24.8,5.6-34.3,2.8c-2.7-0.9-5.5-1.3-6.3-1c-0.8,0.3-1,0-0.6-0.7
		c0.5-0.8,0.2-0.9-0.9-0.5c-1,0.3-1.7,0.3-1.7-0.2s-1.8-2.7-4-4.9c-4.8-4.7-5-4.2-1,2.2c6.7,10.5,14,14.4,27,14.4
		C67.7,208.9,73.1,208.4,75,207.7z M10.4,168.5c-3.6-4.2-6.1-6.2-6.7-5.6c-1.2,1.2,1.4,4.6,6.7,8.8
		C16.7,176.6,16.7,175.6,10.4,168.5z M34.5,161c0.3-0.5,0.4-1,0.1-1c-0.3,0-0.8,0.5-1.1,1c-0.3,0.6-0.4,1-0.1,1S34.2,161.6,34.5,161
		z M93.5,159c-0.9-1.6-2-3-2.6-3s-0.8-0.7-0.5-1.5c0.4-1-0.3-2-1.9-2.7c-1.3-0.6-2.2-1.4-1.9-1.9c0.7-1.1-8.1-6.9-10.5-6.9
		c-1.1,0-2.3-0.4-2.6-1c-0.3-0.5-4.6-1-9.5-1s-9.2,0.5-9.5,1c-0.3,0.6-1.7,1-3.1,1c-1.3,0-2.4,0.5-2.4,1c0,0.6-0.7,1-1.5,1
		c-2,0-12.5,10.5-12.5,12.5c0,1.9,1.6,2,2.4,0c0.3-0.8,2.2-2.3,4.3-3.3c2.1-0.9,4-2,4.3-2.3c1.5-1.9,25.2-3.6,28.4-2.1
		c1.2,0.5,4.1,1.6,6.5,2.3s6.4,3.2,9,5.6c2.5,2.3,4.7,4.2,4.9,4.3C94.9,162,94.4,160.7,93.5,159z M63.4,123c18.6,0,24.1,0.3,27,1.5
		c2,0.8,3.9,1.5,4.2,1.5c0.5,0,0.8-9.6,0.5-13.7c-0.1-0.3-0.9,0.1-1.8,0.9c-1,0.9-3.8,1.8-6.3,2.1c-7.2,1-25.1,1.1-30.2,0.2
		c-3.1-0.5-5.3-0.4-6.1,0.3c-0.7,0.6-5,1.2-9.5,1.3c-5.8,0.1-8,0.5-7.3,1.3c0.4,0.6,1.1,2.8,1.5,4.8c0.7,3.7,0.7,3.7,2.6,1.8
		C39.9,123.1,41.5,123,63.4,123z M334.5,125c-1.6-1-3.7-2.9-4.6-4.2c-1.4-1.8-2-2-3.2-1c-0.8,0.7-1.7,2.6-1.9,4.2l-0.5,3h6.6h6.6
		L334.5,125z M350.4,118.6c0.6-1,2.1-3,3.2-4.3c4.9-5.4,5.3-9.3,5.4-49.2c0.1-20.5,0-37.5-0.2-37.7c-0.2-0.1-2.7,0.4-5.6,1.2
		l-5.2,1.5l1.5,3c1.3,2.5,1.5,8.6,1.5,39.4c-0.1,21.4-0.5,36.7-1.1,37c-0.5,0.4-0.9,1.7-0.9,3.1s-0.7,3.9-1.6,5.5
		c-1.4,2.9-1.4,3,0.2,2.7C348.5,120.7,349.8,119.7,350.4,118.6z M303.9,99.4c0.2-0.2-3-0.4-7.2-0.4c-4.2,0-7.7-0.4-7.7-0.8
		c0-0.5-1.6-1.6-3.5-2.5c-4.4-2.1-8.5-9.8-8.5-16c0-7.8,4.4-15.4,10.6-18.3c3.9-1.9,4.6-3.7,1-2.8c-8.8,2.2-13.9,5.2-18.3,10.6
		c-2.7,3.3-3.3,4.9-3.3,8.8c0,2.7,0.4,6,1,7.5c1.5,4,6.3,9.5,8.3,9.5c0.9,0,1.7,0.4,1.7,0.9c0,1.3,2.6,2.2,10,3.5
		C293.7,100.4,302.7,100.4,303.9,99.4z M497.5,100c1.4-0.6,0.3-0.9-4-0.9c-7-0.1-14.7-3.3-18.9-7.7c-1.4-1.6-2.6-2.5-2.6-1.9
		c0,1-4-7.1-6.1-12.5c-1.9-4.7-1.9-27.2,0-32c2.6-6.9,3.7-8.6,8.2-13.2c5.1-5.3,4.9-5.8-1.2-2.7c-8,4-16.8,14.1-15.5,17.5
		c0.3,0.8-0.1,1.7-0.9,2c-1,0.4-1.5,2-1.5,5c0,2.5-0.5,4.4-1.1,4.4c-2.4,0,1.1,19.2,4.6,24.7c4.8,7.7,16.9,16.2,23.2,16.4
		c1.6,0,3.7,0.4,4.8,0.9s3.6,0.9,5.5,0.9S496.4,100.5,497.5,100z M570,100c1.1-0.7,0-1-3.7-1c-2.9,0-7.2-0.9-9.7-2
		c-4.9-2-13.6-9.6-13.6-11.7c0-0.7-0.4-1.3-0.8-1.3s-1.4-2.1-2.1-4.7c-0.7-2.7-1.7-6.1-2.2-7.7c-1.2-3.9-1.2-22.3,0.1-23.1
		c0.6-0.3,1-1.4,1-2.4c0-2.8,5-11.1,9.2-15.3c2.2-2.2,3.2-3.8,2.4-3.8c-0.8,0-1.8,0.5-2.1,1c-0.3,0.6-1.4,1-2.3,1
		c-2.1,0.1-7.2,4.4-7.2,6.1c0,0.7-0.3,1-0.6,0.6c-1-0.9-7.4,6.4-7.4,8.4c0,1-0.4,2-0.9,2.3c-1.2,0.8-2.2,6.4-2.8,15.8
		c-0.5,8,0.6,12.7,4.7,20.7c2.3,4.4,11.7,13.1,14.1,13.1c0.8,0,2.4,0.7,3.7,1.5c1.2,0.9,3.8,1.7,5.7,1.9c2,0.2,3.8,0.6,4.2,1
		C560.7,101.4,568.3,101.1,570,100z M631.5,100c1.5-0.6,0.5-0.9-3.4-0.9c-4.2-0.1-6.2-0.7-8.8-2.7c-1.8-1.4-3.3-2.2-3.3-1.8
		s-1.1-1-2.5-3c-1.4-2-2.5-4.5-2.5-5.6c0-1-0.5-2.2-1-2.5c-1.5-0.9-0.4-7.6,2.2-13.4c1.6-3.9,3.3-5.7,7-8.1c2.7-1.6,5.6-3,6.4-3
		c0.8,0,1.4-0.4,1.4-1c0-0.5-0.6-1-1.4-1c-0.8,0-1.8,0.5-2.1,1c-0.3,0.6-1.7,1-3.1,1c-6,0-19.4,9.2-19.4,13.4c0,1.2-0.5,2.7-1.1,3.3
		c-1.6,1.6,0.8,10.9,3.9,15C608.6,97.2,625.1,102.8,631.5,100z M766.9,99.4c0.2-0.2-2.1-0.4-5.2-0.4c-7.6,0-13.9-3.8-17.3-10.2
		c-1.6-3-2.1-13.1-0.9-16.9c1.7-5.4,7.6-10.4,15-12.9c2.2-0.7,3.4-1.5,2.6-1.8c-2.3-0.8-17.3,4.1-19.5,6.4c-0.8,0.8-1.9,1.4-2.5,1.4
		c-0.5,0-2.1,1.5-3.5,3.3c-3.4,4.6-3.6,15.5-0.2,20.9c1.2,2.1,2.6,3.5,2.9,3.1c0.4-0.3,0.7-0.1,0.7,0.5c0,1.8,8.4,6.2,12.1,6.3
		c1.9,0,4.3,0.4,5.4,0.9C758.3,100.7,765.9,100.3,766.9,99.4z M828,98.8c3.6-2.6,3.8-4.4,0.8-7.5c-2.7-2.9-5.5-2.9-7.9,0
		c-2.4,2.9-2.4,4.6,0.3,7.4C823.9,101.5,824.3,101.5,828,98.8z M889,100c1.1-0.7-0.2-1-4.3-1c-3.6,0-5.6,0.4-5.2,1
		C880.3,101.3,887,101.3,889,100z M938.8,99.4c4.2-2.9,1.6-10.4-3.7-10.4c-2.3,0-5.1,3.1-5.1,5.7c0,2.5,3.2,6.3,5.3,6.3
		C936,101,937.6,100.3,938.8,99.4z M877.5,97.9c-0.4-0.5-1.2-0.9-1.8-0.9c-3.6-0.1-14.6-11.6-14.7-15.2c0-1-0.3-1.8-0.8-1.8
		c-2.6,0-4.6-30-2.1-31.5c0.6-0.4,0.7-1.9,0.4-3.5c-0.4-1.8-0.2-3.1,0.7-3.7c0.7-0.4,1.9-2,2.6-3.4c1.4-2.7,5.4-7.1,8.7-9.4
		c1.7-1.2,1.8-1.4,0.3-1.5c-0.9,0-2,0.5-2.3,1c-0.3,0.6-1.3,1-2.1,1c-2.1,0-7.4,4.1-7.4,5.7c0,0.8-0.4,1.2-0.9,0.9
		c-1.3-0.8-5.6,4.6-8.2,10.2c-4.4,9.5-3.4,31.6,1.7,36.7c0.8,0.7,1.4,1.8,1.4,2.3c0,0.6,1.7,2.4,3.8,4.1c2,1.7,4.6,4,5.7,4.9
		C867.1,97.9,879.6,101.3,877.5,97.9z M148,98.5c0-0.3-0.7-1.6-1.5-2.8c-1.9-3-2.6-7.9-3.2-22.7c-0.3-8.1-0.1-14.9,0.8-19.4
		c1-5.4,1-7.1,0.1-7.4c-0.8-0.2-1.2-3.4-1.2-9.8c0-5.6-0.4-9.4-1-9.4c-0.5,0-1,0.5-1,1c0,0.6-1.3,1-2.8,1c-3.7,0-5.6,1.8-3.9,3.8
		c0.9,1.1,1.2,9.1,1.2,30.6c0,28.8,0,29.1-2.3,32.4l-2.3,3.2h8.5C144.1,99,148,98.8,148,98.5z M205.9,98.3c-3.4-0.9-5-12.5-4.8-33.3
		c0.1-10.4,0.6-19,1-19c0.5,0,0.9-1,0.8-2.2c0-1.3-0.3-1.7-0.6-1c-0.9,2.2-2,1.2-4.2-3.7c-2.2-5.2-9.2-12.1-12.2-12.1
		c-1,0-2.1-0.4-2.4-1c-0.8-1.2-7.5-1.3-7.5-0.1c0,0.5,1.3,1.1,2.9,1.4c3.3,0.7,8.8,5.8,10.3,9.6C192.3,45,193,50.7,193,70
		c0,16.9-0.3,20.5-1.7,23.7c-1,2.1-2.2,4.1-2.8,4.5c-0.5,0.4,3.5,0.7,9,0.7C203,98.8,206.8,98.6,205.9,98.3z M261.5,97.4
		c-3.1-2.3-4.4-11.2-4.4-30.6c-0.1-17.1-1.2-25.3-4-30.6c-1.6-3-9.2-9.2-11.2-9.2c-1,0-2.1-0.4-2.4-1c-0.3-0.5-2.5-1-4.8-1l-4.2,0.1
		l4.5,2.2c4.9,2.4,8.7,4.9,8.7,5.7c0,1.6,1.6,5,2.2,4.6c0.4-0.3,0.8,1.2,0.9,3.2c0.2,2,0.7,4.1,1.2,4.6c0.6,0.6,1,10.3,1,22.7
		c0,17.7-0.3,22.4-1.6,25.5c-0.9,2.2-2.1,4.2-2.8,4.6c-0.6,0.4,3.4,0.8,8.9,0.8C262.6,98.9,263.3,98.8,261.5,97.4z M339.5,98.2
		c-4.3-3-6.5-18.1-6.5-43.6c0-7.5-0.4-13.6-0.8-13.6s-0.8-0.9-0.9-2c-0.1-1.1-0.9-2.7-1.7-3.6c-0.9-0.8-1.6-1.9-1.6-2.3
		c0-0.9-7.5-5.2-11.7-6.7c-4.3-1.5-4.1-0.5,0.6,3c2.8,2,4.2,4.1,5.1,7.2c0.7,2.5,1.7,4.7,2.2,5s0.8,3.9,0.7,7.9
		c-0.2,5,0.1,7.8,1,8.9c0.7,0.9,0.9,1.6,0.4,1.6c-0.6,0-1.1,4.4-1.2,10.2c-0.1,5.7-0.6,10.7-1.1,11.2c-1.6,1.6-1.1,4.5,1,5.8
		c1.1,0.7,2,2.3,2,3.5c0,1.2,0.8,3.5,1.8,5.2c1.5,2.8,2.2,3.1,6.7,3.1C338.3,99,340,98.6,339.5,98.2z M394.8,97
		c-0.7-1.1-1.7-2-2.3-2c-3.2-0.1-11.5-14.2-11.5-19.5c0-1.8-0.5-4.6-1.1-6.3c-1.2-3.5,0.5-24,2.2-25.6c0.5-0.6,0.9-1.8,0.9-2.8
		s0.4-1.8,0.9-1.8s1.3-1,1.6-2.1c0.4-1.2,2.5-3.9,4.7-6l4-3.8l-3.3,1.2c-1.9,0.7-4,1.7-4.7,2.4c-0.7,0.7-2.5,2-4,2.9
		c-1.5,0.9-3.9,3.2-5.2,5.2c-1.4,2.1-2.8,3.9-3.1,4.2c-0.3,0.3-1.6,3.5-2.7,7.2c-2.2,6.8-3,17.8-1.3,17.8c0.5,0,0.7,0.9,0.4,2
		c-1.2,4.4,10.4,23,14.3,23c0.8,0,1.4,0.5,1.4,1.1s0.9,0.9,2,0.6c1.3-0.3,2,0,2,0.8c0,1.1,2.1,2.3,5.8,3.4
		C395.9,99,395.5,98.1,394.8,97z M503.7,98.3c-0.4-0.3-1-0.3-1.4,0c-0.3,0.4,0,0.7,0.7,0.7C503.7,99,504,98.7,503.7,98.3z M671,98.5
		c0-0.3-0.4-1.3-0.9-2.3c-2.1-4-3.1-10.6-3.6-24.7c-1-26.8-1.4-32-2.5-32.3c-0.5-0.2-1-1-1-1.8s-0.4-1.4-1-1.4c-0.5,0-1-0.6-1-1.2
		c0-1.2-5.5-6.2-6.9-6.4c-0.7-0.1-3.4-1.1-7-2.5c-3.9-1.6-3.3-0.5,1.5,2.9c6.4,4.6,8.2,9.4,9.6,26c0.8,10.6,0.8,15-0.2,20.6
		c-0.7,3.9-1.7,7.5-2.2,8c-1.2,1.5-1,2.6,0.6,2.6c0.8,0,1.8,1,2.1,2.3c0.4,1.2,1.5,4.1,2.6,6.5c1.8,3.9,2.2,4.2,5.9,4.2
		C669.2,99,671,98.8,671,98.5z M803.3,97.3c-0.3-1-0.9-2.2-1.3-2.8c-1.8-2.5-2.3-7.6-3-29c-0.4-12.6-1.2-24.1-1.7-25.5
		c-2.2-5.1-8.6-11-14.3-13c-4.3-1.5-5.1-1.6-3.5-0.4c1.1,0.9,2.7,2.1,3.5,2.7c1.9,1.5,6,9.7,6,12c0,1,0.4,1.6,0.9,1.2
		c0.6-0.3,1,2.7,1,7.2c0,4.3,0,12.1,0,17.3s-0.5,11-1.2,12.8c-0.9,2.5-0.9,3.7,0.1,5.2c0.7,1.1,1.2,2.7,1.2,3.5c0,0.8,1,3.5,2.3,6
		c2.1,4.2,2.4,4.4,6.4,4.5C803.3,99,803.8,98.7,803.3,97.3z M426.6,96.5c1-0.8,2.5-1.5,3.2-1.5c0.6,0,2-0.7,3-1.5
		c0.9-0.9,3.2-2.7,5-4.1c1.7-1.4,3.2-3,3.2-3.5c0-0.6,0.8-1.9,1.8-2.9c1.9-2,4.5-9.6,5.7-16.3c0.8-4.8-2.3-21-4.4-22.7
		c-0.3-0.3-1.3-1.8-2.1-3.5c-0.9-1.6-2.6-3.4-3.8-4C437,36,436,35,436,34.3c0-0.7-0.4-1.3-0.8-1.3c-0.5,0-1.7-0.8-2.8-1.8
		c-1.8-1.6-6.8-4.2-8.1-4.2c-0.3,0,1.3,1.9,3.5,4.3c2.3,2.3,5.3,6.5,6.7,9.2c2.4,4.6,2.6,6.1,2.8,18.5c0.2,13-1.6,26-3.5,26
		c-0.4,0-0.8,0.6-0.8,1.3c0,1.6-4.1,6.4-8.2,9.3c-1.8,1.4-2.5,2.4-1.7,2.4S425.5,97.3,426.6,96.5z M37.3,78.1
		c5.5-5.6,12.6-7.1,33.5-7.1c16.5,0,23,0.9,23.4,3.3c0.1,0.7,0.4-1.9,0.7-5.8c0.3-3.8,0.5-7.3,0.3-7.7c-0.1-0.4-1.7,0.1-3.4,1.2
		c-2,1.2-4.1,1.7-5.5,1.4c-1.3-0.4-3-0.3-3.8,0c-0.9,0.3-8.7,0.8-17.3,1.1C45.9,65.1,42,66.1,37,71.8c-3.6,4-4.1,5.5-5.4,14.2
		l-0.5,3.5l1.2-3.8C33,83.5,35.2,80.1,37.3,78.1z M297,57.4c0-0.2-1.1-0.4-2.5-0.4s-2.5,0.4-2.5,0.9c0,0.4,1.1,0.6,2.5,0.3
		C295.9,58,297,57.6,297,57.4z M519.9,39.8c2.6-7.2,2.5-7.6-3.2-10.2c-6.2-2.8-12.7-4.7-12.7-3.8c0,0.4,2,1.7,4.4,3
		c2.4,1.3,4.8,3.4,5.5,4.8c0.6,1.3,1.5,2.4,2,2.4c0.4,0,1.1,1.4,1.5,3C518.1,42.6,518.8,42.8,519.9,39.8z M592.9,30.9
		c-2.1-1.5-15.9-6.2-15.9-5.3c0,0.2,1.3,1,2.9,1.9c4.5,2.3,7.6,5.5,10.1,10.5l2.3,4.5l1.4-4.9C595.1,32.8,595.1,32.6,592.9,30.9z
		 M913,38.1c0-1.5,0.5-3.2,1.1-3.8c0.6-0.6,0.9-1.6,0.5-2.1c-0.8-1.4-17.6-7.6-18.4-6.8c-0.2,0.3,1.2,1.2,3.1,2.1
		c4.2,2,8.8,6.8,10.6,11.2C911.4,42.5,913,42.2,913,38.1z M275,37.5c0-0.9,2-3.6,4.5-6c2.4-2.5,3.8-4.5,3-4.5c-0.7,0-1.7,0.5-2,1
		c-0.4,0.6-1.1,0.8-1.6,0.5c-0.9-0.6-7.9,2.3-7.9,3.3c0,0.3,0.5,2.1,1.2,3.9C273.4,39.1,275,40.1,275,37.5z M608.4,36.3
		c1.7-3.4,5-6.5,9.1-8.6c3.8-2,1.6-2.1-5.4-0.2c-6.8,1.8-8,3-7.4,7.8C605.3,39.7,606.4,40,608.4,36.3z M745.4,30.8
		c3.8-3.7,3.9-3.8,1.4-3.8c-1.3,0-2.8,0.3-3.2,0.8c-0.7,0.7-1.1,0.8-3.7,1.1c-0.5,0-0.8,0.5-0.5,1s-0.2,0.8-1.2,0.7
		c-1.7-0.1-1.8,0.9-0.6,6.4l0.6,2.5l1.6-2.4C740.8,35.7,743.3,32.9,745.4,30.8z M288.5,26c0.8-1.3-0.5-1.3-2.5,0
		c-1.3,0.8-1.3,1,0.2,1C287.1,27,288.2,26.6,288.5,26z M751.7,26.3c-0.4-0.3-1-0.3-1.4,0c-0.3,0.4,0,0.7,0.7,0.7
		S752,26.7,751.7,26.3z M222.7,25.3c-0.4-0.3-1-0.3-1.4,0c-0.3,0.4,0,0.7,0.7,0.7S223,25.7,222.7,25.3z M556.7,25.3
		c-0.4-0.3-1-0.3-1.4,0c-0.3,0.4,0,0.7,0.7,0.7S557,25.7,556.7,25.3z M754.7,25.3c-0.4-0.3-1-0.3-1.4,0c-0.3,0.4,0,0.7,0.7,0.7
		S755,25.7,754.7,25.3z"/>
	<path d="M178.5,495c0.3-0.5,0.8-1,1.1-1s0.2,0.5-0.1,1c-0.3,0.6-0.8,1-1.1,1C178.1,496,178.2,495.6,178.5,495z"/>
	<path d="M360.4,452.8c-0.4-0.7-0.3-0.8,0.4-0.4c0.7,0.4,1.2,0.9,1.2,1.2C362,454.4,361.1,454,360.4,452.8z"/>
	<path d="M544.5,92c0.3-0.5,0.8-1,1.1-1c0.3,0,0.2,0.5-0.1,1c-0.3,0.6-0.8,1-1.1,1S544.2,92.6,544.5,92z"/>
	<path d="M738,72.9c0-0.5,0.5-0.7,1-0.4c0.6,0.3,1,0.8,1,1.1c0,0.2-0.4,0.4-1,0.4C738.5,74,738,73.5,738,72.9z"/>
	<path d="M822.4,94.8c-0.4-0.7-0.3-0.8,0.4-0.4c1.2,0.7,1.6,1.6,0.8,1.6C823.3,96,822.8,95.5,822.4,94.8z"/>
	<path d="M325,37c0-0.7,0.3-1,0.7-0.7c0.3,0.4,0.3,1,0,1.4C325.3,38,325,37.7,325,37z"/>
</g>
<g id="layer103">
	<path d="M953,401.5V803H476.5H0V401.5V0h175.5C272,0,351,0.3,351,0.6s-0.7,1.2-1.6,2.1c-3.9,3.9,1.9,11.6,7.3,9.7
		c3.9-1.3,5.3-5.7,3.1-9.5L358.1,0h297.4H953 M37.8,667.6l0.3-4.8l25.4,0.4c24.4,0.3,25.4,0.4,28.4,2.6c1.7,1.2,3.5,2.2,4.1,2.2
		s1-3.7,1-10v-10.1l-2.9,2.2c-4.4,3.2-9.5,3.8-33.8,3.9H38v-4.9c0-5.9-0.7-8.1-2.6-8.1c-1.1,0-1.4,1.6-1.4,6.5v6.5h-8.5
		c-9.9,0-14.8-1.8-16.6-6.2c-1.5-3.5-0.2-6.9,3.6-9.4c1.4-0.9,2.5-2,2.5-2.4c0-0.5-2-1.5-4.4-2.3c-5.5-1.9-5.9-1.2-4.7,7.7
		c1.9,13.2,8.7,19.6,22.5,21.2l5.6,0.7v4.2c0,2.3,0.3,4.5,0.7,4.9C36.3,673.9,37.5,672,37.8,667.6z M295.8,671.5
		c98.9-0.6,97.3-0.5,109.6-6.6c10.4-5.2,15.3-9.6,22.1-19.9c9.3-14.1,12.7-34.4,9.1-53.4c-1.2-6-3.6-11.6-11.9-27.8
		c-5.8-11.2-15.5-30.2-21.7-42.3c-28-54.7-34.4-67.1-35.5-68.5c-0.7-0.8-8.3-15.4-17-32.5c-53.5-105.2-53-104.2-61.1-111.6
		c-8.7-7.8-14.8-7.7-23,0.5c-5.7,5.7-5.1,4.7-27.7,52.6c-6.9,14.6-15.3,32.4-18.7,39.5c-3.4,7.2-7.7,16.2-9.5,20
		c-3.6,7.8-6.2,13.3-26,55c-2.1,4.4-7.1,14.9-11.2,23.4c-4,8.4-7.3,15.5-7.3,15.7c0,0.1-3.2,6.9-7.1,15.1
		c-26.8,55.9-28.1,59-29.9,73.8c-2.2,17.8,2.7,37,12.7,49.3c5.8,7.1,9.4,10.1,16.8,13.8c9.5,4.7,13.5,5.3,31.5,4.8
		C198.5,672.2,246.1,671.8,295.8,671.5z M639,671.5c50.7-0.2,91.7-0.9,94.5-1.4c16.5-3.1,31.2-13.2,39.1-26.7
		c7-12,10.4-30.3,8.6-46.1c-1.1-9.8-1.2-9.9-14.7-36.8c-7.4-14.8-16-31.7-19.1-37.5c-3-5.8-10.5-20.4-16.6-32.5
		c-6.2-12.1-15.3-29.6-20.3-39c-5-9.3-16.5-31.4-25.5-49c-43-84.5-44.7-87.5-52.3-94.1c-8.7-7.4-15.4-6.8-23.4,2
		c-5.8,6.5-5,4.8-37.4,73.6c-14.4,30.5-29.4,62-33.4,70s-12.4,25.5-18.8,39c-6.3,13.5-14.5,30.8-18.1,38.5
		c-18.5,38.7-25.7,54.5-27.2,60c-0.9,3.5-1.9,11.5-2.1,19c-0.5,11.2-0.2,14.2,1.6,21.1c3.5,12.8,10.7,24.2,20,31.5
		c10.6,8.3,17.6,10,39.6,9.3C542.3,672.2,589.8,671.8,639,671.5z M59.7,630c19-0.5,21.2-0.8,25.6-2.9c9-4.4,12.7-11.5,12.7-25
		c0-9.9-3.6-17.4-10.3-21.6c-3.2-2.1-2.9-2.5,3.6-4.9c2.6-1,4.7-2.3,4.8-2.9c0-0.7,0.3-2.5,0.5-4.1c0.8-5-0.2-6-3.5-3.5
		c-3.9,2.9-21.9,4.3-44.3,3.4c-12.2-0.4-16.8-0.3-16.8,0.6c0,1.2,3,12.2,3.5,12.7c0.2,0.2,1.2-0.5,2.3-1.6c2.5-2.5,14.5-3.7,28-2.7
		c12.2,0.8,18.8,2.7,23.4,6.5c8.4,6.9,9.1,23.2,1.3,30.5c-5.2,5-11.7,6-36.7,6c-12,0-21.8,0.2-21.8,0.5c0,0.3,0.8,3.5,1.7,7.3
		c1.7,6.7,1.8,6.7,3.5,4.5C38.8,630.6,39.5,630.5,59.7,630z M41,547.9c3.6-1,40.7-1,45.8,0c2.4,0.5,5.7,1.8,7.2,3l2.9,2.1v-10
		c0-5.5-0.2-10-0.5-10s-1.8,1-3.5,2.3c-2.8,2-4.4,2.2-17.7,2.6c-18.2,0.4-26.5-0.9-33-5.2c-6.7-4.5-9.4-10.2-9-18.8
		c0.5-8.7,3.4-12.8,11.5-16c5.3-2.1,7.4-2.3,24.8-2.4c18,0,19.2,0.1,22.8,2.3c2.1,1.2,4,2.2,4.2,2.2c0.2,0,0.4-4.3,0.4-9.5
		c0-5.2-0.2-9.5-0.5-9.5s-1.8,1-3.4,2.2c-2.8,2-4.6,2.2-23.3,2.9c-11.1,0.4-21.8,1.2-23.7,1.8C35.8,491,30,499.7,30,512
		c0,11.2,4.3,18.7,13.6,23.8l5.9,3.1l-8.9,0.1c-6.6,0-8.7,0.3-8.3,1.3c0.2,0.6,1.2,3.9,2.1,7.1c1.7,5.6,1.8,5.8,2.9,3.6
		C38,549.7,39.6,548.3,41,547.9z M79.2,467.6c19.3-8.5,25.1-36.4,10.6-50.5c-3.8-3.6-4-4.1-2.2-4.7c8.1-2.9,8.2-3,8.9-8.4
		c0.4-2.8,0.5-5.4,0.2-5.7c-0.3-0.2-1.9,0.5-3.5,1.7c-4.3,3.2-19.4,4.2-55.9,3.8C20.1,403.6,6,403.7,6,404.1c0,0.3,0.7,2.8,1.6,5.5
		c0.9,2.7,1.8,5.5,2,6.3c0.4,1.1,0.7,1,1.8-0.4c0.7-1,3.4-2.1,6.2-2.6c7.2-1.2,25.4-1.1,25.4,0.1c0,0.6-0.4,1-0.9,1
		c-1.9,0-7.5,6.6-9.8,11.7c-2.2,4.8-2.5,6.5-2.1,13.2c0.3,4.7,1.3,9.4,2.6,12.3c3.8,8.7,14.1,16.7,24.2,18.9
		C62.8,471.4,73.5,470.2,79.2,467.6z M88.9,385.6c6.3-4.4,8.6-10.1,8.6-21.6c0-11.1-1.2-14.4-8.2-21.3l-4.6-4.6l2.9-0.7
		c6.4-1.5,8.2-3.1,9-7.9c0.3-2.5,0.4-4.8,0.1-5.1c-0.3-0.3-2.4,0.5-4.8,1.7c-3.9,1.9-6.4,2.2-25.4,2.8c-19.3,0.6-21.4,0.9-25,3
		c-7.8,4.3-11.5,13-11.5,26.9c0,8.6,2.9,22.3,5.3,25.6c1.1,1.4,1.7,1.4,6.6-0.1l5.5-1.6l-4.7-2.4c-5.9-2.9-9.5-8.2-10.7-15.7
		c-2.4-15.1,4.6-24.8,19.3-26.3l5.7-0.6v7.6c0,21.7,5.7,38.4,14.4,42.3C76.2,389.8,84.1,388.9,88.9,385.6z M77.4,311.4
		c3.2-1.1,6.8-3.6,10.5-7.3C95.3,296.9,98,290.2,98,279c0-6.9-0.4-8.6-3.2-14.1c-3.5-6.6-11.1-13.4-14.4-12.7
		c-1.2,0.2-0.3,1.2,3,3.3c5.3,3.3,10.2,10,11.2,15.2c1.2,6.6-0.2,15.3-3.3,19.7c-6,8.5-14.4,12-28.8,12c-14.3,0.1-24-4.5-28.5-13.5
		c-2.4-4.6-2.7-15.3-0.6-20.2c1.7-4.1,7.1-9.5,11.5-11.3c3.9-1.6,3.4-2.6-2.5-4.2c-5.5-1.6-5.1-1.8-7.5,3.1
		c-4.6,9-6.3,22.9-3.8,32.2C36.3,308.6,56.6,318.6,77.4,311.4z M301.5,277.6c8.5-2.3,21-8.7,27.9-14.3c10.8-8.7,20.5-23.6,24.2-37.1
		c2.5-9.1,3-25.6,0.9-34.8c-3.1-14.1-9.7-26.4-19.6-36.3c-20.5-20.4-50-27-77.5-17.1c-22.5,8.1-41,29.4-45.9,52.8
		c-8.4,40.5,16.2,78.4,57,87.8C276.1,280.3,293.3,279.8,301.5,277.6z M645.5,277.5c24.6-6.5,45.3-27.4,52.2-52.5
		c2.4-8.8,2.4-28-0.1-36.9c-7-25.4-26.7-45.1-52.2-52.2c-10.6-3-26.6-3-37.5-0.1c-25.3,6.8-45.9,27.7-52.4,53.2
		c-2.6,9.8-2.3,26.5,0.4,36.4c7.4,26.8,28.7,47,56.1,53.1C620,280.3,637,279.8,645.5,277.5z M96.9,231c0-5.5-0.2-10-0.5-10
		s-1.7,0.9-3.3,2.1c-4.2,3.1-15.6,4.1-39.8,3.7c-14.4-0.3-21.3,0-21.3,0.7c0.1,0.5,0.8,3.8,1.8,7.2l1.7,6.2l2.2-2.5l2.1-2.4h22.9
		c23.4,0.1,29.5,0.9,31.8,4.4C96.3,243.2,96.9,240.9,96.9,231z M19.6,234.6c1.3-2.2,1.4-2.9,0.2-5.3c-1.5-3.2-4.1-4-7.4-2.2
		c-2.7,1.4-3.4,6.5-1.2,8.7C13.3,237.9,17.8,237.2,19.6,234.6z M79.7,207c10.8-5.3,17.2-15.5,18.1-28.6c1.5-23.1-12-38.4-33.8-38.4
		c-14.6,0-24.3,5.7-30.2,17.8c-3.1,6.3-3.3,7.3-3.3,17.2c0,9.9,0.2,10.9,3.3,17.2c4.7,9.6,12.2,15.7,22.2,17.9
		C62.6,211.6,73,210.2,79.7,207z M22,180.5c0-0.3-3.6-4.8-8.1-10c-8-9.4-11.2-11.4-12.6-7.9c-0.7,1.9,1.4,4,11.7,12.3
		C20,180.6,22,181.8,22,180.5z M96.6,110.3c-0.2-0.3-1.8,0.5-3.5,1.8c-2.8,2-4.5,2.3-16.8,2.7c-23,0.7-33.7-2.2-39.8-10.7
		c-2.7-3.9-3-5-3-12.1c0-9.7,1.6-12.2,10-16.5c5.7-2.8,6.5-3,22.2-3.3C85.2,71.7,90,72.3,94,75.6l3,2.6V68.1
		c0-5.6-0.2-10.1-0.4-10.1c-0.3,0-2.1,1-4.1,2.1c-3.2,1.9-5.8,2.3-23.8,3c-11.8,0.4-21.8,1.3-24.2,2.1C35.9,68,30,77.8,30,89.1
		c0,11.2,4.6,19.1,13.7,23.6l5.8,2.8l-8.8,0.3c-7.6,0.2-8.8,0.5-8.3,1.9c0.4,0.8,1.1,3.5,1.7,5.9c0.6,2.4,1.4,4.4,1.6,4.4
		c0.3,0,1.6-0.9,3-2c2.4-1.9,4.1-2,24.6-2c22.9,0,28.2,0.7,31.4,4.3c1.7,1.8,1.8,1.6,2.1-7.8C96.9,115.1,96.9,110.5,96.6,110.3z
		 M343.4,125c6.3-3.2,12-9.7,14.7-16.9c2.1-5.3,2.2-7.3,2.4-43.8c0.2-36.4,0.1-38.3-1.6-38.3c-1,0-2.8,0.4-4.1,0.9
		c-1.3,0.5-4.5,1.5-7.2,2.2c-4.7,1.2-4.8,1.3-2.4,2.1c4.4,1.5,4.8,4.7,4.8,37.2c-0.1,29.7-0.9,42.2-3.2,48.1
		c-3.2,8.4-10.2,10.2-15.7,4c-1.7-2-3.1-4-3.1-4.5c0-0.6-0.4-1-0.9-1c-0.7,0-4.1,10.2-4.1,12.4c0,0.5,3.5,0.6,7.8,0.4
		C336.5,127.6,339.8,126.8,343.4,125z M306,99.9c5-1.2,11-5.4,14.5-10c2.5-3.4,3.1-3.8,3.7-2.2c0.4,1,1.7,4.2,2.9,7.1l2.1,5.2
		l7.2-0.1c6.8,0,7-0.1,4.8-1.6c-4.6-3.2-5.4-7.3-6.2-31.3c-0.5-13.6-1.3-24.3-2.1-27c-3.7-12.4-19.9-18.7-41.2-16
		c-8.2,1-19,4.1-21.1,6.1c-0.5,0.5-0.2,3.5,0.9,7.5l1.8,6.8l2.2-5c4.2-9.4,11.7-13.7,24.5-13.8c7.5-0.1,9,0.2,13.1,2.6
		c2.5,1.5,5.3,3.7,6.1,5c2.4,3.8,4.8,11.9,4.8,16.5V54h-6.7c-9.9,0-27,2.5-33.8,4.9C272.6,62.7,266,70,266,78
		c0,6.3,1.6,10.8,5.3,14.8C278.7,100.6,292.2,103.4,306,99.9z M506.5,98.6c6.5-2.9,11.9-7.7,15.2-13.3c2.9-5,2.1-7.3-1.1-2.9
		c-7.8,10.8-13.5,14.6-23.3,15.4c-15.5,1.2-27-7.8-30.9-24.3c-2.5-11-1.4-25,2.7-33c5.2-10.1,13.2-14.9,24.5-14.9
		c9.7,0.1,16.1,3.5,20.9,11.3c1.9,3,3.5,6.1,3.5,6.8s0.3,1.3,0.8,1.3c0.8,0,4.7-12.8,4.1-13.4c-0.2-0.2-2.6-1.5-5.4-2.8
		c-13.2-6.6-32.2-7.1-44.4-1.1c-17.6,8.6-25.3,30.1-17.9,50C462.3,96.9,487.7,107.2,506.5,98.6z M578.4,99.3c6-2.2,12.7-8,16.2-13.9
		c2.8-4.7,2.4-7.7-0.5-3.4c-3.8,5.8-10.4,11.9-15.3,14c-6.5,2.8-17.1,2.5-23.3-0.8c-12-6.2-18.6-21.3-17.1-39
		c1.8-19.6,12-30.7,28.1-30.6c11,0.1,18.8,5.2,23.6,15.4l2.2,4.5l1.8-5c3.3-9.5,2.7-10.4-10.1-14.3c-13-4-27.7-3.5-37.6,1.3
		c-6.2,3-14.7,11.8-17.7,18.2c-1.9,4.1-2.2,6.6-2.2,16.8c0,11,0.2,12.4,2.7,17.5C537.9,97.7,559.4,106.1,578.4,99.3z M640.5,99.3
		c3.5-1.1,6.5-3.2,10.3-7c3-3,5.6-5.3,5.7-5.1c0.2,0.2,1.4,3,2.7,6.3l2.4,6l6.8,0.3l6.9,0.3l-2.6-3.1c-3.9-4.6-4.5-8.3-5.5-33.6
		c-0.8-21.1-1-23.3-3.1-27c-7-12.4-30.3-16.8-52.1-9.8c-10.7,3.4-10.3,2.9-7.8,10.9l2.1,7l1.1-3.1c3.7-10.4,12.2-15.8,24.6-15.9
		c4.1,0,9.1,0.6,11.2,1.3c7.4,2.6,12.3,10.5,13.5,21.4l0.6,5.8h-7.4c-9.6,0.1-26,2.3-32.4,4.5c-7,2.3-13,6-15.3,9.3
		c-7,9.8-3.4,23.5,7.8,29.6C618.4,102,629.8,102.7,640.5,99.3z M771.1,99.9c5-1.2,12.6-6.5,15.4-10.7c2.1-3.1,2.5-3.3,3.1-1.6
		c1.7,5.3,3.7,10,4.6,11.2c0.7,0.7,3.6,1.2,7.7,1.2c6.4,0,6.5-0.1,4.4-1.8c-4.7-3.6-5.6-8.1-6.3-32.7c-0.5-20.4-0.8-23.5-2.7-27.7
		c-2.5-5.4-8-9.8-15.6-12.5c-6.1-2.1-24.3-2.3-31.7-0.4c-5.7,1.5-15,5.2-15,5.9c0,1.7,3.4,12.2,3.9,12.2c0.4,0,1.3-1.6,2-3.5
		c1.8-5.1,5.4-9,10.8-11.6c3.9-1.9,6.4-2.3,13.3-2.3c15.9,0.1,21.7,5.7,24.5,24.2l0.7,4.2h-7.4c-9.6,0-27,2.4-33.3,4.6
		c-14.5,5-20.8,14.2-17.5,25.8C735.8,97.9,752.5,104.6,771.1,99.9z M829.5,99.5c1.4-1.3,2.5-3.5,2.5-4.9c0-2.9-4.2-6.6-7.6-6.6
		c-2.6,0-6.4,4.3-6.4,7.2c0,2.5,4.4,6.8,7,6.8C826.2,102,828.2,100.9,829.5,99.5z M896.2,100c5.7-1.6,12.9-7.1,17-13
		c3.4-4.7,4-7,2-7c-0.4,0-1.6,1.6-2.7,3.6c-2.7,5-9.7,11-15.2,12.8c-10.7,3.7-22,1.1-29.5-6.6c-6.3-6.4-8.9-13.6-9.5-25.8
		c-1-18.1,4.4-30.2,16.2-36.3c5.8-3,16.4-2.9,22.7,0.2c5.5,2.6,11.2,8.8,12.9,13.8c0.6,1.9,1.5,3.1,1.9,2.6c0.9-1,4-10.2,4-11.8
		c0-0.7-2.6-2.4-5.7-3.8c-10.8-4.8-20.5-6.2-31.4-4.7c-18.3,2.6-30.3,14.3-33.1,32.4c-2.6,16.8,5.3,33.4,19.5,40.7
		C874.1,101.7,886.4,102.8,896.2,100z M938.3,100.9c3-1.6,3.7-2.8,3.7-6.6c0-3.5-2.9-6.3-6.5-6.3c-3.1,0-6.5,3.6-6.5,6.8
		c0,3.2,0.8,4.5,3.5,6C935,102.2,935.7,102.3,938.3,100.9z M428,97.3c11.4-5.4,18-13.8,20.6-26.4c1.3-6.2,1.4-8.6,0.4-14.9
		c-2.9-17.9-14.7-29.4-32.7-32c-23-3.2-41.8,8-46.9,28c-5.2,20.5,6,41.1,25.9,47.6c2.8,0.9,8,1.3,15.2,1.1
		C420.5,100.5,422.1,100.2,428,97.3z M149.5,96.7c-4.2-4.2-4.9-9-4.3-31.5c0.6-18,1.4-22,6.5-29.3c8.6-12.2,28.8-11.9,35.5,0.6
		c3.7,6.9,4.8,14.5,4.8,34.1c0,18.7-0.8,23.2-4.8,26.9l-2.7,2.5h12.8h12.9l-3-3c-3.8-3.7-4.1-5.4-4.9-23.5
		c-0.6-16.2,0.6-28.9,3.2-34.2c2.2-4.5,8.7-10,13.2-11.2c9-2.5,19-0.1,23,5.5c4.7,6.7,5.7,11.8,6.1,33c0.4,22.2-0.3,26.9-4.6,30.9
		l-2.7,2.5h13h13l-2.7-2.3c-1.5-1.2-3.2-3.5-3.9-5.2c-0.6-1.7-1.4-13.1-1.8-26.1c-0.7-22.4-0.8-23.2-3.4-28.6
		c-4.8-9.8-12.7-14.1-25.3-14.1c-12.7,0.1-21.5,5.2-26.2,15c-0.9,1.8-1.8,3.3-2.2,3.3c-0.3,0-1.2-1.6-1.9-3.5
		c-3.1-8.8-13.2-14.8-24.6-14.8c-13.7,0-23,5.5-28,16.7l-2.4,5.1v-9.2c-0.1-5-0.5-9.4-0.9-9.7c-0.5-0.3-3.9,0.5-7.5,1.6l-6.7,2.2
		l2.7,2.2l2.8,2.2v26.9c0,14.7-0.3,28-0.7,29.5c-0.5,1.4-2,4-3.4,5.7l-2.6,3.1h12.5h12.5L149.5,96.7z"/>
	<path d="M51.9,458.6c-11.5-3.1-18.7-10.7-19.7-20.7c-0.7-7.5,1.3-13.2,6.4-17.8c5.7-5.3,13-7.5,25.4-7.5s19.7,2.2,25.4,7.5
		c10.1,9.3,8.4,26.9-3.3,34.3C78.1,459.5,62.4,461.4,51.9,458.6z"/>
	<path d="M71.5,376.8c-7.3-4-11.1-12.1-12.4-26.1c-1.3-13.5-1.7-13,10.3-12.5c10.8,0.4,15.8,2.2,20.3,7c7.9,8.4,6.8,25.5-2,30.8
		C84.1,378.2,74.9,378.7,71.5,376.8z"/>
	<path d="M52,198.6c-9.2-2.1-15.1-6.1-18.6-12.7c-1.9-3.6-2.5-14.1-1.1-19.1c1.1-4.1,6.4-9.6,12.1-12.6c4.8-2.6,5.8-2.7,19.1-2.7
		c12.1,0.1,14.6,0.4,18.6,2.2c5.3,2.4,10.9,8,12.6,12.6c3.7,10.1-0.4,22.8-8.9,28.1C77.4,199.5,63.7,201.2,52,198.6z"/>
	<path d="M288.2,95.9c-10.6-5.3-13.3-19.7-5.5-29c1.4-1.6,4.7-4.1,7.4-5.4c5.4-2.8,19.3-5.5,28-5.5h5.9v10.3
		c0,11.8-1.1,16.5-5.1,22.3C312.9,97.4,298.2,100.8,288.2,95.9z"/>
	<path d="M621.4,96.1c-5.4-2.4-9.2-7.6-10-13.4c-1.3-9.2,1.6-15.2,9.9-20.4c4.9-3.1,19.6-6.3,29.1-6.3h6.8l-0.4,12.3
		c-0.5,13.6-1.8,17.5-8,23.4C642.4,97.9,629.8,99.9,621.4,96.1z"/>
	<path d="M757,97.4c-8.3-3.3-11.7-7.1-13-14.6c-1.8-9.8,3.8-18.7,14.3-22.6c6.3-2.4,20.2-4.5,26.7-4l4.5,0.3l-0.1,10
		c-0.1,12-1.4,17-5.7,22.6c-4.5,5.9-9.6,8.3-18.2,8.6C761.7,97.8,757.8,97.7,757,97.4z"/>
	<path d="M399.6,97.8c-5.6-1.5-12.7-9-15.7-16.4c-2.1-5.2-2.4-7.5-2.4-19.9c0-13,0.2-14.4,2.6-19.5c5.2-11,11.7-15.9,22.4-16.7
		c20-1.6,31.8,14.1,30.1,40.2c-1,16-5.5,25.4-14.6,30.4C417,98.7,406.1,99.6,399.6,97.8z"/>
</g>
<g id="layer104">
	<path class="st0" d="M951.1,587.5c-0.9-3.3-3.5-9.4-5.8-13.5c-4.2-7.8-16.7-32.2-39.3-76.5c-7.3-14.3-16.5-32.3-20.5-40
		c-4-7.7-13.7-26.6-21.5-42c-14.6-28.7-24.4-47.8-39.7-77.2c-13.9-26.9-21.4-35.3-31.4-35.3c-4.3,0-8.1,2.3-12.8,7.7
		c-3.9,4.4-6.6,9.3-15.7,28.8c-2,4.4-5.8,12.5-8.4,18c-6.2,13.1-32.7,69-39.3,82.8c-4,8.5-5.3,10.5-6.2,9.5
		c-0.7-0.7-7.6-13.9-15.5-29.3c-46.2-90.7-49.5-97-54.6-104.2c-14.9-21-28.4-17.9-41.7,9.8c-3.1,6.3-10,20.9-15.4,32.4
		C551.1,426.7,539.5,451,539,451c-0.3,0-3.3-5.5-6.7-12.3c-3.5-6.7-11.4-22.1-17.6-34.2s-18-35-26.2-51c-8.1-15.9-15.8-30.6-17-32.5
		c-12.7-19.9-24.5-23.2-35.5-9.9c-3.7,4.3-6.4,9.5-18,34.4c-1.8,3.9-6.6,13.9-10.6,22.4c-4.1,8.4-7.4,15.5-7.4,15.6
		c0,0.2-4.1,8.7-9,19c-5,10.3-9,18.8-9,19c0,0.7-14.1,29.5-14.4,29.5c-0.4,0-9.1-16.7-32.8-63c-37-72.1-37-72.1-44.7-79.3
		c-8.9-8.4-16.2-8.2-24.6,0.8c-5.7,6-5.6,5.7-28.6,54.5c-9.4,20.1-19.4,41.2-22.2,47c-2.7,5.8-6.6,14.1-8.7,18.5
		c-5.5,11.7-9.7,20.6-41.5,87.5c-15.8,33.3-29.9,63.4-31.2,66.9c-7.7,20.6-7,42.9,1.9,61.1c6.5,13.4,22.3,25.6,35.8,27.8
		c3,0.4,28.5,0.5,56.5,0.1c41.5-0.5,277.6-0.4,296,0.2c11.3,0.4,305.8-1,340-1.6c41.4-0.7,46.5-1.4,58.1-7.1
		c14.3-7,24.7-20.5,29.4-38c1.9-6.9,1.9-6.4,1.9,84.9L953,803H476.5H0V484V165l10.4,8.5c9.8,8,12.6,9.7,12.6,7.6
		C23,178.8,6.1,160,4,160c-0.9,0-2.1,0.5-2.8,1.2c-0.9,0.9-1.2-16.8-1.2-80V0h175.2c136.3,0,174.9,0.3,174,1.2
		c-2,2-1.5,8.3,0.8,10.3c2.2,2,7.4,2.3,9.5,0.5c2.2-1.8,2.7-5.9,1.1-9.1L359.2,0h296.9H953 M952.9,296.8 M509.8,800.5
		c-3.6-2-4.8-6.7-4.8-19.3V771l3.6,3.9c4.6,5.1,11.3,7.5,19.7,6.9c15.6-1,26.9-13.5,26.9-29.8c0-12.1-5.5-21-15.9-26.2
		c-5.8-2.8-6.9-3-14.1-2.6c-9.6,0.6-13.4,2.5-17.9,9.2l-3.3,4.8v-6.1c0-6.9,0-6.9-7.8-4.3c-5.2,1.7-5.3,1.8-2.9,2.9
		c3.7,1.7,4.1,6,3.5,37.7c-0.5,27.8-0.9,30.4-4.7,33.3c-1.3,1,0.6,1.2,9.4,1.2C511.7,801.9,512.3,801.8,509.8,800.5z M610,779.1
		c10.5-5.4,16-14.5,16-26.6c0-18.7-13.2-30.4-33-29.3c-17.8,1-28.3,11.6-28.4,28.8c-0.2,14,6.4,23.8,18.8,28.2
		C590.6,782.8,603.8,782.2,610,779.1z M751.8,779.4c7.2-3.6,14.8-13.7,14-18.7c-0.3-1.7-0.8-1.1-2.6,2.8
		c-4.6,10-12.4,15.5-22.2,15.5c-7.5,0-13-2.7-16.8-8.2s-5.2-10.6-5.2-19V745l23.4-0.2l23.5-0.3l-1.8-5.3c-2.1-6.1-4.8-9.4-11.1-13
		c-4.1-2.4-5.5-2.7-14.5-2.7c-11.2,0-16.1,1.8-21.8,7.8c-8.4,9.1-10.4,24.3-4.6,35.7c2.5,5.1,7.7,10,13.4,12.6
		C732.9,783.1,744.6,783,751.8,779.4z M868.1,780.5c10-3.6,15.8-10,18.5-20.7c3.9-15-4.7-31.1-18.6-35.2
		c-16.5-4.9-32.7,1.1-39.4,14.6c-3.2,6.3-3.5,16.7-0.9,24.4c2.1,6.2,10,14.2,16.3,16.6C849.8,782.3,862.3,782.5,868.1,780.5z
		 M934.2,780c9.2-3.5,13.8-9.2,13.8-17c0-7.2-2.7-10.5-10.6-12.9c-3.6-1.2-7.8-2.1-9.3-2.1c-5.7-0.1-15.3-2.9-17.7-5.1
		c-4.4-4.1-2.3-12.3,3.9-15.5c10.3-5.4,20.8-2.9,25.5,6.1l1.5,3l1.3-3c3.6-8.4,1.1-9.8-17.1-9.9c-14-0.1-18.2,1.1-23.1,6.6
		c-6.3,6.9-4.5,16.6,3.8,20.7c2.5,1.2,9,3,14.4,4c16.2,3.1,18.1,4.5,17.1,12.8c-0.8,7.8-7.1,12.3-17,12.3s-17-3.7-20.6-10.9
		l-1.8-3.4l-1.7,4.8c-2,6.2-2,6.2,0.6,7.6C905.2,782.4,925.3,783.4,934.2,780z M652.7,779.9c-3.6-2.1-4.7-7.1-4.7-21.4
		c0-13.9,1-18.6,4.6-22.7c2.4-2.6,7.1-3.3,9.9-1.4c2.3,1.5,2.4,1.5,3.9-3.1c2.2-6.3,2-7.3-0.9-7.3c-5.5,0-12.1,4.8-16.4,12l-2.1,3.5
		v-7.7v-7.7l-5.7,1.6c-6,1.7-9,3.3-6,3.3c3.1,0,3.7,3.6,3.7,23.5c0,20.6-0.8,25.1-4.7,27.4c-1.3,0.8,0.9,1,9.2,1
		S654,780.7,652.7,779.9z M791.4,778.7c-3.8-3.3-4.3-7.7-4.3-44.6c-0.1-30.4-0.2-32.3-1.8-31.6c-1,0.3-3.9,1.1-6.5,1.7
		c-4.5,1.1-6.6,2.8-3.3,2.8c2.6,0,3,4.9,3,35.5c0,26.6-0.2,30.4-1.8,33.2c-0.9,1.8-2.5,3.7-3.4,4.2c-1.3,0.8,1.3,1,9.5,1.1h11.3
		L791.4,778.7z M816.8,778.5c-1.4-1.4-2.8-3.9-3.2-5.6c-0.3-1.8-0.6-18.4-0.6-37.1v-34l-2.2,0.7c-1.3,0.3-4.2,1.1-6.5,1.7
		c-2.4,0.5-4.3,1.2-4.3,1.4s0.9,1.3,2,2.4c1.9,1.9,2,3.3,2,31.9c0,16.4-0.3,31.2-0.6,33c-0.4,1.7-1.7,4.2-3,5.6l-2.3,2.5h10.6h10.6
		L816.8,778.5z M38,668.9v-5l26.1,0.3l26.1,0.3l3.3,3.7c1.8,2,3.5,3.5,3.7,3.3c0.2-0.2,0.2-6.1,0-13.1l-0.3-12.8l-2.2,2.8
		c-3.2,4-7.5,4.5-33.4,4.6H38v-6c0-4.6-0.4-6.2-1.6-6.7c-2.2-0.8-3.4,1.5-2.9,6c0.6,6.4,0.2,6.7-8.5,6.7c-11.9,0-16-2.1-16-8.3
		c0-2.4,4.9-7.7,7.1-7.7c2.6,0,0.3-2-3.8-3.4c-7.1-2.4-7.3-2.3-7.3,4c0,8.4,1.8,13.3,7,18.5c4.5,4.5,7.8,5.9,17.2,7.4
		c3.4,0.5,3.7,0.9,4.3,4.8c0.7,3.9,1.8,5.6,3.8,5.7C37.7,674,38,671.7,38,668.9z M37.4,634.6c0.3-1.3,1.4-2.7,2.3-3.1
		c1-0.5,11-1.1,22.3-1.4c18.1-0.5,21-0.8,24.5-2.7c8.7-4.5,13.4-15.3,12.2-28.1c-0.7-7.6-3.3-12.8-8.5-17.5l-4-3.6l5.1-1.9l5.2-1.8
		l0.3-7.5c0.3-7.2,0.2-7.4-1.4-5.1c-3.5,5-6.7,5.5-36.6,5.9C43.5,568,31,568.5,31,569c0,0.4,0.7,3.2,1.6,6.1c0.9,3,2,6.5,2.4,7.9
		l0.7,2.5l1.3-2.7c2-4.3,6.2-5.1,23.9-4.6c13,0.4,16.6,0.9,21.3,2.7c9.6,3.7,13.5,10.4,12.5,21.7c-1.1,14.7-7.8,17.3-43.6,17.4H30.8
		l0.6,2.3c0.4,1.2,1.4,5,2.3,8.5C35.4,637.4,36.4,638.5,37.4,634.6z M97,542.5V530l-2.7,3c-2.6,2.9-3.5,3.2-13.3,4.2
		c-11.6,1.2-27.9,0-34-2.6c-8.7-3.6-13.2-10.3-13.2-19.6c0-14.7,8.4-19,36.8-19c17.6,0,20.7,0.6,24.1,4.7c1.2,1.5,2.3,2.5,2.5,2.3
		c0.2-0.3,0.2-6,0-12.8l-0.3-12.3l-2,2.5c-2.9,3.7-6.6,4.4-26.9,5c-20.7,0.7-25.8,1.9-30.9,6.8c-5.8,5.6-7.5,10.2-7.5,19.8
		c-0.1,7.6,0.3,9.1,2.9,14c2.1,3.8,4.5,6.5,7.9,8.8l4.8,3.2h-5.8c-8.2,0-8.5,0.4-6.3,7.5c3,9.5,2.9,9.3,4.1,7
		c2.3-4.3,3.2-4.5,26.2-4.5c23.8,0,28.7,0.7,31.2,4.5c0.9,1.4,1.8,2.5,2,2.5C96.8,555,97,549.4,97,542.5z M72.4,470.5
		c9.5-1.6,19-9.1,23.5-18.5c2.1-4.6,2.6-6.9,2.5-14c0-9.6-2.2-15.5-7.4-20.5c-1.7-1.6-3-3.2-3-3.6c0-0.5,2-1.7,4.5-2.8l4.5-2v-7.3
		c0-7-0.1-7.2-1.6-4.9c-3.8,5.4-5.6,5.6-49.4,5.9c-31.2,0.2-40.5,0.5-40.3,1.5c0.1,0.6,1,4.6,2,8.7l1.9,7.5l1.5-3
		c1.8-3.8,3.9-4.3,18.3-4.4l11.9-0.1l-4.2,4.6c-6,6.4-7.5,10.4-7.5,19.9c0,9.2,2,14.7,7.9,21.9c4.3,5.2,13.3,10.3,20.6,11.5
		C63.5,471.8,64.8,471.7,72.4,470.5z M84.3,388.8c8.9-2.7,14-11.6,14.1-24.8c0.1-10.1-2.2-15.8-8.7-22.1c-2.3-2.1-3.5-3.9-2.7-3.9
		c0.8,0,3.4-0.7,5.7-1.6l4.3-1.7v-7.5v-7.5l-2.1,2.7c-3.6,4.5-5.4,4.9-26.9,5.8c-11.3,0.4-21.8,1-23.5,1.4c-4,1-11.8,9-13.3,13.9
		c-2.3,7.1-2.6,18.4-0.8,27.5c1.9,9.2,4.9,16.1,6.9,15.5c0.6-0.2,3.6-1.1,6.6-2.1l5.4-1.7l-5.4-2.7c-5.9-2.9-9.3-7-11-13.4
		c-1.5-5.4-0.6-14.8,1.8-18.8c2.5-4.3,9-7.8,15.8-8.5l5.5-0.6v6.4c0,10.1,2.7,25.5,5.6,31.9C66.6,388.2,73.8,391.9,84.3,388.8z
		 M77.4,312c7.6-2.9,13.9-8.8,17.8-16.8c3-6,3.3-7.5,3.3-15.7c0-7.4-0.4-9.8-2.4-13.8c-4-8.1-14.5-16.7-17.2-14
		c-0.6,0.6,0.8,2.2,4.1,4.4c9,6.1,12.5,14.3,10.8,25.3c-2.1,13.7-15.3,21.5-34.7,20.4c-17.5-1-28.7-12-26.8-26.3
		c1.2-8.2,5.8-14.3,13.6-17.7c2.4-1.1,3.9-2.3,3.5-2.8c-1.4-1.2-11.7-3.9-12.7-3.3c-1.8,1.1-5.7,11.4-6.8,18
		c-3.1,19.4,5.1,36.3,20.5,42.2C57.5,314.7,70,314.7,77.4,312z M299,278.7c31-6.3,55.4-34.7,57.7-66.9c2.3-34.1-18.8-65-52.1-75.9
		c-6.1-2.1-9.1-2.4-21.6-2.4s-15.5,0.3-21.6,2.3c-24.2,8-42.9,27.1-49.6,50.6c-3.3,11.6-3.2,30,0.1,40.6
		c9.4,30.3,33.7,50.2,65.1,53.4C281.9,280.9,292.4,280.1,299,278.7z M646,277.9c13.8-3.7,23.9-9.8,34.5-21
		c13.1-13.8,19.8-30.9,19.7-50.4c0-13.5-1.7-20.8-8-33.5c-3.8-7.9-6.1-10.9-13.2-18c-9.6-9.6-17.8-14.8-29.5-18.7
		c-7.1-2.4-9.6-2.7-22.5-2.7c-16.2-0.1-21.1,0.9-33.5,7.1c-17.9,8.8-30.7,24.1-37.7,44.8c-2,6.1-2.3,8.9-2.2,21.5
		c0,12.9,0.3,15.4,2.7,22.5c3.8,11.4,9,19.8,18.2,29.1C593.4,277.8,619.6,284.8,646,277.9z M477.3,276.7
		c23.5-7.7,42.8-27.9,48.7-51.3c3-11.6,2.8-27.5-0.6-39c-6-21-19.7-37.1-39.7-46.4c-36.3-17-79.3-1.8-96.6,34.3
		c-6.4,13.2-7.6,18.7-7.5,32.7c0.1,13.1,1.8,20.8,6.9,31.6c9.1,18.9,27.3,34,47.7,39.4C447,280.9,466.5,280.3,477.3,276.7z
		 M816.4,278c15.9-4.1,30.8-13.8,40.4-26.6c31.3-41.4,12.1-100.2-37.8-115.6c-10.8-3.3-30.2-3.3-41,0
		c-44.7,13.9-65.8,63.1-44.8,104.7c9.2,18.3,26.6,32.1,47.3,37.5C790.3,280.6,806.3,280.6,816.4,278z M97.2,230.6L96.9,218l-2.4,2.9
		c-3.8,4.5-8.5,5.1-37.4,5.1C41,226,31,226.4,31,227c0,0.5,0.6,2.9,1.4,5.2c0.8,2.4,1.7,5.8,2.1,7.6c0.8,3.8,2,4.2,2.9,0.7
		c0.4-1.6,1.6-2.7,3.4-3.2c3.6-1,41.6-1,46.4,0c2,0.4,4.9,2.1,6.4,3.7c1.5,1.6,3,2.7,3.3,2.5C97.2,243.4,97.4,237.5,97.2,230.6z
		 M19.2,236.3c5-4.5-0.6-13.3-6.5-10.2c-2.8,1.5-3.7,2.8-3.7,5.8C9,237.2,15.2,239.9,19.2,236.3z M74.5,209.8
		c16.6-4.1,27-22.6,23.5-41.8c-3.5-19.3-17.3-30.1-37-28.7c-13.2,0.9-23.5,7.9-28.8,19.7c-3.5,7.6-3.6,22.7-0.3,31.1
		C38.4,206.9,55.1,214.6,74.5,209.8z M97.2,120.3c-0.1-5.9-0.1-11.5-0.2-12.3c0-1-0.8-0.6-2.3,1.2c-1.2,1.5-3.5,3.2-5,3.8
		c-3.7,1.3-31.2,1.3-37.6-0.1c-11.6-2.5-18.3-10.1-18.3-21c0-9.7,5-15.6,15.2-17.8c8.3-1.8,25.9-2.4,34.5-1.2
		c6.9,0.9,8.4,1.5,10.7,4.1c1.5,1.6,2.9,2.6,3,2.2c0.2-0.4,0.1-6.1-0.2-12.7c-0.5-11.8-0.5-11.9-2.2-9.3C92.3,61,87.6,62,72,62
		c-26,0.1-34.1,2.8-39.2,13c-6.9,13.7-3.4,29.3,8.3,37.1l4.4,2.9h-6.6c-3.6,0-6.8,0.3-7.2,0.6c-0.5,0.5,1.3,7.7,3.4,13.3l1,2.5
		l1.9-3.1c1.8-3,2.2-3.1,10.7-3.8c11.6-1,37.7,0.2,41.9,2c1.8,0.7,3.8,2.3,4.4,3.5c0.6,1.2,1.4,1.9,1.7,1.6
		C97,131.3,97.2,126.2,97.2,120.3z M342.8,126.1c9.2-4.7,15.9-13.6,17.5-23.1c0.5-2.7,1.2-74.7,0.8-78.2c-0.1-0.4-2.5,0.1-5.3,1.1
		c-2.9,1.1-6.9,2.3-8.8,2.6c-5.2,1.1-5.5,1.5-2.1,3.6c1.7,1,3.3,2.9,3.7,4.3c0.3,1.3,0.4,18.6,0.1,38.3c-0.4,37.6-0.8,41-5.1,46
		s-11.6,2.6-14.6-4.8c-0.7-1.6-1.5-2.9-1.9-2.9s-1.7,3.2-3,7.1c-1.9,5.9-2.1,7.3-0.9,8.1C325.6,129.8,338.1,128.5,342.8,126.1z
		 M306.7,100.4c4.2-1.2,6.9-2.9,11.1-7c3.1-2.9,5.6-5.3,5.7-5.1c0.1,0.1,1.2,2.7,2.4,5.8l2.2,5.7l6.7,0.4c8.9,0.6,9.8,0.2,6.3-3.1
		c-1.6-1.5-3.4-4.5-4-6.7c-0.6-2.1-1.4-14.3-1.9-27c-0.8-22.4-0.9-23.3-3.5-27.6c-5.8-10-19.5-14.5-38.2-12.7
		c-9,0.9-19.6,3.8-23,6.3c-1.7,1.2-1.7,1.6,0.4,8.4c1.2,4,2.3,7.2,2.6,7.2c0.2,0,1.5-2.4,2.8-5.4c4.1-9,12.1-13.6,23.6-13.6
		c14.3,0,21.1,6.6,23.6,22.6c0.6,4,0.5,4.1-2.6,4.8c-1.7,0.3-6.4,0.6-10.4,0.6c-22.8,0-41.6,8.2-44.6,19.4
		c-1.2,4.4-0.4,11.7,1.7,15.8c2,3.9,8.5,9,14,10.9C287.9,102.3,299.6,102.5,306.7,100.4z M426.5,99c9.1-3.5,18.4-13.2,21.3-22.3
		c4-12.4,2.5-26.7-4-36.9c-3.6-5.8-8.7-9.9-16.5-13.6c-5.3-2.5-6.8-2.7-18.3-2.7c-11.9,0-12.8,0.1-19.1,3.1
		c-8.9,4.3-14.2,9.3-18.1,17.2c-2.9,5.9-3.3,7.8-3.6,16.5c-0.5,12.8,2,20.6,9.1,28.3c5.7,6.3,9.9,9,17.5,11.5
		C402.7,102.8,418.1,102.2,426.5,99z M503.7,100.5c8.8-2.6,20.3-13.6,20.3-19.4c0-3.3-2.3-2.5-4.5,1.5c-2.9,5.3-10.7,11.9-15.9,13.4
		c-2.5,0.7-7.6,1.1-11.4,0.8c-8.6-0.4-15.2-4.1-19.9-11.1c-5-7.4-6.6-14.4-6.1-27.2c0.3-9.6,0.7-11.7,3.1-16.7
		c6.5-13.2,19.5-18.8,33-14.2c5.6,1.9,12.7,9.2,14.7,15.3c0.7,2.3,1.6,4.1,2,4.1c0.6,0,5-13.6,5-15.4c0-1.2-10.4-5.7-16.7-7.2
		c-9.6-2.3-25-1.5-31.8,1.5c-10.9,4.8-18.3,12.6-21.7,22.8c-2.2,6.9-2.4,19.8-0.3,26.7c3.7,12.1,13,21.1,26,25.2
		C485,102.4,497.6,102.3,503.7,100.5z M578.4,99.9c6.2-2.3,14.3-9,17.1-14.2l1.9-3.5l2.1,4.6c2.8,5.9,6.7,9.9,12.5,12.6
		c3.7,1.7,6.4,2.1,15,2.1c12.8,0,18.9-2.3,25-9.3c2.2-2.5,4.2-4.3,4.3-4.1c0.2,0.2,1.3,2.9,2.4,5.9l2,5.5l6.5,0.5
		c9.8,0.7,10.3,0.4,6.4-3.5c-1.8-1.8-3.6-4.6-4-6.1c-0.4-1.6-1.1-13.2-1.5-25.9c-0.4-12.6-1.3-24.2-1.9-25.6
		c-0.6-1.5-2.5-4.3-4.3-6.3c-6.1-7-14.6-9.8-29.4-9.7c-10.5,0-18.9,1.7-26.6,5.2l-4.6,2.1l1.9,6.2c2.9,9.7,2.8,9.5,5.2,4.1
		c4.3-9.4,10.7-13.6,22.2-14.3c11.3-0.7,18.3,2.7,22.5,11.1c2.7,5.2,3.7,14.6,1.8,15.8c-0.8,0.5-5.2,0.9-9.9,0.9
		c-15.6,0-31.7,3.8-39.2,9.1C602,65.8,598,72.9,598,77c0,2.6-0.3,3-1.3,2.1c-1.1-0.8-1.8-0.2-3.6,2.8c-3.1,5.6-11.5,12.9-16.4,14.2
		c-6.8,1.8-17.7,0.7-23-2.4c-4.7-2.8-10.4-10.3-12.6-16.7c-1.8-5.2-2.5-19.7-1.2-26.4c3-16.1,13.7-25.4,28.1-24.4
		c3.6,0.3,8,1.2,9.7,2.2c5,2.5,10.2,8.5,12.1,13.8c0.9,2.6,1.9,4.8,2.2,4.8c0.7,0,5-13,5-14.9c0-1.8-11.6-6.9-18.5-8.2
		c-3.3-0.6-10.3-0.9-15.6-0.7c-7.6,0.4-10.7,1-15.5,3.2c-7.8,3.5-15.5,11.2-19.1,19c-2.5,5.5-2.8,7.2-2.8,17.1
		c0,9.8,0.3,11.6,2.7,16.7c4.8,10.3,13.6,18,24.3,21.4C559,102.7,572,102.3,578.4,99.9z M775.5,99.1c2.7-1.2,6.9-4.2,9.2-6.8
		c3.7-3.9,4.4-4.3,4.9-2.7c0.3,1.1,1.4,3.8,2.4,6.1l1.9,4.1l6.8,0.4c8.8,0.5,9.9,0.1,6.8-2.4c-5.2-4.1-5.8-6.6-6.6-31
		c-0.5-12.5-1.3-24.6-2-26.7c-3.8-12.6-19.2-19.1-40.3-17c-8.1,0.8-21.8,4.7-23.8,6.7c-0.9,0.9,3,15.2,4.2,15.2
		c0.4,0,1.2-1.7,1.8-3.7c2.8-9.3,12.3-15.3,24-15.3c14.8,0,21.6,6.4,23.8,22.2c0.6,4.4,0.6,4.5-2.6,5.2c-1.8,0.3-6.7,0.6-10.9,0.6
		c-9.3,0.1-20.6,2.1-28.6,5c-11.1,4.2-17.6,13.5-15.9,22.8c2.5,13.7,13,20.5,30.9,19.9C768.2,101.5,771.8,100.8,775.5,99.1z
		 M829.8,100.4c2.9-2,3.1-8.3,0.2-10.9c-4.7-4.3-12-1-12,5.3c0,2,0.7,4.4,1.7,5.4C821.7,102.4,826.8,102.6,829.8,100.4z
		 M896.8,100.5c2.8-0.9,7.3-3.3,10.1-5.5c5.4-4.3,10.7-12.1,9.7-14.5c-0.8-2.2-2.1-1.8-3.4,0.9c-2,4.5-8.6,10.9-13.7,13.2
		c-10.4,4.9-25.3,2.2-32-5.8c-11.9-14.1-11.7-43.4,0.3-55.4c12.6-12.7,34.5-8.4,41.3,8.1c1.2,3,2.6,5.2,3,5c0.4-0.3,1.7-3.7,2.9-7.7
		c2.5-8.4,2.6-8.3-6.8-11.8c-9-3.4-15-4.3-25.4-3.8c-8.8,0.4-10.6,0.9-17.2,4.2c-12,5.9-18.9,15.8-20.5,29.3
		c-3.1,25.8,13.5,45.2,39,45.3C888.2,102,893.9,101.3,896.8,100.5z M940.8,100c3.8-3.6,2.7-9.5-2.1-11.5c-3.9-1.6-8-0.3-9.6,3.1
		c-1.6,3.5-1.4,4.7,1,7.8C932.7,102.7,937.6,102.9,940.8,100z M153.6,99.8c0.2-0.3-0.7-1.3-2.2-2.2c-3.9-2.6-5.2-7.1-6-19.7
		c-0.7-13.7,0.8-29.4,3.7-35.8c2.4-5.6,7.3-10.9,11.6-12.7c5.1-2.2,15.9-1.8,19.9,0.7c8.1,5,10.8,15,10.8,40.4
		c0,19.7-0.9,23.8-5.8,27c-1.4,1-2.6,2-2.6,2.4c0,0.4,25.5,0.6,29,0.2c0.3-0.1-0.9-1-2.6-2c-5.3-3.2-5.9-6.2-5.9-30.1
		c0-23.6,0.5-26.7,5.8-32.6c4.6-5.4,9.5-7.4,17.4-7.4c5.7,0,7.5,0.4,10.6,2.5c7.8,5.4,10.1,14.5,10.1,39.5c0,20.3-0.8,24.3-5.8,27.5
		c-1.4,1-2.6,2-2.6,2.4c0,0.5,26.7,0.6,29,0.1c0.3,0-0.7-0.7-2.2-1.6c-5.4-2.9-6.1-5.8-6.9-30.9c-0.8-26.2-1.7-30.3-8-36.6
		c-6.5-6.5-9.1-7.4-20.9-7.4c-9.7,0-10.9,0.2-15.7,2.9c-6,3.3-8.3,5.6-11.1,10.9l-2,3.9l-1.8-3.8c-4.2-8.9-12.1-13.6-23.4-14.2
		c-13.8-0.7-22.9,3.9-28.7,14.3l-3.3,6v-9.3c0-9.2,0-9.3-2.2-8.7c-10.6,3.2-14.7,4.8-14.2,5.6c0.3,0.5,1.1,0.9,1.9,0.9
		s2.1,1,2.9,2.2c1.4,1.9,1.6,6.3,1.6,27.8c0,14.6-0.5,27.1-1.1,29.3c-0.6,2.1-2.2,4.6-3.9,5.9c-1.7,1.2-3,2.4-3,2.8
		C126,100.6,152.9,100.5,153.6,99.8z"/>
	<path class="st0" d="M518.2,778.7c-4.6-1.7-8.1-5.3-10.6-10.7c-1.7-3.7-2.1-6.5-2.1-15.5c0-10.2,0.2-11.4,3-17
		c4-8.1,9.2-10.9,18-10.1c10.3,1,16.6,8.2,18.3,21c1.8,13.6-2.4,26.2-10.3,30.7C530.5,779.5,522.3,780.3,518.2,778.7z"/>
	<path class="st0" d="M586.1,777.8c-8.7-4.3-13.4-17.5-11.3-31.8c1.8-12.3,6.9-18.9,15.9-20.8c9.7-2.1,17.3,1.5,21.8,10.3
		c2.7,5.4,3,6.7,3,15.9c0,5.6-0.6,12-1.3,14.3C610.6,777.6,597.5,783.3,586.1,777.8z"/>
	<path class="st0" d="M720,740.6c0-3.5,6-11.8,10-13.8c5.1-2.6,12.9-2.3,17.1,0.5c3.6,2.4,7.9,9.6,7.9,13.4v2.3h-17.5H720V740.6z"/>
	<path class="st0" d="M850.2,779.3c-4.3-0.9-10.9-8.3-12.6-14.2c-2-7-2-18.7,0-25.8c3.1-10.7,12.7-16.6,23.3-14.2
		c9.3,2.1,14.5,8.9,16,20.9c1.7,13.5-2,26-9,30.7C864.1,779.2,855.5,780.5,850.2,779.3z"/>
	<path class="st0" d="M50.7,457.6c-11.1-3-17.7-11.2-17.7-21.8c0-7.5,1.7-11.6,6.9-16c5-4.3,10.1-5.9,20.6-6.5
		c22.1-1.4,34.8,6.9,34.7,22.5c-0.1,10.9-7.7,19.6-19.2,22.1C69.3,459.4,56.7,459.2,50.7,457.6z"/>
	<path class="st0" d="M72.5,376.6c-8-3.6-13.5-16.7-13.5-32.7c0-4.6,0.1-4.6,3.6-5.2c4.8-0.8,17.7,0.9,21.2,2.7
		c3,1.6,7.4,6.1,8.9,9.1c3,5.9,2.2,16.4-1.5,21.4C87.3,377.3,78.8,379.4,72.5,376.6z"/>
	<path class="st0" d="M50.1,197.4C38.2,194.2,32,186.5,32,174.8c0-15.1,11-23.2,31.5-23.1c11.5,0,16.2,1.1,22.6,5.2
		c12.2,7.7,12.3,28.2,0.2,36.3C78.2,198.7,61.9,200.6,50.1,197.4z"/>
	<path class="st0" d="M292.5,96.8c-9.1-2.3-14.2-10-13.3-19.7c1.2-12.5,15.7-20.1,38.2-20.1h6.9l-0.5,11c-0.5,9.2-1,11.9-3.2,16.4
		c-2.6,5.3-7.2,9.7-11.8,11.5C304.7,97.4,296.6,97.8,292.5,96.8z"/>
	<path class="st0" d="M397.5,95.9c-5.8-2.9-9-6.3-12.1-13.2c-2.5-5.5-2.9-7.6-3.2-18.4c-0.3-10.3-0.1-13.4,1.7-19.1
		c3.9-13,12.1-19.2,25.2-19.2c9.5,0.1,15.9,3.2,20.6,10.3c4.4,6.6,5.4,10.5,6,22.6c1,19.9-4.6,32.8-16.4,37.8
		C414.4,98.7,402.3,98.3,397.5,95.9z"/>
	<path class="st0" d="M626.1,96.9c-5.1-1-10.5-4.8-12.6-8.9c-2.2-4.2-1.9-13.8,0.4-17.6c4.8-7.8,15.5-12.2,31.9-13.1l10.2-0.6v10.9
		c0,9.3-0.4,11.6-2.4,15.9C648.8,94,638,99.2,626.1,96.9z"/>
	<path class="st0" d="M758.6,96.9c-9.5-2.2-15.2-9.8-14.4-19.1c1.3-12.6,12.3-19.2,34.2-20.5l10.9-0.6l-0.5,11.4
		c-0.5,12.9-2.6,18.9-8.2,23.6C774.9,96.5,766.1,98.6,758.6,96.9z"/>
</g>
</svg>
