<?xml version="1.0" encoding="utf-8"?>
<!-- Generator: Adobe Illustrator 25.0.0, SVG Export Plug-In . SVG Version: 6.00 Build 0)  -->
<svg version="1.1" xmlns="http://www.w3.org/2000/svg" xmlns:xlink="http://www.w3.org/1999/xlink" x="0px" y="0px"
	 viewBox="0 0 411.2 733.46" style="enable-background:new 0 0 411.2 733.46;" xml:space="preserve">
<g id="Layer_1">
</g>
<g id="Isolation_Mode">
	<g>
		<g>
			<path d="M239.03,376.64c1.5-5.18,6.15-8.38,10.38-7.15c0.31,0.09,0.59,0.25,0.88,0.38c-7.24-4.23-13.54-3.51-17.97-1.79
				c-2.86,11.95-18.59,16.31-30.74,5.5c-12.69-12.91-5.58-29.28-5.58-29.28c0.2-0.43,0.44-0.81,0.65-1.23
				c0.48,0.22,0.96,0.45,1.48,0.6c1.01,0.3,2.05,0.44,3.08,0.44c1.82,0,3.62-0.45,5.25-1.35c2.2-1.2,3.83-3.1,4.78-5.37
				c0.16-0.38,0.34-0.74,0.46-1.14c0.18-0.63,0.29-1.26,0.35-1.9c0.03-0.31,0.03-0.63,0.03-0.94c0.01-0.29,0.01-0.58-0.01-0.88
				c-0.03-0.42-0.08-0.84-0.16-1.25c-0.03-0.15-0.06-0.29-0.09-0.44c-0.11-0.49-0.24-0.97-0.42-1.44c-0.19-0.5-0.37-1-0.64-1.47
				c-1.41-2.55-3.74-4.41-6.55-5.22c-2.33-0.67-4.7-0.51-6.81,0.26c-6.57,2.18-10.46,11.03-10.46,11.03s-14.2,27.72,5.98,48.19
				c19.51,19.79,39.28,6.09,43.21,4.7c2.22-0.79,4.4-0.26,5.9,0.34C239.12,385.22,237.78,380.94,239.03,376.64z"/>
			<path d="M243.94,388.22c0,0,0.01,0.01,0.01,0.01l0,0C243.95,388.23,243.95,388.22,243.94,388.22z"/>
		</g>
		<g>
			<g>
				<g>
					<path d="M333.39,536.23c3.35,6.41,6.54,12.93,9.54,19.59c22.53,50.1,50.33,112.73,24.27,166.61c-1.68,3.48,2.64-4.03,1.71-2.56
						c3.22-5.08,6.07-10.54,9.03-15.76c6.11-10.8,12.74-21.51,18.15-32.69c21.32-44.07,8-92-9.21-135.19H333.39z"/>
					<circle cx="210.91" cy="198.57" r="37.55"/>
				</g>
			</g>
			<g>
				<path d="M151.14,185.07c14.04,41.25,41.88,80.1,68.88,113.95c3.3,4.13,6.66,8.2,10.05,12.25c10.51-29.5,19.66-59.45,25.9-90.22
					c8.37-41.29,13.33-85.15,4.21-126.76c-8.93-40.75-37.45-79.28-82.42-82.71c0,0,11.4-2.18,27.19-1.24
					c26.26,1.56,52.18,5.94,73.19,23.03c18.18,14.79,28.64,36.61,34.08,59.01c10.35,42.61,5.24,88.03-3.36,130.45
					c-7.87,38.78-20.31,76.25-34.34,113.15c-2.68-0.99-5.37-2.25-8.02-3.88c-11.69-7.22-21.84-11.01-30.52-12.64
					c-0.18-0.03-0.35-0.06-0.53-0.1c-2.8-0.5-5.46-0.79-7.95-0.88c-4.31-0.15-8.16,0.23-11.55,0.96c-5.44-5.7-13.72-7.05-20.46-4.98
					c-10.67,3.19-15.45,13.44-16.51,16.03c-0.35,0.72-1.04,2.25-1.83,4.39c-0.57-0.78-1.17-1.54-1.74-2.32
					c-25.98-35.78-51.88-75.79-61.08-119.6c-10.44-49.76-2.28-100.86,20.35-146.09c5.56-11.13,12.02-21.87,18.15-32.69
					c2.96-5.23,11.28-21.35,9.03-15.76C161.85,18.41,123.9,105.04,151.14,185.07z"/>
				<path d="M75.88,623.74c35.12-33.95,51.78-50.35,83.29-87.51h-54.15C73.66,572.75,39.3,606.69,4.13,639.51
					C4.13,639.51,40.72,641.49,75.88,623.74z"/>
			</g>
		</g>
		<g>
			<path d="M76.2,525.53c-0.65,0.34-1.72,0.56-3.03,0.56c-4.09,0-7.05-3.28-7.05-10.43c0-8.33,4.12-10.99,7.46-10.99
				c1.25,0,2.18,0.25,2.59,0.53l-0.53,2.03c-0.5-0.22-1-0.44-2.09-0.44c-2.25,0-4.9,2.19-4.9,8.61c0,6.46,2.37,8.55,4.96,8.55
				c0.9,0,1.69-0.22,2.18-0.44L76.2,525.53z"/>
			<path d="M83.06,526.15c-3.5,0-5.84-3.71-5.84-10.8c0-6.96,2.53-10.74,6.18-10.74c3.59,0,5.74,3.9,5.74,10.62
				c0,7.86-2.68,10.92-6.05,10.92H83.06z M83.25,524.03c2.68,0,3.4-4.59,3.4-8.71c0-3.93-0.72-8.58-3.44-8.58
				c-2.71,0-3.5,4.62-3.5,8.61c-0.03,4.09,0.78,8.68,3.5,8.68H83.25z"/>
			<path d="M92.05,525.9v-21.04h2.25l3.87,9.86c0.87,2.28,1.97,5.06,2.69,7.34h0.06c-0.19-3.31-0.28-6.03-0.28-9.68v-7.52h2.15
				v21.04h-2.25l-4-10.11c-0.87-2.12-1.78-4.53-2.53-7.15h-0.06c0.19,2.81,0.25,5.49,0.25,9.99v7.27H92.05z"/>
			<path d="M109,507.01h-3.84v-2.16h10.08v2.16h-3.84v18.88H109V507.01z"/>
			<path d="M117.58,505.17c1.03-0.28,2.28-0.4,3.46-0.4c2.09,0,3.65,0.44,4.74,1.5c1.03,1.06,1.47,2.47,1.47,4.12
				c0,2.68-1.25,4.43-3.37,5.43v0.06c1.56,0.47,2.37,1.97,2.81,4.71c0.5,2.87,0.91,4.65,1.22,5.31h-2.44
				c-0.31-0.62-0.72-2.62-1.12-5.18c-0.47-2.9-1.37-3.96-3.43-3.96h-0.94v9.15h-2.4V505.17z M119.98,514.88h1
				c2.31,0,3.84-1.69,3.84-4.21c0-2.41-1-3.93-3.59-3.96c-0.47,0-0.94,0.03-1.25,0.12V514.88z"/>
			<path d="M133.06,519.59l-1.37,6.31h-2.34l4.81-21.04h2.66l4.68,21.04h-2.37l-1.37-6.31H133.06z M137.4,517.66l-1.09-5.34
				c-0.31-1.5-0.59-3.25-0.84-4.8h-0.09c-0.25,1.59-0.56,3.4-0.88,4.84l-1.09,5.3H137.4z"/>
			<path d="M156.69,515.91h-5.27v7.9h5.99v2.09h-8.4v-21.04h8.02v2.09h-5.62v6.93h5.27V515.91z"/>
			<path d="M160.06,504.86h2.4v19.01h5.9v2.03h-8.3V504.86z"/>
			<path d="M184.9,525.53c-0.65,0.34-1.72,0.56-3.03,0.56c-4.09,0-7.05-3.28-7.05-10.43c0-8.33,4.12-10.99,7.46-10.99
				c1.25,0,2.18,0.25,2.59,0.53l-0.53,2.03c-0.5-0.22-1-0.44-2.09-0.44c-2.25,0-4.9,2.19-4.9,8.61c0,6.46,2.37,8.55,4.96,8.55
				c0.9,0,1.69-0.22,2.18-0.44L184.9,525.53z"/>
			<path d="M190.05,519.59l-1.37,6.31h-2.34l4.81-21.04h2.66l4.68,21.04h-2.37l-1.37-6.31H190.05z M194.39,517.66l-1.09-5.34
				c-0.31-1.5-0.59-3.25-0.84-4.8h-0.09c-0.25,1.59-0.56,3.4-0.88,4.84l-1.09,5.3H194.39z M196.7,500.37l-3.87,3.37h-1.9l2.94-3.37
				H196.7z"/>
			<path d="M201.13,525.9v-21.04h2.25l3.87,9.86c0.87,2.28,1.97,5.06,2.69,7.34H210c-0.19-3.31-0.28-6.03-0.28-9.68v-7.52h2.15
				v21.04h-2.25l-4-10.11c-0.87-2.12-1.78-4.53-2.53-7.15h-0.06c0.19,2.81,0.25,5.49,0.25,9.99v7.27H201.13z"/>
			<path d="M224.82,525.53c-0.65,0.34-1.72,0.56-3.03,0.56c-4.09,0-7.06-3.28-7.06-10.43c0-8.33,4.12-10.99,7.46-10.99
				c1.25,0,2.18,0.25,2.59,0.53l-0.53,2.03c-0.5-0.22-1-0.44-2.09-0.44c-2.25,0-4.9,2.19-4.9,8.61c0,6.46,2.37,8.55,4.96,8.55
				c0.9,0,1.69-0.22,2.18-0.44L224.82,525.53z"/>
			<path d="M234.93,515.91h-5.27v7.9h5.99v2.09h-8.4v-21.04h8.02v2.09h-5.62v6.93h5.27V515.91z"/>
			<path d="M238.3,505.17c1.03-0.28,2.28-0.4,3.46-0.4c2.09,0,3.65,0.44,4.74,1.5c1.03,1.06,1.47,2.47,1.47,4.12
				c0,2.68-1.25,4.43-3.37,5.43v0.06c1.56,0.47,2.37,1.97,2.81,4.71c0.5,2.87,0.91,4.65,1.22,5.31h-2.44
				c-0.31-0.62-0.72-2.62-1.12-5.18c-0.47-2.9-1.37-3.96-3.43-3.96h-0.94v9.15h-2.4V505.17z M240.71,514.88h1
				c2.31,0,3.84-1.69,3.84-4.21c0-2.41-1-3.93-3.59-3.96c-0.47,0-0.94,0.03-1.25,0.12V514.88z"/>
			<path d="M255.97,505.17c0.9-0.28,2.03-0.4,3.25-0.4c2.19,0,3.78,0.56,4.93,1.59c1.62,1.4,2.84,4.12,2.84,8.52
				c0,4.81-1.19,7.43-2.53,8.9c-1.37,1.53-3.4,2.24-5.8,2.24c-0.97,0-2-0.06-2.68-0.22V505.17z M258.37,523.96
				c0.34,0.06,0.69,0.06,0.9,0.06c2.65,0,5.21-1.9,5.21-9.08c0-5.31-1.62-8.21-4.99-8.21c-0.37,0-0.81,0.03-1.12,0.12V523.96z"/>
			<path d="M277.54,515.91h-5.27v7.9h5.99v2.09h-8.4v-21.04h8.02v2.09h-5.62v6.93h5.27V515.91z"/>
			<path d="M285.77,505.17c1.06-0.25,2.44-0.4,3.9-0.4c2.22,0,4.03,0.4,5.28,1.59c1.12,1.06,1.69,2.68,1.69,4.49
				c0,2.12-0.6,3.56-1.56,4.68c-1.25,1.47-3.28,2.18-5.06,2.18c-0.34,0-0.62,0-0.94-0.03v8.21h-3.31V505.17z M289.08,514.94
				c0.25,0.06,0.47,0.06,0.81,0.06c2.19,0,3.4-1.5,3.4-3.9c0-1.97-0.81-3.62-3.06-3.62c-0.47,0-0.87,0.06-1.15,0.16V514.94z"/>
			<path d="M300.7,520.44l-1.12,5.46h-3.25l4.68-21.04h3.9l4.34,21.04H306l-1.12-5.46H300.7z M304.53,517.82l-0.87-4.84
				c-0.28-1.37-0.56-3.31-0.78-4.78h-0.09c-0.22,1.47-0.53,3.5-0.78,4.81l-0.94,4.81H304.53z M307.53,500.27l-3.84,3.46h-2.46
				l2.75-3.46H307.53z"/>
			<path d="M311.71,525.9v-21.04h3.06l3.56,8.99c0.75,1.9,1.81,4.62,2.46,6.65h0.06c-0.19-2.68-0.37-5.93-0.37-9.68v-5.96h2.93
				v21.04h-3.06l-3.59-8.96c-0.78-1.94-1.72-4.46-2.31-6.68h-0.06c0.15,2.44,0.25,5.4,0.25,9.77v5.87H311.71z"/>
			<path d="M336.78,525.56c-0.62,0.31-1.72,0.53-3.09,0.53c-4.81,0-7.56-3.93-7.56-10.43c0-8.08,4.28-10.99,8.02-10.99
				c1.37,0,2.34,0.28,2.75,0.53l-0.62,2.84c-0.5-0.25-1-0.44-2-0.44c-2.28,0-4.62,2.09-4.62,7.83c0,5.65,2.12,7.68,4.65,7.68
				c0.78,0,1.56-0.19,2.06-0.37L336.78,525.56z"/>
			<path d="M339.11,505.17c1.16-0.28,2.62-0.4,4-0.4c2.19,0,4,0.37,5.21,1.53c1.19,1.12,1.59,2.53,1.59,4.28
				c0,2.44-1.19,4.34-3.31,5.31v0.06c1.5,0.53,2.25,1.94,2.68,4.43c0.44,2.56,0.94,4.8,1.28,5.52h-3.47
				c-0.25-0.59-0.72-2.65-1.06-5.12c-0.41-2.75-1.19-3.62-2.87-3.62h-0.75v8.74h-3.31V505.17z M342.42,514.6h0.87
				c2,0,3.25-1.56,3.25-3.71c0-2.06-0.84-3.46-3-3.5c-0.44,0-0.84,0.03-1.12,0.13V514.6z"/>
			<path d="M361.28,516.32h-5V523h5.68v2.9h-9.02v-21.04h8.65v2.9h-5.31v5.78h5V516.32z"/>
			<path d="M367.64,520.44l-1.12,5.46h-3.25l4.68-21.04h3.9l4.34,21.04h-3.25l-1.12-5.46H367.64z M371.48,517.82l-0.87-4.84
				c-0.28-1.37-0.56-3.31-0.78-4.78h-0.1c-0.22,1.47-0.53,3.5-0.78,4.81l-0.94,4.81H371.48z"/>
			<path d="M378.19,522.34c0.78,0.47,2.15,0.84,3.25,0.84c2.06,0,3.18-1.19,3.18-2.93c0-1.69-1.03-2.65-2.75-3.84
				c-2.34-1.5-3.96-3.59-3.96-5.87c0-3.28,2.22-5.87,6.15-5.87c1.34,0,2.56,0.4,3.12,0.75l-0.59,2.87
				c-0.59-0.37-1.47-0.72-2.59-0.72c-1.9,0-2.81,1.28-2.81,2.56c0,1.62,0.84,2.37,3,3.75c2.65,1.75,3.71,3.78,3.71,6.02
				c0,3.78-2.69,6.18-6.46,6.18c-1.56,0-3.15-0.44-3.81-0.87L378.19,522.34z"/>
		</g>
		<g>
			<g>
				<path d="M82.73,490.54l-15.9-88.95h14.06l11.17,69.34l11.25-69.34h14.07l-16.19,88.95H82.73z"/>
			</g>
			<g>
				<path d="M130.1,470.09l-3.26,20.45h-13.97l15.12-88.95h18.46l14.91,88.95h-14.11l-3.14-20.45H130.1z M137.14,421.96l-4.97,35.07
					h9.94L137.14,421.96z"/>
			</g>
			<path d="M187.77,401.59c6.53,0,11.74,2.06,15.62,6.18c3.6,3.93,5.39,8.94,5.39,15.05v12.92c0,5.87-2.05,10.88-6.14,15.05
				c-4.1,4.16-9.05,6.25-14.87,6.25h-7.74v33.51h-13.42v-88.95H187.77z M195.79,423.02c0-2.32-0.7-4.19-2.09-5.61
				c-1.4-1.42-3.25-2.13-5.57-2.13h-8.09v28.47h8.09c2.13,0,3.94-0.76,5.43-2.27c1.49-1.51,2.24-3.34,2.24-5.47V423.02z"/>
			<path d="M237.64,400.45c5.91,0,10.94,2.08,15.09,6.25s6.21,9.18,6.21,15.05v48.56c0,5.92-2.08,10.94-6.25,15.09
				c-4.16,4.14-9.18,6.21-15.05,6.21c-5.92,0-10.93-2.08-15.05-6.25c-4.12-4.17-6.18-9.18-6.18-15.05v-48.56
				c0-5.91,2.08-10.94,6.25-15.09C226.83,402.52,231.82,400.45,237.64,400.45z M244.95,421.46c0-2.13-0.74-3.94-2.24-5.43
				c-1.49-1.49-3.3-2.23-5.43-2.23c-2.13,0-3.95,0.74-5.47,2.23c-1.51,1.49-2.27,3.3-2.27,5.43v48.7c0,2.13,0.76,3.94,2.27,5.43
				c1.51,1.49,3.34,2.24,5.47,2.24c2.13,0,3.94-0.74,5.43-2.24c1.49-1.49,2.24-3.3,2.24-5.43V421.46z"/>
			<path d="M290.35,401.59c7.48,0,12.97,2.06,16.47,6.18c3.08,3.6,4.61,8.61,4.61,15.05v12.92c0,6.29-2.39,11.62-7.17,15.97
				l9.94,38.83h-14.51l-8.13-33.51c-0.38,0-0.78,0-1.21,0h-7.74v33.51h-13.42v-88.95H290.35z M298.37,423.02
				c0-5.16-2.55-7.74-7.67-7.74h-8.09v28.47h8.09c2.13,0,3.94-0.76,5.43-2.27c1.49-1.51,2.24-3.34,2.24-5.47V423.02z"/>
			<path d="M333.97,415.07H319.7v-13.49h41.89v13.49h-14.2v75.47h-13.42V415.07z"/>
			<path d="M384.2,490.54h-13.42v-88.95h13.42V490.54z"/>
		</g>
		<g>
			<g>
				<g>
					<path d="M261.92,339.51c-21.01-12.98-38.4-15.04-50.52-10.09c0.83,2.19,0.96,4.56,0.3,6.84c-0.81,2.8-2.67,5.11-5.23,6.52
						c-1.64,0.89-3.43,1.35-5.25,1.35c-1.03,0-2.07-0.14-3.08-0.44c-0.52-0.15-1-0.38-1.48-0.6c-0.21,0.41-0.46,0.8-0.65,1.23
						c0,0-7.11,16.37,5.58,29.28c14.57,12.96,34.35,4.15,30.83-13.45c0,0,52.7,25.64,77.83-14.61
						C310.24,345.52,284.72,353.59,261.92,339.51z"/>
				</g>
				<ellipse transform="matrix(0.2785 -0.9604 0.9604 0.2785 -185.8838 510.2827)" cx="246.69" cy="378.86" rx="9.76" ry="7.97"/>
			</g>
		</g>
		<ellipse transform="matrix(0.2785 -0.9604 0.9604 0.2785 -174.892 433.7066)" cx="201.22" cy="333.26" rx="8.24" ry="8.29"/>
	</g>
</g>
</svg>
