<?xml version="1.0" encoding="utf-8"?>
<!-- Generator: Adobe Illustrator 25.0.0, SVG Export Plug-In . SVG Version: 6.00 Build 0)  -->
<svg version="1.1" id="Capa_1" xmlns="http://www.w3.org/2000/svg" xmlns:xlink="http://www.w3.org/1999/xlink" x="0px" y="0px"
	 viewBox="0 0 489.41 297.99" style="enable-background:new 0 0 489.41 297.99;" xml:space="preserve">
<g>
	<g>
		<path d="M294.06,58.28c0,16.89-13.69,30.58-30.58,30.58c-16.89,0-30.58-13.69-30.58-30.58c0-16.89,13.69-30.58,30.58-30.58
			C280.36,27.7,294.06,41.39,294.06,58.28z"/>
		<path d="M294.06,58.28c0,16.89-13.69,30.58-30.58,30.58c-16.89,0-30.58-13.69-30.58-30.58c0-16.89,13.69-30.58,30.58-30.58
			C280.36,27.7,294.06,41.39,294.06,58.28z"/>
	</g>
	<g>
		<path d="M201.85,33.92c0,16.89-13.69,30.58-30.58,30.58c-16.89,0-30.58-13.69-30.58-30.58c0-16.89,13.69-30.58,30.58-30.58
			C188.16,3.34,201.85,17.03,201.85,33.92z"/>
		<path d="M201.85,33.92c0,16.89-13.69,30.58-30.58,30.58c-16.89,0-30.58-13.69-30.58-30.58c0-16.89,13.69-30.58,30.58-30.58
			C188.16,3.34,201.85,17.03,201.85,33.92z"/>
	</g>
	<path d="M251.55,5.54l5.07,10.59c0,0,2.55,3.76-4.88,7.29c-9.19,4.36-22.85,12.66-24.64,28.35c-3.66,31.92,22.83,33.17,14.46,47.92
		c-7.06,12.45-17.62,17.2-25.1,20.05c-9.64,3.68-4.55,10.88-4.55,10.88l6.78,11.61c0,0,5.13,7.05-3.71,9.76
		c-15.81,4.83-34.54,2.26-45.37,0.51c-9.07-1.47-7.17-6.16-5.32-11.12c7.95-21.26,7.45-33.9,6.37-41.29c-0.6-4.1-4.81-2.21-6.1-0.39
		c-7.51,10.62-17.61,16.64-23.87,19.85c-6.58,3.37-8.1-1.17-8.1-1.17l-6.2-11.09c0,0-3.98-5.79,3.46-8.51
		c11.47-4.19,19.06-11.45,23.04-17.61c10.87-16.85,22.75-5.14,40.48-18.65c0,0,11.21-5.94,14.66-25.8
		c3.09-17.82,22.7-29.17,33.65-34.38C249.24-1.26,251.55,5.54,251.55,5.54z"/>
	<path d="M318.27,80.07c-0.05-15.79,11.99-26.99,24.93-32.48c7.56-3.21,4.87-7.29,4.87-7.29l-5.07-10.6c0,0-2.31-6.81-9.88-3.21
		c-10.96,5.21-30.56,16.56-33.65,34.38c-3.46,19.86-13.91,25.8-13.91,25.8c-17.73,13.51-30.36,1.8-41.23,18.65
		c-3.98,6.17-11.57,13.42-23.04,17.61c-7.43,2.72-3.45,8.5-3.45,8.5l6.19,11.09c0,0,1.52,4.54,8.1,1.17
		c6.25-3.21,16.35-9.22,23.86-19.85c1.29-1.82,5.49-3.7,6.1,0.39c1.08,7.39,1.58,20.03-6.37,41.29c-1.85,4.95-3.75,9.65,5.32,11.12
		c4.14,0.67,8.69,1.46,14.54,1.91c0,0,6.95,3.07,8.47-10.39c0,0,2.23-23.52,11.79-31.21c9.56-7.68,25.98-5.1,32.84-1.86
		c17.07,8.05,27.05,1.28,30.14-1.2c3.75-3,13.4-20.62,3.67-19.99C362.5,113.93,318.4,120.21,318.27,80.07z"/>
	<g>
		<path d="M15.74,203.58h5.2l10.35,26.92h-5.32l-2.11-5.54H12.87l-2.19,5.54H5.36L15.74,203.58z M18.37,210.72l-3.61,9.24h7.2
			L18.37,210.72z"/>
		<path d="M47.83,213.38l-3.09,3.09c-1.26-1.25-2.4-1.87-3.42-1.87c-0.56,0-1,0.12-1.32,0.36c-0.32,0.24-0.48,0.53-0.48,0.89
			c0,0.27,0.1,0.52,0.3,0.74c0.2,0.23,0.7,0.53,1.49,0.92l1.83,0.91c1.93,0.95,3.25,1.92,3.97,2.91c0.72,0.99,1.08,2.15,1.08,3.48
			c0,1.77-0.65,3.25-1.95,4.43c-1.3,1.19-3.04,1.78-5.22,1.78c-2.9,0-5.22-1.13-6.96-3.4l3.07-3.35c0.59,0.68,1.27,1.24,2.06,1.66
			c0.79,0.42,1.48,0.63,2.09,0.63c0.66,0,1.19-0.16,1.59-0.48c0.4-0.32,0.6-0.68,0.6-1.1c0-0.77-0.73-1.52-2.18-2.25l-1.68-0.84
			c-3.22-1.62-4.83-3.66-4.83-6.09c0-1.58,0.61-2.92,1.82-4.04c1.22-1.12,2.77-1.68,4.66-1.68c1.29,0,2.51,0.28,3.65,0.85
			C46.07,211.5,47.03,212.31,47.83,213.38z"/>
		<path d="M62.42,210.08c1.88,0,3.64,0.47,5.3,1.41c1.65,0.94,2.94,2.21,3.87,3.82c0.93,1.61,1.39,3.35,1.39,5.22
			c0,1.88-0.47,3.63-1.4,5.27c-0.93,1.63-2.21,2.91-3.82,3.83c-1.61,0.92-3.39,1.38-5.33,1.38c-2.85,0-5.29-1.01-7.31-3.05
			c-2.02-2.03-3.03-4.5-3.03-7.4c0-3.11,1.14-5.71,3.42-7.78C57.52,210.99,59.82,210.08,62.42,210.08z M62.5,214.78
			c-1.55,0-2.85,0.54-3.88,1.62c-1.03,1.08-1.55,2.46-1.55,4.15c0,1.73,0.51,3.13,1.53,4.21c1.02,1.07,2.31,1.61,3.88,1.61
			c1.56,0,2.86-0.54,3.9-1.63c1.04-1.09,1.56-2.48,1.56-4.19c0-1.71-0.51-3.1-1.53-4.16C65.39,215.32,64.09,214.78,62.5,214.78z"/>
		<path d="M97.49,214.62l-4.16,2.29c-0.78-0.82-1.56-1.38-2.32-1.7c-0.76-0.32-1.66-0.48-2.68-0.48c-1.87,0-3.38,0.56-4.54,1.67
			c-1.15,1.11-1.73,2.54-1.73,4.28c0,1.7,0.55,3.08,1.67,4.15c1.11,1.07,2.57,1.61,4.38,1.61c2.23,0,3.98-0.77,5.22-2.29l3.94,2.7
			c-2.13,2.78-5.15,4.16-9.04,4.16c-3.5,0-6.25-1.03-8.23-3.11c-1.98-2.07-2.97-4.5-2.97-7.28c0-1.93,0.48-3.7,1.45-5.33
			c0.96-1.62,2.31-2.9,4.03-3.82c1.73-0.93,3.66-1.39,5.79-1.39c1.98,0,3.75,0.39,5.32,1.18C95.2,212.05,96.49,213.17,97.49,214.62z
			"/>
		<path d="M104.88,202.4c0.88,0,1.63,0.32,2.25,0.95c0.63,0.63,0.94,1.4,0.94,2.31c0,0.89-0.31,1.65-0.93,2.28
			c-0.62,0.63-1.36,0.94-2.23,0.94c-0.89,0-1.64-0.32-2.27-0.96c-0.62-0.64-0.94-1.42-0.94-2.33c0-0.88,0.31-1.63,0.93-2.25
			C103.25,202.7,104,202.4,104.88,202.4z M102.38,210.59h5v19.91h-5V210.59z"/>
		<path d="M127.55,210.59h5v19.91h-5v-2.1c-0.98,0.92-1.95,1.59-2.94,2c-0.98,0.41-2.04,0.61-3.19,0.61c-2.57,0-4.79-1-6.67-2.99
			c-1.88-1.99-2.82-4.47-2.82-7.44c0-3.07,0.91-5.59,2.72-7.56c1.82-1.96,4.02-2.94,6.62-2.94c1.2,0,2.32,0.23,3.36,0.68
			c1.05,0.45,2.02,1.13,2.91,2.03V210.59z M122.3,214.69c-1.55,0-2.83,0.55-3.85,1.64c-1.02,1.09-1.53,2.5-1.53,4.2
			c0,1.72,0.52,3.13,1.56,4.24c1.04,1.11,2.32,1.67,3.84,1.67c1.57,0,2.87-0.55,3.9-1.64c1.03-1.09,1.55-2.52,1.55-4.29
			c0-1.73-0.52-3.14-1.55-4.21C125.18,215.23,123.88,214.69,122.3,214.69z"/>
		<path d="M158.02,214.62l-4.16,2.29c-0.78-0.82-1.56-1.38-2.32-1.7c-0.77-0.32-1.66-0.48-2.69-0.48c-1.87,0-3.38,0.56-4.53,1.67
			c-1.15,1.11-1.73,2.54-1.73,4.28c0,1.7,0.55,3.08,1.67,4.15c1.11,1.07,2.57,1.61,4.38,1.61c2.23,0,3.98-0.77,5.22-2.29l3.94,2.7
			c-2.14,2.78-5.15,4.16-9.04,4.16c-3.5,0-6.24-1.03-8.23-3.11c-1.98-2.07-2.97-4.5-2.97-7.28c0-1.93,0.48-3.7,1.45-5.33
			c0.96-1.62,2.31-2.9,4.04-3.82c1.73-0.93,3.66-1.39,5.79-1.39c1.98,0,3.75,0.39,5.32,1.18
			C155.74,212.05,157.02,213.17,158.02,214.62z"/>
		<path d="M165.41,202.4c0.88,0,1.63,0.32,2.25,0.95c0.63,0.63,0.94,1.4,0.94,2.31c0,0.89-0.31,1.65-0.93,2.28
			c-0.62,0.63-1.36,0.94-2.23,0.94c-0.89,0-1.64-0.32-2.27-0.96c-0.63-0.64-0.94-1.42-0.94-2.33c0-0.88,0.31-1.63,0.93-2.25
			C163.79,202.7,164.53,202.4,165.41,202.4z M162.91,210.59h5v19.91h-5V210.59z"/>
		<path d="M182.74,210.08c1.88,0,3.65,0.47,5.3,1.41c1.65,0.94,2.94,2.21,3.87,3.82c0.93,1.61,1.39,3.35,1.39,5.22
			c0,1.88-0.47,3.63-1.4,5.27c-0.94,1.63-2.21,2.91-3.82,3.83c-1.61,0.92-3.39,1.38-5.33,1.38c-2.86,0-5.3-1.01-7.31-3.05
			c-2.02-2.03-3.03-4.5-3.03-7.4c0-3.11,1.14-5.71,3.42-7.78C177.84,210.99,180.14,210.08,182.74,210.08z M182.82,214.78
			c-1.55,0-2.85,0.54-3.88,1.62c-1.03,1.08-1.55,2.46-1.55,4.15c0,1.73,0.51,3.13,1.53,4.21c1.02,1.07,2.31,1.61,3.88,1.61
			c1.56,0,2.87-0.54,3.9-1.63c1.04-1.09,1.56-2.48,1.56-4.19c0-1.71-0.51-3.1-1.53-4.16C185.71,215.32,184.41,214.78,182.82,214.78z
			 M183.67,199.78h5.91l-6.7,7.17h-3.59L183.67,199.78z"/>
		<path d="M198.32,210.59h4.99v2.04c1.13-0.96,2.16-1.62,3.08-2c0.92-0.37,1.86-0.56,2.82-0.56c1.97,0,3.65,0.69,5.02,2.07
			c1.16,1.17,1.74,2.91,1.74,5.2v13.16h-4.94v-8.72c0-2.38-0.11-3.96-0.32-4.73c-0.21-0.78-0.58-1.37-1.11-1.78
			c-0.53-0.41-1.18-0.61-1.96-0.61c-1.01,0-1.88,0.34-2.6,1.01c-0.72,0.68-1.22,1.61-1.5,2.81c-0.15,0.62-0.22,1.97-0.22,4.04v7.99
			h-4.99V210.59z"/>
		<path d="M236.33,203.58h4.99l6.24,18.78l6.3-18.78h4.99l4.52,26.92h-4.96l-2.89-17l-5.72,17h-4.52l-5.67-17l-2.96,17h-4.99
			L236.33,203.58z"/>
		<path d="M287.79,221.99h-16.05c0.23,1.42,0.85,2.54,1.86,3.38c1,0.83,2.29,1.25,3.85,1.25c1.87,0,3.47-0.65,4.81-1.96l4.21,1.98
			c-1.05,1.49-2.31,2.59-3.77,3.3c-1.47,0.71-3.2,1.07-5.22,1.07c-3.13,0-5.67-0.98-7.63-2.95c-1.97-1.97-2.95-4.44-2.95-7.4
			c0-3.04,0.98-5.56,2.94-7.57c1.96-2.01,4.41-3.01,7.37-3.01c3.14,0,5.69,1,7.65,3.01c1.96,2.01,2.94,4.66,2.94,7.95L287.79,221.99
			z M282.79,218.06c-0.33-1.11-0.98-2.01-1.95-2.71c-0.97-0.69-2.1-1.04-3.38-1.04c-1.4,0-2.62,0.39-3.67,1.17
			c-0.66,0.49-1.27,1.35-1.83,2.58H282.79z"/>
		<path d="M290.98,210.59h5.8l3.94,5.43l3.92-5.43h5.71l-6.76,9.37l7.64,10.54h-5.8l-4.74-6.53l-4.71,6.53h-5.71l7.56-10.47
			L290.98,210.59z"/>
		<path d="M316.64,202.4c0.88,0,1.63,0.32,2.25,0.95c0.63,0.63,0.94,1.4,0.94,2.31c0,0.89-0.31,1.65-0.93,2.28
			c-0.62,0.63-1.36,0.94-2.23,0.94c-0.89,0-1.64-0.32-2.27-0.96c-0.63-0.64-0.94-1.42-0.94-2.33c0-0.88,0.31-1.63,0.93-2.25
			C315.03,202.7,315.77,202.4,316.64,202.4z M314.15,210.59h5v19.91h-5V210.59z"/>
		<path d="M344.11,214.62l-4.16,2.29c-0.78-0.82-1.55-1.38-2.32-1.7c-0.76-0.32-1.66-0.48-2.68-0.48c-1.87,0-3.38,0.56-4.54,1.67
			c-1.15,1.11-1.73,2.54-1.73,4.28c0,1.7,0.55,3.08,1.67,4.15c1.11,1.07,2.57,1.61,4.38,1.61c2.24,0,3.98-0.77,5.22-2.29l3.94,2.7
			c-2.13,2.78-5.15,4.16-9.04,4.16c-3.5,0-6.24-1.03-8.23-3.11c-1.98-2.07-2.97-4.5-2.97-7.28c0-1.93,0.49-3.7,1.45-5.33
			c0.96-1.62,2.31-2.9,4.04-3.82c1.73-0.93,3.66-1.39,5.79-1.39c1.98,0,3.75,0.39,5.33,1.18
			C341.83,212.05,343.11,213.17,344.11,214.62z"/>
		<path d="M364.25,210.59h4.99v19.91h-4.99v-2.1c-0.98,0.92-1.95,1.59-2.94,2c-0.98,0.41-2.04,0.61-3.19,0.61
			c-2.57,0-4.79-1-6.67-2.99c-1.88-1.99-2.81-4.47-2.81-7.44c0-3.07,0.9-5.59,2.72-7.56c1.81-1.96,4.03-2.94,6.62-2.94
			c1.19,0,2.31,0.23,3.36,0.68c1.05,0.45,2.02,1.13,2.91,2.03V210.59z M359,214.69c-1.55,0-2.83,0.55-3.85,1.64
			c-1.02,1.09-1.53,2.5-1.53,4.2c0,1.72,0.52,3.13,1.56,4.24c1.04,1.11,2.32,1.67,3.84,1.67c1.57,0,2.87-0.55,3.9-1.64
			c1.04-1.09,1.55-2.52,1.55-4.29c0-1.73-0.52-3.14-1.55-4.21C361.88,215.23,360.57,214.69,359,214.69z"/>
		<path d="M375.23,210.59h5v2.04c1.13-0.96,2.16-1.62,3.08-2c0.92-0.37,1.86-0.56,2.82-0.56c1.98,0,3.65,0.69,5.03,2.07
			c1.16,1.17,1.73,2.91,1.73,5.2v13.16h-4.94v-8.72c0-2.38-0.11-3.96-0.32-4.73c-0.21-0.78-0.59-1.37-1.12-1.78
			s-1.18-0.61-1.96-0.61c-1.01,0-1.87,0.34-2.6,1.01c-0.72,0.68-1.23,1.61-1.5,2.81c-0.15,0.62-0.22,1.97-0.22,4.04v7.99h-5V210.59z
			"/>
		<path d="M413.36,210.59h5v19.91h-5v-2.1c-0.98,0.92-1.95,1.59-2.93,2c-0.98,0.41-2.05,0.61-3.19,0.61c-2.57,0-4.8-1-6.67-2.99
			c-1.88-1.99-2.82-4.47-2.82-7.44c0-3.07,0.91-5.59,2.72-7.56c1.81-1.96,4.02-2.94,6.62-2.94c1.19,0,2.32,0.23,3.37,0.68
			c1.05,0.45,2.02,1.13,2.9,2.03V210.59z M408.11,214.69c-1.55,0-2.83,0.55-3.85,1.64c-1.02,1.09-1.53,2.5-1.53,4.2
			c0,1.72,0.52,3.13,1.56,4.24c1.04,1.11,2.32,1.67,3.84,1.67c1.57,0,2.87-0.55,3.91-1.64c1.03-1.09,1.55-2.52,1.55-4.29
			c0-1.73-0.51-3.14-1.55-4.21C410.99,215.23,409.69,214.69,408.11,214.69z"/>
		<path d="M450.46,202.91h4.99v27.6h-4.99v-2.1c-0.98,0.92-1.95,1.59-2.93,2c-0.98,0.41-2.05,0.61-3.19,0.61
			c-2.57,0-4.79-1-6.67-2.99c-1.88-1.99-2.82-4.47-2.82-7.44c0-3.07,0.91-5.59,2.73-7.56c1.82-1.96,4.02-2.94,6.62-2.94
			c1.19,0,2.31,0.23,3.36,0.68c1.04,0.45,2.02,1.13,2.91,2.03V202.91z M445.21,214.69c-1.54,0-2.83,0.55-3.84,1.64
			c-1.02,1.09-1.54,2.5-1.54,4.2c0,1.72,0.52,3.13,1.56,4.24c1.04,1.11,2.32,1.67,3.84,1.67c1.57,0,2.87-0.55,3.9-1.64
			c1.03-1.09,1.55-2.52,1.55-4.29c0-1.73-0.52-3.14-1.55-4.21C448.1,215.23,446.79,214.69,445.21,214.69z"/>
		<path d="M481.4,221.99h-16.05c0.23,1.42,0.85,2.54,1.86,3.38c1,0.83,2.29,1.25,3.85,1.25c1.87,0,3.47-0.65,4.81-1.96l4.21,1.98
			c-1.05,1.49-2.3,2.59-3.77,3.3c-1.47,0.71-3.2,1.07-5.22,1.07c-3.13,0-5.67-0.98-7.63-2.95c-1.96-1.97-2.95-4.44-2.95-7.4
			c0-3.04,0.98-5.56,2.94-7.57c1.96-2.01,4.42-3.01,7.37-3.01c3.14,0,5.69,1,7.65,3.01c1.96,2.01,2.94,4.66,2.94,7.95L481.4,221.99z
			 M476.4,218.06c-0.33-1.11-0.98-2.01-1.95-2.71c-0.98-0.69-2.1-1.04-3.38-1.04c-1.4,0-2.62,0.39-3.67,1.17
			c-0.66,0.49-1.27,1.35-1.83,2.58H476.4z"/>
		<path d="M0,252.79h18.71v7H7.12v6.84h11.58v6.89H7.12v16.96H0V252.79z"/>
		<path d="M27.04,251.12c1.23,0,2.28,0.45,3.16,1.33c0.88,0.89,1.32,1.96,1.32,3.23c0,1.25-0.43,2.31-1.3,3.19
			c-0.87,0.88-1.91,1.32-3.12,1.32c-1.24,0-2.3-0.45-3.18-1.35c-0.88-0.9-1.32-1.99-1.32-3.27c0-1.23,0.43-2.28,1.3-3.16
			C24.77,251.56,25.82,251.12,27.04,251.12z M23.55,262.6h7v27.88h-7V262.6z"/>
		<path d="M43.84,251.84v13.84c1.26-1.26,2.63-2.21,4.1-2.85c1.47-0.63,3.04-0.95,4.71-0.95c3.64,0,6.73,1.38,9.28,4.12
			c2.55,2.75,3.82,6.28,3.82,10.58c0,4.15-1.31,7.62-3.94,10.42c-2.63,2.79-5.75,4.19-9.35,4.19c-1.6,0-3.1-0.29-4.48-0.86
			c-1.39-0.57-2.76-1.51-4.13-2.81v2.95H36.9v-38.64H43.84z M51.19,268.34c-2.2,0-4.03,0.75-5.48,2.26
			c-1.45,1.5-2.18,3.47-2.18,5.89c0,2.48,0.73,4.48,2.18,6.01c1.45,1.53,3.28,2.29,5.48,2.29c2.13,0,3.93-0.78,5.39-2.33
			c1.46-1.55,2.19-3.54,2.19-5.95c0-2.39-0.72-4.35-2.15-5.88C55.19,269.1,53.38,268.34,51.19,268.34z"/>
		<path d="M69.9,262.6h5.99v3.51c0.65-1.38,1.51-2.43,2.59-3.15c1.08-0.72,2.26-1.08,3.54-1.08c0.91,0,1.85,0.24,2.84,0.72
			l-2.18,6.02c-0.82-0.41-1.49-0.62-2.02-0.62c-1.08,0-1.99,0.67-2.73,2c-0.74,1.33-1.11,3.95-1.11,7.84l0.03,1.36v11.27H69.9V262.6
			z"/>
		<path d="M101.41,261.88c2.63,0,5.1,0.66,7.42,1.97c2.31,1.32,4.12,3.1,5.42,5.36s1.95,4.69,1.95,7.3c0,2.63-0.65,5.09-1.96,7.38
			c-1.3,2.29-3.08,4.08-5.34,5.37c-2.26,1.29-4.74,1.93-7.46,1.93c-4,0-7.41-1.42-10.24-4.27c-2.83-2.84-4.24-6.3-4.24-10.37
			c0-4.35,1.6-7.98,4.79-10.89C94.56,263.15,97.77,261.88,101.41,261.88z M101.53,268.47c-2.17,0-3.98,0.76-5.43,2.27
			c-1.45,1.51-2.17,3.45-2.17,5.81c0,2.42,0.71,4.39,2.14,5.89c1.43,1.5,3.24,2.25,5.43,2.25c2.19,0,4.01-0.76,5.47-2.28
			c1.45-1.52,2.18-3.48,2.18-5.87c0-2.39-0.71-4.33-2.14-5.83C105.58,269.22,103.75,268.47,101.53,268.47z"/>
		<path d="M138.98,266.49l-4.33,4.33c-1.76-1.74-3.36-2.61-4.79-2.61c-0.79,0-1.4,0.17-1.84,0.5c-0.45,0.33-0.67,0.75-0.67,1.24
			c0,0.38,0.14,0.72,0.43,1.04c0.28,0.31,0.98,0.75,2.09,1.29l2.56,1.28c2.7,1.33,4.55,2.69,5.56,4.07
			c1.01,1.38,1.51,3.01,1.51,4.87c0,2.48-0.91,4.55-2.73,6.2c-1.82,1.66-4.26,2.49-7.31,2.49c-4.07,0-7.31-1.59-9.74-4.77l4.31-4.69
			c0.82,0.96,1.78,1.73,2.88,2.32c1.1,0.59,2.08,0.89,2.93,0.89c0.92,0,1.67-0.22,2.23-0.67c0.56-0.44,0.84-0.96,0.84-1.54
			c0-1.08-1.01-2.13-3.05-3.15l-2.36-1.18c-4.51-2.27-6.76-5.12-6.76-8.53c0-2.2,0.85-4.09,2.55-5.65c1.7-1.56,3.87-2.34,6.52-2.34
			c1.81,0,3.51,0.4,5.11,1.19C136.51,263.87,137.87,265.01,138.98,266.49z"/>
		<path d="M147.73,251.12c1.23,0,2.28,0.45,3.16,1.33c0.88,0.89,1.31,1.96,1.31,3.23c0,1.25-0.43,2.31-1.3,3.19
			c-0.87,0.88-1.91,1.32-3.12,1.32c-1.24,0-2.3-0.45-3.18-1.35c-0.88-0.9-1.32-1.99-1.32-3.27c0-1.23,0.44-2.28,1.31-3.16
			C145.45,251.56,146.5,251.12,147.73,251.12z M144.23,262.6h7v27.88h-7V262.6z"/>
		<path d="M174.64,266.49l-4.33,4.33c-1.76-1.74-3.36-2.61-4.79-2.61c-0.78,0-1.4,0.17-1.84,0.5c-0.44,0.33-0.67,0.75-0.67,1.24
			c0,0.38,0.14,0.72,0.42,1.04c0.28,0.31,0.98,0.75,2.09,1.29l2.57,1.28c2.7,1.33,4.55,2.69,5.56,4.07
			c1.01,1.38,1.51,3.01,1.51,4.87c0,2.48-0.91,4.55-2.73,6.2c-1.82,1.66-4.26,2.49-7.32,2.49c-4.06,0-7.31-1.59-9.74-4.77l4.3-4.69
			c0.82,0.96,1.78,1.73,2.88,2.32c1.1,0.59,2.08,0.89,2.93,0.89c0.92,0,1.66-0.22,2.23-0.67c0.56-0.44,0.85-0.96,0.85-1.54
			c0-1.08-1.01-2.13-3.05-3.15l-2.36-1.18c-4.51-2.27-6.76-5.12-6.76-8.53c0-2.2,0.85-4.09,2.55-5.65c1.7-1.56,3.87-2.34,6.52-2.34
			c1.81,0,3.51,0.4,5.11,1.19C172.18,263.87,173.53,265.01,174.64,266.49z"/>
		<path d="M228.45,284.97l6.56,8.48h-8.49l-3.33-4.29c-2.75,1.51-5.83,2.26-9.21,2.26c-5.66,0-10.36-1.95-14.11-5.85
			c-3.75-3.9-5.62-8.55-5.62-13.95c0-3.61,0.87-6.91,2.61-9.93c1.74-3.01,4.14-5.41,7.19-7.19c3.05-1.78,6.33-2.67,9.83-2.67
			c5.35,0,9.94,1.93,13.78,5.79c3.84,3.86,5.76,8.57,5.76,14.12C233.42,276.86,231.76,281.26,228.45,284.97z M223.96,279.17
			c1.52-2.25,2.28-4.74,2.28-7.48c0-3.57-1.2-6.6-3.62-9.1c-2.41-2.49-5.33-3.74-8.75-3.74c-3.52,0-6.47,1.21-8.85,3.64
			c-2.38,2.42-3.56,5.5-3.56,9.25c0,4.17,1.5,7.47,4.49,9.89c2.34,1.89,5,2.84,7.98,2.84c1.71,0,3.32-0.33,4.83-1l-6.75-8.68h8.56
			L223.96,279.17z"/>
		<path d="M239.39,262.6h7.07v13.43c0,2.61,0.18,4.43,0.54,5.44c0.36,1.02,0.94,1.81,1.73,2.37c0.8,0.56,1.77,0.84,2.94,0.84
			c1.17,0,2.15-0.28,2.97-0.83c0.81-0.56,1.42-1.37,1.81-2.45c0.29-0.8,0.44-2.52,0.44-5.15V262.6h6.99v11.81
			c0,4.87-0.38,8.2-1.15,9.99c-0.94,2.19-2.32,3.86-4.15,5.04c-1.83,1.17-4.15,1.76-6.97,1.76c-3.06,0-5.53-0.69-7.42-2.05
			c-1.89-1.37-3.21-3.27-3.98-5.72c-0.54-1.69-0.82-4.77-0.82-9.22V262.6z"/>
		<path d="M274.83,247.46h8.27l-9.38,10.04h-5.02L274.83,247.46z M270.14,262.6h6.99v27.88h-6.99V262.6z"/>
		<path d="M300.55,266.49l-4.33,4.33c-1.76-1.74-3.36-2.61-4.79-2.61c-0.78,0-1.4,0.17-1.85,0.5c-0.45,0.33-0.66,0.75-0.66,1.24
			c0,0.38,0.14,0.72,0.42,1.04c0.28,0.31,0.98,0.75,2.09,1.29l2.56,1.28c2.7,1.33,4.55,2.69,5.56,4.07
			c1.01,1.38,1.51,3.01,1.51,4.87c0,2.48-0.91,4.55-2.73,6.2c-1.82,1.66-4.26,2.49-7.32,2.49c-4.07,0-7.31-1.59-9.74-4.77l4.3-4.69
			c0.82,0.96,1.78,1.73,2.88,2.32c1.1,0.59,2.08,0.89,2.94,0.89c0.92,0,1.67-0.22,2.23-0.67c0.56-0.44,0.85-0.96,0.85-1.54
			c0-1.08-1.02-2.13-3.05-3.15l-2.36-1.18c-4.51-2.27-6.77-5.12-6.77-8.53c0-2.2,0.85-4.09,2.55-5.65c1.7-1.56,3.87-2.34,6.52-2.34
			c1.81,0,3.52,0.4,5.11,1.19C298.09,263.87,299.44,265.01,300.55,266.49z"/>
		<path d="M307.42,252.33h7v10.27h4.15v6.02h-4.15v21.86h-7v-21.86h-3.59v-6.02h3.59V252.33z"/>
		<path d="M325.04,251.12c1.22,0,2.28,0.45,3.15,1.33c0.87,0.89,1.31,1.96,1.31,3.23c0,1.25-0.43,2.31-1.3,3.19
			c-0.87,0.88-1.91,1.32-3.12,1.32c-1.24,0-2.3-0.45-3.18-1.35c-0.87-0.9-1.31-1.99-1.31-3.27c0-1.23,0.43-2.28,1.3-3.16
			C322.76,251.56,323.81,251.12,325.04,251.12z M321.54,262.6h7v27.88h-7V262.6z"/>
		<path d="M362.18,268.24l-5.83,3.2c-1.09-1.15-2.18-1.94-3.25-2.38c-1.07-0.45-2.32-0.67-3.76-0.67c-2.62,0-4.73,0.78-6.35,2.34
			c-1.62,1.56-2.42,3.56-2.42,6c0,2.37,0.78,4.31,2.33,5.81c1.56,1.5,3.6,2.25,6.13,2.25c3.13,0,5.57-1.07,7.31-3.2l5.51,3.78
			c-2.99,3.89-7.21,5.83-12.65,5.83c-4.9,0-8.74-1.45-11.52-4.36c-2.77-2.9-4.17-6.3-4.17-10.2c0-2.7,0.67-5.18,2.03-7.46
			c1.35-2.27,3.23-4.06,5.65-5.36c2.42-1.3,5.12-1.95,8.11-1.95c2.76,0,5.25,0.55,7.46,1.65
			C358.97,264.64,360.77,266.21,362.18,268.24z"/>
		<path d="M388.84,262.6h6.99v27.88h-6.99v-2.95c-1.37,1.3-2.74,2.23-4.11,2.81c-1.38,0.57-2.86,0.86-4.47,0.86
			c-3.6,0-6.71-1.4-9.34-4.19c-2.63-2.79-3.94-6.26-3.94-10.42c0-4.3,1.27-7.83,3.81-10.58c2.54-2.75,5.63-4.12,9.27-4.12
			c1.67,0,3.24,0.32,4.71,0.95c1.47,0.63,2.82,1.58,4.07,2.85V262.6z M381.49,268.34c-2.16,0-3.96,0.76-5.39,2.29
			c-1.43,1.53-2.14,3.49-2.14,5.88c0,2.41,0.73,4.39,2.18,5.95c1.45,1.55,3.25,2.33,5.38,2.33c2.19,0,4.02-0.76,5.47-2.29
			c1.44-1.53,2.17-3.54,2.17-6.01c0-2.43-0.72-4.39-2.17-5.89C385.53,269.09,383.7,268.34,381.49,268.34z"/>
		<path d="M406.06,283.38l4.99,2.51l-6.33,10.81l-3.49-1.67L406.06,283.38z"/>
		<path d="M425.13,263.55h5.2l10.35,26.92h-5.33l-2.11-5.55h-10.98l-2.19,5.55h-5.33L425.13,263.55z M427.76,270.69l-3.61,9.24h7.2
			L427.76,270.69z"/>
		<path d="M446.82,285.26c0.79,0,1.47,0.28,2.03,0.83c0.56,0.56,0.84,1.23,0.84,2.02c0,0.79-0.28,1.47-0.84,2.03
			c-0.56,0.56-1.24,0.84-2.03,0.84c-0.79,0-1.47-0.28-2.03-0.84s-0.84-1.24-0.84-2.03c0-0.79,0.28-1.47,0.84-2.02
			S446.03,285.26,446.82,285.26z"/>
		<path d="M479.87,268.29l-3.58,3.42c-2.44-2.58-5.18-3.87-8.23-3.87c-2.57,0-4.74,0.88-6.5,2.64c-1.76,1.76-2.64,3.92-2.64,6.5
			c0,1.8,0.39,3.39,1.17,4.79c0.78,1.39,1.88,2.48,3.31,3.28c1.42,0.79,3.01,1.19,4.75,1.19c1.49,0,2.85-0.28,4.08-0.83
			c1.23-0.55,2.58-1.57,4.06-3.03l3.48,3.63c-1.99,1.94-3.87,3.29-5.64,4.04c-1.77,0.75-3.79,1.12-6.06,1.12
			c-4.19,0-7.61-1.33-10.28-3.98c-2.67-2.65-4-6.05-4-10.2c0-2.68,0.6-5.07,1.82-7.15c1.21-2.09,2.95-3.76,5.21-5.03
			c2.26-1.27,4.7-1.9,7.31-1.9c2.22,0,4.36,0.47,6.41,1.41C476.62,265.23,478.39,266.56,479.87,268.29z"/>
		<path d="M486.54,285.26c0.79,0,1.47,0.28,2.03,0.83c0.56,0.56,0.84,1.23,0.84,2.02c0,0.79-0.28,1.47-0.84,2.03
			c-0.56,0.56-1.24,0.84-2.03,0.84c-0.79,0-1.47-0.28-2.03-0.84c-0.56-0.56-0.84-1.24-0.84-2.03c0-0.79,0.28-1.47,0.84-2.02
			C485.07,285.54,485.75,285.26,486.54,285.26z"/>
	</g>
</g>
</svg>
