<?xml version="1.0" encoding="utf-8"?>
<!-- Generator: Adobe Illustrator 25.0.0, SVG Export Plug-In . SVG Version: 6.00 Build 0)  -->
<svg version="1.1" xmlns="http://www.w3.org/2000/svg" xmlns:xlink="http://www.w3.org/1999/xlink" x="0px" y="0px"
	 viewBox="0 0 1000 365" style="enable-background:new 0 0 1000 365;" xml:space="preserve">
<style type="text/css">
	.st0{display:none;}
	.st1{display:inline;}
	.st2{fill-rule:evenodd;clip-rule:evenodd;}
	.st3{fill-rule:evenodd;clip-rule:evenodd;fill:#06B2C4;}
	.st4{fill-rule:evenodd;clip-rule:evenodd;fill:#04B1C4;}
	.st5{fill-rule:evenodd;clip-rule:evenodd;fill:#FEFEFE;}
</style>
<g id="Capa_2" class="st0">
	<path class="st1" d="M-43-337V679h1069V-337H-43z M310.8,10.5C246.5,0.3,189.4-36.7,140.6-78.2c-4.9-4.2,2.2-11.2,7.1-7.1
		C195.2-44.8,250.8-9.1,313.5,0.9C319.9,1.9,317.1,11.6,310.8,10.5z M690-88.1c-4.4-1.7-8.8-3.4-13.3-4.9
		c-28.5-9.7-58-15.7-87.5-21.7c-30.2-6.1-60-13.1-89.8-21c-31.3-8.3-62.4-17-93.8-25c-15.5-4-31-7.8-46.7-11.3
		c-14.9-3.4-30.1-7.4-45.4-7.6c-6.4-0.1-6.5-10.1,0-10c6,0.1,12,0.6,18,1.6c30.9,5.2,61.5,13.6,91.7,21.5
		c31.3,8.2,62.4,16.9,93.7,25c29.5,7.7,59.2,13.8,89,20c29.3,6.1,58.6,12.7,86.6,23.7C698.6-95.4,696-85.7,690-88.1z M752.4,59.3
		c-6.4,0-6.4-10,0-10C758.9,49.3,758.9,59.3,752.4,59.3z M763.6-46.2c-6.4,0-6.4-10,0-10C770-56.2,770-46.2,763.6-46.2z M880.2,2.4
		c-6.4,0-6.4-10,0-10C886.7-7.6,886.7,2.4,880.2,2.4z"/>
</g>
<g id="Capa_1">
	<g>
		<path class="st2" d="M322,67.1c24.6-0.2,45.8,8.6,64.5,24c13.6,11.2,23.4,25.4,30.3,42.9c11.9-27.7,30.7-47.7,58-58.8
			c27.4-11.1,54.9-10.1,82.5,1.7c0-4.3,0-7.9,0-11.5c0-19.6,0-39.3,0-58.9c0-1.7-0.8-3.7,0.7-5.2c17.2,0.7,34.4,0.1,51.6,0.3
			c2.4,0,5-0.6,7.3,0.5c0.1,1.2,0.3,2.3,0.3,3.5c0,55.2,0.2,110.3,0,165.5c-0.2,49.3-33.5,90.6-81.3,101.2
			c-48.1,10.7-97.3-14.4-117-59.7c-0.7-1.5-1.3-3-2.3-5.1c-11.6,27.6-30.4,47.5-57.8,58.7c-27.4,11.2-54.9,10.2-82-1.5
			c-1.4,1.5-0.7,3-0.8,4.4c0,22.3-0.1,44.7,0,67c0,3.7-0.7,5.2-4.8,5.1c-16.8-0.3-33.7-0.2-50.5,0c-3.8,0-4.7-1.1-4.7-4.8
			c0.1-38.7,0.1-77.3,0-116c0-1.8,0-3.6,0-6c-2.2,1.1-3,3-4.2,4.5c-10.4,13.5-21.7,26.1-35.5,36.4c-26.9,20-55,20.9-83.2,2.7
			c-17.8-11.5-31.7-26.9-44.2-43.7C32,191.2,18.4,166.2,6.3,140.4c-0.4-0.8-1.1-1.7-0.5-3c1-0.1,2.1-0.2,3.2-0.2
			c18.8,0,37.7,0.1,56.5-0.1c3.1,0,4.8,1,6.1,3.8c4.7,10.7,9.1,21.5,14.6,31.7c4.5,8.4,9.6,16.4,16.2,23.3c4.9,5.1,10.4,9.3,17,12.1
			c11.1,4.6,21.3,3.7,30.8-4.2c9.9-8.3,17.9-18.4,25.6-28.6c15.2-19.8,29.4-40.4,46.1-59.1c12.4-13.8,25.7-26.7,41.8-36.2
			c12.2-7.2,25-12.4,39.4-12.9C309.4,67.7,315.7,67.8,322,67.1z"/>
		<path class="st2" d="M412,340.7c-3,0-6,0-9,0c-0.8-9.6-0.8-19.1,0-28.7c2.4-12.2,16.9-18.1,27.8-10.9c2.8,1.8,4.1,2.2,7,0
			c10-7.4,24.9-1.4,27.3,10.6c0.7,9.6,0.8,19.3,0,28.9c-3,0-6,0-9,0c-1-6.1-0.2-12.2-0.5-18.2c-0.1-1.8,0.3-3.6-0.3-5.4
			c-0.9-6.2-3.3-8.5-8.5-8.1c-4.9,0.3-6.9,2.9-7,9c-0.1,6.3-0.2,12.7,0,19c0.2,5.6-3.9,3.7-6.6,3.9c-2.8,0.3-5.2,0.3-5-3.9
			c0.3-6.1,0-12.3,0.1-18.5c0.1-4.4-0.2-8.5-5.7-9.5c-4.7-0.8-7.7,1.4-9.8,7.1c-0.7,6.4-0.1,12.8-0.3,19.3
			C412.4,337.1,412.9,339,412,340.7z"/>
		<path class="st2" d="M923.9,326.6c0,3.5-0.2,7,0.1,10.5c0.4,4.8-2.9,3.8-5.5,3.9c-2.7,0-5.8,1-5.6-3.8c0.3-6.3,0.1-12.7,0.1-19
			c-0.1-6.1-2.5-9.1-7.5-9.1c-5.3-0.1-8.2,2.9-8.4,9c-0.2,6.5-0.2,13,0,19.5c0.2,5-3.4,3.4-5.9,3.5c-2.5,0.1-5.5,0.9-5.3-3.6
			c0.3-6.8-0.1-13.7,0.1-20.5c0.3-11,8.3-18.8,19.2-18.8c10.8,0,18.3,7.3,18.6,18.5C924,319.9,923.9,323.3,923.9,326.6z"/>
		<path class="st2" d="M327.5,329.1c4-8.6,6.1-17.2,9.1-25.4c1.4-3.9,7.5-6.3,11.2-4.4c1.6,0.8,0.9,1.9,0.5,2.9
			c-4.6,12.1-9.2,24.2-13.6,36.4c-1.1,3.1-3.6,2.6-5.8,2.3c-2.7-0.3-6.2,1.9-7.8-2.3c-4.6-12.1-9.2-24.2-13.8-36.3
			c-0.7-2-0.3-3,2.1-3.2c7.2-0.8,8-0.4,10.3,6.5C322.3,313.1,324.8,320.7,327.5,329.1z"/>
		<path class="st2" d="M824,304c0,6.3-0.1,12.6,0,19c0.1,3.9,1.1,7,5.7,8.1c4.5,1.1,1.7,4.9,2.1,7.5c0.5,2.9-2.1,2.4-3.8,2.4
			c-8,0.1-14.6-6-14.9-15c-0.4-14,0-27.9-0.1-41.9c0-4.4,3.1-3.1,5.2-3c2.2,0.1,5.8-1.8,5.7,3C824,290.7,824,297.4,824,304z"/>
		<path class="st2" d="M932.1,308c0-5.2,0.2-10.3-0.1-15.5c-0.2-5,3.3-3.5,5.8-3.6c2.6-0.1,5.7-0.8,5.2,3.6c-0.5,4.3,0,7.1,5.8,6.8
			c3.7-0.2,1.6,3.9,2,6c0.4,1.9,0,3.9-2.7,3.5c-5.1-0.8-5.3,2.1-5.1,5.9c0.2,3-0.1,6,0.1,9c0.2,3.6,1.4,6.3,5.5,7.3
			c4.9,1.2,1.9,5.2,2.3,7.9c0.3,2.9-2.4,2-4.1,2c-8.3-0.1-14.4-7-14.6-17C932,318.7,932.1,313.3,932.1,308z"/>
		<path class="st2" d="M546.1,305.2c0.5,2.8-0.1,4.6-4.1,5.1c-3.1,0.4-4.2,3.3-4.2,6.5c0,4.7-0.4,9.3-1.9,13.8
			c-2.3,6.6-7.7,10.4-14.3,10.4c-2.3,0-4.3-0.3-3.7-3.1c0.6-2.6-2.5-6.9,2.6-7.6c4.1-0.5,5.3-2.8,5.5-6.3c0.2-3.5,0.5-7,0.9-10.4
			c0.9-7.1,5.5-12.1,12.5-13.9C545.5,298.1,546.1,298.6,546.1,305.2z"/>
		<path class="st2" d="M648.1,311c1.7-8.1,8.4-13.3,16.4-12.9c1.3,0.1,3-0.1,3.1,1.7c0.1,1.7-1.6,1.3-2.6,1.4
			c-11.3,1.8-14.1,5-14.1,16.4c0,6.8,0,13.6,0,20.4c0,1.7,0.2,4.2-2.8,1.9C648.9,330.3,648.7,320.7,648.1,311z"/>
		<path class="st3" d="M617,2c-17.9,0-35.8,0-53.7,0c-1.8,0-3.7,0.6-5.2-0.8c4.1-1.2,8.2-0.5,12.3-0.5c13.9-0.1,27.9-0.1,41.8,0
			C613.8,0.7,616-0.4,617,2z"/>
		<path class="st2" d="M648.1,311c0.3,0.1,0.9,0.2,0.9,0.3c-0.1,9.3-0.2,18.6-0.3,27.9c0,0.2-0.4,0.5-0.6,0.7
			C647.7,330.3,647.6,320.7,648.1,311z"/>
		<path class="st2" d="M403,312c0,9.6,0,19.1,0,28.7c-1.9-1.6-1-3.7-0.9-5.5C402.5,327.4,400.8,319.6,403,312z"/>
		<path class="st2" d="M465,340.7c0-9.6,0-19.3,0-28.9C466.6,321.4,466.7,331.1,465,340.7z"/>
		<path class="st2" d="M412,340.7c0.5-8.2-1-16.5,0.8-24.6c0.1,7.5,0.1,15.1,0.2,22.6C413,339.5,413,340.3,412,340.7z"/>
		<path class="st2" d="M455.2,317c1.8,7.8,0.4,15.8,0.8,23.7c-2.1-3.6-0.7-7.6-0.9-11.4C454.8,325.2,455.1,321.1,455.2,317z"/>
		<path class="st4" d="M322,67.1c-6.3,1.5-12.6,1.4-18.9,0.1C309.4,67.1,315.7,67.1,322,67.1z"/>
		<path class="st5" d="M557.3,171c0,24.2-19.1,43.5-43.2,43.8c-24,0.2-44-19.6-44-43.7c0-24.1,19.9-43.9,43.9-43.7
			C538.1,127.5,557.3,146.8,557.3,171z"/>
		<path class="st5" d="M363.2,170.3c0,24.2-19.3,43.5-43.5,43.6c-24.1,0.1-43.8-19.8-43.7-44c0.1-24,19.7-43.3,43.9-43.2
			C344.2,126.8,363.3,146,363.2,170.3z"/>
		<path class="st2" d="M760.1,285.2c0.2-5-2.8-4.1-5.7-4.2c-3.3-0.2-5.8-0.2-5.4,4.5c0.4,5.3,0.1,10.6,0.1,16.4
			c-15.6-6.8-27.3-1.9-31.3,12.8c-2.3,8.8,0.1,16.5,7,22.5c6.8,5.9,14.8,6.6,22.8,2.9c7.9-3.6,12.2-10.1,12.3-18.9
			C760.1,309.1,759.7,297.1,760.1,285.2z M738.8,331.9c-6,0-10.8-5.5-10.7-12c0.1-6.4,4.8-11.2,10.8-11.1
			c5.9,0.1,10.3,5.1,10.2,11.7C749,326.5,744.2,331.9,738.8,331.9z"/>
		<path class="st2" d="M877.9,335.1c0.2-2.5,0-5,0-7.5c0-2.5,0-5,0-7.5c-0.1-11.6-8.1-20.8-19.1-22c-10.9-1.2-20.7,5.7-23.2,16.9
			c-2,9,0.4,17,7.8,22.7c6.5,5.1,13.6,5.9,21,1.6c1.4-0.8,2-0.8,3.5,0.6c2.4,2.2,6.1,1.5,9,0.6C879,339.9,877.8,337,877.9,335.1z
			 M856.6,331.9c-5.7,0.1-10.6-5.3-10.6-11.6c0-6.6,4.4-11.5,10.3-11.5c5.9,0,10.6,5,10.7,11.3C867,326.4,862.2,331.8,856.6,331.9z"
			/>
		<path class="st2" d="M393.1,335.7c0.2-2.6,0.1-5.3,0.1-8c0,0,0,0-0.1,0c0-3.2,0.1-6.3,0-9.5c-0.4-9.7-7-17.3-16.9-19.6
			c-8.8-2.1-18.4,2.3-23,10.3c-4.9,8.4-3.4,20.3,3.5,27.2c5.6,5.5,15.2,8.8,24.1,2.6c0.6-0.5,1.3-1.8,2.1,0.1c1.9,4.4,5.7,2,8.5,1.9
			C394.3,340.5,393,337.4,393.1,335.7z M372,331.9c-5.7,0-10.5-5.4-10.4-11.7c0.1-7,4.2-11.4,10.5-11.3c6.2,0.1,10.1,4.6,10,11.7
			C382.1,326.8,377.6,331.9,372,331.9z"/>
		<path class="st2" d="M805.3,327.5c-3.8-0.2-7.9-1.6-11.2,1.9c-3.2,3.4-7.4,3.3-11.6,1.9c-1.4-0.5-3.2-1.1-3.2-2.7
			c0-1.4,1.9-1.7,3.1-2.2c6.4-2.7,12.8-5.5,19.3-8.1c6.3-2.6,6.7-3.9,3.2-9.8c-5.2-9-15.5-12.6-25.5-8.9c-8.8,3.2-15.5,14.3-14,23.1
			c2,11.8,10.6,19.4,21.8,19.4c8.3-0.1,14.7-3.5,18.7-11C806.5,329.8,807.8,327.7,805.3,327.5z M776.4,318.4
			c-0.4-0.6-0.3-1.6-0.2-2.3c0.9-4.5,5.7-8.1,11-8.2c0.4,0,1.3,0,2,0.2c1.7,0.5,4.1,0.8,4.4,2.7c0.3,2-2.3,2-3.7,2.6
			c-3.8,1.7-7.6,3.2-11.4,4.8C777.9,318.4,777,319.2,776.4,318.4z"/>
		<path class="st2" d="M994.6,327.5c-3.4-0.4-7.1-1.4-10.4,1.5c-5.1,4.6-9.9,4.3-16.3-0.9c7.4-3.1,14.3-6,21.1-8.9
			c9.1-3.9,9.7-6.6,3.1-14.4c-0.8-0.9-1.6-1.7-2.5-2.4c-6.4-5-17.7-5.5-24.4-1c-8,5.4-11.7,14.8-9.3,23.9c2.3,9,9.9,15.9,18.5,16.5
			c8.7,0.6,16.1-1.9,20.7-10C995.9,330.4,997.5,327.9,994.6,327.5z M971.1,309.4c3.6-2.1,7.3-2.1,10.9-0.1c1.2,0.7,3.2,1.7,0.4,2.9
			c-5.2,2.3-10.5,4.4-16.3,6.8C965.9,314.3,967.7,311.4,971.1,309.4z"/>
		<path class="st2" d="M493.9,298.1c-11.7,0-21,9.6-21.1,21.9c-0.1,12.5,8.9,22,20.8,22c11.8,0,21.2-9.5,21.3-21.7
			C515,308.4,505.3,298.1,493.9,298.1z M493.6,332c-5.8,0-9.8-5-9.8-12.1c0.1-6.7,4.7-12,10.2-11.7c5.4,0.2,9.9,6,9.8,12.5
			C503.7,326.9,499.1,332,493.6,332z"/>
		<path class="st2" d="M592,317.4c-0.8-9-7.6-16.7-16.7-18.8c-12.7-2.9-24.6,7.6-24.9,22.4c-0.2,11.5-0.1,23,0,34.4
			c0,1.4-0.8,3.8,2,3.6c2.4-0.2,1.5-2.2,1.5-3.5c0.1-7.4,0-14.9,0-23.4c8.1,9.5,16.3,12,25,8.4C587.7,336.9,592.9,327.8,592,317.4z
			 M571.3,338.8c-9.8,0-17.6-8.5-17.4-19.2c0.1-10.1,7.9-18.1,17.5-18.1c9.7,0,17.7,8.5,17.6,18.6
			C588.9,330.3,580.9,338.8,571.3,338.8z"/>
		<path class="st2" d="M710.8,319.2c-0.6-9.2-5.1-16.2-13.8-19.7c-8.1-3.2-15.6-1.2-21.5,5c-6.5,6.8-8.1,15-4.7,24
			c4.5,12.3,22.8,20.8,36.9,3.6c0,2.4-0.1,3.9,0,5.3c0.1,1.3-0.6,3.4,1.8,3.3c2-0.1,1.4-1.9,1.4-3.1
			C710.9,331.5,711.2,325.3,710.8,319.2z M689.5,338.8c-9.7-0.3-17.6-9.2-17.3-19.1c0.4-10.3,8.6-18.5,18.1-18.2
			c9.7,0.3,17.4,8.8,17.2,19.1C707.4,330.7,699.1,339.1,689.5,338.8z"/>
		<path class="st2" d="M637.8,317.3c-0.8-12.1-12.9-21.2-24.2-18.7c-9.7,2.1-16.1,9.8-17.1,20.2c-0.8,9,4.6,18,13,21.6
			c8.8,3.8,17,1.3,25.5-8.4c0,2.8,0,4.6,0,6.3c0,1.1-0.2,2.6,1.5,2.5c1.8,0,1.4-1.5,1.4-2.6C637.9,331.2,638.3,324.2,637.8,317.3z
			 M617.6,338.8c-9.7,0.2-17.7-8.1-17.8-18.4c-0.1-10.4,7.5-18.7,17.3-18.9c9.6-0.2,17.7,8.1,17.9,18.4
			C635.1,330,627.2,338.6,617.6,338.8z"/>
	</g>
</g>
</svg>
