<?xml version="1.0" encoding="utf-8"?>
<!-- Generator: Adobe Illustrator 25.0.0, SVG Export Plug-In . SVG Version: 6.00 Build 0)  -->
<svg version="1.1" xmlns="http://www.w3.org/2000/svg" xmlns:xlink="http://www.w3.org/1999/xlink" x="0px" y="0px"
	 viewBox="0 0 393.9 126.1" style="enable-background:new 0 0 393.9 126.1;" xml:space="preserve">
<style type="text/css">
	.st0{display:none;}
</style>
<g id="Layer_1">
	<g>
		<g>
			<path d="M157.6,102.3c0-0.5,0.2-1,0.5-1.4c0.3-0.4,0.8-0.6,1.5-0.6h6.5c0.6,0,1,0.2,1.3,0.5c0.3,0.4,0.4,0.8,0.4,1.2
				c0,0.4-0.1,0.8-0.4,1.2c-0.3,0.4-0.7,0.5-1.3,0.5h-4.6v3.7h3.9c0.6,0,1.1,0.2,1.4,0.5c0.3,0.4,0.5,0.7,0.5,1.2
				c0,0.4-0.2,0.8-0.5,1.2c-0.3,0.4-0.8,0.6-1.4,0.6h-3.9v5.5c0,0.6-0.2,1.1-0.5,1.5c-0.4,0.3-0.8,0.5-1.3,0.5c-0.5,0-1-0.2-1.3-0.5
				c-0.4-0.3-0.5-0.8-0.5-1.5V102.3z"/>
			<path d="M180.8,102.2c0-0.6,0.2-1.1,0.5-1.5c0.4-0.3,0.8-0.5,1.3-0.5c0.5,0,1,0.2,1.4,0.5c0.4,0.3,0.5,0.8,0.5,1.5v8.8
				c0,0.6,0.1,1.1,0.3,1.6c0.2,0.5,0.4,0.9,0.8,1.3c0.3,0.4,0.7,0.7,1.2,0.9c0.5,0.2,1,0.3,1.6,0.3c0.6,0,1.1-0.1,1.6-0.3
				c0.5-0.2,0.9-0.5,1.2-0.9c0.3-0.4,0.6-0.8,0.8-1.3c0.2-0.5,0.3-1,0.3-1.6v-8.8c0-0.6,0.2-1.1,0.5-1.5c0.4-0.3,0.8-0.5,1.4-0.5
				c0.5,0,1,0.2,1.3,0.5c0.4,0.3,0.5,0.8,0.5,1.5v9c0,1.1-0.2,2-0.6,3c-0.4,0.9-1,1.7-1.7,2.4c-0.7,0.7-1.5,1.2-2.4,1.6
				c-0.9,0.4-1.9,0.6-3,0.6c-1.1,0-2.1-0.2-3-0.6c-0.9-0.4-1.7-0.9-2.4-1.6c-0.7-0.7-1.2-1.5-1.7-2.4c-0.4-0.9-0.6-1.9-0.6-3V102.2z
				"/>
			<path d="M210.2,102.2c0-0.6,0.2-1.1,0.5-1.5c0.4-0.3,0.8-0.5,1.3-0.5c0.2,0,0.5,0.1,0.8,0.2c0.3,0.2,0.6,0.4,0.7,0.6l8,10.7h0
				v-9.5c0-0.6,0.2-1.1,0.5-1.5c0.4-0.3,0.8-0.5,1.3-0.5c0.5,0,1,0.2,1.3,0.5c0.4,0.3,0.5,0.8,0.5,1.5v14.3c0,0.6-0.2,1.1-0.5,1.5
				c-0.4,0.3-0.8,0.5-1.3,0.5c-0.2,0-0.5-0.1-0.8-0.2c-0.3-0.2-0.6-0.4-0.8-0.6l-8-10.5H214v9.4c0,0.6-0.2,1.1-0.5,1.5
				c-0.4,0.3-0.8,0.5-1.4,0.5c-0.5,0-1-0.2-1.3-0.5c-0.4-0.3-0.5-0.8-0.5-1.5V102.2z"/>
			<path d="M239.7,102.3c0-0.6,0.2-1.1,0.5-1.4c0.4-0.4,0.8-0.5,1.4-0.5h4.2c1.4,0,2.7,0.2,3.8,0.7c1.1,0.4,2,1.1,2.8,1.9
				c0.8,0.8,1.3,1.8,1.7,2.9c0.4,1.1,0.6,2.4,0.6,3.8c0,1.3-0.2,2.5-0.6,3.6c-0.4,1.1-1,2-1.8,2.8c-0.8,0.8-1.7,1.3-2.7,1.8
				c-1.1,0.4-2.2,0.6-3.5,0.6h-4.4c-0.2,0-0.4,0-0.7-0.1c-0.2-0.1-0.5-0.2-0.7-0.3c-0.2-0.2-0.4-0.3-0.5-0.6
				c-0.1-0.2-0.2-0.5-0.2-0.9V102.3z M243.5,114.8h2.5c0.8,0,1.5-0.1,2.1-0.4c0.6-0.3,1.1-0.7,1.5-1.2c0.4-0.5,0.7-1.1,0.9-1.7
				c0.2-0.7,0.3-1.4,0.3-2.1c0-0.8-0.1-1.6-0.3-2.2c-0.2-0.7-0.5-1.3-0.9-1.8c-0.4-0.5-0.9-0.9-1.6-1.2c-0.6-0.3-1.4-0.4-2.3-0.4
				h-2.3V114.8z"/>
			<path d="M272.8,102.2c0.2-0.6,0.6-1.1,1-1.5c0.5-0.4,1-0.6,1.7-0.6c0.7,0,1.2,0.2,1.7,0.6c0.5,0.4,0.8,0.9,1,1.5l4.9,13.7
				c0.1,0.2,0.1,0.4,0.2,0.6c0,0.2,0,0.3,0,0.4c0,0.5-0.2,0.9-0.5,1.2c-0.3,0.3-0.8,0.5-1.2,0.5c-0.5,0-0.9-0.1-1.2-0.4
				c-0.3-0.2-0.5-0.6-0.6-0.9l-0.8-2.4h-7l-0.8,2.3c-0.1,0.4-0.3,0.7-0.6,1c-0.3,0.3-0.7,0.4-1.2,0.4c-0.5,0-0.9-0.2-1.3-0.5
				c-0.4-0.3-0.6-0.8-0.6-1.3c0-0.2,0-0.4,0.1-0.5c0-0.1,0.1-0.2,0.1-0.3L272.8,102.2z M273.1,111.3h4.8l-2.3-7.3h-0.1L273.1,111.3z
				"/>
			<path d="M296,109.3c0-1.3,0.2-2.5,0.6-3.7c0.4-1.1,1-2.1,1.8-2.9c0.8-0.8,1.7-1.5,2.7-2c1.1-0.5,2.2-0.7,3.5-0.7
				c0.5,0,1,0,1.6,0.1c0.6,0.1,1.2,0.2,1.8,0.5c0.6,0.2,1,0.5,1.4,0.9c0.4,0.4,0.6,0.8,0.6,1.4c0,0.5-0.1,0.8-0.4,1.2
				c-0.3,0.3-0.7,0.5-1.1,0.5c-0.3,0-0.5,0-0.7-0.1c-0.2-0.1-0.5-0.2-0.8-0.3c-0.3-0.1-0.6-0.2-1-0.3c-0.4-0.1-0.8-0.1-1.3-0.1
				c-0.8,0-1.5,0.2-2.1,0.5c-0.6,0.3-1.1,0.7-1.5,1.2c-0.4,0.5-0.7,1.1-0.9,1.8c-0.2,0.7-0.3,1.4-0.3,2.2c0,0.8,0.1,1.5,0.3,2.1
				c0.2,0.7,0.5,1.3,0.9,1.8c0.4,0.5,0.9,0.9,1.5,1.2c0.6,0.3,1.3,0.5,2,0.5c0.5,0,1-0.1,1.4-0.2c0.4-0.1,0.7-0.2,1-0.4
				c0.3-0.1,0.6-0.3,0.8-0.4c0.3-0.1,0.5-0.2,0.8-0.2c0.3,0,0.5,0.1,0.7,0.2c0.2,0.1,0.4,0.3,0.5,0.5c0.1,0.2,0.2,0.4,0.3,0.6
				c0.1,0.2,0.1,0.4,0.1,0.5c0,0.6-0.2,1.1-0.6,1.5c-0.4,0.4-0.9,0.7-1.5,0.9c-0.6,0.2-1.2,0.4-1.9,0.5c-0.6,0.1-1.2,0.1-1.7,0.1
				c-1.3,0-2.5-0.2-3.5-0.7c-1.1-0.5-2-1.1-2.7-2c-0.8-0.8-1.4-1.8-1.8-2.9C296.2,111.9,296,110.7,296,109.3z"/>
			<path d="M324.2,102.2c0-0.6,0.2-1.1,0.5-1.5c0.4-0.3,0.8-0.5,1.3-0.5c0.5,0,1,0.2,1.3,0.5c0.4,0.3,0.5,0.8,0.5,1.5v14.3
				c0,0.6-0.2,1.1-0.5,1.5c-0.4,0.3-0.8,0.5-1.3,0.5c-0.5,0-1-0.2-1.3-0.5c-0.4-0.3-0.5-0.8-0.5-1.5V102.2z"/>
			<path d="M350.3,118.6c-1.3,0-2.5-0.2-3.5-0.7c-1.1-0.5-2-1.1-2.7-2c-0.8-0.8-1.4-1.8-1.8-2.9c-0.4-1.1-0.6-2.3-0.6-3.7
				c0-1.3,0.2-2.5,0.6-3.7c0.4-1.1,1-2.1,1.8-2.9c0.8-0.8,1.7-1.5,2.7-2c1.1-0.5,2.2-0.7,3.5-0.7c1.3,0,2.4,0.2,3.5,0.7
				c1.1,0.5,2,1.2,2.7,2c0.8,0.8,1.4,1.8,1.8,3c0.4,1.1,0.6,2.3,0.6,3.6c0,1.3-0.2,2.5-0.6,3.7c-0.4,1.1-1,2.1-1.8,2.9
				c-0.8,0.8-1.7,1.5-2.7,2C352.8,118.4,351.6,118.6,350.3,118.6z M350.3,115.1c0.8,0,1.5-0.2,2.1-0.5c0.6-0.3,1.1-0.7,1.5-1.3
				c0.4-0.5,0.7-1.1,0.9-1.8c0.2-0.7,0.3-1.4,0.3-2.2c0-0.8-0.1-1.5-0.3-2.2c-0.2-0.7-0.5-1.3-0.9-1.9c-0.4-0.5-0.9-1-1.5-1.3
				c-0.6-0.3-1.3-0.5-2.1-0.5c-0.8,0-1.5,0.2-2.1,0.5c-0.6,0.3-1.1,0.7-1.5,1.3c-0.4,0.5-0.7,1.1-0.9,1.9c-0.2,0.7-0.3,1.4-0.3,2.2
				c0,0.8,0.1,1.5,0.3,2.2c0.2,0.7,0.5,1.3,0.9,1.8c0.4,0.5,0.9,1,1.5,1.3C348.8,115,349.5,115.1,350.3,115.1z M351.7,95.7
				c0.2,0,0.4,0,0.5,0c0.2,0,0.3,0.1,0.4,0.1c0.2,0.1,0.3,0.2,0.4,0.3c0.1,0.2,0.2,0.3,0.3,0.5c0.1,0.2,0.1,0.4,0.1,0.6
				c0,0.2,0,0.4-0.1,0.5c-0.3,0.7-0.8,1-1.5,1l-3,0c-0.2,0-0.3,0-0.4,0c-0.1,0-0.1,0-0.2,0c-0.1,0-0.1,0-0.2,0c0,0-0.1,0-0.2-0.1
				c-0.2-0.1-0.3-0.2-0.4-0.3c-0.1-0.2-0.2-0.4-0.2-0.6c0-0.2-0.1-0.4,0-0.7c0-0.2,0.1-0.4,0.2-0.6c0.1-0.2,0.2-0.3,0.4-0.4
				c0.2-0.1,0.4-0.2,0.6-0.2l0.2,0L351.7,95.7z"/>
			<path d="M372.5,102.2c0-0.6,0.2-1.1,0.5-1.5c0.4-0.3,0.8-0.5,1.3-0.5c0.2,0,0.5,0.1,0.8,0.2c0.3,0.2,0.6,0.4,0.7,0.6l8,10.7h0.1
				v-9.5c0-0.6,0.2-1.1,0.5-1.5c0.4-0.3,0.8-0.5,1.3-0.5c0.5,0,1,0.2,1.4,0.5c0.4,0.3,0.5,0.8,0.5,1.5v14.3c0,0.6-0.2,1.1-0.5,1.5
				c-0.4,0.3-0.8,0.5-1.4,0.5c-0.2,0-0.5-0.1-0.8-0.2c-0.3-0.2-0.6-0.4-0.8-0.6l-8-10.5h-0.1v9.4c0,0.6-0.2,1.1-0.5,1.5
				c-0.4,0.3-0.8,0.5-1.3,0.5c-0.5,0-1-0.2-1.3-0.5c-0.4-0.3-0.5-0.8-0.5-1.5V102.2z"/>
		</g>
		<g>
			<path d="M154.8,49.5l8.4-22.6c0.4-1,1-1.9,1.8-2.5c0.8-0.6,1.7-0.9,2.7-0.9c1.1,0,2,0.3,2.8,0.9c0.8,0.6,1.3,1.5,1.7,2.5
				l8.2,22.6c0.2,0.6,0.3,1.1,0.3,1.5c0,0.5-0.1,1-0.4,1.4c-0.3,0.4-0.6,0.7-1,1c-0.4,0.2-0.9,0.3-1.4,0.3c-1.5,0-2.6-0.7-3-2.1
				l-1.2-3.9h-11.6l-1.3,3.9c-0.5,1.5-1.5,2.2-3,2.2c-0.9,0-1.6-0.3-2.2-0.8c-0.6-0.6-0.9-1.2-0.9-2.1
				C154.5,50.5,154.6,50,154.8,49.5z M167.6,29.9L163.6,42h7.9L167.6,29.9L167.6,29.9z"/>
			<path d="M184.8,50.5V26.9c0-1,0.3-1.8,0.9-2.4c0.6-0.6,1.3-0.9,2.2-0.9c0.4,0,0.9,0.1,1.4,0.4c0.5,0.3,0.9,0.6,1.2,1l13.2,17.6
				h0.1V26.9c0-1,0.3-1.8,0.9-2.4c0.6-0.6,1.3-0.9,2.2-0.9c0.9,0,1.7,0.3,2.3,0.8c0.6,0.6,0.9,1.4,0.9,2.4v23.7c0,1-0.3,1.8-0.9,2.4
				c-0.6,0.6-1.3,0.8-2.3,0.8c-0.4,0-0.8-0.1-1.4-0.4c-0.5-0.3-0.9-0.6-1.3-1L191.1,35H191v15.5c0,1-0.3,1.8-0.9,2.4
				c-0.6,0.6-1.3,0.8-2.3,0.8c-0.9,0-1.7-0.3-2.2-0.9C185,52.4,184.8,51.6,184.8,50.5z"/>
			<path d="M216,50.4V27.1c0-0.9,0.3-1.7,0.9-2.3c0.6-0.6,1.4-0.9,2.3-0.9h6.9c2.3,0,4.4,0.4,6.2,1.1c1.8,0.7,3.4,1.7,4.6,3.1
				c1.3,1.3,2.2,2.9,2.8,4.8c0.6,1.9,1,4,1,6.3c0,2.2-0.3,4.1-1,5.9c-0.7,1.8-1.6,3.3-2.9,4.6c-1.3,1.3-2.8,2.2-4.6,2.9
				c-1.8,0.7-3.7,1-5.8,1h-7.2c-0.5,0-1-0.1-1.5-0.3c-0.5-0.2-0.9-0.5-1.3-1C216.2,51.8,216,51.1,216,50.4z M222.3,29.6v18.1h4.2
				c1.8,0,3.2-0.4,4.4-1.2c1.2-0.8,2-1.8,2.6-3.2c0.6-1.3,0.9-2.9,0.9-4.6c0-1.8-0.3-3.4-0.9-4.8c-0.6-1.4-1.5-2.5-2.7-3.3
				c-1.2-0.8-2.8-1.2-4.6-1.2H222.3z"/>
			<path d="M246.3,50.5V27.1c0-1,0.3-1.8,0.8-2.4c0.5-0.6,1.3-0.9,2.4-0.9h7.3c3.3,0,5.9,0.8,7.7,2.3c1.8,1.5,2.7,3.9,2.7,7.1
				c0,1.1-0.2,2.1-0.6,3c-0.4,0.9-0.9,1.7-1.7,2.3c-0.7,0.7-1.5,1.2-2.4,1.6c-0.9,0.4-1.9,0.7-3,0.9l7.1,7.6
				c0.5,0.6,0.8,1.2,0.8,1.8c0,0.8-0.3,1.6-0.9,2.2c-0.6,0.6-1.3,1-2.2,1c-1,0-1.8-0.4-2.4-1.1l-9.2-11.2h-0.1v9
				c0,1-0.3,1.8-0.9,2.4c-0.6,0.6-1.3,0.8-2.2,0.8c-0.9,0-1.7-0.3-2.2-0.9C246.6,52.3,246.3,51.5,246.3,50.5z M252.5,29.6V37h4.3
				c1.2,0,2.1-0.3,2.8-1c0.7-0.7,1.1-1.6,1.1-2.7c0-1.2-0.4-2.1-1.1-2.7c-0.7-0.6-1.7-1-2.8-1H252.5z"/>
			<path d="M271.9,50.4V27.5c0-1.1,0.3-2,0.8-2.6c0.6-0.7,1.4-1,2.4-1h10.3c0.9,0,1.7,0.3,2.2,0.8c0.5,0.6,0.8,1.2,0.8,2
				c0,0.5-0.1,1-0.3,1.4c-0.2,0.4-0.6,0.8-1,1c-0.4,0.3-1,0.4-1.6,0.4h-7.3v6.1h6.8c1,0,1.7,0.3,2.3,0.8c0.5,0.6,0.8,1.2,0.8,2.1
				c0,0.8-0.3,1.4-0.8,2c-0.5,0.6-1.3,0.9-2.2,0.9h-6.8v6.3h7.7c1,0,1.7,0.3,2.2,0.8c0.5,0.6,0.8,1.2,0.8,2c0,0.4-0.1,0.9-0.3,1.4
				c-0.2,0.5-0.6,0.8-1,1.1c-0.4,0.3-1,0.4-1.6,0.4h-10.7c-0.9,0-1.7-0.3-2.3-0.9C272.2,52.1,271.9,51.3,271.9,50.4z M277.5,16.5
				l5.3,0c0.8,0,1.3,0.1,1.6,0.2c0.6,0.2,0.9,0.7,1.1,1.4c0.2,0.7,0.2,1.3,0,1.9c-0.5,1.1-1.3,1.7-2.5,1.6l-5-0.1
				c-0.4,0-0.6,0-0.8,0c-0.2,0-0.3,0-0.4,0c-0.1,0-0.2-0.1-0.5-0.2c-0.6-0.2-0.9-0.7-1.1-1.5c-0.2-0.7-0.1-1.5,0.2-2.2
				c0.3-0.7,0.8-1,1.7-1.1L277.5,16.5z"/>
			<path d="M303.1,23.4c0.9,0,2.1,0.1,3.4,0.4c1.3,0.3,2.4,0.7,3.4,1.4c0.9,0.6,1.4,1.4,1.4,2.4c0,0.9-0.3,1.6-0.8,2.2
				c-0.5,0.6-1.2,0.9-2,0.9c-0.4,0-0.8-0.1-1.2-0.2c-0.4-0.1-0.9-0.3-1.4-0.5c-0.5-0.2-0.9-0.3-1.4-0.4c-0.5-0.1-1-0.2-1.5-0.2
				c-0.9,0-1.7,0.2-2.4,0.7c-0.7,0.5-1,1.1-1,2c0,0.9,0.8,1.6,2.3,2.1c1.5,0.5,3.2,1.1,5,1.7c1.8,0.6,3.4,1.6,4.7,2.8
				c1.3,1.3,1.9,3.1,1.9,5.6c0,1.9-0.5,3.6-1.4,5.1c-1,1.5-2.3,2.6-3.9,3.4c-1.6,0.8-3.4,1.2-5.3,1.2c-2.4,0-4.7-0.3-6.8-1
				c-2.2-0.7-3.3-1.9-3.3-3.6c0-0.8,0.3-1.5,0.8-2.1s1.2-0.8,2-0.8c0.4,0,0.9,0.1,1.3,0.2c0.5,0.1,1.1,0.3,1.9,0.6
				c0.8,0.3,1.4,0.5,2,0.6c0.6,0.1,1.2,0.2,1.8,0.2c0.9,0,1.7-0.2,2.3-0.5c0.6-0.3,1.1-0.7,1.5-1.3c0.3-0.5,0.5-1.2,0.5-1.8
				c0-1.1-0.4-1.7-1.1-2.1c-0.7-0.3-2.4-0.9-5.1-1.7c-2.7-0.8-4.6-1.8-5.8-2.9c-1.2-1.1-1.9-2.7-1.9-4.9c0-1.9,0.5-3.6,1.4-5
				c0.9-1.4,2.2-2.5,3.8-3.3C299.5,23.8,301.2,23.4,303.1,23.4z"/>
		</g>
		<g>
			<g>
				<path d="M171.1,74.3h7.1c1.3,0,2.2,0.3,2.8,1c0.6,0.6,0.9,1.7,0.9,3c0,2-0.3,3.9-0.9,5.6c-0.6,1.7-1.5,3.2-2.7,4.5
					c-1.2,1.3-2.6,2.3-4.3,3c-1.7,0.7-3.6,1.1-5.6,1.1c-2.8,0-5.2-0.7-7.4-2c-2.2-1.3-3.9-3.2-5.1-5.5c-1.2-2.3-1.8-4.9-1.8-7.8
					c0-2.2,0.3-4.2,1-6c0.7-1.9,1.7-3.5,3-4.9c1.3-1.4,2.8-2.5,4.5-3.2c1.7-0.8,3.7-1.1,5.8-1.1c1.5,0,3,0.2,4.4,0.5
					c1.4,0.3,2.6,0.8,3.7,1.3c1,0.6,1.9,1.2,2.4,1.9c0.6,0.7,0.9,1.4,0.9,2.1c0,0.9-0.2,1.6-0.7,2.1c-0.5,0.5-1.1,0.8-1.8,0.8
					c-0.8,0-1.7-0.3-2.7-1c-1-0.7-1.9-1.2-2.7-1.5c-0.7-0.3-1.9-0.5-3.5-0.5c-1.7,0-3.1,0.4-4.3,1.3c-1.2,0.9-2.1,2-2.7,3.5
					c-0.6,1.4-0.9,3-0.9,4.8c0,2.7,0.7,5,2,6.8c1.3,1.8,3.3,2.7,5.8,2.7c1.2,0,2.3-0.2,3.4-0.7c1.1-0.5,2-1.2,2.7-2.2
					c0.7-1,1-2.2,1-3.7h-4.2c-0.9,0-1.6-0.3-2.1-0.8c-0.5-0.5-0.8-1.2-0.8-2.1c0-0.8,0.3-1.5,0.8-2
					C169.6,74.5,170.3,74.3,171.1,74.3z"/>
				<path d="M186.7,80V65.2c0-1,0.3-1.8,0.9-2.4c0.6-0.6,1.3-0.9,2.2-0.9c0.9,0,1.7,0.3,2.3,0.8c0.6,0.6,0.9,1.4,0.9,2.4v14.5
					c0,1.3,0.3,2.4,0.8,3.5c0.5,1,1.3,1.9,2.2,2.5c1,0.6,2.1,0.9,3.4,0.9c1.9,0,3.4-0.7,4.6-2c1.2-1.4,1.8-3,1.8-4.8V65.2
					c0-1,0.3-1.8,0.9-2.4c0.6-0.6,1.3-0.9,2.2-0.9c0.9,0,1.7,0.3,2.3,0.8c0.6,0.6,0.9,1.4,0.9,2.4V80c0,1.7-0.3,3.3-1,4.8
					c-0.7,1.5-1.6,2.8-2.7,3.9c-1.2,1.1-2.5,2-4,2.6c-1.5,0.6-3.2,0.9-4.9,0.9c-2.3,0-4.4-0.5-6.3-1.6c-1.9-1.1-3.5-2.5-4.6-4.4
					C187.2,84.5,186.7,82.4,186.7,80z"/>
				<path d="M216.4,87.8l8.4-22.6c0.4-1,1-1.9,1.8-2.5c0.8-0.6,1.7-0.9,2.7-0.9c1.1,0,2,0.3,2.8,0.9c0.8,0.6,1.3,1.5,1.7,2.5
					l8.2,22.6c0.2,0.6,0.3,1.1,0.3,1.5c0,0.5-0.1,1-0.4,1.4c-0.3,0.4-0.6,0.7-1,1c-0.4,0.2-0.9,0.3-1.4,0.3c-1.5,0-2.6-0.7-3-2.1
					L235,86h-11.6l-1.3,3.9c-0.5,1.5-1.5,2.2-3,2.2c-0.9,0-1.6-0.3-2.2-0.8c-0.6-0.6-0.9-1.2-0.9-2.1
					C216.1,88.8,216.2,88.3,216.4,87.8z M229.2,68.2l-3.9,12.1h7.9L229.2,68.2L229.2,68.2z"/>
				<path d="M246.6,88.8V65.4c0-1,0.3-1.8,0.8-2.4c0.5-0.6,1.3-0.9,2.4-0.9h7.3c3.3,0,5.9,0.8,7.7,2.3c1.8,1.5,2.7,3.9,2.7,7.1
					c0,1.1-0.2,2.1-0.6,3c-0.4,0.9-0.9,1.7-1.7,2.3c-0.7,0.7-1.5,1.2-2.4,1.6c-0.9,0.4-1.9,0.7-3,0.9l7.1,7.6
					c0.5,0.6,0.8,1.2,0.8,1.8c0,0.8-0.3,1.6-0.9,2.2c-0.6,0.6-1.3,1-2.2,1c-1,0-1.8-0.4-2.4-1.1L253,79.8h-0.1v9
					c0,1-0.3,1.8-0.9,2.4c-0.6,0.6-1.3,0.8-2.2,0.8c-0.9,0-1.7-0.3-2.2-0.9C246.9,90.6,246.6,89.8,246.6,88.8z M252.9,67.9v7.4h4.3
					c1.2,0,2.1-0.3,2.8-1c0.7-0.7,1.1-1.6,1.1-2.7c0-1.2-0.4-2.1-1.1-2.7c-0.7-0.6-1.6-1-2.8-1H252.9z"/>
				<path d="M272.3,88.7V65.4c0-0.9,0.3-1.7,0.9-2.3c0.6-0.6,1.4-0.9,2.3-0.9h6.9c2.3,0,4.4,0.4,6.2,1.1c1.8,0.7,3.4,1.7,4.6,3.1
					c1.3,1.3,2.2,2.9,2.8,4.8c0.6,1.9,1,4,1,6.3c0,2.2-0.3,4.1-1,5.9c-0.7,1.8-1.6,3.3-2.9,4.6c-1.3,1.3-2.8,2.2-4.6,2.9
					c-1.8,0.7-3.7,1-5.8,1h-7.2c-0.5,0-1-0.1-1.5-0.3c-0.5-0.2-0.9-0.5-1.3-1C272.5,90.1,272.3,89.4,272.3,88.7z M278.5,67.9v18.1
					h4.2c1.8,0,3.2-0.4,4.4-1.2c1.2-0.8,2-1.8,2.6-3.2c0.6-1.3,0.9-2.9,0.9-4.6c0-1.8-0.3-3.4-0.9-4.8c-0.6-1.4-1.5-2.5-2.7-3.3
					c-1.2-0.8-2.8-1.2-4.6-1.2H278.5z"/>
				<path d="M301,87.8l8.4-22.6c0.4-1,1-1.9,1.8-2.5c0.8-0.6,1.7-0.9,2.7-0.9c1.1,0,2,0.3,2.8,0.9c0.8,0.6,1.3,1.5,1.7,2.5l8.2,22.6
					c0.2,0.6,0.3,1.1,0.3,1.5c0,0.5-0.1,1-0.4,1.4c-0.3,0.4-0.6,0.7-1,1c-0.4,0.2-0.9,0.3-1.4,0.3c-1.5,0-2.6-0.7-3-2.1l-1.2-3.9
					h-11.6l-1.3,3.9c-0.5,1.5-1.5,2.2-3,2.2c-0.9,0-1.6-0.3-2.2-0.8c-0.6-0.6-0.9-1.2-0.9-2.1C300.8,88.8,300.9,88.3,301,87.8z
					 M313.8,68.2l-3.9,12.1h7.9L313.8,68.2L313.8,68.2z"/>
				<path d="M331.3,88.7V65.4c0-0.9,0.3-1.7,0.9-2.3c0.6-0.6,1.4-0.9,2.3-0.9h6.9c2.3,0,4.4,0.4,6.2,1.1c1.8,0.7,3.4,1.7,4.6,3.1
					c1.3,1.3,2.2,2.9,2.8,4.8c0.6,1.9,1,4,1,6.3c0,2.2-0.3,4.1-1,5.9c-0.7,1.8-1.6,3.3-2.9,4.6c-1.3,1.3-2.8,2.2-4.6,2.9
					c-1.8,0.7-3.7,1-5.8,1h-7.2c-0.5,0-1-0.1-1.5-0.3c-0.5-0.2-0.9-0.5-1.3-1C331.4,90.1,331.3,89.4,331.3,88.7z M337.5,67.9v18.1
					h4.2c1.8,0,3.2-0.4,4.4-1.2c1.2-0.8,2-1.8,2.6-3.2c0.6-1.3,0.9-2.9,0.9-4.6c0-1.8-0.3-3.4-0.9-4.8c-0.6-1.4-1.5-2.5-2.7-3.3
					c-1.2-0.8-2.8-1.2-4.6-1.2H337.5z"/>
				<path d="M374.7,92.3c-2.8,0-5.2-0.7-7.4-2c-2.2-1.3-3.9-3.2-5.1-5.5c-1.2-2.3-1.8-4.9-1.8-7.8c0-2.2,0.3-4.2,1-6
					c0.7-1.9,1.7-3.5,3-4.9c1.3-1.4,2.8-2.5,4.5-3.2c1.7-0.8,3.7-1.1,5.8-1.1c2.1,0,4,0.4,5.7,1.2c1.8,0.8,3.3,1.9,4.6,3.3
					c1.3,1.4,2.3,3,3,4.9c0.7,1.9,1.1,3.9,1.1,6c0,2.1-0.3,4.1-1,6c-0.7,1.9-1.7,3.5-3,4.9c-1.3,1.4-2.8,2.5-4.6,3.3
					C378.7,92,376.8,92.3,374.7,92.3z M374.7,86.6c1.3,0,2.4-0.2,3.4-0.8c1-0.5,1.8-1.2,2.5-2.1c0.7-0.9,1.2-1.9,1.5-3.1
					c0.3-1.1,0.5-2.4,0.5-3.6c0-1.7-0.3-3.3-0.9-4.8c-0.6-1.5-1.5-2.6-2.7-3.5c-1.2-0.9-2.6-1.3-4.3-1.3c-1.7,0-3.1,0.4-4.3,1.3
					c-1.2,0.9-2.1,2-2.7,3.5c-0.6,1.4-0.9,3-0.9,4.8c0,2.7,0.7,5,2,6.8C370.2,85.7,372.2,86.6,374.7,86.6z"/>
			</g>
		</g>
		<g>
			<path d="M123.5,79c2.8-2.6,6.8-6.8,8.3-9.3c3.2-5.1,5.1-8.7,5.8-15.7c0.3-3.5,0-6.3-2.7-7.6c-3.8-1.8-6.3,1.9-7.5,4.2
				c-1.2,2.2-2.4,6.3-6.1,11.4c-2,2.8-4.2,4.9-7,6.9c-0.9,0.6-3.3,2.6-4.7,2.6c-1.1,0-3.3-1.6-4.3-2.2c-3.1-2-4.9-3.1-8-5.1
				c-1-0.6-2.7-1.8-3.1-2.9c-0.4-1.3,0.1-3.5,0.1-5.1c0.3-8.1,0.1-12-2.9-18c-5.8-11.2-14.8-13.4-22.4-13C60,25.9,45.2,38,54.7,56.6
				c5.2,10,10.9,12.2,15.4,13.6c1.6,0.5,2.1,0.9,2.2,1.7c-0.1,2.1-6.4,2.8-10.5,0.4c-3.4-1.9-8.1-3.8-13.9-18.7
				c-2.7-6.7-4.9-9.1-7.8-10.5c-6.3-3.2-12.2-1.9-17.9,1.6c-4.8,2.9-9.9,8.6-12.9,14.3C6.4,64.5,4.1,71.8,6,79
				c1.7,6.2,6.5,13,12.8,15.6c7.7,3.3,20.1,1.4,24.5-3.9c3.6-4.4,2.2-14.3-4.6-14.1c-4.7,0.1-6.2,3.8-10.5,2.7
				c-4.6-1.2-4.8-8.4-3.2-12.5c2.1-5.4,4.9-10.8,7.8-11c4.3-0.2,5.7,3.6,6.6,6.1c2.4,6.9,4,10.3,6.2,14.3
				c5.4,10,15.3,11.6,20.1,11.6c7.8,0.1,11.7-2.5,15.4-6c1.8-1.7,3-3.3,5.8-2.3c1.7,0.6,5.6,2.8,7.2,3.6c1.4,0.7,0.2,2.4-0.2,3.2
				c-1.5,2.9-5.7,10.4-0.4,24.9c4.1,11.4,19,18.7,30.8,12.8c4.4-2.2,8.3-6.6,9.5-11.6c1.6-7.1-1.1-14.2-3.7-18.2
				c-2.1-3.2-7.6-11.1-7.9-11.9C121.3,80.9,122.7,79.7,123.5,79z M81.2,58.9c-8-1.5-17.5-6.8-16.3-15.1c0.8-5.2,6.8-6.5,9.9-5.4
				C80.1,40.3,83.5,51.1,81.2,58.9z M115.8,111.2c-12.1,2.7-12.3-22.6-5.1-20c4.2,1.3,9.5,8.5,9.3,13.8
				C120,107.3,119.5,110.4,115.8,111.2z"/>
			<path d="M34.3,37.1c5.8-2.1,7.7-8.7,5.3-15.3c-2.4-6.5-9.3-9.3-15.1-7.1c-5.8,2.1-8.4,8.4-6,14.9C21,36.1,28.5,39.2,34.3,37.1z"
				/>
			<path d="M77.2,22.4c7,2.3,12.5,0.4,15-6.1c2.6-6.6-0.8-13.2-8-15.6c-6.5-2.1-13.4,1-15.1,6.7C67.4,13.5,70.3,20.1,77.2,22.4z"/>
			<path d="M105,60.8c6.8,3.1,11.6,1.7,14.2-3c2.9-5.4,0.9-11.4-4.6-14.3c-5.6-3-11.6-1.3-14.2,3.4C97.7,51.6,99.5,58.3,105,60.8z"
				/>
		</g>
	</g>
</g>
<g id="guias" class="st0">
</g>
</svg>
