<?xml version="1.0" encoding="utf-8"?>
<!-- Generator: Adobe Illustrator 25.0.0, SVG Export Plug-In . SVG Version: 6.00 Build 0)  -->
<svg version="1.1" id="Capa_1" xmlns="http://www.w3.org/2000/svg" xmlns:xlink="http://www.w3.org/1999/xlink" x="0px" y="0px"
	 viewBox="0 0 711.75 290.96" style="enable-background:new 0 0 711.75 290.96;" xml:space="preserve">
<g>
	<path d="M222.61,178.88c13.02,0,23.62-10.59,23.62-23.61c0-13-10.6-23.61-23.62-23.61c-13.02,0-23.61,10.6-23.61,23.61
		C199,168.29,209.59,178.88,222.61,178.88 M222.61,139.98c8.45,0,15.32,6.85,15.32,15.29c0,8.45-6.87,15.31-15.32,15.31
		c-8.44,0-15.29-6.86-15.29-15.31C207.32,146.84,214.17,139.98,222.61,139.98"/>
	<path d="M70.81,178.88c13.01,0,23.6-10.59,23.6-23.61c0-13-10.59-23.61-23.6-23.61c-13.02,0-23.61,10.6-23.61,23.61
		C47.2,168.29,57.79,178.88,70.81,178.88 M70.81,139.98c8.43,0,15.31,6.85,15.31,15.29c0,8.45-6.87,15.31-15.31,15.31
		c-8.45,0-15.31-6.86-15.31-15.31C55.5,146.84,62.36,139.98,70.81,139.98"/>
	<path d="M145,6.62C67.49,6.62,4.44,69.67,4.44,147.18c0,77.49,63.05,140.54,140.57,140.54c77.51,0,140.57-63.05,140.57-140.54
		C285.57,69.67,222.52,6.62,145,6.62 M145,37.31c60.58,0,109.86,49.28,109.86,109.87c0,9.54-1.23,18.8-3.52,27.63
		c-14.07,5.46-30.14,8.54-47.03,8.54c-18.7,0-36.17-3.67-50.89-10c21.5-13.37,35.09-32.9,35.09-54.63
		c0-15.35-12.49-27.86-27.85-27.86c-5.81,0-11.42,1.82-16.11,5.15c-4.68-3.34-10.29-5.15-16.1-5.15
		c-15.34,0-27.84,12.51-27.84,27.86c0,21.72,13.59,41.26,35.09,54.63c-14.73,6.33-32.19,10-50.9,10c-16.45,0-32.15-2.85-45.99-8.02
		c-2.39-8.99-3.67-18.42-3.67-28.15C35.14,86.59,84.42,37.31,145,37.31 M134.54,109.4c-0.42,1.12-0.68,2.36-0.68,3.64
		c0,5.93,4.82,10.74,10.74,10.74c5.93,0,10.74-4.81,10.74-10.74c0-1.3-0.26-2.54-0.69-3.69l0.05-0.01c-0.05-0.14-0.13-0.28-0.17-0.4
		c-0.02-0.07-0.04-0.09-0.06-0.13c-0.94-2.46-2.24-4.77-3.83-6.84c3.02-1.82,6.47-2.78,10.04-2.78c10.77,0,19.56,8.77,19.56,19.54
		c0,20.32-13.94,38.49-35.67,50.32c-21.72-11.84-35.65-30-35.65-50.32c0-10.77,8.77-19.54,19.55-19.54c3.57,0,7.02,0.96,10.04,2.78
		c-1.71,2.24-3.11,4.7-4.08,7.38L134.54,109.4z M142.15,113.04c0-1.36,1.1-2.45,2.44-2.45c1.36,0,2.45,1.09,2.45,2.45
		c0,1.35-1.09,2.45-2.45,2.45C143.25,115.49,142.15,114.4,142.15,113.04 M97.6,246.27c2.09-9.37,5.08-18.3,9.36-26.27
		c0.36-0.37,0.65-0.81,0.87-1.3c5.75-13.6,18.97-22.37,33.74-22.37c20.15,0,36.55,16.36,36.61,36.47
		c-0.08,1.14-0.91,10.47-4.41,20.39c-9.17,2.49-18.81,3.85-28.76,3.85C128.04,257.03,111.96,253.16,97.6,246.27 M183.51,250.05
		c2.41-8.9,2.92-16.11,2.96-16.86c0.02-0.09,0.03-0.16,0.03-0.24c0-24.78-20.16-44.92-44.93-44.92c-17.3,0-32.87,9.87-40.38,25.3
		c-0.01,0.01-0.01,0.02-0.03,0.03c-5.1,8.75-8.68,18.55-11.2,28.82C68,229.42,50.83,209.28,41.91,185.16l0.61,0.22
		c13.07,4.08,27.41,6.25,42.28,6.25c22.25,0,42.84-4.95,59.75-13.36c16.9,8.4,37.52,13.36,59.77,13.36
		c15.51,0,30.43-2.48,43.94-6.93C237.28,214.81,213.49,238.79,183.51,250.05"/>
	<path d="M379.01,122.35c2.55-9.17,3.48-18.81,5.57-28.22c0.35-1.62,0.93-2.44,2.32-2.44c4.41,0.23,9.41,0.58,13.36,0.58
		c3.25,0,6.73-0.46,9.98-0.46c5.57,0,6.39,25.08,6.85,28.21c1.62,11.26,1.62,23.8,1.62,35.65c0,10.45-0.46,20.79-0.46,31.12
		c0,5.46,0.35,11.03,0.35,16.6c0,3.02-0.23,6.74-3.71,6.74c-2.79,0-5.57-1.39-8.71-1.39c-2.44,0-4.18-0.47-4.18-4.41
		c-0.58-10.34-1.16-21.13-1.16-31.24c0-4.53,0.35-9.17,0.35-13.7c0-2.44-0.23-4.88-0.23-7.43v-6.62c0-6.15,0.12-20.2-2.09-22.41
		c-3.13,4.64-3.83,14.51-4.99,18.23c-2.44,8.24-3.25,26.71-9.17,27.29c-6.39,0.7-12.89,0.47-19.28,0.47
		c-2.09-0.47-2.79-10.57-3.83-15.79c-2.44-12.08-5.58-25.08-10.34-36.35c-0.12-0.23-0.47-0.58-0.81-0.93
		c-0.81,1.74-0.69,3.6-0.69,5.57c0,5.81,0.69,12.43,0.69,18c0,11.15-0.93,22.29-0.93,33.33c0,2.67,0.35,5.34,0.35,8.01
		c0,3.14-0.35,6.39-0.35,9.52c0,3.48,0.23,6.97,0.47,10.33c0,2.21-0.35,4.3-3.25,4.3c-3.95,0-7.32,1.62-11.26,1.62
		c-3.72,0-2.79-7.43-2.79-11.15c0-8.48,1.27-16.72,1.27-25.2v-2.55c0-2.21,0.12-4.3,0.12-6.39c0-6.27-0.93-11.5-0.93-17.42v-1.39
		c0-6.97-0.58-14.86-0.58-22.29c0-12.66-1.62-26.36,7.2-27.41c4.3-0.47,8.94-0.93,13.24-0.93c5.11,0,6.15-0.47,8.82,10.1
		c3.25,11.84,7.32,23.92,11.84,35.18c0.23,0.58,0.58,1.28,1.4,1.63C377.38,137.57,378.19,125.14,379.01,122.35"/>
	<path d="M472.01,157.54c7.31,0,5.34,9.99,6.39,14.63c0.35,3.14,0.58,6.15,0.58,9.29c0,9.75,1.16,19.39-6.97,25.2
		c-5.23,2.79-10.8,6.5-18.11,6.5c-14.51,0-22.06-0.23-25.43-24.73c-0.35-2.32-0.58-4.65-0.58-6.97v-1.28
		c0-17.77-1.62-34.25-1.62-45.29c0-0.58,0.11-1.05,0.11-1.62c0-1.28-0.35-2.56-0.35-3.72c0-4.88,1.28-9.87,1.39-14.75
		c0.35-13.35,4.76-21.13,21.48-23.69c1.97-0.7,6.04-0.23,8.59-0.23c12.43,0,22.41,6.85,22.41,29.73c0,2.56-1.39,3.48-4.99,3.48
		c-1.4,0-2.79-0.12-4.18-0.12h-4.3c-4.64,0-5.46-0.23-5.46-13.12c0-3.14-2.9-5.69-6.15-5.69c-8.71,0-11.26,1.74-11.26,14.51
		c0,12.19,0.81,24.97,0.81,37.5c0,3.25-0.35,6.5-0.35,9.64c0,13.7-1.97,30.31,9.52,30.31c7.2,0,9.64-2.44,9.64-14.28
		c0-9.64,0.58-6.85-11.03-9.41c-3.95-0.81-2.09-5.81-3.6-10.8c-0.12-0.35-0.12-0.7-0.12-1.05c0-5.81,15.33-3.83,14.52-3.83v0.12
		C465.98,157.77,468.99,157.54,472.01,157.54"/>
	<path d="M486.64,142.68c0-11.73,0.81-23.22,1.51-34.72c1.39-14.17,6.62-18.46,18.46-18.46c6.85,0,17.42,0.46,21.48,3.71
		c3.95,3.14,8.82,5.92,10.22,11.03c2.32,8.71,2.09,18.11,2.09,27.87c0,4.64-0.58,9.87-0.58,14.86c0,1.62,0.12,3.14,0.12,4.76
		c0,15.33,0.58,31.58-0.81,46.45c0,1.62-0.58,4.29-2.55,4.29c-6.39,0-15.44,1.74-15.44-3.13c0-2.09,0.12-4.18,0.12-6.27
		c0-6.39,1.16-16.26-3.37-16.26c-3.83,0-7.78,0.12-11.61,0.12c-0.35,0-0.81-0.12-1.16-0.12c-2.21,0.23-2.09,1.86-2.09,4.53
		c0,7.66,0.81,17.07,2.32,23.8v0.93c0,3.6-8.13,3.25-12.43,3.6c-3.14,0-4.53-0.12-4.53-4.53c-0.58-8.59-0.69-17.19-0.69-25.78
		C487.34,167.18,486.99,155.22,486.64,142.68 M522.17,132.11c0-7.55-0.58-24.39-5.11-25.89c-1.74-0.58-3.83-1.05-5.69-1.05
		c-8.59,0-8.13,15.1-8.13,28.57v4.29c0,6.62-0.35,13.36-0.35,20.44c0,1.04,0.35,2.32,1.62,2.32c2.79,0,5.46-0.7,8.13-0.7h0.93
		c8.36,0,8.71,1.98,8.71-18.69C521.82,139.54,522.17,135.24,522.17,132.11"/>
	<path d="M585.45,175.19c0-7.31-1.04-11.38-6.62-11.38h-1.39c-3.72,0-7.43-0.93-11.26-0.93h-1.16c-12.08,0-14.51-12.89-16.84-22.18
		c-1.16-3.37-1.4-12.77-1.4-15.79c0-3.6,0.7-7.2,0.7-11.03v-0.93c0-14.98,11.96-20.09,25.66-20.09h4.18h1.74
		c12.77,0,22.76,4.88,22.76,22.41v0.7c0,3.02,0.47,6.27,0.47,9.29c0,2.79-0.81,4.06-5.22,4.06c-1.16,0-2.32-0.12-3.48-0.12
		c-1.97,0-3.95,0.23-5.92,0.23c-1.39,0-2.21-0.81-2.21-2.21c0-2.44,0.93-5.22,0.93-7.66c0-6.27-4.18-10.45-12.07-10.45
		c-11.38,0-9.64,28.68-9.64,29.49c0,7.66,7.78,7.55,12.89,7.9c1.86,0,3.95-0.58,4.64-0.58c14.63,0,17.53,7.55,19.51,16.84
		c0.7,3.48,1.16,6.74,1.16,10.22c0,1.62-0.12,3.37-0.12,4.99c0,2.79,0.35,5.69,0.35,8.48c0,13.58-2.9,24.73-21.48,28.22
		c-0.58,0.12-1.16,0.23-1.74,0.23c-13.01,0-27.64-4.64-29.03-22.41c-0.35-3.6-0.7-7.31-0.7-11.03c0.23-3.72,7.43-3.48,11.5-4.06
		c2.32,0,4.29,0.35,4.29,4.18c0,1.16-0.35,2.32-0.35,3.48c0,6.73,3.95,12.77,9.98,12.77c9.29,0,10.1-4.88,10.1-17.42h-0.23V175.19z"
		/>
	<path d="M615.17,207.35c-5.57,0-5.11-5.57-5.11-15.33c0-2.32,0.7-3.6,3.37-3.6c6.04,0.47,13.82-0.7,13.82,3.95
		c0,1.63,0.23,3.37,0.12,5.69C626.78,205.26,629.34,207.35,615.17,207.35"/>
	<path d="M669.07,178.4c0,8.92-0.77,18.67-1.95,27.31c-0.21,1.18-0.63,1.67-1.81,1.67c-3.76,0-6.41,0.63-6.41-2.86
		c0-1.32,0.21-2.72,0.14-4.04c-0.21-2.3-0.28-4.6-0.28-6.9v-3.34v-2.16c0-2.02,0.21-4.04,0.21-6.13c0-1.74-0.21-2.44-1.46-2.44
		c-4.53,0-10.17-0.42-10.17,2.16c0.21,6.27,0.28,12.47,0.83,18.67c0.21,1.18,0.91,2.23,0.91,3.41c0,2.58-0.49,3.21-2.79,3.21
		c-3.34,0-8.01,0.28-8.01-2.16c0-3.13-0.28-6.27-0.28-9.33c0-1.81,0.35-3.62,0.35-5.44c0-1.88-0.14-3.83-0.14-5.71
		c0.14-5.29,0.14-10.73,0.28-16.09c0-1.46-0.07-2.86-0.07-4.32c0-1.67,0.28-3.42,0.28-5.09c0-0.84-0.14-1.67-0.14-2.51
		c0-8.15-0.07-18.81,11.91-18.81c10.52,0,18.6,4.46,18.6,17.35c0,4.32,0.07,8.57-0.07,12.82C669,171.36,669.07,174.91,669.07,178.4
		 M654.09,145.8c-7.18,0-6.97,5.36-6.97,15.95c0,0.77,0.14,1.67,0.14,2.65c0,1.18-0.21,2.44-0.21,3.55c0,1.12,0.62,1.33,1.53,1.33
		c1.74,0,3.55-0.21,5.36-0.21c1.12,0,2.16,0.07,3.14,0.07c2.86,0,1.88-4.32,2.02-6.9c0.07-1.6,0.21-3.27,0.28-4.74
		C659.25,152.41,659.73,145.8,654.09,145.8"/>
	<path d="M686.96,171.01c0,5.36-0.63,10.94-0.84,15.88c0,5.15-1.12,12.54,4.6,12.54c4.67,0,7.1-0.9,7.1-6.55
		c0-1.74-0.35-3.48-0.35-5.16c0-1.81,5.78-1.95,8.36-1.95c1.19,0,1.32,1.53,1.32,3.97c0,6.76,0,18.81-15.32,18.81
		c-10.1,0-13.65-5.71-13.65-17c0-0.77,0.07-1.46,0.07-2.23c0-4.53-0.77-9.26-0.77-13.58c0-4.04,0.77-9.82,0.77-13.17
		c0-0.49-0.07-0.97-0.07-1.46c0.14-3.62,0.35-7.66,0.35-11.28c0-0.7-0.07-1.46-0.07-2.16c0-4.67,1.53-11.91,8.29-12.4
		c1.32-0.07,2.58-0.14,3.9-0.21c0.77,0,1.81,0.21,2.58,0.21h0.35c6.76,0,13.3,4.6,13.65,13.37c0,3.27-0.21,6.55-0.21,9.75
		c-0.14,1.25-0.7,1.6-2.02,1.6c-0.9-0.21-1.81-0.21-2.72-0.21h-2.79c-1.25-0.14-1.53-0.7-1.53-2.16c0-0.7,0.07-1.4,0.07-2.09
		c0-4.53-0.9-9.54-5.64-9.54c-6.83,0.42-5.85,6.06-5.85,11.29h0.07C686.62,162.03,686.96,166.41,686.96,171.01"/>
	<path d="M332.44,46.25c0-1.15,0.39-2.11,1.17-2.89c0.78-0.78,1.73-1.17,2.85-1.17h11.99c1.15,0,2.11,0.39,2.87,1.17
		c0.76,0.78,1.14,1.73,1.14,2.85c0,1.12-0.38,2.08-1.14,2.87c-0.76,0.79-1.72,1.19-2.87,1.19h-7.93v5.28h7.93
		c1.15,0,2.11,0.39,2.87,1.17c0.76,0.78,1.14,1.73,1.14,2.85c0,1.15-0.38,2.11-1.14,2.89c-0.76,0.78-1.72,1.17-2.87,1.17h-7.93v9.94
		c0,1.15-0.39,2.11-1.17,2.87c-0.78,0.76-1.73,1.14-2.85,1.14c-1.12,0-2.08-0.38-2.87-1.14c-0.79-0.76-1.19-1.72-1.19-2.87V46.25z"
		/>
	<path d="M375.29,73.32c0,1.49-0.37,2.58-1.12,3.24c-0.75,0.67-1.65,1-2.71,1c-0.5,0-0.96-0.06-1.38-0.19
		c-0.42-0.12-0.8-0.36-1.15-0.7c-0.65,0.34-1.34,0.57-2.05,0.7c-0.71,0.12-1.42,0.19-2.1,0.19c-3.33,0-5.91-0.9-7.75-2.71
		c-1.84-1.8-2.75-4.37-2.75-7.7v-9.01c0-1.56,0.37-2.68,1.09-3.39c0.73-0.7,1.63-1.05,2.68-1.05c1.09,0,2,0.35,2.73,1.05
		c0.73,0.7,1.1,1.83,1.1,3.39v8.91c0,0.81,0.28,1.49,0.84,2.05c0.56,0.56,1.24,0.84,2.05,0.84c0.75,0,1.4-0.25,1.96-0.75
		c0.56-0.5,0.87-1.12,0.93-1.87v-9.19c0-1.49,0.37-2.61,1.12-3.36c0.75-0.74,1.62-1.12,2.61-1.12c1.12,0,2.03,0.32,2.73,0.98
		c0.7,0.65,1.08,1.82,1.15,3.5V73.32z"/>
	<path d="M379.26,57.74c0-1.49,0.37-2.58,1.12-3.24c0.75-0.67,1.66-1,2.75-1c0.96,0,1.77,0.31,2.43,0.93
		c0.65-0.34,1.34-0.58,2.05-0.72c0.72-0.14,1.43-0.21,2.15-0.21c3.33,0,5.91,0.9,7.75,2.71c1.84,1.8,2.75,4.37,2.75,7.7v9.01
		c0,1.55-0.36,2.68-1.09,3.38c-0.73,0.7-1.61,1.05-2.64,1.05c-1.09,0-2.01-0.35-2.76-1.05c-0.75-0.7-1.12-1.83-1.12-3.38v-8.92
		c0-0.81-0.28-1.49-0.84-2.05c-0.56-0.56-1.24-0.84-2.05-0.84c-0.75,0-1.4,0.25-1.96,0.77c-0.56,0.51-0.87,1.14-0.93,1.89v9.15
		c0,1.49-0.37,2.61-1.12,3.36c-0.75,0.75-1.62,1.12-2.61,1.12c-1.12,0-2.03-0.32-2.73-0.98c-0.7-0.65-1.08-1.8-1.14-3.45V57.74z"/>
	<path d="M426.63,73c0,1.34-0.34,2.4-1.03,3.2c-0.68,0.79-1.62,1.21-2.8,1.24c-1.06,0-1.96-0.37-2.71-1.12
		c-0.78,0.37-1.63,0.68-2.57,0.91c-0.93,0.23-1.93,0.35-2.99,0.35c-1.65,0-3.2-0.31-4.67-0.93c-1.46-0.62-2.74-1.48-3.83-2.57
		c-1.09-1.09-1.96-2.37-2.59-3.83c-0.64-1.46-0.96-3.02-0.96-4.67c0-1.65,0.32-3.2,0.96-4.67c0.64-1.46,1.5-2.74,2.59-3.83
		c1.09-1.09,2.36-1.94,3.83-2.57c1.46-0.62,3.02-0.93,4.67-0.93c0.84,0,1.62,0.06,2.33,0.19c0.72,0.12,1.43,0.34,2.15,0.65v-5.6
		c0-1.55,0.37-2.69,1.1-3.41c0.73-0.71,1.62-1.07,2.68-1.07c1.34,0,2.31,0.4,2.92,1.19c0.6,0.79,0.91,1.89,0.91,3.29V73z
		 M410.06,65.58c0,1.31,0.43,2.38,1.28,3.22c0.86,0.84,1.92,1.26,3.2,1.26s2.33-0.42,3.17-1.26c0.84-0.84,1.26-1.91,1.26-3.22
		c0-1.31-0.42-2.38-1.26-3.22c-0.84-0.84-1.9-1.26-3.17-1.26s-2.34,0.42-3.2,1.26C410.49,63.19,410.06,64.27,410.06,65.58"/>
	<path d="M429.8,65.53c0-1.65,0.32-3.2,0.96-4.67c0.64-1.46,1.5-2.74,2.59-3.83c1.09-1.09,2.36-1.95,3.8-2.59
		c1.45-0.64,2.99-0.96,4.64-0.96c1.96,0,3.81,0.43,5.55,1.31c0.68-0.78,1.6-1.17,2.76-1.17h0.37c1.28,0.12,2.17,0.64,2.66,1.54
		c0.5,0.9,0.75,1.88,0.75,2.94V73c0,0.56-0.07,1.1-0.21,1.63c-0.14,0.53-0.35,1-0.63,1.42c-0.28,0.42-0.65,0.76-1.1,1
		c-0.45,0.25-0.97,0.37-1.56,0.37h-0.28c-1.15,0-2.07-0.37-2.76-1.12c-0.81,0.44-1.69,0.76-2.64,0.96c-0.95,0.2-1.92,0.3-2.92,0.3
		c-1.65,0-3.2-0.32-4.64-0.96c-1.45-0.64-2.72-1.5-3.8-2.59c-1.09-1.09-1.95-2.37-2.59-3.83C430.12,68.74,429.8,67.18,429.8,65.53
		 M437.36,65.53c0,1.31,0.43,2.39,1.28,3.24c0.85,0.86,1.9,1.29,3.15,1.29c1.3,0,2.38-0.43,3.22-1.29c0.84-0.85,1.26-1.93,1.26-3.24
		c0-1.31-0.42-2.39-1.26-3.24c-0.84-0.85-1.92-1.28-3.22-1.28c-1.24,0-2.3,0.43-3.15,1.28C437.79,63.14,437.36,64.22,437.36,65.53"
		/>
	<path d="M468.4,53.49c1.03,0,2.02,0.14,2.99,0.42c0.96,0.28,1.88,0.66,2.75,1.14c0.87,0.48,1.66,1.04,2.36,1.68
		c0.7,0.64,1.3,1.31,1.8,2.03c0.16,0.25,0.29,0.56,0.42,0.91c0.12,0.36,0.19,0.8,0.19,1.33c0,0.99-0.32,1.79-0.96,2.38
		c-0.64,0.59-1.46,0.89-2.45,0.89h-0.3c-0.11,0-0.21-0.02-0.3-0.05c-0.62-0.09-1.14-0.28-1.54-0.56c-0.41-0.28-0.79-0.59-1.17-0.93
		c-0.44-0.4-0.93-0.78-1.47-1.12c-0.54-0.34-1.3-0.51-2.26-0.51c-0.62,0-1.2,0.12-1.73,0.35c-0.53,0.23-0.99,0.55-1.37,0.93
		c-0.39,0.39-0.7,0.86-0.94,1.4c-0.23,0.54-0.35,1.11-0.35,1.7c0,0.62,0.12,1.21,0.35,1.75c0.24,0.55,0.55,1.02,0.94,1.43
		c0.39,0.4,0.84,0.72,1.37,0.96c0.53,0.23,1.1,0.35,1.73,0.35c0.84,0,1.57-0.21,2.19-0.63c0.62-0.42,1.23-1.03,1.82-1.84
		c0.25-0.34,0.61-0.71,1.07-1.1c0.47-0.39,1.14-0.58,2.01-0.58h0.4c0.14,0,0.29,0.02,0.44,0.05c1.03,0.19,1.78,0.61,2.27,1.26
		c0.48,0.65,0.72,1.43,0.72,2.33c0,0.56-0.09,1.04-0.28,1.45c-1.02,1.99-2.48,3.6-4.36,4.83c-1.88,1.23-3.99,1.84-6.32,1.84
		c-1.68,0-3.25-0.31-4.71-0.93c-1.46-0.62-2.75-1.49-3.85-2.59c-1.11-1.11-1.97-2.39-2.59-3.85c-0.62-1.46-0.94-3.03-0.94-4.71
		c0-1.65,0.31-3.2,0.94-4.67c0.62-1.46,1.48-2.74,2.59-3.83c1.1-1.09,2.39-1.94,3.85-2.57C465.15,53.8,466.72,53.49,468.4,53.49"/>
	<path d="M482.4,49.15c0-1.03,0.37-1.92,1.12-2.68c0.75-0.76,1.65-1.14,2.71-1.14c0.5,0,0.98,0.1,1.45,0.3
		c0.47,0.2,0.88,0.48,1.24,0.84c0.36,0.36,0.64,0.77,0.84,1.24c0.2,0.47,0.31,0.95,0.31,1.45c0,1.06-0.38,1.96-1.15,2.71
		c-0.76,0.75-1.65,1.12-2.68,1.12c-1.06,0-1.96-0.37-2.71-1.12C482.77,51.11,482.4,50.21,482.4,49.15 M482.4,58.34
		c0-1.55,0.36-2.69,1.1-3.41c0.73-0.71,1.64-1.07,2.73-1.07c1.06,0,1.95,0.36,2.68,1.07c0.73,0.72,1.1,1.85,1.1,3.41v14.61
		c0,1.55-0.37,2.68-1.1,3.38c-0.73,0.7-1.63,1.05-2.68,1.05c-1.09,0-2-0.35-2.73-1.05c-0.73-0.7-1.1-1.83-1.1-3.38V58.34z"/>
	<path d="M492.71,65.48c0-1.65,0.31-3.2,0.93-4.67c0.62-1.46,1.48-2.74,2.57-3.83c1.09-1.09,2.36-1.94,3.82-2.57
		c1.46-0.62,3.04-0.93,4.72-0.93c1.65,0,3.2,0.31,4.67,0.93c1.46,0.62,2.74,1.48,3.83,2.57c1.09,1.09,1.94,2.36,2.57,3.83
		c0.62,1.46,0.93,3.02,0.93,4.67c0,1.68-0.31,3.25-0.93,4.71c-0.62,1.46-1.48,2.75-2.57,3.85c-1.09,1.1-2.36,1.97-3.83,2.59
		c-1.46,0.62-3.02,0.93-4.67,0.93c-1.68,0-3.25-0.31-4.72-0.93c-1.46-0.62-2.74-1.49-3.82-2.59c-1.09-1.11-1.95-2.39-2.57-3.85
		C493.02,68.73,492.71,67.16,492.71,65.48 M505.55,43.17c0.78-0.31,1.4-0.47,1.87-0.47c0.43,0,0.84,0.11,1.21,0.33
		c0.37,0.22,0.7,0.49,0.98,0.82c0.28,0.33,0.5,0.69,0.65,1.09c0.16,0.4,0.23,0.79,0.23,1.17c0,1.65-0.75,2.74-2.24,3.27l-4.62,1.77
		c-0.19,0.06-0.34,0.12-0.47,0.16c-0.12,0.05-0.23,0.08-0.33,0.12c-0.16,0.09-0.27,0.15-0.35,0.16c-0.08,0.02-0.19,0.02-0.35,0.02
		h-0.42c-0.44,0-0.84-0.12-1.21-0.35c-0.38-0.23-0.69-0.53-0.96-0.89c-0.26-0.36-0.47-0.77-0.63-1.24c-0.16-0.47-0.24-0.93-0.24-1.4
		c0-0.47,0.14-0.92,0.42-1.35c0.28-0.44,0.68-0.78,1.21-1.03l0.33-0.19L505.55,43.17z M500.37,65.48c0,1.24,0.42,2.29,1.26,3.15
		c0.84,0.86,1.88,1.28,3.13,1.28c0.59,0,1.16-0.12,1.71-0.35c0.54-0.23,1.01-0.55,1.4-0.93c0.39-0.39,0.7-0.86,0.93-1.4
		c0.23-0.54,0.35-1.13,0.35-1.75c0-0.59-0.12-1.16-0.35-1.7c-0.23-0.55-0.55-1.01-0.93-1.4c-0.39-0.39-0.86-0.7-1.4-0.93
		c-0.55-0.23-1.12-0.35-1.71-0.35c-1.24,0-2.29,0.43-3.13,1.28C500.79,63.23,500.37,64.27,500.37,65.48"/>
	<path d="M519.64,57.74c0-1.49,0.37-2.58,1.12-3.24c0.75-0.67,1.67-1,2.76-1c0.96,0,1.77,0.31,2.43,0.93
		c0.65-0.34,1.34-0.58,2.05-0.72c0.71-0.14,1.43-0.21,2.15-0.21c3.33,0,5.91,0.9,7.75,2.71c1.83,1.8,2.75,4.37,2.75,7.7v9.01
		c0,1.55-0.37,2.68-1.09,3.38c-0.73,0.7-1.61,1.05-2.64,1.05c-1.09,0-2.01-0.35-2.76-1.05c-0.75-0.7-1.12-1.83-1.12-3.38v-8.92
		c0-0.81-0.28-1.49-0.84-2.05c-0.56-0.56-1.24-0.84-2.05-0.84c-0.75,0-1.4,0.25-1.96,0.77c-0.56,0.51-0.87,1.14-0.93,1.89v9.15
		c0,1.49-0.37,2.61-1.12,3.36c-0.75,0.75-1.62,1.12-2.61,1.12c-1.12,0-2.03-0.32-2.73-0.98c-0.7-0.65-1.08-1.8-1.15-3.45V57.74z"/>
	<path d="M344.48,226.49c0.6-0.29,1.02-0.44,1.24-0.44c0.22,0,0.54,0.19,0.95,0.57c0.52,0.41,1.15,1.71,1.89,3.88
		c0.74,2.17,1.13,3.81,1.16,4.91c0,0.97,0.55,3.54,1.65,7.7c0.34,1.31,0.57,2.67,0.67,4.08c0.07,0.96,0.07,1.64,0,2.02
		c-0.07,0.38-0.26,0.86-0.57,1.45c-0.14,0.31-0.41,0.92-0.83,1.84c-0.41,0.91-0.8,1.74-1.16,2.48c-0.36,0.74-0.66,1.28-0.9,1.63
		c-0.45,0.59-1.11,1.07-1.99,1.45c-0.88,0.38-1.8,0.57-2.77,0.57c-0.9,0-1.71-0.19-2.43-0.57c-0.72-0.38-1.76-1.17-3.1-2.38
		c-1-0.9-2.1-1.74-3.31-2.53c-0.9-0.55-1.45-0.96-1.65-1.24c-0.21-0.27-0.41-0.83-0.62-1.65c-0.55-1.96-0.29-3.37,0.78-4.24
		c0.72-0.55,1.33-0.7,1.81-0.44c0.48,0.26,1.05,1.01,1.71,2.25c0.62,1.24,1.71,2.5,3.28,3.77c1.57,1.28,2.8,1.91,3.7,1.91
		c0.96,0,1.64-0.6,2.02-1.81c0.38-1.21,0.59-3.31,0.62-6.31c0-2.03-0.09-3.53-0.26-4.5c-0.17-0.97-0.74-3.1-1.71-6.41
		c-1.21-4.17-1.67-6.53-1.39-7.08C343.48,227.09,343.88,226.78,344.48,226.49"/>
	<path d="M353.4,229.67c0.45-0.24,0.78-0.34,0.98-0.28c0.21,0.05,0.5,0.27,0.88,0.64c0.34,0.38,0.55,0.86,0.62,1.45
		c0.07,0.59,0.15,2.31,0.26,5.17c0.07,2.03,0.13,3.56,0.18,4.57c0.05,1.02,0.15,1.85,0.28,2.51c0.14,0.65,0.29,1.06,0.47,1.22
		c0.17,0.15,0.43,0.23,0.78,0.23c0.34,0,0.8-0.27,1.37-0.8c0.57-0.53,0.99-1.08,1.27-1.63c0.2-0.41,0.31-1.68,0.31-3.8
		c0-2.12-0.1-3.49-0.31-4.11c-0.21-0.59-0.54-1.22-0.98-1.91c-0.35-0.52-0.55-1.12-0.62-1.81c-0.07-0.69,0.03-1.17,0.31-1.45
		c0.27-0.28,0.72-0.39,1.34-0.34c0.62,0.05,1.09,0.23,1.4,0.54c0.31,0.31,0.78,1.07,1.4,2.28c0.59,1.17,0.96,2.72,1.14,4.65
		c0.17,1.76,0.17,3.42,0,4.99c-0.17,1.57-0.48,2.71-0.93,3.44c-1.41,2.21-3.79,3.72-7.13,4.55l-1.45,0.36l-0.62-0.88
		c-0.55-0.72-0.89-1.28-1.01-1.65c-0.12-0.38-0.23-1.19-0.34-2.43c-0.48-5.03-0.78-9.22-0.88-12.56
		C352.04,231.1,352.47,230.12,353.4,229.67"/>
	<path d="M375.42,233.19c0.76-0.34,1.41-0.49,1.96-0.44c0.55,0.05,0.93,0.3,1.14,0.75c0.27,0.59,1.05,4,2.33,10.23
		c0.45,2.14,0.66,3.62,0.65,4.44c-0.02,0.83-0.25,1.69-0.7,2.58c-0.72,1.45-1.74,2.17-3.05,2.17c-0.52,0-0.83-0.05-0.95-0.16
		c-0.12-0.1-0.22-0.48-0.29-1.14c-0.14-0.9-0.08-1.93,0.15-3.1c0.35-1.86,0.1-4.24-0.72-7.13c-0.28-0.93-0.55-1.58-0.83-1.94
		c-0.28-0.36-0.57-0.44-0.88-0.23c-0.34,0.21-0.96,1.22-1.86,3.05c-0.9,1.83-1.5,3.29-1.81,4.39c-0.34,1.24-0.78,2.14-1.32,2.69
		c-0.53,0.55-1.21,0.83-2.04,0.83c-0.72,0-1.27-0.19-1.65-0.57c-0.28-0.28-0.43-0.55-0.47-0.83c-0.03-0.28-0.02-0.86,0.05-1.76
		c0.1-1.1,0.06-2.29-0.13-3.57c-0.19-1.27-0.3-2.26-0.34-2.95c-0.07-1.17-0.06-1.9,0.02-2.17c0.09-0.28,0.36-0.6,0.8-0.98
		c0.48-0.45,1.01-0.71,1.58-0.78c0.57-0.07,0.99,0.05,1.26,0.36c0.21,0.31,0.36,0.83,0.47,1.55c0.1,0.72,0.26,1.09,0.47,1.09
		c0.21-0.03,0.59-0.47,1.14-1.29c0.59-1,1.4-2.02,2.46-3.08C373.91,234.18,374.76,233.5,375.42,233.19"/>
	<path d="M388.86,224.66c0.31-0.21,0.67-0.31,1.09-0.31c0.62,0,1,0.35,1.14,1.06c0.14,0.71,0.24,2.68,0.31,5.92l0.05,6.1l0.93-0.15
		c0.38-0.07,0.68-0.07,0.9,0c0.22,0.07,0.51,0.28,0.85,0.62c0.79,0.72,1.06,1.43,0.8,2.12c-0.26,0.69-1.06,1.43-2.4,2.22
		c-0.62,0.38-1.03,0.66-1.21,0.85c-0.19,0.19-0.27,0.44-0.23,0.75c0.17,1.38,0.29,3.35,0.36,5.89c0.07,2.55,0.05,3.88-0.05,3.98
		c-0.24,0.31-0.64,0.42-1.19,0.34c-0.55-0.08-1.05-0.3-1.5-0.65l-0.78-0.67l-0.05-4.13c-0.07-2.72-0.19-4.19-0.36-4.39
		c-0.21-0.24-1-0.4-2.38-0.47c-2.31-0.17-3.54-0.83-3.67-1.96c-0.04-0.48,0.21-0.93,0.72-1.34c0.34-0.28,0.66-0.43,0.96-0.47
		c0.29-0.03,0.91-0.02,1.83,0.05c1.34,0.14,2.15,0.09,2.43-0.15c0.28-0.21,0.41-2.48,0.41-6.82c0-3.24,0.06-5.36,0.18-6.36
		C388.13,225.67,388.41,225,388.86,224.66"/>
	<path d="M398.47,242.02c0.65-1.79,1.66-2.9,3.03-3.33c1.36-0.43,3.37-0.39,6.02,0.13c1.72,0.28,2.77,0.93,3.15,1.96
		c0.1,0.34,0.12,0.63,0.05,0.85c-0.07,0.22-0.26,0.53-0.57,0.9c-0.38,0.48-0.58,0.82-0.59,1.01c-0.02,0.19,0.08,0.51,0.28,0.96
		c0.28,0.59,0.42,1.31,0.44,2.17c0.01,0.86-0.11,1.55-0.39,2.07c-0.28,0.59-0.55,1.48-0.83,2.69c-0.28,1.07-0.59,1.94-0.96,2.61
		c-0.36,0.67-0.96,1.51-1.78,2.51c-0.87,1.03-1.4,1.65-1.6,1.86c-0.31,0.45-0.88,0.67-1.71,0.67c-0.52,0-0.96-0.08-1.32-0.26
		c-0.36-0.17-0.92-0.55-1.68-1.14c-1.41-1.1-2.41-1.86-3-2.27c-0.59-0.45-1.07-1.02-1.45-1.71c-0.38-0.69-0.57-1.36-0.57-2.02
		c0-0.48,0.48-1.98,1.45-4.5C397.42,244.78,398.09,243.06,398.47,242.02 M404.93,244.09c-0.34-0.34-0.65-0.58-0.93-0.7
		c-0.28-0.12-0.64-0.18-1.09-0.18h-1.14l-0.93,2.17c-1.1,2.62-1.72,4.46-1.86,5.53c-0.07,0.59-0.06,0.99,0.03,1.21
		c0.09,0.22,0.39,0.59,0.9,1.11c1.21,1.28,2.17,1.91,2.89,1.91c0.28,0,0.76-0.62,1.45-1.86c0.69-1.24,1.2-2.4,1.55-3.47
		c0.31-1,0.48-1.68,0.52-2.04c0.03-0.36-0.02-0.85-0.16-1.47C405.93,245.45,405.52,244.71,404.93,244.09"/>
	<path d="M415.17,232.2l1.19-1.24l1.65,0.1c1.1,0.07,2.53,0.53,4.29,1.4c1.83,0.9,2.91,1.52,3.26,1.86c0.38,0.38,0.57,0.91,0.57,1.6
		c0,0.69-0.19,1.24-0.57,1.65c-0.59,0.65-1.17,0.92-1.76,0.8c-0.58-0.12-1.53-0.68-2.84-1.68c-2.31-1.76-3.46-1.67-3.46,0.26
		c0,0.72,0.28,1.41,0.85,2.07c0.57,0.65,1.63,1.5,3.18,2.53c1.21,0.82,2.05,1.46,2.53,1.89c0.48,0.43,0.89,0.94,1.24,1.52
		c1.17,2.07,1.1,3.81-0.21,5.22c-0.65,0.72-1.28,1.24-1.89,1.55c-0.6,0.31-1.51,0.57-2.71,0.78c-1.17,0.24-2.21,0.29-3.1,0.15
		c-0.9-0.14-2.03-0.52-3.41-1.14c-2.1-0.96-3.19-2.34-3.26-4.13c-0.03-1.21,0.28-1.85,0.96-1.94c0.67-0.09,1.58,0.4,2.71,1.47
		c1.03,0.96,1.78,1.56,2.25,1.78c0.47,0.22,1.18,0.34,2.14,0.34c0.69,0,1.18-0.04,1.47-0.13c0.29-0.08,0.6-0.28,0.91-0.59
		c0.52-0.52,0.78-0.88,0.78-1.09c0-0.21-0.39-0.67-1.16-1.4c-0.78-0.72-1.75-1.5-2.92-2.33c-2.38-1.72-3.82-3.63-4.32-5.74
		C413.04,235.68,413.58,233.82,415.17,232.2"/>
	<path d="M470.89,231.01c0.62-0.31,1.28-0.49,1.99-0.54c0.71-0.05,1.18,0.06,1.43,0.34c0.17,0.21,0.36,0.74,0.56,1.6
		c0.14,0.72,0.6,2.21,1.4,4.44c1.21,3.31,1.5,5.53,0.88,6.67c-0.21,0.41-0.71,0.89-1.52,1.42c-0.81,0.53-1.41,0.8-1.78,0.8
		c-0.52,0-0.85-0.21-0.98-0.62c-0.14-0.41-0.16-1.21-0.05-2.38c0.07-0.93,0.08-1.65,0.03-2.17c-0.05-0.52-0.22-1.19-0.49-2.02
		c-0.41-1.34-0.74-2.02-0.98-2.02c-0.24,0-0.36,0.03-0.36,0.1c0,0.45-0.34,1.73-1.01,3.85c-0.67,2.12-1.2,3.54-1.58,4.26
		c-0.62,1.27-1.2,2.13-1.73,2.56c-0.54,0.43-1.23,0.65-2.09,0.65c-0.79,0-1.33-0.13-1.6-0.39c-0.28-0.26-0.45-0.8-0.52-1.63
		c-0.1-0.79-0.25-1.45-0.44-1.96c-0.19-0.52-0.41-0.78-0.65-0.78c-0.21,0-0.43,0.36-0.67,1.09c-0.17,0.65-0.53,1.28-1.09,1.89
		c-0.55,0.6-1.08,0.97-1.6,1.11c-1.21,0.31-2.03-0.07-2.48-1.14c-0.28-0.65-0.41-2.24-0.41-4.75c0-2.52,0.12-4.03,0.36-4.55
		c0.24-0.48,0.59-0.75,1.06-0.8c0.47-0.05,0.94,0.11,1.42,0.49c0.48,0.38,0.88,0.53,1.19,0.44c0.31-0.09,0.62-0.42,0.93-1.01
		c0.52-0.93,0.93-1.53,1.24-1.81c0.31-0.28,0.79-0.41,1.45-0.41c0.76,0,1.26,0.16,1.5,0.47c0.24,0.31,0.44,1.02,0.62,2.12
		c0.03,0.38,0.11,0.9,0.23,1.58c0.12,0.67,0.2,1.08,0.23,1.21c0.07,0.69,0.22,1.03,0.47,1.03c0.2,0,0.41-0.24,0.62-0.72
		c0.21-0.48,0.55-1.55,1.03-3.2C468.27,233.55,469.4,231.81,470.89,231.01"/>
	<path d="M483.45,234.01c0.89-0.52,1.81-0.77,2.74-0.77c0.65,0,1.15,0.09,1.47,0.28c0.33,0.19,1.03,0.8,2.09,1.83
		c1.28,1.27,2.14,2.23,2.58,2.87c0.45,0.64,0.95,1.66,1.5,3.08c0.48,1.17,0.75,1.99,0.8,2.45c0.05,0.47-0.08,0.92-0.39,1.37
		c-0.28,0.41-1.06,0.99-2.35,1.73c-1.29,0.74-2.23,1.17-2.82,1.27c-1.72,0.28-2.53,0.69-2.43,1.24c0.03,0.17,0.14,0.33,0.31,0.47
		c0.24,0.21,1.29,0.34,3.15,0.41c3.24,0.14,4.93,0.79,5.07,1.96c0.07,0.55-0.18,1.09-0.75,1.6c-0.57,0.52-1.27,0.83-2.1,0.93
		c-1.03,0.17-2.44,0.2-4.21,0.08c-1.77-0.12-3.01-0.32-3.7-0.59c-1.07-0.45-2.27-1.72-3.62-3.82c-1.34-2.1-2.29-4.17-2.85-6.2
		c-0.34-1.38-0.51-2.24-0.51-2.58c0-0.97,0.66-2.28,1.99-3.95C480.77,235.99,482.1,234.77,483.45,234.01 M487.17,238.82
		c-0.59-0.83-1.16-1.23-1.73-1.21c-0.57,0.02-1.27,0.44-2.09,1.27c-0.59,0.59-0.93,1.01-1.04,1.27c-0.1,0.26-0.13,0.75-0.1,1.48
		c0.07,0.72,0.16,1.18,0.29,1.37c0.12,0.19,0.52,0.47,1.21,0.85c0.96,0.52,1.67,0.78,2.12,0.78c0.9,0,1.77-0.26,2.61-0.78
		c0.84-0.52,1.27-1.05,1.27-1.6c0-0.34-0.29-0.81-0.88-1.4C488.24,240.28,487.69,239.61,487.17,238.82"/>
	<path d="M495.7,229.88c0.34-0.31,0.91-0.49,1.71-0.54c0.79-0.05,1.33,0.06,1.6,0.34c0.49,0.48,0.42,1.17-0.18,2.07
		c-0.6,0.9-1.27,1.26-1.99,1.09c-0.79-0.21-1.31-0.62-1.55-1.24C495.04,230.96,495.18,230.39,495.7,229.88 M495.95,241.25
		c0.55-0.55,1.21-0.83,1.97-0.83c0.82,0,1.41,0.13,1.75,0.39c0.35,0.26,0.6,0.71,0.78,1.37c0.21,0.8,0.21,1.85,0,3.15
		c-0.48,2.76-0.17,6.91,0.93,12.46c0.24,1.24,0.34,2.21,0.28,2.89c-0.05,0.69-0.28,1.26-0.7,1.71c-0.59,0.62-1.24,0.96-1.97,1.01
		c-0.72,0.05-1.32-0.2-1.81-0.75c-0.28-0.31-0.47-1.1-0.59-2.38c-0.12-1.27-0.32-4.27-0.59-8.99c-0.2-3.51-0.38-5.65-0.52-6.41
		c-0.21-1.17-0.28-1.95-0.23-2.35C495.31,242.12,495.54,241.7,495.95,241.25"/>
	<path d="M505.16,242.02c0.65-1.79,1.66-2.9,3.02-3.33c1.36-0.43,3.37-0.39,6.02,0.13c1.72,0.28,2.77,0.93,3.15,1.96
		c0.1,0.34,0.12,0.63,0.05,0.85c-0.07,0.22-0.26,0.53-0.57,0.9c-0.38,0.48-0.58,0.82-0.59,1.01c-0.02,0.19,0.08,0.51,0.28,0.96
		c0.28,0.59,0.42,1.31,0.44,2.17c0.02,0.86-0.11,1.55-0.39,2.07c-0.28,0.59-0.55,1.48-0.83,2.69c-0.28,1.07-0.59,1.94-0.96,2.61
		c-0.36,0.67-0.96,1.51-1.78,2.51c-0.86,1.03-1.4,1.65-1.6,1.86c-0.31,0.45-0.88,0.67-1.71,0.67c-0.52,0-0.96-0.08-1.32-0.26
		c-0.36-0.17-0.92-0.55-1.68-1.14c-1.41-1.1-2.41-1.86-3-2.27c-0.59-0.45-1.07-1.02-1.45-1.71c-0.38-0.69-0.57-1.36-0.57-2.02
		c0-0.48,0.48-1.98,1.45-4.5C504.11,244.78,504.78,243.06,505.16,242.02 M511.62,244.09c-0.34-0.34-0.65-0.58-0.93-0.7
		c-0.28-0.12-0.64-0.18-1.09-0.18h-1.14l-0.93,2.17c-1.1,2.62-1.72,4.46-1.86,5.53c-0.07,0.59-0.06,0.99,0.03,1.21
		c0.09,0.22,0.39,0.59,0.9,1.11c1.21,1.28,2.17,1.91,2.89,1.91c0.28,0,0.76-0.62,1.45-1.86c0.69-1.24,1.21-2.4,1.55-3.47
		c0.31-1,0.48-1.68,0.52-2.04c0.03-0.36-0.02-0.85-0.16-1.47C512.62,245.45,512.2,244.71,511.62,244.09"/>
	<path d="M517.66,235.25c0.17-0.34,0.47-0.68,0.88-1.01c0.41-0.33,0.81-0.49,1.19-0.49c0.28,0,0.6,0.23,0.98,0.7
		c0.38,0.47,0.6,0.94,0.67,1.42c0.18,0.79,0.42,1.24,0.75,1.34c0.32,0.1,0.97-0.1,1.94-0.62c1.14-0.55,2.1-0.9,2.89-1.03
		c0.52-0.1,0.92-0.11,1.21-0.03c0.29,0.09,0.75,0.34,1.37,0.75c0.93,0.59,1.48,1.21,1.65,1.86c0.34,1.17,0.24,2.1-0.31,2.79
		c-0.21,0.21-0.56,0.31-1.06,0.31c-0.5,0-0.96-0.13-1.4-0.39c-0.43-0.26-1.13-0.4-2.09-0.41c-0.97-0.02-1.53,0.09-1.71,0.34
		c-0.18,0.21-0.33,1.24-0.47,3.1c-0.14,1.86-0.19,3.5-0.16,4.91c0.03,1.17-0.13,1.97-0.49,2.4c-0.36,0.43-1.01,0.63-1.94,0.59
		c-0.89-0.07-1.46-0.35-1.68-0.85c-0.23-0.5-0.34-1.63-0.34-3.39c0-1.89-0.29-3.89-0.88-6c-0.72-2.72-1.13-4.34-1.21-4.86
		C517.4,236.18,517.46,235.7,517.66,235.25"/>
	<path d="M537.1,232.31c1.66-0.31,3.13-0.25,4.42,0.18c1.29,0.43,2.64,1.3,4.06,2.61c1.41,1.27,2.15,1.95,2.22,2.02
		c0.28,0.24,0.43,0.52,0.47,0.83c0.03,0.31,0.03,1.02,0,2.12c-0.04,1.14-0.02,1.96,0.05,2.48c0.07,0.52,0.31,1.29,0.72,2.33
		c0.59,1.52,0.93,2.7,1.04,3.57c0.03,0.48,0.02,0.82-0.03,1.01c-0.05,0.19-0.22,0.37-0.49,0.54c-0.45,0.28-0.95,0.47-1.5,0.57
		c-0.38,0.1-0.7,0.1-0.96-0.03c-0.26-0.12-0.67-0.42-1.22-0.9c-0.86-0.76-1.41-1.45-1.65-2.07c-0.34-1.03-0.78-1.22-1.29-0.57
		c-0.38,0.45-1.13,1.07-2.27,1.86c-1.14,0.79-1.93,1.24-2.38,1.34c-0.55,0.17-1.19,0.16-1.91-0.05c-0.52-0.17-0.9-0.43-1.16-0.77
		c-0.26-0.34-0.73-1.19-1.42-2.53c-0.9-1.79-1.57-3.64-2.02-5.56c-0.45-1.91-0.54-3.35-0.26-4.32c0.38-1.38,1.01-2.43,1.89-3.15
		C534.28,233.08,535.51,232.58,537.1,232.31 M539.73,237.42c-0.52-0.55-1.06-0.84-1.63-0.88c-0.57-0.03-1.08,0.19-1.52,0.67
		c-0.59,0.62-0.73,1.81-0.44,3.57c0.29,1.76,0.87,3.07,1.73,3.93c0.28,0.28,0.49,0.41,0.65,0.41c0.16,0,0.46-0.1,0.9-0.31
		c0.52-0.24,1.13-0.8,1.83-1.68c0.71-0.88,1.08-1.52,1.11-1.94C542.37,240.61,541.49,239.35,539.73,237.42"/>
	<path d="M565.89,231.01c0.62-0.31,1.28-0.49,1.99-0.54c0.71-0.05,1.18,0.06,1.43,0.34c0.17,0.21,0.36,0.74,0.57,1.6
		c0.14,0.72,0.6,2.21,1.39,4.44c1.21,3.31,1.5,5.53,0.88,6.67c-0.21,0.41-0.71,0.89-1.52,1.42c-0.81,0.53-1.4,0.8-1.78,0.8
		c-0.52,0-0.84-0.21-0.98-0.62c-0.14-0.41-0.16-1.21-0.05-2.38c0.07-0.93,0.08-1.65,0.03-2.17c-0.05-0.52-0.22-1.19-0.49-2.02
		c-0.41-1.34-0.74-2.02-0.98-2.02s-0.36,0.03-0.36,0.1c0,0.45-0.34,1.73-1.01,3.85c-0.67,2.12-1.2,3.54-1.58,4.26
		c-0.62,1.27-1.2,2.13-1.73,2.56c-0.54,0.43-1.23,0.65-2.09,0.65c-0.79,0-1.33-0.13-1.6-0.39c-0.28-0.26-0.45-0.8-0.52-1.63
		c-0.1-0.79-0.25-1.45-0.44-1.96c-0.19-0.52-0.41-0.78-0.65-0.78c-0.21,0-0.43,0.36-0.67,1.09c-0.17,0.65-0.53,1.28-1.09,1.89
		c-0.55,0.6-1.09,0.97-1.6,1.11c-1.21,0.31-2.03-0.07-2.48-1.14c-0.28-0.65-0.41-2.24-0.41-4.75c0-2.52,0.12-4.03,0.36-4.55
		c0.24-0.48,0.59-0.75,1.06-0.8c0.46-0.05,0.94,0.11,1.42,0.49c0.48,0.38,0.88,0.53,1.19,0.44c0.31-0.09,0.62-0.42,0.93-1.01
		c0.52-0.93,0.93-1.53,1.24-1.81c0.31-0.28,0.79-0.41,1.45-0.41c0.76,0,1.26,0.16,1.5,0.47c0.24,0.31,0.45,1.02,0.62,2.12
		c0.03,0.38,0.11,0.9,0.23,1.58c0.12,0.67,0.2,1.08,0.23,1.21c0.07,0.69,0.22,1.03,0.47,1.03c0.21,0,0.41-0.24,0.62-0.72
		c0.2-0.48,0.55-1.55,1.03-3.2C563.27,233.55,564.41,231.81,565.89,231.01"/>
	<path d="M575.91,242.02c0.65-1.79,1.66-2.9,3.03-3.33c1.36-0.43,3.37-0.39,6.02,0.13c1.72,0.28,2.77,0.93,3.15,1.96
		c0.1,0.34,0.12,0.63,0.05,0.85c-0.07,0.22-0.26,0.53-0.57,0.9c-0.38,0.48-0.58,0.82-0.59,1.01c-0.02,0.19,0.08,0.51,0.28,0.96
		c0.28,0.59,0.42,1.31,0.44,2.17c0.01,0.86-0.12,1.55-0.39,2.07c-0.28,0.59-0.56,1.48-0.83,2.69c-0.28,1.07-0.59,1.94-0.96,2.61
		c-0.36,0.67-0.96,1.51-1.78,2.51c-0.87,1.03-1.4,1.65-1.61,1.86c-0.31,0.45-0.88,0.67-1.71,0.67c-0.52,0-0.96-0.08-1.32-0.26
		c-0.36-0.17-0.92-0.55-1.68-1.14c-1.41-1.1-2.41-1.86-3-2.27c-0.59-0.45-1.07-1.02-1.45-1.71c-0.38-0.69-0.57-1.36-0.57-2.02
		c0-0.48,0.48-1.98,1.45-4.5C574.86,244.78,575.54,243.06,575.91,242.02 M582.38,244.09c-0.34-0.34-0.65-0.58-0.93-0.7
		c-0.28-0.12-0.64-0.18-1.09-0.18h-1.14l-0.93,2.17c-1.1,2.62-1.72,4.46-1.86,5.53c-0.07,0.59-0.06,0.99,0.03,1.21
		c0.09,0.22,0.39,0.59,0.9,1.11c1.21,1.28,2.17,1.91,2.89,1.91c0.28,0,0.76-0.62,1.45-1.86c0.69-1.24,1.2-2.4,1.55-3.47
		c0.31-1,0.48-1.68,0.52-2.04c0.03-0.36-0.02-0.85-0.16-1.47C583.38,245.45,582.96,244.71,582.38,244.09"/>
	<path d="M592.61,232.2l1.19-1.24l1.65,0.1c1.1,0.07,2.53,0.53,4.29,1.4c1.83,0.9,2.91,1.52,3.26,1.86c0.38,0.38,0.57,0.91,0.57,1.6
		c0,0.69-0.19,1.24-0.57,1.65c-0.59,0.65-1.17,0.92-1.76,0.8c-0.58-0.12-1.53-0.68-2.84-1.68c-2.31-1.76-3.46-1.67-3.46,0.26
		c0,0.72,0.29,1.41,0.85,2.07c0.57,0.65,1.63,1.5,3.18,2.53c1.21,0.82,2.05,1.46,2.53,1.89c0.48,0.43,0.9,0.94,1.24,1.52
		c1.17,2.07,1.1,3.81-0.21,5.22c-0.65,0.72-1.28,1.24-1.89,1.55c-0.6,0.31-1.51,0.57-2.71,0.78c-1.17,0.24-2.21,0.29-3.1,0.15
		c-0.9-0.14-2.03-0.52-3.41-1.14c-2.1-0.96-3.19-2.34-3.26-4.13c-0.04-1.21,0.28-1.85,0.96-1.94c0.67-0.09,1.58,0.4,2.71,1.47
		c1.03,0.96,1.78,1.56,2.25,1.78c0.47,0.22,1.18,0.34,2.14,0.34c0.69,0,1.18-0.04,1.47-0.13c0.29-0.08,0.6-0.28,0.91-0.59
		c0.52-0.52,0.78-0.88,0.78-1.09c0-0.21-0.39-0.67-1.16-1.4c-0.78-0.72-1.75-1.5-2.92-2.33c-2.38-1.72-3.82-3.63-4.32-5.74
		C590.48,235.68,591.02,233.82,592.61,232.2"/>
	<path d="M632.93,232.56c0.21-0.28,0.71-0.42,1.5-0.44c0.79-0.02,1.31,0.11,1.55,0.39c0.17,0.21,0.45,0.83,0.83,1.86
		c0.31,1,0.84,2.24,1.6,3.72c0.76,1.55,1.21,2.52,1.34,2.89c0.14,0.52,0.4,1.07,0.8,1.65c0.4,0.59,0.7,0.88,0.91,0.88
		c0.62,0,1.72-1.55,3.31-4.65c0.65-1.27,1.05-2.12,1.19-2.53c0.14-0.41,0.17-0.95,0.1-1.6c-0.07-0.62-0.07-1.05,0-1.29
		c0.07-0.24,0.22-0.5,0.46-0.78c0.38-0.38,0.9-0.57,1.55-0.57c0.65,0,1.15,0.19,1.5,0.57c0.55,0.52,0.74,1.25,0.57,2.2
		s-0.74,2.35-1.71,4.21c-0.38,0.72-1.03,1.99-1.96,3.8c-0.93,1.81-1.52,2.92-1.76,3.33c-1.07,2.1-1.86,3.42-2.38,3.95
		c-0.52,0.54-1.12,0.68-1.81,0.44c-0.52-0.21-0.96-0.78-1.34-1.71c-0.24-0.62-1.09-2.53-2.56-5.74c-1.47-3.2-2.58-5.56-3.33-7.08
		C632.43,234.43,632.31,233.25,632.93,232.56"/>
	<path d="M651.38,225.95c0.45-0.28,1.02-0.44,1.71-0.49c0.69-0.05,1.15,0.06,1.4,0.34c0.34,0.31,0.46,0.77,0.36,1.39
		c-0.1,0.62-0.38,1.16-0.83,1.6c-0.69,0.69-1.42,0.96-2.2,0.8c-0.78-0.15-1.28-0.68-1.52-1.58
		C650.05,227.29,650.41,226.6,651.38,225.95 M652.52,238.82c0.21-0.31,0.57-0.5,1.11-0.57c0.54-0.07,1.03,0.02,1.47,0.26
		c0.45,0.21,0.74,0.71,0.88,1.5c0.14,0.79,0.12,1.69-0.05,2.69c-0.24,1.07-0.31,3.33-0.21,6.77c0.07,2.38,0.09,3.86,0.05,4.44
		c-0.03,0.59-0.19,1-0.47,1.24c-0.28,0.34-0.82,0.54-1.63,0.59c-0.81,0.05-1.34-0.08-1.58-0.39c-0.62-0.76-1-2.71-1.14-5.87
		c-0.14-3.15,0.05-5.73,0.57-7.73C651.88,240.28,652.21,239.3,652.52,238.82"/>
	<path d="M667.61,223.05c0.62-0.62,1.27-0.93,1.96-0.93c1.17,0,1.93,0.35,2.28,1.03c0.13,0.35,0.28,2.86,0.41,7.55
		c0.1,4.17,0.39,8.75,0.88,13.75c0.1,1.65-0.37,2.75-1.42,3.28c-1.05,0.54-2.16,0.27-3.33-0.8c-0.52-0.45-0.9-0.71-1.14-0.8
		c-0.24-0.09-0.66-0.08-1.24,0.03c-0.83,0.1-1.96-0.07-3.41-0.52c-1.48-0.45-2.57-0.76-3.26-0.93c-0.72-0.17-1.27-0.53-1.63-1.09
		c-0.36-0.55-0.75-1.6-1.16-3.15c-0.34-1.41-0.49-2.5-0.44-3.26c0.05-0.76,0.34-1.69,0.85-2.79c0.52-1.1,1.27-1.8,2.28-2.09
		c1-0.29,2.61-0.32,4.85-0.08c0.96,0.1,1.58,0.13,1.83,0.08c0.26-0.05,0.56-0.22,0.91-0.49c0.65-0.65,0.79-1.64,0.41-2.95
		c-0.14-0.55-0.28-1.5-0.41-2.84l-0.21-2.02L667.61,223.05z M664.41,236.85c-1.31-0.31-2.19-0.36-2.64-0.15
		c-0.45,0.21-0.67,0.76-0.67,1.65c0,0.48,0.06,0.85,0.18,1.11c0.12,0.26,0.37,0.56,0.75,0.9c0.55,0.55,1.21,0.95,1.96,1.19
		c0.48,0.14,0.82,0.2,1.01,0.18c0.19-0.02,0.44-0.18,0.75-0.49c0.41-0.41,0.62-1.1,0.62-2.07c0-0.83-0.1-1.36-0.31-1.6
		C665.85,237.34,665.3,237.09,664.41,236.85"/>
	<path d="M678.88,232.31c1.65-0.31,3.13-0.25,4.42,0.18c1.29,0.43,2.64,1.3,4.05,2.61c1.41,1.27,2.15,1.95,2.22,2.02
		c0.28,0.24,0.43,0.52,0.47,0.83c0.03,0.31,0.03,1.02,0,2.12c-0.03,1.14-0.02,1.96,0.05,2.48c0.07,0.52,0.31,1.29,0.72,2.33
		c0.58,1.52,0.93,2.7,1.03,3.57c0.03,0.48,0.03,0.82-0.03,1.01c-0.05,0.19-0.22,0.37-0.49,0.54c-0.45,0.28-0.95,0.47-1.5,0.57
		c-0.38,0.1-0.7,0.1-0.96-0.03c-0.26-0.12-0.66-0.42-1.21-0.9c-0.86-0.76-1.41-1.45-1.66-2.07c-0.34-1.03-0.78-1.22-1.29-0.57
		c-0.38,0.45-1.13,1.07-2.27,1.86c-1.14,0.79-1.93,1.24-2.38,1.34c-0.55,0.17-1.19,0.16-1.91-0.05c-0.52-0.17-0.9-0.43-1.16-0.77
		c-0.26-0.34-0.73-1.19-1.42-2.53c-0.9-1.79-1.57-3.64-2.02-5.56c-0.45-1.91-0.54-3.35-0.26-4.32c0.38-1.38,1.01-2.43,1.89-3.15
		C676.06,233.08,677.29,232.58,678.88,232.31 M681.52,237.42c-0.52-0.55-1.06-0.84-1.63-0.88c-0.57-0.03-1.08,0.19-1.52,0.67
		c-0.59,0.62-0.73,1.81-0.44,3.57c0.29,1.76,0.87,3.07,1.73,3.93c0.28,0.28,0.49,0.41,0.65,0.41c0.16,0,0.46-0.1,0.9-0.31
		c0.52-0.24,1.13-0.8,1.83-1.68c0.71-0.88,1.08-1.52,1.11-1.94C684.15,240.61,683.27,239.35,681.52,237.42"/>
	<path d="M696.35,232.2l1.19-1.24l1.65,0.1c1.1,0.07,2.53,0.53,4.29,1.4c1.83,0.9,2.91,1.52,3.26,1.86c0.38,0.38,0.57,0.91,0.57,1.6
		c0,0.69-0.19,1.24-0.57,1.65c-0.59,0.65-1.17,0.92-1.76,0.8c-0.58-0.12-1.53-0.68-2.84-1.68c-2.31-1.76-3.46-1.67-3.46,0.26
		c0,0.72,0.28,1.41,0.85,2.07s1.63,1.5,3.18,2.53c1.21,0.82,2.05,1.46,2.53,1.89c0.48,0.43,0.89,0.94,1.24,1.52
		c1.17,2.07,1.1,3.81-0.21,5.22c-0.65,0.72-1.28,1.24-1.89,1.55c-0.6,0.31-1.51,0.57-2.71,0.78c-1.17,0.24-2.21,0.29-3.1,0.15
		c-0.9-0.14-2.03-0.52-3.41-1.14c-2.1-0.96-3.19-2.34-3.26-4.13c-0.03-1.21,0.28-1.85,0.96-1.94c0.67-0.09,1.58,0.4,2.71,1.47
		c1.03,0.96,1.79,1.56,2.25,1.78c0.47,0.22,1.18,0.34,2.14,0.34c0.69,0,1.18-0.04,1.47-0.13c0.29-0.08,0.6-0.28,0.91-0.59
		c0.52-0.52,0.78-0.88,0.78-1.09c0-0.21-0.39-0.67-1.16-1.4c-0.78-0.72-1.75-1.5-2.92-2.33c-2.38-1.72-3.82-3.63-4.32-5.74
		C694.22,235.68,694.76,233.82,696.35,232.2"/>
	<path d="M434.9,243.04c0-3.68,2.98-6.65,6.66-6.65c3.67,0,6.65,2.98,6.65,6.65c0,3.67-2.98,6.65-6.65,6.65
		C437.88,249.69,434.9,246.71,434.9,243.04"/>
	<path d="M612.68,243.04c0-3.68,2.98-6.65,6.65-6.65c3.67,0,6.65,2.98,6.65,6.65c0,3.67-2.98,6.65-6.65,6.65
		C615.66,249.69,612.68,246.71,612.68,243.04"/>
</g>
</svg>
