<?xml version="1.0" encoding="utf-8"?>
<!-- Generator: Adobe Illustrator 25.0.0, SVG Export Plug-In . SVG Version: 6.00 Build 0)  -->
<svg version="1.1" id="Capa_1" xmlns="http://www.w3.org/2000/svg" xmlns:xlink="http://www.w3.org/1999/xlink" x="0px" y="0px"
	 viewBox="0 0 1042 232.7" style="enable-background:new 0 0 1042 232.7;" xml:space="preserve">
<style type="text/css">
	.st0{fill:#FFFFFF;}
</style>
<g>
	<g>
		<g>
			<path d="M359.9,157.2h-36.8l-7.4,16.7h-17.6l39.2-82.4h8.3l39.4,82.4h-17.6L359.9,157.2z M329.1,143.3H354l-12.5-27.2
				L329.1,143.3z"/>
			<path d="M480.7,91.6v82.4h-8.2L423.4,122v51.9h-16.7V91.6h8.2l49.1,51.9V91.6H480.7z"/>
			<path d="M544.8,173.9h-35.3V91.6h32.6c22.9,0,41.5,18.5,41.5,41.2C583.5,154.6,566.4,173.9,544.8,173.9z M543.4,158.6
				c13.1,0,23.7-12,23.7-25.8c0-14.3-11.2-25.9-25-25.9h-16.4v51.7H543.4z"/>
			<path d="M644.2,152.7c-0.9,0.1-2.1,0.1-3.2,0.1h-15.3v21.1H609V91.6h36.3c24.1,0,32.2,14.3,32.2,29.7c0,14.1-5.8,23.5-16.7,28.2
				l19.2,24.5h-20L644.2,152.7z M625.7,139h14.7c13.3,0,19.6-6.8,19.6-16.5c0-8.5-4.4-16.5-17.4-16.5h-16.9V139z"/>
			<path d="M756,157.2h-36.8l-7.4,16.7h-17.6l39.2-82.4h8.3l39.4,82.4h-17.6L756,157.2z M725.1,143.3H750l-12.5-27.2L725.1,143.3z"
				/>
			<path d="M838,173.9h-35.3V91.6h32.6c22.9,0,41.5,18.5,41.5,41.2C876.7,154.6,859.6,173.9,838,173.9z M836.6,158.6
				c13.1,0,23.7-12,23.7-25.8c0-14.3-11.2-25.9-25-25.9h-16.4v51.7H836.6z"/>
			<path d="M965.4,159.4v14.5h-63.2V91.6H963V106h-44.5V127h37.3v14h-37.3v18.5H965.4z"/>
		</g>
		<g>
			<path d="M341.9,59.1v5.3h9.1v4.1h-9.1V78h-4.9V55h16v4.1H341.9z"/>
			<path d="M396.1,55v13.8c0,3.8-1.5,9.4-9.5,9.4c-7.9,0-9.5-5.7-9.5-9.4V55h4.9v13.8c0,1.1,0.2,5.4,4.6,5.4c4.4,0,4.6-4.2,4.6-5.4
				V55H396.1z"/>
			<path d="M442.6,78h-5.2l-10.2-15.1V78h-4.9V55h5.2l10.2,15.1V55h4.9V78z"/>
			<path d="M478,78h-9.2V55h9.2c6.2,0,11.2,5.2,11.2,11.5C489.2,72.9,484.2,78,478,78z M484.3,66.5c0-3.7-2.6-7.4-6.3-7.4h-4.3v14.8
				h4.3C481.7,73.9,484.3,70.2,484.3,66.5z"/>
			<path d="M533.7,78h-5.3l-1.9-4.4h-7.8L517,78h-5.3l9.5-23h3.2L533.7,78z M525.1,69.5l-2.4-6.6c-0.7,1.9-1.6,4.5-2.4,6.6H525.1z"
				/>
			<path d="M575.6,74.3c-2.4,2.6-5.6,4-9,4c-6.6,0-11.8-5.1-11.8-11.8c0-6.6,5.2-11.7,11.8-11.7c3.4,0,6.7,1.4,9.1,4l-3.3,3.3
				c-1.3-2.1-3.5-3.3-5.8-3.3c-4.1,0-6.9,3.7-6.9,7.7c0,3.9,2.8,7.7,6.9,7.7c1.7,0,3.5-0.5,5.8-3.2L575.6,74.3z"/>
			<path d="M605.6,78h-4.9V55h4.9V78z"/>
			<path d="M653.7,66.5c0,6.7-5.3,11.8-11.8,11.8c-6.5,0-11.8-5.1-11.8-11.8c0-6.6,5.3-11.7,11.8-11.7
				C648.5,54.8,653.7,59.9,653.7,66.5z M635.1,66.5c0,3.9,2.8,7.7,6.9,7.7c4.1,0,6.9-3.7,6.9-7.7c0-3.9-2.8-7.7-6.9-7.7
				C637.9,58.9,635.1,62.6,635.1,66.5z M639.9,53.8l3.3-6.3l4.3,2.2l-3.5,4.1H639.9z"/>
			<path d="M699.4,78h-5.2L684,62.9V78h-4.9V55h5.2l10.2,15.1V55h4.9V78z"/>
		</g>
		<g>
			<path d="M1003.4,113.8h-12.3l-2.5,5.6h-5.9l13.1-27.5h2.8l13.1,27.5h-5.9L1003.4,113.8z M993.1,109.1h8.3l-4.2-9.1L993.1,109.1z"
				/>
			<path d="M1037.7,110.8l4.3,3.7c-2.7,3.2-6.7,5.2-11.3,5.2c-8,0-14.5-6.3-14.5-14c0-7.8,6.5-14.1,14.5-14.1
				c4.6,0,8.7,2.1,11.3,5.3l-4.3,3.7c-1.6-2.2-4.1-3.6-7-3.6c-4.8,0-8.7,3.5-8.7,8.8c0,5.2,3.9,8.8,8.7,8.8
				C1033.6,114.4,1036.1,113,1037.7,110.8z"/>
		</g>
	</g>
	<path d="M262.5,40.7c0.1,0.1,0.2,0.2,0.3,0.3c0-0.2,0-0.3,0-0.5C253-42.1,42.1,27.2,42.1,27.2s39,24.1,84.3,43.8
		C170.7,32.2,220,9.8,262.5,40.7z"/>
	<path d="M262.8,41c8.9,78.2-70.4,58.8-136.4,30.1C57.1,131.8,0,232.7,0,232.7S432.7,165,262.8,41z"/>
	<path class="st0" d="M262.8,41c-0.1-0.1-0.2-0.2-0.3-0.3C220,9.8,170.7,32.2,126.4,71C192.4,99.8,271.7,119.2,262.8,41z"/>
</g>
</svg>
