<?xml version="1.0" encoding="utf-8"?>
<!-- Generator: Adobe Illustrator 25.0.0, SVG Export Plug-In . SVG Version: 6.00 Build 0)  -->
<svg version="1.1" id="Capa_1" xmlns="http://www.w3.org/2000/svg" xmlns:xlink="http://www.w3.org/1999/xlink" x="0px" y="0px"
	 viewBox="0 0 1920 1080" style="enable-background:new 0 0 1920 1080;" xml:space="preserve">
<style type="text/css">
	.st0{fill:#010101;}
</style>
<g>
	<g>
		<path class="st0" d="M495.61,162.31c-5.32,13-11.71,27.19-19.55,41.69c-7.88,14.47-17.23,29.19-27.73,43.51
			c-20.95,28.74-46.78,55.47-71.9,78.24c-4.25,3.88-7.97,7.29-11.93,10.79c-17.32,15.61-38.32,33.45-62.81,54.85
			c-8.13,7.17-23.67,20.66-43.92,40.05c-20.15,19.44-45.23,44.82-69.16,77.82c-11.86,16.54-23.24,35.07-32.84,55.59
			c-1.19,2.57-2.38,5.15-3.59,7.75c-1.18,2.61-2.22,5.29-3.34,7.96c-2.31,5.3-4.21,10.83-6.25,16.36
			c-3.78,11.16-7.31,22.65-9.87,34.56l-1.02,4.46c-0.32,1.49-0.57,3-0.86,4.51c-0.55,3.01-1.11,6.04-1.67,9.07
			c-0.86,6.11-1.87,12.24-2.39,18.47c-0.75,6.2-0.98,12.49-1.39,18.78c-0.11,6.31-0.35,12.65-0.11,19.01
			c0.27,12.73,1.26,25.55,3.19,38.31c1.91,12.75,4.38,25.51,7.85,38.04c3.42,12.54,7.51,24.93,12.28,37.05
			c4.85,12.09,10.33,23.91,16.35,35.41c12.17,22.93,26.61,44.45,42.7,64.03c32.17,39.24,70.62,70.66,109.31,93.27
			c19.3,11.43,38.69,20.65,57.39,28.03c18.7,7.39,36.72,12.93,53.45,16.97c16.74,4.06,32.18,6.63,45.83,8.34
			c3.42,0.38,6.72,0.76,9.9,1.11c3.19,0.3,6.26,0.51,9.2,0.75c5.88,0.56,11.29,0.64,16.15,0.92c-11.02-0.47-25.45-1.53-42.64-3.99
			c-17.18-2.48-37.12-6.54-58.91-13.06c-10.85-3.38-22.24-7.15-33.84-11.91c-11.63-4.67-23.59-10.01-35.63-16.31
			c-12.04-6.26-24.29-13.23-36.42-21.2c-12.13-7.96-24.21-16.77-36.06-26.48c25.32,20.66,52.19,37.57,78.89,50.71
			c26.73,13.08,53.2,22.54,77.89,28.84c3.09,0.77,6.15,1.53,9.16,2.28c3.04,0.65,6.04,1.3,9,1.93c1.48,0.32,2.95,0.63,4.41,0.94
			c1.47,0.26,2.93,0.52,4.38,0.78c2.9,0.52,5.75,1.03,8.56,1.53c11.3,1.7,21.94,3.08,31.86,3.79c19.82,1.58,36.59,1.41,49.49,0.96
			c-11.77,0.29-27.46,0.48-46.37-0.96c-2.36-0.19-4.78-0.38-7.24-0.57c-2.46-0.21-4.97-0.55-7.52-0.82
			c-2.55-0.3-5.16-0.55-7.81-0.92c-2.64-0.39-5.33-0.79-8.06-1.19c-1.37-0.2-2.75-0.4-4.14-0.61c-1.38-0.25-2.78-0.5-4.18-0.76
			c-2.81-0.51-5.67-1.03-8.57-1.56c-2.88-0.62-5.81-1.25-8.78-1.89c-1.48-0.32-2.98-0.64-4.48-0.97c-1.49-0.37-3-0.75-4.51-1.13
			c-12.15-2.89-24.76-6.75-37.77-11.28c-13.01-4.53-26.33-10.02-39.79-16.46c-26.92-12.85-54.44-29.57-80.62-50.58
			c-26.18-20.98-51.02-46.23-72.42-75.33c-21.36-29.08-39.47-61.96-51.6-97.49c-6.1-17.74-10.78-36.07-13.84-54.72
			c-3.08-18.64-4.33-37.6-3.95-56.48c0.4-18.88,2.53-37.68,6.34-56.02c3.85-18.34,9.38-36.2,16.29-53.29
			c-11.38,28.33-19.19,59.56-21.64,92c-2.52,32.42,0.31,65.89,8.23,98.2c7.88,32.33,20.76,63.44,37.19,91.84
			c16.42,28.42,36.32,54.17,58.04,76.5c21.75,22.33,45.26,41.29,68.86,56.88c11.84,7.74,23.7,14.65,35.38,20.81
			c11.68,6.16,23.27,11.37,34.43,16.06c22.44,9.11,43.43,15.51,61.87,19.79c18.44,4.3,34.29,6.65,46.65,8.01
			c-14.83-1.81-35.87-5.07-61.26-12.02c-25.32-7.05-54.98-17.91-86-34.76c-15.5-8.41-31.31-18.3-46.99-29.78
			c-15.69-11.47-31.26-24.51-46.1-39.27c-14.88-14.72-29.16-31.03-42.12-48.97c-13.08-17.85-24.73-37.38-34.78-58.09
			c-4.87-10.43-9.49-21.09-13.44-32.08c-1.07-2.72-1.9-5.53-2.86-8.29c-0.93-2.78-1.89-5.55-2.68-8.38
			c-0.83-2.82-1.67-5.64-2.5-8.46c-0.73-2.85-1.46-5.71-2.19-8.57c-2.78-11.47-5.15-23.12-6.61-34.94l-0.61-4.42l-0.44-4.45
			c-0.27-2.97-0.63-5.93-0.83-8.91c-0.35-5.96-0.76-11.92-0.77-17.91c-0.87-47.87,10.09-96.09,30.71-138.72
			c1.2-2.71,2.59-5.32,3.94-7.94c1.36-2.62,2.68-5.26,4.08-7.85c1.46-2.56,2.91-5.12,4.36-7.68l2.17-3.83l2.32-3.74
			c1.55-2.49,3.09-4.97,4.63-7.45c1.55-2.47,3.25-4.85,4.87-7.27c1.66-2.39,3.21-4.85,4.94-7.18c1.72-2.34,3.44-4.67,5.15-7
			c13.85-18.52,29.05-35.59,44.58-51.57c31.1-31.98,63.68-59.52,93.3-85.43c9.51-8.27,18.68-16.41,27.54-24.36
			c26.44-24.25,53.66-51.11,77.32-81.71c11.83-15.27,22.74-31.43,32.31-48.3C480.59,197.67,488.82,180.13,495.61,162.31"/>
	</g>
	<g>
		<path class="st0" d="M96.97,664.91c-1.32-0.08-2.79-0.1-4.35-0.07c-1.55,0.1-3.2,0.31-4.88,0.51c-3.33,0.62-6.83,1.38-10.05,2.39
			c-0.55,0.19-1.02,0.36-1.51,0.53c-1.06,0.45-2.16,1.09-3.37,1.75c-1.18,0.71-2.37,1.63-3.65,2.63c-0.76,0.77-2.37,2.07-4.09,4.27
			c-0.94,1.03-1.76,2.39-2.75,3.8c-0.85,1.5-1.84,3.11-2.58,4.97c-1.6,3.65-2.79,8.02-3.18,12.71c-0.4,4.69-0.01,9.67,1.17,14.49
			c2.31,9.69,7.94,18.4,14.03,24.22c6.09,5.9,12.27,9.2,15.42,11.12c-0.43-0.31-0.95-0.63-1.52-1c-0.56-0.4-1.18-0.83-1.86-1.28
			c-1.4-0.85-2.92-2.01-4.66-3.24c-3.38-2.58-7.29-6-10.82-10.48c3.88,4.69,8.31,8.3,12.26,10.9c1.94,1.37,3.86,2.33,5.44,3.31
			c1.65,0.85,3.04,1.57,4.09,2.2c-0.93-0.65-2.19-1.41-3.73-2.26c-0.76-0.48-1.57-0.99-2.43-1.53c-0.89-0.51-1.79-1.12-2.73-1.81
			c-3.8-2.61-8.14-6.22-12.01-11.01c-3.92-4.75-7.16-10.78-9.05-17.41c-0.91-3.33-1.43-6.79-1.59-10.26
			c-0.13-3.48,0.23-6.94,0.94-10.27c-1.16,5.52-1.03,11.73,0.29,17.66c1.4,5.91,3.9,11.56,7.14,16.2
			c3.21,4.66,6.96,8.37,10.35,11.15c0.86,0.68,1.68,1.33,2.46,1.94c0.81,0.56,1.57,1.09,2.28,1.59c1.38,1.05,2.68,1.72,3.6,2.43
			c-2.19-1.73-6.37-4.51-10.92-8.93c-4.53-4.39-9.21-10.72-12.06-18.46c-2.81-7.71-3.54-16.83-1.25-24.98
			c1.12-4.07,2.94-7.85,5.27-11.06c2.32-3.22,5.11-5.85,7.96-7.9c0.95-0.6,1.88-1.19,2.78-1.75
			C82.66,668.29,89.84,665.43,96.97,664.91"/>
	</g>
</g>
<path class="st0" d="M499.01,839.16c0,0-46.79-55.83-17.83-90.13C510.09,714.78,756.92,410.8,774,397.69
	c14.24-10.92,97.55-95.13,130.07-138.87c6.51-8.73,10.98-15.83,12.5-20.46c9.13-27.73-20.01,79.31-35.44,105.84
	C865.7,370.71,637.35,664.88,610.93,699C584.48,733.07,499.01,839.16,499.01,839.16z"/>
<path class="st0" d="M926.22,187.74c-4.99,40.41-20.5,63.61-20.46,64.14c0.29,9.63,4.83-92.56-21.45-143.17
	C831.05,5.95,776.35,29.75,783.5,25.49c0,0,88.71-39.42,129.6,64.17C927.38,125.86,929.43,161.78,926.22,187.74z"/>
<path class="st0" d="M804.47,16.36c0,0-26.21,5.02-52.77,32.61c-24.06,25.03-48.7,72.46-48.76,79.71c-0.15,15.25-0.98-71,34.57-93.9
	C773.07,11.87,804.47,16.36,804.47,16.36z"/>
<path class="st0" d="M703.35,101.55c0,0-7.44,33.77-12.32,65.22c-3.35,21.72-4.9,32.45-4.66,70.58
	c0.5,86.72,19.49,230.46,21.67,230.29c3.73-0.24,47.75-51.68,47.75-51.68s-53.73-216.04-55.12-260.06
	C700.06,136.49,703.35,101.55,703.35,101.55z"/>
<path class="st0" d="M800.77,610.71c-18.04-75.09-17.98-115.54-22.81-108.39l-48.39,51.77c0,0,32.63,161.8,46.2,195.52
	c5.81,14.49,22.86,67.07,43.66,114.46c9.39,21.37,24.95,41.66,31.21,56.95c6.43,15.81,6.5,27.14,6.5,27.43
	c0.25,7.63-25.8-222.38-25.8-222.38S813.52,663.61,800.77,610.71z"/>
<path class="st0" d="M1492.37,810.48c6.37-20.99,13.28-41.87,20.71-62.58c7.42-20.74,14.89-39.06,22.34-55.01
	c9-19.13,17.92-36.94,26.68-53.41c8.81-16.44,17.68-31.63,26.7-45.44c3.73-5.83,3.46-8.77-0.77-8.77c-0.56,0-1.34,0.55-2.41,1.63
	c-12.75,15.41-28.04,31.57-45.83,48.57c-17.8,17.02-38.42,35.66-61.77,55.82c-46.78,39.32-86.89,68.81-120.36,88.46
	c-6.93,4.27-13.03,6.39-18.35,6.39c-13.28,0-19.94-9.28-19.94-27.9c0-37.73,29.5-86.08,88.49-145.05
	c27.1-27.1,52.63-49.03,76.52-65.81c23.9-16.72,46.23-29.34,66.94-37.84c4.82-1.59,9.97-3.06,15.57-4.38c5.59-1.31,11.28-2,17.12-2
	c6.37,0,12.77,0.69,19.11,2c6.4,1.32,12.75,3.07,19.17,5.2c9.03,1.04,14.08,1.3,15.13,0.81c9.57-1.63,16.47-5.09,20.74-10.41
	c1.05-1.06,2.65-1.59,4.76-1.59c2.12,0,3.98,1.34,5.6,3.98c1.58,2.66,2.12,4.52,1.58,5.6c-15.39,23.87-30.7,47.39-45.83,70.54
	c-15.13,23.12-29.91,46.68-44.24,70.55c-11.14,18.58-22.06,40-32.7,64.17c-10.65,24.19-20.29,48.62-29.09,73.31 M1367.22,730.37
	c0,12.74,4.78,19.11,14.38,19.11c3.7,0,7.67-1.32,11.92-3.98c29.74-18.58,61.11-43.7,94.07-75.34
	c32.92-31.61,68.3-70.01,106.03-115.17c1.59-1.59,2.37-3.48,2.37-5.57c0-5.87-3.46-11.3-10.36-16.37
	c-6.92-5.05-15.67-7.54-26.31-7.54c-5.86,0-11.96,0.78-18.33,2.38c-25,6.36-56.59,30.57-94.85,72.53
	c-18.05,20.22-33.36,39.6-45.83,58.2c-12.51,18.58-22.47,36.4-29.89,53.4C1368.26,717.86,1367.22,723.97,1367.22,730.37z"/>
<path class="st0" d="M270.48,778.42c-13.28,0-19.95-9.3-19.95-27.91c0-37.72,29.51-86.06,88.5-145.04
	c27.08-27.12,52.6-49.03,76.52-65.77c23.91-16.75,46.22-29.35,66.95-37.86c4.78-1.59,9.98-3.05,15.56-4.38
	c5.57-1.35,11.25-2,17.12-2c6.38,0,12.78,0.65,19.13,2c6.4,1.34,12.77,3.05,19.15,5.17c9.03,1.08,14.06,1.32,15.13,0.81
	c9.58-1.59,16.48-5.05,20.72-10.34c1.08-1.08,2.67-1.62,4.79-1.62c2.12,0,4,1.31,5.61,3.98c1.56,2.65,2.07,4.52,1.56,5.56
	c-15.42,23.93-30.67,47.45-45.81,70.57c-15.17,23.09-29.89,46.6-44.25,70.53c-11.15,18.63-22.07,39.98-32.68,64.17
	c-10.64,24.21-20.36,48.6-29.09,73.33c-8.79,24.7-16.34,48.22-22.72,70.53c-6.38,22.35-10.65,41.18-12.78,56.64
	c-0.51,2.64-0.77,5.01-0.77,7.14c0,2.66,0,5.33,0,7.98c0,18.04,5.6,31.5,16.72,40.28c11.16,8.72,26.32,13.16,45.46,13.16
	c19.14,0,38-3.2,56.59-9.59c28.16-9.53,64.8-32.42,109.99-68.55c21.78-17.53,41.32-35.61,58.6-54.19
	c17.26-18.63,32.28-36.15,45.05-52.61c4.75-5.32,7.94-7.98,9.54-7.98c0.53,0.51,0.82,1.32,0.82,2.38c0,2.15-1.12,5.08-3.19,8.79
	c-12.27,18.05-27.01,37.18-44.28,57.38c-17.26,20.19-37.84,40.36-61.75,60.56c-22.33,18.07-42.39,32.94-60.21,44.68
	c-17.83,11.65-34.13,20.17-49.03,25.48c-7.46,2.67-14.89,4.64-22.31,5.97c-7.43,1.32-15.42,2.01-23.91,2.01
	c-12.74,0-24.46-2.01-35.07-5.97c-10.64-4-20.21-8.92-28.71-14.79c-10.1-5.84-17.12-14.2-21.13-25.08
	c-3.98-10.88-5.72-23.29-5.18-37.06c0.54-11.18,2.79-26.06,6.78-44.64c4-18.62,9.17-38.41,15.52-59.38
	c6.4-21.02,13.3-41.9,20.76-62.61c7.44-20.72,14.86-39.04,22.3-55c9.04-19.09,17.96-36.92,26.73-53.4
	c8.75-16.47,17.66-31.61,26.68-45.46c3.73-5.79,3.47-8.72-0.81-8.72c-0.48,0-1.3,0.5-2.37,1.54
	c-12.74,15.45-27.99,31.65-45.83,48.67c-17.82,16.99-38.4,35.59-61.79,55.8c-46.77,39.3-86.87,68.83-120.37,88.46
	C281.89,776.34,275.81,778.42,270.48,778.42z M298.38,722.65c0,12.75,4.79,19.11,14.37,19.11c3.66,0,7.67-1.31,11.91-3.97
	c29.79-18.59,61.13-43.71,94.11-75.32c32.92-31.65,68.24-70.02,105.99-115.22c1.62-1.58,2.39-3.45,2.39-5.57
	c0-5.81-3.45-11.27-10.36-16.32c-6.91-5.06-15.68-7.59-26.3-7.59c-5.87,0-11.94,0.78-18.3,2.41c-25.02,6.36-56.62,30.53-94.89,72.54
	c-18.09,20.17-33.38,39.55-45.86,58.19c-12.48,18.58-22.43,36.4-29.87,53.4C299.44,710.19,298.38,716.28,298.38,722.65z"/>
<path class="st0" d="M848.28,786.14c-0.53-4.24-0.53-7.69,0-10.35c0.53-3.73,3.46-9.82,8.78-18.32
	c7.42-14.36,17.01-30.46,28.67-48.25c11.7-17.79,25.29-37.87,40.71-60.2c15.39-22.32,29.2-41.18,41.41-56.57
	c12.22-15.4,22.58-27.36,31.09-35.86c3.22-2.69,7.7-5.19,13.58-7.57c5.8-2.42,10.02-2.82,12.74-1.21c2.12,1.59,1.08,3.94-3.18,7.17
	c-3.75,2.09-14.63,14.08-32.69,35.84c-20.73,23.96-39.05,50.24-55,78.91c-6.91,12.27-7.46,18.37-1.59,18.37
	c2.67,0,5.59-1.6,8.78-4.79c31.89-32.95,70.67-63.51,116.38-91.68c33.47-20.72,57.64-28.68,72.52-23.89
	c5.33,1.59,7.98,5.56,7.98,11.96c0,5.29-3.03,14.89-9.16,28.65c-6.11,13.87-15.05,32.21-26.71,55.04c-3.18,4.79-4.79,9.3-4.79,13.52
	c0,5.86,2.41,8.81,7.18,8.81c3.18,0,5.83-1.09,7.98-3.21c37.17-33.49,71.89-61.77,104.02-84.88c32.13-23.15,61.8-41.04,88.87-53.82
	c3.19-1.59,6.09-2.37,8.79-2.37c9.02,0,12.46,5.56,10.36,16.75c-2.12,2.12-4.41,4.64-6.78,7.56c-2.42,2.9-5.17,6.26-8.4,9.96
	c-10.6,23.36-22.96,48.22-37.06,74.54c-14.07,26.3-30.41,54.59-48.99,84.9c-5.35,7.44-7.98,13.83-7.98,19.09
	c0,4.27,1.83,6.42,5.56,6.42c2.12,0,4.24-0.55,6.39-1.62c2.11-1.04,4.78-2.12,7.98-3.17c39.31-18.07,88.47-36.42,147.44-55
	c41.49-12.76,79.32-22.83,113.59-30.29c34.27-7.43,65.47-11.95,93.66-13.55c22.84-1.08,43.57-0.11,62.17,2.78
	c18.62,2.93,35.1,8.62,49.44,17.12c29.22,17.05,43.84,38.04,43.84,63.02c0,7.43-1.05,14.3-3.19,20.72
	c-3.74,10.63-10.35,17.79-19.9,21.51c-4.28,2.68-7.73,3.97-10.39,3.97c-2.13,0-3.19-0.79-3.19-2.37c0-2.13,2.01-4.52,5.96-7.18
	c4.02-2.68,8.39-9.57,13.16-20.72c3.72-9.01,5.56-16.48,5.56-22.31c0-18.6-9.51-34.29-28.67-47.05
	c-20.21-13.81-48.1-20.74-83.71-20.74c-4.28,0-8.75,0.17-13.54,0.44c-4.77,0.25-9.59,0.64-14.34,1.19
	c-78.15,7.94-155.72,25.77-232.78,53.39c-81.29,28.7-149.06,63.79-203.25,105.21c-2.68,1.59-5.05,2.41-7.18,2.41
	c-6.33,0-9.57-2.9-9.57-8.77c0-2.15,0.78-3.97,2.41-5.56l19.13-19.13c-1.6-5.35-1.33-11.73,0.8-19.15
	c43.57-53.72,74.65-104.96,93.27-153.84c3.71-7.46,5.57-14.63,5.57-21.54c0-9.02-3.74-13.51-11.18-13.51
	c-4.24,0-9.56,2.37-15.94,7.14c-79.7,63.75-130.77,111.63-153.03,143.48c-1.09,1.07-3.1,2.65-6,4.8c-2.91,2.13-7.31,4.25-13.17,6.35
	c-6.91,3.19-12.46,5.73-16.75,7.61c-4.2,1.83-7.65,3.56-10.33,5.15c-3.2,1.62-6.54,0.58-9.96-3.19c-3.48-3.7-4.14-6.9-2-9.57
	c15.93-23.35,29.62-45.82,41.04-67.36c11.42-21.51,20.31-42.35,26.7-62.54c2.11-4.8,3.19-9.84,3.19-15.16
	c0-9.57-3.96-14.34-11.95-14.34c-2.11,0-5.59,0.77-10.37,2.36c-5.31,2.68-12.74,7.34-22.31,13.95
	c-9.56,6.66-21.29,16.09-35.06,28.29c-30.83,25.53-57.38,51.03-79.74,76.54c-5.83,6.37-12.47,14.49-19.94,24.33
	c-7.42,9.8-15.67,21.39-24.69,34.64c-1.59,2.67-7.99,6.12-19.14,10.36c-5.83,2.15-10.33,4.01-13.55,5.6
	c-3.16,1.6-5.3,2.91-6.38,3.97C849.86,789.9,848.81,788.82,848.28,786.14z"/>
<g>
	<path class="st0" d="M983.81,895.04c3.81,0,6.69,1.09,8.65,3.26c1.96,2.18,2.94,5.22,2.94,9.14c0,3.92-0.98,6.98-2.94,9.18
		c-1.96,2.2-4.84,3.27-8.65,3.23h-11.54v17.18h-5.03v-42H983.81z M982.11,915.15c2.86,0.04,4.95-0.61,6.27-1.94
		c1.32-1.33,1.99-3.25,1.99-5.77c0-2.51-0.66-4.42-1.99-5.73c-1.32-1.31-3.41-1.97-6.27-1.97h-9.85v15.41H982.11z"/>
	<path class="st0" d="M1001.49,915.6c0.56-1.94,1.41-3.63,2.54-5.06c1.13-1.43,2.52-2.56,4.18-3.38c1.66-0.82,3.56-1.23,5.72-1.23
		c2.19,0,4.1,0.41,5.74,1.23c1.64,0.83,3.03,1.95,4.16,3.38c1.13,1.43,1.98,3.11,2.54,5.06c0.56,1.94,0.85,4.03,0.85,6.26
		c0,2.24-0.28,4.32-0.85,6.24c-0.57,1.92-1.41,3.6-2.54,5.03c-1.13,1.43-2.51,2.55-4.16,3.35c-1.64,0.8-3.55,1.2-5.74,1.2
		c-2.15,0-4.06-0.4-5.72-1.2c-1.66-0.8-3.05-1.92-4.18-3.35c-1.13-1.43-1.98-3.1-2.54-5.03c-0.57-1.92-0.85-4-0.85-6.24
		C1000.64,919.63,1000.92,917.54,1001.49,915.6z M1006.07,926.77c0.44,1.43,1.05,2.63,1.83,3.59c0.78,0.96,1.68,1.7,2.73,2.21
		s2.14,0.76,3.31,0.76s2.27-0.25,3.31-0.76c1.04-0.51,1.95-1.24,2.73-2.21c0.78-0.96,1.38-2.16,1.83-3.59
		c0.44-1.43,0.66-3.07,0.66-4.91c0-1.84-0.22-3.48-0.66-4.91c-0.44-1.43-1.05-2.64-1.83-3.62c-0.78-0.98-1.69-1.72-2.73-2.24
		c-1.04-0.51-2.15-0.76-3.31-0.76s-2.27,0.25-3.31,0.76c-1.04,0.51-1.95,1.26-2.73,2.24c-0.78,0.98-1.39,2.19-1.83,3.62
		c-0.44,1.43-0.66,3.07-0.66,4.91C1005.41,923.7,1005.63,925.34,1006.07,926.77z"/>
	<path class="st0" d="M1037.91,906.63v6.41h0.11c1.09-2.47,2.44-4.3,4.02-5.47c1.59-1.18,3.6-1.73,6.04-1.65v5.29
		c-1.8,0-3.34,0.27-4.61,0.82c-1.27,0.55-2.29,1.35-3.07,2.41c-0.78,1.06-1.34,2.34-1.69,3.85c-0.36,1.51-0.53,3.24-0.53,5.2v13.53
		h-4.5v-30.41H1037.91z"/>
	<path class="st0" d="M1071.79,948.62v-15.7h-0.11c-0.74,1.68-1.91,2.9-3.49,3.65c-1.59,0.74-3.33,1.11-5.24,1.11
		c-2.12,0-3.96-0.43-5.53-1.29c-1.57-0.87-2.87-2.02-3.92-3.47s-1.83-3.14-2.36-5.06c-0.53-1.92-0.8-3.96-0.8-6.12
		c0-2.16,0.26-4.2,0.77-6.12c0.51-1.92,1.29-3.6,2.33-5.03c1.04-1.43,2.35-2.57,3.92-3.41c1.57-0.84,3.4-1.26,5.48-1.26
		c0.71,0,1.46,0.08,2.28,0.24s1.62,0.42,2.44,0.79s1.58,0.87,2.3,1.47c0.72,0.61,1.33,1.36,1.83,2.27h0.11v-4.06h4.5v42H1071.79z
		 M1055.61,926.24c0.34,1.35,0.85,2.56,1.54,3.62c0.69,1.06,1.57,1.9,2.65,2.53c1.08,0.63,2.34,0.94,3.79,0.94
		c1.52,0,2.81-0.33,3.86-1c1.06-0.67,1.92-1.54,2.6-2.62c0.67-1.08,1.15-2.3,1.45-3.68c0.3-1.37,0.45-2.76,0.45-4.18
		c0-1.49-0.16-2.93-0.48-4.32c-0.32-1.39-0.82-2.62-1.51-3.68c-0.69-1.06-1.58-1.91-2.68-2.56c-1.09-0.65-2.42-0.97-3.97-0.97
		c-1.52,0-2.81,0.33-3.86,1c-1.06,0.67-1.91,1.55-2.54,2.65c-0.64,1.1-1.09,2.35-1.37,3.76c-0.28,1.41-0.43,2.86-0.43,4.35
		C1055.11,923.51,1055.28,924.89,1055.61,926.24z"/>
	<path class="st0" d="M1102.97,937.04v-4.82h-0.11c-0.95,1.88-2.17,3.27-3.65,4.15c-1.48,0.88-3.23,1.32-5.24,1.32
		c-1.8,0-3.3-0.26-4.5-0.79c-1.2-0.53-2.17-1.28-2.91-2.27c-0.74-0.98-1.26-2.15-1.56-3.5c-0.3-1.35-0.45-2.85-0.45-4.5v-20h4.5
		v20.59c0,1.88,0.49,3.37,1.48,4.47c0.99,1.1,2.35,1.65,4.08,1.65c1.38,0,2.57-0.23,3.57-0.71c1-0.47,1.84-1.13,2.52-2
		c0.67-0.86,1.17-1.87,1.51-3.03c0.34-1.16,0.5-2.42,0.5-3.79v-17.18h4.5v30.41H1102.97z"/>
	<path class="st0" d="M1134.68,935.1c-2.05,1.72-4.63,2.59-7.73,2.59c-2.19,0-4.09-0.39-5.69-1.17c-1.61-0.79-2.96-1.88-4.05-3.29
		c-1.09-1.41-1.92-3.1-2.46-5.06c-0.55-1.96-0.86-4.1-0.93-6.41c0-2.31,0.32-4.43,0.95-6.35c0.64-1.92,1.52-3.59,2.67-5
		c1.15-1.41,2.51-2.51,4.08-3.29c1.57-0.78,3.29-1.17,5.16-1.17c2.44,0,4.46,0.56,6.06,1.68s2.89,2.54,3.86,4.26
		c0.97,1.73,1.64,3.61,2.01,5.65c0.37,2.04,0.52,3.98,0.45,5.82h-20.49c-0.03,1.33,0.11,2.6,0.43,3.79c0.32,1.2,0.83,2.26,1.53,3.18
		c0.71,0.92,1.6,1.66,2.7,2.21c1.09,0.55,2.38,0.82,3.87,0.82c1.9,0,3.47-0.49,4.69-1.47c1.22-0.98,2.02-2.47,2.41-4.47h4.45
		C1138.05,930.8,1136.73,933.37,1134.68,935.1z M1133.59,915.57c-0.41-1.06-0.96-1.97-1.64-2.74c-0.69-0.77-1.5-1.37-2.43-1.82
		c-0.94-0.45-1.97-0.68-3.1-0.68c-1.16,0-2.22,0.23-3.15,0.68c-0.94,0.45-1.74,1.07-2.41,1.85c-0.67,0.79-1.2,1.7-1.59,2.74
		c-0.39,1.04-0.62,2.15-0.69,3.32h15.72C1134.24,917.74,1134,916.63,1133.59,915.57z"/>
	<path class="st0" d="M1165.86,895.04v42h-4.5v-42H1165.86z"/>
	<path class="st0" d="M1198.41,936.92c-0.78,0.51-1.85,0.76-3.23,0.76c-1.16,0-2.09-0.36-2.78-1.09c-0.69-0.73-1.03-1.91-1.03-3.56
		c-1.23,1.65-2.67,2.83-4.32,3.56c-1.64,0.73-3.41,1.09-5.32,1.09c-1.23,0-2.41-0.16-3.52-0.47c-1.11-0.31-2.07-0.8-2.88-1.47
		c-0.81-0.67-1.45-1.54-1.93-2.62c-0.48-1.08-0.72-2.38-0.72-3.91c0-1.72,0.27-3.14,0.8-4.24s1.22-1.99,2.09-2.68
		c0.87-0.69,1.85-1.2,2.96-1.56c1.11-0.35,2.25-0.65,3.41-0.88c1.23-0.27,2.41-0.48,3.52-0.62c1.11-0.14,2.09-0.33,2.94-0.59
		c0.85-0.26,1.52-0.63,2.01-1.12c0.49-0.49,0.74-1.2,0.74-2.15c0-1.1-0.18-1.98-0.56-2.65c-0.37-0.67-0.85-1.17-1.43-1.53
		c-0.58-0.35-1.24-0.59-1.96-0.71c-0.72-0.12-1.44-0.18-2.14-0.18c-1.91,0-3.49,0.4-4.76,1.2c-1.27,0.81-1.96,2.32-2.07,4.56h-4.5
		c0.07-1.88,0.42-3.47,1.06-4.76c0.64-1.29,1.48-2.34,2.54-3.15c1.06-0.8,2.27-1.38,3.63-1.73c1.36-0.35,2.81-0.53,4.37-0.53
		c1.23,0,2.46,0.1,3.68,0.29c1.22,0.2,2.32,0.6,3.31,1.2s1.78,1.46,2.38,2.55c0.6,1.09,0.9,2.53,0.9,4.28v15.62
		c0,1.17,0.06,2.03,0.18,2.58c0.12,0.55,0.54,0.82,1.24,0.82c0.39,0,0.85-0.08,1.38-0.24V936.92z M1191.11,921.33
		c-0.56,0.47-1.3,0.81-2.22,1.02c-0.92,0.22-1.88,0.39-2.89,0.53c-1,0.14-2.02,0.3-3.04,0.47c-1.02,0.18-1.94,0.46-2.75,0.85
		c-0.81,0.39-1.47,0.95-1.99,1.67c-0.51,0.72-0.77,1.71-0.77,2.95c0,0.82,0.15,1.51,0.45,2.08c0.3,0.57,0.69,1.02,1.16,1.38
		c0.48,0.35,1.03,0.61,1.67,0.76c0.64,0.15,1.3,0.23,2.01,0.23c1.48,0,2.75-0.23,3.81-0.68c1.06-0.45,1.92-1.01,2.6-1.7
		c0.67-0.68,1.16-1.42,1.48-2.22c0.32-0.8,0.48-1.55,0.48-2.25V921.33z"/>
	<path class="st0" d="M1224.62,895.04v15.7h0.11c0.74-1.68,1.91-2.91,3.49-3.67c1.59-0.77,3.33-1.15,5.24-1.15
		c2.12,0,3.96,0.43,5.53,1.29c1.57,0.86,2.88,2.03,3.92,3.5c1.04,1.47,1.82,3.16,2.36,5.09c0.53,1.92,0.79,3.96,0.79,6.12
		c0,2.16-0.26,4.2-0.77,6.12c-0.51,1.92-1.29,3.6-2.33,5.03c-1.04,1.43-2.35,2.56-3.92,3.38c-1.57,0.83-3.4,1.23-5.48,1.23
		c-0.67,0-1.42-0.08-2.25-0.23c-0.83-0.16-1.65-0.41-2.46-0.77c-0.81-0.35-1.58-0.83-2.3-1.44c-0.73-0.61-1.33-1.36-1.83-2.27h-0.11
		v4.06h-4.5v-42H1224.62z M1240.79,917.42c-0.34-1.35-0.85-2.56-1.53-3.62c-0.69-1.06-1.57-1.9-2.65-2.53
		c-1.07-0.63-2.34-0.94-3.78-0.94c-1.52,0-2.81,0.33-3.86,1c-1.06,0.67-1.93,1.54-2.6,2.62c-0.67,1.08-1.16,2.3-1.46,3.68
		c-0.3,1.37-0.45,2.76-0.45,4.18c0,1.49,0.16,2.93,0.48,4.32c0.32,1.39,0.82,2.62,1.51,3.68c0.69,1.06,1.58,1.91,2.67,2.56
		c1.09,0.65,2.42,0.97,3.97,0.97c1.55,0,2.85-0.33,3.89-1c1.04-0.67,1.88-1.55,2.51-2.65c0.64-1.09,1.09-2.35,1.38-3.76
		c0.28-1.41,0.42-2.86,0.42-4.35C1241.29,920.16,1241.13,918.77,1240.79,917.42z"/>
	<path class="st0" d="M1272.05,935.1c-2.05,1.72-4.62,2.59-7.73,2.59c-2.19,0-4.08-0.39-5.69-1.17c-1.61-0.79-2.95-1.88-4.05-3.29
		c-1.09-1.41-1.91-3.1-2.46-5.06c-0.55-1.96-0.86-4.1-0.93-6.41c0-2.31,0.32-4.43,0.95-6.35c0.64-1.92,1.53-3.59,2.68-5
		c1.14-1.41,2.51-2.51,4.08-3.29c1.57-0.78,3.29-1.17,5.16-1.17c2.44,0,4.46,0.56,6.06,1.68c1.6,1.12,2.89,2.54,3.86,4.26
		c0.97,1.73,1.64,3.61,2.01,5.65c0.37,2.04,0.52,3.98,0.45,5.82h-20.49c-0.04,1.33,0.11,2.6,0.42,3.79c0.32,1.2,0.83,2.26,1.53,3.18
		c0.71,0.92,1.61,1.66,2.7,2.21c1.09,0.55,2.38,0.82,3.86,0.82c1.91,0,3.47-0.49,4.69-1.47c1.22-0.98,2.02-2.47,2.41-4.47h4.45
		C1275.42,930.8,1274.09,933.37,1272.05,935.1z M1270.96,915.57c-0.41-1.06-0.95-1.97-1.64-2.74c-0.69-0.77-1.5-1.37-2.44-1.82
		c-0.94-0.45-1.97-0.68-3.1-0.68c-1.16,0-2.21,0.23-3.15,0.68c-0.94,0.45-1.74,1.07-2.41,1.85c-0.67,0.79-1.2,1.7-1.59,2.74
		c-0.39,1.04-0.62,2.15-0.69,3.32h15.72C1271.6,917.74,1271.37,916.63,1270.96,915.57z"/>
	<path class="st0" d="M1287.19,895.04v42h-4.5v-42H1287.19z"/>
	<path class="st0" d="M1300.26,895.04v42h-4.5v-42H1300.26z"/>
	<path class="st0" d="M1327.95,935.1c-2.05,1.72-4.63,2.59-7.73,2.59c-2.19,0-4.09-0.39-5.69-1.17c-1.61-0.79-2.96-1.88-4.05-3.29
		c-1.09-1.41-1.92-3.1-2.46-5.06c-0.55-1.96-0.86-4.1-0.93-6.41c0-2.31,0.32-4.43,0.95-6.35c0.64-1.92,1.52-3.59,2.67-5
		c1.15-1.41,2.51-2.51,4.08-3.29c1.57-0.78,3.29-1.17,5.16-1.17c2.44,0,4.46,0.56,6.06,1.68s2.89,2.54,3.86,4.26
		c0.97,1.73,1.64,3.61,2.01,5.65c0.37,2.04,0.52,3.98,0.45,5.82h-20.49c-0.03,1.33,0.11,2.6,0.43,3.79c0.32,1.2,0.83,2.26,1.53,3.18
		c0.71,0.92,1.6,1.66,2.7,2.21c1.09,0.55,2.38,0.82,3.87,0.82c1.9,0,3.47-0.49,4.69-1.47c1.22-0.98,2.02-2.47,2.41-4.47h4.45
		C1331.32,930.8,1330,933.37,1327.95,935.1z M1326.86,915.57c-0.41-1.06-0.95-1.97-1.64-2.74c-0.69-0.77-1.5-1.37-2.43-1.82
		c-0.94-0.45-1.97-0.68-3.1-0.68c-1.16,0-2.22,0.23-3.15,0.68c-0.93,0.45-1.74,1.07-2.41,1.85c-0.67,0.79-1.2,1.7-1.59,2.74
		c-0.39,1.04-0.62,2.15-0.69,3.32h15.72C1327.51,917.74,1327.27,916.63,1326.86,915.57z"/>
	<path class="st0" d="M1352.62,911.04h-15.46v-4.41h21.28v3.41l-16.73,22.59h17.47v4.41h-23.08v-3.82L1352.62,911.04z"/>
	<path class="st0" d="M1389.3,936.92c-0.78,0.51-1.85,0.76-3.23,0.76c-1.16,0-2.09-0.36-2.78-1.09c-0.69-0.73-1.03-1.91-1.03-3.56
		c-1.23,1.65-2.67,2.83-4.31,3.56c-1.64,0.73-3.41,1.09-5.32,1.09c-1.23,0-2.41-0.16-3.52-0.47c-1.11-0.31-2.07-0.8-2.89-1.47
		c-0.81-0.67-1.46-1.54-1.93-2.62c-0.48-1.08-0.72-2.38-0.72-3.91c0-1.72,0.27-3.14,0.8-4.24s1.23-1.99,2.09-2.68
		c0.86-0.69,1.85-1.2,2.96-1.56c1.11-0.35,2.25-0.65,3.42-0.88c1.23-0.27,2.41-0.48,3.52-0.62c1.11-0.14,2.09-0.33,2.94-0.59
		c0.85-0.26,1.51-0.63,2.01-1.12c0.49-0.49,0.74-1.2,0.74-2.15c0-1.1-0.19-1.98-0.56-2.65c-0.37-0.67-0.85-1.17-1.43-1.53
		c-0.58-0.35-1.23-0.59-1.96-0.71c-0.73-0.12-1.44-0.18-2.15-0.18c-1.9,0-3.49,0.4-4.77,1.2c-1.27,0.81-1.96,2.32-2.06,4.56h-4.5
		c0.07-1.88,0.42-3.47,1.06-4.76c0.64-1.29,1.48-2.34,2.54-3.15c1.06-0.8,2.27-1.38,3.63-1.73c1.36-0.35,2.82-0.53,4.37-0.53
		c1.23,0,2.46,0.1,3.68,0.29c1.22,0.2,2.32,0.6,3.31,1.2s1.78,1.46,2.38,2.55c0.6,1.09,0.9,2.53,0.9,4.28v15.62
		c0,1.17,0.06,2.03,0.19,2.58c0.12,0.55,0.54,0.82,1.24,0.82c0.39,0,0.85-0.08,1.37-0.24V936.92z M1382,921.33
		c-0.57,0.47-1.31,0.81-2.22,1.02c-0.92,0.22-1.88,0.39-2.88,0.53c-1.01,0.14-2.02,0.3-3.04,0.47c-1.02,0.18-1.94,0.46-2.75,0.85
		c-0.82,0.39-1.47,0.95-1.99,1.67c-0.51,0.72-0.77,1.71-0.77,2.95c0,0.82,0.15,1.51,0.45,2.08c0.3,0.57,0.69,1.02,1.16,1.38
		c0.48,0.35,1.03,0.61,1.67,0.76c0.64,0.15,1.3,0.23,2.01,0.23c1.48,0,2.76-0.23,3.81-0.68c1.06-0.45,1.92-1.01,2.59-1.7
		c0.67-0.68,1.16-1.42,1.48-2.22c0.32-0.8,0.48-1.55,0.48-2.25V921.33z"/>
	<path class="st0" d="M1414.29,930.24c0.42,0.77,0.98,1.37,1.67,1.82c0.69,0.45,1.46,0.78,2.33,0.97c0.87,0.2,1.76,0.29,2.68,0.29
		c0.71,0,1.44-0.06,2.22-0.18c0.78-0.12,1.49-0.33,2.14-0.65c0.65-0.31,1.19-0.78,1.61-1.38c0.43-0.61,0.64-1.38,0.64-2.32
		c0-1.29-0.44-2.27-1.32-2.94c-0.89-0.67-1.99-1.2-3.31-1.62c-1.32-0.41-2.76-0.78-4.31-1.12c-1.55-0.33-2.99-0.8-4.32-1.41
		c-1.32-0.61-2.43-1.46-3.31-2.56c-0.89-1.1-1.32-2.63-1.32-4.59c0-1.53,0.31-2.84,0.93-3.94c0.62-1.1,1.41-1.99,2.38-2.68
		c0.97-0.69,2.07-1.2,3.28-1.53s2.43-0.5,3.62-0.5c1.55,0,2.98,0.15,4.29,0.44c1.3,0.3,2.46,0.81,3.47,1.53
		c1,0.73,1.81,1.71,2.41,2.94c0.6,1.23,0.95,2.78,1.06,4.62h-4.5c-0.07-0.98-0.3-1.8-0.69-2.44c-0.39-0.65-0.88-1.17-1.48-1.56
		c-0.6-0.39-1.26-0.68-1.99-0.86c-0.72-0.18-1.45-0.26-2.2-0.26c-0.67,0-1.35,0.06-2.04,0.18c-0.69,0.12-1.31,0.32-1.88,0.62
		c-0.57,0.3-1.02,0.69-1.38,1.18c-0.35,0.49-0.53,1.13-0.53,1.91c0,0.87,0.27,1.58,0.82,2.15c0.55,0.57,1.24,1.04,2.09,1.41
		c0.85,0.37,1.8,0.69,2.86,0.94c1.06,0.25,2.12,0.52,3.17,0.79c1.13,0.28,2.23,0.61,3.31,1c1.07,0.39,2.03,0.91,2.86,1.56
		c0.83,0.65,1.5,1.46,2.01,2.44c0.51,0.98,0.77,2.2,0.77,3.65c0,1.84-0.34,3.37-1.03,4.59c-0.69,1.21-1.59,2.2-2.7,2.94
		c-1.11,0.75-2.36,1.26-3.76,1.56c-1.39,0.29-2.78,0.44-4.16,0.44c-1.52,0-2.96-0.18-4.34-0.53c-1.38-0.35-2.6-0.93-3.65-1.73
		c-1.06-0.81-1.91-1.86-2.54-3.18c-0.64-1.31-0.99-2.91-1.06-4.79h4.5C1413.64,928.55,1413.86,929.48,1414.29,930.24z"/>
	<path class="st0" d="M1458.01,935.1c-2.05,1.72-4.62,2.59-7.73,2.59c-2.19,0-4.08-0.39-5.69-1.17s-2.95-1.88-4.05-3.29
		c-1.09-1.41-1.91-3.1-2.46-5.06c-0.55-1.96-0.86-4.1-0.93-6.41c0-2.31,0.32-4.43,0.95-6.35c0.64-1.92,1.53-3.59,2.68-5
		c1.14-1.41,2.51-2.51,4.08-3.29c1.57-0.78,3.29-1.17,5.16-1.17c2.44,0,4.46,0.56,6.06,1.68c1.6,1.12,2.89,2.54,3.86,4.26
		c0.97,1.73,1.64,3.61,2.01,5.65c0.37,2.04,0.52,3.98,0.45,5.82h-20.49c-0.04,1.33,0.11,2.6,0.42,3.79c0.32,1.2,0.83,2.26,1.53,3.18
		c0.71,0.92,1.61,1.66,2.7,2.21c1.09,0.55,2.38,0.82,3.86,0.82c1.91,0,3.47-0.49,4.69-1.47c1.22-0.98,2.02-2.47,2.41-4.47h4.45
		C1461.38,930.8,1460.06,933.37,1458.01,935.1z M1456.93,915.57c-0.41-1.06-0.95-1.97-1.64-2.74c-0.69-0.77-1.5-1.37-2.44-1.82
		c-0.93-0.45-1.97-0.68-3.1-0.68c-1.16,0-2.21,0.23-3.15,0.68c-0.94,0.45-1.74,1.07-2.41,1.85c-0.67,0.79-1.2,1.7-1.59,2.74
		c-0.39,1.04-0.62,2.15-0.69,3.32h15.72C1457.57,917.74,1457.33,916.63,1456.93,915.57z"/>
	<path class="st0" d="M1489.2,895.04v42h-4.5v-42H1489.2z"/>
	<path class="st0" d="M1502.27,895.04v42h-4.5v-42H1502.27z"/>
	<path class="st0" d="M1529.95,935.1c-2.05,1.72-4.62,2.59-7.73,2.59c-2.19,0-4.08-0.39-5.69-1.17s-2.95-1.88-4.05-3.29
		c-1.09-1.41-1.91-3.1-2.46-5.06c-0.55-1.96-0.86-4.1-0.92-6.41c0-2.31,0.32-4.43,0.95-6.35c0.64-1.92,1.53-3.59,2.68-5
		c1.14-1.41,2.51-2.51,4.08-3.29c1.57-0.78,3.29-1.17,5.16-1.17c2.44,0,4.46,0.56,6.06,1.68c1.6,1.12,2.89,2.54,3.86,4.26
		c0.97,1.73,1.64,3.61,2.01,5.65c0.37,2.04,0.52,3.98,0.45,5.82h-20.49c-0.04,1.33,0.11,2.6,0.42,3.79c0.32,1.2,0.83,2.26,1.53,3.18
		c0.71,0.92,1.61,1.66,2.7,2.21c1.09,0.55,2.38,0.82,3.86,0.82c1.91,0,3.47-0.49,4.69-1.47c1.22-0.98,2.02-2.47,2.41-4.47h4.45
		C1533.32,930.8,1532,933.37,1529.95,935.1z M1528.87,915.57c-0.41-1.06-0.95-1.97-1.64-2.74c-0.69-0.77-1.5-1.37-2.44-1.82
		c-0.94-0.45-1.97-0.68-3.1-0.68c-1.16,0-2.21,0.23-3.15,0.68c-0.93,0.45-1.74,1.07-2.41,1.85c-0.67,0.79-1.2,1.7-1.59,2.74
		c-0.39,1.04-0.62,2.15-0.69,3.32h15.72C1529.51,917.74,1529.28,916.63,1528.87,915.57z"/>
	<path class="st0" d="M1547.85,937.04l-10.17-30.41h5.03l7.68,25.35h0.11l7.46-25.35h4.71l-10.01,30.41H1547.85z"/>
	<path class="st0" d="M1592.37,936.92c-0.78,0.51-1.85,0.76-3.23,0.76c-1.16,0-2.09-0.36-2.78-1.09c-0.69-0.73-1.03-1.91-1.03-3.56
		c-1.23,1.65-2.67,2.83-4.32,3.56c-1.64,0.73-3.41,1.09-5.32,1.09c-1.23,0-2.41-0.16-3.52-0.47c-1.11-0.31-2.07-0.8-2.89-1.47
		c-0.81-0.67-1.45-1.54-1.93-2.62c-0.48-1.08-0.72-2.38-0.72-3.91c0-1.72,0.27-3.14,0.8-4.24c0.53-1.1,1.22-1.99,2.09-2.68
		c0.87-0.69,1.85-1.2,2.96-1.56c1.11-0.35,2.25-0.65,3.41-0.88c1.23-0.27,2.41-0.48,3.52-0.62c1.11-0.14,2.09-0.33,2.94-0.59
		c0.85-0.26,1.52-0.63,2.01-1.12c0.49-0.49,0.74-1.2,0.74-2.15c0-1.1-0.18-1.98-0.56-2.65c-0.37-0.67-0.85-1.17-1.43-1.53
		c-0.58-0.35-1.24-0.59-1.96-0.71c-0.72-0.12-1.44-0.18-2.14-0.18c-1.91,0-3.49,0.4-4.77,1.2c-1.27,0.81-1.96,2.32-2.07,4.56h-4.5
		c0.07-1.88,0.42-3.47,1.06-4.76c0.64-1.29,1.48-2.34,2.54-3.15c1.06-0.8,2.27-1.38,3.63-1.73c1.36-0.35,2.81-0.53,4.37-0.53
		c1.23,0,2.46,0.1,3.68,0.29c1.22,0.2,2.32,0.6,3.31,1.2s1.78,1.46,2.38,2.55s0.9,2.53,0.9,4.28v15.62c0,1.17,0.06,2.03,0.18,2.58
		c0.12,0.55,0.54,0.82,1.24,0.82c0.39,0,0.85-0.08,1.38-0.24V936.92z M1585.06,921.33c-0.56,0.47-1.3,0.81-2.22,1.02
		c-0.92,0.22-1.88,0.39-2.88,0.53c-1,0.14-2.02,0.3-3.04,0.47c-1.02,0.18-1.94,0.46-2.75,0.85c-0.81,0.39-1.47,0.95-1.99,1.67
		c-0.51,0.72-0.77,1.71-0.77,2.95c0,0.82,0.15,1.51,0.45,2.08s0.69,1.02,1.16,1.38c0.48,0.35,1.03,0.61,1.67,0.76
		c0.64,0.15,1.3,0.23,2.01,0.23c1.48,0,2.75-0.23,3.81-0.68c1.06-0.45,1.92-1.01,2.6-1.7c0.67-0.68,1.16-1.42,1.48-2.22
		c0.32-0.8,0.48-1.55,0.48-2.25V921.33z"/>
	<path class="st0" d="M1633.29,935.1c-2.05,1.72-4.63,2.59-7.73,2.59c-2.19,0-4.09-0.39-5.69-1.17c-1.61-0.79-2.96-1.88-4.05-3.29
		c-1.09-1.41-1.92-3.1-2.46-5.06c-0.55-1.96-0.86-4.1-0.93-6.41c0-2.31,0.32-4.43,0.95-6.35c0.64-1.92,1.52-3.59,2.67-5
		c1.15-1.41,2.51-2.51,4.08-3.29c1.57-0.78,3.29-1.17,5.16-1.17c2.44,0,4.46,0.56,6.06,1.68s2.89,2.54,3.86,4.26
		c0.97,1.73,1.64,3.61,2.01,5.65c0.37,2.04,0.52,3.98,0.45,5.82h-20.49c-0.03,1.33,0.11,2.6,0.43,3.79c0.32,1.2,0.83,2.26,1.53,3.18
		c0.71,0.92,1.6,1.66,2.7,2.21c1.09,0.55,2.38,0.82,3.87,0.82c1.9,0,3.47-0.49,4.69-1.47c1.22-0.98,2.02-2.47,2.41-4.47h4.45
		C1636.66,930.8,1635.34,933.37,1633.29,935.1z M1632.2,915.57c-0.41-1.06-0.96-1.97-1.64-2.74c-0.69-0.77-1.5-1.37-2.43-1.82
		c-0.94-0.45-1.97-0.68-3.1-0.68c-1.16,0-2.22,0.23-3.15,0.68c-0.94,0.45-1.74,1.07-2.41,1.85c-0.67,0.79-1.2,1.7-1.59,2.74
		c-0.39,1.04-0.62,2.15-0.69,3.32h15.72C1632.85,917.74,1632.61,916.63,1632.2,915.57z"/>
	<path class="st0" d="M1647.9,906.63v4.82h0.11c1.87-3.69,4.83-5.53,8.89-5.53c1.8,0,3.3,0.27,4.5,0.82c1.2,0.55,2.17,1.31,2.91,2.3
		c0.74,0.98,1.26,2.15,1.56,3.5c0.3,1.35,0.45,2.85,0.45,4.5v20h-4.5v-20.59c0-1.88-0.5-3.37-1.48-4.47
		c-0.99-1.1-2.35-1.65-4.08-1.65c-1.37,0-2.57,0.23-3.57,0.71c-1,0.47-1.84,1.14-2.51,2c-0.67,0.86-1.17,1.87-1.51,3.03
		c-0.34,1.16-0.5,2.42-0.5,3.79v17.18h-4.5v-30.41H1647.9z"/>
	<path class="st0" d="M1709.83,935.1c-2.05,1.72-4.62,2.59-7.73,2.59c-2.19,0-4.08-0.39-5.69-1.17s-2.95-1.88-4.05-3.29
		c-1.09-1.41-1.91-3.1-2.46-5.06c-0.55-1.96-0.86-4.1-0.93-6.41c0-2.31,0.32-4.43,0.95-6.35s1.53-3.59,2.68-5
		c1.14-1.41,2.51-2.51,4.08-3.29c1.57-0.78,3.29-1.17,5.16-1.17c2.44,0,4.46,0.56,6.06,1.68c1.6,1.12,2.89,2.54,3.86,4.26
		c0.97,1.73,1.64,3.61,2.01,5.65c0.37,2.04,0.52,3.98,0.45,5.82h-20.49c-0.04,1.33,0.11,2.6,0.42,3.79c0.32,1.2,0.83,2.26,1.53,3.18
		c0.71,0.92,1.61,1.66,2.7,2.21c1.09,0.55,2.38,0.82,3.86,0.82c1.91,0,3.47-0.49,4.69-1.47c1.22-0.98,2.02-2.47,2.41-4.47h4.45
		C1713.2,930.8,1711.88,933.37,1709.83,935.1z M1708.75,915.57c-0.41-1.06-0.95-1.97-1.64-2.74c-0.69-0.77-1.5-1.37-2.44-1.82
		c-0.93-0.45-1.97-0.68-3.1-0.68c-1.16,0-2.21,0.23-3.15,0.68c-0.94,0.45-1.74,1.07-2.41,1.85c-0.67,0.79-1.2,1.7-1.59,2.74
		c-0.39,1.04-0.62,2.15-0.69,3.32h15.72C1709.39,917.74,1709.16,916.63,1708.75,915.57z"/>
	<path class="st0" d="M1724.97,895.04v42h-4.5v-42H1724.97z"/>
	<path class="st0" d="M1773.57,936.92c-0.78,0.51-1.85,0.76-3.23,0.76c-1.16,0-2.09-0.36-2.78-1.09c-0.69-0.73-1.03-1.91-1.03-3.56
		c-1.23,1.65-2.67,2.83-4.31,3.56c-1.64,0.73-3.41,1.09-5.32,1.09c-1.23,0-2.41-0.16-3.52-0.47c-1.11-0.31-2.07-0.8-2.88-1.47
		c-0.81-0.67-1.46-1.54-1.93-2.62c-0.48-1.08-0.72-2.38-0.72-3.91c0-1.72,0.27-3.14,0.8-4.24s1.23-1.99,2.09-2.68
		c0.86-0.69,1.85-1.2,2.96-1.56c1.11-0.35,2.25-0.65,3.42-0.88c1.23-0.27,2.41-0.48,3.52-0.62c1.11-0.14,2.09-0.33,2.94-0.59
		c0.85-0.26,1.51-0.63,2.01-1.12c0.49-0.49,0.74-1.2,0.74-2.15c0-1.1-0.19-1.98-0.56-2.65c-0.37-0.67-0.85-1.17-1.43-1.53
		c-0.58-0.35-1.23-0.59-1.96-0.71c-0.73-0.12-1.44-0.18-2.15-0.18c-1.9,0-3.49,0.4-4.76,1.2c-1.27,0.81-1.96,2.32-2.06,4.56h-4.5
		c0.07-1.88,0.42-3.47,1.06-4.76c0.64-1.29,1.48-2.34,2.54-3.15c1.06-0.8,2.27-1.38,3.63-1.73c1.36-0.35,2.82-0.53,4.37-0.53
		c1.23,0,2.46,0.1,3.68,0.29c1.22,0.2,2.32,0.6,3.31,1.2s1.78,1.46,2.38,2.55c0.6,1.09,0.9,2.53,0.9,4.28v15.62
		c0,1.17,0.06,2.03,0.19,2.58c0.12,0.55,0.54,0.82,1.24,0.82c0.39,0,0.85-0.08,1.37-0.24V936.92z M1766.26,921.33
		c-0.57,0.47-1.31,0.81-2.22,1.02c-0.92,0.22-1.88,0.39-2.89,0.53c-1.01,0.14-2.02,0.3-3.04,0.47c-1.02,0.18-1.94,0.46-2.75,0.85
		c-0.82,0.39-1.47,0.95-1.99,1.67c-0.51,0.72-0.77,1.71-0.77,2.95c0,0.82,0.15,1.51,0.45,2.08c0.3,0.57,0.69,1.02,1.16,1.38
		c0.48,0.35,1.03,0.61,1.67,0.76c0.64,0.15,1.3,0.23,2.01,0.23c1.48,0,2.76-0.23,3.81-0.68c1.06-0.45,1.92-1.01,2.59-1.7
		c0.67-0.68,1.16-1.42,1.48-2.22c0.32-0.8,0.48-1.55,0.48-2.25V921.33z"/>
	<path class="st0" d="M1783.84,895.04v42h-4.5v-42H1783.84z"/>
	<path class="st0" d="M1796.39,906.63v4.47h0.11c2.05-3.45,4.99-5.17,8.84-5.17c1.69,0,3.23,0.39,4.61,1.17
		c1.38,0.79,2.35,2.12,2.91,4c0.92-1.64,2.13-2.92,3.63-3.82c1.5-0.9,3.15-1.35,4.95-1.35c1.38,0,2.62,0.17,3.73,0.5
		c1.11,0.33,2.06,0.85,2.86,1.56c0.8,0.71,1.41,1.62,1.85,2.74c0.44,1.11,0.66,2.46,0.66,4.03v22.29h-4.5V917.1
		c0-0.94-0.07-1.82-0.21-2.65c-0.14-0.82-0.41-1.54-0.8-2.15c-0.39-0.61-0.93-1.09-1.61-1.44c-0.69-0.35-1.58-0.53-2.68-0.53
		c-2.22,0-3.97,0.71-5.24,2.12c-1.27,1.41-1.9,3.29-1.9,5.65v18.94h-4.5V917.1c0-0.98-0.08-1.88-0.24-2.71
		c-0.16-0.82-0.43-1.54-0.82-2.15c-0.39-0.61-0.91-1.08-1.56-1.41c-0.65-0.33-1.49-0.5-2.52-0.5c-1.3,0-2.43,0.29-3.36,0.88
		c-0.94,0.59-1.69,1.29-2.28,2.12c-0.58,0.83-1,1.68-1.27,2.56c-0.26,0.88-0.4,1.62-0.4,2.21v18.94h-4.5v-30.41H1796.39z"/>
	<path class="st0" d="M1862.88,936.92c-0.78,0.51-1.85,0.76-3.23,0.76c-1.16,0-2.09-0.36-2.78-1.09s-1.03-1.91-1.03-3.56
		c-1.23,1.65-2.67,2.83-4.32,3.56c-1.64,0.73-3.41,1.09-5.32,1.09c-1.23,0-2.41-0.16-3.52-0.47c-1.11-0.31-2.07-0.8-2.89-1.47
		c-0.81-0.67-1.45-1.54-1.93-2.62c-0.48-1.08-0.72-2.38-0.72-3.91c0-1.72,0.27-3.14,0.8-4.24c0.53-1.1,1.22-1.99,2.09-2.68
		c0.87-0.69,1.85-1.2,2.96-1.56c1.11-0.35,2.25-0.65,3.41-0.88c1.23-0.27,2.41-0.48,3.52-0.62c1.11-0.14,2.09-0.33,2.94-0.59
		c0.85-0.26,1.52-0.63,2.01-1.12c0.49-0.49,0.74-1.2,0.74-2.15c0-1.1-0.18-1.98-0.56-2.65c-0.37-0.67-0.85-1.17-1.43-1.53
		c-0.58-0.35-1.24-0.59-1.96-0.71c-0.72-0.12-1.44-0.18-2.14-0.18c-1.91,0-3.49,0.4-4.77,1.2c-1.27,0.81-1.96,2.32-2.07,4.56h-4.5
		c0.07-1.88,0.42-3.47,1.06-4.76c0.64-1.29,1.48-2.34,2.54-3.15c1.06-0.8,2.27-1.38,3.63-1.73c1.36-0.35,2.81-0.53,4.37-0.53
		c1.23,0,2.46,0.1,3.68,0.29c1.22,0.2,2.32,0.6,3.31,1.2s1.78,1.46,2.38,2.55s0.9,2.53,0.9,4.28v15.62c0,1.17,0.06,2.03,0.18,2.58
		c0.12,0.55,0.54,0.82,1.24,0.82c0.39,0,0.85-0.08,1.38-0.24V936.92z M1855.57,921.33c-0.56,0.47-1.3,0.81-2.22,1.02
		c-0.92,0.22-1.88,0.39-2.88,0.53c-1,0.14-2.02,0.3-3.04,0.47c-1.02,0.18-1.94,0.46-2.75,0.85c-0.81,0.39-1.47,0.95-1.99,1.67
		c-0.51,0.72-0.77,1.71-0.77,2.95c0,0.82,0.15,1.51,0.45,2.08s0.69,1.02,1.16,1.38c0.48,0.35,1.03,0.61,1.67,0.76
		c0.64,0.15,1.3,0.23,2.01,0.23c1.48,0,2.75-0.23,3.81-0.68c1.06-0.45,1.92-1.01,2.6-1.7c0.67-0.68,1.16-1.42,1.48-2.22
		c0.32-0.8,0.48-1.55,0.48-2.25V921.33z"/>
</g>
<g>
	<path class="st0" d="M1622.64,850.67v-3.07h3.21v-3.16c0-1.72,0.45-3.02,1.35-3.91c0.9-0.89,2.2-1.33,3.93-1.33
		c0.29,0,0.63,0.03,1.01,0.08c0.38,0.06,0.72,0.14,1.01,0.25v3.03c-0.27-0.11-0.57-0.18-0.89-0.23c-0.32-0.04-0.62-0.06-0.89-0.06
		c-0.76,0-1.35,0.16-1.77,0.49c-0.42,0.33-0.63,0.95-0.63,1.88v2.95h3.69v3.07h-3.69v18.11h-3.13v-18.11H1622.64z"/>
	<path class="st0" d="M1649.22,868.78v-3.36h-0.07c-0.66,1.31-1.51,2.28-2.54,2.89c-1.03,0.62-2.25,0.92-3.65,0.92
		c-1.25,0-2.3-0.18-3.13-0.55c-0.83-0.37-1.51-0.9-2.02-1.58c-0.52-0.68-0.88-1.49-1.09-2.44c-0.21-0.95-0.31-1.99-0.31-3.13V847.6
		h3.13v14.34c0,1.31,0.35,2.35,1.03,3.11c0.69,0.76,1.64,1.14,2.84,1.14c0.96,0,1.79-0.16,2.49-0.49c0.7-0.33,1.28-0.79,1.75-1.39
		c0.47-0.6,0.82-1.3,1.05-2.11c0.23-0.81,0.35-1.69,0.35-2.64V847.6h3.13v21.18H1649.22z"/>
	<path class="st0" d="M1660.76,847.6v3.36h0.08c1.3-2.57,3.37-3.85,6.19-3.85c1.25,0,2.3,0.19,3.13,0.57
		c0.84,0.38,1.51,0.92,2.03,1.6c0.52,0.69,0.88,1.5,1.08,2.44c0.21,0.94,0.32,1.99,0.32,3.13v13.93h-3.13v-14.34
		c0-1.31-0.34-2.35-1.03-3.11c-0.69-0.77-1.63-1.15-2.84-1.15c-0.96,0-1.79,0.16-2.49,0.49c-0.7,0.33-1.28,0.79-1.75,1.39
		c-0.47,0.6-0.82,1.3-1.05,2.11c-0.24,0.81-0.35,1.69-0.35,2.64v11.96h-3.13V847.6H1660.76z"/>
	<path class="st0" d="M1693.14,868.78v-2.87h-0.07c-0.52,1.17-1.33,2.02-2.44,2.54c-1.1,0.52-2.32,0.78-3.65,0.78
		c-1.47,0-2.76-0.3-3.85-0.9c-1.09-0.6-2-1.41-2.73-2.42c-0.72-1.01-1.27-2.18-1.64-3.52c-0.37-1.34-0.55-2.76-0.55-4.26
		c0-1.5,0.18-2.92,0.53-4.26c0.36-1.34,0.9-2.51,1.62-3.5c0.73-1,1.64-1.79,2.73-2.38c1.09-0.59,2.37-0.88,3.82-0.88
		c0.49,0,1.02,0.05,1.59,0.16s1.13,0.29,1.7,0.55c0.56,0.26,1.1,0.6,1.6,1.02c0.5,0.42,0.93,0.95,1.27,1.58h0.07v-10.9h3.13v29.25
		H1693.14z M1681.87,861.26c0.23,0.94,0.59,1.78,1.07,2.52c0.48,0.74,1.09,1.32,1.84,1.76c0.75,0.44,1.63,0.66,2.64,0.66
		c1.06,0,1.96-0.23,2.69-0.7c0.74-0.46,1.34-1.07,1.81-1.82c0.47-0.75,0.81-1.6,1.01-2.56c0.21-0.96,0.31-1.93,0.31-2.91
		c0-1.03-0.11-2.04-0.33-3.01c-0.22-0.97-0.57-1.82-1.05-2.56c-0.48-0.74-1.1-1.33-1.86-1.78c-0.76-0.45-1.68-0.68-2.77-0.68
		c-1.06,0-1.95,0.23-2.69,0.7c-0.74,0.46-1.33,1.08-1.77,1.84c-0.44,0.76-0.76,1.64-0.96,2.62c-0.2,0.98-0.3,1.99-0.3,3.03
		C1681.52,859.35,1681.64,860.32,1681.87,861.26z"/>
	<path class="st0" d="M1718.91,868.69c-0.54,0.36-1.29,0.53-2.25,0.53c-0.81,0-1.46-0.25-1.94-0.76c-0.48-0.51-0.72-1.33-0.72-2.48
		c-0.86,1.15-1.86,1.97-3.01,2.48c-1.14,0.5-2.38,0.76-3.7,0.76c-0.86,0-1.68-0.11-2.45-0.33c-0.78-0.22-1.44-0.56-2.01-1.02
		c-0.57-0.46-1.01-1.07-1.34-1.82c-0.33-0.75-0.5-1.66-0.5-2.73c0-1.2,0.19-2.18,0.55-2.95c0.37-0.77,0.85-1.39,1.46-1.86
		c0.6-0.48,1.29-0.84,2.06-1.09c0.78-0.24,1.57-0.45,2.38-0.61c0.86-0.19,1.68-0.34,2.45-0.43c0.77-0.1,1.46-0.23,2.05-0.41
		c0.59-0.18,1.05-0.44,1.4-0.78c0.35-0.34,0.52-0.84,0.52-1.49c0-0.77-0.13-1.38-0.39-1.84c-0.26-0.46-0.59-0.82-0.99-1.06
		c-0.41-0.25-0.86-0.41-1.36-0.49c-0.51-0.08-1-0.12-1.49-0.12c-1.33,0-2.43,0.28-3.32,0.84c-0.89,0.56-1.36,1.62-1.44,3.17h-3.13
		c0.05-1.31,0.29-2.42,0.74-3.32c0.44-0.9,1.03-1.63,1.77-2.19s1.58-0.96,2.53-1.21c0.94-0.25,1.96-0.37,3.04-0.37
		c0.86,0,1.72,0.07,2.56,0.2c0.85,0.14,1.62,0.42,2.31,0.84c0.69,0.42,1.24,1.01,1.66,1.78c0.42,0.76,0.63,1.76,0.63,2.98v10.87
		c0,0.82,0.04,1.42,0.13,1.8c0.08,0.38,0.38,0.57,0.87,0.57c0.27,0,0.59-0.05,0.96-0.16V868.69z M1713.82,857.84
		c-0.39,0.33-0.91,0.56-1.55,0.71c-0.64,0.15-1.3,0.27-2.01,0.37c-0.7,0.1-1.41,0.21-2.12,0.33c-0.71,0.12-1.35,0.32-1.92,0.59
		c-0.57,0.27-1.03,0.66-1.38,1.16c-0.36,0.5-0.54,1.19-0.54,2.06c0,0.57,0.1,1.05,0.32,1.45c0.21,0.39,0.48,0.71,0.81,0.96
		c0.33,0.24,0.72,0.42,1.16,0.53c0.44,0.11,0.91,0.16,1.4,0.16c1.03,0,1.92-0.16,2.65-0.47c0.74-0.31,1.34-0.71,1.81-1.18
		c0.47-0.48,0.81-0.99,1.03-1.55c0.22-0.56,0.33-1.08,0.33-1.57V857.84z"/>
	<path class="st0" d="M1734.14,851.28c-0.79-0.74-1.84-1.11-3.17-1.11c-1.13,0-2.08,0.23-2.84,0.7c-0.77,0.46-1.37,1.08-1.83,1.84
		c-0.46,0.76-0.78,1.64-0.97,2.64c-0.2,0.99-0.3,2.03-0.3,3.09c0,0.98,0.11,1.94,0.32,2.87c0.21,0.93,0.54,1.76,0.97,2.48
		c0.45,0.73,1.02,1.3,1.74,1.74c0.71,0.44,1.56,0.66,2.54,0.66c1.55,0,2.76-0.45,3.63-1.35c0.87-0.9,1.4-2.17,1.6-3.81h3.21
		c-0.35,2.62-1.22,4.64-2.64,6.06s-3.34,2.13-5.77,2.13c-1.45,0-2.74-0.26-3.85-0.78c-1.12-0.52-2.05-1.26-2.8-2.21
		c-0.75-0.96-1.31-2.1-1.7-3.42c-0.38-1.32-0.57-2.78-0.57-4.37c0-1.58,0.18-3.06,0.55-4.45c0.37-1.38,0.93-2.58,1.68-3.6
		c0.75-1.02,1.69-1.83,2.82-2.42c1.13-0.59,2.44-0.88,3.94-0.88c1.08,0,2.1,0.14,3.04,0.43c0.95,0.29,1.78,0.73,2.51,1.33
		c0.72,0.6,1.32,1.36,1.79,2.28c0.47,0.92,0.76,2,0.89,3.25h-3.24C1735.44,853.06,1734.92,852.02,1734.14,851.28z"/>
	<path class="st0" d="M1743.65,843.78v-4.26h3.13v4.26H1743.65z M1746.78,847.6v21.18h-3.13V847.6H1746.78z"/>
	<path class="st0" d="M1752.13,853.84c0.4-1.35,0.98-2.53,1.77-3.52c0.79-0.99,1.76-1.78,2.91-2.36c1.16-0.57,2.48-0.86,3.99-0.86
		c1.52,0,2.85,0.29,4,0.86c1.14,0.58,2.11,1.36,2.89,2.36c0.79,1,1.37,2.17,1.77,3.52c0.39,1.35,0.59,2.81,0.59,4.36
		c0,1.56-0.19,3-0.59,4.35c-0.4,1.34-0.98,2.51-1.77,3.5c-0.79,1-1.75,1.78-2.89,2.34c-1.14,0.56-2.48,0.84-4,0.84
		c-1.5,0-2.83-0.28-3.99-0.84c-1.15-0.56-2.12-1.34-2.91-2.34c-0.79-0.99-1.37-2.16-1.77-3.5c-0.39-1.34-0.59-2.79-0.59-4.35
		C1751.54,856.65,1751.74,855.19,1752.13,853.84z M1755.32,861.63c0.31,1,0.73,1.83,1.27,2.5s1.17,1.18,1.9,1.53
		c0.73,0.36,1.5,0.53,2.31,0.53c0.81,0,1.58-0.18,2.3-0.53c0.73-0.35,1.36-0.87,1.9-1.53c0.54-0.67,0.96-1.5,1.27-2.5
		c0.31-0.99,0.46-2.14,0.46-3.42c0-1.28-0.16-2.42-0.46-3.42c-0.31-0.99-0.73-1.84-1.27-2.52c-0.54-0.68-1.17-1.2-1.9-1.56
		c-0.73-0.35-1.49-0.53-2.3-0.53c-0.81,0-1.58,0.18-2.31,0.53c-0.73,0.36-1.36,0.88-1.9,1.56c-0.54,0.68-0.96,1.52-1.27,2.52
		c-0.31,1-0.46,2.14-0.46,3.42C1754.86,859.49,1755.01,860.63,1755.32,861.63z M1761.86,837.23l-3.54,6.64h2.36l5.2-6.64H1761.86z"
		/>
	<path class="st0" d="M1777.61,847.6v3.36h0.07c1.3-2.57,3.37-3.85,6.2-3.85c1.25,0,2.3,0.19,3.13,0.57
		c0.84,0.38,1.51,0.92,2.03,1.6c0.51,0.69,0.88,1.5,1.08,2.44c0.21,0.94,0.31,1.99,0.31,3.13v13.93h-3.13v-14.34
		c0-1.31-0.34-2.35-1.03-3.11c-0.69-0.77-1.63-1.15-2.84-1.15c-0.96,0-1.79,0.16-2.49,0.49c-0.7,0.33-1.28,0.79-1.75,1.39
		c-0.47,0.6-0.82,1.3-1.05,2.11c-0.24,0.81-0.35,1.69-0.35,2.64v11.96h-3.13V847.6H1777.61z"/>
	<path class="st0" d="M1811.42,839.52v29.25h-3.51v-29.25H1811.42z"/>
	<path class="st0" d="M1829.26,839.52l10.29,29.25h-3.87l-2.88-8.81h-11.13l-2.95,8.81h-3.58l10.25-29.25H1829.26z M1831.7,856.69
		l-4.39-13.64h-0.08l-4.46,13.64H1831.7z"/>
	<path class="st0" d="M1854.6,839.52c2.66,0,4.67,0.76,6.03,2.27c1.36,1.52,2.05,3.64,2.05,6.37c0,2.73-0.68,4.86-2.05,6.39
		c-1.36,1.53-3.37,2.28-6.03,2.25h-8.04v11.96h-3.5v-29.25H1854.6z M1853.42,853.54c1.99,0.03,3.45-0.42,4.37-1.35
		c0.92-0.93,1.38-2.27,1.38-4.02c0-1.75-0.46-3.08-1.38-4c-0.93-0.91-2.38-1.37-4.37-1.37h-6.85v10.73H1853.42z"/>
</g>
</svg>
