<?xml version="1.0" encoding="utf-8"?>
<!-- Generator: Adobe Illustrator 22.0.1, SVG Export Plug-In . SVG Version: 6.00 Build 0)  -->
<svg version="1.1" id="Capa_1" xmlns="http://www.w3.org/2000/svg" xmlns:xlink="http://www.w3.org/1999/xlink" x="0px" y="0px"
	 viewBox="0 0 342.1 353.8" style="enable-background:new 0 0 342.1 353.8;" xml:space="preserve">
<style type="text/css">
	.st0{fill:#FFFFFF;}
</style>
<g>
	<g>
		<g>
			<path class="st0" d="M228.9,144.7c0,19-15.4,34.4-34.5,34.4c-19,0-34.4-15.4-34.4-34.4s15.4-34.5,34.4-34.5
				C213.5,110.2,228.9,125.6,228.9,144.7z"/>
			<path class="st0" d="M228.9,144.7c0,19-15.4,34.4-34.5,34.4c-19,0-34.4-15.4-34.4-34.4s15.4-34.5,34.4-34.5
				C213.5,110.2,228.9,125.6,228.9,144.7z"/>
		</g>
		<g>
			<path class="st0" d="M125,117.2c0,19-15.4,34.5-34.4,34.5s-34.4-15.4-34.4-34.5c0-19,15.4-34.4,34.4-34.4
				C109.6,82.8,125,98.2,125,117.2z"/>
			<path class="st0" d="M125,117.2c0,19-15.4,34.5-34.4,34.5s-34.4-15.4-34.4-34.5c0-19,15.4-34.4,34.4-34.4
				C109.6,82.8,125,98.2,125,117.2z"/>
		</g>
		<path class="st0" d="M181,85.2l5.7,11.9c0,0,2.9,4.2-5.5,8.2c-10.3,4.9-25.7,14.3-27.8,31.9c-4.1,36,25.7,37.4,16.3,54
			c-8,14-19.9,19.4-28.3,22.6c-10.9,4.1-5.1,12.3-5.1,12.3l7.6,13.1c0,0,5.8,7.9-4.2,11c-17.8,5.4-38.9,2.5-51.1,0.6
			c-10.2-1.7-8.1-6.9-6-12.5c9-24,8.4-38.2,7.2-46.5c-0.7-4.6-5.4-2.5-6.9-0.4c-8.5,12-19.8,18.7-26.9,22.4
			c-7.4,3.8-9.1-1.3-9.1-1.3l-7-12.5c0,0-4.5-6.5,3.9-9.6c12.9-4.7,21.5-12.9,25.9-19.8c12.2-19,25.6-5.8,45.6-21
			c0,0,12.6-6.7,16.5-29.1c3.5-20.1,25.6-32.9,37.9-38.7C178.4,77.6,181,85.2,181,85.2z"/>
		<path class="st0" d="M256.2,169.2c-0.1-17.8,13.5-30.4,28.1-36.6c8.5-3.6,5.5-8.2,5.5-8.2l-5.7-11.9c0,0-2.6-7.7-11.1-3.6
			c-12.3,5.9-34.4,18.7-37.9,38.7c-3.9,22.4-15.7,29.1-15.7,29.1c-20,15.2-34.2,2-46.4,21c-4.5,6.9-13,15.1-26,19.8
			c-8.4,3.1-3.9,9.6-3.9,9.6l7,12.5c0,0,1.7,5.1,9.1,1.3c7-3.6,18.4-10.4,26.9-22.4c1.5-2.1,6.2-4.2,6.9,0.4
			c1.2,8.3,1.8,22.6-7.2,46.5c-2.1,5.6-4.2,10.9,6,12.5c4.7,0.8,9.8,1.6,16.4,2.2c0,0,7.8,3.5,9.5-11.7c0,0,2.5-26.5,13.3-35.2
			s29.3-5.7,37-2.1c19.2,9.1,30.5,1.4,34-1.3c4.2-3.4,15.1-23.2,4.1-22.5C306,207.3,256.3,214.4,256.2,169.2z"/>
	</g>
	<g>
		<path class="st0" d="M4.7,113.5l1.7-4.3l25.9,0.2l-1.8,4.5l-5.3-0.1l-3.6,9.2l3.9,3.7l-1.8,4.5L4.7,113.5z M11.5,113.7l6.5,6.1
			l2.4-6L11.5,113.7z"/>
		<path class="st0" d="M25.5,90.5l1.1,3.8c-1.5,0.5-2.5,1.1-3,1.9c-0.2,0.4-0.3,0.8-0.3,1.2s0.2,0.6,0.5,0.8
			c0.2,0.1,0.5,0.1,0.7,0.1c0.3-0.1,0.7-0.3,1.4-0.8l1.5-1c1.6-1.1,2.9-1.7,4-1.9c1.1-0.1,2.2,0.1,3.2,0.7c1.4,0.8,2.3,1.9,2.6,3.5
			c0.4,1.5,0.1,3.2-0.9,4.9c-1.3,2.3-3.2,3.6-5.7,4l-1.3-3.9c0.8-0.2,1.5-0.5,2.2-0.9s1.1-0.9,1.4-1.4c0.3-0.5,0.4-1,0.3-1.5
			c-0.1-0.5-0.3-0.8-0.6-1c-0.6-0.3-1.5-0.1-2.7,0.7l-1.4,1c-2.7,1.8-5,2.2-6.9,1.2c-1.2-0.7-2-1.7-2.4-3.2
			c-0.4-1.4-0.1-2.9,0.7-4.4c0.6-1,1.3-1.9,2.3-2.5C23.2,91,24.3,90.6,25.5,90.5z"/>
		<path class="st0" d="M30.5,77.6c1-1.4,2.2-2.4,3.8-3.1c1.6-0.7,3.2-1,4.8-0.8c1.7,0.2,3.2,0.7,4.5,1.7c1.4,1,2.4,2.2,3.1,3.8
			c0.7,1.5,1,3.1,0.8,4.8s-0.8,3.2-1.8,4.6c-1.5,2.1-3.5,3.3-6,3.8c-2.5,0.4-4.9-0.1-7-1.6c-2.3-1.6-3.6-3.8-3.9-6.6
			C28.6,81.6,29.1,79.5,30.5,77.6z M34,80c-0.8,1.1-1.1,2.4-0.8,3.7s1,2.4,2.2,3.3c1.3,0.9,2.6,1.3,3.9,1.1s2.4-0.9,3.2-2
			c0.8-1.1,1.1-2.4,0.8-3.7c-0.3-1.3-1-2.4-2.3-3.3c-1.3-0.9-2.5-1.2-3.8-1.1C35.9,78.1,34.8,78.8,34,80z"/>
		<path class="st0" d="M54.5,55.7l-1.1,4.1c-1,0-1.9,0.2-2.5,0.5c-0.7,0.3-1.3,0.8-2,1.5c-1.2,1.2-1.7,2.6-1.7,4s0.6,2.7,1.7,3.8
			c1.1,1,2.4,1.5,3.7,1.5c1.4-0.1,2.6-0.7,3.8-1.9c1.4-1.5,2-3.1,1.7-4.8l4.2-0.9c0.5,3.1-0.4,5.9-2.8,8.5c-2.2,2.3-4.5,3.4-7.1,3.5
			c-2.6,0-4.8-0.8-6.6-2.5c-1.3-1.2-2.1-2.6-2.6-4.2c-0.5-1.6-0.5-3.3,0-5s1.3-3.2,2.7-4.6c1.2-1.3,2.6-2.2,4.1-2.8
			C51.4,55.6,52.9,55.5,54.5,55.7z"/>
		<path class="st0" d="M52.2,43.2c0.6-0.5,1.3-0.8,2.1-0.7c0.8,0.1,1.5,0.4,2,1s0.8,1.3,0.7,2.1c0,0.8-0.4,1.4-0.9,2
			c-0.6,0.5-1.3,0.8-2.1,0.7c-0.8-0.1-1.5-0.4-2-1s-0.8-1.3-0.7-2.1C51.3,44.4,51.6,43.7,52.2,43.2z M55.4,50.2l3.4-3l11.8,13.4
			l-3.4,3L55.4,50.2z"/>
		<path class="st0" d="M73.4,36l3.6-2.6l10.5,14.5l-3.6,2.6L82.8,49c-0.2,1.2-0.6,2.2-1.1,3s-1.2,1.5-2,2.1c-1.9,1.4-4,1.8-6.4,1.3
			s-4.4-1.8-6-3.9c-1.6-2.2-2.3-4.6-2-6.9c0.3-2.4,1.4-4.3,3.3-5.6c0.9-0.6,1.8-1.1,2.8-1.3s2.1-0.2,3.2,0L73.4,36z M71.7,41.7
			c-1.1,0.8-1.8,1.9-1.9,3.2c-0.2,1.3,0.2,2.6,1.1,3.9c0.9,1.3,2,2,3.4,2.3c1.3,0.3,2.6,0,3.7-0.8s1.8-1.9,2-3.2s-0.2-2.7-1.1-3.9
			c-0.9-1.3-2-2-3.3-2.3C74.1,40.6,72.9,40.9,71.7,41.7z"/>
		<path class="st0" d="M99.5,25.1l-2.3,3.6c-1-0.3-1.8-0.4-2.6-0.4c-0.7,0.1-1.5,0.3-2.3,0.7c-1.5,0.8-2.5,1.9-2.9,3.2
			c-0.5,1.4-0.3,2.7,0.4,4.1c0.7,1.3,1.7,2.2,3.1,2.6c1.3,0.4,2.7,0.2,4.2-0.6c1.8-0.9,2.8-2.3,3.2-4l4.3,0.5
			c-0.5,3.1-2.3,5.5-5.4,7.1c-2.8,1.5-5.4,1.8-7.8,1s-4.3-2.3-5.4-4.5c-0.8-1.5-1.2-3.1-1.1-4.8s0.6-3.3,1.6-4.7
			c1-1.5,2.3-2.6,4-3.5c1.6-0.8,3.1-1.3,4.7-1.3C96.6,24,98.1,24.4,99.5,25.1z"/>
		<path class="st0" d="M101.5,12.5c0.7-0.3,1.5-0.3,2.2,0s1.3,0.8,1.6,1.6c0.3,0.7,0.3,1.5,0,2.2s-0.8,1.3-1.5,1.5
			c-0.7,0.3-1.5,0.3-2.2,0s-1.3-0.9-1.6-1.6c-0.3-0.7-0.3-1.5,0-2.2C100.3,13.3,100.8,12.8,101.5,12.5z M102.3,20.2l4.2-1.7
			l6.8,16.5l-4.2,1.7L102.3,20.2z"/>
		<path class="st0" d="M119.1,13.5c1.6-0.5,3.3-0.6,4.9-0.2c1.7,0.4,3.1,1.1,4.3,2.3c1.2,1.1,2.1,2.5,2.6,4.1s0.6,3.2,0.2,4.9
			s-1.1,3.1-2.3,4.3c-1.1,1.2-2.5,2.1-4.2,2.6c-2.5,0.7-4.8,0.5-7.1-0.7c-2.3-1.2-3.8-3.1-4.5-5.6c-0.8-2.7-0.5-5.2,0.9-7.6
			C115.2,15.6,116.9,14.2,119.1,13.5z M117.2,4.4l5.1-1.6l-3.9,7.9l-3.1,0.9L117.2,4.4z M120.4,17.6c-1.3,0.4-2.3,1.2-2.9,2.4
			s-0.7,2.5-0.2,4s1.3,2.6,2.4,3.2c1.2,0.7,2.4,0.8,3.8,0.4c1.3-0.4,2.3-1.2,2.9-2.4s0.7-2.5,0.2-4c-0.4-1.5-1.3-2.5-2.4-3.2
			C123.1,17.3,121.8,17.1,120.4,17.6z"/>
		<path class="st0" d="M133.6,10.1l4.4-0.7l0.3,1.8c0.9-1,1.7-1.8,2.4-2.2c0.8-0.5,1.6-0.8,2.4-0.9c1.8-0.3,3.3,0.1,4.8,1.1
			c1.2,0.9,2,2.3,2.3,4.4l1.9,11.7l-4.4,0.7l-1.3-7.7c-0.3-2.1-0.7-3.5-1-4.2s-0.7-1.1-1.2-1.4s-1.1-0.4-1.8-0.3
			c-0.9,0.1-1.6,0.6-2.2,1.3c-0.5,0.7-0.9,1.6-0.9,2.7c0,0.6,0.1,1.8,0.4,3.6l1.2,7.1l-4.4,0.7L133.6,10.1z"/>
		<path class="st0" d="M168.9,0l4.5,0.3l4.7,17.2L184.7,1l4.5,0.3l2.7,24.4l-4.4-0.3L185.8,10l-6,15l-4.1-0.2l-4.2-15.5L168,24.4
			l-4.5-0.3L168.9,0z"/>
		<path class="st0" d="M213.1,22.8L199,19.6c-0.1,1.3,0.2,2.4,1,3.3c0.7,0.9,1.8,1.6,3.1,1.9c1.6,0.4,3.2,0.1,4.6-0.8l3.3,2.6
			c-1.2,1.1-2.5,1.8-4,2.2c-1.4,0.3-3,0.3-4.8-0.1c-2.7-0.6-4.8-2-6.1-4.1c-1.3-2.1-1.7-4.5-1.1-7.1c0.6-2.7,2-4.7,4.1-6.1
			s4.5-1.8,7.1-1.2c2.7,0.6,4.8,2,6.1,4.1c1.3,2.1,1.7,4.7,1,7.6L213.1,22.8z M209.5,18.3c-0.1-1-0.5-2-1.2-2.8s-1.6-1.3-2.8-1.6
			c-1.2-0.3-2.4-0.2-3.4,0.3c-0.7,0.3-1.4,0.9-2.1,1.9L209.5,18.3z"/>
		<path class="st0" d="M218.8,13.8l4.9,1.8l1.6,5.8l5-3.4l4.8,1.8l-8.6,5.8l3.2,11.3l-4.9-1.8l-2-7l-6,4.1l-4.8-1.8l9.6-6.5
			L218.8,13.8z"/>
		<path class="st0" d="M238.4,21.5l4.1,1.9l-7.6,16.2l-4.1-1.9L238.4,21.5z M243.6,15.7c0.7,0.3,1.2,0.9,1.5,1.6
			c0.3,0.8,0.2,1.5-0.1,2.2c-0.3,0.7-0.9,1.2-1.6,1.5s-1.5,0.2-2.2-0.1s-1.2-0.9-1.5-1.6c-0.3-0.8-0.2-1.5,0.1-2.3
			c0.3-0.7,0.9-1.2,1.6-1.5C242.1,15.4,242.9,15.4,243.6,15.7z"/>
		<path class="st0" d="M260.5,37.5l-4.3-0.1c-0.2-1-0.6-1.8-1-2.4c-0.4-0.6-1.1-1.1-1.9-1.6c-1.4-0.9-2.9-1.1-4.3-0.8
			s-2.5,1.2-3.3,2.5s-1,2.6-0.6,4c0.4,1.3,1.3,2.4,2.7,3.2c1.7,1,3.4,1.2,5.1,0.6l1.8,3.9c-2.9,1.2-5.9,0.9-8.9-0.9
			c-2.7-1.6-4.4-3.6-5-6.2c-0.6-2.5-0.3-4.8,1-7c0.9-1.5,2.1-2.6,3.5-3.5c1.5-0.8,3.1-1.2,4.9-1.1c1.8,0.1,3.5,0.6,5.1,1.6
			c1.5,0.9,2.7,2,3.6,3.3C259.9,34.5,260.4,36,260.5,37.5z"/>
		<path class="st0" d="M277.5,45.9l3.5,2.8l-11.1,14l-3.5-2.8l1.2-1.5c-1.2,0.1-2.3,0-3.2-0.2c-0.9-0.3-1.8-0.7-2.6-1.4
			c-1.8-1.4-2.8-3.4-3-5.8c-0.2-2.5,0.5-4.7,2.2-6.8c1.7-2.2,3.8-3.4,6.1-3.8c2.4-0.4,4.5,0.2,6.3,1.6c0.8,0.7,1.5,1.5,2,2.4
			s0.8,1.9,0.9,3.1L277.5,45.9z M271.5,45.9c-1.1-0.9-2.3-1.2-3.6-1s-2.5,0.9-3.4,2.1c-1,1.2-1.4,2.5-1.3,3.9
			c0.1,1.4,0.7,2.5,1.8,3.3c1.1,0.9,2.3,1.2,3.7,1c1.3-0.2,2.5-0.9,3.5-2.2c1-1.2,1.4-2.5,1.3-3.8C273.2,47.8,272.6,46.7,271.5,45.9
			z"/>
		<path class="st0" d="M285.5,52.9l3.1,3.2l-1.3,1.3c1.3,0.1,2.4,0.4,3.2,0.8c0.8,0.4,1.5,0.9,2.1,1.5c1.2,1.3,1.8,2.8,1.8,4.5
			c0,1.5-0.8,2.9-2.3,4.4l-8.5,8.2l-3.1-3.2l5.7-5.4c1.5-1.5,2.5-2.5,2.9-3.2c0.4-0.6,0.5-1.2,0.5-1.8c-0.1-0.6-0.3-1.1-0.8-1.7
			c-0.6-0.7-1.4-1-2.3-1.1c-0.9,0-1.8,0.2-2.8,0.8c-0.5,0.3-1.4,1.1-2.8,2.4l-5.2,5l-3.1-3.2L285.5,52.9z"/>
		<path class="st0" d="M308.2,79.6l2.7,3.6l-14.5,10.6l-2.7-3.6l1.5-1.1c-1.2-0.2-2.2-0.6-3-1.1s-1.5-1.2-2.1-2
			c-1.4-1.9-1.8-4-1.4-6.4c0.5-2.4,1.8-4.4,3.9-6c2.2-1.6,4.5-2.3,6.9-2s4.3,1.4,5.7,3.2c0.6,0.9,1.1,1.8,1.3,2.8s0.2,2.1,0.1,3.2
			L308.2,79.6z M302.4,77.9c-0.8-1.1-1.9-1.8-3.2-1.9c-1.3-0.2-2.6,0.2-3.9,1.1c-1.2,0.9-2,2-2.3,3.4c-0.3,1.3,0,2.6,0.8,3.7
			c0.8,1.1,1.9,1.8,3.3,2c1.3,0.2,2.7-0.2,3.9-1.2c1.3-0.9,2-2,2.2-3.4C303.6,80.3,303.3,79.1,302.4,77.9z"/>
		<path class="st0" d="M331,106.5l1.9,4.1l-22.6,10.3l-1.9-4.1l1.7-0.8c-1.1-0.5-2-1-2.7-1.6s-1.3-1.4-1.7-2.4c-1-2.1-1-4.3-0.1-6.6
			s2.6-4,5-5.1c2.5-1.2,4.9-1.4,7.2-0.6c2.3,0.7,3.9,2.2,4.9,4.3c0.4,1,0.7,2,0.7,3s-0.2,2.1-0.6,3.1L331,106.5z M319.4,106.6
			c-0.6-1.3-1.5-2.1-2.8-2.5s-2.6-0.3-4,0.3s-2.4,1.6-2.9,2.9c-0.5,1.3-0.5,2.5,0.1,3.8s1.5,2.1,2.8,2.6c1.3,0.4,2.6,0.3,4.1-0.3
			c1.4-0.6,2.4-1.6,2.9-2.8C320,109.2,320,107.9,319.4,106.6z"/>
		<path class="st0" d="M324,139.5l-4.1-13.8c-1.2,0.6-2,1.4-2.4,2.5c-0.5,1.1-0.5,2.3-0.1,3.6c0.5,1.6,1.5,2.8,2.9,3.6l-0.6,4.1
			c-1.6-0.5-2.8-1.3-3.8-2.4c-1-1.1-1.7-2.5-2.3-4.2c-0.8-2.7-0.6-5.1,0.6-7.3c1.2-2.2,3.1-3.7,5.6-4.4c2.6-0.8,5-0.6,7.3,0.6
			c2.2,1.2,3.7,3,4.5,5.6c0.8,2.7,0.6,5.2-0.6,7.4c-1.2,2.2-3.3,3.7-6.1,4.6L324,139.5z M326.1,134.1c0.9-0.6,1.5-1.4,1.8-2.4
			s0.4-2.1,0-3.2c-0.4-1.2-1-2.2-2-2.9c-0.6-0.4-1.5-0.8-2.7-0.9L326.1,134.1z"/>
	</g>
	<g>
		<path class="st0" d="M26.8,227.1l7,13.3l-5,2.6l-4.3-8.2l-4.9,2.5l4.3,8.2l-4.9,2.6l-4.3-8.2l-12.1,6.3L0,241.1L26.8,227.1z"/>
		<path class="st0" d="M28.7,247.1l2.9,4.8l-19.1,11.6l-2.9-4.8L28.7,247.1z M38,244.7c0.5,0.8,0.6,1.7,0.4,2.7s-0.8,1.7-1.7,2.2
			c-0.9,0.5-1.8,0.7-2.7,0.4c-1-0.2-1.7-0.8-2.2-1.6c-0.5-0.9-0.7-1.8-0.4-2.7c0.2-1,0.8-1.7,1.7-2.3c0.8-0.5,1.7-0.7,2.7-0.4
			C36.8,243.3,37.5,243.9,38,244.7z"/>
		<path class="st0" d="M44.2,255.4l-8.9,6.6c1.4,0.2,2.7,0.6,3.8,1.3c1.1,0.6,2.1,1.5,2.9,2.6c1.7,2.3,2.3,5,1.8,8
			c-0.6,3-2.2,5.5-5,7.5c-2.7,2-5.5,2.8-8.6,2.4s-5.4-1.7-7.2-4c-0.8-1-1.3-2.1-1.6-3.3c-0.3-1.2-0.3-2.5-0.2-4l-1.9,1.4l-3.3-4.5
			L41,251L44.2,255.4z M37,268c-1.1-1.4-2.4-2.2-4.1-2.5c-1.7-0.2-3.3,0.2-4.8,1.4c-1.6,1.2-2.5,2.6-2.8,4.3
			c-0.3,1.7,0.1,3.2,1.1,4.6s2.4,2.2,4.1,2.4c1.7,0.2,3.3-0.3,4.9-1.4c1.5-1.1,2.5-2.5,2.8-4.2C38.5,271,38.1,269.4,37,268z"/>
		<path class="st0" d="M49.8,276.7l3.3,3.5l-2.1,1.9c1.2-0.4,2.3-0.4,3.3-0.2c1,0.2,1.9,0.7,2.6,1.5c0.5,0.5,0.9,1.2,1.1,2.1l-4.7,2
			c-0.2-0.7-0.4-1.2-0.7-1.5c-0.6-0.6-1.5-0.8-2.7-0.5s-2.9,1.5-5.2,3.6l-0.8,0.8l-6.7,6.1l-3.8-4.1L49.8,276.7z"/>
		<path class="st0" d="M67.8,293.7c1.6,1.4,2.8,3.1,3.5,5.1s0.9,4,0.5,6.1s-1.3,3.9-2.6,5.5c-1.4,1.6-3.1,2.8-5,3.5
			c-2,0.7-4,0.9-6.1,0.5c-2-0.4-3.9-1.3-5.6-2.7c-2.4-2.1-3.8-4.7-4-7.9c-0.2-3.2,0.7-6.1,2.8-8.5c2.3-2.7,5.1-4,8.6-4.1
			C62.9,290.9,65.6,291.8,67.8,293.7z M64.4,297.8c-1.3-1.1-2.8-1.6-4.5-1.4s-3.1,1-4.4,2.4c-1.3,1.5-1.9,3-1.8,4.7s0.8,3.1,2.1,4.2
			c1.3,1.1,2.8,1.6,4.5,1.5c1.7-0.2,3.1-1,4.4-2.4c1.2-1.5,1.8-3,1.7-4.7C66.5,300.4,65.8,299,64.4,297.8z"/>
		<path class="st0" d="M89.9,313.9l-4.8,1.1c-0.5-1.9-1.2-3.2-2.2-3.8c-0.5-0.3-1-0.5-1.5-0.4c-0.4,0-0.8,0.2-1,0.6
			c-0.2,0.3-0.2,0.6-0.2,0.9c0.1,0.3,0.3,0.9,0.9,1.8l1.2,2c1.3,2.1,2,3.8,2.1,5.1c0.1,1.4-0.2,2.7-1,4c-1.1,1.7-2.5,2.7-4.5,3.1
			c-1.9,0.4-4-0.1-6-1.4c-2.8-1.7-4.3-4.2-4.6-7.4l4.9-1.4c0.2,1,0.5,1.9,1,2.8s1,1.5,1.6,1.8c0.6,0.4,1.2,0.6,1.8,0.5
			c0.6-0.1,1-0.3,1.2-0.7c0.5-0.7,0.2-1.9-0.7-3.4l-1.1-1.8c-2.1-3.5-2.4-6.4-1-8.7c0.9-1.5,2.3-2.4,4.1-2.8c1.8-0.3,3.6,0,5.4,1.2
			c1.2,0.8,2.2,1.8,3,3C89.3,311,89.8,312.4,89.9,313.9z"/>
		<path class="st0" d="M95,312.8l5,2.5l-9.9,20.1l-5-2.5L95,312.8z M101.5,305.8c0.9,0.4,1.5,1.1,1.8,2.1s0.3,1.9-0.2,2.8
			c-0.4,0.9-1.1,1.5-2.1,1.8c-0.9,0.3-1.8,0.3-2.7-0.2c-0.9-0.4-1.5-1.1-1.8-2.1s-0.2-1.9,0.2-2.8c0.4-0.9,1.1-1.5,2.1-1.8
			S100.7,305.4,101.5,305.8z"/>
		<path class="st0" d="M116,325l-4.5,2.1c-0.8-1.8-1.8-2.9-2.9-3.3c-0.6-0.2-1.1-0.3-1.5-0.1c-0.4,0.1-0.7,0.4-0.8,0.7
			c-0.1,0.3-0.1,0.6,0,0.9s0.5,0.8,1.2,1.6l1.6,1.7c1.7,1.7,2.7,3.3,3.1,4.6c0.4,1.3,0.3,2.7-0.2,4.1c-0.7,1.9-1.9,3.2-3.8,3.9
			c-1.8,0.7-3.9,0.7-6.2-0.2c-3.1-1.1-5.1-3.2-6-6.3l4.5-2.3c0.4,0.9,0.9,1.8,1.5,2.5c0.7,0.7,1.3,1.2,2,1.5s1.3,0.3,1.9,0.1
			c0.5-0.2,0.9-0.5,1.1-0.9c0.3-0.8-0.2-1.9-1.4-3.2l-1.4-1.5c-2.8-3-3.7-5.7-2.7-8.3c0.6-1.7,1.8-2.8,3.5-3.5s3.6-0.7,5.6,0
			c1.4,0.5,2.5,1.3,3.5,2.3C114.9,322.4,115.6,323.6,116,325z"/>
		<path class="st0" d="M157.1,346.6l4.7,7.2l-6.8-0.6l-2.4-3.7c-2.3,1-4.8,1.4-7.5,1.2c-4.5-0.4-8.2-2.3-10.9-5.7
			c-2.7-3.4-3.9-7.2-3.5-11.5c0.3-2.9,1.2-5.5,2.8-7.8c1.6-2.3,3.7-4,6.3-5.2c2.6-1.2,5.2-1.7,8-1.4c4.3,0.4,7.8,2.2,10.6,5.6
			c2.8,3.4,4,7.2,3.6,11.7C161.6,340.4,160,343.8,157.1,346.6z M153.9,341.6c1.4-1.7,2.2-3.6,2.3-5.8c0.2-2.9-0.5-5.4-2.3-7.5
			c-1.8-2.2-4-3.4-6.7-3.6c-2.8-0.2-5.3,0.5-7.3,2.3c-2.1,1.8-3.2,4.2-3.5,7.1c-0.3,3.3,0.7,6.1,2.9,8.2c1.7,1.7,3.8,2.6,6.2,2.8
			c1.4,0.1,2.7,0,3.9-0.5l-4.8-7.4l6.8,0.6L153.9,341.6z"/>
		<path class="st0" d="M166.8,328.4l5.7-0.4l0.8,10.7c0.2,2.1,0.4,3.5,0.8,4.3c0.3,0.8,0.9,1.4,1.5,1.8c0.7,0.4,1.5,0.6,2.4,0.5
			s1.7-0.4,2.3-0.8c0.6-0.5,1.1-1.2,1.3-2.1c0.2-0.7,0.2-2,0-4.1l-0.8-10.9l5.6-0.4l0.7,9.5c0.3,3.9,0.2,6.6-0.3,8.1
			c-0.6,1.8-1.6,3.2-3,4.3c-1.4,1-3.2,1.7-5.5,1.8c-2.4,0.2-4.5-0.2-6.1-1.2s-2.8-2.4-3.5-4.3c-0.5-1.3-0.9-3.8-1.2-7.3L166.8,328.4
			z"/>
		<path class="st0" d="M192.7,313.5l6.6-1.1l-6.1,9.2l-4,0.7L192.7,313.5z M191,326.1l5.5-0.9l3.7,22.1l-5.5,0.9L191,326.1z"/>
		<path class="st0" d="M215.3,324l-2.5,4.2c-1.7-1-3.1-1.4-4.2-1.1c-0.6,0.2-1.1,0.4-1.3,0.8c-0.3,0.3-0.4,0.7-0.3,1.1
			c0.1,0.3,0.2,0.5,0.5,0.7s0.9,0.4,1.9,0.6l2.2,0.5c2.4,0.5,4.1,1.2,5.1,2.1c1.1,0.9,1.8,2,2.1,3.5c0.5,1.9,0.2,3.7-0.9,5.4
			c-1.1,1.6-2.8,2.8-5.2,3.4c-3.2,0.8-6,0.2-8.5-1.8l2.4-4.5c0.8,0.6,1.7,1,2.7,1.2s1.8,0.3,2.5,0.1c0.7-0.2,1.3-0.5,1.6-1
			c0.3-0.5,0.5-0.9,0.4-1.4c-0.2-0.8-1.2-1.5-3-1.9l-2.1-0.5c-4-0.9-6.3-2.7-6.9-5.3c-0.4-1.7-0.1-3.3,0.9-4.9
			c1-1.5,2.6-2.6,4.6-3.1c1.4-0.4,2.8-0.4,4.2-0.1C212.9,322.4,214.2,323.1,215.3,324z"/>
		<path class="st0" d="M216.7,311.5l5.3-1.9l2.7,7.8l3.1-1.1l1.6,4.6l-3.1,1.1l5.8,16.5l-5.3,1.9l-5.8-16.5l-2.7,1l-1.6-4.6l2.7-1
			L216.7,311.5z"/>
		<path class="st0" d="M228.7,305.9c0.9-0.4,1.8-0.4,2.7,0c0.9,0.4,1.6,1,2,2c0.4,0.9,0.4,1.8,0.1,2.8c-0.4,0.9-1,1.6-1.9,2
			s-1.8,0.4-2.8,0c-0.9-0.4-1.6-1-2-2c-0.4-0.9-0.4-1.8,0-2.7C227.2,306.9,227.8,306.3,228.7,305.9z M229.8,315.4l5.2-2.2l8.9,20.5
			l-5.2,2.2L229.8,315.4z"/>
		<path class="st0" d="M260.5,304.5l-2.8,4.6c-1.2-0.4-2.3-0.5-3.2-0.4c-0.9,0.1-1.9,0.5-2.9,1c-1.8,1-3,2.4-3.5,4.2
			c-0.5,1.7-0.3,3.4,0.7,5.1c1,1.6,2.3,2.7,4,3.1s3.4,0.1,5.2-0.9c2.2-1.3,3.4-3,3.8-5.2l5.3,0.4c-0.5,3.9-2.7,6.9-6.5,9.1
			c-3.4,2-6.7,2.5-9.8,1.6c-3.1-0.9-5.4-2.7-7-5.4c-1.1-1.9-1.6-3.9-1.6-6s0.6-4.1,1.8-6c1.2-1.9,2.8-3.4,4.9-4.6
			c1.9-1.1,3.9-1.7,5.8-1.8C256.9,303.3,258.7,303.7,260.5,304.5z"/>
		<path class="st0" d="M274.6,287.5l4.3-3.6l14.3,17.2l-4.3,3.6l-1.5-1.8c-0.2,1.5-0.5,2.8-1.1,3.8c-0.6,1.1-1.3,2-2.3,2.8
			c-2.2,1.8-4.9,2.6-7.9,2.2c-3.1-0.4-5.6-1.9-7.8-4.4c-2.2-2.7-3.2-5.5-3.1-8.5c0.2-3,1.4-5.4,3.6-7.3c1-0.9,2.2-1.5,3.4-1.8
			c1.2-0.4,2.6-0.5,4-0.3L274.6,287.5z M273,294.8c-1.3,1.1-2.1,2.5-2.2,4.2c-0.1,1.7,0.5,3.3,1.7,4.7c1.2,1.5,2.7,2.3,4.4,2.6
			c1.7,0.2,3.2-0.2,4.5-1.3c1.4-1.1,2.1-2.5,2.2-4.2c0.1-1.7-0.5-3.3-1.7-4.8s-2.7-2.3-4.4-2.5C275.9,293.2,274.4,293.7,273,294.8z"
			/>
		<path class="st0" d="M296.4,290.1l4-1.4l2.6,9.1l-2.7,1L296.4,290.1z"/>
		<path class="st0" d="M302.6,261.6l2.2-3l19.7,5.2l-2.2,3l-4-1.1l-4.5,6.3l2.3,3.5l-2.2,3.1L302.6,261.6z M307.8,263.1l3.8,5.9
			l3-4.1L307.8,263.1z"/>
		<path class="st0" d="M324.2,257.1c0.3-0.5,0.7-0.8,1.3-0.9c0.5-0.1,1.1,0,1.5,0.2c0.5,0.3,0.8,0.7,0.9,1.3c0.1,0.5,0,1.1-0.3,1.5
			c-0.3,0.5-0.7,0.8-1.3,0.9c-0.5,0.1-1.1,0-1.5-0.3c-0.5-0.3-0.8-0.7-0.9-1.3C323.8,258.1,323.9,257.6,324.2,257.1z"/>
		<path class="st0" d="M325.4,230.2l0.9,3.4c-2.4,0.7-4.1,2-5.1,3.9c-0.8,1.6-1,3.3-0.5,4.9c0.5,1.7,1.6,2.9,3.2,3.8
			c1.1,0.6,2.2,0.9,3.4,0.8c1.1,0,2.2-0.4,3.1-1c1-0.6,1.7-1.5,2.3-2.6c0.5-0.9,0.8-1.9,0.8-2.8c0.1-1-0.1-2.1-0.6-3.5l3.4-1
			c0.6,1.9,0.8,3.5,0.7,4.9s-0.5,2.7-1.3,4.2c-1.4,2.6-3.3,4.3-5.9,5.1c-2.5,0.8-5.1,0.5-7.7-0.9c-1.7-0.9-3-2.1-3.9-3.5
			s-1.4-3.1-1.4-4.9s0.4-3.6,1.2-5.2c0.7-1.4,1.7-2.6,3-3.5C322.4,231.2,323.9,230.6,325.4,230.2z"/>
		<path class="st0" d="M338.3,230.5c0.2-0.5,0.6-0.9,1.1-1.1s1-0.2,1.5,0s0.9,0.6,1.1,1.1c0.2,0.5,0.2,1,0,1.6
			c-0.2,0.5-0.6,0.9-1.1,1.1s-1,0.2-1.6,0c-0.5-0.2-0.9-0.6-1.1-1.1C338,231.5,338,231,338.3,230.5z"/>
	</g>
</g>
</svg>
