<svg id="Layer_1" data-name="Layer 1" xmlns="http://www.w3.org/2000/svg" viewBox="0 0 1054.24 257.72"><defs><style>.cls-1{fill:#fff;fill-rule:evenodd;}</style></defs><title>Unidos</title><path class="cls-1" d="M543.23,0c.6.62,1.4.41,2.09.59,8.65,2.07,14,8.43,14.45,17.35.05,1,.06,2,.06,3,0,37.85-.06,75.68.06,113.5,0,7,0,14.14,1,21.11,2.62,17,16.8,25.59,33.34,20.43,3.2-1,3.19-1,1.86-4.11-6-13.9-7.84-28.5-7.14-43.5.57-12.47,3.38-24.44,9.33-35.52,8.41-15.62,21.1-26.33,37.91-31.81a89.27,89.27,0,0,1,56.06-.24c23.62,7.62,38.08,24.13,44.91,47.72a34.59,34.59,0,0,1,1.15,4.67c.18,1.28.65,1.17,1.56.74a33.4,33.4,0,0,0,8.69-6.1,7.75,7.75,0,0,0,2.55-5.86c.2-18.51,9.92-30.61,26.09-38.19a78.34,78.34,0,0,1,29.39-6.94c15.69-.82,31,1.15,45.63,6.9,6.43,2.51,12.4,5.8,17.23,10.89s6.86,11.16,5.11,18.14c-3.34,13.33-17.36,15.88-26,10.34a57.39,57.39,0,0,1-8.06-6.66c-8.76-8.25-19.31-10.3-30.81-9.16A31.19,31.19,0,0,0,799,89.88c-5.42,2.54-7.72,6.85-6.56,12.37.79,3.67,3.34,5.84,6.54,7.44,4.17,2,8.72,3,13.23,4.06,13,3.09,26.17,5.32,38.69,10.13,8,3.07,15.54,7,21.59,13.3,7.2,7.43,10.17,16.44,9.64,26.64-1.13,21.32-13.6,33.92-32.37,41.42-13,5.21-26.71,6.26-40.59,5.11-12-1-23.62-3.53-34.57-8.69-6.5-3-12.47-6.82-17.22-12.32-4.42-5.07-6.95-10.84-6.18-17.71,1.47-12.9,14.66-19.13,25.7-12.14a50.92,50.92,0,0,1,9,8c5.52,5.73,11.48,10.77,19.37,12.87,8.78,2.35,17.54,2.53,26.07-.95,4.94-2,8.88-5.19,9.62-10.92.59-4.56-.89-8.33-4.91-10.88-3.63-2.28-7.73-3.3-11.82-4.38-12.76-3.37-25.75-6-38.43-9.7-8.22-2.42-16.05-5.73-22.58-11.52a23.54,23.54,0,0,1-3-3c-.79-1-1.22-1.13-2.13,0A60.76,60.76,0,0,1,741,143.55c-1.3.71-1.16,1.84-1.27,2.93a83.1,83.1,0,0,1-7.05,26.5c-7.66,16.5-20.1,27.81-37.44,33.16-22.43,6.91-44.84,6.56-66.86-2.09a53,53,0,0,1-14.63-8.77c-.87-.76-1.36-.83-2.26,0-13.08,12.36-28.81,16.82-46.48,15.37-9.69-.83-18.7-3.51-26.66-9.24a39.46,39.46,0,0,1-11.8-13.31c-.92-1.71-2.48-2.14-4-2.83-1-.43-.92.7-1.14,1.2A38.2,38.2,0,0,1,503,205.73a52.75,52.75,0,0,1-21.76,5.17c-15.66.51-29.89-3.5-42.16-13.58-.92-.76-1.45-.65-2.33.09-12.86,11-27.89,14.67-44.47,13.22-11-1-20.94-4.42-29.42-11.68a3,3,0,0,0-3.87,0c-17.11,12.18-35.86,14-55.42,8-16.51-5.1-26.09-17-30.08-33.56a82.46,82.46,0,0,1-1.94-19.2c-.07-11.26,0-22.55-.06-33.84,0-5.39-.44-10.74-2.47-15.83-3.52-8.76-10.14-13.28-19.35-14.58-17-2.41-35.76,11.31-35.59,32.45.2,22.59,0,45.19,0,67.77a31.76,31.76,0,0,1-.78,7.2c-1.51,6.5-5.4,10.87-11.9,12.62a30.5,30.5,0,0,1-16.89-.23c-1.49-.44-3.18-.87-4.13-2-2.44-2.88-4.79-1.84-7.7-.8-17.17,6.11-34.15,5.73-50.55-2.58a40,40,0,0,1-17.26-17.28c-1.4-2.63-2.27-2.7-4.12-.36-8.29,10.39-18.24,18.4-31.28,21.93A64.19,64.19,0,0,1,32,207.88c-16.89-5.55-26.58-17.62-30.4-34.75C1,170.42.93,167.61,0,165V71.41c.69-.81.57-1.86.83-2.83,1.72-6.21,5.61-10.26,11.84-12a31.56,31.56,0,0,1,14.4-.38c7.22,1.46,11.76,5.79,13.5,13a33.13,33.13,0,0,1,.74,7.61q0,35.61,0,71.18a49.27,49.27,0,0,0,.66,8.22c1.7,10.32,8.3,17.72,17.78,19.89a29.38,29.38,0,0,0,21.47-2.81c10.79-6,17-14.94,17-27.64v-69c0-1.45.07-2.92.21-4.4.79-8.76,5.87-14.52,14.34-16.1A34.45,34.45,0,0,1,124.41,56c8.19,1.19,13.26,5.82,15,13.85a26.24,26.24,0,0,1,.57,5.61q0,38.49,0,77a16.57,16.57,0,0,0,.08,2.23c2.7,19.09,17.51,23.87,30.49,21.79,1.87-.33,2.14-1.12,2.14-2.77q-.07-48.18,0-96.39c0-1.1,0-2.27.08-3.39.5-5.84,1.93-11.31,7-15,4.12-3,8.92-3.53,13.82-3.23,8.45.52,14,5.3,15.84,13.51a46.79,46.79,0,0,1,.73,10.23c0,.67-.28,1.44.33,2.07.77-.36,1.07-1.09,1.52-1.63,6.59-8.26,14.28-15.18,24.08-19.38,12.57-5.43,25.62-6.08,38.89-3.37,9.85,2,18.5,6.4,25.27,14,8.59,9.66,11.89,21.38,12.32,33.93.38,11.08.16,22.17.15,33.25a111,111,0,0,0,.75,15.26c2.44,18.66,16.4,23.92,29.86,22.13,1.85-.24,2.45-.91,2.44-2.9q-.1-47.88-.05-95.76a45.44,45.44,0,0,1,.41-6c1.09-7.74,5.7-12.85,13.28-14.59a30.88,30.88,0,0,1,14.77.16A15.78,15.78,0,0,1,386,68.19a33,33,0,0,1,1.1,9.19c.16,23.43-.36,46.88.78,70.33.29,6,.68,11.92,3.5,17.4,6.3,12.25,20.51,13.68,30,11,1.13-.29.88-.81.52-1.6-5.45-11.9-7.7-24.52-8.14-37.5-.47-14,1.08-27.64,6.14-40.74,5.56-14.49,14.31-26.42,28.31-33.85,11.91-6.31,24.68-8,37.91-6.16s24,8.14,31.49,19.5c.16.25.29.64,1,.47V40.36c0-7.39-.14-14.79.1-22.18C519,9,524.38,2.66,533.06.6c.84-.19,1.69-.39,2.51-.6ZM519.44,133.81c0-2,0-3.9,0-5.86,0-4.75.23-9.5-1.22-14.17-2.44-7.82-5.78-15.08-12.49-20.17-14.67-11.16-36.24-5.84-44.67,11-5.14,10.21-6.42,21.22-6,32.51.34,8.86,2.11,17.42,6.45,25.3,9.7,17.55,29.13,19.57,41.52,12.34,10.6-6.17,15-16.42,16.33-28.12C519.82,142.43,519.44,138.1,519.44,133.81Zm111.09-10.48A71.49,71.49,0,0,0,630,136.7a63.21,63.21,0,0,0,5.35,24.59c7.91,17.27,27.66,24.22,44.41,15.5,8.22-4.26,12.91-11.47,16-19.91.79-2.18.79-2.18-1.45-2.22A101.31,101.31,0,0,1,671.51,152c-16.88-4.09-30.58-12.8-40-27.7C631.32,124,631.24,123.4,630.53,123.33Zm35-36.2c-1,0-2,0-3,0s-1.13.31-1,1.18a56.94,56.94,0,0,0,5.82,19c6.46,11.81,16.49,17.38,29.9,17,1.31,0,1.66-.36,1.45-1.78a63.51,63.51,0,0,0-3.35-13.62C690,94.93,679.56,87.3,665.51,87.13Z"/><path class="cls-1" d="M1003.4,257.72a2.08,2.08,0,0,0-.46-.35c-8.52-2.36-11.9-8.13-9.8-16.82,2-8.44,5.23-16.5,8-24.68a299.17,299.17,0,0,0,12.51-48.24,228.76,228.76,0,0,0,2.85-28.85c1.09-30.83-5.07-60.44-14.89-89.44-2.92-8.62-6.25-17.15-8.48-26-1.31-5.28-.84-10.09,3.6-13.76,4.7-3.88,10.09-4.38,15.72-2.42,2.59.89,4.33,2.93,5.9,5.05,4.26,5.75,7.15,12.24,10.12,18.71,8.38,18.25,15.68,36.89,20.32,56.51,5.18,21.94,7,44.12,4.08,66.57-3,23.53-9.94,45.94-19.4,67.66-3.5,8.05-6.92,16.14-11.17,23.84-.84,1.53-1.79,3-2.74,4.48a17.07,17.07,0,0,1-9.31,7.74Z"/><path class="cls-1" d="M368.61,0c.78.77,1.87.54,2.78.77a22.23,22.23,0,0,1,16.9,23.76,22.31,22.31,0,0,1-22,19.79c-11-.06-20.71-8.69-21.85-19.31A22.15,22.15,0,0,1,361.38.75c.78-.19,1.75,0,2.39-.75Z"/><path class="cls-1" d="M919.85,183.79c0-12.09,9.68-22,21.52-22.06,12.55,0,22.48,9.62,22.49,21.93a22,22,0,1,1-44,.13Z"/><path class="cls-1" d="M919.85,85.45a22,22,0,1,1,21.91,22.18A22,22,0,0,1,919.85,85.45Z"/></svg>