<?xml version="1.0" encoding="utf-8"?>
<!-- Generator: Adobe Illustrator 25.0.0, SVG Export Plug-In . SVG Version: 6.00 Build 0)  -->
<svg version="1.1" id="Trazado" xmlns="http://www.w3.org/2000/svg" xmlns:xlink="http://www.w3.org/1999/xlink" x="0px" y="0px"
	 viewBox="0 0 794.9 222.3" style="enable-background:new 0 0 794.9 222.3;" xml:space="preserve">
<g>
	<path d="M79.5,116.7c0,0,29.4-8.6,29.4-38.4c0-59.5-102.1-37.8-102.1-37.8s0,129.9,0,167c71,9,106.2-7.7,108.5-47.7
		C114.6,124,79.5,116.7,79.5,116.7z M29.2,54.6c0,0,57.6-10.7,57.6,27.4c0,35.3-57.6,27.6-57.6,27.6V54.6z M91.9,160.2
		c0,42.6-62.7,31.7-62.7,31.7v-65.3C29.2,126.6,93.9,118.9,91.9,160.2z"/>
	<path d="M244.5,150.9c4.2-20.5-4.2-67.5-49.9-69.1c-17,0-54.4,11.2-57.9,62.7c0,53.4,32.6,66.2,62.4,66.2s39-8,39-8l-4.2-15
		c-21.1,7.7-49.6,9.9-64.3-5.1c-13.1-12.2-11.2-31.7-11.2-31.7H244.5z M158.2,134.9c0,0,3.5-36.5,35.2-36.5c31.7,0,31,36.5,31,36.5
		H158.2z"/>
	<path d="M188.7,72.6V16.4c0,0-7.2-4.8-20.9-4.8c-12,0-19.7,4.3-19.7,4.3l-16.1,56.6c0,0,16.1-8.6,30-8.4
		C176,64.4,188.7,72.6,188.7,72.6z"/>
	<path d="M195.5,72.6V16.4c0,0,7.2-4.8,20.9-4.8c12,0,19.7,4.3,19.7,4.3l16.1,56.6c0,0-16.1-8.6-30-8.4
		C208.3,64.4,195.5,72.6,195.5,72.6z"/>
	<path d="M359.1,106.4c1-4.8,3.5-12.8,5.1-17.3c-28.2-12.8-93.7-10.6-97.3,58.5c3.2,79,82.2,64.3,97.3,55.7c0,0-3.2-10.2-4.5-16.6
		c-15.4,10.9-66.8,15.4-70.4-38.1C290.9,88.2,347.9,98.4,359.1,106.4z"/>
	<path d="M485.8,191.2c-0.9-36.1,2.2-66.5-3.7-82.8c-8.1-19.8-24-25.4-44.6-25.4c-26.2,0-39.1,10.6-39.1,10.6l4.9,14.4
		c0,0,30-19.4,51.5-3.5c9.9,6.1,9,25.9,9,25.9s-60.7-4.1-71.9,31.7c-9.7,27.6,10.2,54.2,43.6,47.9c14.2-2.9,26.2-12.1,30.2-18.5
		c0.8,9.6,1.9,16.6,1.9,16.6H488C488,208.2,486.7,205.3,485.8,191.2z M463.9,170.5c-0.5,3.8-6.7,23.8-30.7,24.2
		c-20.3,0.7-22.3-16-22.4-21.7c0.4-3.6-2-29.4,53.2-27.9C463.9,145.1,464.4,166.6,463.9,170.5z"/>
	<path d="M630.4,82.2c-21.6,0-60.5,13.3-60.5,64.8s37.8,64.4,60.5,63.9c22.7-0.4,59.2-15.9,59.2-66S650.8,82.2,630.4,82.2z
		 M630.1,194.7c-14.1,0.3-38.4-9.3-38.4-47.6s25-48.2,38.4-48.2c12.7,0,37.6,9.5,37.6,46.7S644.2,194.4,630.1,194.7z"/>
	<path d="M777.8,106.2l5.8-15.8c0,0-13.7-8.3-29.8-8.1c-16.1,0.2-43.4,9.8-43.4,36s31.2,34.1,34.1,35.3c2.9,1.2,22.6,7,22.6,23.5
		s-21.8,17.8-25,17.8s-18.2-1.9-29.5-8.7l-5.8,16.6c0,0,18.2,8.7,35.3,8.3s46.1-7.1,46.1-37.3s-37.2-37.7-42.5-40.3
		c-5.3-2.6-14.2-8.6-14.2-16.6C730.5,107.1,743.7,87.7,777.8,106.2z"/>
	<rect x="519.6" y="36.6" width="22.6" height="173.2"/>
</g>
</svg>
