<?xml version="1.0" encoding="utf-8"?>
<!-- Generator: Adobe Illustrator 25.0.0, SVG Export Plug-In . SVG Version: 6.00 Build 0)  -->
<svg version="1.1" id="Layer_1" xmlns="http://www.w3.org/2000/svg" xmlns:xlink="http://www.w3.org/1999/xlink" x="0px" y="0px"
	 viewBox="0 0 385.77 375.3" style="enable-background:new 0 0 385.77 375.3;" xml:space="preserve">
<style type="text/css">
	.st0{fill:#F1F2F2;}
	.st1{fill:#FFFFFF;}
	.st2{clip-path:url(#SVGID_2_);}
</style>
<g>
	<g>
		<path class="st0" d="M80.62,213.95c23.96,34.91,64.09,57.83,109.6,57.83c45.52,0,85.74-22.92,109.76-57.83H80.62z"/>
		<path class="st0" d="M190.23,272.28c-43.94,0-85.07-21.7-110.01-58.04l-0.54-0.78h221.27l-0.54,0.78
			C275.38,250.58,234.2,272.28,190.23,272.28z M81.58,214.45c24.81,35.6,65.35,56.83,108.65,56.83c43.32,0,83.93-21.23,108.81-56.83
			H81.58z"/>
	</g>
	<g>
		<path d="M190.34,5.8c-73.49,0-133.07,59.58-133.07,133.07c0,27.98,8.62,53.95,23.35,75.41h219.37
			c14.77-21.46,23.43-47.43,23.43-75.41C323.42,65.38,263.84,5.8,190.34,5.8z"/>
	</g>
	<g>
		<g>
			<g>
				<path class="st1" d="M182.9,92.95c0,0-4-1-10.67,10.67l-11,16c0,0-17-9.33-37-8.67h-3.67l0.47-6.09
					c7.68,0.23,20.05-2.76,21.87-23.91c0,0,0.67-19.33-4.67-15l-2,1c0,0,1.67,28.33-7.67,30c0,0-18,1.67-18.33-21.33
					c0,0,2.19-15.88,15.26-21.34c11.36,1.35,26.86,7.79,22.08,33.67l2-3.67h4.67l4.67-5c0,0,1.33-42.33-46-30.67
					c0,0-25.67,12.33-19.33,46c0,0,3,16-16,25l-21.33,10.67l1,6.33c0,0,29.67-13,38.33-26.33c0,0,7-10.67,3-23c0,0-2-27,16-33
					c0,0,1.57-0.23,4.03-0.3c-8.85,6.96-26.53,25.32-4.88,48.72l-0.81,8.92c0,0-22.67,8.33-40.33,35c0,0-16,18,32.67,10.67l-1-7.67
					c0,0-26,3.67-26.33-3c0,0-0.67-9.67,21.67-7.33c0,0,3-18.67,5.33-19c0,0,6-3.67,4,7l-1,32l16-1l-2.33-41.67
					c0,0,19.67,3.33,29,12.33l8,6.33c0,0,25.67-29,25.67-35C184.23,100.28,184.9,95.62,182.9,92.95z"/>
			</g>
			<g>
				<g>
					<path class="st1" d="M182.44,91.83c-0.86-0.2-1.94,0.35-2.63,0.77c-3.03,1.8-5.23,5.08-7.04,7.99
						c-2.75,4.41-5.76,8.65-8.71,12.93c-1.17,1.7-2.33,3.39-3.5,5.09c0.12-0.02,0.24-0.04,0.37-0.05c-2.94-1.61-6.11-2.85-9.25-3.98
						c-7.25-2.6-14.87-4.3-22.58-4.69c-2.99-0.15-6-0.05-9-0.05c0.39,0.65,0.78,1.31,1.17,1.96c0.16-2.03,0.31-4.06,0.47-6.09
						c-0.08,0.09-0.17,0.18-0.25,0.28c3.5,0.1,7.06-0.48,10.21-2.04c4.17-2.07,7.22-5.75,9.06-9.97c1.88-4.29,2.84-9.16,2.86-13.84
						c0.01-3.77-0.05-7.73-1.05-11.4c-0.41-1.51-1.17-3.71-2.75-4.39c-0.66-0.28-1.28-0.09-1.87,0.26
						c-0.75,0.46-1.53,0.84-2.32,1.24c-0.16,0.08-0.12,0.35-0.11,0.47c0.01,0.16,0-0.03,0-0.03c0,0.16,0.02,0.33,0.02,0.49
						c0.02,0.57,0.04,1.15,0.05,1.72c0.04,1.91,0.04,3.82-0.02,5.73c-0.15,4.89-0.51,9.95-1.97,14.64
						c-0.84,2.68-2.45,6.63-5.72,6.97c-2.17,0.22-4.61-0.32-6.62-1.06c-3.9-1.43-6.96-4.35-8.55-8.2c-1.6-3.89-2.34-8.49-1.27-12.6
						c1.27-4.85,3.56-9.6,7.01-13.29c1.08-1.15,2.28-2.2,3.57-3.1c1.14-0.8,2.94-2.18,4.36-2.13c2,0.07,4.17,0.71,6.07,1.29
						c4.28,1.32,8.37,3.63,11.16,7.21c3.7,4.75,4.39,11.12,4,16.95c-0.14,2.08-0.42,4.15-0.8,6.2c-0.08,0.44,1.05,2.47,1.38,1.85
						c0.31-0.58,0.63-1.15,0.94-1.73c0.23-0.43,0.47-0.86,0.7-1.28c0.07-0.12,0.43-0.7,0.25-0.59c-0.18,0.11,0.36,0.05,0.49,0.05
						c0.46,0,0.91,0,1.37,0c0.79,0,1.79,0.17,2.55,0c0.38-0.08,0.47-0.24,0.76-0.55c0.61-0.66,1.22-1.31,1.84-1.97
						c0.63-0.67,1.26-1.35,1.89-2.02c0.21-0.23,0.48-0.44,0.56-0.74c0.19-0.66-0.03-1.7-0.07-2.36c-0.1-1.74-0.32-3.48-0.64-5.2
						c-0.97-5.26-2.85-10.42-5.91-14.84c-3.82-5.53-9.36-9.41-15.87-11.12c-4.39-1.15-8.98-1.34-13.49-0.99
						c-2.71,0.21-5.41,0.62-8.07,1.16c-1.18,0.24-2.48,0.37-3.57,0.89c-3.99,1.91-7.57,5.3-10.42,8.6
						c-5.79,6.71-9.04,15.19-9.63,24.01c-0.32,4.77,0.32,9.33,0.96,14.03c0.28,2.08,0.08,4.33-0.36,6.42
						c-0.89,4.16-3.02,8.02-5.96,11.08c-3,3.12-6.65,5.23-10.48,7.15c-6.25,3.13-12.51,6.25-18.76,9.38
						c-0.57,0.28-1.14,0.57-1.71,0.85c-0.15,0.07-0.13,0.36-0.11,0.47c0.33,2.11,0.67,4.22,1,6.33c0.06,0.39,0.67,2,1.29,1.73
						c5.27-2.31,10.41-5.01,15.4-7.87c4.33-2.48,8.57-5.15,12.55-8.16c3.59-2.71,7.1-5.73,9.77-9.38c1.72-2.35,2.88-5.12,3.7-7.89
						c0.78-2.62,1.23-5.34,1.27-8.07c0.02-1.41-0.07-2.82-0.27-4.22c-0.21-1.46-0.66-2.82-0.98-4.24c-0.06-0.26,0-0.09-0.01-0.22
						c-0.03-0.34-0.03-0.68-0.03-1.02c-0.02-1.07,0-2.14,0.04-3.21c0.14-3.36,0.56-6.72,1.37-9.98c1.07-4.33,2.83-8.59,5.71-12.05
						c1.53-1.84,3.39-3.4,5.48-4.56c1.02-0.57,2.2-1.2,3.34-1.47c1.24-0.29,2.64-0.24,3.9-0.29c-0.35-0.74-0.7-1.48-1.05-2.22
						c-4.73,3.73-9,8.24-11.89,13.56c-3.7,6.82-4.43,14.62-1.89,21.98c1.95,5.65,5.42,10.64,9.44,15.02
						c-0.22-0.53-0.44-1.06-0.66-1.58c-0.15,1.61-0.29,3.22-0.44,4.83c-0.09,1.04-0.19,2.09-0.28,3.13
						c-0.02,0.27-0.05,0.55-0.07,0.82c-0.02,0.29,0.12-0.13,0.08-0.11c-1.75,0.68-3.45,1.51-5.11,2.38
						c-9.99,5.26-18.87,12.62-26.34,21.05c-2.65,2.99-5.13,6.13-7.42,9.41c-0.59,0.84-1.13,1.7-1.75,2.51
						c-0.61,0.79-1.15,1.62-1.56,2.52c-1.56,3.4-0.46,7.16,2.7,9.23c2.56,1.67,5.89,2.12,8.87,2.37c6.07,0.49,12.23-0.07,18.26-0.8
						c1.96-0.24,3.92-0.51,5.88-0.81c0.15-0.02,0.12-0.41,0.11-0.47c-0.33-2.56-0.67-5.11-1-7.67c-0.07-0.53-0.6-1.83-1.29-1.73
						c-2.24,0.31-5.23,0.6-7.72,0.77c-4.38,0.29-8.93,0.5-13.27-0.3c-1.57-0.29-2.85-0.8-4.11-1.64c-0.11-0.07,0.27,0.31,0.09,0.15
						c-0.15-0.13-0.01-0.3-0.01-0.09c0.01-0.16,0.01-0.31,0.03-0.47c0.2-1.76,1.65-3.41,3.2-4.39c5.17-3.27,12.42-2.72,18.19-2.14
						c0.18,0.02,0.23-0.13,0.25-0.28c0.71-4.39,1.54-8.79,2.69-13.09c0.62-2.32,1.38-6.7,4.73-6.23c0.81,0.11,0.76,0.23,0.85,0.97
						c0.2,1.6-0.23,3.12-0.36,4.69c-0.1,1.16-0.07,2.35-0.11,3.51c-0.17,5.42-0.34,10.85-0.51,16.27
						c-0.13,4.06-0.25,8.12-0.38,12.18c-0.01,0.47,0.52,2,1.17,1.96c5.33-0.33,10.67-0.67,16-1c0.28-0.02,0.25-0.27,0.24-0.49
						c-0.68-12.18-1.36-24.36-2.05-36.54c-0.1-1.71-0.19-3.42-0.29-5.13c-0.08,0.16-0.16,0.33-0.24,0.49
						c4.61,0.79,9.19,2.09,13.58,3.67c3.78,1.36,7.49,3.01,10.87,5.18c2.21,1.42,4.12,3.22,6.18,4.84c2.01,1.59,4.03,3.19,6.04,4.78
						c0.19,0.15,0.36,0.28,0.54,0.08c3.77-4.26,7.43-8.61,11.02-13.01c2.88-3.53,5.7-7.1,8.38-10.78c2.04-2.8,4.17-5.7,5.59-8.87
						c1.54-3.44,1.03-8.13-1.11-11.17c-0.17-0.24-0.59-0.85-0.9-0.51c-0.28,0.3,0.29,1.28,0.45,1.51c1.61,2.3,1.21,6.1,0.03,8.56
						c-1.46,3.05-3.5,5.85-5.48,8.58c-4.84,6.65-10.12,13-15.47,19.25c-1.28,1.49-2.56,2.98-3.86,4.45
						c0.18,0.03,0.36,0.05,0.54,0.08c-1.78-1.41-3.55-2.81-5.33-4.22c-1.98-1.57-3.86-3.31-5.92-4.77
						c-6.1-4.34-13.51-6.86-20.71-8.68c-1.77-0.45-3.56-0.87-5.37-1.18c-0.28-0.05-0.25,0.33-0.24,0.49
						c0.68,12.18,1.36,24.36,2.05,36.54c0.1,1.71,0.19,3.42,0.29,5.13c0.08-0.16,0.16-0.33,0.24-0.49c-5.33,0.33-10.67,0.67-16,1
						c0.39,0.65,0.78,1.31,1.17,1.96c0.3-9.51,0.59-19.02,0.89-28.53c0.04-1.15,0.01-2.32,0.11-3.47c0.26-2.93,1.13-6.6-1.42-8.88
						c-1.09-0.97-2.44-0.74-3.66-0.18c-1.29,0.59-1.73,2.16-2.15,3.42c-1.73,5.14-2.66,10.62-3.52,15.96
						c0.08-0.09,0.17-0.18,0.25-0.28c-5.71-0.58-12.65-1.05-17.89,1.84c-1.93,1.07-3.62,2.81-3.97,5.06
						c-0.37,2.39,1.43,4.51,3.54,5.37c4.12,1.69,9.16,1.41,13.52,1.22c3.51-0.15,7.04-0.45,10.52-0.94
						c-0.43-0.58-0.86-1.15-1.29-1.73c0.33,2.56,0.67,5.11,1,7.67c0.04-0.16,0.07-0.32,0.11-0.47c-6.25,0.94-12.58,1.69-18.91,1.74
						c-3.54,0.02-7.22-0.11-10.64-1.13c-1.01-0.3-2.01-0.7-2.9-1.28c-0.31-0.2-0.56-0.4-0.84-0.67c-0.03-0.03-0.1-0.09-0.24-0.27
						c0.14,0.17-0.28-0.41-0.07-0.08c-0.04-0.06-0.08-0.14-0.11-0.21c-0.12-0.25,0.12,0.28,0.01,0.02c-0.16-0.36,0,0.07-0.08-0.21
						c-0.06-0.2-0.08-0.26-0.11-0.68c-0.02-0.26,0.07-1.13,0.17-1.53c0.4-1.61,1.32-2.95,2.31-4.26c-0.33,0.44,0.51-0.75,0.25-0.38
						c0.26-0.37,0.51-0.75,0.76-1.12c0.5-0.73,1.02-1.46,1.54-2.18c1.09-1.51,2.22-2.98,3.39-4.43c2.06-2.54,4.24-4.99,6.53-7.32
						c3.89-3.96,8.11-7.6,12.62-10.84c4.64-3.34,9.74-6.63,15.15-8.63c0.08-0.06,0.12-0.15,0.12-0.26c0.26-2.87,0.6-5.74,0.78-8.61
						c0.04-0.61-0.1-1.12-0.45-1.65c-1.11-1.66-2.69-3.06-3.87-4.68c-1.8-2.46-3.34-5.12-4.42-7.98c-3.4-9.05-0.74-18.47,4.97-25.91
						c2.46-3.21,5.39-6.04,8.56-8.54c0.51-0.4-0.48-2.24-1.05-2.22c-2.35,0.08-4.27,0.21-6.39,1.22c-1.92,0.91-3.67,2.14-5.19,3.63
						c-2.9,2.83-4.9,6.44-6.22,10.24c-1.96,5.61-2.72,11.76-2.5,17.69c0.03,0.8,0.14,1.33,0.37,2.13c0.91,3.2,1.1,6.57,0.7,9.88
						c-0.48,3.92-1.75,7.89-3.78,11.29c-1.92,3.21-4.78,5.88-7.62,8.26c-3.83,3.21-8.01,6.01-12.29,8.6
						c-5.96,3.61-12.16,6.92-18.55,9.72c0.43,0.58,0.86,1.15,1.29,1.73c-0.33-2.11-0.67-4.22-1-6.33c-0.04,0.16-0.07,0.32-0.11,0.47
						c5.33-2.67,10.67-5.33,16-8c1.9-0.95,3.8-1.91,5.71-2.85c4.8-2.35,9.2-5.66,12.16-10.17c2.81-4.28,4.39-9.88,3.59-15.02
						c-0.77-5.01-1.29-9.92-0.77-14.98c0.47-4.6,1.68-9.1,3.66-13.27c2.77-5.82,6.99-10.9,12.16-14.74c1.2-0.89,2.48-1.82,3.83-2.47
						c0.89-0.43,1.91-0.55,2.88-0.75c2.71-0.58,5.46-1.02,8.22-1.25c7.7-0.64,15.85,0.33,22.33,4.85c4.41,3.07,7.48,7.59,9.3,12.57
						c1.31,3.59,2.03,7.43,2.25,11.24c0.02,0.38,0.12,1.28,0.04,1.89c0.04-0.29,0.19-0.29,0-0.12c-0.2,0.17-0.37,0.4-0.55,0.59
						c-0.61,0.65-1.22,1.31-1.83,1.96c-0.57,0.62-1.15,1.23-1.72,1.85c-0.41,0.44-0.25,0.43-0.68,0.46c-1.42,0.08-2.87,0-4.3,0
						c-0.1-0.01-0.17,0.02-0.21,0.11c-0.67,1.22-1.33,2.44-2,3.67c0.46,0.62,0.92,1.23,1.38,1.85c1.29-7.11,1.49-14.77-1.59-21.47
						c-2.19-4.77-5.87-8.63-10.56-10.99c-2.08-1.05-4.29-1.82-6.55-2.36c-1.07-0.26-2.14-0.47-3.23-0.63
						c-0.44-0.07-1.01-0.24-1.45-0.16c-0.88,0.16-1.91,0.89-2.68,1.34c-5.34,3.16-9,8.53-11.1,14.27c-0.62,1.69-1.12,3.43-1.46,5.2
						c-0.42,2.15,0.01,4.55,0.38,6.68c0.94,5.43,3.41,10.8,7.95,14.12c2.67,1.96,5.94,3.06,9.24,3.27c2.55,0.16,4.44-0.78,5.89-3.01
						c2.71-4.15,3.26-9.78,3.65-14.59c0.32-4.01,0.38-8.05,0.21-12.07c-0.01-0.27-0.02-0.55-0.04-0.82
						c-0.04,0.16-0.07,0.32-0.11,0.47c0.65-0.33,1.35-0.61,1.97-0.99c0.46-0.28,0.89-0.69,1.47-0.62c0.44,0.05,0.59,0.3,0.63,0.39
						c0.22,0.42,0.43,1.19,0.56,1.76c0.74,3.31,0.79,6.81,0.76,10.18c-0.07,8.44-3.2,18.34-11.04,22.63
						c-3.24,1.77-6.93,2.44-10.6,2.34c-0.17,0-0.24,0.12-0.25,0.28c-0.16,2.03-0.31,4.06-0.47,6.09c-0.04,0.5,0.53,1.96,1.17,1.96
						c6.59,0,13.05,0.09,19.55,1.39c6.13,1.23,12.16,3.14,17.86,5.71c1.05,0.47,2.09,0.96,3.1,1.51c0.15,0.08,0.27,0.09,0.37-0.05
						c2.65-3.86,5.31-7.72,7.96-11.58c1.01-1.47,2.08-2.91,3.03-4.41c2.09-3.31,4.06-6.89,7.26-9.28c0.78-0.58,2.13-1.54,3.2-1.29
						C183.85,94.19,183.15,92,182.44,91.83z"/>
				</g>
			</g>
		</g>
		<g>
			<g>
				<path class="st1" d="M94.57,165.28c0,0-24.67,10.67-2,22c0,0,9.33,0.33,1.33,4l-29.33,4.33l11,7.33c0,0,12.33,2.33,29-8
					c0,0,14.67-9-0.33-15c0,0-21.33,1-5.67-14.33l45,3.67c0,0,4.33,12-21,22.33l-36,16.33l23.33,1.67c0,0,30.33-17,38-26.33
					c0,0,4-4.33,4.67-14.33l-42.67-6L94.57,165.28z"/>
			</g>
			<g>
				<g>
					<path class="st1" d="M93.63,164.52c-3.33,1.44-6.66,3.56-9.1,6.25c-1.6,1.76-2.87,4.04-2.59,6.49
						c0.39,3.36,3.19,5.92,5.79,7.77c0.95,0.68,1.95,1.29,2.97,1.86c0.84,0.47,1.7,1.08,2.66,1.19c0.61,0.07,1.55,0.12,2.3,0.29
						c0.18,0.04,0.4,0.14,0.58,0.16c0.3,0.02,0.16,0.16,0.04-0.03c-0.47-0.72-0.11-0.17-0.28-0.03c-0.2,0.16-0.34,0.46-0.55,0.64
						c-0.75,0.64-1.75,1.22-2.7,1.43c-1.78,0.4-3.66,0.54-5.46,0.81c-3.02,0.45-6.05,0.89-9.07,1.34
						c-4.81,0.71-9.61,1.42-14.42,2.13c-0.86,0.13,0.22,1.08,0.48,1.25c2.24,1.5,4.49,2.99,6.73,4.49c1.24,0.82,2.47,1.65,3.71,2.47
						c0.5,0.33,0.96,0.63,1.56,0.75c2.18,0.43,4.61,0.25,6.79,0.04c4.89-0.48,9.68-1.85,14.18-3.78c3.53-1.51,7.14-3.26,10.15-5.68
						c2.13-1.72,4.56-4.11,4.67-7.03c0.06-1.66-0.79-3.16-1.92-4.32c-0.8-0.81-1.73-1.5-2.7-2.08c-1.13-0.67-2.65-1.66-3.98-1.78
						c-1.27-0.11-2.55-0.01-3.83-0.17c-2.06-0.25-4.68-0.65-5.46-2.37c-0.58-1.28-0.11-2.8,0.46-3.99c1.17-2.42,3.1-4.45,4.99-6.32
						c-0.17,0.04-0.34,0.08-0.51,0.12c5.05,0.41,10.1,0.82,15.15,1.23c8.1,0.66,16.2,1.32,24.29,1.98c1.85,0.15,3.7,0.3,5.56,0.45
						c-0.53-0.38-1.07-0.76-1.6-1.15c0.17,0.47,0.23,1.04,0.24,1.75c0.03,1.62-0.35,3.22-1,4.7c-2.97,6.8-10.32,11.03-16.73,14
						c-9.31,4.31-18.72,8.43-28.06,12.67c-3.78,1.71-7.56,3.43-11.34,5.14c-0.78,0.35,1.14,1.53,1.48,1.56
						c4.83,0.35,9.66,0.69,14.5,1.04c2.6,0.19,5.2,0.37,7.79,0.56c1.01,0.07,1.43,0.06,2.31-0.44c4.95-2.82,9.83-5.75,14.65-8.79
						c6.48-4.09,13-8.32,18.79-13.36c1.73-1.5,3.5-3.11,4.73-5.06c2.47-3.9,3.45-8.67,3.78-13.21c0.05-0.65-1.13-1.25-1.64-1.32
						c-7.81-1.1-15.62-2.2-23.43-3.29c-4.92-0.69-9.84-1.38-14.77-2.08c-1.97-0.28-3.9-0.76-5.87-0.46
						c-4.72,0.72-9.43,1.44-14.15,2.15c-0.98,0.15,0.84,1.72,1.53,1.61c4.22-0.64,8.44-1.28,12.66-1.93
						c0.78-0.12,1.6-0.18,2.36-0.36c0.54-0.13-0.11-0.08,0.28-0.04c1.06,0.12,2.11,0.3,3.16,0.44c10.05,1.41,20.1,2.83,30.15,4.24
						c3.06,0.43,6.12,0.86,9.17,1.29c-0.55-0.44-1.09-0.88-1.64-1.32c-0.31,4.29-1.21,8.68-3.41,12.43
						c-0.93,1.59-2.18,2.92-3.51,4.18c-5.35,5.07-11.69,9.16-17.87,13.13c-5.22,3.35-10.52,6.56-15.9,9.65
						c-0.49,0.28-1.16,0.53-1.58,0.9c-0.06,0.05-0.19,0.07-0.24,0.14c0.13-0.16,0.63,0.03,0.06-0.05c-2.14-0.27-4.35-0.31-6.5-0.46
						c-5.5-0.39-11-0.79-16.5-1.18c0.49,0.52,0.99,1.04,1.48,1.56c8.98-4.07,17.96-8.15,26.93-12.22c3.31-1.5,6.6-3.07,9.95-4.48
						c7.04-2.96,15.18-7.18,18.95-14.23c1.24-2.31,2.21-5.54,1.28-8.15c-0.19-0.54-1.05-1.1-1.6-1.15
						c-8.12-0.66-16.24-1.32-24.37-1.99c-5.19-0.42-10.39-0.85-15.58-1.27c-1.43-0.12-2.86-0.23-4.28-0.35
						c-0.24-0.02-0.51-0.08-0.75-0.06c-0.59,0.04-0.82,0.4-1.24,0.83c-0.78,0.8-1.54,1.63-2.24,2.5c-1.43,1.79-3.13,4.22-2.79,6.66
						c0.26,1.89,1.79,3.25,3.38,4.12c1.64,0.89,3.51,1.35,5.35,1.59c1.36,0.18,2.74,0.08,4.09,0.23c0.77,0.09,1.37,0.53,2.11,0.95
						c1.35,0.76,2.68,1.81,3.08,3.38c0.6,2.35-1.06,4.62-2.61,6.21c-1.06,1.09-2.26,2.06-3.54,2.87c-4.13,2.62-8.65,4.73-13.31,6.19
						c-3.29,1.03-6.7,1.72-10.15,1.93c-1.65,0.1-3.25-0.08-4.88-0.11c-0.8-0.01,1.1,0.72,0.18,0.05c-0.82-0.59-1.69-1.12-2.53-1.68
						c-2.25-1.5-4.49-2.99-6.74-4.49c-0.45-0.3-0.9-0.6-1.35-0.9c0.16,0.42,0.32,0.84,0.48,1.25c9.44-1.39,18.87-2.79,28.31-4.18
						c0.34-0.05,0.7-0.07,1.03-0.15c0.98-0.25,3.4-1.37,3.55-2.63c0.25-2.13-3.76-2.75-5.18-2.89c-0.37-0.04-0.76-0.01-1.12-0.08
						c-0.29-0.06,0.24-0.01,0.24-0.02c-0.65-0.52-1.59-0.85-2.3-1.29c-1.74-1.08-3.47-2.34-4.63-4.06
						c-1.51-2.24-1.41-4.82-0.04-7.09c2.22-3.67,6.47-6.3,10.33-7.98C96.16,165.77,94.33,164.21,93.63,164.52z"/>
				</g>
			</g>
		</g>
	</g>
	<g>
		<g>
			<polygon points="95.51,122.16 86.7,126.82 120.89,139.16 			"/>
			<path class="st1" d="M124.56,141.01l-39.09-14.1l10.08-5.34L124.56,141.01z M87.93,126.74l29.3,10.57l-21.75-14.56L87.93,126.74z
				"/>
		</g>
		<g>
			<polygon points="85.29,170.16 86.7,126.82 120.89,139.16 120.63,180.86 			"/>
			<path class="st1" d="M121.13,181.54l-36.35-11.01l1.44-44.4l35.17,12.69L121.13,181.54z M85.8,169.79l34.33,10.4l0.26-40.68
				l-33.21-11.98L85.8,169.79z"/>
		</g>
		<g>
			<polygon points="129.38,138.53 156.17,124.53 164.8,131.55 			"/>
			<path class="st1" d="M126.08,139.69l30.15-15.75l9.71,7.91L126.08,139.69z M156.11,125.12l-23.43,12.25l30.98-6.1L156.11,125.12z
				"/>
		</g>
		<g>
			<polygon points="128.69,180.86 163.84,172.62 164.9,131.62 128.94,138.95 			"/>
			<path class="st1" d="M128.19,181.49l0.26-42.95l36.97-7.54l-1.08,42.01L128.19,181.49z M129.44,139.36l-0.24,40.87l34.16-8.01
				l1.03-39.99L129.44,139.36z"/>
		</g>
		<g>
			<rect x="120.84" y="139.13" width="7.76" height="41.67"/>
			<path class="st1" d="M129.1,181.3h-8.76v-42.67h8.76V181.3z M121.34,180.3h6.76v-40.67h-6.76V180.3z"/>
		</g>
	</g>
	<g>
		<path class="st1" d="M324.29,158.06l-22.16-23.45l-22.67-21.64c0,0-7.47-1.8-10.56-1.29c-3.09,0.51-1.55-7.99-1.55-7.99
			s15.2-8.25,14.95-25.51c0,0,3.35-38.65-29.89-32.72c0,0-14.17,5.93-16.23,13.14c0,0-11.08,16.23-2.32,22.67
			c0,0,2.58,0.26,3.35-2.06c0,0,2.06-11.59,4.9-17.01c0,0,10.56-17.01,22.16-6.18c0,0,14.69,4.38,7.73,32.98
			c0,0-3.61,12.88-17.26,5.15c0,0-8.76-11.34-2.32-26.02c0,0,1.55-11.59-2.83-6.96c0,0-14.43,15.2-5.93,34.27
			c0,0,5.15,7.47,12.11,10.31l-1.29,3.87c0,0-26.28,3.61-31.69,8.5c0,0-4.38-0.26-7.21-7.73c0,0-12.63-22.16-15.98-18.04
			c0,0-5.41,7.21,1.29,16.75l9.53,15.2c0,0,6.44,4.9,11.08,1.03c0,0,20.87-8.25,30.66-9.02l4.64-0.77l-0.26,41.48
			c0,0-27.83,7.47-27.05,17.78c0,0,2.58,6.44,5.67,10.82c0,0,2.06,3.35-4.64,3.87c0,0-7.73,6.44,1.8,9.28c0,0,11.34-0.26,16.23-3.87
			c0,0,0.26-0.28,0.59-0.76c10.27,5.05,22.08,20.6,22.08,20.6l32.98-1.47l-24.22-16.05l-2.58-7.73l-2.16-41.5l5.51-0.76l-9.53-24.74
			c0,0,48.7,42.77,51.79,52.05C326.09,183.83,324.29,158.06,324.29,158.06z M251.63,187.43l-1.72,0.52c-0.71-1.6-2.25-3.29-5.24-4.9
			c0,0-11.08-4.38-2.58-9.79c0,0,3.87-5.67,13.4-5.67l1.01-0.17l1.31,17.43L251.63,187.43z M272.51,146.41l-8.45,4.89l1.23-22.36
			L272.51,146.41z"/>
		<path class="st1" d="M271.09,215.01l-0.08-0.1c-0.12-0.15-11.75-15.37-21.8-20.44c-0.28,0.38-0.48,0.6-0.49,0.61
			c-4.94,3.64-15.94,3.93-16.41,3.94l-0.04,0l-0.04-0.01c-2.89-0.86-4.53-2.14-4.87-3.82c-0.59-2.87,2.83-5.76,2.98-5.89l0.06-0.05
			l0.08-0.01c2.47-0.19,4.04-0.8,4.54-1.78c0.43-0.84-0.09-1.7-0.09-1.71c-3.06-4.34-5.66-10.8-5.69-10.86l-0.02-0.07
			c-0.33-4.39,4.17-8.76,13.38-13c6.18-2.85,12.52-4.67,13.67-4.99l0.25-41l-4.35,0.72c-9.47,0.75-29.58,8.6-30.57,8.99
			c-4.73,3.9-11.29-1-11.36-1.05l-0.06-0.07l-9.53-15.2c-6.72-9.56-1.33-16.96-1.28-17.03c0.37-0.45,0.84-0.65,1.4-0.6
			c4.52,0.37,14.57,17.92,15,18.67c2.53,6.66,6.27,7.5,6.92,7.59c5.42-4.71,29.22-8.14,31.59-8.47l1.17-3.5
			c-6.84-2.9-11.95-10.23-12-10.31c-8.5-19.04,5.8-34.43,5.95-34.58c0.96-1.02,1.74-1.37,2.36-1.07c1.83,0.87,1,7.48,0.9,8.23
			l-0.02,0.07c-6.12,13.95,1.71,24.99,2.26,25.73c4.32,2.43,8.05,3.03,11.08,1.78c4.31-1.78,5.76-6.76,5.77-6.81
			c6.81-28-7.42-32.63-7.56-32.67l-0.1-0.06c-2.91-2.71-5.99-3.87-9.2-3.45c-7.13,0.95-12.53,9.5-12.58,9.58
			c-2.77,5.3-4.84,16.8-4.86,16.92c-0.83,2.51-3.59,2.27-3.62,2.27l-0.07-0.01l-0.06-0.04c-3.68-2.71-4.44-7.56-2.21-14.04
			c1.59-4.61,4.18-8.54,4.45-8.95c2.11-7.23,15.78-13.02,16.37-13.27c9.16-1.64,16.38-0.07,21.52,4.63
			c10.23,9.35,8.73,28.16,8.71,28.35c0.25,16.43-13.61,24.86-14.97,25.65c-0.3,1.75-0.78,6.14,0.38,7.32
			c0.24,0.24,0.53,0.33,0.9,0.27c3.1-0.52,10.36,1.22,10.66,1.29l0.07,0.02l0.05,0.05l22.67,21.64l22.23,23.52l0.01,0.09
			c0.39,5.54,1.13,18.47-0.36,18.76c-0.39,0.08-0.78-0.26-1.42-2.18c-2.82-8.47-44.73-45.76-50.95-51.26l9.28,24.08l-5.59,0.77
			l2.15,41.23l2.54,7.62l24.79,16.43L271.09,215.01z M249.05,193.83l0.19,0.1c9.76,4.8,21.03,19.2,22.09,20.57l32.08-1.43
			l-23.65-15.68l-2.62-7.88l-2.17-41.73l5.42-0.75l-9.79-25.39l0.76,0.67c1.99,1.75,48.79,42.92,51.86,52.16
			c0.56,1.69,0.84,1.83,0.88,1.85c0.7-0.5,0.53-9.61-0.07-18.15l-22.1-23.38l-22.62-21.59c-0.74-0.17-7.54-1.74-10.4-1.27
			c-0.53,0.09-0.98-0.05-1.34-0.41c-1.61-1.63-0.54-7.62-0.5-7.87l0.02-0.12l0.11-0.06c0.15-0.08,15.07-8.38,14.81-25.29
			c0.02-0.21,1.5-18.78-8.55-27.96c-5.03-4.59-12.11-6.11-21.04-4.52c-0.09,0.04-14.03,5.95-16.04,12.96l-0.03,0.07
			c-0.11,0.16-10.79,16.03-2.43,22.29c0.39,0.03,2.38,0.03,3.02-1.9c0.01-0.08,2.09-11.66,4.91-17.04
			c0.23-0.38,5.58-8.85,12.95-9.83c3.34-0.44,6.56,0.75,9.57,3.54c1.02,0.36,14.55,5.69,7.84,33.26c-0.06,0.22-1.52,5.27-6.06,7.14
			c-3.2,1.32-7.09,0.71-11.57-1.83l-0.08-0.06c-0.09-0.11-8.76-11.61-2.36-26.25c0.36-2.7,0.5-7.15-0.62-7.68
			c-0.5-0.24-1.24,0.39-1.78,0.97c-0.14,0.15-14.21,15.31-5.88,34c0.03,0.03,5.17,7.4,11.98,10.18l0.22,0.09l-1.41,4.23l-0.15,0.02
			c-0.26,0.04-26.27,3.65-31.56,8.44l-0.08,0.07l-0.1-0.01c-0.19-0.01-4.58-0.35-7.43-7.89c-0.09-0.15-10.33-18.03-14.59-18.38
			c-0.4-0.03-0.71,0.1-0.96,0.41c-0.05,0.06-5.21,7.18,1.3,16.45l9.52,15.17c0.52,0.38,6.48,4.56,10.73,1.01l0.07-0.04
			c0.21-0.08,21.02-8.27,30.73-9.04l4.91-0.82l-0.26,41.97l-0.18,0.05c-0.28,0.07-27.55,7.52-26.87,17.48
			c0.21,0.52,2.71,6.6,5.63,10.73c0.04,0.06,0.68,1.12,0.12,2.21c-0.58,1.14-2.22,1.83-4.86,2.04c-0.44,0.39-3.24,2.96-2.75,5.35
			c0.3,1.48,1.81,2.63,4.49,3.43c0.73-0.02,11.41-0.4,16.05-3.81c0,0,0.24-0.26,0.54-0.7L249.05,193.83z M249.78,188.26l-0.09-0.2
			c-0.78-1.76-2.51-3.37-5.13-4.78c-0.2-0.08-5.59-2.25-5.9-5.52c-0.15-1.61,0.95-3.18,3.27-4.67c0.4-0.54,4.47-5.73,13.57-5.73
			l1.24-0.21l1.34,17.88l-6.37,2.65L249.78,188.26z M256.28,167.72l-0.74,0.12c-9.33,0-13.2,5.51-13.23,5.56l-0.07,0.07
			c-2.18,1.39-3.22,2.81-3.08,4.23c0.28,2.98,5.56,5.1,5.62,5.12c2.65,1.42,4.42,3.05,5.28,4.83l1.5-0.46l6.01-2.5L256.28,167.72z
			 M263.78,151.75l1.32-23.92l7.72,18.68L263.78,151.75z M265.48,130.06l-1.15,20.8l7.86-4.55L265.48,130.06z"/>
	</g>
	<g>
		<g>
			<path class="st1" d="M313.9,173.78c0-15.19-12.31-27.5-27.5-27.5c-15.19,0-27.5,12.31-27.5,27.5c0,15.19,12.31,27.5,27.5,27.5
				C301.59,201.28,313.9,188.97,313.9,173.78z"/>
			<path class="st1" d="M286.4,201.78c-15.44,0-28-12.56-28-28c0-15.44,12.56-28,28-28s28,12.56,28,28
				C314.4,189.22,301.84,201.78,286.4,201.78z M286.4,146.78c-14.89,0-27,12.11-27,27c0,14.89,12.11,27,27,27s27-12.11,27-27
				C313.4,158.89,301.29,146.78,286.4,146.78z"/>
		</g>
		<g>
			<defs>
				<path id="SVGID_1_" d="M314.24,174.28c0-15.46-12.39-27.99-27.68-27.99c-15.29,0-27.68,12.53-27.68,27.99
					c0,15.46,12.39,27.99,27.68,27.99C301.85,202.27,314.24,189.74,314.24,174.28z"/>
			</defs>
			<clipPath id="SVGID_2_">
				<use xlink:href="#SVGID_1_"  style="overflow:visible;"/>
			</clipPath>
			<g class="st2">
				<g>
					<path d="M289.76,144.51c0,0-28.66,13.72-21.97,52.81c0,0-17.72-12.41-7.17-37.78C260.61,159.54,268.49,143.45,289.76,144.51z"
						/>
					<path class="st1" d="M268.48,198.42l-0.98-0.69c-0.18-0.13-17.93-12.93-7.35-38.38c0.09-0.19,8.25-16.41,29.63-15.34l1.97,0.1
						l-1.78,0.85c-0.28,0.14-28.23,14.03-21.7,52.28L268.48,198.42z M287.79,144.96c-19.23,0-26.65,14.65-26.73,14.81
						c-5.35,12.88-3.17,22.29-0.39,27.92c2.14,4.33,4.95,7.15,6.41,8.43c-3-19.64,3.08-32.65,8.79-40.15
						c4.58-6.02,9.55-9.49,12.05-10.99C287.87,144.96,287.83,144.96,287.79,144.96z"/>
				</g>
				<g>
					<path d="M287.28,204.05c0,0,25.34-15.24,18.43-53.52c0,0,16.66,13.47,9.04,37.57C314.75,188.11,300.39,205.83,287.28,204.05z"
						/>
					<path class="st1" d="M289.11,204.68c-0.65,0-1.28-0.04-1.91-0.13l-1.41-0.19l1.22-0.73c0.25-0.15,24.96-15.53,18.2-53
						l-0.24-1.32l1.04,0.85c0.17,0.14,16.83,13.96,9.2,38.11l-0.09,0.16c-0.04,0.04-3.68,4.52-8.89,8.71
						C300.08,202.1,294.2,204.68,289.11,204.68z M288.73,203.67c11.86,0.36,24.59-14.63,25.57-15.81
						c6.23-19.86-4.36-32.48-7.85-35.96c3.09,19.14-2.03,32.29-6.94,40.01C295.39,198.38,290.85,202.14,288.73,203.67z"/>
				</g>
				<g>
					<path d="M293.3,145.22c0,0,8.51,0.35,10.28,4.96c1.77,4.61-4.96,39.7-21.27,53.52c0,0-9.92-0.36-11.7-4.61
						C270.62,199.09,271.33,164.71,293.3,145.22z"/>
					<path class="st1" d="M282.49,204.21l-0.19-0.01c-0.42-0.02-10.27-0.42-12.14-4.92l-0.04-0.1l0-0.11
						c0.01-0.35,0.97-34.82,22.85-54.24l0.15-0.13l0.2,0.01c0.36,0.01,8.86,0.42,10.72,5.28c1.86,4.84-5.06,40.22-21.41,54.08
						L282.49,204.21z M271.12,198.99c1.6,3.51,9.67,4.12,11.02,4.2c15.96-13.71,22.78-48.12,20.97-52.83
						c-1.49-3.88-8.37-4.54-9.63-4.63C272.67,164.34,271.19,196.87,271.12,198.99z"/>
				</g>
			</g>
		</g>
	</g>
	<g>
		<path d="M117.13,250.19c21.3,13.78,46.11,21.91,73.41,21.91c27.3,0,53.93-8.21,74.22-23.02L117.13,250.19z"/>
	</g>
	<g>
		<path d="M286.32,231.05L94.35,231.2c4.76,4.8,8.56,8.82,14.28,12.75h163.31C274.41,242.42,281.07,236.54,286.32,231.05z"/>
	</g>
	<g>
		<path class="st1" d="M301.56,211.02l-222.52-0.07c3.7,5.17,6.77,10.07,11.16,14.67h200.13
			C294.85,220.6,297.86,216.19,301.56,211.02z"/>
		<path class="st1" d="M290.56,226.12H89.99l-0.15-0.15c-3.44-3.59-6.04-7.33-8.8-11.29c-0.79-1.13-1.58-2.27-2.41-3.43l-0.57-0.79
			h0.97l223.49,0.07l-1.86,2.61c-3.2,4.5-5.97,8.38-9.96,12.82L290.56,226.12z M90.42,225.12h199.7c3.88-4.33,6.6-8.15,9.74-12.57
			l0.74-1.03l-220.58-0.07c0.63,0.89,1.25,1.77,1.85,2.65C84.56,217.97,87.11,221.63,90.42,225.12z"/>
	</g>
	<g>
		<path d="M301.56,212.02l-222.52-0.07c3.7,5.17,6.77,10.07,11.16,14.67h200.13C294.85,221.6,297.86,217.19,301.56,212.02z"/>
	</g>
	<g>
		<path d="M11.13,214.68c-1.43-1.26-3.45-4.11-5-8.15c-3.59-9.37-0.13-18.78,11.22-23.12c10.83-4.14,20.87,0.1,24.81,10.41
			c1.59,4.14,1.66,7.11,1.48,8.48l-4.04,0.36c0.2-1.94-0.07-4.5-1.13-7.26c-2.98-7.79-10.15-10.99-19.23-7.51
			c-8.47,3.24-12.12,10.01-9.02,18.09c1,2.61,2.58,5.06,4.12,6.45L11.13,214.68z"/>
		<path d="M26.16,218.94c-5.6,3.38-5.91,8.2-3.57,12.22c1.67,2.88,3.21,4.31,4.75,5.42l-2.59,2.43c-1.49-1.03-3.66-3-5.7-6.52
			c-3.96-6.8-1.67-13.57,5.26-17.61c6.93-4.04,14.68-3.29,18.42,3.14c4.2,7.21-1.29,12.97-5.51,15.43c-0.85,0.5-1.57,0.79-2.03,1
			L26.16,218.94z M36.01,228.97c2.69-1.5,6.18-5,3.55-9.52c-2.36-4.06-7.29-3.57-10.38-2.21L36.01,228.97z"/>
		<path d="M45.02,236.36c2.12-1.74,3.83-3.21,5.43-4.73l2.61,3.19l-3.23,2.99l0.07,0.08c2.76-0.62,6.55,0.1,9.22,3.36
			c2.24,2.74,4.03,8.38-3.02,14.16l-12.28,10.07l-2.95-3.59l11.85-9.72c3.31-2.72,5.1-6.17,2.32-9.56
			c-1.94-2.37-5.19-2.78-7.78-1.68c-0.6,0.22-1.31,0.66-1.94,1.18l-12.36,10.14l-2.95-3.59L45.02,236.36z"/>
		<path d="M78.74,251.64l-5.21,5.58l4.86,4.54l-2.51,2.69l-4.86-4.54l-9.79,10.48c-2.25,2.41-2.87,4.39-0.98,6.15
			c0.89,0.83,1.66,1.32,2.19,1.6l-2.32,2.79c-0.92-0.33-2.15-1.1-3.46-2.33c-1.58-1.48-2.37-3.19-2.28-4.91
			c0.01-1.95,1.28-4,3.41-6.29l9.9-10.6l-2.9-2.7l2.51-2.69l2.9,2.7l4.35-4.66L78.74,251.64z"/>
		<path d="M77.21,271.45c1.9-2.49,3.49-4.66,4.86-6.72l3.23,2.47l-3.04,4.25l0.17,0.13c3.09-2.13,6.68-2.23,9.16-0.34
			c0.42,0.32,0.68,0.59,0.95,0.93l-2.77,3.63c-0.31-0.38-0.66-0.71-1.16-1.09c-2.6-1.99-6.02-1.34-8.72,1.16
			c-0.48,0.46-1.03,1.01-1.53,1.66l-8.6,11.27L66.12,286L77.21,271.45z"/>
		<path d="M108.82,297.59c-4.9,8.53-12.72,8.98-18.07,5.9c-6-3.45-7.99-10.68-3.8-17.97c4.44-7.72,11.89-9.45,18.03-5.93
			C111.34,283.26,112.87,290.54,108.82,297.59z M91.11,287.72c-2.9,5.05-2.3,10.47,1.63,12.73c3.85,2.21,8.89,0.11,11.88-5.09
			c2.25-3.91,3.22-9.94-1.54-12.68S93.63,283.34,91.11,287.72z"/>
		<path d="M133.78,282.52l18.32,5.64l-1.18,3.83l-13.93-4.29l-3.62,11.76l12.87,3.96l-1.16,3.78l-12.87-3.96l-4.93,16.02l-4.39-1.35
			L133.78,282.52z"/>
		<path d="M156.52,286.81l4.56,0.89l-7.49,38.29l-4.56-0.89L156.52,286.81z"/>
		<path d="M177.93,328.96l-0.09-3.37l-0.16-0.01c-1.6,1.96-4.49,3.59-8.12,3.29c-5.16-0.44-7.47-4.44-7.15-8.27
			c0.54-6.41,6.31-9.45,16.14-8.57l0.05-0.55c0.18-2.19-0.06-6.18-5.27-6.62c-2.37-0.2-4.91,0.36-6.8,1.41l-0.79-3.26
			c2.23-1.25,5.36-1.92,8.57-1.65c7.79,0.66,9.22,6.35,8.77,11.66l-0.83,9.91c-0.19,2.3-0.28,4.55-0.11,6.39L177.93,328.96z
			 M178.38,315.38c-5.04-0.54-10.86-0.09-11.29,5.06c-0.26,3.12,1.61,4.77,3.98,4.97c3.32,0.28,5.6-1.73,6.53-3.92
			c0.2-0.48,0.35-1.02,0.39-1.51L178.38,315.38z"/>
		<path d="M192.3,302.74l6.47,15.38c0.68,1.72,1.43,3.77,1.94,5.34l0.11-0.01c0.39-1.62,0.8-3.68,1.32-5.63l4.19-15.87l4.9-0.28
			l-5.9,19.32c-2.81,9.29-4.82,14.09-7.82,17.12c-2.15,2.21-4.37,3.16-5.52,3.45l-1.39-4c1.14-0.45,2.62-1.3,3.93-2.59
			c1.21-1.11,2.68-3.07,3.6-5.6c0.18-0.51,0.32-0.9,0.3-1.17c-0.02-0.27-0.14-0.65-0.39-1.24l-10.81-23.94L192.3,302.74z"/>
		<path d="M216.79,308.68c-0.69-2.66-1.31-4.83-2.02-6.91l3.93-1.03l1.28,4.09l0.15-0.04c0.74-2.8,2.45-5.69,6.54-6.75
			c3.37-0.88,6.48,0.58,8.34,3.33l0.1-0.03c0.39-1.63,1.07-3,1.89-4.07c1.18-1.56,2.65-2.62,5-3.23c3.27-0.85,8.71,0.12,11.03,9.05
			l3.94,15.16l-4.39,1.14l-3.79-14.57c-1.29-4.95-3.8-7.47-7.43-6.53c-2.55,0.67-4.04,3.15-4.21,5.64
			c-0.04,0.69,0.03,1.58,0.25,2.43l4.14,15.9l-4.39,1.14L233.14,308c-1.07-4.09-3.58-6.62-7-5.73c-2.81,0.73-4.25,3.6-4.35,6.13
			c-0.08,0.76,0.03,1.58,0.24,2.38l4.04,15.53l-4.39,1.14L216.79,308.68z"/>
		<path d="M280.94,306.84l-1.81-2.85l-0.14,0.07c-0.36,2.5-2,5.39-5.27,6.99c-4.65,2.28-8.69,0.04-10.38-3.42
			c-2.83-5.77,0.55-11.35,9.44-15.65l-0.24-0.49c-0.97-1.97-3.23-5.27-7.93-2.97c-2.13,1.05-4.02,2.83-5.1,4.71l-2.35-2.4
			c1.27-2.21,3.61-4.4,6.5-5.82c7.02-3.44,11.17,0.7,13.52,5.49l4.38,8.93c1.02,2.07,2.1,4.05,3.19,5.54L280.94,306.84z
			 M274.35,294.96c-4.6,2.13-9.36,5.51-7.08,10.14c1.38,2.81,3.83,3.26,5.97,2.21c2.99-1.46,3.92-4.37,3.59-6.72
			c-0.07-0.51-0.22-1.05-0.44-1.5L274.35,294.96z"/>
		<path d="M283.26,284.46c-1.71-2.62-3.23-4.85-4.72-6.83l3.4-2.23l2.99,4.28l0.18-0.12c-0.98-3.62,0.12-7.04,2.73-8.75
			c0.44-0.29,0.78-0.45,1.2-0.58l2.5,3.82c-0.46,0.17-0.89,0.38-1.42,0.73c-2.74,1.79-3.27,5.23-1.81,8.61
			c0.27,0.61,0.61,1.31,1.06,2l7.76,11.87l-3.84,2.52L283.26,284.46z"/>
		<path d="M308.12,297.99c-1.02-3.29-3.41-8.85-5.35-12.41l3.81-3.55c1.83,4.46,3.64,10.74,4,13.69L308.12,297.99z"/>
		<path d="M322.36,261.66l6.12,10.58l-3.2,3.51l-19.23-33.89l3.73-4.1l35.56,15.97l-3.31,3.63l-11.17-5.04L322.36,261.66z
			 M327.46,250.52l-10.23-4.61c-2.32-1.04-4.3-2.13-6.24-3.19l-0.07,0.08c1.27,1.87,2.54,3.82,3.75,5.84l5.57,9.79L327.46,250.52z"
			/>
		<path d="M346.72,246.27c-1.66-1.17-2.07-3.08-1-4.59c1.07-1.51,2.97-1.72,4.63-0.55c1.62,1.14,2.13,2.99,1,4.59
			C350.28,247.24,348.34,247.41,346.72,246.27z"/>
		<path d="M368.45,213.15c-0.03,1.9-0.86,5.29-2.92,9.1c-4.77,8.83-14.16,12.33-24.85,6.55c-10.2-5.51-13.52-15.89-8.27-25.6
			c2.11-3.9,4.31-5.89,5.47-6.65l2.91,2.83c-1.6,1.11-3.36,2.98-4.77,5.58c-3.97,7.34-1.72,14.86,6.83,19.48
			c7.98,4.31,15.49,2.67,19.61-4.95c1.33-2.46,2.16-5.26,2.21-7.33L368.45,213.15z"/>
		<path d="M369.36,205.76c-1.89-0.75-2.74-2.5-2.06-4.22s2.47-2.38,4.36-1.63c1.84,0.73,2.77,2.4,2.06,4.22
			C373.05,205.85,371.2,206.49,369.36,205.76z"/>
	</g>
	<g>
		<path d="M110.35,337.86l-3.96,3.94l-2.05-1.03l12.75-12.46l2.39,1.2l-2.29,17.69l-2.12-1.06l0.73-5.56L110.35,337.86z
			 M116.15,338.85l0.67-5.09c0.15-1.15,0.37-2.16,0.58-3.15l-0.05-0.02c-0.68,0.78-1.38,1.57-2.14,2.34l-3.68,3.61L116.15,338.85z"
			/>
		<path d="M120.55,346.13c0.45,0.65,1.35,1.52,2.39,1.95c1.5,0.63,2.52,0.19,2.9-0.73c0.41-0.97,0.04-1.75-1.25-2.94
			c-1.74-1.57-2.24-3.08-1.68-4.42c0.75-1.8,2.85-2.65,5.29-1.63c1.15,0.48,2.03,1.23,2.5,1.87l-1.14,1.26
			c-0.33-0.46-1-1.18-2.05-1.62c-1.22-0.51-2.19-0.11-2.54,0.72c-0.39,0.92,0.12,1.62,1.37,2.8c1.66,1.56,2.27,2.96,1.57,4.62
			c-0.82,1.96-2.95,2.69-5.65,1.56c-1.24-0.52-2.27-1.31-2.88-2.1L120.55,346.13z"/>
		<path d="M129.73,352.28l4.21-11.34l2.1,0.78l-4.21,11.34L129.73,352.28z M137.46,338.62c-0.24,0.71-0.97,1.08-1.81,0.77
			c-0.74-0.28-1.06-1.03-0.8-1.74c0.27-0.73,1.03-1.08,1.79-0.8C137.44,337.14,137.73,337.89,137.46,338.62z"/>
		<path d="M136.15,352.23c0.5,0.61,1.48,1.4,2.54,1.74c1.55,0.5,2.53-0.02,2.83-0.97c0.32-1-0.1-1.74-1.5-2.82
			c-1.87-1.42-2.49-2.88-2.05-4.26c0.6-1.86,2.62-2.88,5.14-2.07c1.19,0.38,2.12,1.05,2.65,1.65l-1.03,1.35
			c-0.37-0.43-1.09-1.09-2.18-1.44c-1.26-0.41-2.19,0.08-2.47,0.93c-0.31,0.95,0.26,1.61,1.6,2.67c1.79,1.42,2.51,2.76,1.95,4.47
			c-0.65,2.02-2.72,2.93-5.5,2.03c-1.29-0.42-2.37-1.11-3.04-1.85L136.15,352.23z"/>
		<path d="M152.54,343.29l-0.91,3.35l3.1,0.84l-0.44,1.62l-3.1-0.84l-1.71,6.3c-0.39,1.45-0.2,2.38,1.01,2.71
			c0.57,0.15,1,0.2,1.29,0.2l-0.33,1.62c-0.46,0.06-1.16,0-2-0.23c-1.01-0.27-1.73-0.81-2.09-1.53c-0.44-0.79-0.38-1.89-0.01-3.27
			l1.73-6.37l-1.84-0.5l0.44-1.62l1.84,0.5l0.76-2.8L152.54,343.29z"/>
		<path d="M156.83,354.62c-0.57,2.92,1.07,4.52,3.26,4.99c1.57,0.33,2.57,0.27,3.47,0.1l0.05,1.62c-0.85,0.18-2.25,0.29-4.17-0.12
			c-3.71-0.79-5.42-3.66-4.66-7.23c0.76-3.57,3.5-5.92,7.02-5.17c3.94,0.84,4.26,4.46,3.79,6.64c-0.09,0.44-0.22,0.77-0.29,0.99
			L156.83,354.62z M163.59,354.45c0.32-1.36,0.17-3.62-2.29-4.14c-2.22-0.47-3.62,1.33-4.11,2.78L163.59,354.45z"/>
		<path d="M168.89,353.83c0.17-1.24,0.29-2.26,0.36-3.26l1.97,0.28l-0.15,2l0.05,0.01c0.77-1.05,2.34-1.97,4.35-1.68
			c1.69,0.24,4.17,1.6,3.59,5.71l-1.01,7.16l-2.22-0.31l0.97-6.91c0.27-1.93-0.23-3.64-2.33-3.94c-1.46-0.21-2.74,0.65-3.29,1.81
			c-0.14,0.26-0.24,0.62-0.29,0.99l-1.02,7.21l-2.22-0.31L168.89,353.83z"/>
		<path d="M191.18,364.65c-0.61,0.26-1.93,0.56-3.58,0.44c-3.71-0.27-5.94-2.92-5.67-6.61c0.28-3.71,3.07-6.22,7.08-5.92
			c1.32,0.1,2.46,0.51,3.05,0.85l-0.63,1.66c-0.51-0.34-1.33-0.68-2.55-0.77c-2.82-0.21-4.5,1.72-4.68,4.24
			c-0.21,2.79,1.49,4.65,3.93,4.83c1.27,0.09,2.13-0.17,2.79-0.4L191.18,364.65z"/>
		<path d="M194.23,365.17l0.35-12.09l2.24,0.06l-0.35,12.09L194.23,365.17z M197.18,349.75c0,0.75-0.57,1.33-1.46,1.31
			c-0.79-0.02-1.33-0.64-1.31-1.39c0.02-0.78,0.63-1.36,1.44-1.33C196.68,348.36,197.2,348.98,197.18,349.75z"/>
		<path d="M207.53,365.22l-0.21-1.52l-0.08,0c-0.67,0.96-1.98,1.83-3.74,1.87c-2.5,0.04-3.8-1.66-3.83-3.41
			c-0.05-2.93,2.57-4.57,7.33-4.63l0-0.25c-0.02-1-0.33-2.79-2.85-2.75c-1.15,0.02-2.34,0.39-3.19,0.96l-0.53-1.44
			c1.01-0.67,2.48-1.12,4.03-1.15c3.77-0.07,4.73,2.44,4.77,4.87l0.08,4.53c0.02,1.05,0.09,2.07,0.25,2.9L207.53,365.22z
			 M207.09,359.05c-2.45-0.01-5.22,0.47-5.17,2.81c0.03,1.42,1,2.08,2.15,2.06c1.6-0.03,2.61-1.05,2.94-2.08
			c0.07-0.23,0.12-0.48,0.12-0.7L207.09,359.05z"/>
		<path d="M218.43,356.48c-0.17-1.54-0.37-2.78-0.54-3.91l2-0.23l0.33,2.05l0.05-0.01c0.75-1.57,2.09-2.6,4.09-2.83
			c2.96-0.34,5.46,1.87,5.88,5.52c0.49,4.32-1.95,6.76-4.84,7.09c-1.62,0.18-3.12-0.35-3.98-1.46l-0.05,0.01l0.74,6.53l-2.2,0.25
			L218.43,356.48z M220.99,359.43c0.04,0.32,0.12,0.62,0.2,0.88c0.58,1.47,2.04,2.36,3.63,2.18c2.35-0.26,3.51-2.31,3.19-5.07
			c-0.27-2.41-1.8-4.33-4.15-4.06c-1.52,0.17-2.81,1.4-3.06,3.09c-0.05,0.28-0.08,0.61-0.05,0.91L220.99,359.43z"/>
		<path d="M241.15,361.45l-0.45-1.47l-0.08,0.01c-0.5,1.06-1.65,2.13-3.38,2.45c-2.46,0.45-4.02-1.02-4.33-2.74
			c-0.53-2.88,1.79-4.93,6.48-5.76l-0.04-0.25c-0.18-0.98-0.78-2.71-3.26-2.25c-1.13,0.21-2.24,0.77-2.99,1.46l-0.76-1.33
			c0.89-0.83,2.26-1.51,3.79-1.79c3.71-0.68,5.06,1.64,5.5,4.03l0.82,4.45c0.19,1.03,0.42,2.03,0.72,2.82L241.15,361.45z
			 M239.72,355.43c-2.41,0.39-5.07,1.31-4.64,3.62c0.26,1.4,1.33,1.89,2.46,1.68c1.58-0.29,2.4-1.46,2.57-2.53
			c0.03-0.23,0.04-0.49,0-0.71L239.72,355.43z"/>
		<path d="M245.09,352.11c-0.33-1.39-0.64-2.57-0.97-3.65l1.91-0.46l0.62,2.29l0.1-0.02c0.17-1.71,1.24-3.02,2.7-3.37
			c0.25-0.06,0.43-0.08,0.64-0.07l0.48,2.02c-0.23,0-0.46,0.03-0.76,0.11c-1.54,0.37-2.35,1.77-2.27,3.44
			c0.02,0.3,0.05,0.66,0.14,1.02l1.5,6.27l-2.16,0.51L245.09,352.11z"/>
		<path d="M262.09,356.19l-0.6-1.41l-0.07,0.02c-0.39,1.11-1.42,2.29-3.11,2.79c-2.39,0.71-4.1-0.59-4.6-2.27
			c-0.83-2.81,1.26-5.09,5.84-6.41l-0.07-0.24c-0.28-0.96-1.06-2.61-3.48-1.89c-1.1,0.32-2.15,1-2.82,1.77l-0.9-1.25
			c0.79-0.91,2.09-1.74,3.58-2.18c3.62-1.07,5.21,1.1,5.9,3.42l1.28,4.34c0.3,1.01,0.64,1.98,1.02,2.72L262.09,356.19z
			 M260.03,350.36c-2.36,0.64-4.9,1.84-4.24,4.09c0.4,1.37,1.52,1.74,2.62,1.42c1.54-0.46,2.23-1.7,2.29-2.79
			c0.01-0.24-0.01-0.49-0.08-0.71L260.03,350.36z"/>
		<path d="M270.04,344.22c-0.47-1.16-0.88-2.1-1.32-3l1.84-0.74l0.87,1.81l0.05-0.02c0.14-1.29,1.04-2.87,2.93-3.64
			c1.58-0.64,4.41-0.7,5.97,3.14l2.71,6.7l-2.08,0.84l-2.61-6.47c-0.73-1.81-2.02-3.04-3.98-2.25c-1.37,0.55-2.05,1.93-1.94,3.21
			c0.01,0.29,0.1,0.66,0.24,1.01l2.72,6.75l-2.08,0.84L270.04,344.22z"/>
		<path d="M282.59,331.61c0.34,0.67,0.09,1.45-0.72,1.82c-0.72,0.33-1.48,0.03-1.79-0.65c-0.33-0.7-0.05-1.49,0.69-1.84
			C281.53,330.59,282.27,330.9,282.59,331.61z M286.88,346.7l-5.11-10.96l2.03-0.95l5.11,10.96L286.88,346.7z"/>
		<path d="M288.65,336.15c-0.59-1.1-1.09-2-1.63-2.84l1.75-0.93l1.05,1.71l0.04-0.03c0-1.3,0.73-2.97,2.53-3.92
			c1.51-0.8,4.32-1.16,6.26,2.5l3.39,6.38l-1.98,1.05l-3.28-6.16c-0.92-1.72-2.33-2.81-4.2-1.82c-1.3,0.69-1.83,2.14-1.6,3.4
			c0.04,0.29,0.17,0.65,0.35,0.98l3.42,6.42l-1.98,1.05L288.65,336.15z M287.98,330.44c-0.81-1.41-0.66-2.59,0.31-3.11
			c0.5-0.26,0.98-0.27,1.65-0.25c0.46,0.01,0.87,0.02,1.14-0.13c0.36-0.19,0.48-0.51,0.13-1.28l1.06-0.56
			c0.81,1.47,0.69,2.49-0.37,3.05c-0.47,0.25-1,0.28-1.61,0.29c-0.59-0.03-0.91-0.03-1.18,0.12c-0.36,0.19-0.34,0.66-0.06,1.31
			L287.98,330.44z"/>
		<path d="M311.62,333.18l-0.96-1.2l-0.07,0.04c-0.08,1.17-0.75,2.59-2.25,3.52c-2.12,1.32-4.11,0.53-5.04-0.95
			c-1.55-2.48-0.15-5.24,3.91-7.74l-0.13-0.21c-0.53-0.85-1.72-2.23-3.86-0.89c-0.97,0.61-1.8,1.54-2.25,2.46l-1.2-0.96
			c0.52-1.09,1.55-2.23,2.87-3.06c3.2-2,5.31-0.34,6.6,1.72l2.4,3.84c0.56,0.89,1.14,1.73,1.71,2.35L311.62,333.18z M308.07,328.12
			c-2.1,1.25-4.23,3.08-2.99,5.08c0.75,1.21,1.93,1.27,2.91,0.66c1.36-0.85,1.7-2.24,1.46-3.3c-0.05-0.23-0.14-0.47-0.26-0.66
			L308.07,328.12z"/>
		<path d="M315.14,328.17c0.79-0.04,2-0.35,2.92-0.99c1.33-0.94,1.49-2.04,0.91-2.85c-0.61-0.86-1.46-0.96-3.16-0.49
			c-2.26,0.65-3.8,0.27-4.64-0.91c-1.13-1.59-0.74-3.82,1.42-5.36c1.02-0.72,2.12-1.07,2.91-1.14l0.47,1.63
			c-0.57,0.04-1.53,0.22-2.46,0.89c-1.08,0.77-1.25,1.8-0.73,2.54c0.58,0.81,1.44,0.75,3.1,0.32c2.21-0.58,3.71-0.36,4.75,1.11
			c1.23,1.73,0.72,3.93-1.67,5.62c-1.1,0.78-2.31,1.24-3.3,1.33L315.14,328.17z"/>
		<path d="M322.64,310.28l6.68,3.71c0.73,0.43,1.58,0.96,2.2,1.38l0.04-0.03c-0.29-0.7-0.7-1.57-1.03-2.44l-2.72-7l1.81-1.53
			l3.01,8.75c1.46,4.2,1.99,6.53,1.67,8.51c-0.22,1.43-0.82,2.43-1.18,2.86l-1.62-1.05c0.31-0.5,0.65-1.24,0.8-2.09
			c0.16-0.76,0.19-1.9-0.15-3.09c-0.07-0.24-0.12-0.42-0.2-0.52c-0.08-0.1-0.23-0.2-0.49-0.34l-10.68-5.56L322.64,310.28z"/>
		<path d="M337.29,301.65c-0.9-0.87-1.65-1.57-2.42-2.21l1.38-1.42l1.52,1.3l0.04-0.04c-0.4-1.24-0.21-3.04,1.21-4.51
			c1.19-1.22,3.75-2.42,6.73,0.47l5.18,5.04l-1.56,1.61l-5-4.86c-1.4-1.36-3.08-1.96-4.55-0.45c-1.03,1.06-1.09,2.59-0.48,3.72
			c0.13,0.27,0.36,0.56,0.63,0.82l5.21,5.07l-1.56,1.61L337.29,301.65z"/>
		<path d="M343.68,285.03c0.58,0.48,0.66,1.29,0.08,1.96c-0.52,0.59-1.34,0.62-1.91,0.13c-0.58-0.51-0.65-1.35-0.11-1.96
			C342.29,284.53,343.09,284.52,343.68,285.03z M353.7,297.12l-9.11-7.97l1.48-1.69l9.11,7.97L353.7,297.12z"/>
		<path d="M348.13,281.8c-1.31-0.96-1.65-2.11-0.97-2.97c0.35-0.44,0.79-0.64,1.41-0.9c0.43-0.18,0.81-0.34,1-0.58
			c0.25-0.32,0.23-0.66-0.4-1.22l0.74-0.94c1.33,1.02,1.64,2,0.9,2.94c-0.33,0.42-0.81,0.66-1.35,0.91
			c-0.55,0.21-0.84,0.34-1.03,0.58c-0.25,0.32-0.04,0.74,0.48,1.22L348.13,281.8z M351.05,286.75c-0.98-0.77-1.81-1.38-2.64-1.94
			l1.23-1.56l1.65,1.14l0.03-0.04c-0.53-1.19-0.53-3.01,0.73-4.61c1.05-1.34,3.48-2.81,6.74-0.24l5.68,4.46l-1.38,1.76l-5.49-4.31
			c-1.53-1.21-3.27-1.63-4.57,0.04c-0.91,1.16-0.81,2.7-0.09,3.75c0.15,0.25,0.42,0.52,0.71,0.75l5.72,4.49l-1.38,1.76
			L351.05,286.75z"/>
		<path d="M368.18,267.67c3.72,2.49,3.58,6.2,1.92,8.68c-1.86,2.77-5.28,3.57-8.46,1.44c-3.36-2.26-3.83-5.82-1.93-8.66
			C361.67,266.19,365.1,265.61,368.18,267.67z M362.83,275.86c2.2,1.48,4.73,1.3,5.95-0.52c1.19-1.78,0.45-4.21-1.82-5.73
			c-1.7-1.14-4.44-1.72-5.92,0.48C359.57,272.29,360.92,274.58,362.83,275.86z"/>
		<path d="M372.98,267.2c0.7-0.36,1.68-1.15,2.24-2.11c0.82-1.41,0.51-2.47-0.35-2.98c-0.91-0.53-1.73-0.27-3.08,0.86
			c-1.79,1.53-3.35,1.83-4.6,1.1c-1.69-0.98-2.26-3.17-0.93-5.46c0.63-1.08,1.48-1.85,2.17-2.24l1.1,1.29
			c-0.5,0.27-1.3,0.84-1.87,1.83c-0.67,1.15-0.39,2.16,0.39,2.61c0.87,0.5,1.62,0.09,2.95-1c1.77-1.45,3.23-1.87,4.78-0.96
			c1.84,1.07,2.29,3.28,0.82,5.81c-0.68,1.17-1.59,2.08-2.46,2.58L372.98,267.2z"/>
		<path d="M378.7,259.05c-0.82-0.43-1.09-1.3-0.67-2.09c0.42-0.79,1.28-1.02,2.1-0.59c0.79,0.42,1.12,1.25,0.67,2.09
			C380.38,259.25,379.5,259.47,378.7,259.05z"/>
	</g>
	<g>
		<path class="st1" d="M171.89,88.03c0.53-0.19,0.85-0.39,0.94-0.58c0.09-0.2,0.06-0.59-0.09-1.18l-1.61-6.16
			c-0.13-0.5-0.29-0.81-0.48-0.92s-0.55-0.13-1.07-0.03l-0.07-0.26l3.94-1.03c0.82-0.21,1.53-0.29,2.13-0.22
			c1.14,0.12,1.85,0.71,2.12,1.76c0.19,0.71,0.1,1.31-0.26,1.81c-0.36,0.5-0.92,0.91-1.68,1.24l3.87,2.84
			c0.24,0.17,0.46,0.29,0.67,0.34s0.46,0.06,0.75,0.01l0.07,0.26l-2.29,0.6l-4.7-3.45l-0.62,0.2l0.73,2.8
			c0.14,0.53,0.3,0.84,0.5,0.94c0.2,0.1,0.57,0.1,1.12,0.01l0.07,0.26l-3.95,1.03L171.89,88.03z M175.46,81.83
			c0.67-0.51,0.9-1.19,0.67-2.04c-0.22-0.82-0.7-1.3-1.45-1.42c-0.4-0.07-0.9-0.02-1.5,0.13c-0.4,0.11-0.64,0.2-0.72,0.28
			c-0.08,0.08-0.08,0.23-0.03,0.44l0.92,3.5C174.36,82.42,175.07,82.12,175.46,81.83z"/>
		<path class="st1" d="M190.95,75.26c0.57,0.12,0.89,0.18,0.95,0.18c0.14-0.01,0.27-0.06,0.39-0.14c0.12-0.08,0.2-0.21,0.23-0.37
			l0.31-0.02l0.35,3.29l-0.34,0.02c-0.24-0.64-0.53-1.15-0.87-1.53c-0.65-0.72-1.48-1.04-2.5-0.98c-1.03,0.07-1.84,0.52-2.44,1.38
			c-0.6,0.85-0.85,1.99-0.76,3.41c0.08,1.31,0.49,2.33,1.23,3.07c0.73,0.74,1.63,1.07,2.68,1.01c0.76-0.05,1.45-0.27,2.06-0.68
			c0.35-0.23,0.74-0.56,1.15-1.01l0.29,0.25c-0.3,0.43-0.68,0.82-1.14,1.16c-0.79,0.58-1.66,0.9-2.62,0.96
			c-1.58,0.1-2.86-0.32-3.85-1.27c-0.91-0.88-1.42-2.01-1.5-3.41c-0.09-1.43,0.28-2.66,1.12-3.68c0.89-1.08,2.09-1.66,3.61-1.76
			C189.83,75.09,190.38,75.13,190.95,75.26z"/>
		<path class="st1" d="M197.79,84.56c0.54,0.01,0.9-0.04,1.08-0.15c0.18-0.11,0.3-0.44,0.38-0.99l0.84-6.48
			c0.07-0.53,0.04-0.88-0.1-1.06c-0.14-0.17-0.47-0.31-1.01-0.42l0.04-0.27l3.93,0.51c1.32,0.17,2.42,0.53,3.28,1.09
			c1.55,1,2.2,2.5,1.94,4.52c-0.09,0.73-0.33,1.4-0.71,2.01c-0.38,0.62-0.9,1.11-1.56,1.49c-0.42,0.24-0.84,0.4-1.27,0.5
			c-0.78,0.18-1.71,0.2-2.8,0.06l-4.05-0.52L197.79,84.56z M200.77,84.55c0.11,0.09,0.34,0.16,0.71,0.21
			c1.14,0.15,2.1,0.04,2.9-0.31c1.22-0.55,1.94-1.66,2.15-3.34c0.19-1.5-0.13-2.68-0.96-3.56c-0.71-0.75-1.73-1.21-3.04-1.38
			c-0.33-0.04-0.55-0.04-0.68,0.02c-0.12,0.06-0.2,0.21-0.23,0.45l-0.96,7.42C200.63,84.3,200.67,84.46,200.77,84.55z"/>
		<path class="st1" d="M212,85.78c0.17-0.07,0.34-0.08,0.5-0.03c0.32,0.09,0.49,0.36,0.53,0.79s0.14,0.68,0.31,0.73
			c0.18,0.05,0.33,0.01,0.45-0.13c0.12-0.14,0.23-0.41,0.35-0.81l1.86-6.38c0.15-0.52,0.17-0.88,0.04-1.08
			c-0.13-0.2-0.45-0.39-0.98-0.57l0.08-0.26l4.05,1.18l-0.08,0.26c-0.56-0.13-0.94-0.13-1.15-0.02c-0.21,0.12-0.39,0.42-0.53,0.9
			l-1.51,5.18c-0.28,0.95-0.71,1.58-1.29,1.9c-0.59,0.33-1.22,0.39-1.89,0.2c-0.44-0.13-0.75-0.33-0.94-0.6
			c-0.19-0.27-0.24-0.53-0.17-0.78C211.7,86.01,211.83,85.85,212,85.78z"/>
	</g>
</g>
</svg>
