<?xml version="1.0" encoding="utf-8"?>
<!-- Generator: Adobe Illustrator 25.0.0, SVG Export Plug-In . SVG Version: 6.00 Build 0)  -->
<svg version="1.1" id="Layer_1" xmlns="http://www.w3.org/2000/svg" xmlns:xlink="http://www.w3.org/1999/xlink" x="0px" y="0px"
	 viewBox="0 0 915.56 296" style="enable-background:new 0 0 915.56 296;" xml:space="preserve">
<style type="text/css">
	.st0{fill:#FFFFFF;}
	.st1{fill:#807F83;}
</style>
<path d="M133.74,194.19 M102.2,123.86 M69.87,231.85c-1.26-2.36,32.59-12.76,28.51-26.18c-0.77-2.59-5.78-4.45-8.21-5.2
	 M198.78,163.39c-2.68-57.16-48.22-81.89-69.47-87.07c-40.59-9.86-58.29,1.12-71.05,1.54c-13.69,0.43-13-15.8-11.25-23.62
	c3.13-14.08,8.66-17.27,7.65-18.93C51.53,30.03-3.73,98.38,0.2,168.69c2.23,40.68,31.71,93.28,96.08,96.27
	C156,267.75,201.43,220.06,198.78,163.39"/>
<path d="M317.65,217.65c28.88,0,46.78-21.72,46.78-48.31c0-26.58-17.9-48.32-46.78-48.32c-28.88,0-46.78,21.73-46.78,48.32
	C270.87,195.92,288.77,217.65,317.65,217.65 M317.65,107.22c36.3,0,62.11,26.07,62.11,62.12c0,36.04-25.81,62.11-62.11,62.11
	s-62.12-26.07-62.12-62.11C255.54,133.3,281.35,107.22,317.65,107.22"/>
<path d="M406.37,143.53c0-8.7-1.28-27.09-1.28-33.23h15.33c0.26,8.69,0.52,18.41,1.03,20.7c7.67-13.8,19.94-23.77,37.58-23.77
	c3.06,0,5.87,0.51,8.94,1.28l-1.78,15.08c-2.31-0.77-4.35-1.02-5.88-1.02c-26.58,0-38.59,18.41-38.59,41.41v64.42h-15.34V143.53z"/>
<polygon points="484.84,168.14 484.84,107.2 500.17,107.2 500.17,167.73 500.17,228.38 484.84,228.38 "/>
<path d="M591.43,121.03c-25.81,0-46.78,20.95-46.78,46.78c0,25.81,20.96,46.78,46.78,46.78c25.81,0,46.77-20.97,46.77-46.78
	C638.21,141.98,617.25,121.03,591.43,121.03 M653.04,220.72c0,58.79-38.85,69.01-62.89,69.01c-23.77,0-46.52-9.2-58.53-24.78
	l12.01-11.25c10.74,15.08,28.12,22.24,46.52,22.24c46.78,0,47.56-40.9,47.56-54.19v-16.36h-0.52c-8.94,14.07-24.54,23-44.74,23
	c-34.76,0-63.13-27.34-63.13-60.57c0-33.23,28.37-60.58,63.13-60.58c20.2,0,35.8,8.94,44.74,23h0.52v-19.94h15.33V220.72z"/>
<path d="M773.94,159.38c0-20.97-18.14-38.35-40.9-38.35c-33.48,0-42.94,32.21-42.94,38.35H773.94z M785.7,206.15
	c-12.01,17.9-30.16,25.3-51.13,25.3c-36.03,0-59.81-25.81-59.81-62.37c0-35.28,24.54-61.85,59.04-61.85
	c36.3,0,55.47,27.85,55.47,55.2v10.73h-99.18c0,12.79,8.94,44.48,44.73,44.48c15.59,0,31.95-8.18,39.62-20.96L785.7,206.15z"/>
<path d="M814.34,143.53c0-8.7-1.28-27.09-1.28-33.23h15.33c0.26,8.69,0.52,18.41,1.03,20.7h0.77c6.13-13.04,21.21-23.77,40.39-23.77
	c36.8,0,44.98,25.05,44.98,50.86v70.3h-15.34v-69.53c0-19.18-5.37-37.84-29.65-37.84c-22.75,0-40.9,15.85-40.9,48.31v59.05h-15.34
	V143.53z"/>
<polygon points="483.75,18.63 515.48,18.63 515.48,24.42 489.82,24.42 489.82,41.87 513.67,41.87 513.67,47.66 489.82,47.66 
	489.82,71.34 483.75,71.34 "/>
<path d="M562.29,51.23c0,11.48-5.17,21.46-19.28,21.46c-14.11,0-19.3-9.98-19.3-21.46v-32.6h6.08v31.68
	c0,8.52,3.02,16.56,13.22,16.56c10.18,0,13.22-8.03,13.22-16.56V18.63h6.05V51.23z"/>
<polygon points="574.81,18.63 582.47,18.63 612.09,62.41 612.24,62.41 612.24,18.63 618.32,18.63 618.32,71.34 610.64,71.34 
	581.02,27.55 580.88,27.55 580.88,71.34 574.81,71.34 "/>
<path d="M630.07,18.63h19.68c10.03,0,25.08,6.92,25.08,26.33c0,19.46-15.05,26.37-25.08,26.37h-19.68V18.63z M636.14,65.53h11.59
	c11.7,0,20.55-6.11,20.55-20.56c0-14.45-8.85-20.55-20.55-20.55h-11.59V65.53z"/>
<path d="M701.17,18.63h5.72l21.76,52.71h-7.08l-5.21-12.96h-25.6l-5.26,12.96h-6.88L701.17,18.63z M703.94,26.67h-0.16l-10.62,25.9
	h20.89L703.94,26.67z"/>
<path d="M771.25,29.49c-3.01-4.23-7.85-6.41-12.76-6.41c-11.43,0-19.51,10.35-19.51,21.89c0,12.25,8,21.9,19.51,21.9
	c6.21,0,11.19-2.58,14.79-7.34l4.56,3.92c-4.56,6.35-11.2,9.25-19.35,9.25c-14.67,0-26.04-11.68-26.04-27.72
	c0-15.48,10.84-27.7,26.04-27.7c6.94,0,13.73,2.49,18.05,8.28L771.25,29.49z"/>
<rect x="786.29" y="18.63" width="6.08" height="52.71"/>
<path d="M802.14,44.96c0-15.91,11.17-27.7,26.73-27.7c15.56,0,26.75,11.79,26.75,27.7c0,15.96-11.19,27.72-26.75,27.72
	C813.3,72.69,802.14,60.92,802.14,44.96 M849.11,44.96c0-12.12-8.25-21.89-20.24-21.89c-11.99,0-20.23,9.77-20.23,21.89
	c0,12.14,8.24,21.9,20.23,21.9C840.85,66.86,849.11,57.11,849.11,44.96 M831.39,4.15h7.93L829,14.9h-5.14L831.39,4.15z"/>
<polygon points="865.37,18.63 873.02,18.63 902.64,62.41 902.79,62.41 902.79,18.63 908.84,18.63 908.84,71.34 901.19,71.34 
	871.59,27.55 871.42,27.55 871.42,71.34 865.37,71.34 "/>
<g>
	<path class="st0" d="M34.86,176.5c2.55-6.07,8.58-12.49,18.08-19.27c8.24-5.9,13.58-10.12,16-12.68c3.72-3.97,5.59-8.32,5.59-13.05
		c0-3.85-1.07-7.05-3.2-9.6c-2.13-2.55-5.19-3.83-9.16-3.83c-5.44,0-9.14,2.03-11.11,6.09c-1.13,2.34-1.8,6.07-2.01,11.17H31.66
		c0.29-7.74,1.7-14,4.21-18.77c4.77-9.08,13.26-13.62,25.45-13.62c9.63,0,17.3,2.67,22.99,8c5.69,5.34,8.54,12.4,8.54,21.18
		c0,6.74-2.01,12.72-6.04,17.95c-2.64,3.47-6.98,7.34-13.02,11.61l-7.17,5.08c-4.49,3.18-7.55,5.48-9.21,6.9
		c-1.65,1.42-3.04,3.08-4.17,4.96h39.73v15.75H30.66C30.82,187.86,32.23,181.9,34.86,176.5z"/>
	<path class="st0" d="M157.9,115c4.67,8.16,7,19.75,7,34.77c0,15.02-2.33,26.59-7,34.71c-4.67,8.12-12.79,12.18-24.38,12.18
		c-11.59,0-19.72-4.06-24.38-12.18c-4.67-8.12-7-19.69-7-34.71c0-15.02,2.33-26.61,7-34.77c4.66-8.16,12.79-12.24,24.38-12.24
		C145.11,102.76,153.24,106.84,157.9,115z M122.98,173.77c1.71,5.54,5.23,8.32,10.54,8.32c5.31,0,8.8-2.77,10.45-8.32
		c1.65-5.54,2.48-13.55,2.48-24.01c0-10.96-0.83-19.08-2.48-24.35c-1.65-5.27-5.14-7.91-10.45-7.91c-5.31,0-8.83,2.63-10.54,7.91
		c-1.72,5.27-2.57,13.39-2.57,24.35C120.4,160.23,121.26,168.23,122.98,173.77z"/>
</g>
<g>
	<path class="st0" d="M40.62,206.08h3.71l5.56,15.71h-3.56l-1.04-3.23h-5.78l-1.06,3.23h-3.43L40.62,206.08z M40.4,215.86h4.02
		l-1.98-6.18L40.4,215.86z"/>
	<path class="st0" d="M74.76,206.08h3.44l6.24,10.95v-10.95h3.06v15.71h-3.28l-6.4-11.15v11.15h-3.06V206.08z M80.45,202.02
		c0.18,0.04,0.34,0.09,0.47,0.14l1,0.38c0.3,0.1,0.49,0.17,0.59,0.19c0.09,0.03,0.2,0.04,0.31,0.04c0.34,0,0.58-0.09,0.72-0.27
		c0.14-0.18,0.24-0.4,0.3-0.64h1.42c-0.13,0.75-0.38,1.37-0.76,1.88c-0.38,0.5-0.94,0.76-1.67,0.76c-0.22,0-0.53-0.05-0.94-0.16
		c-0.23-0.06-0.46-0.12-0.67-0.19l-0.86-0.29c-0.12-0.04-0.24-0.07-0.35-0.09s-0.23-0.03-0.34-0.03c-0.27,0-0.49,0.08-0.66,0.24
		c-0.17,0.17-0.29,0.39-0.36,0.68h-1.39c0.16-0.74,0.36-1.29,0.61-1.67c0.45-0.68,1.13-1.02,2.02-1.02
		C80.07,201.96,80.26,201.98,80.45,202.02z"/>
	<path class="st0" d="M125.58,220.39c-1.19,1.22-2.9,1.83-5.15,1.83c-2.25,0-3.96-0.61-5.15-1.83c-1.59-1.5-2.39-3.66-2.39-6.48
		c0-2.88,0.8-5.04,2.39-6.48c1.19-1.22,2.9-1.83,5.15-1.83c2.25,0,3.96,0.61,5.15,1.83c1.58,1.44,2.38,3.6,2.38,6.48
		C127.96,216.74,127.17,218.9,125.58,220.39z M123.53,218.01c0.76-0.96,1.15-2.32,1.15-4.09c0-1.76-0.38-3.12-1.15-4.09
		c-0.76-0.96-1.8-1.44-3.1-1.44c-1.3,0-2.34,0.48-3.11,1.44c-0.77,0.96-1.16,2.33-1.16,4.09c0,1.77,0.39,3.14,1.16,4.09
		c0.77,0.96,1.81,1.44,3.11,1.44C121.74,219.45,122.77,218.97,123.53,218.01z"/>
	<path class="st0" d="M155.75,216.94c0.1,0.72,0.3,1.26,0.6,1.61c0.54,0.65,1.48,0.97,2.8,0.97c0.79,0,1.43-0.09,1.93-0.26
		c0.94-0.33,1.4-0.94,1.4-1.82c0-0.52-0.23-0.92-0.69-1.2c-0.46-0.28-1.19-0.52-2.18-0.74l-1.7-0.37c-1.67-0.37-2.82-0.77-3.44-1.21
		c-1.06-0.72-1.59-1.86-1.59-3.4c0-1.41,0.52-2.58,1.55-3.51c1.04-0.93,2.56-1.39,4.56-1.39c1.68,0,3.1,0.44,4.29,1.31
		c1.18,0.88,1.8,2.15,1.86,3.82h-3.15c-0.06-0.94-0.48-1.62-1.27-2.01c-0.52-0.26-1.18-0.39-1.96-0.39c-0.87,0-1.56,0.17-2.08,0.51
		c-0.52,0.34-0.78,0.82-0.78,1.43c0,0.56,0.25,0.98,0.76,1.26c0.33,0.18,1.02,0.4,2.09,0.65l2.76,0.65
		c1.21,0.29,2.11,0.67,2.72,1.14c0.94,0.74,1.4,1.81,1.4,3.21c0,1.44-0.56,2.63-1.66,3.58c-1.11,0.95-2.68,1.42-4.7,1.42
		c-2.07,0-3.69-0.47-4.88-1.4c-1.19-0.93-1.78-2.22-1.78-3.85H155.75z"/>
</g>
<g>
	<g>
		<path class="st1" d="M1029.56,272c7.72,0,7.73-12,0-12C1021.84,260,1021.83,272,1029.56,272L1029.56,272z"/>
	</g>
</g>
</svg>
