<?xml version="1.0" encoding="utf-8"?>
<!-- Generator: Adobe Illustrator 25.0.0, SVG Export Plug-In . SVG Version: 6.00 Build 0)  -->
<svg version="1.1" id="Capa_1" xmlns="http://www.w3.org/2000/svg" xmlns:xlink="http://www.w3.org/1999/xlink" x="0px" y="0px"
	 viewBox="0 0 3000 1458" style="enable-background:new 0 0 3000 1458;" xml:space="preserve">
<g>
	<g>
		<g>
			<path d="M1730,541.58c-40.4,21.12-66.19,50.12-82.53,77.25c17.4,8.17,33.37,19.5,47.15,33.76
				c29.69,30.73,45.64,71.12,44.91,113.71c-0.73,42.6-18.06,82.42-48.8,112.11c-30.73,29.69-71.09,45.63-113.72,44.91
				c-105.84-1.82-189.43-114.93-219.81-162.31c18.22-24.44,40.05-49.71,63.9-72.67V548.88c-26.5,17.61-53.03,39.47-79.53,65.69
				c-17.28,17.1-32.57,34.13-45.59,49.67c-12.5-16.02-27.2-33.59-43.82-51.21c-78.48-83.2-158.75-126.08-238.56-127.45
				c-71.5-1.24-139.3,25.54-190.88,75.36c-51.57,49.83-80.65,116.66-81.88,188.17c-1.23,71.52,25.53,139.31,75.36,190.88
				c10.88,11.26,22.61,21.38,34.98,30.44V778.59c-1.41-8.99-2.12-18.2-1.96-27.61c0.13-7.58,0.8-15.02,1.96-22.3V728h0.09
				c11.81-72.67,72.69-128.74,146.94-133.7c4.46-0.3,8.97-0.41,13.52-0.34c79.1,1.36,166.25,87.7,219.76,164.89
				c-29.25,42.33-104.78,137.98-198.48,152.69v109.21c117.02-10.72,207.33-97.24,259.63-162.48
				c54.02,72.38,151.49,171.17,282.49,173.42c7.68,0.14,15.29-0.05,22.87-0.57c63-4.21,121.97-30.31,168.02-74.79
				c51.57-49.83,80.65-116.65,81.88-188.17C1849.51,674.3,1802.41,590.76,1730,541.58z"/>
			<path d="M1598.01,1031.13c-7.57,0.51-15.19,0.7-22.87,0.57c-58.28-1-109.9-21.13-154.04-49.52v122.86h171.39l8.73-74.18
				C1600.15,1030.93,1599.08,1031.06,1598.01,1031.13z"/>
		</g>
		<g>
			<path d="M1117.8,1382.75c-9.42,0-17.82-2.11-25.2-6.35c-7.38-4.24-13.19-10.05-17.42-17.42v21.42h-27.54v-171.87h31.55v70.17
				c4.4-7.53,10.16-13.38,17.31-17.54c7.14-4.16,15.42-6.24,24.83-6.24c8.01,0,15.34,1.73,22.02,5.17
				c6.67,3.46,12.39,8.09,17.18,13.9c4.79,5.81,8.48,12.63,11.07,20.48c2.59,7.86,3.88,16.09,3.88,24.73
				c0,8.95-1.45,17.27-4.35,24.95c-2.91,7.7-6.95,14.41-12.13,20.13c-5.18,5.73-11.3,10.24-18.37,13.54
				C1133.57,1381.11,1125.96,1382.75,1117.8,1382.75z M1109.09,1355.91c5.02,0,9.62-0.97,13.77-2.94c4.16-1.96,7.77-4.59,10.83-7.89
				c3.07-3.3,5.42-7.14,7.06-11.53c1.65-4.4,2.48-9.1,2.48-14.13c0-5.02-0.79-9.81-2.35-14.36c-1.58-4.55-3.81-8.56-6.72-12.01
				c-2.9-3.45-6.32-6.2-10.24-8.24c-3.92-2.04-8.24-3.07-12.95-3.07c-7.06,0-13.38,2.32-18.95,6.95
				c-5.57,4.63-9.85,10.33-12.83,17.07v29.44c1.1,3.14,2.71,5.96,4.82,8.47c2.12,2.52,4.51,4.68,7.18,6.48
				c2.67,1.81,5.58,3.22,8.72,4.24C1103.05,1355.4,1106.1,1355.91,1109.09,1355.91z"/>
			<path d="M1194.56,1404.41c2.83,0.78,5.41,1.33,7.77,1.65c2.35,0.31,4.4,0.47,6.12,0.47c2.04,0,3.84-0.36,5.42-1.07
				c1.56-0.7,3.09-2,4.59-3.88c1.5-1.88,2.98-4.51,4.48-7.89c1.49-3.37,3.1-7.81,4.82-13.3l-48.97-123.37h32.49l33.67,96.06
				l29.67-96.06h29.67l-52.03,147.86c-3.3,9.42-8.56,16.68-15.78,21.78s-15.61,7.65-25.19,7.65c-5.49,0-11.06-0.86-16.71-2.59
				V1404.41z"/>
			<path d="M1364.78,1295.64c0-10.2,1.8-20.29,5.41-30.25c3.61-9.97,8.83-18.88,15.66-26.73c6.83-7.85,15.18-14.2,25.07-19.07
				c9.89-4.87,21.19-7.3,33.91-7.3c14.91,0,27.83,3.38,38.73,10.13c10.91,6.75,18.95,15.54,24.13,26.37l-24.96,17.18
				c-1.88-4.71-4.31-8.67-7.29-11.89c-2.98-3.21-6.24-5.77-9.77-7.65c-3.53-1.88-7.18-3.26-10.95-4.12
				c-3.77-0.86-7.38-1.3-10.83-1.3c-7.69,0-14.44,1.65-20.25,4.95c-5.81,3.3-10.63,7.57-14.47,12.83
				c-3.85,5.25-6.75,11.22-8.72,17.89c-1.97,6.67-2.94,13.3-2.94,19.89c0,7.38,1.14,14.47,3.41,21.31
				c2.27,6.82,5.49,12.83,9.66,18.01c4.16,5.18,9.14,9.34,14.95,12.48c5.81,3.15,12.16,4.71,19.08,4.71c3.61,0,7.3-0.47,11.06-1.41
				c3.77-0.94,7.42-2.43,10.95-4.47c3.54-2.04,6.79-4.67,9.77-7.89c2.98-3.21,5.42-7.1,7.3-11.65l26.61,15.3
				c-2.51,6.28-6.16,11.81-10.95,16.6c-4.79,4.79-10.24,8.83-16.37,12.13s-12.56,5.81-19.31,7.53c-6.75,1.73-13.42,2.59-20.01,2.59
				c-11.62,0-22.25-2.5-31.91-7.53c-9.65-5.02-17.98-11.57-24.96-19.65c-6.98-8.09-12.4-17.27-16.24-27.55
				C1366.7,1316.79,1364.78,1306.31,1364.78,1295.64z"/>
			<path d="M1585.16,1382.75c-10.05,0-19.08-1.73-27.08-5.18c-8-3.45-14.79-8.12-20.36-14c-5.57-5.89-9.85-12.67-12.83-20.37
				c-2.98-7.68-4.47-15.77-4.47-24.25c0-8.63,1.49-16.8,4.47-24.49c2.98-7.68,7.26-14.47,12.83-20.36
				c5.58-5.88,12.37-10.55,20.36-14.01c8.01-3.45,17.04-5.17,27.08-5.17c10.04,0,19.03,1.73,26.96,5.17
				c7.92,3.46,14.67,8.13,20.25,14.01c5.57,5.89,9.85,12.68,12.83,20.36c2.98,7.69,4.47,15.85,4.47,24.49
				c0,8.48-1.49,16.56-4.47,24.25c-2.98,7.7-7.22,14.48-12.71,20.37c-5.49,5.88-12.24,10.56-20.25,14
				C1604.23,1381.02,1595.2,1382.75,1585.16,1382.75z M1552.91,1318.95c0,5.49,0.82,10.48,2.47,14.95
				c1.64,4.47,3.92,8.35,6.82,11.65c2.91,3.3,6.32,5.85,10.24,7.66c3.92,1.8,8.16,2.7,12.71,2.7c4.55,0,8.79-0.9,12.71-2.7
				c3.92-1.81,7.34-4.36,10.24-7.66c2.91-3.3,5.18-7.21,6.83-11.76c1.64-4.55,2.47-9.58,2.47-15.07c0-5.34-0.83-10.29-2.47-14.84
				c-1.65-4.55-3.92-8.48-6.83-11.77c-2.9-3.3-6.32-5.84-10.24-7.65c-3.92-1.8-8.16-2.71-12.71-2.71c-4.55,0-8.79,0.94-12.71,2.83
				c-3.92,1.88-7.34,4.48-10.24,7.77s-5.18,7.22-6.82,11.77C1553.73,1308.67,1552.91,1313.61,1552.91,1318.95z"/>
			<path d="M1743.85,1284.34c-9.58,0.16-18.13,2-25.67,5.54c-7.53,3.53-12.95,8.82-16.24,15.89v74.64h-31.55v-123.37h28.96v26.37
				c4.24-8.48,9.77-15.31,16.61-20.49c6.82-5.18,14-7.77,21.54-7.77c1.73,0,3.02,0.04,3.88,0.12c0.87,0.08,1.69,0.2,2.48,0.36
				V1284.34z"/>
			<path d="M1809.54,1382.75c-8.48,0-16.28-1.64-23.43-4.94c-7.15-3.3-13.3-7.85-18.48-13.66c-5.18-5.81-9.22-12.6-12.13-20.36
				c-2.9-7.77-4.35-16.13-4.35-25.07c0-8.95,1.37-17.27,4.12-24.96c2.74-7.69,6.55-14.44,11.42-20.25
				c4.87-5.81,10.67-10.36,17.42-13.66s14.13-4.94,22.13-4.94c8.95,0,17.07,2.2,24.36,6.58c7.3,4.4,12.99,10.13,17.08,17.19v-70.17
				h31.54v135.61c0,3.3,0.63,5.65,1.88,7.06c1.26,1.41,3.45,2.21,6.59,2.35v26.84c-5.96,1.1-10.99,1.65-15.07,1.65
				c-5.81-0.16-10.32-1.5-13.53-4.01c-3.22-2.5-5.22-6.04-6.01-10.59l-0.7-8.48c-4.56,7.85-10.68,13.77-18.37,17.78
				C1826.34,1380.75,1818.17,1382.75,1809.54,1382.75z M1817.78,1355.91c2.98,0,6.04-0.5,9.19-1.53c3.14-1.02,6.04-2.47,8.71-4.35
				c2.67-1.88,5.1-4.08,7.3-6.59c2.19-2.51,3.84-5.25,4.94-8.24v-29.44c-2.67-6.91-7.02-12.63-13.07-17.18
				c-6.04-4.55-12.36-6.83-18.95-6.83c-4.71,0-9.06,1.02-13.06,3.07c-4.01,2.04-7.42,4.82-10.24,8.36
				c-2.83,3.53-5.02,7.57-6.59,12.12s-2.35,9.26-2.35,14.13c0,5.18,0.86,9.97,2.59,14.37c1.73,4.4,4.12,8.24,7.19,11.53
				c3.06,3.3,6.67,5.88,10.83,7.77C1808.4,1354.97,1812.91,1355.91,1817.78,1355.91z"/>
			<path d="M1968.46,1382.75c-10.05,0-19.07-1.73-27.07-5.18c-8.01-3.45-14.8-8.12-20.36-14c-5.58-5.89-9.86-12.67-12.83-20.37
				c-2.98-7.68-4.48-15.77-4.48-24.25c0-8.63,1.5-16.8,4.48-24.49c2.97-7.68,7.25-14.47,12.83-20.36
				c5.57-5.88,12.36-10.55,20.36-14.01c8.01-3.45,17.03-5.17,27.07-5.17c10.05,0,19.03,1.73,26.96,5.17
				c7.93,3.46,14.68,8.13,20.25,14.01c5.57,5.89,9.85,12.68,12.83,20.36c2.98,7.69,4.48,15.85,4.48,24.49
				c0,8.48-1.5,16.56-4.48,24.25c-2.98,7.7-7.22,14.48-12.71,20.37c-5.5,5.88-12.24,10.56-20.25,14
				C1987.54,1381.02,1978.51,1382.75,1968.46,1382.75z M1936.21,1318.95c0,5.49,0.83,10.48,2.47,14.95
				c1.65,4.47,3.92,8.35,6.83,11.65c2.9,3.3,6.31,5.85,10.24,7.66c3.92,1.8,8.16,2.7,12.71,2.7c4.55,0,8.79-0.9,12.71-2.7
				c3.92-1.81,7.34-4.36,10.24-7.66c2.9-3.3,5.18-7.21,6.82-11.76c1.65-4.55,2.48-9.58,2.48-15.07c0-5.34-0.83-10.29-2.48-14.84
				c-1.64-4.55-3.92-8.48-6.82-11.77c-2.91-3.3-6.32-5.84-10.24-7.65c-3.92-1.8-8.16-2.71-12.71-2.71c-4.55,0-8.79,0.94-12.71,2.83
				c-3.92,1.88-7.34,4.48-10.24,7.77c-2.91,3.3-5.18,7.22-6.83,11.77C1937.03,1308.67,1936.21,1313.61,1936.21,1318.95z
				 M1976.47,1242.67l-20.25-6.12l12.71-28.02h29.44L1976.47,1242.67z"/>
			<path d="M2168.35,1380.4h-31.54v-69.22c0-9.89-1.74-17.11-5.18-21.66c-3.45-4.55-8.25-6.83-14.37-6.83
				c-3.14,0-6.35,0.63-9.65,1.88c-3.3,1.26-6.4,3.02-9.3,5.3c-2.91,2.27-5.54,4.98-7.89,8.12c-2.35,3.14-4.08,6.59-5.18,10.36v72.04
				h-31.54v-123.37h28.49v22.84c4.55-7.84,11.14-13.96,19.78-18.37c8.63-4.39,18.37-6.58,29.2-6.58c7.68,0,13.96,1.4,18.84,4.23
				c4.86,2.83,8.62,6.52,11.3,11.07c2.66,4.55,4.5,9.73,5.53,15.54c1.02,5.81,1.53,11.69,1.53,17.66V1380.4z"/>
			<path d="M2302.79,1382.75c-8.48,0-16.28-1.64-23.43-4.94s-13.3-7.85-18.48-13.66c-5.18-5.81-9.22-12.6-12.13-20.36
				c-2.9-7.77-4.35-16.13-4.35-25.07c0-8.95,1.37-17.27,4.12-24.96c2.74-7.69,6.55-14.44,11.42-20.25
				c4.87-5.81,10.67-10.36,17.42-13.66s14.13-4.94,22.13-4.94c8.95,0,17.07,2.2,24.36,6.58c7.3,4.4,12.99,10.13,17.08,17.19v-70.17
				h31.54v135.61c0,3.3,0.63,5.65,1.88,7.06s3.45,2.21,6.59,2.35v26.84c-5.96,1.1-10.99,1.65-15.07,1.65
				c-5.81-0.16-10.32-1.5-13.53-4.01c-3.22-2.5-5.22-6.04-6.01-10.59l-0.7-8.48c-4.56,7.85-10.68,13.77-18.37,17.78
				C2319.59,1380.75,2311.42,1382.75,2302.79,1382.75z M2311.03,1355.91c2.98,0,6.04-0.5,9.19-1.53c3.14-1.02,6.04-2.47,8.71-4.35
				c2.67-1.88,5.1-4.08,7.3-6.59c2.19-2.51,3.84-5.25,4.94-8.24v-29.44c-2.67-6.91-7.02-12.63-13.07-17.18
				c-6.04-4.55-12.36-6.83-18.95-6.83c-4.71,0-9.06,1.02-13.06,3.07c-4.01,2.04-7.42,4.82-10.24,8.36
				c-2.83,3.53-5.02,7.57-6.59,12.12c-1.57,4.55-2.35,9.26-2.35,14.13c0,5.18,0.86,9.97,2.59,14.37c1.73,4.4,4.12,8.24,7.19,11.53
				c3.06,3.3,6.67,5.88,10.83,7.77C2301.65,1354.97,2306.16,1355.91,2311.03,1355.91z"/>
			<path d="M2461.94,1382.75c-9.89,0-18.84-1.69-26.84-5.06c-8-3.38-14.83-7.97-20.48-13.78c-5.65-5.8-10-12.55-13.07-20.25
				c-3.06-7.68-4.59-15.77-4.59-24.25c0-8.79,1.49-17.07,4.47-24.83c2.98-7.77,7.3-14.6,12.95-20.49
				c5.65-5.88,12.51-10.55,20.6-14.01c8.09-3.45,17.15-5.17,27.2-5.17c10.04,0,19.03,1.73,26.96,5.17
				c7.92,3.46,14.67,8.09,20.25,13.9c5.57,5.81,9.81,12.56,12.71,20.25c2.9,7.69,4.35,15.7,4.35,24.02c0,2.04-0.04,4-0.12,5.88
				c-0.08,1.88-0.28,3.45-0.59,4.71h-95.35c0.47,4.87,1.64,9.19,3.53,12.95c1.88,3.77,4.31,6.99,7.3,9.66
				c2.98,2.67,6.36,4.71,10.13,6.12s7.69,2.11,11.77,2.11c6.27,0,12.2-1.53,17.77-4.59c5.58-3.07,9.39-7.1,11.43-12.13l27.07,7.53
				c-4.55,9.42-11.81,17.15-21.78,23.19C2487.64,1379.74,2475.76,1382.75,2461.94,1382.75z M2493.96,1308.35
				c-0.78-9.26-4.2-16.68-10.24-22.25c-6.04-5.58-13.38-8.36-22.01-8.36c-4.24,0-8.2,0.74-11.89,2.24
				c-3.69,1.49-6.95,3.57-9.77,6.24s-5.15,5.88-6.95,9.65s-2.87,7.93-3.17,12.48H2493.96z"/>
			<path d="M2601.79,1208.52h31.55v130.91c0,9.58,4.31,14.37,12.95,14.37c1.73,0,3.73-0.31,6.01-0.94c2.27-0.63,4.44-1.33,6.48-2.12
				l4.24,25.2c-4.24,2.04-9.19,3.61-14.84,4.71c-5.65,1.09-10.75,1.64-15.3,1.64c-9.89,0-17.54-2.63-22.96-7.88
				c-5.41-5.26-8.12-12.76-8.12-22.49V1208.52z"/>
			<path d="M2714.33,1382.75c-12.71,0-22.36-4.08-28.96-12.24c-6.59-8.15-9.89-20.25-9.89-36.25v-77.23h31.54v70.4
				c0,18.99,6.83,28.49,20.49,28.49c6.28,0,12.28-1.84,18.01-5.53c5.73-3.69,10.39-9.3,14.01-16.84v-76.52h31.54v87.11
				c0,3.3,0.63,5.65,1.88,7.06c1.26,1.41,3.45,2.21,6.59,2.35v26.84c-3.3,0.63-6.2,1.06-8.71,1.3c-2.51,0.23-4.71,0.36-6.59,0.36
				c-5.65,0-10.09-1.3-13.3-3.88c-3.22-2.59-5.22-6.16-6.01-10.72l-0.7-10.13c-5.65,8.48-12.76,14.84-21.31,19.08
				C2734.39,1380.64,2724.85,1382.75,2714.33,1382.75z"/>
			<path d="M2814.87,1361.09l68.51-81.93h-65.93v-22.13h99.12v19.31l-68.27,81.93h69.46v22.13h-102.89V1361.09z"/>
		</g>
	</g>
	<g>
		<g>
			<path d="M2577.81,336.3c-187.29-3.18-323.35,93.01-376.21,242.2c-52.35-153.69-186.3-232.69-353.52-232.69
				c-78.18,0-199.96,42.09-243.55,118.77V54.13H1421.1v494.75v139.46V842.1c40.41,41.5,94.38,80.16,155.9,81.22
				c36.8,0.62,71.9-11.2,100.58-33.54c-37.48-37.63-61.04-90.96-61.04-156.09c0-129.3,99.23-216.5,214.99-216.5
				c117.27,0,210.48,82.7,210.48,216.5c0,129.3-93.21,218-210.48,218c-18.77,0-37.1-2.25-54.65-6.53
				c-3.52,3.81-7.12,7.55-10.88,11.18c-39.86,38.51-89.4,63.21-142.86,71.89c57.29,69.1,139.45,93.35,220.41,93.35
				c169.75,0,306.65-87.54,358.95-241.27c52.33,145.27,184.06,236.16,375.54,239.4c112.74,1.91,241.18-35.01,320.72-114.85
				L2783.5,887.12c-42.83,42.88-131.95,66.93-199.6,65.79c-129.27-2.19-207.83-69.69-218.29-161.59l578.74,9.81
				C2978.07,496.46,2825.85,340.5,2577.81,336.3z M2371.18,639.54c28.69-95.75,110.68-142.47,209.89-140.79
				c105.23,1.78,179.57,51.16,189.97,147.57L2371.18,639.54z"/>
			<path d="M833.56,130.8c0,142.83,216.5,142.83,216.5,0C1050.05-12.02,833.56-12.02,833.56,130.8z"/>
			<path d="M850.1,336.22H682.45L580.21,584.29l-112.76,309.7L353.2,581.28L250.96,336.22H51l317.23,745.7h198.45L850.1,412.53
				v125.31c47.15-34.88,104.02-53.29,163.5-52.26c6.64,0.11,13.28,0.62,19.92,1.31V336.22H882.41H850.1z"/>
		</g>
		<path d="M1033.02,1020.76V911.55c0.17-0.03,0.33-0.07,0.5-0.09V596.4c-7.31-1.46-14.58-2.31-21.78-2.43
			c-4.55-0.08-9.06,0.04-13.52,0.34c-74.25,4.96-135.13,61.03-146.94,133.7h-0.09v0.68c-0.46,2.88-0.77,5.8-1.08,8.73v32.78
			c0.3,2.82,0.64,5.62,1.08,8.4v191.84c-0.36-0.27-0.71-0.55-1.08-0.82v111.37h183.42v-60.28
			C1033.35,1020.72,1033.18,1020.74,1033.02,1020.76z"/>
	</g>
</g>
</svg>
