<?xml version="1.0" encoding="utf-8"?>
<!-- Generator: Adobe Illustrator 25.0.0, SVG Export Plug-In . SVG Version: 6.00 Build 0)  -->
<svg version="1.1" id="Capa_1" xmlns="http://www.w3.org/2000/svg" xmlns:xlink="http://www.w3.org/1999/xlink" x="0px" y="0px"
	 viewBox="0 0 193.5 32.7" style="enable-background:new 0 0 193.5 32.7;" xml:space="preserve">
<g>
	<polygon points="57.4,31 43.6,11.3 43.6,31 37.3,31 37.3,1.7 44.4,1.7 57.3,20.6 57.3,1.7 63.6,1.7 63.6,31 	"/>
	<path d="M20,10.4c-0.2-1.5-0.8-2.6-1.8-3.4c-1-0.7-2.6-1.1-4.7-1.1c-3.8,0-5.8,1.2-5.8,3.6c0,0.9,0.4,1.6,1.2,2.1
		c0.8,0.6,2.1,1.1,3.8,1.4c2.1,0.4,3.9,0.9,5.4,1.2c1.5,0.4,2.9,0.8,4.2,1.3c0.7,0.3,1.4,0.6,2,1s1.2,0.9,1.6,1.5s0.8,1.3,1.1,2.1
		c0.3,0.8,0.4,1.8,0.4,3c0,1.4-0.3,2.7-1,3.8c-0.6,1.1-1.5,2-2.6,2.8s-2.4,1.3-3.9,1.7S16.8,32,15.2,32c-4.7,0-8.2-0.8-10.6-2.5
		S1,25.4,0.9,22.1h6.5c0,1.5,0.7,2.7,2,3.6c1.3,0.9,3,1.3,4.9,1.3c2.1,0,3.8-0.4,4.9-1.1c1.1-0.7,1.7-1.7,1.7-2.9
		c0-0.5-0.1-0.9-0.2-1.3c-0.1-0.4-0.4-0.8-0.8-1.1S19,20,18.4,19.7c-0.7-0.2-1.5-0.5-2.5-0.7c-2.5-0.5-4.6-0.9-6.4-1.4
		S6.2,16.5,5,15.8s-2-1.6-2.6-2.6s-0.8-2.3-0.8-3.9c0-1.2,0.2-2.3,0.7-3.4s1.2-2,2.2-2.8s2.3-1.4,3.7-1.8c1.5-0.5,3.2-0.7,5.2-0.7
		s3.7,0.2,5.3,0.7c1.6,0.5,2.9,1.1,4,1.9s2,1.9,2.6,3c0.6,1.2,1,2.5,1,4H20V10.4z"/>
	<rect x="28.8" y="1.7" width="6.8" height="29.3"/>
	<polygon points="76,31.1 76,6.8 66.3,6.8 66.3,1.8 92.6,1.8 92.6,6.8 82.8,6.8 82.8,31.1 	"/>
	<path d="M100.5,6.8v7.8h8.5c1.8,0,3.1-0.4,3.8-1.1c0.7-0.7,1.1-1.7,1.1-2.8c0-1.1-0.4-2.1-1.1-2.8c-0.7-0.7-1.9-1.1-3.6-1.1
		C109.2,6.8,100.5,6.8,100.5,6.8z M112.8,31.1v-7.6c0-1.4-0.4-2.4-1.1-3c-0.7-0.6-2-0.9-4-0.9h-7.2v11.5h-6.6V1.7h16.4
		c1.5,0,2.8,0.2,4.1,0.6c1.2,0.4,2.3,1,3.1,1.8c0.9,0.7,1.6,1.6,2,2.7c0.5,1,0.7,2.2,0.7,3.4c0,1.6-0.4,3-1.2,4.2s-2,2.1-3.6,2.6
		c1.4,0.4,2.4,1,3,1.9s0.9,2.1,0.9,3.9v8.3H112.8z"/>
	<path d="M136.2,8.3L136.2,8.3L132,20h8.2L136.2,8.3z M144.3,31.1l-2-6.1h-12l-2.3,6.1h-7.2l11.5-29.3h7.8l11.5,29.3H144.3z"/>
	<polygon points="153.3,31.1 153.3,6.8 143.6,6.8 143.6,1.8 169.9,1.8 169.9,6.8 160.1,6.8 160.1,31.1 	"/>
	<path d="M177,8.3L177,8.3l4.1,11.7h-8.2L177,8.3z M173.2,1.7l-11.5,29.4h7.2l2.3-6.1h11.9l2,6.1h7.4L181.1,1.8h-7.9V1.7z"/>
</g>
</svg>
