<?xml version="1.0" encoding="utf-8"?>
<!-- Generator: Adobe Illustrator 25.0.0, SVG Export Plug-In . SVG Version: 6.00 Build 0)  -->
<svg version="1.1" id="Capa_1" xmlns="http://www.w3.org/2000/svg" xmlns:xlink="http://www.w3.org/1999/xlink" x="0px" y="0px"
	 viewBox="0 0 561 573.4" style="enable-background:new 0 0 561 573.4;" xml:space="preserve">
<style type="text/css">
	.st0{opacity:0.67;enable-background:new    ;}
	.st1{opacity:0.33;enable-background:new    ;}
	.st2{font-family:'ArialMT';}
	.st3{font-size:239.9004px;}
	.st4{letter-spacing:-2;}
</style>
<path class="st0" d="M106.5,356.4l76.5-76.6V84.5L8.8,258.7c-11.7,11.8-11.7,30.8,0,42.6l55.1,55.1
	C75.7,368.2,94.7,368.2,106.5,356.4"/>
<path d="M377.9,84.5l-97.7,97.7l-97.7-97.7L259,8.1c11.7-11.7,30.8-11.7,42.5,0L377.9,84.5z"/>
<path class="st0" d="M454.5,356.4l-76.5-76.6V84.5l174.2,174.2c11.8,11.7,11.8,30.8,0,42.6c0,0,0,0,0,0l-55.1,55.1
	C485.3,368.2,466.2,368.2,454.5,356.4"/>
<polygon class="st1" points="280.2,182.2 377.9,84.5 377.9,279.8 "/>
<polygon class="st1" points="280.2,182.2 183,279.4 183,85 "/>
<path d="M183,279.4H0c0,0-0.3,12.3,8.8,21.4l55.1,55.1c0,0,22.4,20.2,42.6,0"/>
<path d="M377.9,279.8h183c0,0,0.3,12.3-8.8,21.5l-55.1,55.1c0,0-22.3,20.2-42.6,0"/>
<text transform="matrix(1 0 0 1 23.8159 573.4488)" class="st2 st3">AN</text>
<text transform="matrix(1 0 0 1 279.7378 573.4488)" class="st2 st3 st4">D</text>
<text transform="matrix(1 0 0 1 411.9492 573.4488)" class="st2 st3">A</text>
</svg>
