<?xml version="1.0" encoding="utf-8"?>
<!-- Generator: Adobe Illustrator 25.0.0, SVG Export Plug-In . SVG Version: 6.00 Build 0)  -->
<svg version="1.1" id="Layer_4" xmlns="http://www.w3.org/2000/svg" xmlns:xlink="http://www.w3.org/1999/xlink" x="0px" y="0px"
	 viewBox="0 0 478.9 105.8" style="enable-background:new 0 0 478.9 105.8;" xml:space="preserve">
<style type="text/css">
	.st0{fill:#FFFFFF;}
</style>
<g>
	<rect x="165.1" y="65" width="299.1" height="2.1"/>
	<rect x="-0.4" y="64.9" width="64.7" height="2.1"/>
	<g>
		<g>
			<path d="M0,24.2c0-2.1,1.7-3.8,3.8-3.8H16c3.9,0,7.1,1.1,9,3.1c1.6,1.6,2.4,3.5,2.4,5.9v0.1c0,3.9-2.1,6.1-4.5,7.4
				c4,1.5,6.5,3.8,6.5,8.5v0.1c0,6.3-5.1,9.5-12.9,9.5H3.8c-2.1,0-3.8-1.7-3.8-3.8V24.2z M14.4,34.3c3.4,0,5.5-1.1,5.5-3.6v-0.1
				c0-2.3-1.8-3.5-5-3.5H7.4v7.3H14.4z M16.4,48.3c3.4,0,5.4-1.2,5.4-3.7v-0.1c0-2.3-1.7-3.7-5.6-3.7H7.4v7.6H16.4z"/>
			<path d="M35.6,51.1V24.2c0-2.1,1.7-3.8,3.8-3.8h19.1c1.9,0,3.4,1.5,3.4,3.4c0,1.9-1.5,3.4-3.4,3.4H43.1v7h13.2
				c1.9,0,3.4,1.5,3.4,3.4c0,1.9-1.5,3.4-3.4,3.4H43.1v7.2h15.6c1.9,0,3.4,1.5,3.4,3.4c0,1.9-1.5,3.4-3.4,3.4H39.4
				C37.3,54.9,35.6,53.2,35.6,51.1z"/>
		</g>
		<g>
			<path d="M177.6,24h-10c-1,0-1.8-0.8-1.8-1.8s0.8-1.8,1.8-1.8h24c1,0,1.8,0.8,1.8,1.8s-0.8,1.8-1.8,1.8h-10v29.2c0,1.1-0.9,2-2,2
				c-1.1,0-2-0.9-2-2V24z"/>
			<path d="M201.4,22.1c0-1.1,0.9-2,1.9-2c1.1,0,2,0.9,2,2v13.6h19.9V22.1c0-1.1,0.9-2,2-2c1,0,1.9,0.9,1.9,2v31.1
				c0,1.1-0.9,2-1.9,2c-1.1,0-2-0.9-2-2V39.4h-19.9v13.8c0,1.1-0.9,2-2,2c-1,0-1.9-0.9-1.9-2V22.1z"/>
			<path d="M239.9,52.9V22.4c0-1.1,0.9-2,1.9-2h21.4c1,0,1.8,0.8,1.8,1.8c0,1-0.8,1.8-1.8,1.8h-19.5v11.8H261c1,0,1.8,0.8,1.8,1.8
				c0,1-0.8,1.8-1.8,1.8h-17.3v12.1h19.7c1,0,1.8,0.8,1.8,1.8c0,1-0.8,1.8-1.8,1.8h-21.7C240.8,54.9,239.9,54,239.9,52.9z"/>
			<path d="M289.7,22.2c0-1,0.9-1.9,1.9-1.9h0.4c0.8,0,1.4,0.4,1.8,1l12.3,18.5l12.3-18.5c0.4-0.6,1-1,1.8-1h0.4
				c1,0,1.9,0.9,1.9,1.9v31c0,1.1-0.9,2-1.9,2c-1.1,0-2-0.9-2-2V27.4l-11,16.2c-0.4,0.6-0.9,1-1.6,1c-0.7,0-1.2-0.3-1.7-1l-11-16.2
				v25.7c0,1.1-0.8,1.9-1.9,1.9c-1,0-1.9-0.8-1.9-1.9V22.2z"/>
			<path d="M331.3,52.3l14-30.6c0.5-1.1,1.2-1.7,2.5-1.7h0.2c1.2,0,2,0.6,2.4,1.7l14,30.6c0.1,0.3,0.2,0.7,0.2,1
				c0,1-0.8,1.9-1.9,1.9c-0.9,0-1.6-0.6-1.9-1.4l-3.6-7.9h-18.9l-3.6,8c-0.3,0.8-1,1.3-1.9,1.3c-1,0-1.8-0.8-1.8-1.8
				C331.1,53.1,331.1,52.7,331.3,52.3z M355.7,42.2l-7.9-17.7l-7.9,17.7H355.7z"/>
			<path d="M378,24h-10c-1,0-1.8-0.8-1.8-1.8s0.8-1.8,1.8-1.8h24c1,0,1.8,0.8,1.8,1.8s-0.8,1.8-1.8,1.8h-10v29.2c0,1.1-0.9,2-2,2
				c-1.1,0-2-0.9-2-2V24z"/>
			<path d="M397.9,37.7L397.9,37.7c0-9.9,7.3-17.9,17.5-17.9c5.6,0,9.1,1.8,12.3,4.5c0.4,0.3,0.8,0.9,0.8,1.6c0,1-0.9,1.9-2,1.9
				c-0.5,0-1-0.2-1.3-0.4c-2.7-2.4-5.7-3.9-9.9-3.9c-7.6,0-13.4,6.2-13.4,14.2v0.1c0,8,5.8,14.2,13.4,14.2c4.3,0,7.3-1.5,10.3-4.2
				c0.3-0.3,0.7-0.5,1.2-0.5c1,0,1.9,0.9,1.9,1.9c0,0.6-0.3,1.1-0.6,1.4c-3.4,3.1-7.1,5.1-12.8,5.1
				C405.2,55.5,397.9,47.7,397.9,37.7z"/>
			<path d="M436.8,22.1c0-1.1,0.9-2,1.9-2c1.1,0,2,0.9,2,2v13.6h19.9V22.1c0-1.1,0.9-2,2-2c1,0,1.9,0.9,1.9,2v31.1
				c0,1.1-0.9,2-1.9,2c-1.1,0-2-0.9-2-2V39.4h-19.9v13.8c0,1.1-0.9,2-2,2c-1,0-1.9-0.9-1.9-2V22.1z"/>
		</g>
		<g>
			<path d="M111.5,13.4C109.4,5.7,102.3,0,93.9,0C83.9,0,75.7,8.2,75.7,18.3c0,8.5,5.9,15.7,13.8,17.7
				C90.5,24.1,99.8,14.7,111.5,13.4z"/>
		</g>
		<g>
			<path d="M139.2,35.9c7.8-2.1,13.5-9.2,13.5-17.6c0-10.1-8.2-18.3-18.3-18.3C126,0,119,5.6,116.8,13.3
				C128.7,14.5,138.1,24,139.2,35.9z"/>
		</g>
		<g>
			<path d="M89.5,41c-7.9,2-13.8,9.1-13.8,17.7c0,10.1,8.2,18.3,18.3,18.3c8.6,0,15.8-5.9,17.7-13.9C100,61.8,90.8,52.6,89.5,41z"/>
		</g>
		<g>
			<path d="M139.1,41.1c-1.3,11.7-10.7,20.9-22.5,22c2,8,9.1,13.9,17.7,13.9c10.1,0,18.3-8.2,18.3-18.3
				C152.6,50.2,146.9,43.2,139.1,41.1z"/>
		</g>
		<g>
			<path class="st0" d="M112.2,18.3c0-1.7-0.2-3.3-0.7-4.9c-11.8,1.3-21,10.8-22.1,22.6c1.4,0.4,3,0.6,4.5,0.6
				C104,36.5,112.2,28.4,112.2,18.3z"/>
		</g>
		<g>
			<path class="st0" d="M134.4,36.5c1.7,0,3.3-0.2,4.8-0.7c-1.1-11.9-10.5-21.4-22.4-22.5c-0.4,1.6-0.7,3.2-0.7,4.9
				C116.1,28.4,124.3,36.5,134.4,36.5z"/>
		</g>
		<g>
			<path class="st0" d="M93.9,40.4c-1.5,0-3,0.2-4.4,0.6c1.3,11.6,10.5,20.8,22.2,22c0.3-1.4,0.5-2.8,0.5-4.3
				C112.2,48.6,104,40.4,93.9,40.4z"/>
		</g>
		<g>
			<path class="st0" d="M139.1,41.1c-1.5-0.4-3.1-0.6-4.7-0.6c-10.1,0-18.3,8.2-18.3,18.3c0,1.5,0.2,3,0.5,4.4
				C128.4,62,137.8,52.7,139.1,41.1z"/>
		</g>
	</g>
	<g>
		<path d="M306.1,78.8c0-0.8,0.7-1.6,1.6-1.6h0.4c0.7,0,1.2,0.4,1.5,0.8l10,15l10-15c0.3-0.5,0.8-0.8,1.5-0.8h0.4
			c0.8,0,1.6,0.7,1.6,1.6v25.2c0,0.9-0.7,1.6-1.6,1.6c-0.9,0-1.6-0.8-1.6-1.6V83l-9,13.2c-0.4,0.5-0.8,0.8-1.3,0.8
			c-0.6,0-1-0.3-1.4-0.8l-8.9-13.1V104c0,0.9-0.7,1.6-1.6,1.6c-0.8,0-1.5-0.7-1.5-1.6V78.8z"/>
		<path d="M340.8,103.7V78.9c0-0.9,0.7-1.6,1.6-1.6h17.4c0.8,0,1.4,0.6,1.4,1.4c0,0.8-0.6,1.4-1.4,1.4H344v9.6h14
			c0.8,0,1.4,0.7,1.4,1.4c0,0.8-0.6,1.4-1.4,1.4h-14v9.8h16c0.8,0,1.4,0.6,1.4,1.4c0,0.8-0.6,1.4-1.4,1.4h-17.6
			C341.5,105.3,340.8,104.6,340.8,103.7z M350.1,74.4c0-0.2,0.1-0.4,0.2-0.6l2.4-3.6c0.4-0.6,0.8-0.9,1.4-0.9c1,0,2.2,0.6,2.2,1.2
			c0,0.3-0.2,0.6-0.6,0.9l-3,2.8c-0.6,0.6-1.1,0.8-1.9,0.8C350.4,75,350.1,74.8,350.1,74.4z"/>
		<path d="M366.7,102.9l9.4-11.9l-8.9-11.2c-0.3-0.4-0.5-0.7-0.5-1.2c0-0.8,0.7-1.5,1.6-1.5c0.6,0,1,0.3,1.4,0.8l8.4,11l8.3-10.8
			c0.4-0.5,0.8-0.9,1.5-0.9c0.8,0,1.4,0.6,1.4,1.5c0,0.4-0.2,0.8-0.4,1.1L380,91l9.2,11.8c0.3,0.4,0.5,0.7,0.5,1.2
			c0,0.8-0.7,1.6-1.6,1.6c-0.6,0-1-0.3-1.4-0.8L378,93.2l-8.7,11.4c-0.4,0.5-0.8,0.9-1.6,0.9s-1.4-0.6-1.4-1.5
			C366.3,103.7,366.5,103.2,366.7,102.9z"/>
		<path d="M396.7,78.7c0-0.9,0.7-1.6,1.6-1.6c0.9,0,1.6,0.7,1.6,1.6v25.2c0,0.9-0.7,1.6-1.6,1.6c-0.8,0-1.6-0.7-1.6-1.6V78.7z"/>
		<path d="M406.8,91.4L406.8,91.4c0-8,5.9-14.6,14.2-14.6c4.5,0,7.4,1.5,10,3.6c0.3,0.3,0.6,0.7,0.6,1.3c0,0.8-0.8,1.6-1.6,1.6
			c-0.4,0-0.8-0.2-1-0.4c-2.2-1.9-4.6-3.2-8-3.2c-6.2,0-10.8,5-10.8,11.5v0.1c0,6.5,4.7,11.6,10.8,11.6c3.5,0,5.9-1.2,8.3-3.4
			c0.2-0.2,0.6-0.4,1-0.4c0.8,0,1.5,0.7,1.5,1.5c0,0.5-0.2,0.9-0.5,1.1c-2.8,2.5-5.8,4.1-10.4,4.1
			C412.8,105.8,406.8,99.4,406.8,91.4z"/>
		<path d="M435.5,91.4L435.5,91.4c0-7.8,5.8-14.6,14.3-14.6s14.2,6.7,14.2,14.4v0.1c0,7.7-5.8,14.5-14.3,14.5S435.5,99.1,435.5,91.4
			z M460.8,91.4L460.8,91.4c0-6.4-4.6-11.6-11-11.6c-6.4,0-11,5.1-11,11.5v0.1c0,6.4,4.6,11.6,11,11.6
			C456.3,102.9,460.8,97.8,460.8,91.4z"/>
	</g>
</g>
<g>
	<g>
		<path d="M467.9,22.4L467.9,22.4c0-3,2.4-5.6,5.5-5.6c3.1,0,5.5,2.5,5.5,5.5v0c0,3-2.4,5.5-5.5,5.5
			C470.3,27.9,467.9,25.4,467.9,22.4z M478.3,22.4L478.3,22.4c0-2.7-2.1-4.9-4.9-4.9c-2.8,0-4.9,2.2-4.9,4.9v0
			c0,2.7,2.1,4.9,4.9,4.9C476.1,27.3,478.3,25,478.3,22.4z M471.2,20c0-0.3,0.2-0.5,0.5-0.5h2c1.2,0,2.2,0.6,2.2,1.8
			c0,0.9-0.5,1.5-1.2,1.7l1.1,1.3c0.1,0.2,0.2,0.3,0.2,0.4c0,0.3-0.2,0.5-0.5,0.5c-0.2,0-0.4-0.1-0.5-0.3l-1.5-1.8h-1.1v1.5
			c0,0.3-0.3,0.6-0.5,0.6c-0.3,0-0.5-0.3-0.5-0.6V20z M473.7,22.2c0.7,0,1.1-0.4,1.1-0.9c0-0.6-0.4-0.9-1.1-0.9h-1.4v1.8H473.7z"/>
	</g>
</g>
</svg>
