<?xml version="1.0" encoding="utf-8"?>
<!-- Generator: Adobe Illustrator 25.0.0, SVG Export Plug-In . SVG Version: 6.00 Build 0)  -->
<svg version="1.1" id="Layer_1" xmlns="http://www.w3.org/2000/svg" xmlns:xlink="http://www.w3.org/1999/xlink" x="0px" y="0px"
	 viewBox="0 0 810 256" style="enable-background:new 0 0 810 256;" xml:space="preserve">
<style type="text/css">
	.st0{fill:#FFFFFF;}
	.st1{font-family:'Avenir-Light';}
	.st2{font-size:127.7987px;}
</style>
<g>
	<rect x="6" y="4" width="790.6" height="109.8"/>
	<text transform="matrix(1 0 0 1 5.7515 105.1387)" class="st0 st1 st2">CAMBIANDO</text>
	<g>
		<path d="M9.8,123.8H26l42.2,97.1l42.2-97.1h15.4v115.7h-10.8v-102h-0.3l-44.1,102h-4.7L21,137.6h-0.3v102H9.8V123.8z"/>
		<path d="M148.7,181.7c0-8.8,1.5-16.9,4.4-24.3c2.9-7.4,7-13.8,12.3-19.2c5.2-5.4,11.5-9.6,18.9-12.7c7.4-3,15.4-4.6,24.3-4.6
			s16.9,1.5,24.3,4.6c7.4,3.1,13.6,7.3,18.9,12.7c5.2,5.4,9.3,11.8,12.3,19.2c2.9,7.4,4.4,15.5,4.4,24.3c0,8.8-1.5,17-4.4,24.4
			c-2.9,7.5-7,13.9-12.3,19.3c-5.2,5.4-11.5,9.6-18.9,12.6c-7.4,3-15.4,4.5-24.3,4.5s-16.9-1.5-24.3-4.5c-7.4-3-13.6-7.2-18.9-12.6
			c-5.2-5.4-9.3-11.8-12.3-19.3C150.2,198.7,148.7,190.5,148.7,181.7z M159.5,181.7c0,7.2,1.1,13.9,3.4,20.1
			c2.3,6.2,5.6,11.6,9.8,16.2s9.4,8.2,15.4,10.8s12.8,3.9,20.3,3.9s14.3-1.3,20.3-3.9s11.2-6.2,15.4-10.8c4.2-4.6,7.5-10,9.8-16.2
			c2.3-6.2,3.4-12.9,3.4-20.1s-1.1-13.9-3.4-20.1s-5.6-11.6-9.8-16.2c-4.2-4.6-9.4-8.2-15.4-10.8s-12.8-3.9-20.3-3.9
			s-14.3,1.3-20.3,3.9s-11.2,6.2-15.4,10.8s-7.5,10-9.8,16.2S159.5,174.5,159.5,181.7z"/>
		<path d="M291.1,123.8h35.8c10,0,18.5,1.2,25.5,3.7c7,2.5,12.8,5.6,17.4,9.4c4.6,3.8,8.3,8,10.9,12.7c2.7,4.6,4.6,9.1,5.9,13.3
			c1.3,4.2,2,8.1,2.4,11.5c0.3,3.4,0.5,5.9,0.5,7.3c0,1.4-0.2,3.8-0.5,7.3c-0.3,3.4-1.1,7.3-2.4,11.5c-1.3,4.2-3.2,8.7-5.9,13.3
			c-2.7,4.6-6.3,8.9-10.9,12.7c-4.6,3.8-10.4,6.9-17.4,9.4c-7,2.5-15.5,3.7-25.5,3.7h-35.8V123.8z M301.8,229.7h22.2
			c7.6,0,14.8-1,21.4-2.9c6.6-1.9,12.4-4.8,17.3-8.7c4.9-3.9,8.8-8.9,11.6-15c2.8-6,4.2-13.2,4.2-21.5c0-8.3-1.4-15.4-4.2-21.5
			c-2.8-6-6.7-11-11.6-15s-10.7-6.8-17.3-8.7c-6.6-1.9-13.8-2.9-21.4-2.9h-22.2V229.7z"/>
		<path d="M413.6,123.8h70.8v9.8h-60v41.2h56.2v9.8h-56.2v45.1H487v9.8h-73.4V123.8z"/>
		<path d="M510.5,123.8h10.8v105.9h53.9v9.8h-64.7V123.8z"/>
		<path d="M731.6,218.1c2.8,4.9,6.5,8.6,11,10.9c4.5,2.4,9.7,3.6,15.4,3.6c3.6,0,7-0.5,10.1-1.6c3.2-1.1,5.9-2.6,8.3-4.6
			c2.3-2,4.2-4.3,5.6-7.1c1.4-2.8,2-5.9,2-9.4c0-4-0.8-7.4-2.5-10c-1.7-2.6-3.9-4.8-6.8-6.5c-2.8-1.7-6-3.1-9.6-4.3
			c-3.5-1.2-7.2-2.4-10.9-3.6c-3.8-1.2-7.4-2.6-10.9-4.1c-3.5-1.5-6.7-3.5-9.6-6c-2.8-2.5-5.1-5.5-6.8-9.2
			c-1.7-3.7-2.5-8.3-2.5-13.7c0-5.1,1-9.7,3-13.6c2-4,4.7-7.3,8.2-10c3.4-2.7,7.4-4.7,11.8-6c4.5-1.4,9.2-2,14.1-2
			c6.3,0,12.2,1.1,17.6,3.3c5.4,2.2,10,6,14,11.2l-9.3,6.7c-2.7-3.8-5.9-6.7-9.6-8.6c-3.7-1.9-8-2.9-13-2.9c-3.5,0-6.8,0.5-10,1.4
			c-3.2,0.9-5.9,2.3-8.3,4.1c-2.3,1.8-4.2,4.1-5.6,6.8c-1.4,2.7-2.1,5.9-2.1,9.6c0,5.8,1.5,10.2,4.4,13.3s6.6,5.6,11,7.4
			c4.4,1.8,9.2,3.4,14.4,4.7c5.2,1.4,10,3.2,14.4,5.5c4.4,2.3,8.1,5.5,11,9.6c2.9,4.1,4.4,9.7,4.4,16.9c0,5.2-1,9.9-2.9,13.9
			c-2,4-4.6,7.4-7.9,10.2c-3.3,2.8-7.2,4.9-11.5,6.3c-4.4,1.4-8.9,2.1-13.6,2.1c-7.6,0-14.7-1.3-21.1-4c-6.4-2.7-11.9-7.2-16.5-13.5
			L731.6,218.1z"/>
	</g>
	<g>
		<g id="XMLID_8_">
			<g>
				<path d="M692,199h11.3c-0.7,2.9-1.6,5.8-2.7,8.6c-3,7.6-7.1,14.1-12.4,19.6s-11.7,9.7-19.2,12.8c-7.5,3-15.7,4.6-24.6,4.6
					s-17.2-1.5-24.6-4.6c-7.5-3-13.9-7.3-19.2-12.8c-5.3-5.5-9.5-12-12.4-19.6c-1.1-2.8-2-5.6-2.7-8.6h11.3c0.4,1.4,0.8,2.8,1.3,4.2
					c2.3,6.3,5.6,11.8,10,16.4c4.3,4.6,9.5,8.3,15.7,11c6.1,2.7,13,4,20.7,4c7.6,0,14.5-1.3,20.7-4c6.1-2.7,11.4-6.3,15.7-11
					c4.3-4.6,7.6-10.1,10-16.4C691.2,201.8,691.6,200.4,692,199z"/>
				<path d="M703.3,166.5H692c-0.4-1.4-0.8-2.8-1.3-4.2c-2.3-6.3-5.6-11.8-10-16.4c-4.3-4.6-9.5-8.3-15.7-11c-6.1-2.7-13-4-20.7-4
					c-7.6,0-14.5,1.3-20.7,4c-6.1,2.7-11.4,6.3-15.7,11c-4.3,4.6-7.6,10.1-10,16.4c-0.5,1.4-0.9,2.8-1.3,4.2h-11.3
					c0.7-2.9,1.6-5.7,2.7-8.5c3-7.5,7.1-14,12.4-19.5c5.3-5.5,11.7-9.8,19.2-12.9c7.5-3.1,15.7-4.6,24.6-4.6s17.2,1.6,24.6,4.6
					c7.5,3.1,13.9,7.4,19.2,12.9c5.3,5.5,9.5,12,12.4,19.5C701.7,160.7,702.6,163.6,703.3,166.5z"/>
			</g>
			<g>
			</g>
		</g>
		<g id="XMLID_2_">
			<g>
				<path d="M685.8,199.6l4.7-1.8c0.9-0.4,2,0.1,2.4,1c0.4,0.9-0.1,2-1,2.4l-7.2,2.8c-0.1,0-0.2,0.1-0.3,0.1l-0.2-0.5
					C683.5,202,684.3,200.2,685.8,199.6z"/>
				<path d="M683.3,200.6l2.5-1c-1.6,0.6-2.3,2.4-1.7,4l0.2,0.5c-0.8,0.2-1.7-0.3-2.1-1.1c-0.2-0.5-0.2-1,0-1.4
					C682.5,201.1,682.8,200.8,683.3,200.6z"/>
				<path d="M684.3,204.1L684.3,204.1c0.1,0,0.2-0.1,0.3-0.1L684.3,204.1z"/>
				<path d="M702.5,206.1c-0.4-0.9,0.1-2,1-2.4c0.9-0.4,2,0.1,2.4,1l1.7,4.3c0.6,1.6-0.2,3.3-1.7,4l-0.6,0.2L702.5,206.1z"/>
				<path d="M705.2,213.2l-4.8-12.2c-0.6-1.6-2.4-2.3-4-1.7l-4.6,1.8c0.9-0.4,1.4-1.4,1-2.4c-0.4-0.9-1.4-1.4-2.4-1l8.1-3.2
					c1.6-0.6,3.3,0.2,4,1.7l3.3,8.5c-0.4-0.9-1.4-1.4-2.4-1c-0.9,0.4-1.4,1.4-1,2.4L705.2,213.2L705.2,213.2z"/>
				<path d="M707.5,209.1l1.2,3c0.4,0.9-0.1,2-1,2.4c-0.5,0.2-1,0.2-1.4,0c-0.4-0.2-0.8-0.5-1-1l0-0.1l0.6-0.2
					C707.4,212.4,708.2,210.6,707.5,209.1z"/>
			</g>
			<g>
			</g>
		</g>
	</g>
	<g>
		<circle cx="625" cy="183" r="7"/>
	</g>
	<g>
		<circle cx="662" cy="183" r="7"/>
	</g>
</g>
</svg>
