<?xml version="1.0" encoding="utf-8"?>
<!-- Generator: Adobe Illustrator 25.0.0, SVG Export Plug-In . SVG Version: 6.00 Build 0)  -->
<svg version="1.1" id="Layer_1" xmlns="http://www.w3.org/2000/svg" xmlns:xlink="http://www.w3.org/1999/xlink" x="0px" y="0px"
	 viewBox="0 0 326.47 141.4" style="enable-background:new 0 0 326.47 141.4;" xml:space="preserve">
<g>
	<path d="M36.06,5.21L4.2,37.08h63.72L36.06,5.21z M36.11,35.25c-5.6,0-10.14-4.54-10.14-10.14c0-5.6,4.54-10.14,10.14-10.14
		c5.6,0,10.13,4.54,10.13,10.14C46.24,30.71,41.71,35.25,36.11,35.25z"/>
	<path d="M99.73,5.21L67.87,37.08h63.72L99.73,5.21z M99.78,35.25c-5.6,0-10.14-4.54-10.14-10.14c0-5.6,4.54-10.14,10.14-10.14
		s10.14,4.54,10.14,10.14C109.92,30.71,105.38,35.25,99.78,35.25z"/>
	<path d="M163.4,5.21l-31.86,31.87h63.72L163.4,5.21z M163.45,35.25c-5.6,0-10.14-4.54-10.14-10.14c0-5.6,4.54-10.14,10.14-10.14
		c5.6,0,10.14,4.54,10.14,10.14C173.59,30.71,169.05,35.25,163.45,35.25z"/>
	<path d="M227.07,5.21L195.2,37.08h63.72L227.07,5.21z M227.12,35.25c-5.6,0-10.14-4.54-10.14-10.14c0-5.6,4.54-10.14,10.14-10.14
		c5.6,0,10.14,4.54,10.14,10.14C237.25,30.71,232.72,35.25,227.12,35.25z"/>
	<path d="M290.74,5.21l-31.86,31.87h63.72L290.74,5.21z M290.79,35.25c-5.6,0-10.14-4.54-10.14-10.14c0-5.6,4.54-10.14,10.14-10.14
		c5.6,0,10.13,4.54,10.13,10.14C300.92,30.71,296.39,35.25,290.79,35.25z"/>
	<g>
		<rect x="4.2" y="45" width="23.88" height="31.83"/>
		<rect x="44.05" y="45" width="23.87" height="31.83"/>
	</g>
	<g>
		<rect x="67.87" y="45" width="23.87" height="31.83"/>
		<rect x="107.71" y="45" width="23.88" height="31.83"/>
	</g>
	<g>
		<rect x="131.54" y="45" width="23.88" height="31.83"/>
		<rect x="171.35" y="45" width="23.87" height="31.83"/>
	</g>
	<g>
		<g>
			<rect x="258.88" y="45" width="23.87" height="31.83"/>
			<rect x="298.69" y="45" width="23.87" height="31.83"/>
		</g>
	</g>
	<g>
		<rect x="195.2" y="45" width="23.88" height="31.83"/>
		<rect x="235.02" y="45" width="23.87" height="31.83"/>
	</g>
	<g>
		<g>
			<g>
				<path d="M22.87,100.91v7.18c-0.62-0.43-1.31-0.81-2.06-1.14c-0.74-0.33-1.52-0.49-2.33-0.49c-1.61,0-2.99,0.57-4.13,1.68
					c-1.14,1.11-1.7,2.5-1.7,4.15c0,1.72,0.56,3.12,1.68,4.23c1.12,1.1,2.55,1.65,4.29,1.65c0.15,0,0.32,0,0.49-0.02
					c0.17-0.02,0.33-0.04,0.49-0.08c0.59-0.09,1.17-0.26,1.75-0.53c0.57-0.26,1.08-0.6,1.52-1.01v7.14
					c-0.93,0.47-1.91,0.81-2.92,1.03c-1.01,0.22-2.03,0.33-3.06,0.33c-3.54,0-6.6-1.17-9.17-3.52c-2.57-2.35-3.85-5.33-3.85-8.94
					c0-3.86,1.29-6.99,3.87-9.4c2.58-2.42,5.75-3.62,9.52-3.62c0.99,0,1.97,0.12,2.91,0.35c0.95,0.24,1.84,0.59,2.69,1.06V100.91z"
					/>
				<path d="M39.99,99.51c3.86,0.03,7.22,1.16,10.1,3.38c2.88,2.23,4.31,5.38,4.31,9.45c0,4.05-1.43,7.17-4.31,9.38
					c-2.88,2.21-6.25,3.31-10.1,3.31c-3.83,0-7.19-1.1-10.08-3.29c-2.89-2.19-4.34-5.32-4.34-9.4c0-4.07,1.44-7.22,4.32-9.45
					c2.88-2.22,6.25-3.34,10.1-3.34V99.51z M35.98,108.54c-0.96,1.08-1.45,2.34-1.45,3.8c0,1.52,0.48,2.8,1.45,3.83
					c0.96,1.03,2.3,1.54,4.01,1.54c1.74,0,3.09-0.52,4.04-1.55c0.94-1.04,1.42-2.31,1.42-3.84c0-1.47-0.47-2.75-1.42-3.82
					c-0.95-1.08-2.3-1.61-4.04-1.61C38.28,106.91,36.94,107.46,35.98,108.54z"/>
				<path d="M65.94,103.38h0.09c0.99-1.43,2.11-2.43,3.33-2.98c1.23-0.57,2.67-0.85,4.32-0.85c3.24,0,5.55,0.93,6.93,2.76
					c1.38,1.84,2.08,4.23,2.08,7.19v14.74h-8.5v-11.67c0-0.07,0-0.14,0-0.24c0-0.09,0-0.19,0-0.27c0-0.28,0-0.58,0-0.89
					c0-0.31-0.01-0.62-0.05-0.94c-0.06-0.96-0.34-1.85-0.84-2.67c-0.5-0.83-1.48-1.24-2.94-1.24c-1.71,0-2.88,0.55-3.5,1.65
					c-0.62,1.1-0.93,2.41-0.93,3.89v12.38h-8.49V100.3h8.49V103.38z"/>
				<path d="M106.17,101.05l-2.85,5.41c-0.38-0.18-0.79-0.36-1.24-0.51c-0.46-0.16-0.92-0.28-1.38-0.38c-0.34-0.06-0.67-0.11-1-0.16
					c-0.33-0.05-0.64-0.07-0.95-0.07c-0.16,0-0.32,0-0.49,0.02c-0.17,0.02-0.34,0.06-0.49,0.11c-0.44,0.09-0.82,0.26-1.17,0.49
					c-0.34,0.24-0.51,0.57-0.51,1c0,0.53,0.22,0.93,0.68,1.19c0.45,0.27,0.95,0.46,1.52,0.59c0.31,0.09,0.6,0.17,0.88,0.22
					c0.28,0.05,0.53,0.08,0.75,0.11c1.99,0.41,3.65,1.13,4.97,2.19c1.32,1.06,1.99,2.69,1.99,4.91c0,3.05-1.13,5.27-3.36,6.65
					c-2.24,1.39-4.72,2.12-7.42,2.22c-0.09,0-0.19,0-0.26,0c-0.08,0-0.16,0-0.25,0c-1.71,0-3.38-0.24-5.02-0.7
					c-1.63-0.47-3.18-1.13-4.64-2.01l3.08-5.97c0.53,0.41,1.14,0.77,1.82,1.1c0.68,0.32,1.38,0.61,2.1,0.86
					c0.5,0.15,0.98,0.28,1.44,0.38c0.47,0.09,0.92,0.13,1.35,0.13c0.13,0,0.26-0.01,0.39-0.02c0.14-0.02,0.29-0.04,0.44-0.07
					c0.47-0.09,0.89-0.28,1.26-0.57c0.37-0.28,0.56-0.67,0.56-1.16c0-0.69-0.33-1.18-0.98-1.47c-0.65-0.3-1.43-0.54-2.33-0.73
					c-0.34-0.06-0.68-0.13-1.01-0.21c-0.32-0.08-0.66-0.16-1-0.25c-1.34-0.34-2.56-0.94-3.66-1.8c-1.1-0.85-1.66-2.36-1.66-4.5
					c0-2.89,1.08-5.02,3.22-6.39c2.15-1.37,4.5-2.07,7.05-2.1c0.06,0,0.11,0,0.16,0c0.05,0,0.09,0,0.12,0
					c1.37,0,2.71,0.12,4.04,0.35c1.32,0.24,2.61,0.63,3.85,1.2V101.05z"/>
				<path d="M119.93,124.24h-8.5V107.3h-2.75v-6.99h2.75v-7.19h8.5v7.19h4.8v6.99h-4.8V124.24z"/>
				<path d="M135.14,104.22h0.09c0.81-1.43,1.89-2.49,3.24-3.17c1.35-0.69,2.85-1.03,4.5-1.03l1.64-0.05v8.16
					c-0.12-0.03-0.24-0.08-0.35-0.14c-0.11-0.06-0.22-0.1-0.35-0.14c-0.47-0.18-0.94-0.3-1.4-0.37c-0.47-0.07-0.97-0.09-1.5-0.09
					c-2.37,0-3.94,0.69-4.72,2.08c-0.77,1.39-1.16,3.11-1.16,5.15v9.62h-8.49V100.3h8.49V104.22z"/>
				<path d="M155.35,100.3v12.79c0,1.55,0.27,2.81,0.82,3.78c0.54,0.96,1.69,1.44,3.43,1.44c1.74,0,2.88-0.48,3.43-1.44
					c0.54-0.96,0.82-2.21,0.82-3.74V100.3h8.5v14.41c0,3.98-1.22,6.7-3.67,8.15c-2.44,1.44-5.46,2.17-9.07,2.17
					c-3.58,0-6.6-0.73-9.05-2.17c-2.46-1.44-3.69-4.14-3.69-8.1V100.3H155.35z"/>
				<path d="M173.45,100.3h9.81l6.39,12.27l6.25-12.27h9.66l-19.17,35.88h-9.52l8.17-15.21L173.45,100.3z"/>
				<path d="M231.28,112.8v0.9H213.4c0,1.74,0.45,3.07,1.35,3.98c0.91,0.92,2.23,1.38,3.97,1.38c0.9,0,1.69-0.17,2.36-0.51
					c0.67-0.35,1.23-0.91,1.7-1.68h8.16c-0.69,2.84-2.2,4.92-4.54,6.22c-2.36,1.29-4.9,1.94-7.63,1.94c-3.95,0-7.25-1.09-9.89-3.25
					c-2.65-2.16-3.97-5.31-3.97-9.45c0-3.97,1.23-7.11,3.7-9.37c2.48-2.27,5.66-3.42,9.55-3.42c4.17,0,7.4,1.2,9.68,3.6
					c2.29,2.4,3.44,5.64,3.44,9.71V112.8z M223.38,108.8c-0.22-1.12-0.78-2.03-1.69-2.71c-0.93-0.69-1.96-1.03-3.11-1.03
					c-1.24,0-2.33,0.31-3.27,0.94c-0.93,0.63-1.52,1.56-1.77,2.79H223.38z"/>
				<path d="M242.84,103.38h0.09c1-1.43,2.11-2.43,3.34-2.98c1.23-0.57,2.67-0.85,4.32-0.85c3.23,0,5.54,0.93,6.93,2.76
					c1.39,1.84,2.08,4.23,2.08,7.19v14.74h-8.5v-11.67c0-0.07,0-0.14,0-0.24c0-0.09,0-0.19,0-0.27c0-0.28,0-0.58,0-0.89
					c0-0.31-0.01-0.62-0.05-0.94c-0.06-0.96-0.34-1.85-0.84-2.67c-0.5-0.83-1.48-1.24-2.95-1.24c-1.71,0-2.87,0.55-3.5,1.65
					c-0.62,1.1-0.93,2.41-0.93,3.89v12.38h-8.49V100.3h8.49V103.38z"/>
				<path d="M282.42,121.58h-0.09c-0.69,1.12-1.61,1.95-2.8,2.5c-1.18,0.54-2.42,0.84-3.69,0.91c-0.13,0.03-0.25,0.05-0.38,0.05
					c-0.12,0-0.25,0-0.37,0c-3.55,0-6.45-1.26-8.7-3.8c-2.26-2.54-3.38-5.51-3.38-8.94c0-3.42,1.11-6.4,3.33-8.93
					c2.22-2.54,5.11-3.81,8.66-3.81c0.16,0,0.31,0,0.46,0c0.16,0,0.32,0.02,0.47,0.05c1.21,0.09,2.41,0.4,3.57,0.92
					c1.17,0.51,2.14,1.24,2.92,2.17V85.5h8.5v38.74h-8.5V121.58z M273.23,108.54c-0.97,1.08-1.45,2.34-1.45,3.8
					c0,1.52,0.49,2.8,1.45,3.83c0.96,1.03,2.3,1.54,4.01,1.54c1.74,0,3.08-0.52,4.03-1.55c0.95-1.04,1.43-2.31,1.43-3.84
					c0-1.47-0.48-2.75-1.43-3.82c-0.95-1.08-2.29-1.61-4.03-1.61C275.52,106.91,274.18,107.46,273.23,108.54z"/>
				<path d="M308.09,99.51c3.86,0.03,7.22,1.16,10.1,3.38c2.88,2.23,4.32,5.38,4.32,9.45c0,4.05-1.44,7.17-4.32,9.38
					c-2.88,2.21-6.25,3.31-10.1,3.31c-3.83,0-7.19-1.1-10.08-3.29c-2.89-2.19-4.34-5.32-4.34-9.4c0-4.07,1.44-7.22,4.32-9.45
					c2.87-2.22,6.25-3.34,10.1-3.34V99.51z M304.07,108.54c-0.97,1.08-1.45,2.34-1.45,3.8c0,1.52,0.48,2.8,1.45,3.83
					c0.96,1.03,2.3,1.54,4.01,1.54c1.75,0,3.09-0.52,4.04-1.55c0.95-1.04,1.43-2.31,1.43-3.84c0-1.47-0.48-2.75-1.43-3.82
					c-0.95-1.08-2.29-1.61-4.04-1.61C306.37,106.91,305.04,107.46,304.07,108.54z"/>
			</g>
			<g>
				<g>
					<path d="M322.27,95.36c0,0.71-0.18,1.38-0.54,1.99c-0.35,0.61-0.84,1.1-1.46,1.45c-0.61,0.36-1.28,0.54-1.99,0.54
						c-0.71,0-1.38-0.18-1.99-0.54c-0.62-0.35-1.11-0.84-1.46-1.45c-0.36-0.61-0.54-1.28-0.54-1.99c0-0.72,0.18-1.38,0.54-1.99
						c0.35-0.62,0.84-1.1,1.46-1.46c0.61-0.36,1.28-0.53,1.99-0.53c0.71,0,1.38,0.17,1.99,0.53c0.62,0.36,1.11,0.84,1.46,1.46
						C322.09,93.98,322.27,94.64,322.27,95.36z M321.5,95.36c0-0.9-0.31-1.65-0.94-2.27c-0.63-0.63-1.39-0.94-2.27-0.94
						c-0.89,0-1.65,0.31-2.27,0.94c-0.63,0.62-0.94,1.38-0.94,2.27c0,0.89,0.31,1.64,0.94,2.27c0.63,0.62,1.39,0.93,2.27,0.93
						c0.88,0,1.64-0.31,2.27-0.93C321.18,97,321.5,96.25,321.5,95.36z M316.48,93.22h1.9c0.55,0,0.93,0.1,1.17,0.33
						c0.25,0.22,0.36,0.51,0.36,0.87c0,0.28-0.09,0.54-0.27,0.75c-0.19,0.21-0.47,0.36-0.88,0.45c0.17,0.06,0.29,0.12,0.36,0.2
						c0.11,0.09,0.22,0.25,0.34,0.43c0.01,0.01,0.24,0.42,0.69,1.23h-1.26c-0.41-0.8-0.68-1.29-0.82-1.45
						c-0.13-0.15-0.28-0.24-0.41-0.24c-0.03,0-0.08,0.01-0.13,0.02v1.67h-1.06V93.22z M317.54,95.04h0.46
						c0.31,0,0.52-0.06,0.65-0.15c0.12-0.1,0.18-0.23,0.18-0.39s-0.05-0.28-0.17-0.39c-0.13-0.09-0.33-0.15-0.61-0.15h-0.5V95.04z"
						/>
				</g>
			</g>
		</g>
	</g>
</g>
</svg>
