<?xml version="1.0" encoding="utf-8"?>
<!-- Generator: Adobe Illustrator 25.0.0, SVG Export Plug-In . SVG Version: 6.00 Build 0)  -->
<svg version="1.1" id="Capa_1" xmlns="http://www.w3.org/2000/svg" xmlns:xlink="http://www.w3.org/1999/xlink" x="0px" y="0px"
	 viewBox="0 0 227.8 310.4" style="enable-background:new 0 0 227.8 310.4;" xml:space="preserve">
<style type="text/css">
	.st0{fill:#13110C;}
	.st1{font-family:'TimesNewRomanPS-BoldMT';}
	.st2{font-size:28.0742px;}
	.st3{fill:#FFFFFF;}
	.st4{fill:#FFFFFF;stroke:#FFFFFF;stroke-width:0.3912;}
</style>
<g>
	<text transform="matrix(1 0 0 1 125.6836 286.4669)" class="st0 st1 st2"> </text>
	<rect width="227.8" height="310.4"/>
	<path class="st3" d="M184.2,99.5c0,38.7-32.2,70.1-72,70.1c-39.8,0-72-31.3-72-70.1c0-38.7,32.2-70.1,72-70.1
		C151.9,29.5,184.2,60.8,184.2,99.5z"/>
	<g>
		<g>
			<path d="M103.6,85.7c0,0,0.6-0.5,1.3-0.3c0.7,0.1,1.4,0.2,1.6,0.2c0.1,0,1.2,0.4,1.6,0.8c0.4,0.4,0.5,0.2,0.5,0.2
				s0.6,0.6,0.8,1.1c0.2,0.5,0.5,1.1,0.5,1.4c0,0.3,0.2,0.7,0.3,1.1c0.1,0.4,0,0.7,0,0.7s-0.1,2.5-0.2,3.6c0,1.1-0.2,3.4-0.4,4.3
				c0,0,0,0.4,0,0.8c0.1,0.4,0,1.1,0,1.3c0,0.2,0,1,0,1.1c0,0.2,0,0.5,0,0.8c0,0.3,0.1,1.5,0.2,1.9c0.1,0.4-0.1,1.4-1,2.2
				c-0.9,0.8-2.1,1.7-3.6,1.5c-1.5-0.2-2.4-0.7-2.7-0.9c-0.2-0.2-0.4-0.5-0.6-0.7c-0.2-0.2-1-0.5-1-1.7c0-1.2,0.2-3.2,0.2-3.7
				c0-0.5,0-2.1,0.1-3.1c0.1-1,0.3-4.7,0.2-5.7c0-1,0.1-3.8,0.3-4.3c0.2-0.4,0.1-0.6,0.1-0.8c0-0.2,0.3-0.3,0.4-0.7
				C102.5,86.3,103.2,85.6,103.6,85.7z"/>
			<path d="M115.3,98c0,0,0.1-3.6,0.1-5.2c0-1.6-0.1-2.4,0-2.7c0.1-0.3,0.5-1.6,0.5-2c0-0.3-0.1-1.5,0.2-1.8
				c0.3-0.3,0.6-0.4,0.5-0.6c-0.1-0.1,0.2-0.4,0.3-0.3c0.1,0.1,0.2,0.1,0.4,0c0.1-0.1,0.4-0.2,0.5-0.2c0.1,0,0.6-0.1,0.7-0.1
				c0.1,0,0.4-0.2,0.4-0.2l0.1-0.1c0,0,1.3,0.3,1.7,0.5c0.4,0.1,1.4,0.5,1.5,0.7c0.1,0.2,1.1,1.3,1.1,2.1c0.1,0.8,1,8,0.1,14.6
				c0,0-0.7,3.1-1.4,3.9c-0.7,0.8-2.3,1.9-4.2,1.7c-1.9-0.3-2.2-1.4-2.4-1.7c-0.2-0.3-0.9-2.4-0.6-3.7c0.3-1.4,0.4-1.9,0.4-3.1
				C115.2,98.6,115.3,98,115.3,98z"/>
			<path d="M93.8,111.1c0,0,3.5,5,4.9,6.3c1.4,1.2,3.2,2.7,4.1,3c0.9,0.3,4.2,1.1,5,1.3c0.8,0.2,3,0.5,4.3,0.4
				c1.3-0.1,4-0.4,4.8-0.5c0.8-0.2,1.8-0.3,4.4-1.9c2.5-1.6,4.1-2.6,5.2-3.9c1.2-1.3,2-2.6,2.5-3.5c0.5-0.9,1.1-2.9,1.3-3
				c0.2-0.1,0.2-0.5,0.5-0.4c0.3,0.1,0.6,0.3,0.6,0c0-0.2,0.3-0.6,0.3-0.6s0.8-0.3,1-0.3c0.2,0,0.7-0.1,0.7-0.3
				c0-0.2,0.1-0.4,0.1-0.4s0.2-0.2,0.1-0.4c-0.1-0.2-0.1-0.3,0.1-0.3c0.2-0.1,0.5-0.1,0.5-0.1l0.4-0.2c0,0,0.3,0.1,0.6,0.2
				c0.3,0.1,1,0.4,1,0.4s0,0.8,0,1c0,0.3,0.1,0.5,0,0.8c-0.1,0.3-0.3,0.6-0.3,0.6s-0.3,1.6-0.4,1.8c-0.1,0.2-0.4,0.9-0.5,1.1
				c-0.1,0.2-0.3,1-0.3,1.2c0,0.2-0.4,1.3-0.5,1.5c-0.2,0.2-0.3,0.3-0.4,0.5c0,0.2,0,0.5,0,0.5s-0.3,0-0.4,0.1c0,0.2,0,0.2,0,0.4
				c0,0.1-0.4,1.1-0.6,1.4c-0.3,0.3-0.4,0.4-0.4,0.5c0,0.1-0.4,0.9-0.5,1c-0.1,0.1-0.5,0.5-0.5,0.5l-0.2,0.4l-0.7,0.3v0.2
				c0,0-0.9,1.1-1,1.2c-0.1,0-1.1,0.6-1.1,0.6s-0.2,0.1-0.2,0.3c-0.1,0.2-0.4,0.4-0.4,0.4l-1,0.7l-0.8,0.7l-0.9,0.6l-2,1.3
				c0,0-1.1,0.8-1.9,0.9c-0.8,0.1-1.5,0.3-1.7,0.3c-0.2,0.1-0.6,0.3-0.8,0.4c-0.2,0.1-0.3,0-0.8,0.2c-0.5,0.3-1,0.4-1.9,0.4
				c-0.9,0-1.2,0-1.4,0.1c-0.2,0.1-0.9,0.1-1.2,0.2c-0.3,0-0.8,0.1-1,0.1c-0.2,0-0.5,0-0.7,0c-0.2,0-0.6-0.1-0.9-0.1
				c-0.3,0-0.7,0.1-0.9,0.2c-0.1,0-0.7,0-0.7,0s-0.3-0.2-0.4-0.2c-0.2,0-0.7,0-0.9,0c-0.2,0-0.4-0.2-0.6-0.2c-0.2,0-0.5,0.1-0.6,0.1
				c-0.1,0-2-0.4-2.5-0.5c-0.5-0.2-2.9-1.1-3.4-1.3c-0.5-0.2-4.6-2.2-6.5-4c-1.8-1.8-5.2-5.5-5.7-6.5c-0.5-1-1.5-3.2-1.6-3.7
				c-0.1-0.5-0.5-2.7-0.4-3.5c0.1-0.8,0.1-1.7,0.1-1.9c0-0.2,0.2-0.5,0.2-0.5l0.2-0.2l0-0.3l0.4-0.2h0.4c0,0,0.3,0.3,0.5,0.4
				c0.1,0.1,0.5,0.3,0.9,0.4c0.4,0.1,1.5,0.4,1.8,0.6c0.3,0.2,1,0.6,1.1,0.8c0.1,0.2,1.1,1.1,1.1,1.3
				C93.3,110.5,93.6,110.9,93.8,111.1z"/>
			<path d="M166.2,88.5c-6.6-4.4-15.6-2.7-15.6-2.7c-0.8-2.6-6.1-9.5-6.1-9.5c1.8-9.4-1.4-19.9-1.4-19.9l-0.2-0.4
				c-0.3-2.4-2.1-7.3-2.1-7.3s-0.9,0.1-1.5,0.2c-0.6,0.1-2.3,1.2-3.2,1.8c-0.9,0.7-2.4,2.6-2.8,3.6c-0.4,1-1.6,3.2-1.6,3.2
				c-0.9-4.2-3.5-7.6-3.8-8c-0.3-0.4-1.4-1.7-1.8-2c-0.4-0.4-0.8,0.1-1.1,0.2c-0.3,0.2-0.7,0.1-0.9,0.1c-0.1-0.1-0.5,0.2-0.7,0.4
				c-0.2,0.2-0.4,0.4-0.6,0.5c-0.2,0.2-0.3,0.6-0.3,0.6c-1,0.2,0,2-0.4,1.9c-0.4-0.1-1.6,1.4-1.8,2.2c-0.3,0.8-0.9,5.9-0.9,5.9
				s-0.6-1.8-1.2-2.6c-0.6-0.8-2.4-4.5-3.2-5.6c-0.7-1.1-0.7-4.1-5.1-3.4c-4.4,0.7-3.9,9-3.9,9c-1-1.5-6.9-7.6-7.7-7.6
				c-0.7,0-4.3,2.4-4.6,3.3c-0.4,1,1,6.3,1,6.3l-7.1-5.2c0,0-3-3.1-5.5-0.8c-2.4,2.2-1,7.2-0.1,10.3c0.8,3.1,2.9,6.9,2.9,6.9
				l0.5,3.1l0.2,0.2c-1.9,1-8.5,8.7-8.5,8.7c-0.6-0.1-5.2-0.3-5.6-0.1c-0.4,0.1-3.2,0-3.2,0c-4.2,0.2-8.4,2.5-9.2,3
				c-0.8,0.5-3.5,3.2-3.8,3.7c-0.3,0.4-3.1,5.3-3.1,10.6c0,5.3,1.9,8.2,6.2,11.3c4.3,3.1,11.5,2.7,11.5,2.7
				c0.5,2.8,1.9,6.5,3.9,11.2c2,4.8,7.4,9.1,7.9,9.7c0.4,0.6,4.2,2.9,4.5,3.1c0.3,0.3,2.9,1.8,3.2,1.9c0.3,0.1,1.6,0.8,2.3,1.1
				c0.7,0.3,2.1,1,5.4,2.2c3.3,1.2,3.5,0.7,3.5,0.7c1.7,0.5,6.8,1.3,6.8,1.3c0.2,0.3-0.1,3.7-0.2,4.5c-0.1,0.8-0.1,3.8-0.2,4.7
				c-0.1,0.8,0.1,5.9,0,7.2c-0.1,1.3,0.1,4.5,0.1,5.1c0,0.6,0.1,2.1-0.1,2.8c-0.2,0.7,0.1,1.4,0.1,1.4c2.7,0.6,13.3-0.3,13.3-0.5
				c0-0.2,0-0.4,0-0.7c0-0.3,0.1-0.6,0-1c0-0.3-0.2-1.5-0.1-1.9c0.1-0.4,0.1-1,0.1-1.4c0-0.4-0.1-1.5-0.1-1.9c0-0.4,0.2-1.1,0.2-1.5
				c0-0.4,0-3,0-3.2c0-0.2,0.2-1.1,0.1-1.3c-0.1-0.2,0-0.7,0-0.7l0-1c-0.2-3.1,0.6-11.5,0.6-11.5s0.2,0,0.5,0c0.3,0,1.4-0.2,1.8-0.4
				c0.4-0.2,2.3-0.6,6.3-1.9c4-1.4,6.7-3.2,7.1-3.5c0.4-0.3,1.1-0.6,1.1-0.6c2.8-1.3,7.3-6.4,7.3-6.4c7-6.8,8.2-18.3,8.3-18.4
				c0.1-0.1,0.9,0.2,1.3,0.4c0.5,0.2,0.8,0.2,0.8,0.2l0.7,0.1l0,0.2c0,0,0.9,0.4,1.2,0.5c0.3,0.1,0.6,0.2,0.7,0.2
				c0.1,0,0.2-0.2,0.5-0.2c0.2,0.1,0.3,0.4,0.3,0.4s5.3-0.1,10.3-5.2C174.1,104,172.8,93,166.2,88.5z M69.4,108.1
				c0,0-0.3,0.2-1.1,0.1c-0.8-0.1-3.8-0.9-4.1-1c-0.3-0.1-2.5-0.8-3.3-2c-0.9-1.2-2.3-3.2-2-5.8c0.4-2.5,1.4-5,2.3-6
				c0.9-1,2.2-2.3,4.2-3.4c2-1,4-1.7,4.7-1.9c0.7-0.2,1.3-0.3,1.8-0.4c0.4-0.1,0.8-0.3,0.8-0.3s1.2-0.1,1.4,0
				C74,87.4,69.3,93.3,69.4,108.1z M134.6,69.8c0.1-0.3,0.4-4.3,0.6-5.6c0.3-1.3,0.7-2.7,0.7-2.7s0.3-1.1,0.6,0.2
				c0.4,1.3,0.7,5.4,0.3,9.6c0,0-0.8-0.1-1.1-0.3c-0.3-0.2-1.1-0.6-1.1-0.6S134.5,70.1,134.6,69.8z M124.5,61.1c0,0,1,1.5,1,1.9
				c0,0.4,0.6,1.9,0.6,2.5c0.1,0.6,0.3,2.9,0.3,2.9s-1.4,0.6-2.5-0.1C123.9,68.3,124.3,62.4,124.5,61.1z M113.8,67.4l-2.5-0.1
				c0,0-0.4-2.6-0.5-3.3c-0.1-0.7-0.2-4.1-0.2-4.1C112.1,61.4,113.8,67.4,113.8,67.4z M98.7,58.7c0,0,2.9,3.6,3.2,4
				c0.3,0.4,0.5,1.2,0.7,1.3c0.1,0.2,0.4,0.9,0.6,1c0.2,0.1,0.7,0.8,0.8,1.2c0.1,0.3,0.4,0.8,0.1,1c-0.3,0.2-0.4,0.1-0.9,0.1
				c-0.5,0-0.5-0.1-0.9,0.1c-0.3,0.2-0.5,0.2-0.7,0.2c-0.2,0-0.4-0.1-0.4-0.1s-0.3-1.4-1.1-4C99.2,60.8,98.5,58.9,98.7,58.7z
				 M93.1,69.2l-2.6,1.2c0,0-1.1-5-1.7-5.7C88.8,64.6,91.8,66.8,93.1,69.2z M141.1,120.3c-3.4,5.8-5.2,6.8-5.6,7.2
				c-0.4,0.4-1.1,1-1.1,1l-0.7,0.4c0,0-3.2,1.9-4.7,2.7c-1.6,0.8-4.3,2.7-9.5,3.5c-5.2,0.8-5.3,0.6-6.3,0.7c-1,0.2-6,0.4-10.6-0.8
				c-4.7-1.2-6.9-2.1-7.3-2.3c-0.4-0.2-5.9-3.8-6.6-4.4c-0.7-0.6-3.5-2.9-4.6-4.9c-1.1-2-2.9-5.2-4.1-11.3
				c-1.2-6.1-0.8-15.7,3.7-22.4c4.5-6.7,4.9-6.3,5.3-6.9c0.4-0.6,0.5-0.5,0.8-0.7c0.3-0.2,1-0.6,1.2-0.9c0.2-0.3,1.5-1.1,1.8-1.3
				c0.3-0.2,1.2-1,1.7-1.2c0.4-0.2,1.7-0.8,1.9-0.8c0.2,0,2-0.5,2.2-0.6c0.2-0.1,1-0.4,1-0.4s-2.5,1.8-3,2.3c-0.4,0.5-0.9,1-0.9,1
				s-0.1,0.4-0.1,0.5c0,0.1-0.1,0.6-0.1,0.6s-0.3-0.2-0.3,0.3c0,0.5,0.1,0.7,0.1,0.7s-0.7,0.5-0.4,0.7c0.3,0.3,0.6,0.3,0.9,0.5
				c0.3,0.1,0.6,0.4,0.9,0.7c0.3,0.3,1.4,1,2.4,0.8c1-0.2,2.2-0.6,3.9-2c1.6-1.4,2.2-1.6,2.6-1.7c0.4,0,0.7-0.1,0.9-0.4
				c0.2-0.3,4.5-2.3,5.8-2.6c1.3-0.4,9.7-3.9,20,1.2c0,0,4.1,2.1,6.9,6.3c0,0,2.9,3.3,5.1,13.4C143.8,99.1,144.5,114.4,141.1,120.3z
				 M154,109c1.7-7.6-0.8-16.9-0.8-16.9s3.3-0.3,7.3,1.6c4,1.9,3.9,6.1,3.9,6.1C164.8,106.8,154,109,154,109z"/>
		</g>
	</g>
	<g>
		<g>
			<g>
				<path class="st3" d="M28.2,211v-0.9c0.8-0.5,1.3-0.8,1.7-1c0.2-2,0.3-5.9,0.3-11.5c0-2.4,0-4.4-0.1-6.1
					c-0.1-1.6-0.1-2.6-0.2-2.8c-0.1-0.1-0.1-0.2-0.2-0.3c-0.2-0.1-1-0.2-2.5-0.4v-1.4c1.7,0.1,3.6,0.1,5.8,0.1l8.3-0.1
					c3,0,5.3,0.4,6.9,1.2c1.6,0.8,2.8,2,3.7,3.6c0.9,1.6,1.4,3.6,1.4,5.9c0,3-0.7,5.5-2.2,7.7c-1.4,2.2-3.2,3.7-5.2,4.6
					c-2,0.9-4.3,1.4-6.6,1.4l-6.4-0.1C31.8,210.9,30.3,211,28.2,211z M35.1,208.9c0.9,0.2,1.9,0.3,2.9,0.3c2.5,0,4.4-0.4,5.7-1.1
					c1.3-0.8,2.4-2,3.2-3.6c0.8-1.7,1.2-3.8,1.2-6.2c0-3.2-0.8-5.7-2.4-7.4c-1.4-1.5-3.7-2.2-7-2.2c-0.7,0-1.9,0.1-3.6,0.2
					l-0.1,10.8C34.9,204.1,35,207.2,35.1,208.9z"/>
				<path class="st3" d="M55.8,211v-1.4c1.3,0,2-0.1,2.2-0.2c0.2-0.1,0.3-0.4,0.4-1c0.1-0.7,0.1-2.3,0.1-4.9c0-1.1,0-2.1-0.1-3l0-2
					c0-0.7-0.1-1.1-0.2-1.3c-0.2-0.2-0.5-0.2-1.1-0.3l-1.3-0.1v-1.3c2.7-0.2,4.9-0.7,6.7-1.5l0.4,0.3c-0.2,2.2-0.2,5.4-0.2,9.7
					c0,2.5,0,3.9,0.1,4.4c0.1,0.4,0.2,0.6,0.3,0.7c0.1,0.1,0.9,0.2,2.2,0.3v1.4c-2,0-3.6-0.1-4.7-0.1C60,210.9,58.4,211,55.8,211z
					 M60.5,185.8c0.7,0,1.3,0.3,1.8,0.8c0.5,0.5,0.8,1.2,0.8,1.9c0,0.7-0.3,1.4-0.8,1.9c-0.5,0.5-1.1,0.8-1.8,0.8
					c-0.7,0-1.3-0.3-1.9-0.8c-0.5-0.5-0.7-1.2-0.7-1.9c0-0.7,0.2-1.4,0.7-1.9C59.1,186.1,59.8,185.8,60.5,185.8z"/>
				<path class="st3" d="M70.4,211.4l-0.8-0.3c0.2-2.8,0.3-6.7,0.3-11.7c0-2.2,0-4-0.1-5.2l-0.1-4.5c0-0.7-0.1-1.1-0.2-1.4
					c-0.1-0.2-0.2-0.3-0.4-0.3c-0.1,0-0.8-0.1-2-0.2v-1.3c0.6,0,1.6-0.1,2.9-0.4c1.3-0.3,2.3-0.5,3-0.8l0.7-0.3
					c0.2,0,0.3,0.1,0.3,0.4l0,1.8c0,0.6-0.1,3.9-0.1,9.8l2-1.8c0.7-0.5,1.2-0.9,1.7-1.1c0.5-0.2,1.1-0.3,1.8-0.3
					c1.9,0,3.4,0.6,4.5,1.8c1.1,1.3,1.7,2.9,1.7,4.9c0,1-0.1,2-0.5,3.1c-0.3,1-0.7,1.9-1.2,2.6c-0.5,0.7-1.1,1.2-1.8,1.7
					c-0.9,0.6-1.7,1.2-2.4,1.7c-0.8,0.6-1.4,1-1.9,1.2c-0.5,0.2-1.2,0.3-1.9,0.3c-0.8,0-1.5-0.1-2.1-0.3c-0.7-0.2-1.4-0.5-2.2-1.1
					C71.6,210.2,71.1,210.7,70.4,211.4z M74.1,199.1v8c0.4,0.6,0.9,1.1,1.5,1.4c0.6,0.3,1.2,0.5,2,0.5c1.2,0,2.1-0.5,2.9-1.5
					c0.7-1,1.1-2.5,1.1-4.5c0-1.9-0.4-3.3-1.1-4.3c-0.8-1-1.7-1.4-2.9-1.4c-0.6,0-1.2,0.2-1.8,0.5C75.1,198.1,74.5,198.5,74.1,199.1
					z"/>
				<path class="st3" d="M88.2,197v-1.3c1.8-0.2,3.4-0.5,5-1l1.7-0.6c0.2,0,0.3,0.1,0.3,0.4l0,1c-0.2,2.7-0.2,5.2-0.2,7.7
					c0,1.6,0.1,2.7,0.2,3.2c0.2,0.5,0.5,0.9,0.9,1.2c0.4,0.3,1,0.4,1.6,0.4c0.8,0,1.5-0.2,2.1-0.7c0.6-0.5,1-1,1.1-1.5
					c0.1-0.6,0.2-2.1,0.2-4.7c0-2.1,0-3.2-0.1-3.6c0-0.2-0.1-0.3-0.2-0.4c-0.2-0.1-0.9-0.2-2.3-0.2v-1.3c2.3-0.3,4-0.6,5-1l1.8-0.7
					c0.2,0,0.3,0.1,0.3,0.4l0,0.5c-0.2,2-0.3,5.7-0.3,11c0,1.6,0.1,2.6,0.1,3.1c0.1,0.2,0.2,0.3,0.3,0.4c0.2,0.1,0.8,0.2,2.1,0.3
					v1.4c-1.3,0-2.6-0.1-3.8-0.1c-1,0-2,0.1-2.9,0.1l-0.1-0.3c0-0.6,0.1-1.5,0.1-2.7c-1,0.9-2,1.8-3,2.9c-0.8,0.4-1.6,0.5-2.3,0.5
					c-1,0-1.9-0.2-2.7-0.7c-0.8-0.4-1.3-1-1.7-1.7c-0.4-0.7-0.6-1.7-0.6-2.9l0-1.9c0.1-1.2,0.1-2.1,0.1-2.8c0-2.1,0-3.3-0.1-3.7
					c-0.1-0.3-0.2-0.5-0.4-0.6C90.1,197.1,89.4,197,88.2,197z"/>
				<path class="st3" d="M109.1,220.2l-0.4-1.4l0.2-0.1c0.5,0,0.8,0.1,0.9,0.1c0.5,0,0.9-0.2,1.3-0.7c0.5-0.6,0.9-1.7,1-3.2
					c0.2-1.5,0.2-4.5,0.2-9c0-2.1,0-4.3-0.1-6.7c0-1-0.1-1.7-0.2-1.9c-0.1-0.1-0.2-0.2-0.3-0.3c-0.1,0-0.9-0.1-2.1-0.1v-1.3
					c2.2-0.2,4-0.6,5.3-1l1.6-0.5c0.2,0,0.2,0.1,0.2,0.2l0,0.4c-0.1,2.7-0.2,5.8-0.2,9.5c0,3.8,0,6-0.1,6.8
					c-0.1,1.9-0.5,3.6-1.1,4.9c-0.6,1.3-1.4,2.4-2.4,3.1c-1,0.7-2,1.1-3,1.1C109.9,220.3,109.5,220.3,109.1,220.2z M114.5,185.8
					c0.7,0,1.3,0.3,1.9,0.8c0.5,0.5,0.8,1.2,0.8,1.9c0,0.7-0.3,1.4-0.8,1.9c-0.5,0.5-1.1,0.8-1.9,0.8c-0.7,0-1.3-0.3-1.8-0.8
					c-0.5-0.5-0.8-1.2-0.8-1.9c0-0.7,0.2-1.4,0.8-1.9C113.2,186.1,113.8,185.8,114.5,185.8z"/>
				<path class="st3" d="M136.8,209.6v1.4l-1.3,0c-0.7-0.1-1.4-0.1-2.1-0.1c-1.1,0-2,0.1-3,0.1l-0.2-0.2l0.1-2.4l-3.5,2.7
					c-0.6,0.1-1.2,0.2-1.7,0.2c-1.2,0-2.1-0.4-2.8-1.1c-0.6-0.7-1-1.8-1-3.2c0-1.7,0.5-2.9,1.3-3.6c1.2-0.9,3.7-1.7,7.6-2.5
					c0-1.4-0.2-2.3-0.7-3c-0.6-0.9-1.6-1.3-2.8-1.3c-0.3,0-0.6,0-0.9,0.1c-0.3,0.1-0.6,0.2-0.9,0.3l-0.8,1.9l-1.2-0.3l0-0.8l0-0.8
					l0-0.7c1.7-1.1,2.9-1.8,3.7-2.1c0.6-0.2,1.3-0.3,2.3-0.3c1.3,0,2.4,0.2,3.2,0.6c0.8,0.4,1.4,1,1.8,1.7c0.4,0.7,0.6,1.7,0.6,3.1
					c0,0.6,0,1.6-0.1,3.1c0,1.5-0.1,2.7-0.1,3.6c0,1.5,0.1,2.4,0.1,2.6c0,0.2,0.1,0.3,0.3,0.5C135.2,209.4,135.8,209.5,136.8,209.6z
					 M130.4,202.5c-2,0.4-3.2,0.9-3.9,1.5c-0.6,0.5-0.9,1.2-0.9,2.1c0,0.7,0.2,1.3,0.6,1.7c0.4,0.4,0.9,0.6,1.4,0.6
					c0.9,0,1.8-0.5,2.7-1.5V202.5z"/>
				<path class="st3" d="M138.6,211v-1.4c1.2-0.1,1.9-0.2,2.1-0.3c0.2-0.1,0.2-0.4,0.3-0.9c0-1.2,0.1-3.2,0.1-6.2c0-1.5,0-2.7,0-3.8
					c0-0.7-0.1-1-0.1-1.1c-0.1-0.1-0.2-0.2-0.3-0.2c-0.1,0-0.8-0.1-2-0.1v-1.3c0.6,0,1.6-0.1,2.8-0.4c1.3-0.3,2.4-0.6,3.2-0.9
					l0.4-0.2c0.1,0,0.2,0.1,0.2,0.4l0,0.1c0,0.3,0,1.2,0,2.5l2.6-2.3c0.3-0.3,0.7-0.5,1-0.6c0.5-0.2,1.1-0.2,1.8-0.2
					c1.2,0,2.2,0.2,2.9,0.6c0.8,0.4,1.3,1,1.7,1.8c0.4,0.8,0.5,1.9,0.5,3.5c0,0.7,0,1.5-0.1,2.4c0,1.9-0.1,3.5-0.1,4.9
					c0,0.8,0.1,1.3,0.2,1.6c0.1,0.2,0.2,0.3,0.4,0.4c0.2,0.1,0.8,0.2,1.8,0.3v1.4l-2.1,0l-1.3-0.1l-3.5,0.1l-0.2-0.2
					c0.3-2.2,0.4-4.5,0.4-6.8c0-2.9-0.2-4.7-0.5-5.4c-0.5-0.9-1.3-1.3-2.5-1.3c-0.8,0-1.4,0.2-2,0.6c-0.6,0.4-0.9,0.8-1.1,1.3
					c-0.1,0.2-0.1,0.8-0.1,1.8c0,4.2,0,6.6,0.1,7.2c0,0.6,0.1,1,0.3,1.1c0.2,0.2,1,0.3,2.3,0.4v1.4c-2,0-3.6-0.1-5-0.1
					C142.2,210.9,140.8,211,138.6,211z"/>
				<path class="st3" d="M172.5,194.9v-3c0-1.9,0-2.9-0.1-3.2c0-0.2-0.2-0.4-0.3-0.5c-0.2-0.1-0.9-0.1-2.3-0.2v-1.3
					c2.7-0.3,4.9-0.9,6.7-1.7l0.4,0.4c-0.1,1.9-0.2,3.6-0.2,5.3l-0.1,13.6c0,2.3,0,3.7,0.1,4.2c0,0.3,0.2,0.5,0.3,0.6
					c0.2,0.1,0.9,0.2,2.1,0.3v1.4c-1.4,0-2.7-0.1-4-0.1c-0.9,0-1.8,0.1-2.6,0.1l-0.3-0.2c0.1-1.2,0.2-2.1,0.3-2.8
					c-0.8,0.6-2,1.6-3.6,3c-0.6,0.2-1.2,0.4-1.8,0.4c-1.9,0-3.4-0.7-4.6-2.1c-1.3-1.4-1.9-3.3-1.9-5.7c0-1.2,0.1-2.2,0.4-3.1
					c0.2-0.9,0.5-1.7,0.9-2.1c0.3-0.5,1-1.1,2.1-1.8c1.4-1,2.4-1.6,3.1-1.9c0.6-0.3,1.3-0.4,2.1-0.4c0.5,0,1.1,0.1,1.7,0.2
					C171.3,194.4,171.9,194.6,172.5,194.9z M172.5,198.6c-0.5-0.8-1.1-1.4-1.8-1.7c-0.7-0.4-1.4-0.6-2.2-0.6c-1.1,0-2,0.4-2.6,1.3
					c-0.6,0.8-0.9,2.3-0.9,4.3c0,2.1,0.4,3.6,1.1,4.6c0.8,1,1.7,1.5,2.9,1.5c0.8,0,1.5-0.2,2.2-0.7c0.7-0.5,1.1-0.9,1.2-1.3
					c0.1-0.4,0.2-1.9,0.2-4.5V198.6z"/>
				<path class="st3" d="M181.4,202.8c0-2.7,0.6-4.8,1.9-6.2c1.5-1.6,3.7-2.4,6.5-2.4c2.8,0,4.9,0.7,6.2,2c1.3,1.3,1.9,3.4,1.9,6.2
					c0,2.9-0.7,5.2-2.2,6.7c-1.5,1.6-3.6,2.4-6.2,2.4c-2.6,0-4.6-0.7-6-2.2C182.1,207.7,181.4,205.6,181.4,202.8z M186.1,201.6
					c0,3.1,0.4,5.3,1.1,6.6c0.6,1,1.5,1.5,2.7,1.5c1.1,0,1.9-0.4,2.4-1.3c0.6-0.8,0.9-2.4,0.9-4.6c0-3.1-0.3-5.3-1.1-6.5
					c-0.6-0.9-1.5-1.4-2.7-1.4c-1,0-1.9,0.4-2.5,1.3C186.3,198,186.1,199.5,186.1,201.6z"/>
			</g>
			<g>
				<path class="st3" d="M26.2,232.6v-1.3c1.8-0.2,3.4-0.5,5-1l1.6-0.6c0.2,0,0.3,0.1,0.3,0.4l0,1c-0.1,2.7-0.2,5.2-0.2,7.7
					c0,1.6,0.1,2.7,0.2,3.2c0.2,0.5,0.4,0.9,0.9,1.2c0.4,0.3,1,0.4,1.7,0.4c0.8,0,1.5-0.2,2.1-0.7c0.6-0.5,1-0.9,1.1-1.5
					c0.1-0.5,0.2-2.1,0.2-4.6c0-2,0-3.2-0.1-3.6c0-0.2-0.1-0.3-0.2-0.4c-0.2-0.1-0.9-0.2-2.3-0.2v-1.3c2.3-0.3,4-0.6,5-0.9l1.8-0.7
					c0.2,0,0.3,0.1,0.3,0.4l0,0.5c-0.2,2-0.3,5.7-0.3,11c0,1.6,0,2.7,0.1,3.1c0,0.2,0.1,0.3,0.3,0.4c0.2,0.1,0.9,0.2,2.1,0.3v1.4
					c-1.3-0.1-2.5-0.1-3.8-0.1c-1,0-2,0-2.8,0.1l-0.2-0.3c0-0.6,0.1-1.5,0.1-2.7c-1,0.9-2.1,1.8-3,2.9c-0.8,0.3-1.6,0.5-2.4,0.5
					c-1,0-1.9-0.2-2.7-0.6c-0.8-0.4-1.3-1-1.7-1.7c-0.4-0.7-0.6-1.7-0.6-2.9l0-1.9c0-1.2,0.1-2.1,0.1-2.8c0-2.1-0.1-3.3-0.1-3.7
					c-0.1-0.3-0.2-0.5-0.3-0.6C28.1,232.7,27.4,232.6,26.2,232.6z"/>
				<path class="st3" d="M47.2,246.6v-1.4c1.2-0.1,1.9-0.2,2.1-0.3c0.1-0.1,0.3-0.4,0.3-0.9c0.1-1.2,0.1-3.3,0.1-6.2
					c0-1.5,0-2.7-0.1-3.8c0-0.7-0.1-1-0.1-1.1c-0.1-0.1-0.1-0.2-0.3-0.2c-0.1,0-0.8-0.1-2-0.1v-1.3c0.6,0,1.6-0.1,2.8-0.4
					c1.3-0.3,2.4-0.6,3.2-0.9l0.5-0.2c0.1,0,0.2,0.1,0.2,0.4l0,0.2c0,0.3,0,1.2,0,2.5l2.6-2.3c0.3-0.3,0.6-0.5,1-0.6
					c0.5-0.2,1.1-0.2,1.8-0.2c1.2,0,2.2,0.2,2.9,0.6c0.8,0.4,1.3,1,1.7,1.8c0.3,0.7,0.5,1.9,0.5,3.5c0,0.7,0,1.5-0.1,2.4
					c-0.1,1.9-0.1,3.5-0.1,4.9c0,0.8,0,1.3,0.2,1.6c0.1,0.2,0.2,0.3,0.4,0.4c0.2,0,0.8,0.1,1.8,0.2v1.4l-2.1-0.1l-1.3,0l-3.5,0.1
					l-0.2-0.2c0.3-2.2,0.5-4.5,0.5-6.8c0-3-0.2-4.8-0.5-5.4c-0.4-0.9-1.3-1.3-2.5-1.3c-0.8,0-1.4,0.2-2,0.6
					c-0.5,0.4-0.9,0.8-1.1,1.3c-0.1,0.2-0.1,0.8-0.1,1.8c0,4.2,0,6.6,0,7.2c0,0.6,0.1,1,0.3,1.1c0.2,0.2,1,0.3,2.3,0.4v1.4
					c-1.9-0.1-3.6-0.1-5-0.1C50.8,246.5,49.3,246.5,47.2,246.6z"/>
				<path class="st3" d="M73.5,246.6v-1.4l1-0.1c0.8-0.1,1.3-0.2,1.5-0.4c0.2-0.3,0.3-1.1,0.3-2.5c0.1-2.8,0.1-6,0.1-9.3
					c0-1.8,0-3.8,0-6c0-1.3-0.1-2.2-0.2-2.5c-0.1-0.1-0.2-0.3-0.4-0.4c-0.2-0.1-1-0.2-2.4-0.3v-1.4c1.4,0,2.7,0,4,0c1.5,0,3,0,4.3,0
					c0.6,1.5,1.2,2.9,1.9,4.4c0.4,1,2.5,5.4,6.1,13.1c3.8-7.9,6.5-13.7,8-17.5c1.3,0,2.6,0.1,3.8,0.1c1.4,0,2.8,0,4.1-0.1v1.4
					c-1.5,0.1-2.3,0.2-2.5,0.4c-0.2,0.2-0.3,0.7-0.4,1.6c-0.1,1.5-0.1,4.2-0.1,8.3c0,2,0,4.2,0,6.5c0,2.3,0.1,3.6,0.2,3.9
					c0.1,0.2,0.2,0.3,0.3,0.4c0.1,0.1,0.9,0.2,2.4,0.3v1.4c-1.8-0.1-3.5-0.1-4.9-0.1c-1.4,0-3.4,0-5.8,0.1v-1.4l1,0
					c0.8,0,1.2-0.1,1.4-0.3c0.2-0.2,0.3-0.7,0.4-1.5c0.1-0.8,0.1-2.8,0.1-5.8V227c-1.7,3.6-3.9,8.3-6.6,14.1c-1.1,2.4-2,4.3-2.6,5.9
					h-1.1c-0.8-2-2-4.5-3.4-7.6L78.5,227v2.4c0,6.5,0,11,0.1,13.5c0,1,0.2,1.6,0.4,1.9c0.2,0.2,1.1,0.4,2.5,0.5v1.4
					c-1.1-0.1-2.3-0.1-3.4-0.1C76.3,246.5,74.8,246.5,73.5,246.6z"/>
				<path class="st3" d="M123.1,245.2v1.4l-1.3-0.1c-0.7,0-1.4,0-2,0c-1,0-2.1,0-3,0.1l-0.2-0.2l0.1-2.4l-3.5,2.7
					c-0.6,0.2-1.2,0.2-1.6,0.2c-1.2,0-2.1-0.4-2.8-1.1c-0.6-0.7-1-1.8-1-3.2c0-1.7,0.4-3,1.3-3.7c1.1-0.9,3.7-1.8,7.6-2.5
					c0-1.4-0.2-2.4-0.7-3c-0.6-0.8-1.6-1.3-2.8-1.3c-0.3,0-0.6,0-0.9,0.1c-0.3,0.1-0.6,0.2-1,0.3l-0.8,1.9l-1.2-0.3l0-0.8l0-0.8
					l0-0.7c1.7-1.1,3-1.8,3.7-2.1c0.6-0.2,1.3-0.3,2.3-0.3c1.3,0,2.4,0.2,3.2,0.6c0.8,0.4,1.4,1,1.8,1.7c0.4,0.7,0.6,1.7,0.6,3.1
					c0,0.6,0,1.6-0.1,3c0,1.5-0.1,2.7-0.1,3.6c0,1.5,0,2.3,0.1,2.7c0,0.2,0.2,0.3,0.3,0.4C121.5,245,122.1,245.1,123.1,245.2z
					 M116.7,238.1c-2,0.4-3.3,0.9-3.9,1.4c-0.6,0.5-0.9,1.2-0.9,2.1c0,0.7,0.2,1.3,0.6,1.7c0.4,0.4,0.9,0.6,1.4,0.6
					c0.9,0,1.8-0.5,2.7-1.5V238.1z"/>
				<path class="st3" d="M124.6,246.6v-1.4c1.2-0.1,1.9-0.2,2-0.3c0.2-0.1,0.3-0.4,0.3-0.9c0.1-1.2,0.1-3.3,0.1-6.2
					c0-1.5,0-2.7,0-3.8c0-0.7-0.1-1-0.1-1.1c-0.1-0.1-0.1-0.2-0.3-0.2c-0.1,0-0.8-0.1-2-0.1v-1.3c0.6,0,1.5-0.1,2.8-0.4
					c1.3-0.3,2.4-0.6,3.2-0.9l0.5-0.2c0.2,0,0.2,0.1,0.2,0.4v0.2c0,0.3,0,1.2,0,2.5l2.6-2.3c0.3-0.3,0.6-0.5,1-0.6
					c0.5-0.2,1.1-0.2,1.8-0.2c1.2,0,2.2,0.2,2.9,0.6c0.8,0.4,1.3,1,1.7,1.8c0.3,0.7,0.5,1.9,0.5,3.5c0,0.7,0,1.5-0.1,2.4
					c-0.1,1.9-0.1,3.5-0.1,4.9c0,0.8,0.1,1.3,0.2,1.6c0.1,0.2,0.2,0.3,0.4,0.4c0.2,0,0.8,0.1,1.8,0.2v1.4l-2.1-0.1l-1.3,0l-3.5,0.1
					l-0.2-0.2c0.3-2.2,0.4-4.5,0.4-6.8c0-3-0.2-4.8-0.5-5.4c-0.4-0.9-1.3-1.3-2.4-1.3c-0.8,0-1.4,0.2-2,0.6
					c-0.6,0.4-0.9,0.8-1.1,1.3c-0.1,0.2-0.1,0.8-0.1,1.8c0,4.2,0,6.6,0,7.2c0,0.6,0.1,1,0.3,1.1c0.2,0.2,1,0.3,2.3,0.4v1.4
					c-2-0.1-3.6-0.1-5-0.1C128.2,246.5,126.7,246.5,124.6,246.6z M129,227.4h-1.2c0.7-2.7,2.1-4.1,4-4.1c0.4,0,0.9,0.1,1.4,0.2
					c0.5,0.1,1.3,0.4,2.4,0.8c0.9,0.4,1.5,0.5,1.9,0.5c0.5,0,0.9-0.1,1.1-0.3c0.3-0.2,0.6-0.7,0.9-1.4h1.1c-0.7,2.7-2,4.1-3.9,4.1
					c-0.8,0-1.8-0.3-3.1-0.8c-1.1-0.5-1.9-0.7-2.5-0.7c-0.5,0-0.9,0.1-1.3,0.4C129.5,226.3,129.2,226.7,129,227.4z"/>
				<path class="st3" d="M160.9,245.2v1.4l-1.3-0.1c-0.7,0-1.4,0-2,0c-1.1,0-2.1,0-3,0.1l-0.2-0.2l0.1-2.4l-3.5,2.7
					c-0.6,0.2-1.2,0.2-1.7,0.2c-1.2,0-2.1-0.4-2.8-1.1c-0.6-0.7-1-1.8-1-3.2c0-1.7,0.4-3,1.3-3.7c1.2-0.9,3.7-1.8,7.6-2.5
					c0-1.4-0.2-2.4-0.7-3c-0.6-0.8-1.5-1.3-2.8-1.3c-0.3,0-0.6,0-0.9,0.1c-0.3,0.1-0.6,0.2-1,0.3l-0.8,1.9l-1.2-0.3l0-0.8l0-0.8
					l0-0.7c1.7-1.1,3-1.8,3.7-2.1c0.5-0.2,1.3-0.3,2.3-0.3c1.3,0,2.4,0.2,3.2,0.6c0.8,0.4,1.4,1,1.8,1.7c0.4,0.7,0.6,1.7,0.6,3.1
					c0,0.6,0,1.6-0.1,3c0,1.5-0.1,2.7-0.1,3.6c0,1.5,0,2.3,0.1,2.7c0,0.2,0.1,0.3,0.3,0.4C159.3,245,159.9,245.1,160.9,245.2z
					 M154.6,238.1c-2,0.4-3.2,0.9-3.8,1.4c-0.6,0.5-0.9,1.2-0.9,2.1c0,0.7,0.2,1.3,0.6,1.7c0.4,0.4,0.9,0.6,1.5,0.6
					c0.9,0,1.8-0.5,2.7-1.5V238.1z"/>
				<path class="st3" d="M162.4,246.6v-1.4c1.2-0.1,1.9-0.2,2.1-0.3c0.2-0.1,0.2-0.4,0.3-0.9c0.1-1.2,0.1-3.3,0.1-6.2
					c0-1.5,0-2.7,0-3.8c0-0.7-0.1-1-0.1-1.1c-0.1-0.1-0.2-0.2-0.3-0.2c-0.1,0-0.8-0.1-2-0.1v-1.3c0.6,0,1.6-0.1,2.8-0.4
					c1.3-0.3,2.4-0.6,3.2-0.9l0.4-0.2c0.2,0,0.2,0.1,0.2,0.4l0,0.2c0,0.3,0,1.2,0,2.5l2.6-2.3c0.3-0.3,0.7-0.5,1-0.6
					c0.5-0.2,1.1-0.2,1.8-0.2c1.2,0,2.2,0.2,2.9,0.6c0.8,0.4,1.3,1,1.7,1.8c0.4,0.7,0.5,1.9,0.5,3.5c0,0.7,0,1.5,0,2.4
					c-0.1,1.9-0.1,3.5-0.1,4.9c0,0.8,0.1,1.3,0.2,1.6c0.1,0.2,0.2,0.3,0.4,0.4c0.2,0,0.8,0.1,1.8,0.2v1.4l-2.1-0.1l-1.3,0l-3.4,0.1
					l-0.2-0.2c0.3-2.2,0.4-4.5,0.4-6.8c0-3-0.2-4.8-0.5-5.4c-0.4-0.9-1.3-1.3-2.4-1.3c-0.8,0-1.4,0.2-2,0.6
					c-0.6,0.4-0.9,0.8-1.1,1.3c-0.1,0.2-0.1,0.8-0.1,1.8c0,4.2,0,6.6,0.1,7.2c0,0.6,0.1,1,0.3,1.1c0.2,0.2,1,0.3,2.3,0.4v1.4
					c-2-0.1-3.6-0.1-5-0.1C166,246.5,164.6,246.5,162.4,246.6z"/>
				<path class="st3" d="M198.8,245.2v1.4l-1.3-0.1c-0.7,0-1.4,0-2.1,0c-1.1,0-2.1,0-3,0.1l-0.2-0.2l0.1-2.4l-3.5,2.7
					c-0.6,0.2-1.2,0.2-1.6,0.2c-1.2,0-2.1-0.4-2.8-1.1c-0.6-0.7-1-1.8-1-3.2c0-1.7,0.4-3,1.3-3.7c1.1-0.9,3.7-1.8,7.6-2.5
					c0-1.4-0.3-2.4-0.7-3c-0.6-0.8-1.6-1.3-2.8-1.3c-0.3,0-0.6,0-0.9,0.1c-0.3,0.1-0.6,0.2-1,0.3l-0.8,1.9l-1.2-0.3l0-0.8v-0.8
					l0-0.7c1.7-1.1,2.9-1.8,3.7-2.1c0.5-0.2,1.3-0.3,2.3-0.3c1.3,0,2.4,0.2,3.2,0.6c0.8,0.4,1.4,1,1.8,1.7c0.4,0.7,0.6,1.7,0.6,3.1
					c0,0.6,0,1.6-0.1,3c0,1.5-0.1,2.7-0.1,3.6c0,1.5,0,2.3,0.1,2.7c0,0.2,0.2,0.3,0.3,0.4C197.2,245,197.8,245.1,198.8,245.2z
					 M192.4,238.1c-2,0.4-3.3,0.9-3.9,1.4c-0.6,0.5-0.9,1.2-0.9,2.1c0,0.7,0.2,1.3,0.6,1.7c0.4,0.4,0.9,0.6,1.4,0.6
					c0.9,0,1.8-0.5,2.7-1.5V238.1z"/>
			</g>
			<g>
				<path class="st4" d="M26.7,275.9v-0.5c0.5,0,0.8,0,0.9-0.1c0,0,0.1-0.2,0.1-0.4c0.1-0.8,0.1-1.7,0.1-2.7c0-0.8,0-1.6,0-2.4
					c0-0.8-0.1-1.3-0.1-1.5c0-0.1-0.1-0.1-0.1-0.1c-0.1-0.1-0.3-0.1-0.8-0.1v-0.5c0.7,0,1.2,0,1.7,0c0.7,0,1.5,0,2.2,0
					c0.5,0,0.9,0,1.3,0c0.3,0,0.5,0,0.7,0l0,0.1c-0.1,0.5-0.1,1.1-0.1,1.8H32l0-0.6c0-0.2,0-0.3-0.1-0.4c0,0-0.2-0.1-0.4-0.1
					c-0.2,0-0.6-0.1-1-0.1c-0.3,0-0.7,0-1,0c0,0.7-0.1,1.1-0.1,1.4l0,1.3l0,0.3c0.2,0,0.5,0,0.8,0c0.6,0,0.9,0,1.1,0
					c0.1,0,0.1,0,0.1-0.1c0-0.1,0.1-0.3,0.1-0.7H32c0,0.3,0,0.7,0,1c0,0.3,0,0.8,0,1.5h-0.5c0-0.5-0.1-0.8-0.1-0.9
					c0-0.1-0.1-0.1-0.2-0.1c-0.2,0-0.5-0.1-1.1-0.1l-0.8,0l0,2.3c0,0.6,0.1,0.9,0.1,1c0,0,0.1,0.1,0.1,0.1c0.1,0.1,0.4,0.1,1,0.1
					v0.5c-0.6,0-1.2,0-1.7,0C28.3,275.8,27.6,275.8,26.7,275.9z"/>
				<path class="st4" d="M45,268v-0.5c0.8,0,1.5,0,2,0c0.4,0,0.9,0,1.6,0v0.5c-0.4,0-0.6,0-0.7,0.1c0,0-0.1,0.1-0.1,0.1
					c-0.1,0-0.1,0.2-0.1,0.3c0,0.2-0.1,0.9-0.1,1.9c0,0.7,0,1.5,0,2.2c0,0.6,0.1,1.1,0.2,1.4c0.1,0.3,0.3,0.5,0.6,0.7
					c0.4,0.2,0.8,0.3,1.2,0.3c0.6,0,1.1-0.1,1.4-0.3c0.3-0.2,0.5-0.5,0.6-0.9c0.1-0.4,0.2-1.2,0.2-2.4v-2.2c0-0.5,0-0.8-0.1-0.9
					c0,0-0.1-0.1-0.1-0.1c-0.1,0-0.4-0.1-0.8-0.1v-0.5c0.5,0,0.9,0,1.4,0c0.4,0,0.8,0,1.3,0v0.5c-0.4,0-0.6,0-0.7,0.1
					c-0.1,0.1-0.1,0.3-0.2,0.7c0,0.9-0.1,1.9-0.1,3c0,0.7,0,1.2,0,1.4c0,0.6-0.2,1-0.4,1.4c-0.2,0.4-0.6,0.7-1.1,1
					c-0.5,0.3-1.1,0.4-1.8,0.4c-0.8,0-1.4-0.1-1.9-0.4c-0.5-0.2-0.9-0.5-1.1-0.9c-0.2-0.4-0.3-0.9-0.3-1.6l0-2.7c0-0.2,0-0.8,0-1.6
					c0-0.3,0-0.5-0.1-0.6c0,0-0.1-0.1-0.1-0.1C45.7,268.1,45.5,268.1,45,268z"/>
				<path class="st4" d="M66.2,275.9v-0.5c0.5,0,0.7,0,0.8-0.1c0,0,0.1-0.1,0.1-0.2c0-0.1,0.1-0.4,0.1-1c0-0.9,0-1.6,0-2.1l0-2.5
					c0-0.7,0-1-0.1-1.1c0-0.1-0.1-0.1-0.1-0.2c-0.1,0-0.4-0.1-0.9-0.1v-0.5c0.6,0,1,0,1.3,0c0.3,0,0.7,0,1.1,0
					c0.9,1.2,1.9,2.4,3,3.8c0.7,0.9,1.4,1.7,1.9,2.3v-2.4c0-0.9,0-1.7,0-2.3c0-0.4,0-0.6-0.1-0.7c0-0.1,0-0.1-0.1-0.1
					c-0.1,0-0.4-0.1-0.8-0.1v-0.5c0.4,0,0.8,0,1.2,0c0.6,0,1.1,0,1.5,0v0.5c-0.4,0-0.7,0-0.8,0.1c-0.1,0-0.1,0.1-0.1,0.1
					c0,0-0.1,0.1-0.1,0.1c0,0.1,0,0.4,0,1l0,2.3l0,2.4c0,0.7,0,1.3,0,1.9l-0.1,0.1c-0.5-0.1-0.8-0.2-1-0.2c-1-1.1-2.2-2.5-3.6-4.2
					c-0.7-0.9-1.3-1.6-1.7-2.2v2.3c0,0.6,0,1.4,0,2.3c0,0.6,0,1,0.1,1.1c0,0,0.1,0.1,0.1,0.1c0.1,0,0.3,0.1,0.8,0.1v0.5
					c-0.6,0-1.1,0-1.3,0C67.4,275.8,66.9,275.8,66.2,275.9z"/>
				<path class="st4" d="M88.3,275.9v-0.3c0.3-0.1,0.5-0.3,0.6-0.4c0-0.7,0.1-2,0.1-3.9c0-0.8,0-1.5,0-2c0-0.5,0-0.9-0.1-1
					c0,0,0-0.1-0.1-0.1c0,0-0.3-0.1-0.8-0.1v-0.5c0.6,0,1.2,0,2,0l2.8,0c1,0,1.8,0.1,2.3,0.4c0.5,0.3,1,0.7,1.3,1.2
					c0.3,0.5,0.5,1.2,0.5,2c0,1-0.2,1.9-0.7,2.6c-0.5,0.7-1.1,1.3-1.8,1.6c-0.7,0.3-1.5,0.5-2.3,0.5l-2.2,0
					C89.5,275.8,89,275.8,88.3,275.9z M90.6,275.1c0.3,0.1,0.6,0.1,1,0.1c0.9,0,1.5-0.1,2-0.4c0.4-0.2,0.8-0.7,1.1-1.2
					c0.3-0.6,0.4-1.3,0.4-2.1c0-1.1-0.3-1.9-0.8-2.5c-0.5-0.5-1.3-0.8-2.4-0.8c-0.2,0-0.6,0-1.2,0.1l-0.1,3.7
					C90.6,273.5,90.6,274.6,90.6,275.1z"/>
				<path class="st4" d="M109.6,275.3c0.4,0,0.6-0.1,0.7-0.1c0,0,0.1-0.2,0.3-0.4c0.2-0.5,0.5-1.2,0.9-2.1l2-5.1h0.9l2.6,6.4
					c0.3,0.8,0.6,1.3,0.6,1.3c0.1,0.1,0.3,0.1,0.7,0.2v0.5c-0.6,0-1.2,0-1.8,0c-0.7,0-1.3,0-1.9,0v-0.5c0.5,0,0.7-0.1,0.8-0.1
					c0.1,0,0.1-0.1,0.1-0.2c0-0.1-0.1-0.3-0.3-0.7l-0.4-1c-0.5,0-1,0-1.6,0c-0.5,0-1,0-1.4,0l-0.3,0.7c-0.1,0.2-0.1,0.5-0.3,0.8
					c0,0.1,0,0.2,0,0.2c0,0.1,0,0.2,0.1,0.2c0.1,0,0.3,0.1,0.8,0.1v0.5c-0.4,0-0.8,0-1.4,0c-0.5,0-1,0-1.3,0V275.3z M113.3,269.6
					l-1.2,3c0.3,0,0.7,0,1.1,0c0.5,0,0.9,0,1.3,0L113.3,269.6z"/>
				<path class="st4" d="M138.2,274.6l0.1,0.1c-0.1,0.2-0.2,0.4-0.3,0.6c-0.4,0.2-0.9,0.4-1.3,0.5c-0.4,0.1-0.9,0.2-1.4,0.2
					c-1,0-1.9-0.2-2.5-0.5c-0.7-0.4-1.2-0.9-1.6-1.5c-0.4-0.7-0.6-1.4-0.6-2.3c0-1.2,0.4-2.2,1.3-3c0.8-0.8,2-1.2,3.5-1.2
					c0.5,0,1,0,1.5,0.1c0.5,0.1,1,0.2,1.4,0.4l0,0.1c-0.1,0.2-0.1,0.4-0.2,0.6c-0.1,0.3-0.1,0.8-0.1,1.3h-0.5c0-0.6-0.1-1-0.1-1.1
					c0,0-0.1-0.2-0.3-0.3c-0.2-0.1-0.4-0.2-0.8-0.3c-0.3-0.1-0.7-0.1-1-0.1c-0.9,0-1.6,0.3-2.2,0.9c-0.5,0.6-0.8,1.4-0.8,2.4
					c0,1.1,0.3,2.1,1,2.7c0.6,0.6,1.4,1,2.5,1c0.4,0,0.8-0.1,1.1-0.1C137.4,274.9,137.8,274.8,138.2,274.6z"/>
				<path class="st4" d="M151.1,275.9v-0.5c0.5,0,0.8-0.1,0.9-0.1c0.1,0,0.1-0.2,0.1-0.4c0-0.5,0-1.5,0-2.9c0-0.6,0-1.3,0-2.4
					c0-0.7,0-1.1-0.1-1.2c0-0.1-0.1-0.1-0.1-0.2c-0.1,0-0.4-0.1-0.9-0.1v-0.5c0.8,0,1.4,0,1.8,0c0.7,0,1.4,0,1.9,0v0.5
					c-0.5,0-0.8,0.1-0.9,0.1c-0.1,0.1-0.1,0.2-0.1,0.4c0,0.4,0,1.2,0,2.3c0,1.5,0,2.6,0,3.2c0,0.6,0.1,1,0.1,1.1
					c0,0.1,0.1,0.1,0.1,0.1c0.1,0,0.3,0.1,0.8,0.1v0.5l-0.7,0c-0.4,0-0.8,0-1.1,0L151.1,275.9z"/>
				<path class="st4" d="M172,276c-1.4,0-2.5-0.4-3.2-1.1c-0.7-0.8-1.1-1.8-1.1-3.1c0-0.9,0.2-1.7,0.6-2.3c0.4-0.6,0.9-1.1,1.5-1.5
					c0.6-0.3,1.5-0.5,2.5-0.5c1,0,1.8,0.1,2.4,0.5c0.6,0.3,1.1,0.8,1.4,1.4c0.3,0.6,0.5,1.3,0.5,2.2c0,0.9-0.2,1.7-0.6,2.4
					c-0.4,0.7-0.9,1.2-1.5,1.6C173.7,275.8,173,276,172,276z M172.2,275.3c0.8,0,1.4-0.3,1.8-0.9c0.5-0.6,0.7-1.5,0.7-2.7
					c0-1.2-0.3-2.2-0.8-2.9c-0.4-0.5-1.1-0.8-1.9-0.8c-0.8,0-1.5,0.3-1.9,0.8c-0.5,0.6-0.7,1.4-0.7,2.6c0,0.8,0.1,1.6,0.3,2.1
					c0.3,0.6,0.6,1,1,1.3C171.1,275.2,171.6,275.3,172.2,275.3z M171.2,267h-0.6l1.3-1.3c0.3-0.3,0.5-0.5,0.6-0.6
					c0.1-0.1,0.2-0.1,0.3-0.1c0.2,0,0.3,0,0.3,0.1c0.1,0.1,0.1,0.2,0.1,0.3c0,0.1,0,0.2-0.1,0.3c-0.1,0.1-0.3,0.2-0.7,0.5L171.2,267
					z"/>
				<path class="st4" d="M189.3,275.9v-0.5c0.5,0,0.7,0,0.8-0.1c0,0,0.1-0.1,0.1-0.2c0-0.1,0.1-0.4,0.1-1c0-0.9,0-1.6,0-2.1v-2.5
					c0-0.7,0-1-0.1-1.1c0-0.1,0-0.1-0.1-0.2c-0.1,0-0.4-0.1-0.9-0.1v-0.5c0.6,0,1,0,1.3,0c0.3,0,0.7,0,1.1,0c0.9,1.2,1.9,2.4,3,3.8
					c0.7,0.9,1.4,1.7,1.9,2.3v-2.4c0-0.9,0-1.7,0-2.3c0-0.4,0-0.6-0.1-0.7c0-0.1-0.1-0.1-0.1-0.1c-0.1,0-0.3-0.1-0.8-0.1v-0.5
					c0.4,0,0.8,0,1.3,0c0.5,0,1.1,0,1.5,0v0.5c-0.4,0-0.7,0-0.8,0.1c0,0-0.1,0.1-0.1,0.1c0,0-0.1,0.1-0.1,0.1c0,0.1,0,0.4,0,1l0,2.3
					l0,2.4c0,0.7,0,1.3,0,1.9l-0.1,0.1c-0.4-0.1-0.8-0.2-1-0.2c-1-1.1-2.2-2.5-3.6-4.2c-0.7-0.9-1.3-1.6-1.7-2.2v2.3
					c0,0.6,0,1.4,0,2.3c0,0.6,0,1,0.1,1.1c0,0,0,0.1,0.1,0.1c0.1,0,0.4,0.1,0.8,0.1v0.5c-0.6,0-1.1,0-1.3,0
					C190.5,275.8,190,275.8,189.3,275.9z"/>
			</g>
			<rect x="27.1" y="256.7" class="st3" width="170.8" height="2.1"/>
		</g>
	</g>
</g>
</svg>
