<?xml version="1.0" encoding="utf-8"?>
<!-- Generator: Adobe Illustrator 25.0.0, SVG Export Plug-In . SVG Version: 6.00 Build 0)  -->
<svg version="1.1" id="Layer_1" xmlns="http://www.w3.org/2000/svg" xmlns:xlink="http://www.w3.org/1999/xlink" x="0px" y="0px"
	 viewBox="0 0 544.75 94.55" style="enable-background:new 0 0 544.75 94.55;" xml:space="preserve">
<style type="text/css">
	.st0{fill:#FFFFFF;}
</style>
<g>
	<g>
		<path d="M273.75,60.3c-0.46,0.71,2.19,1.19,2.15,1.85c-0.11-1.46,4.15-0.21,6.43-0.34l0.91-1.1c-2.22-0.86-7.82-0.63-12.56-0.84
			L273.75,60.3z"/>
		<polygon points="285.71,60.73 290.33,59.81 282.44,60.17 		"/>
		<path d="M301.21,60.89c-4.16,0.16-7.22-0.24-10.71-0.62c1.01,0.36,1.42,0.31,2.85,0.62c-2.48-0.01-5.82,0.42-8.72,0.46
			c1.28,0.9,2.94,0.46,4.82,0.63c-0.52-0.17-0.72-0.4,0.14-0.61c2.83,0.95,4.57-0.26,7.2,0.55l-2.51,0.32
			c0.34,0.94,5.23-0.83,5.1,0.83C302.78,62.02,296.81,61.58,301.21,60.89z"/>
		<path d="M289.45,61.98c0.37,0.12,0.89,0.21,1.32,0.22C290.32,62.08,289.88,62.02,289.45,61.98z"/>
		<path d="M303.86,61.4c-0.25,0.14-0.29,0.26-0.22,0.36C303.85,61.61,303.99,61.49,303.86,61.4z"/>
		<path d="M310.86,61.87c-2.82-0.97-3.32,0.07-4.6,0.55c-0.63-0.18-2.36-0.32-2.62-0.66c-0.42,0.29-1.12,0.67-0.31,1.01
			C306.01,62.94,310.14,63.1,310.86,61.87z"/>
		<path d="M314.4,61.61c-0.22,0.19-1.17,1.61-3.85,1.44c1.39,0.65,1.87-0.06,3.28,0.26l1.96-1.05l-1.26,0.15L314.4,61.61z"/>
		<path d="M319.49,57.9c-1.47,0.01-3.26-0.03-4.78-0.01C316.4,58.41,317.47,58.14,319.49,57.9z"/>
		<path d="M311.81,58c0,0-2.74,0.49-4.67,1.21c2.93-0.67,8.12,0.62,7.39-1.31c-1.4,0.02-2.54,0.09-2.95,0.29L311.81,58z"/>
		<path d="M314.53,57.9c0.06,0,0.11,0,0.17,0c-0.06-0.02-0.12-0.03-0.18-0.05C314.53,57.86,314.52,57.88,314.53,57.9z"/>
		<polygon points="319.02,63.18 322.11,63.3 318.02,62.81 		"/>
		<path d="M318.56,58.99c0.84-0.1-4.55-0.11-4.8,0.41c0.81,0.23,3.16-0.54,3.49,0.4C320.54,60.06,315.46,58.87,318.56,58.99z"/>
		<path d="M328.08,63.73c1.28-0.48,3.44,0.73,5.12,0.55l0.67-0.57C330.27,64.59,329.68,62.07,328.08,63.73z"/>
		<path d="M342.41,63.27c-0.45,0.37-1.48,0.32-1.32,0.8c-1.22-0.19-0.96-0.71-1.78-0.95c-2.12,0.56-5.38-0.06-7.08,0.45
			c0.83-0.09,1.03,0.05,1.64,0.14c3.25,0.62,7.67-0.03,10.02,1.34C343.35,64.3,345.28,63.6,342.41,63.27z"/>
		<path d="M329.64,60.28c-0.01-0.01-0.01-0.02-0.02-0.03c-0.71-0.05-1.35-0.12-2.01-0.19C327.93,60.22,328.48,60.32,329.64,60.28z"
			/>
		<path d="M327.61,60.07c-0.72-0.34-0.33-0.96-3.04-0.98l-1.12,0.95C325.3,59.89,326.5,59.96,327.61,60.07z"/>
		<path d="M332.02,58.46c0.04-0.08,0.07-0.16,0.09-0.26C331.81,58.29,331.83,58.37,332.02,58.46z"/>
		<path d="M332.96,60.23l-2.88-0.33c0.91-0.77,3.52,0.1,4-0.61c-0.12-0.34-1.6-0.6-2.07-0.83c-0.65,1.37-3.73-0.16-2.4,1.79
			C330.52,60.32,331.55,60.34,332.96,60.23z"/>
		<path d="M372.98,65.23c2.43-0.63-2.3-0.55-2.53-1.03c0.74-1.43,2.32,0.89,3.48-0.26c0.35-1.04-5.02-1.39-7.12-2.14
			c-1.85,0.07-1.83,0.4-2.41,0.98c-0.45-0.61-2.32-0.86-2.77-1.47c-3.87,0.68-5.85-0.97-9.66-0.23c-0.17-0.12-0.22-0.21-0.2-0.27
			l-0.28-0.01l0.21,0.14c-0.96,0.24-2.19,0.29-3.46,0.22c3.36,0.76,5.9,2.3,8.31,2.86c0.06,0.05,0.1,0.1,0.07,0.19
			c-2,0.93-5.59-1.84-5.5-0.72c1.96,1.09,6.33,0.94,7,1.69c0.6-0.25-1.08-0.7,0.56-0.91c2.49,0.34,2.11,0.73,3.59,1.37l1.4-0.69
			c0.19,1.05,2.75,1,5.5,1.04c-3.18-0.69-6.5-1.41-10.11-1.84C363.8,63.32,368.16,65.15,372.98,65.23z"/>
		<path d="M351.76,60.81l1.79,0.06C354.62,61.01,351.85,60.44,351.76,60.81z"/>
		<path d="M342.55,60.26c-0.2-0.07-0.42-0.14-0.65-0.2C342.08,60.13,342.3,60.19,342.55,60.26z"/>
		<path d="M344.75,60.75c1.09,0.2,2.31,0.35,3.49,0.42c-1.08-0.24-2.24-0.41-3.51-0.43L344.75,60.75z"/>
		<path d="M342.6,61.29l-1.36-0.99l-3.64,1.22c2.77-0.79,5.91,1.14,6.48-0.55l1.39,0.66l-0.73-0.88c-0.85-0.15-1.6-0.32-2.19-0.48
			C343.55,60.62,344,61.14,342.6,61.29z"/>
		<path d="M340.12,59.12c-3.22-0.5-1.35,0.54-2.18,0.84l2.92,0.06L340.12,59.12z"/>
		<path d="M337.94,59.95l-2.05-0.04C337.08,60.07,337.66,60.05,337.94,59.95z"/>
		<path d="M375.61,64.41c1.62-0.53-0.27-1.14-2.13-1.08C375.14,63.46,376,64.03,375.61,64.41z"/>
		<path d="M398.82,70.73c-0.3-0.2-1.05-0.31-1.99-0.37C396.99,70.65,397.51,70.89,398.82,70.73z"/>
		<path d="M381.52,68.75c0,0,0,0,0.01,0l-0.29-0.13C381.33,68.67,381.42,68.7,381.52,68.75z"/>
		<path d="M267.45,61.76c-0.01,0-0.01-0.01-0.02-0.01c-0.55,0.02-1.1,0.03-1.65,0.05C266.21,61.82,266.75,61.81,267.45,61.76z"/>
		<path d="M273.46,61.48c-0.3,0.02-0.62,0.03-0.93,0.05C272.83,61.53,273.13,61.51,273.46,61.48z"/>
		<path d="M265.48,60.06c4.06,1.1-0.82,0.44,1.95,1.7c1.75-0.06,3.45-0.13,5.1-0.22C268.63,61.59,268.23,59.39,265.48,60.06z"/>
		<path d="M305.67,59.55c-0.06,0.02-0.11,0.02-0.17,0.03C305.81,59.55,305.96,59.51,305.67,59.55z"/>
		<path d="M149.72,58.52c-0.82-0.2-2.47,0.41-3.92,0.16C147.04,58.8,149.31,59.58,149.72,58.52z"/>
		<path d="M149.34,54.61l0,0.19c0.17-0.07,0.41-0.14,0.66-0.21C149.78,54.59,149.56,54.59,149.34,54.61z"/>
		<path d="M149.33,55.28l0-0.47C148.97,54.95,148.85,55.1,149.33,55.28z"/>
		<path d="M154.71,54.7l-2.69-0.04c0-0.66,0-0.99,1.66-0.94c-0.41-0.26-1.87,0.14-2.7,0.28l0.62,0.06c-0.35,0.2-1.03,0.37-1.61,0.53
			C152.39,54.66,154.32,56.29,154.71,54.7z"/>
		<path d="M158.44,54.08c-1.03,0.01-3.51,0.09-2.69,0.95L158.44,54.08z"/>
		<path d="M162.56,55.05c-3.14-0.52-1.36,0.52-3.16,0.76c0.55,0,1.07,0.02,1.5-0.16C159.25,55.27,161.94,55.31,162.56,55.05z"/>
		<path d="M158.63,55.87c0.32,0,0.56-0.03,0.77-0.06C159.15,55.81,158.89,55.82,158.63,55.87z"/>
		<path d="M130.96,60.25l0.2,0.34C131.3,60.48,131.31,60.37,130.96,60.25z"/>
		<path d="M168.13,55.97l0.2,0.05c0.26-0.03,0.53-0.05,0.83-0.05L168.13,55.97z"/>
		<path d="M177.8,54.53l0.07,0.05C177.87,54.56,177.85,54.54,177.8,54.53z"/>
		<path d="M263.23,59.87c-1.88,0.42,2.44,0.65-0.06,0.99c-3.41-1.66-2.34,1.14-5.98-0.33l1.91-0.75c-4.17,0.57-9.96,0.71-15.12,0.6
			l0.47-1.05c-1.88,0.42-4.56,0.3-4.92-0.64c5.97,0.33,6.93-2.1,10.59-0.96c-0.43,0.39-0.22,0.19,0.18,0.47
			c1.48-0.7,4.23-1.56,7.09-0.97l-1.07,0.64c4.55,0.04,9.49,0.32,13.64,0.13c-1.21-0.5,0.06-0.99,1.93-1.07
			c2.88,0.29-0.86,0.44,0.35,0.94c1.78,1.25,6.86-0.39,8.93-0.32c-0.64,0.25,5.53,0.76,1.77,1.24c4.53,0.4,7.74-1.16,10.74,0.26
			c0.44-0.38,1.52-1.01,2.78-1.17l-0.08,0.99l1.51-0.68c3.04,0.12,4.54,2.13,7.59,1.39c-0.58,0.06-1.78,0.08-1.87-0.44
			c0.27-0.85,6.08-0.89,4.93-2.06l-2.54,0.63c0.89-0.76-2.43-0.69-1.76-1.26l-6.88,0.33l-0.14-0.8l1.62,0.45
			c2-1.71-3.32,0.08-5.31-0.96l-0.05,0.66c-5.96-0.71-2.44-0.67-7.36-1.35l-1.5,0.68c-0.22,0.19,4.41-0.73,4.34,0.26
			c-3.15,0.57-7.48,0.3-10.85,1.06l2.6-1.64c-1.11,0.96-3.26-0.89-6.58-0.79l2.86,0.62c-2.38,1.45-8.08-0.12-11.86,0.71
			c1.04,0.02,2.07,0.06,2.25,0.52c-0.86,0.43-3.32,0.12-4.75-0.18c0.53-1.73,8.95-0.69,8-2.04c-4.34-0.28-7.98,1.71-10.65,1.25
			l2.14-0.94l-2.09,0.29l0.62,0.08c-0.88,0.77-2.69-0.13-4.36,0.1l1.1-0.97l-3.1-0.07l0.4,0.27c-4.99,0.35-9.33,0.13-13.85-0.57
			l2.67,0.45c-0.22,0.19-1.67,0.23-2.9,0.07c0.38,0.6,3.7,0.48,3.47,1c-4.34-0.22-4.91-0.98-9.24-1.51
			c-0.43,0.39,2.82,1.56-0.72,1.91c0.25-0.86-2.84-1.23-0.52-2.06c-3.02,0.59-2.33-0.7-4.73,0.29c0.29-0.05,0.74,0,1.19,0.06
			c0.81,0.54-1.27,0.51-2.1,0.63c-1.42-0.62-2.22-1.16-4.49-1.32l-4.78,0.53c-0.2-0.14,0.01-0.33,0.01-0.33
			c-4.57,0.34-9.52-0.28-12.85,0.24c-0.43,0.4-1.69,0.91,0.8,0.87c-1.89,0.78-4.55,0.04-6.61-0.31l1.68-0.92
			c-5.8,0.23-12.81-1.01-18.01-0.05l1.01,0.67c-4.97,0.45-9.92-0.39-12.62,0.2c3.7,1.06-2.5,0.73-3.54,1.06
			c3.47,0.37,8.58-0.53,9.24-0.38l-0.13-0.08l6.64-0.73l-0.02,1c0.26-2.18,9.08,0.92,7.68-1.01c1.86-0.12,2.67,0.75,2.44,1.27
			l5.19-0.63c0.61,0.4-0.46,1.39-1.08,1.32c-2.07-0.01-5.39,0.82-7.43-0.18c-1.67,0.58,1.62,1.07-2.1,1.31
			c-6.38-1.19-13.84,0.05-18.37-0.88c1.03,0.33,2.06,0.33,0.81,0.86l-3.09-0.74c-2.5,0.23-3.73,1.41-5.59,0.81
			c-0.62,0.6,4.54,0.59,6.18,0.99c-2.29,2.19-5.35-1.12-7.85,0.61c-1.05,1.32,6.61-0.41,4.53,1.25l-3.5-0.26
			c2.45,1.59,5.78-0.6,6.79,1.06c-1.25,0.53-4.95,0.14-5.36-0.13c-1.04,0.33,2.05,0.99,0.19,1.46c-2.05-0.66-2.89,0.47-4.53-0.24
			l0.83-0.8c-1.44,0.08-5.15-0.29-6.8-0.01c-0.2-1.13,3.93-1.82,5.58-1.76c-1.44-0.59-4.12-0.3-5.57-0.22l2.68,0.38
			c-3.92,0.16-2.9,1.81-7.43,1.58c-3.71,0.29-1.03-0.98-2.27-1.44c-4.12,0.69-1.44,0.08-1.24,1.2c-3.3,0.22-4.12-0.3-8.45-0.04
			c2.47-0.43,3.09-1.04,5.57-0.8l-0.82-0.85c-3.31,0.58-5.78,1.67-9.69,2.52l-0.42-0.71c-0.39,0.31-8.58,0.63-16.4,1.11
			c-7.83,0.45-15.27,1.08-14.21,1.71c-0.44-0.15,4.94-0.35,10.36-0.54c0.66-0.02,1.32-0.04,1.97-0.06l-0.29,0.29
			c-4.82,0.61-18.77,1.56-14.68,1.31c-0.17,1.2-2.45,0.48-2.21,1.6c-5.07,0.8-8.5,0.65-12.05,0.55c7.52,1.31,16.1,1.61,25.22,1.4
			c1-0.26,1.86-0.61,0.39-0.87c-2.24,0.59-3.49-0.17-1.87-0.81c2.45-0.46-0.18,0.87,2.67,0l-1.44-0.23c2.87-0.21,4.3-0.63,5.93-1.59
			c5.76,0.45,11.66-0.17,17.39-0.65c5.73-0.49,11.29-0.88,16.32,0.02l3.3-1.21c0.2,0.46,0.61,1.05,2.26,0.78
			c-0.62-0.07-1.65-0.06-1.44-0.26l7.62-0.12l-0.82-0.53c2.46,0.57,6.81-0.62,9.46,0.44c0.01-0.33,1.66-0.6,1.46-1.06
			c7.6,0.92,15.88-0.75,22.23,0.77c-0.6-0.4,0.02-0.66,0.23-0.86c2.47-0.05,0.61,0.4,1.21,0.8c0.45-1.38,8.84-1.15,17.61-0.7
			c8.77,0.48,17.91,1.14,19.9,0.44c-0.61-0.08-1.23-0.15-1.01-0.35c11.66-0.11,24.36,0.22,35.5-0.18
			C262.81,61.69,265.01,60.2,263.23,59.87z M121,62.52c-0.37,0.01-0.73,0.02-1.08,0.03c0.61-0.03,1.07-0.07,1.35-0.11
			C121.18,62.47,121.1,62.5,121,62.52z M113.44,62.8c0.25-0.01,0.49-0.02,0.73-0.02c0.07,0.08-0.45,0.18-1.34,0.3L113.44,62.8z"/>
		<path d="M374.1,66.5c-1.36-0.41-3.18-0.48-4.93-0.51c2.6,0.56,5.1,1.09,7.6,1.41c-0.62-0.56-1.29-1.07-2.55-1.26
			C374.1,66.27,373.97,66.4,374.1,66.5z"/>
		<path d="M381.57,64.63l0.11-0.18C381.6,64.5,381.57,64.57,381.57,64.63z"/>
		<path d="M441.23,68.48c-0.42,0.05-0.84,0.1-1.26,0.15c0.07-0.21,0-0.95-1.37-0.86c-2.74,0.18,0.65,1.01-0.79,1.3
			c-2.83-2.46-9.33,0.97-12.32-2.04c-6.44-0.2-13.55-0.41-20.49-0.71c-6.95-0.28-13.74-0.6-19.54-1.16l0.58,0.25
			c-1.28,0.28-4.41-0.26-4.46-0.79l-0.57,0.92c-4.39,0.18,2.27-3.01-2.67-3.07c2.51,0.69,0.33,2.13-1.54,1.86
			c0.43,0.28,0.35,1.86,1.36,1.84l2.62,1.15c0.16-1.56,4.51-0.59,6.03-0.16c-0.05,0.04-0.11,0.08-0.16,0.12
			c-0.55-0.01-0.49,0.03-0.15,0.12c-0.88,0.62-2.22,1.06-3.85,0.28c-1.98,0.1-3.93-0.02-5.87-0.27c0.92,0.83,1.71,1.76,4.07,1.81
			c-2.17-0.48,1.48-0.51-0.33-1.08c2.14-0.46,4.8,1.64,8.58,1.19c-1.35,0.1-0.81-0.59-0.1-0.74c2.45,0.57,6.47,0.5,8.95,0.69
			c-0.1-0.17-0.08-0.37-0.04-0.51c2.17,0.48,2.82,0.53,5.21,1.35c9.02,1.95,21.56,1.27,29.13,3.52c2.35,1.07-2.57,0.72-1.6,1.21
			C439.5,73.56,442.04,71.27,441.23,68.48z"/>
	</g>
	<g>
		<g>
			<g>
				<path d="M23.81,53.15c0,0-3.07,17.45,16.62,23.38c19.69,5.93,30.28-6.99,30.28-6.99S65,88.87,41.92,88.87
					C18.84,88.87,1.49,74.87,0,53.15C15.87,50.27,23.81,53.15,23.81,53.15z"/>
				<path d="M41.92,88.87c-25.16-7.9-21.27-25.07-19.35-30.41c0.26-0.52,0.48-1.06,0.66-1.62l0,0l0,0c0.38-1.16,0.58-2.4,0.58-3.69
					c0-6.58-5.33-11.91-11.91-11.91C5.33,41.24,0,46.57,0,53.15c0,0.91,0.1,1.79,0.3,2.64C1.57,64.04,8.21,88.87,41.92,88.87z"/>
				<g>
					<path d="M52.56,49.32c0,0,3.07-17.45-16.62-23.38c-19.69-5.93-30.28,6.99-30.28,6.99s5.72-19.33,28.8-19.33
						c23.08,0,40.43,13.99,41.92,35.72C60.49,52.2,52.56,49.32,52.56,49.32z"/>
					<path d="M34.45,13.61c25.16,7.9,21.27,25.07,19.35,30.41c-0.26,0.52-0.48,1.06-0.66,1.62l0,0h0c-0.38,1.16-0.58,2.4-0.58,3.69
						c0,6.58,5.33,11.91,11.91,11.91c6.57,0,11.9-5.33,11.9-11.91c0-0.91-0.1-1.79-0.3-2.64C74.79,38.43,68.16,13.61,34.45,13.61z"
						/>
				</g>
				<path d="M32.87,55.62c2.07,2.07,5.43,2.07,7.5,0c2.07-2.07,2.07-5.43,0-7.5c-2.07-2.07-5.43-2.07-7.5,0
					C30.8,50.19,30.8,53.55,32.87,55.62z"/>
			</g>
			<g>
				<path d="M105.54,20.95h22.91v2.66H108.8v7.67h18.89v2.66H108.8v11.06h-3.25V20.95z"/>
				<path d="M133.4,20.95h3.26v17.96c0,2.32,0.8,3.68,5.21,3.68h11.29c4.42,0,5.21-1.36,5.21-3.68V20.95h3.25v18
					c0,4.88-2.46,6.31-8.57,6.31h-11.09c-6.11,0-8.57-1.43-8.57-6.31V20.95z"/>
				<path d="M167.81,20.95h4.85l22.01,21.12V20.95h3.26v24.04h-4.85l-22.02-21.12v21.12h-3.25V20.95z"/>
				<path d="M203.9,20.95h19.43c8.07,0,10.26,2.52,10.26,12.02c0,8.83-2.19,12.02-10.36,12.02H203.9V20.95z M230.33,31.81
					c0-6.94-2.16-8.2-6.14-8.2h-17.03v18.73h16.5c3.95,0,6.67-0.86,6.67-8.07V31.81z"/>
				<path d="M250.92,20.95h4.05l14.28,24.04h-3.69l-2.99-5.08h-19.26l-2.99,5.08h-3.69L250.92,20.95z M252.95,23.61l-8.07,13.65
					h16.14L252.95,23.61z"/>
				<path d="M272.31,29.68c0-6.08,2.06-9,8.57-9h12.45c5.91,0,7.54,2.76,7.54,5.98v2.06h-2.85v-1.1c0-4.08-2.52-4.28-5.51-4.28
					h-11.29c-3.12,0-5.64,0.93-5.64,5.11v9.03c0,4.18,2.52,5.11,5.64,5.11h11.39c4.38,0,5.64-0.93,5.64-4.18v-1.5h3.06v1.63
					c0,4.35-1.39,6.71-8.13,6.71h-12.29c-6.51,0-8.57-2.92-8.57-9V29.68z"/>
				<path d="M306.65,20.95h3.25v24.04h-3.25V20.95z"/>
				<path d="M315.74,29.68c0-6.08,2.06-9,8.57-9h13.85c6.51,0,8.57,2.92,8.57,9v6.57c0,6.08-2.06,9-8.57,9h-13.85
					c-6.51,0-8.57-2.92-8.57-9V29.68z M343.47,28.45c0-4.18-2.52-5.11-5.65-5.11h-13.18c-3.12,0-5.64,0.93-5.64,5.11v9.03
					c0,4.18,2.52,5.11,5.64,5.11h13.18c3.12,0,5.65-0.93,5.65-5.11V28.45z"/>
				<path d="M352.27,20.95h4.85l22.01,21.12V20.95h3.26v24.04h-4.85l-22.01-21.12v21.12h-3.26V20.95z"/>
				<path d="M404.57,20.95h23.61v2.66h-20.35v7.67h19.56v2.66h-19.56v8.4h20.49v2.65h-23.74V20.95z"/>
			</g>
			<path d="M329.06,13.58c0,0,1.23-12.63,17.77-13.58c0,0,0.17,17.13-16.41,14.87c0,0,5.64-6.25,9.06-7.87
				C339.48,7,331.43,10,329.06,13.58z"/>
		</g>
	</g>
	<g>
		<path d="M105.68,86.32v8.15h-0.96v-8.15h-2.61v-0.86h6.18v0.86H105.68z"/>
		<path d="M121.79,94.48l-2.05-4h-2.16v4h-0.96v-9.01h3.46c1.57,0,2.67,0.95,2.67,2.51c0,1.32-0.8,2.18-1.96,2.42l2.14,4.09H121.79z
			 M119.98,86.32h-2.4v3.3h2.4c1.05,0,1.8-0.54,1.8-1.65C121.77,86.88,121.03,86.32,119.98,86.32z"/>
		<path d="M136.81,94.48l-0.72-2.04h-3.94l-0.72,2.04h-1.03l3.32-9.01h0.81l3.3,9.01H136.81z M134.14,86.84l-1.7,4.76h3.37
			L134.14,86.84z"/>
		<path d="M151.68,94.48l-4.78-7.23v7.23h-0.96v-9.01h0.91l4.79,7.2v-7.2h0.96v9.01H151.68z"/>
		<path d="M164.15,94.55c-1.35,0-2.24-0.34-3.09-1.19l0.66-0.66c0.75,0.75,1.44,0.99,2.46,0.99c1.32,0,2.13-0.62,2.13-1.67
			c0-0.47-0.14-0.87-0.43-1.13c-0.29-0.25-0.52-0.33-1.18-0.43l-1.05-0.17c-0.71-0.11-1.27-0.34-1.66-0.68
			c-0.46-0.41-0.68-0.96-0.68-1.68c0-1.53,1.1-2.54,2.89-2.54c1.15,0,1.91,0.29,2.68,0.99L166.25,87c-0.56-0.51-1.15-0.77-2.1-0.77
			c-1.2,0-1.9,0.67-1.9,1.67c0,0.44,0.13,0.8,0.41,1.04c0.28,0.24,0.75,0.42,1.22,0.49l0.99,0.15c0.85,0.13,1.27,0.3,1.65,0.63
			c0.49,0.42,0.76,1.04,0.76,1.78C167.27,93.58,166.03,94.55,164.15,94.55z"/>
		<path d="M176.88,86.32v3.32h3.95v0.86h-3.95v3.98h-0.96v-9.01h5.6v0.86H176.88z"/>
		<path d="M194.76,93.62c-0.61,0.61-1.41,0.94-2.3,0.94c-0.9,0-1.7-0.33-2.3-0.94c-0.85-0.85-0.85-1.73-0.85-3.65
			c0-1.91,0-2.8,0.85-3.65c0.61-0.61,1.41-0.94,2.3-0.94c0.9,0,1.7,0.33,2.3,0.94c0.85,0.85,0.85,1.73,0.85,3.65
			C195.61,91.88,195.61,92.77,194.76,93.62z M194.02,86.9c-0.39-0.41-0.96-0.65-1.56-0.65c-0.6,0-1.16,0.24-1.56,0.65
			c-0.57,0.58-0.63,1.19-0.63,3.08c0,1.89,0.06,2.49,0.63,3.08c0.39,0.41,0.96,0.64,1.56,0.64c0.6,0,1.16-0.24,1.56-0.64
			c0.57-0.58,0.63-1.19,0.63-3.08C194.65,88.08,194.59,87.48,194.02,86.9z"/>
		<path d="M209.7,94.48l-2.05-4h-2.16v4h-0.96v-9.01h3.46c1.57,0,2.67,0.95,2.67,2.51c0,1.32-0.8,2.18-1.96,2.42l2.14,4.09H209.7z
			 M207.89,86.32h-2.4v3.3h2.4c1.05,0,1.8-0.54,1.8-1.65C209.68,86.88,208.94,86.32,207.89,86.32z"/>
		<path d="M226.22,94.48v-6.85l-2.47,5.43h-0.82l-2.51-5.43v6.85h-0.96v-9.01h0.96l2.94,6.39l2.86-6.39h0.96v9.01H226.22z"/>
		<path d="M241.69,94.48l-0.72-2.04h-3.94l-0.72,2.04h-1.03l3.32-9.01h0.81l3.3,9.01H241.69z M239.02,86.84l-1.7,4.76h3.37
			L239.02,86.84z"/>
		<path d="M256.56,94.48l-4.78-7.23v7.23h-0.96v-9.01h0.91l4.79,7.2v-7.2h0.96v9.01H256.56z"/>
		<path d="M272.08,93.64c-0.54,0.54-1.34,0.84-2.28,0.84h-3.09v-9.01h3.09c0.94,0,1.73,0.29,2.28,0.84
			c0.94,0.94,0.89,2.32,0.89,3.57C272.97,91.12,273.02,92.71,272.08,93.64z M271.41,86.98c-0.47-0.48-1.08-0.66-1.77-0.66h-1.96
			v7.29h1.96c0.7,0,1.3-0.18,1.77-0.66c0.62-0.65,0.6-1.99,0.6-3.09C272.01,88.77,272.03,87.63,271.41,86.98z"/>
		<path d="M286.99,93.62c-0.61,0.61-1.41,0.94-2.3,0.94s-1.7-0.33-2.3-0.94c-0.85-0.85-0.85-1.73-0.85-3.65c0-1.91,0-2.8,0.85-3.65
			c0.61-0.61,1.41-0.94,2.3-0.94s1.7,0.33,2.3,0.94c0.85,0.85,0.85,1.73,0.85,3.65C287.84,91.88,287.84,92.77,286.99,93.62z
			 M286.24,86.9c-0.39-0.41-0.96-0.65-1.56-0.65s-1.16,0.24-1.56,0.65c-0.57,0.58-0.63,1.19-0.63,3.08c0,1.89,0.06,2.49,0.63,3.08
			c0.39,0.41,0.96,0.64,1.56,0.64s1.16-0.24,1.56-0.64c0.57-0.58,0.63-1.19,0.63-3.08C286.88,88.08,286.81,87.48,286.24,86.9z"/>
		<path d="M306.54,94.48v-9.01h5.6v0.86h-4.63v3.18h3.95v0.86h-3.95v3.25h4.63v0.86H306.54z"/>
		<path d="M323.59,94.55c-0.89,0-1.7-0.33-2.3-0.94c-0.85-0.85-0.85-1.73-0.85-3.65c0-1.91,0-2.8,0.85-3.65
			c0.61-0.61,1.42-0.94,2.3-0.94c1.62,0,2.82,0.99,3.13,2.68h-0.99c-0.24-1.1-1.01-1.82-2.14-1.82c-0.6,0-1.16,0.23-1.56,0.63
			c-0.57,0.58-0.63,1.2-0.63,3.09c0,1.89,0.06,2.51,0.63,3.09c0.39,0.41,0.96,0.63,1.56,0.63c1.13,0,1.92-0.72,2.16-1.82h0.96
			C326.42,93.57,325.19,94.55,323.59,94.55z"/>
		<path d="M340.59,93.62c-0.61,0.61-1.41,0.94-2.3,0.94c-0.9,0-1.7-0.33-2.3-0.94c-0.85-0.85-0.85-1.73-0.85-3.65
			c0-1.91,0-2.8,0.85-3.65c0.61-0.61,1.41-0.94,2.3-0.94c0.9,0,1.7,0.33,2.3,0.94c0.85,0.85,0.85,1.73,0.85,3.65
			C341.44,91.88,341.44,92.77,340.59,93.62z M339.85,86.9c-0.39-0.41-0.96-0.65-1.56-0.65s-1.16,0.24-1.56,0.65
			c-0.57,0.58-0.63,1.19-0.63,3.08c0,1.89,0.06,2.49,0.63,3.08c0.39,0.41,0.96,0.64,1.56,0.64s1.16-0.24,1.56-0.64
			c0.57-0.58,0.63-1.19,0.63-3.08C340.48,88.08,340.42,87.48,339.85,86.9z"/>
		<path d="M356.1,94.48l-4.78-7.23v7.23h-0.96v-9.01h0.91l4.79,7.2v-7.2h0.96v9.01H356.1z"/>
		<path d="M371.37,93.62c-0.61,0.61-1.41,0.94-2.3,0.94s-1.7-0.33-2.3-0.94c-0.85-0.85-0.85-1.73-0.85-3.65c0-1.91,0-2.8,0.85-3.65
			c0.61-0.61,1.41-0.94,2.3-0.94s1.7,0.33,2.3,0.94c0.85,0.85,0.85,1.73,0.85,3.65C372.22,91.88,372.22,92.77,371.37,93.62z
			 M370.62,86.9c-0.39-0.41-0.96-0.65-1.56-0.65s-1.16,0.24-1.56,0.65c-0.57,0.58-0.63,1.19-0.63,3.08c0,1.89,0.06,2.49,0.63,3.08
			c0.39,0.41,0.96,0.64,1.56,0.64s1.16-0.24,1.56-0.64c0.57-0.58,0.63-1.19,0.63-3.08C371.26,88.08,371.19,87.48,370.62,86.9z"/>
		<path d="M387.89,94.48v-6.85l-2.47,5.43h-0.82l-2.51-5.43v6.85h-0.96v-9.01h0.96l2.94,6.39l2.86-6.39h0.96v9.01H387.89z"/>
		<path d="M398.93,84.59h-0.84l1.11-1.94h1.09L398.93,84.59z M398.1,94.48v-9.01h0.96v9.01H398.1z"/>
		<path d="M413.56,94.48l-0.72-2.04h-3.94l-0.72,2.04h-1.03l3.32-9.01h0.81l3.3,9.01H413.56z M410.89,86.84l-1.7,4.76h3.37
			L410.89,86.84z"/>
		<path d="M425,94.55c-1.35,0-2.24-0.34-3.09-1.19l0.66-0.66c0.75,0.75,1.44,0.99,2.46,0.99c1.32,0,2.13-0.62,2.13-1.67
			c0-0.47-0.14-0.87-0.43-1.13c-0.29-0.25-0.52-0.33-1.18-0.43l-1.05-0.17c-0.71-0.11-1.27-0.34-1.66-0.68
			c-0.46-0.41-0.68-0.96-0.68-1.68c0-1.53,1.1-2.54,2.89-2.54c1.15,0,1.91,0.29,2.68,0.99L427.1,87c-0.56-0.51-1.15-0.77-2.1-0.77
			c-1.2,0-1.9,0.67-1.9,1.67c0,0.44,0.13,0.8,0.41,1.04c0.28,0.24,0.75,0.42,1.22,0.49l0.99,0.15c0.85,0.13,1.27,0.3,1.65,0.63
			c0.49,0.42,0.76,1.04,0.76,1.78C428.11,93.58,426.87,94.55,425,94.55z"/>
	</g>
	<g>
		<path d="M443.39,81.82c1.45-1.55,2.69-2.88,3.94-4.2c3.89-4.1,7.8-8.19,11.69-12.29c4.52-4.76,9.02-9.53,13.54-14.28
			c3.05-3.21,4.43-7.03,3.92-11.4c-0.7-6.01-5.19-11.1-11.18-12.21c-5.84-1.08-10.59,0.75-14.22,5.46
			c-0.64,0.83-1.17,1.82-2.39,1.99c-1.12,0.15-2.09-0.07-2.76-1.02c-0.7-0.99-0.77-2.02-0.1-3.08c2.39-3.81,5.69-6.57,9.94-8.01
			c4.59-1.56,9.27-1.62,13.82,0.22c6.14,2.48,10.08,7.01,11.78,13.38c1.67,6.29,0.38,12.04-3.63,17.17
			c-0.66,0.84-1.44,1.58-2.17,2.36c-2.07,2.24-4.12,4.49-6.22,6.7c-4.01,4.23-8.05,8.44-12.07,12.66c-0.25,0.26-0.46,0.55-0.84,1.01
			c0.58,0.06,0.94,0.14,1.31,0.14c7.01,0.01,14.01,0,21.02,0.01c1.24,0,2.38,0.23,2.99,1.52c0.82,1.74-0.24,3.64-2.16,3.86
			c-0.3,0.03-0.61,0.02-0.92,0.02c-11.35,0-22.7,0-34.05,0C444.3,81.82,443.98,81.82,443.39,81.82z"/>
		<path d="M525.2,51.44c-0.04-11.5-7.41-21.03-18.27-24.19c-6.2-1.8-12.29-1.18-18.07,1.85c-1.71,0.9-3.34,0.35-4.02-1.31
			c-0.52-1.27-0.03-2.61,1.27-3.36c2.38-1.37,4.95-2.27,7.62-2.82c3.34-0.69,6.71-0.86,10.13-0.46c4.39,0.52,8.44,1.94,12.2,4.22
			c5.85,3.54,9.98,8.58,12.52,14.9c1.59,3.96,2.23,8.12,2.02,12.39c-0.01,0.15-0.01,0.31-0.02,0.46c-0.03,3.33-1.57,8.45-1.8,9
			c-1.93,4.52-4.48,8.62-8.2,11.9c-4.71,4.14-10.14,6.7-16.4,7.54c-3.7,0.5-7.33,0.25-10.93-0.52c-2.45-0.52-4.8-1.4-6.99-2.65
			c-1.65-0.94-2.1-2.48-1.2-4.04c0.67-1.16,2.39-1.46,3.84-0.69c5,2.64,10.3,3.33,15.83,2.34c6.04-1.09,10.95-4.15,14.8-8.83
			c1.98-2.4,3.15-4.25,4.01-7.29C523.54,59.86,524.8,56.38,525.2,51.44z"/>
	</g>
	<g>
		<path d="M508.98,64.22c0,0-2.12-6.65-0.47-10.17c1.65-3.53,6.25-8.68,12.85-5.56c6.6,3.12,10.02,5.97,14.14,5.02
			c4.13-0.95,5.62-2.4,6.4-3.12c0.79-0.72,1.02-0.36,0.71,0.45c-0.31,0.81-1.26,3.8-4.16,5.88c-1.17,0.83-0.16,1.99,1.65,2.53
			c1.81,0.54,3.93,0.81,4.48,0.63c0.55-0.18-0.31,1.27-1.34,1.99c-1.02,0.72-5.19,5.88-13.59,2.89c0,0-4.48-1.72-6.76-3.44
			C519.63,58.87,511.5,55.99,508.98,64.22z"/>
		<g>
			<path class="st0" d="M514.02,56.14l1.87-4c0.14-0.31,0.32-0.48,0.64-0.46c0.31,0.03,0.47,0.23,0.55,0.56l1.12,4.27
				c0.01,0.05,0.02,0.11,0.01,0.17c-0.02,0.26-0.24,0.4-0.47,0.38c-0.2-0.02-0.35-0.15-0.4-0.35l-0.21-0.83l-1.97-0.17l-0.34,0.78
				c-0.09,0.19-0.26,0.29-0.45,0.27c-0.23-0.02-0.42-0.2-0.4-0.46C513.98,56.24,514,56.18,514.02,56.14z M516.94,55.06l-0.52-2.07
				l-0.02,0l-0.88,1.95L516.94,55.06z"/>
			<path class="st0" d="M520.3,52.8c0.09-0.32,0.33-0.47,0.64-0.38c0.25,0.07,0.37,0.26,0.45,0.58l0.97,3.62l0.02,0.01l0.86-3.11
				c0.08-0.27,0.29-0.38,0.52-0.31c0.23,0.06,0.35,0.26,0.28,0.53l-1.14,4.12c-0.09,0.32-0.33,0.47-0.63,0.39
				c-0.26-0.07-0.38-0.26-0.46-0.58l-0.96-3.62l-0.03-0.01l-0.86,3.11c-0.08,0.27-0.29,0.38-0.51,0.32
				c-0.23-0.06-0.36-0.27-0.28-0.54L520.3,52.8z M522.44,52.08c-0.14-0.16-0.19-0.2-0.28-0.22c-0.09-0.02-0.17-0.01-0.29,0.07
				c-0.08,0.05-0.18,0.07-0.26,0.05c-0.16-0.04-0.24-0.18-0.19-0.33c0.02-0.08,0.07-0.15,0.14-0.2c0.27-0.21,0.51-0.25,0.73-0.19
				c0.2,0.05,0.3,0.16,0.44,0.29c0.14,0.16,0.19,0.2,0.28,0.22c0.09,0.02,0.17,0.01,0.29-0.07c0.09-0.05,0.18-0.07,0.27-0.05
				c0.15,0.04,0.24,0.18,0.19,0.33c-0.02,0.08-0.07,0.15-0.14,0.2c-0.27,0.21-0.51,0.25-0.73,0.19
				C522.68,52.32,522.58,52.22,522.44,52.08z"/>
			<path class="st0" d="M525.49,55.03c0.55-0.66,1.31-0.82,2.14-0.49c0.84,0.33,1.29,0.97,1.24,1.82c-0.02,0.39-0.11,0.69-0.38,1.39
				c-0.28,0.7-0.42,0.98-0.67,1.28c-0.55,0.66-1.31,0.82-2.15,0.49c-0.83-0.33-1.28-0.96-1.23-1.82c0.02-0.39,0.11-0.69,0.38-1.39
				C525.1,55.6,525.24,55.33,525.49,55.03z M527.98,56.26c0.02-0.44-0.16-0.79-0.64-0.98c-0.47-0.18-0.85-0.05-1.13,0.29
				c-0.15,0.18-0.28,0.42-0.53,1.07c-0.25,0.65-0.33,0.91-0.33,1.15c-0.02,0.44,0.16,0.79,0.63,0.98c0.47,0.19,0.85,0.06,1.13-0.28
				c0.15-0.18,0.28-0.42,0.53-1.07C527.9,56.76,527.97,56.5,527.98,56.26z"/>
			<path class="st0" d="M528.83,60.31c-0.09-0.14-0.11-0.3-0.04-0.45c0.09-0.19,0.33-0.3,0.54-0.2c0.09,0.04,0.17,0.11,0.23,0.2
				c0.26,0.38,0.53,0.66,0.92,0.85c0.58,0.27,1.04,0.16,1.23-0.25c0.16-0.34,0.07-0.66-0.54-1.05l-0.23-0.15
				c-0.89-0.57-1.15-1.24-0.79-2.02c0.4-0.85,1.29-1.11,2.24-0.66c0.51,0.24,0.93,0.61,1.12,0.92c0.11,0.15,0.11,0.3,0.05,0.43
				c-0.1,0.21-0.32,0.29-0.53,0.19c-0.08-0.04-0.17-0.11-0.23-0.18c-0.21-0.26-0.45-0.48-0.78-0.63c-0.5-0.23-0.87-0.08-1.04,0.27
				c-0.16,0.34-0.02,0.66,0.56,1.04l0.22,0.15c0.9,0.58,1.15,1.24,0.77,2.04c-0.39,0.83-1.28,1.16-2.46,0.6
				C529.45,61.12,529.05,60.67,528.83,60.31z"/>
		</g>
	</g>
</g>
</svg>
