<?xml version="1.0" encoding="utf-8"?>
<!-- Generator: Adobe Illustrator 25.0.0, SVG Export Plug-In . SVG Version: 6.00 Build 0)  -->
<svg version="1.1" xmlns="http://www.w3.org/2000/svg" xmlns:xlink="http://www.w3.org/1999/xlink" x="0px" y="0px"
	 viewBox="0 0 1224 396" style="enable-background:new 0 0 1224 396;" xml:space="preserve">
<g id="Contraste">
</g>
<g id="Blanco">
</g>
<g id="Fundación">
	<g>
		<g>
			<path d="M181.76,338.7h-21.45c-1.55,0-2.87,0.7-3.74,1.96c-0.71,1.04-1.07,2.2-1.07,3.47c0,1.27,0.36,2.44,1.07,3.47
				c0.86,1.27,2.24,1.96,3.88,1.96h21.31c1.54,0,2.87-0.7,3.74-1.96c0.68-1,1.06-2.12,1.13-3.35c0.07-1.31-0.26-2.51-1-3.59
				C184.76,339.39,183.39,338.7,181.76,338.7z"/>
			<path d="M263.47,299.68h-31.22c-1.11,0-2.19,0.37-3.2,1.11c-0.86,0.62-1.88,1.84-1.88,4.17v82.01c0,2.11,0.9,3.32,1.65,3.97
				c0.99,0.86,2.17,1.31,3.43,1.31c1.25,0,2.44-0.45,3.42-1.3c0.75-0.65,1.65-1.87,1.65-3.97v-36.34h20.71
				c2.19,0,3.42-1.1,4.06-2.02c0.76-1.09,1.15-2.29,1.15-3.56c0-1.27-0.39-2.47-1.15-3.57c-0.91-1.3-2.35-2.01-4.06-2.01h-20.71
				v-28.78h26.14c1.62,0,2.96-0.65,3.88-1.88c0.79-1.05,1.19-2.27,1.19-3.63c0-1.31-0.36-2.5-1.07-3.55
				C266.87,300.74,265.67,299.68,263.47,299.68z"/>
			<path d="M360.29,300.98c-1.98-1.71-4.87-1.7-6.85,0c-0.75,0.65-1.65,1.87-1.65,3.97v59.91c0,5.07-1.41,9.12-4.32,12.39
				c-2.84,3.19-6.47,4.74-11.1,4.74h-3.39c-4.57,0-8.17-1.45-11.02-4.42c-2.83-2.96-4.27-7.24-4.27-12.71v-59.91
				c0-2.1-0.9-3.31-1.66-3.97c-1.98-1.7-4.87-1.7-6.85,0c-0.75,0.65-1.65,1.87-1.65,3.97v59.91c0,3.99,0.59,7.72,1.75,11.09
				c1.18,3.41,2.9,6.41,5.13,8.91c2.23,2.51,4.95,4.51,8.06,5.95c3.13,1.45,6.67,2.19,10.51,2.19h3.39c3.84,0,7.38-0.74,10.51-2.19
				c3.12-1.45,5.84-3.48,8.07-6.05c2.21-2.53,3.95-5.54,5.17-8.94c1.21-3.38,1.83-7.07,1.83-10.97v-59.91
				C361.94,302.86,361.04,301.64,360.29,300.98z"/>
			<path d="M452.86,301.13c-0.96-0.83-2.08-1.29-3.35-1.37c-1.35-0.09-2.61,0.34-3.64,1.22c-0.75,0.65-1.65,1.87-1.65,3.97v58.26
				l-27.51-60.86l-0.06-0.13c-0.52-0.98-1.35-1.71-2.41-2.11c-0.91-0.34-1.87-0.43-2.85-0.26c-1.09,0.19-2.05,0.74-2.84,1.63
				c-0.81,0.91-1.24,2.11-1.24,3.46v82.01c0,2.11,0.9,3.32,1.65,3.97c0.99,0.86,2.17,1.31,3.43,1.31c1.25,0,2.44-0.45,3.42-1.3
				c0.75-0.65,1.65-1.87,1.65-3.97v-57.79l26.82,59.45c0.57,1.28,1.43,2.23,2.56,2.82c1.06,0.56,2.14,0.8,3.18,0.71
				c1.17-0.09,2.24-0.61,3.11-1.5c0.63-0.64,1.38-1.81,1.38-3.69v-82.01C454.52,302.98,453.62,301.79,452.86,301.13z"/>
			<path d="M528.44,299.68h-21.72c-1.06,0-2.11,0.32-3.1,0.96c-1.31,0.84-1.98,2.34-1.98,4.47v82.01c0,2.33,1.02,3.55,1.87,4.17
				c1.02,0.74,2.09,1.11,3.21,1.11h22.13c4.54,0,8.53-0.73,11.87-2.16c3.34-1.43,6.17-3.35,8.4-5.69c2.24-2.34,3.93-5.04,5.02-8.01
				c1.08-2.93,1.63-5.93,1.63-8.93v-39.02C555.78,309.67,546.33,299.68,528.44,299.68z M528.85,381.69H511.8v-71h16.64
				c5.87,0,10.24,1.42,13.01,4.22c2.77,2.81,4.18,7.41,4.18,13.68v39.02c0,2.25-0.48,4.24-1.42,5.93c-0.97,1.75-2.26,3.24-3.81,4.41
				c-1.6,1.21-3.43,2.15-5.43,2.78C532.93,381.36,530.88,381.69,528.85,381.69z"/>
			<path d="M628.46,304.38c-0.39-1.47-1.1-2.63-2.12-3.45c-1.02-0.82-2.23-1.25-3.5-1.25c-1.26,0-2.44,0.41-3.51,1.21
				c-1.08,0.81-1.84,1.99-2.24,3.51l-21.05,80.98c-0.43,1.76-0.22,3.25,0.6,4.45c0.74,1.09,1.72,1.82,2.89,2.17
				c0.91,0.27,2.33,0.38,3.94-0.63c1.19-0.75,2.05-2.02,2.59-3.83l4.99-18.77h24.28l5.13,18.98c0.52,1.77,1.38,3.02,2.55,3.72
				c0.8,0.48,1.65,0.73,2.5,0.73c0.44,0,0.88-0.07,1.32-0.2c1.26-0.38,2.27-1.24,2.91-2.5c0.61-1.19,0.71-2.63,0.3-4.33
				L628.46,304.38z M632.36,357.75h-18.38l8.98-34.78L632.36,357.75z"/>
			<path d="M733.57,360.73c-1.05,0.99-1.58,2.38-1.58,4.13c0,6.23-1.4,10.68-4.17,13.22c-2.82,2.59-7.1,3.91-12.74,3.91
				c-5.52,0-9.85-1.22-12.86-3.63c-2.87-2.29-4.32-6.78-4.32-13.35v-36.74c0-6.59,1.34-11.32,3.99-14.08
				c2.63-2.73,7.06-4.12,13.19-4.12c3.97,0,7.03,0.53,9.1,1.59c2.08,1.06,3.6,2.22,4.52,3.46c0.92,1.25,1.5,2.43,1.7,3.51
				c0.33,1.73,0.37,2.15,0.37,2.17c0,2.17,0.89,3.48,1.63,4.19c1.32,1.27,2.68,1.54,3.58,1.54c1.26,0,2.47-0.48,3.51-1.4
				c1.13-1,1.7-2.46,1.7-4.34c0-3.93-0.81-7.33-2.4-10.1c-1.57-2.72-3.65-4.97-6.18-6.68c-2.47-1.67-5.3-2.88-8.41-3.6
				c-3.01-0.7-6.08-1.05-9.12-1.05c-4.16,0-7.93,0.46-11.19,1.38c-3.43,0.96-6.37,2.64-8.76,4.97c-2.37,2.33-4.2,5.39-5.44,9.12
				c-1.2,3.61-1.81,8.13-1.81,13.43v36.74c0,9.96,2.34,17.15,6.97,21.38c4.57,4.18,11.37,6.3,20.24,6.3c3.99,0,7.66-0.46,10.92-1.38
				c3.4-0.95,6.35-2.56,8.77-4.77c2.44-2.23,4.31-5.2,5.56-8.85c1.21-3.52,1.82-7.84,1.82-12.84c0-1.74-0.53-3.13-1.58-4.14
				C738.57,358.83,735.58,358.83,733.57,360.73z"/>
			<path d="M795.07,300.98c-1.98-1.71-4.74-1.7-6.71,0c-0.75,0.65-1.65,1.87-1.65,3.97v82.16c0,1.98,0.9,3.17,1.65,3.82
				c0.99,0.86,2.15,1.31,3.36,1.31c1.18,0,2.28-0.39,3.27-1.16c0.79-0.62,1.74-1.81,1.74-3.97v-82.16
				C796.72,302.86,795.82,301.64,795.07,300.98z"/>
			<path d="M869.52,280.1c0.36,0.11,0.81,0.2,1.34,0.2c0.72,0,1.58-0.17,2.52-0.66c1.31-0.69,2.25-1.96,2.78-3.74l1.47-4.65
				c0.74-2.09,0.26-3.56-0.27-4.43c-0.69-1.12-1.69-1.9-2.89-2.26c-1.12-0.33-2.3-0.3-3.51,0.1c-1.45,0.48-2.51,1.62-2.99,3.22
				l-1.62,5.15c-0.55,1.71-0.48,3.24,0.22,4.56C867.44,279.2,868.66,279.84,869.52,280.1z"/>
			<path d="M870.51,298.61h-3.53c-8.33,0-14.72,2.49-18.99,7.4c-4.19,4.82-6.32,11.9-6.32,21.05v37.8c0,4.09,0.59,7.89,1.75,11.31
				c1.17,3.46,2.87,6.48,5.04,8.98c2.2,2.53,4.92,4.5,8.07,5.84c3.12,1.33,6.63,2.01,10.45,2.01h3.53c7.59,0,13.79-2.61,18.42-7.75
				c4.57-5.07,6.88-11.93,6.88-20.39v-37.8c0-9.15-2.15-16.24-6.39-21.06C885.11,301.09,878.74,298.61,870.51,298.61z M881.52,377.5
				c-2.61,3.02-6.21,4.49-11.01,4.49h-3.53c-4.84,0-8.52-1.42-11.28-4.33c-2.75-2.91-4.14-7.22-4.14-12.8v-37.8
				c0-5.91,1.34-10.38,3.97-13.29c2.61-2.89,6.36-4.3,11.45-4.3h3.53c10.24,0,15.01,5.59,15.01,17.59v37.8
				C885.52,370.17,884.17,374.43,881.52,377.5z"/>
			<path d="M986.33,301.13c-0.96-0.83-2.08-1.29-3.35-1.37c-1.35-0.09-2.61,0.34-3.64,1.22c-0.75,0.65-1.65,1.87-1.65,3.97v58.26
				l-27.51-60.86l-0.06-0.13c-0.52-0.98-1.35-1.71-2.41-2.11c-0.91-0.34-1.87-0.43-2.85-0.26c-1.09,0.19-2.05,0.74-2.84,1.63
				c-0.81,0.91-1.24,2.11-1.24,3.46v82.01c0,2.11,0.9,3.32,1.65,3.97c0.99,0.86,2.17,1.31,3.43,1.31c1.25,0,2.44-0.45,3.42-1.3
				c0.75-0.65,1.65-1.87,1.65-3.97v-57.79l26.82,59.45c0.57,1.28,1.43,2.23,2.56,2.82c1.06,0.56,2.13,0.8,3.18,0.71
				c1.17-0.09,2.24-0.61,3.11-1.5c0.63-0.64,1.38-1.81,1.38-3.69v-82.01C987.98,302.98,987.08,301.79,986.33,301.13z"/>
			<path d="M1062.52,340.66c-0.87-1.26-2.24-1.96-3.87-1.96h-21.45c-1.55,0-2.87,0.7-3.74,1.96c-0.71,1.04-1.07,2.2-1.07,3.47
				c0,1.27,0.36,2.44,1.07,3.47c0.86,1.27,2.24,1.96,3.88,1.96h21.31c1.54,0,2.87-0.7,3.74-1.96c0.68-1,1.06-2.12,1.13-3.35
				C1063.59,342.94,1063.25,341.73,1062.52,340.66z"/>
		</g>
		<path d="M132.66,24.02L80.93,53.96c-2.38,1.31-4.76,2.1-6.24,2.1c-1.49,0-3.27-0.79-5.35-1.84l-10.11-7.09
			c-2.08-1.58-2.97-2.89-2.97-4.2c0-1.58,0.89-2.89,2.97-4.2l48.17-33.1c2.68-1.84,4.76-2.63,6.54-2.63c1.78,0,4.16,1.05,6.84,2.89
			l12.79,8.67c2.08,1.84,3.27,3.41,3.27,4.73C136.83,21.13,135.34,22.7,132.66,24.02z"/>
		<path d="M365.86,201.45c1.44,0,3.17,1.02,4.61,2.8l12.67,16.03c1.15,1.53,1.73,2.8,1.73,3.82c0,1.78-1.15,3.31-3.74,5.34
			c-20.74,15.27-47.23,23.92-75.17,23.92c-58.46,0.76-106.27-39.69-105.12-91.35c-0.87-52.42,46.66-93.64,107.14-92.87
			c27.93,0,53.28,9.16,73.73,23.66c2.02,1.78,3.17,3.31,3.17,4.58c0,1.27-0.58,2.54-2.02,4.33l-12.67,15.78
			c-1.73,2.04-3.46,3.05-5.19,3.05c-1.44,0-3.17-0.76-5.18-2.04c-15.26-10.18-33.12-16.28-52.42-16.28
			c-36.58,0-64.8,24.43-64.8,59.29c0,33.59,27.93,58.78,64.8,58.78c19.87,0,37.44-5.6,52.99-16.54
			C362.4,202.22,364.42,201.45,365.86,201.45z"/>
		<path d="M572.89,253.55c-5.05,0-7.14-1.84-7.14-6.3v-67.25c0-2.36-0.89-3.41-4.16-3.41h-82.66c-2.68,0-3.87,0.53-3.87,3.41v67.25
			c0,4.47-2.38,6.3-7.43,6.3h-27.06c-5.06,0-7.14-1.84-7.14-6.3V75.97c0-4.47,2.08-6.3,7.14-6.3h27.06c5.06,0,7.43,1.84,7.43,6.3
			v63.05c0,2.36,1.19,3.41,3.87,3.41h82.66c2.68,0,4.16-1.05,4.16-3.41V75.97c0-4.47,2.08-6.3,7.14-6.3h27.06
			c5.06,0,7.43,1.84,7.43,6.3v171.28c0,4.47-2.38,6.3-7.43,6.3H572.89z"/>
		<path d="M832.45,151.81v95.57c0,4.37-2.33,6.17-7.27,6.17h-26.46c-4.94,0-6.98-1.8-6.98-6.17v-46.76c0-2.83-1.16-3.6-3.78-3.6
			h-87.23c-3.2,0-4.07,0.77-4.07,3.6v46.76c0,4.37-2.33,6.17-7.27,6.17h-26.46c-4.94,0-6.98-1.8-6.98-6.17v-95.57
			c0-53.44,36.35-81.18,88.69-81.18C796.11,70.63,832.45,97.61,832.45,151.81z M787.96,163.89c2.62,0,3.78-1.28,3.78-3.6v-7.45
			c0-30.83-17.16-48.81-47.69-48.81c-30.24,0-47.4,17.98-47.4,48.56v7.71c0,2.83,0.87,3.6,4.07,3.6H787.96z"/>
		<path d="M1008.82,220.24c5.09,0,7.19,1.85,7.19,6.35v21.71c0,4.5-2.1,6.35-7.19,6.35H887.73c-5.1,0-7.19-1.85-7.19-6.35V75.66
			c0-4.5,2.1-6.35,7.19-6.35h27.27c5.1,0,7.49,1.85,7.49,6.35V216.8c0,2.38,1.2,3.44,3.9,3.44H1008.82z"/>
		<circle cx="1157.92" cy="162.72" r="19.39"/>
		<path d="M1202.41,220.25h-96.76V103.77h96.76c5.09,0,7.19-1.85,7.19-6.35V75.71c0-4.5-2.1-6.35-7.19-6.35h-96.76h-28.79h-12.34
			v185.31h12.04h29.09h96.76c5.09,0,7.49-1.85,7.49-6.35V226.6C1209.9,222.1,1207.5,220.25,1202.41,220.25z"/>
		<path d="M146.12,219.4H54.91v-40.72h91.21c5.05,0,7.14-1.84,7.14-6.3v-21.54c0-4.47-2.08-6.3-7.14-6.3H54.91v-40.72h91.21
			c5.05,0,7.14-1.84,7.14-6.3V75.97c0-4.47-2.08-6.3-7.14-6.3H54.91H21.54H14.1v6.3v21.54v53.33v21.54v53.33v21.54v6.3h7.14h33.68
			h91.21c5.05,0,7.43-1.84,7.43-6.3V225.7C153.55,221.24,151.17,219.4,146.12,219.4z"/>
	</g>
</g>
<g id="Original">
</g>
</svg>
