<?xml version="1.0" encoding="utf-8"?>
<!-- Generator: Adobe Illustrator 25.0.0, SVG Export Plug-In . SVG Version: 6.00 Build 0)  -->
<svg version="1.1" id="Capa_1" xmlns="http://www.w3.org/2000/svg" xmlns:xlink="http://www.w3.org/1999/xlink" x="0px" y="0px"
	 viewBox="0 0 582 357.4" style="enable-background:new 0 0 582 357.4;" xml:space="preserve">
<style type="text/css">
	.st0{fill-rule:evenodd;clip-rule:evenodd;}
</style>
<g>
	<g>
		<g>
			<g>
				<g>
					<path class="st0" d="M151.9,20.2c0,6.5-5.2,11.7-11.7,11.7c-6.5,0-11.7-5.2-11.7-11.7c0-6.5,5.2-11.7,11.7-11.7
						C146.6,8.5,151.9,13.8,151.9,20.2"/>
					<path class="st0" d="M183,9.4c0,5.3-4.3,9.5-9.5,9.5s-9.5-4.3-9.5-9.5c0-5.3,4.3-9.5,9.5-9.5S183,4.1,183,9.4"/>
					<path class="st0" d="M123.2,42.5c0,8.9-7.2,16.1-16.1,16.1c-8.9,0-16.1-7.2-16.1-16.1c0-8.9,7.2-16.1,16.1-16.1
						C116,26.3,123.2,33.6,123.2,42.5"/>
					<path class="st0" d="M85.7,68.3c5.1,11.8-0.4,25.5-12.2,30.6C61.7,104,48,98.5,42.9,86.7c-5.1-11.8,0.4-25.5,12.2-30.6
						C66.9,51,80.6,56.5,85.7,68.3"/>
					<path class="st0" d="M61.1,122.4c6.7,15.5-0.5,33.5-16,40.2c-15.5,6.7-33.5-0.5-40.2-16c-6.7-15.5,0.5-33.5,16-40.2
						C36.4,99.8,54.4,107,61.1,122.4"/>
					<path class="st0" d="M5,202.8c11.4-22.1,38.6-30.8,60.7-19.3c22.1,11.4,30.7,38.6,19.3,60.7c-11.4,22.1-38.6,30.8-60.7,19.3
						C2.3,252.1-6.4,224.9,5,202.8"/>
					<path class="st0" d="M89.4,265c16.1-31.1,54.3-43.2,85.4-27.1c31.1,16.1,43.2,54.3,27.1,85.4c-16.1,31.1-54.3,43.2-85.4,27.1
						C85.5,334.3,73.3,296.1,89.4,265"/>
				</g>
			</g>
		</g>
	</g>
	<g>
		<g>
			<g>
				<g>
					<g>
						<g>
							<path d="M231.2,192c-0.7,3.5-1.8,6.7-3.2,9.6c-1.5,2.9-3.4,5.3-5.6,7.3c-2.3,2-4.9,3.6-7.9,4.7c-3,1.1-6.3,1.7-9.9,1.7
								c-4,0-7.8-0.7-11.3-2.1c-3.5-1.4-6.5-3.4-9.1-6.1c-2.5-2.7-4.5-6.1-6-10.1c-1.5-4-2.2-8.7-2.2-14c0-5.2,0.7-9.9,2-14.1
								c1.3-4.2,3.2-7.7,5.7-10.6c2.5-2.9,5.5-5.1,9.1-6.6c3.6-1.5,7.6-2.3,12-2.3c3.8,0,7.3,0.6,10.5,1.7c3.1,1.1,5.8,2.7,8.1,4.7
								c2.3,2,4.1,4.4,5.4,7.1c1.3,2.7,2.2,5.6,2.5,8.7h-12.9c-0.9-3.5-2.6-6.3-5-8.2c-2.5-2-5.3-2.9-8.4-2.9
								c-5.4,0-9.4,1.9-11.9,5.8c-2.5,3.9-3.8,9.2-3.8,16c0,6.9,1.3,12.2,3.8,16c2.5,3.8,6.3,5.7,11.3,5.7c3.8,0,6.9-1,9.3-3.1
								c2.3-2.1,3.9-5.1,4.8-9H231.2z"/>
							<path d="M258.1,214.5c-3.7,0-7-0.6-10-1.8c-2.9-1.2-5.4-2.8-7.4-4.9c-2-2.1-3.6-4.7-4.6-7.6c-1.1-3-1.6-6.2-1.6-9.8
								c0-3.6,0.5-6.9,1.6-9.9c1.1-3,2.7-5.5,4.7-7.6c2-2.1,4.5-3.7,7.4-4.9c2.9-1.2,6.1-1.7,9.8-1.7c3.6,0,6.8,0.6,9.7,1.7
								c2.9,1.1,5.3,2.8,7.3,4.8c2,2.1,3.6,4.6,4.7,7.6c1.1,3,1.6,6.3,1.6,10c0,3.7-0.5,7-1.6,9.9c-1.1,2.9-2.6,5.5-4.7,7.6
								c-2,2.1-4.5,3.7-7.3,4.9C264.8,213.9,261.6,214.5,258.1,214.5z M258.1,204.3c7.4,0,11.1-4.6,11.1-14
								c0-9.2-3.7-13.9-11.1-13.9c-7.4,0-11.1,4.6-11.1,13.9C247,199.7,250.7,204.3,258.1,204.3z"/>
							<path d="M340.9,213.2v-27.7c0-2.8-0.7-5.1-2-6.8c-1.3-1.7-3-2.6-5.2-2.6c-2.2,0-4.1,0.9-5.5,2.8c-1.5,1.9-2.2,4.2-2.2,7v27.3
								h-12.1v-27.5c0-1.9-0.1-3.4-0.4-4.6c-0.2-1.2-0.7-2.1-1.3-2.8c-0.6-0.7-1.3-1.2-2.3-1.4c-0.9-0.3-2-0.4-3.3-0.4
								c-4.9,0-7.3,3-7.3,8.9v27.8h-12.1v-45.8h11.3v6.7c1.6-3,3.4-5.1,5.6-6.2c2.2-1.1,4.8-1.7,7.8-1.7c1.5,0,2.9,0.1,4.1,0.4
								c1.2,0.2,2.3,0.7,3.3,1.3c1,0.6,1.9,1.3,2.7,2.3c0.9,0.9,1.7,2,2.6,3.4c1.2-2.5,2.9-4.4,4.9-5.5c2-1.2,4.5-1.7,7.4-1.7
								c2.3,0,4.4,0.4,6.3,1.2c1.9,0.8,3.6,1.9,4.9,3.3c1.4,1.4,2.4,3,3.2,4.9c0.8,1.9,1.2,3.8,1.2,6v31.7H340.9z"/>
							<path d="M359.5,234.9v-67.4h11.6l0.1,5.6c2.8-4.5,7-6.8,12.7-6.8c2.8,0,5.5,0.6,8,1.7c2.5,1.1,4.5,2.7,6.3,4.8
								c1.7,2.1,3.1,4.7,4.1,7.7c1,3,1.5,6.5,1.5,10.3c0,3.5-0.4,6.7-1.3,9.5c-0.8,2.9-2.1,5.4-3.7,7.5c-1.6,2.1-3.6,3.7-5.9,4.9
								c-2.3,1.1-5,1.7-8,1.7c-5.6,0-10.2-2.4-13.6-7.2v27.6H359.5z M381.1,204.1c6.9,0,10.4-4.7,10.4-14.1c0-4.1-1-7.4-2.9-10
								c-1.9-2.6-4.4-3.9-7.4-3.9c-2.9,0-5.3,1.2-7.3,3.6c-2,2.4-2.9,5.6-2.9,9.5C370.9,199.2,374.3,204.1,381.1,204.1z"/>
							<path d="M438.3,213.3c-0.4-1.2-0.6-2.5-0.7-4c-1.4,1.6-3.3,2.9-5.7,3.8c-2.4,1-5.1,1.4-8.2,1.4c-5.3,0-9.1-1.2-11.6-3.5
								c-2.4-2.3-3.7-5.3-3.7-9c0-3.3,0.5-5.8,1.6-7.8c1.1-1.9,2.5-3.5,4.4-4.6c1.9-1.1,4.1-1.9,6.6-2.4c2.6-0.5,5.4-1,8.4-1.4
								c3-0.4,5.1-1,6.1-1.7c1.1-0.7,1.6-1.9,1.6-3.5c0-1.5-0.7-2.6-2.1-3.5c-1.4-0.8-3.3-1.2-5.6-1.2c-2.8,0-4.8,0.6-6,1.8
								c-1.2,1.2-2,2.9-2.3,4.9h-11.3c0.1-2.3,0.5-4.5,1.2-6.4c0.7-2,1.9-3.6,3.4-5.1c1.6-1.4,3.7-2.5,6.2-3.3
								c2.5-0.8,5.6-1.2,9.3-1.2c3.6,0,6.6,0.4,9.2,1.2s4.5,2,6,3.5c1.5,1.5,2.6,3.4,3.3,5.6c0.7,2.2,1,4.8,1,7.6v28.7H438.3z
								 M437.5,191c-0.6,0.6-1.5,1.1-2.7,1.5c-1.2,0.4-2.9,0.8-5.1,1.2c-3.5,0.7-5.9,1.5-7.2,2.6c-1.3,1-2,2.5-2,4.5
								c0,3.4,2,5.1,5.9,5.1c1.5,0,3-0.3,4.3-0.8c1.3-0.5,2.5-1.2,3.4-2.1c1-0.9,1.7-1.9,2.3-3.1c0.6-1.2,0.9-2.5,0.9-3.8L437.5,191
								z"/>
							<path d="M456.4,213.3v-45.3h11.3v5.4c1-1.5,2-2.7,3.1-3.6c1.1-0.9,2.2-1.5,3.3-2c1.1-0.5,2.3-0.8,3.5-0.9
								c1.2-0.1,2.4-0.2,3.6-0.2h1.6V179c-1.1-0.2-2.2-0.3-3.3-0.3c-7.4,0-11.1,3.7-11.1,11v23.6H456.4z"/>
							<path d="M540.4,213.3v-45.3h11.3v5.4c1-1.5,2-2.7,3.1-3.6c1.1-0.9,2.2-1.5,3.4-2c1.1-0.5,2.3-0.8,3.5-0.9
								c1.2-0.1,2.4-0.2,3.6-0.2h1.6V179c-1.1-0.2-2.2-0.3-3.3-0.3c-7.4,0-11.1,3.7-11.1,11v23.6H540.4z"/>
							<g>
								<g>
									<path d="M533.4,161.9c0,3.4-2.8,6.2-6.3,6.2c-3.5,0-6.3-2.8-6.3-6.2c0-3.4,2.8-6.2,6.3-6.2
										C530.6,155.7,533.4,158.5,533.4,161.9z"/>
								</g>
								<path d="M527.1,172.1c-2.2,0-4.2-0.7-5.9-1.8v43h12.1V170C531.6,171.3,529.5,172.1,527.1,172.1z"/>
							</g>
							<path d="M508.5,213.5c-11.5-0.4-13-9.2-13-12.7V179h-5.9v-10h5.9v-12h11v12h8.3v10h-8.3c0,0-0.5,9.5,0,18.4
								c0.5,8.8,8.4,6.3,8.4,6.3v9.5C514,213.5,509.6,213.6,508.5,213.5z"/>
						</g>
					</g>
					<g>
						<path d="M121.6,139.1v-61h44.8v10.7H134v13h29.9v10.7H134v15.7h33.9v10.8H121.6z"/>
						<path d="M201.6,139.1l-0.1-5.5c-2.8,4.5-7,6.7-12.6,6.7c-2.9,0-5.5-0.6-7.9-1.7c-2.4-1.1-4.4-2.7-6.2-4.8
							c-1.7-2.1-3.1-4.6-4-7.6c-1-3-1.5-6.4-1.5-10.2c0-3.4,0.4-6.6,1.2-9.4c0.8-2.8,2-5.3,3.6-7.4c1.6-2.1,3.5-3.7,5.8-4.8
							c2.3-1.1,4.9-1.7,7.9-1.7c5.6,0,10,2.4,13.4,7.1V77.4h11.8v61.7H201.6z M191.7,130.6c2.9,0,5.3-1.2,7.2-3.6
							c1.9-2.4,2.9-5.5,2.9-9.4c0-9.8-3.3-14.7-10-14.7c-6.9,0-10.3,4.7-10.3,14c0,4,0.9,7.3,2.8,9.9
							C186.2,129.3,188.7,130.6,191.7,130.6z"/>
						<path d="M247.2,139.1v-6.3c-3.1,5-7.8,7.5-14.1,7.5c-2.3,0-4.3-0.4-6.2-1.2c-1.9-0.8-3.5-1.9-4.8-3.4
							c-1.3-1.5-2.4-3.2-3.2-5.2c-0.8-2-1.1-4.3-1.1-6.8V93.9h11.9v27.9c0,5.6,2.5,8.5,7.6,8.5c3.1,0,5.4-1,6.9-2.9
							c1.6-1.9,2.3-4.4,2.3-7.4V93.9h11.9v45.2H247.2z"/>
						<path d="M304,122.8c-0.3,2.6-1.1,5-2.3,7.2c-1.2,2.1-2.7,4-4.5,5.5c-1.8,1.5-3.9,2.7-6.3,3.6c-2.4,0.9-4.9,1.3-7.7,1.3
							c-3.1,0-5.9-0.5-8.4-1.5c-2.5-1-4.7-2.5-6.6-4.6c-1.8-2.1-3.3-4.6-4.3-7.6c-1-3-1.5-6.6-1.5-10.6c0-4,0.5-7.5,1.5-10.5
							c1-2.9,2.4-5.3,4.3-7.2c1.8-1.9,4.1-3.3,6.7-4.2c2.6-0.9,5.5-1.4,8.7-1.4c2.9,0,5.6,0.4,8,1.2c2.4,0.8,4.5,2,6.3,3.5
							c1.8,1.5,3.2,3.4,4.3,5.5c1,2.1,1.7,4.5,1.8,7.2h-12c-0.3-2.3-1.2-4.1-2.8-5.5c-1.6-1.3-3.5-2-5.7-2c-1.3,0-2.5,0.2-3.6,0.6
							c-1.1,0.4-2.1,1.1-2.9,2.2c-0.8,1-1.5,2.4-2,4c-0.5,1.7-0.7,3.7-0.7,6.2c0,5,0.9,8.6,2.7,11c1.8,2.4,3.8,3.6,6.2,3.6
							c2.3,0,4.3-0.6,6-1.9c1.6-1.3,2.6-3.2,2.8-5.6H304z"/>
						<path d="M335.3,139.1c-0.4-1.2-0.6-2.5-0.7-4c-1.4,1.6-3.3,2.9-5.6,3.8c-2.3,1-5,1.4-8.1,1.4c-5.2,0-9-1.1-11.4-3.4
							c-2.4-2.3-3.6-5.3-3.6-9c0-3.2,0.5-5.8,1.6-7.8c1-1.9,2.5-3.4,4.3-4.6c1.8-1.1,4-1.9,6.6-2.4c2.5-0.5,5.3-1,8.3-1.4
							c3-0.4,5-1,6.1-1.7c1-0.7,1.6-1.8,1.6-3.4c0-1.5-0.7-2.6-2.1-3.4c-1.4-0.8-3.2-1.2-5.6-1.2c-2.8,0-4.7,0.6-5.9,1.8
							c-1.2,1.2-2,2.8-2.3,4.9h-11.1c0.1-2.3,0.5-4.5,1.2-6.4c0.7-2,1.8-3.6,3.4-5.1c1.6-1.4,3.6-2.5,6.1-3.3
							c2.5-0.8,5.6-1.1,9.2-1.1c3.5,0,6.6,0.4,9,1.2c2.5,0.8,4.5,1.9,6,3.4c1.5,1.5,2.6,3.4,3.3,5.6c0.7,2.2,1,4.8,1,7.6v28.6H335.3
							z M334.5,117c-0.6,0.6-1.5,1.1-2.7,1.5c-1.2,0.4-2.8,0.8-5,1.2c-3.4,0.7-5.8,1.5-7.1,2.6c-1.3,1-1.9,2.5-1.9,4.5
							c0,3.4,1.9,5,5.8,5c1.5,0,3-0.3,4.3-0.8c1.3-0.5,2.5-1.2,3.4-2.1c1-0.9,1.7-1.9,2.3-3.1c0.6-1.2,0.9-2.5,0.9-3.8L334.5,117z"
							/>
						<path d="M391.9,122.8c-0.3,2.6-1.1,5-2.3,7.2c-1.2,2.1-2.7,4-4.5,5.5c-1.8,1.5-3.9,2.7-6.3,3.6c-2.4,0.9-4.9,1.3-7.7,1.3
							c-3.1,0-5.9-0.5-8.4-1.5c-2.5-1-4.7-2.5-6.6-4.6c-1.8-2.1-3.3-4.6-4.3-7.6c-1-3-1.5-6.6-1.5-10.6c0-4,0.5-7.5,1.5-10.5
							c1-2.9,2.4-5.3,4.3-7.2c1.8-1.9,4.1-3.3,6.7-4.2c2.6-0.9,5.5-1.4,8.7-1.4c2.9,0,5.6,0.4,8,1.2c2.4,0.8,4.5,2,6.3,3.5
							c1.8,1.5,3.2,3.4,4.3,5.5c1,2.1,1.6,4.5,1.8,7.2h-12c-0.3-2.3-1.2-4.1-2.8-5.5c-1.6-1.3-3.5-2-5.8-2c-1.3,0-2.5,0.2-3.6,0.6
							c-1.1,0.4-2.1,1.1-2.9,2.2c-0.8,1-1.5,2.4-2,4c-0.5,1.7-0.7,3.7-0.7,6.2c0,5,0.9,8.6,2.7,11c1.8,2.4,3.8,3.6,6.2,3.6
							c2.3,0,4.3-0.6,6-1.9c1.6-1.3,2.6-3.2,2.8-5.6H391.9z"/>
						<path d="M434.4,140.3c-3.7,0-7-0.6-9.8-1.7c-2.9-1.2-5.3-2.8-7.3-4.9c-2-2.1-3.5-4.6-4.5-7.5c-1-2.9-1.6-6.2-1.6-9.6
							c0-3.5,0.5-6.8,1.6-9.7c1.1-2.9,2.6-5.4,4.6-7.5c2-2.1,4.5-3.7,7.3-4.8c2.9-1.1,6.1-1.7,9.7-1.7c3.5,0,6.7,0.6,9.5,1.7
							c2.8,1.1,5.2,2.7,7.2,4.8c2,2,3.5,4.5,4.6,7.5c1.1,2.9,1.6,6.2,1.6,9.8c0,3.6-0.5,6.9-1.6,9.8c-1.1,2.9-2.6,5.4-4.6,7.5
							c-2,2.1-4.4,3.7-7.3,4.8C441.1,139.8,437.9,140.3,434.4,140.3z M434.4,130.3c7.3,0,10.9-4.6,10.9-13.8
							c0-9.1-3.6-13.7-10.9-13.7c-7.3,0-10.9,4.6-10.9,13.7C423.5,125.7,427.2,130.3,434.4,130.3z M434.8,89.3l-2.7-3.8l7.6-6.9
							l4.3,5.5L434.8,89.3z M445.5,81.2c0,1.9-1.5,3.5-3.4,3.5c-1.9,0-3.4-1.6-3.4-3.5c0-1.9,1.5-3.5,3.4-3.5
							C444,77.7,445.5,79.3,445.5,81.2z M435.9,87.3c0,1.3-1,2.4-2.3,2.4c-1.3,0-2.3-1.1-2.3-2.4c0-1.3,1-2.4,2.3-2.4
							C434.8,85,435.9,86,435.9,87.3z"/>
						<path d="M490.2,139.1v-27.4c0-3.5-0.6-5.9-1.7-7.1c-1.2-1.2-3.2-1.8-6-1.8c-6.2,0-9.3,3.5-9.3,10.4v25.9h-11.9V93.9h11.4v6.6
							c1.4-2.6,3.3-4.5,5.6-5.8c2.3-1.3,5.3-2,9-2c2.1,0,4.1,0.3,6,1c1.8,0.6,3.4,1.6,4.7,2.9c1.3,1.3,2.4,2.9,3.1,4.7
							c0.8,1.9,1.1,4,1.1,6.5v31.3H490.2z"/>
						<g>
							<path d="M407.7,85.2c0,3.6-2.9,6.5-6.5,6.5c-3.6,0-6.5-2.9-6.5-6.5c0-3.6,2.9-6.5,6.5-6.5C404.8,78.6,407.7,81.5,407.7,85.2z
								"/>
						</g>
						<path d="M401.2,95.9c-2.3,0-4.4-0.7-6.1-1.9v45.1h12.6V93.6C405.8,95,403.6,95.9,401.2,95.9z"/>
					</g>
				</g>
			</g>
			<g>
				<g>
					<path d="M574,199.4c1.3,0,2.6,0.3,3.9,1c1.3,0.7,2.3,1.7,3,2.9c0.7,1.3,1.1,2.6,1.1,4c0,1.4-0.4,2.7-1.1,4
						c-0.7,1.3-1.7,2.3-2.9,3c-1.3,0.7-2.6,1-4,1c-1.4,0-2.7-0.4-4-1c-1.3-0.7-2.2-1.7-2.9-3c-0.7-1.3-1.1-2.6-1.1-4
						c0-1.4,0.4-2.7,1.1-4c0.7-1.3,1.7-2.3,3-2.9C571.4,199.8,572.7,199.4,574,199.4z M574,200.7c-1.1,0-2.2,0.3-3.3,0.9
						c-1.1,0.6-1.9,1.4-2.5,2.5c-0.6,1.1-0.9,2.2-0.9,3.3c0,1.1,0.3,2.2,0.9,3.3c0.6,1.1,1.4,1.9,2.5,2.5c1.1,0.6,2.2,0.9,3.3,0.9
						c1.1,0,2.2-0.3,3.3-0.9c1.1-0.6,1.9-1.4,2.5-2.5c0.6-1.1,0.9-2.2,0.9-3.3c0-1.2-0.3-2.3-0.9-3.3c-0.6-1.1-1.4-1.9-2.5-2.5
						C576.2,201,575.2,200.7,574,200.7z M570.5,211.8v-8.6h2.9c1,0,1.7,0.1,2.2,0.2c0.4,0.2,0.8,0.4,1.1,0.8
						c0.3,0.4,0.4,0.8,0.4,1.3c0,0.6-0.2,1.2-0.7,1.6c-0.4,0.5-1,0.7-1.8,0.8c0.3,0.1,0.5,0.3,0.7,0.5c0.3,0.3,0.8,0.9,1.3,1.7
						l1.1,1.7h-1.7l-0.8-1.4c-0.6-1.1-1.1-1.7-1.4-2c-0.3-0.2-0.6-0.3-1.1-0.3h-0.8v3.6H570.5z M571.9,207h1.7
						c0.8,0,1.3-0.1,1.6-0.4c0.3-0.2,0.4-0.6,0.4-1c0-0.3-0.1-0.5-0.2-0.7c-0.1-0.2-0.3-0.3-0.6-0.4c-0.3-0.1-0.7-0.1-1.4-0.1h-1.6
						V207z"/>
				</g>
			</g>
			<g>
				<g>
					<path d="M513.4,142v-23.2h4l0,1.9c1-1.6,2.4-2.3,4.4-2.3c1,0,1.9,0.2,2.7,0.6c0.8,0.4,1.6,0.9,2.2,1.7c0.6,0.7,1.1,1.6,1.4,2.7
						c0.3,1,0.5,2.2,0.5,3.5c0,1.2-0.1,2.3-0.4,3.3c-0.3,1-0.7,1.9-1.3,2.6c-0.6,0.7-1.2,1.3-2,1.7c-0.8,0.4-1.7,0.6-2.7,0.6
						c-1.9,0-3.5-0.8-4.7-2.5v9.5H513.4z M520.8,131.4c2.4,0,3.6-1.6,3.6-4.9c0-1.4-0.3-2.6-1-3.4c-0.7-0.9-1.5-1.3-2.6-1.3
						c-1,0-1.8,0.4-2.5,1.2c-0.7,0.8-1,1.9-1,3.3C517.3,129.7,518.4,131.4,520.8,131.4z"/>
					<path d="M539.8,134.6c-0.1-0.4-0.2-0.9-0.3-1.4c-0.5,0.6-1.1,1-1.9,1.3c-0.8,0.3-1.7,0.5-2.8,0.5c-1.8,0-3.1-0.4-4-1.2
						c-0.8-0.8-1.3-1.8-1.3-3.1c0-1.1,0.2-2,0.5-2.7c0.4-0.7,0.9-1.2,1.5-1.6c0.6-0.4,1.4-0.7,2.3-0.8c0.9-0.2,1.8-0.3,2.9-0.5
						c1-0.1,1.7-0.3,2.1-0.6c0.4-0.2,0.5-0.6,0.5-1.2c0-0.5-0.2-0.9-0.7-1.2c-0.5-0.3-1.1-0.4-1.9-0.4c-1,0-1.7,0.2-2.1,0.6
						c-0.4,0.4-0.7,1-0.8,1.7H530c0-0.8,0.2-1.6,0.4-2.2c0.2-0.7,0.6-1.3,1.2-1.8c0.5-0.5,1.2-0.9,2.1-1.1c0.9-0.3,2-0.4,3.2-0.4
						c1.2,0,2.3,0.1,3.2,0.4c0.9,0.3,1.6,0.7,2.1,1.2c0.5,0.5,0.9,1.2,1.1,2c0.2,0.8,0.3,1.7,0.3,2.6v9.9H539.8z M539.5,126.8
						c-0.2,0.2-0.5,0.4-0.9,0.5c-0.4,0.1-1,0.3-1.8,0.4c-1.2,0.2-2,0.5-2.5,0.9c-0.4,0.4-0.7,0.9-0.7,1.6c0,1.2,0.7,1.8,2,1.8
						c0.5,0,1-0.1,1.5-0.3c0.5-0.2,0.8-0.4,1.2-0.7c0.3-0.3,0.6-0.7,0.8-1.1c0.2-0.4,0.3-0.9,0.3-1.3L539.5,126.8z"/>
					<path d="M545.3,134.6v-15.7h3.9v1.9c0.3-0.5,0.7-1,1.1-1.2c0.4-0.3,0.8-0.5,1.1-0.7c0.4-0.2,0.8-0.3,1.2-0.3
						c0.4,0,0.8-0.1,1.2-0.1h0.5v4.3c-0.4-0.1-0.8-0.1-1.2-0.1c-2.5,0-3.8,1.3-3.8,3.8v8.2H545.3z"/>
					<path d="M564.6,134.6c-0.1-0.4-0.2-0.9-0.3-1.4c-0.5,0.6-1.1,1-2,1.3c-0.8,0.3-1.7,0.5-2.8,0.5c-1.8,0-3.1-0.4-4-1.2
						c-0.8-0.8-1.3-1.8-1.3-3.1c0-1.1,0.2-2,0.5-2.7c0.4-0.7,0.9-1.2,1.5-1.6c0.6-0.4,1.4-0.7,2.3-0.8c0.9-0.2,1.8-0.3,2.9-0.5
						c1.1-0.1,1.8-0.3,2.1-0.6c0.4-0.2,0.5-0.6,0.5-1.2c0-0.5-0.2-0.9-0.7-1.2c-0.5-0.3-1.1-0.4-1.9-0.4c-1,0-1.6,0.2-2.1,0.6
						c-0.4,0.4-0.7,1-0.8,1.7h-3.9c0-0.8,0.2-1.6,0.4-2.2c0.2-0.7,0.6-1.3,1.2-1.8c0.5-0.5,1.3-0.9,2.1-1.1c0.9-0.3,1.9-0.4,3.2-0.4
						c1.2,0,2.3,0.1,3.1,0.4c0.9,0.3,1.6,0.7,2.1,1.2c0.5,0.5,0.9,1.2,1.1,2c0.2,0.8,0.3,1.7,0.3,2.6v9.9H564.6z M564.3,126.8
						c-0.2,0.2-0.5,0.4-0.9,0.5c-0.4,0.1-1,0.3-1.8,0.4c-1.2,0.2-2,0.5-2.5,0.9c-0.4,0.4-0.7,0.9-0.7,1.6c0,1.2,0.7,1.8,2,1.8
						c0.5,0,1-0.1,1.5-0.3c0.5-0.2,0.8-0.4,1.2-0.7c0.3-0.3,0.6-0.7,0.8-1.1c0.2-0.4,0.3-0.9,0.3-1.3L564.3,126.8z"/>
				</g>
			</g>
		</g>
	</g>
</g>
</svg>
