<?xml version="1.0" encoding="utf-8"?>
<!-- Generator: Adobe Illustrator 25.0.0, SVG Export Plug-In . SVG Version: 6.00 Build 0)  -->
<svg version="1.1" id="Capa_1" xmlns="http://www.w3.org/2000/svg" xmlns:xlink="http://www.w3.org/1999/xlink" x="0px" y="0px"
	 viewBox="0 0 815 673" style="enable-background:new 0 0 815 673;" xml:space="preserve">
<g>
	<g>
		<path d="M335.62,3.16H176.05C41.8,3.16,3.85,83.99,3.85,261.13c0,148.31,26.01,243.91,165.89,243.91h165.89V3.16z M234.4,430.53
			h-42.88c-76.62,0-86.46-58.34-86.46-172.22c0-136.36,14.06-180.64,84.35-180.64h44.98V430.53z"/>
		<path d="M478.22,3.16h159.57c134.25,0,172.21,80.83,172.21,257.97c0,148.31-26.01,243.91-165.89,243.91H478.22V3.16z
			 M579.44,430.53h42.88c76.62,0,86.46-58.34,86.46-172.22c0-136.36-14.06-180.64-84.35-180.64h-44.98V430.53z"/>
		<path d="M731.76,615.28c0-2.07-0.42-3.83-1.26-5.28c-0.84-1.45-2.13-2.18-3.88-2.18c-1.93,0-3.35,0.63-4.26,1.89
			c-0.9,1.26-1.36,2.67-1.36,4.21c0,2.26,0.73,4.06,2.18,5.38c1.46,1.32,3.28,2.47,5.48,3.43c2.19,0.97,4.56,1.96,7.07,2.96
			c2.52,1,4.88,2.31,7.07,3.92s4.02,3.73,5.47,6.34c1.46,2.62,2.19,6.03,2.19,10.23c0,7.36-2.1,12.7-6.29,16.03
			c-4.2,3.33-10.27,4.99-18.21,4.99c-3.75,0-7.06-0.31-9.93-0.92c-2.88-0.61-5.29-1.68-7.27-3.2c-1.97-1.52-3.47-3.5-4.5-5.95
			c-1.04-2.46-1.54-5.49-1.54-9.11v-2.42h17.43v1.65c0,2.98,0.54,5.06,1.64,6.25c1.1,1.19,2.52,1.79,4.27,1.79
			c1.87,0,3.31-0.64,4.31-1.94c1-1.29,1.5-2.87,1.5-4.74c0-2.26-0.69-4.06-2.08-5.38c-1.39-1.33-3.13-2.45-5.23-3.39
			c-2.1-0.94-4.37-1.89-6.83-2.86c-2.46-0.97-4.73-2.22-6.83-3.77c-2.1-1.55-3.84-3.58-5.23-6.1s-2.08-5.81-2.08-9.88
			c0-7.03,1.87-12.39,5.62-16.08c3.75-3.68,9.43-5.51,17.05-5.51c7.88,0,13.58,1.69,17.1,5.08c3.52,3.39,5.28,8.8,5.28,16.22h-16.85
			V615.28z M690.11,596.97v14.72h-22.95v11.82h21.51v14.14h-21.51v13.75h23.82v14.72h-41.84v-69.16H690.11z M682.56,577.98
			l-9.3,14.14h-11.24l4.27-14.14H682.56z M605.27,646.85c0,3.36,0.48,5.6,1.45,6.73c0.97,1.13,2.29,1.69,3.98,1.69
			c1.68,0,3-0.56,3.97-1.69c0.97-1.13,1.46-3.37,1.46-6.73v-49.88h18.01v45.33c0,4.85-0.52,8.88-1.55,12.11
			c-1.03,3.23-2.53,5.81-4.5,7.74c-1.97,1.94-4.41,3.27-7.31,3.98c-2.91,0.71-6.26,1.06-10.07,1.06c-3.75,0-7.09-0.35-10.03-1.06
			c-2.93-0.71-5.39-2.04-7.36-3.98c-1.97-1.93-3.48-4.51-4.5-7.74c-1.04-3.23-1.55-7.27-1.55-12.11v-45.33h18.02V646.85z
			 M555.1,596.97c3.42,0,6.39,0.55,8.91,1.65c2.52,1.1,4.6,2.6,6.25,4.5c1.64,1.9,2.85,4.14,3.63,6.73
			c0.78,2.58,1.17,5.39,1.17,8.43c0,7.16-1.92,12.54-5.77,16.12c-3.84,3.58-9.47,5.37-16.9,5.37h-6.3v26.35h-18.01v-69.16H555.1z
			 M549.48,626.8c2.26,0,3.98-0.68,5.18-2.04c1.19-1.36,1.79-3.48,1.79-6.39c0-5.62-2.33-8.43-6.97-8.43h-3.4v16.85H549.48z
			 M496.4,615.28c0-2.07-0.42-3.83-1.26-5.28c-0.83-1.45-2.12-2.18-3.87-2.18c-1.94,0-3.36,0.63-4.27,1.89
			c-0.9,1.26-1.35,2.67-1.35,4.21c0,2.26,0.73,4.06,2.18,5.38c1.46,1.32,3.27,2.47,5.48,3.43c2.19,0.97,4.55,1.96,7.07,2.96
			c2.52,1,4.88,2.31,7.07,3.92c2.19,1.62,4.02,3.73,5.47,6.34c1.46,2.62,2.18,6.03,2.18,10.23c0,7.36-2.1,12.7-6.29,16.03
			c-4.2,3.33-10.26,4.99-18.2,4.99c-3.75,0-7.06-0.31-9.93-0.92c-2.88-0.61-5.3-1.68-7.27-3.2s-3.48-3.5-4.5-5.95
			c-1.04-2.46-1.55-5.49-1.55-9.11v-2.42h17.44v1.65c0,2.98,0.54,5.06,1.64,6.25s2.52,1.79,4.27,1.79c1.87,0,3.31-0.64,4.31-1.94
			c1-1.29,1.5-2.87,1.5-4.74c0-2.26-0.69-4.06-2.08-5.38c-1.4-1.33-3.13-2.45-5.23-3.39c-2.1-0.94-4.38-1.89-6.83-2.86
			c-2.46-0.97-4.73-2.22-6.83-3.77c-2.1-1.55-3.84-3.58-5.23-6.1s-2.08-5.81-2.08-9.88c0-7.03,1.87-12.39,5.62-16.08
			c3.74-3.68,9.43-5.51,17.05-5.51c7.87,0,13.57,1.69,17.09,5.08c3.52,3.39,5.28,8.8,5.28,16.22H496.4V615.28z M454.75,596.97v14.72
			H431.8v11.82h21.5v14.14h-21.5v13.75h23.82v14.72h-41.84v-69.16H454.75z M372.51,653.14c1.75,0,3.13-0.24,4.17-0.73
			c1.03-0.48,1.83-1.5,2.37-3.05c0.55-1.55,0.9-3.75,1.07-6.59c0.16-2.84,0.24-6.58,0.24-11.24c0-4.64-0.08-8.39-0.24-11.24
			c-0.17-2.84-0.52-5.03-1.07-6.58c-0.54-1.55-1.34-2.56-2.37-3.05c-1.04-0.48-2.42-0.72-4.17-0.72h-3.58v43.19H372.51z
			 M377.07,596.97c5.23,0,9.3,0.96,12.2,2.86c2.91,1.9,5.09,4.45,6.54,7.65c1.46,3.2,2.34,6.88,2.67,11.04
			c0.32,4.17,0.48,8.51,0.48,13.03c0,4.52-0.17,8.87-0.48,13.03c-0.32,4.16-1.21,7.84-2.67,11.04c-1.45,3.2-3.63,5.74-6.54,7.65
			s-6.97,2.86-12.2,2.86h-26.15v-69.16H377.07z"/>
		<path d="M291.73,596.97l-18.3,69.16h14.53l3.2-14.63h18.41l3.2,14.63h14.53l-18.3-69.16H291.73z M293.58,640.07l6.68-31.09h0.2
			l6.68,31.09H293.58z M246.7,596.97h13.95v69.16H246.7V596.97z M265.97,578.95l-9.49,13.95h-9.11l5.23-13.95H265.97z M206.7,596.97
			c4.85,0,8.75,0.79,11.72,2.37c2.97,1.59,5.28,3.84,6.93,6.79c1.65,2.93,2.76,6.47,3.34,10.6c0.58,4.13,0.87,8.75,0.87,13.85
			c0,6.07-0.37,11.35-1.11,15.83c-0.74,4.49-2.02,8.19-3.83,11.09c-1.81,2.91-4.23,5.06-7.26,6.49c-3.04,1.42-6.88,2.13-11.52,2.13
			h-21.99v-69.16H206.7z M203.99,655.86c2.45,0,4.42-0.42,5.91-1.26c1.48-0.84,2.67-2.23,3.54-4.17c0.87-1.94,1.45-4.49,1.75-7.65
			c0.29-3.16,0.43-7.1,0.43-11.81c0-3.94-0.13-7.39-0.39-10.37c-0.25-2.97-0.79-5.43-1.6-7.41c-0.81-1.97-2-3.45-3.58-4.45
			c-1.59-1-3.7-1.5-6.35-1.5h-5.91v48.62H203.99z"/>
	</g>
	<path d="M69.45,596.97v69.16h36.9v-7.56H77.98v-24.8h25.67v-7.55H77.98v-21.71h27.21v-7.55H69.45z M121.56,596.97v69.16h36.61
		v-7.56h-28.09v-61.6H121.56z"/>
	<rect x="398.98" y="3.85" width="20.04" height="500.5"/>
</g>
</svg>
