<?xml version="1.0" encoding="utf-8"?>
<!-- Generator: Adobe Illustrator 25.0.0, SVG Export Plug-In . SVG Version: 6.00 Build 0)  -->
<svg version="1.1" id="Layer_1" xmlns="http://www.w3.org/2000/svg" xmlns:xlink="http://www.w3.org/1999/xlink" x="0px" y="0px"
	 viewBox="0 0 188.67 215.82" style="enable-background:new 0 0 188.67 215.82;" xml:space="preserve">
<style type="text/css">
	.st0{fill-rule:evenodd;clip-rule:evenodd;}
</style>
<g>
	<g>
		<path class="st0" d="M18.66,79.31C18.47,37.44,52.41,3.18,94.15,2.99c41.78-0.19,76.11,33.75,76.3,75.62
			c0.19,41.74-33.81,76.06-75.6,76.25C53.11,155.05,18.85,121.04,18.66,79.31z M94.82,148.96c38.56-0.18,69.84-31.83,69.67-70.33
			c-0.18-38.62-31.75-69.9-70.31-69.72c-38.52,0.18-69.8,31.75-69.62,70.37C24.74,117.77,56.31,149.14,94.82,148.96z"/>
		<path class="st0" d="M150.8,101.5c0.42,0.17,0.78,0.41,1.14,0.75c0.55,0.56,0.8,1.19,0.8,2.05c0,0.82-0.24,1.57-0.91,2.12
			c-0.25,0.29-0.6,0.5-1,0.65l0-0.52c0.25-0.13,0.46-0.28,0.69-0.51c0.48-0.48,0.73-1.11,0.73-1.74c0-0.67-0.26-1.23-0.74-1.74
			c-0.19-0.21-0.42-0.37-0.69-0.47L150.8,101.5L150.8,101.5z M150.82,105.91l0.38,0l0-0.04c0-0.08,0-0.08,0-0.08
			c0-0.11,0-0.11,0-0.17l0-0.25c0-0.31-0.19-0.56-0.38-0.75L150.82,105.91L150.82,105.91z M150.81,104.33
			c0.04-0.04,0.09-0.08,0.13-0.15c0.12-0.06,0.25-0.32,0.25-0.55c0-0.29-0.17-0.63-0.38-0.73L150.81,104.33z M150.42,101.4
			c0.13,0.02,0.25,0.06,0.38,0.1l0,0.59c-0.12-0.06-0.23-0.1-0.38-0.14L150.42,101.4L150.42,101.4z M150.83,107.07
			c-0.12,0.04-0.25,0.07-0.38,0.11l0-0.5c0.15-0.04,0.27-0.09,0.38-0.13L150.83,107.07L150.83,107.07z M150.81,102.9l0.01,1.42
			c-0.1,0.08-0.23,0.11-0.38,0.11l-0.01-1.67c0.13,0,0.25,0.06,0.32,0.13C150.77,102.88,150.79,102.9,150.81,102.9L150.81,102.9z
			 M150.82,104.62L150.82,104.62c-0.06-0.06-0.18-0.12-0.38-0.19l0.01,1.48l0.38,0L150.82,104.62L150.82,104.62z M148.84,107.1
			l0-0.5c0.1,0.04,0.21,0.06,0.31,0.08l0,0.5C149.05,107.16,148.95,107.12,148.84,107.1L148.84,107.1z M148.84,105.92l-0.02-3.28
			c0.1,0,0.21,0,0.31,0l0.01,3.28L148.84,105.92L148.84,105.92z M148.82,102.03l0-0.52c0.1-0.05,0.21-0.09,0.31-0.11l0,0.54
			C149.03,101.97,148.92,102.01,148.82,102.03L148.82,102.03z M149.76,101.91c0.25,0,0.48,0,0.67,0.04l0-0.54
			c-0.19-0.06-0.41-0.06-0.67-0.06L149.76,101.91L149.76,101.91z M150.45,107.17l0-0.5c-0.19,0.06-0.41,0.12-0.67,0.13l0,0.51
			C150.04,107.3,150.26,107.24,150.45,107.17L150.45,107.17z M150.43,102.76c-0.06-0.06-0.19-0.06-0.31-0.06
			c0-0.06-0.19-0.06-0.36-0.06l0,0.56c0.17,0.12,0.26,0.12,0.36,0.12c0.12,0.06,0.19,0.25,0.19,0.38c0,0.16-0.06,0.23-0.12,0.35
			c-0.06,0.06-0.25,0.13-0.42,0.13l0,0.63c0.17,0,0.26,0,0.26,0.06c0.17,0,0.23,0.06,0.23,0.25c0,0,0.07,0.19,0.07,0.31
			c0,0.25,0,0.44,0,0.48l0.12,0l-0.01-1.48c0,0-0.06,0-0.12,0c0.06,0,0.12,0,0.12,0L150.43,102.76L150.43,102.76z M149.16,107.18
			c0.19,0.06,0.44,0.12,0.63,0.12l0-0.51c-0.19,0-0.44-0.06-0.63-0.12L149.16,107.18L149.16,107.18z M149.15,105.92l0.25,0l0-1.11
			l0.12,0l0.25,0l0-0.63c0,0,0,0-0.06,0l-0.31,0l0-0.98l0.25,0c0.06,0,0.12,0,0.12,0l0-0.56c-0.06,0-0.12,0-0.31,0
			c-0.12,0-0.19,0-0.31,0L149.15,105.92L149.15,105.92z M149.13,101.95c0.19-0.04,0.44-0.04,0.63-0.04l0-0.57
			c-0.19,0-0.44,0-0.63,0.07L149.13,101.95z M148.82,101.51l0,0.52c-0.25,0.11-0.5,0.28-0.69,0.55c-0.48,0.51-0.73,1.07-0.73,1.74
			c0,0.63,0.26,1.26,0.74,1.73c0.19,0.23,0.44,0.42,0.69,0.54l0,0.5c-0.42-0.15-0.78-0.38-1.11-0.73c-0.57-0.48-0.82-1.23-0.82-2.05
			c0-0.86,0.3-1.61,0.87-2.18C148.11,101.91,148.44,101.66,148.82,101.51L148.82,101.51z M148.82,102.64c-0.13,0-0.23,0-0.31,0
			l0.02,3.28l0.31,0L148.82,102.64z"/>
		<path class="st0" d="M81.81,76.55c4.52,10.59,17.17,6.91,14.57-3.12C95.13,84.29,87.64,83.95,81.81,76.55z"/>
		<path class="st0" d="M113.27,69.43c0.53,10.48-10.5,13.59-15.7,3.32C105.98,82.38,111.92,77.45,113.27,69.43z"/>
		<path class="st0" d="M95.97,25.1c-1.53,17.6-6.02,25.13-14.13,16.28c-4.42-4.75-4.42-6.19-1.24-1.79
			C88.03,49.73,93.63,40.02,95.97,25.1z"/>
		<path class="st0" d="M76.64,17.42c11.77,7.35,17.29,7.14,20.99,4.82C91.34,23.75,84.3,21.8,76.64,17.42z"/>
		<path class="st0" d="M74.47,18.37c3.08,10.68,5.98,16.98,7.01,22.02c1.33,6.81-0.58,11.99-5.23,14.06
			c2.16-2.56,2.04-2.81,2.71-6.1C80.6,40.08,76.4,32.21,74.47,18.37z"/>
		<path class="st0" d="M94.93,40.58c-0.71,4.58,0.6,7.32,4.26,8.12C96.33,48.9,95.52,45.04,94.93,40.58z"/>
		<path class="st0" d="M84.27,43.73c3.26,3.46,3.5,6.51,0.8,9.26C87.56,51.6,86.22,47.82,84.27,43.73z"/>
		<path class="st0" d="M103.11,49.04c3.41,0.55,7.77,1.85,10.75,3.44c2.81,1.35,6.58,11.27,9.1,17.91
			c2.33,6.27-0.49,16.51-2.13,24.03c0.53-7.28,2.95-18.32,0.14-24.52c-4.65-10.1-5.84-13.64-7.39-15.87
			C111.87,51.8,109.81,50.77,103.11,49.04z"/>
		<path class="st0" d="M102.77,97.06c-0.25,0.67-0.49,1.24-0.74,1.93c-0.97,2.35,1.33,2.53,2.43,0.11
			C101.62,101.58,101.84,99.97,102.77,97.06z"/>
		<path class="st0" d="M96.46,23.23c-1.12,25.43,1.59,23.17,10.12,24.81C98.17,43.85,96.8,41.31,96.46,23.23z"/>
		<path class="st0" d="M78.75,16.05c19.56-8.79,21.62,4.98,20.88,22.52C100.3,19.43,94.29,9.52,78.75,16.05z"/>
		<path class="st0" d="M89.27,101.26l2.16-0.01c0.39-2.03,0.48-4.1-0.01-6.19c-0.64-2.67-3.76-7.58-4.52-9.19
			c-2.96-6.14-4.51-8.35-9.75-13.66C83.91,83.25,91.53,92.07,89.27,101.26z"/>
		<polygon class="st0" points="37.03,101.15 50.12,101.09 50.13,102.82 40.57,102.87 40.59,106.65 50.15,106.61 50.15,108.35 
			40.6,108.39 40.63,114.86 37.09,114.87 		"/>
		<path class="st0" d="M69.87,100.99l3.56-0.02l0.04,7.76c0,1.05-0.18,1.8-0.43,2.42c-0.25,0.48-0.62,0.99-1.06,1.3
			c-0.29,0.32-0.79,0.7-1.42,0.99c-1.92,0.95-4.54,1.34-7.63,1.35c-3.22,0.01-5.78-0.35-7.71-1.28c-0.57-0.29-1.07-0.67-1.49-0.98
			c-0.38-0.31-0.76-0.81-1.01-1.29c-0.32-0.5-0.38-1.37-0.39-2.42l-0.04-7.76l3.47-0.02l0.04,7.76c0.01,1.36,0.32,2.17,0.83,2.71
			c0.57,0.5,1.3,0.81,2.37,1.18c1.11,0.31,2.43,0.49,3.91,0.48c2.05-0.01,3.72-0.39,5.02-0.96c0.75-0.32,1.25-0.76,1.5-1.18
			c0.31-0.5,0.48-1.25,0.47-2.3L69.87,100.99z"/>
		<path class="st0" d="M96.87,111.17l0.01,2.18c-2.53,0.76-5.5,1.21-8.87,1.23c-2.72,0.01-5.02-0.35-6.95-0.91
			c-1.86-0.53-3.48-1.47-4.55-2.51c-1.12-1.06-1.62-2.23-1.63-3.48c-0.01-1.99,1.21-3.67,3.76-5.04c2.55-1.33,5.64-2.01,9.36-2.03
			c2.55-0.01,5.49,0.29,8.56,1.01l0.01,2.18c-2.77-0.91-5.57-1.4-8.38-1.39c-2.78,0.01-5.14,0.53-6.94,1.52
			c-1.86,1.01-2.79,2.25-2.79,3.74c0.01,1.5,0.95,2.73,2.76,3.71c1.8,0.87,4.23,1.36,7.02,1.35
			C91.25,112.7,94.09,112.18,96.87,111.17z"/>
		<path class="st0" d="M110.04,101l-1.17,0.01l-1.36,0.01l-10.44,13.77l3.54-0.02l3.16-4.12l5.15-0.02l5.21-0.02l3.32,4.09
			l3.66-0.02L110.04,101z M108.91,108.96l-3.85,0.02l3.71-5l0.12,0.12l3.87,4.84L108.91,108.96z"/>
		<polygon class="st0" points="141.74,101.08 145.03,101.07 145.09,114.69 141.55,114.71 141.5,104.14 134,109.45 133.39,109.45 
			125.67,104.21 125.72,114.78 122.22,114.79 122.16,101.17 125.46,101.16 133.7,106.73 		"/>
		<path class="st0" d="M95.66,132.49c0.44-0.88,0.93-1.87,1.41-2.88c2.4-4.65,2.24-12.54-4.32-12.51c-0.17,0-0.23,0-0.42,0
			c-6.15,0.38-6.61,8.59-3.5,13.18c0.57,0.88,1.2,1.67,1.77,2.48c0,0,0.04,0.13,0.04,0.19c-1.66,3.23-3.38,6.46-5.04,9.59
			c1.07,1.54,1.75,2.54,2.95,4.02c1.28-2.87,2.82-5.6,4.29-8.41c0.19-0.38,0.31-0.69,0.5-0.99c1.81,2.78,3.48,5.63,5.31,8.47
			c0.91-1.49,1.78-2.92,2.76-4.43C99.54,138.38,97.6,135.45,95.66,132.49z M93.05,128.65c-0.07-0.19-0.19-0.25-0.25-0.44
			c-1.18-1.48-2.48-3.21-2.74-4.71c-0.45-1.92,1.16-3.04,2.71-3.11c1.44-0.07,2.79,0.74,2.63,2.77
			C95.27,124.92,94.11,126.91,93.05,128.65z"/>
		<g>
			<path class="st0" d="M79.45,122.46c-0.3-0.62-0.57-1.25-0.87-1.9c-0.27-0.64-0.53-1.25-0.78-1.82c-0.09,0.02-0.15,0.05-0.23,0.05
				c-0.06,0.02-0.13,0.02-0.21,0.02c-0.08,0-0.15,0-0.21-0.02c-0.09,0-0.15-0.02-0.23-0.04c0,0.02-0.02,0.05-0.02,0.06
				c-0.17,0.38-0.33,0.76-0.54,1.17c-0.19,0.44-0.39,0.88-0.6,1.34c-0.21,0.46-0.41,0.9-0.62,1.35c-0.2,0.44-0.41,0.86-0.6,1.26
				c-0.16,0.38-0.35,0.73-0.5,1.03c-0.15,0.31-0.27,0.54-0.35,0.73c0.1-0.02,0.19-0.02,0.29-0.02c0.09,0,0.19,0,0.27,0
				c0.09,0,0.19,0,0.27,0c0.08,0,0.17,0,0.27,0.02c0.11-0.33,0.23-0.67,0.35-1c0.13-0.34,0.27-0.69,0.42-1.03c0.21,0,0.4,0,0.61,0
				c0.19-0.02,0.4-0.02,0.58-0.02c0.06,0,0.11,0,0.17,0c0.19,0,0.38,0,0.57,0.02c0.25,0,0.5,0,0.75,0c0.15,0.33,0.27,0.69,0.4,1.03
				c0.15,0.33,0.27,0.67,0.4,1c0.15-0.02,0.31-0.02,0.48-0.02c0.17,0,0.33,0,0.48,0c0.17,0,0.34,0,0.5,0c0.15,0,0.33,0,0.52,0.02
				c-0.23-0.39-0.48-0.85-0.76-1.42C80.02,123.67,79.72,123.08,79.45,122.46z M76.92,123.06l-1.07,0c0.18-0.42,0.35-0.8,0.52-1.19
				c0.17-0.38,0.35-0.76,0.54-1.13c0-0.02,0.02-0.04,0.02-0.06c0.19,0.42,0.36,0.79,0.53,1.19c0.17,0.39,0.34,0.77,0.51,1.19
				L76.92,123.06z"/>
			<path class="st0" d="M83.43,124.39c-0.19-0.15-0.4-0.23-0.67-0.23c-0.25,0-0.48,0.09-0.65,0.24c-0.19,0.16-0.29,0.35-0.29,0.58
				c0,0.23,0.11,0.42,0.3,0.56c0.17,0.15,0.4,0.23,0.65,0.23c0.27,0,0.48-0.09,0.67-0.24c0.19-0.15,0.27-0.34,0.27-0.57
				C83.71,124.74,83.62,124.55,83.43,124.39z"/>
		</g>
		<g>
			<path class="st0" d="M107.87,124.82c-0.04,0.13-0.09,0.27-0.09,0.42c-0.63,0.27-1.4,0.43-2.34,0.43c-0.67,0-1.27-0.08-1.8-0.25
				c-0.53-0.16-0.97-0.39-1.35-0.68c-0.36-0.29-0.63-0.65-0.82-1.05c-0.19-0.42-0.3-0.86-0.3-1.32c0-0.69,0.12-1.28,0.37-1.76
				c0.25-0.48,0.58-0.88,1-1.2c0.39-0.3,0.9-0.53,1.44-0.65c0.54-0.15,1.13-0.22,1.73-0.22c0.19,0,0.4,0,0.63,0.04
				c0.23,0.02,0.44,0.04,0.65,0.1c0.21,0.04,0.4,0.08,0.58,0.14c0.19,0.06,0.36,0.12,0.48,0.19c-0.08,0.17-0.14,0.34-0.18,0.5
				c-0.04,0.17-0.06,0.34-0.08,0.5l-0.14,0c-0.3-0.31-0.61-0.54-0.91-0.67c-0.31-0.14-0.67-0.2-1.09-0.2
				c-0.31,0-0.61,0.06-0.92,0.19c-0.31,0.11-0.58,0.3-0.83,0.55c-0.27,0.25-0.46,0.57-0.62,0.95c-0.15,0.38-0.23,0.84-0.23,1.36
				c0,0.53,0.09,0.96,0.24,1.32c0.17,0.36,0.38,0.67,0.63,0.9c0.27,0.23,0.56,0.4,0.88,0.5c0.34,0.1,0.65,0.14,0.98,0.14
				c0.19,0,0.38-0.02,0.57-0.04c0.19-0.05,0.38-0.08,0.56-0.15c0.19-0.06,0.36-0.15,0.52-0.25c0.17-0.08,0.31-0.19,0.44-0.3
				l0.15,0.06C107.98,124.53,107.91,124.67,107.87,124.82z"/>
			<path class="st0" d="M109.4,124.27c0.17-0.15,0.4-0.24,0.64-0.24c0.28,0,0.49,0.08,0.68,0.23c0.19,0.16,0.27,0.35,0.27,0.58
				c0,0.23-0.08,0.42-0.27,0.57c-0.19,0.15-0.4,0.23-0.67,0.24c-0.25,0-0.48-0.08-0.65-0.23c-0.19-0.15-0.28-0.34-0.28-0.56
				C109.13,124.62,109.21,124.44,109.4,124.27z"/>
		</g>
		<path class="st0" d="M146.58,114.95c0.12-0.54,0.27-0.94,0.37-1.23c0.12-0.27,0.23-0.46,0.35-0.55c0.1-0.08,0.25-0.13,0.42-0.13
			c0.11,0,0.21,0.02,0.32,0.04c0.1,0.04,0.19,0.08,0.27,0.14c0.1,0.07,0.17,0.15,0.23,0.25c0.04,0.1,0.06,0.21,0.07,0.33
			c0,0.08,0,0.17-0.04,0.27c-0.04,0.08-0.15,0.26-0.29,0.48c-0.14,0.23-0.37,0.57-0.67,0.99c-0.31,0.42-0.7,1.01-1.22,1.72
			l-0.32-0.12C146.27,116.23,146.43,115.5,146.58,114.95z"/>
		<path class="st0" d="M85.28,101.64c-3.81-8.52-6.92-16.27-9.42-24.27c-1.32-4.27-3.25-5.89-1.28-10.29
			c1.53-3.56,5.11-8.1,8.4-12.34c-3.52,3.24-4.14,4.41-7.31,7.98c-3.46,3.8-4.11,7.28-2.35,12.12c6.27,17.28,8.3,21.24,11.4,26.79
			L85.28,101.64z"/>
		<path class="st0" d="M122.81,101.46l1.32-0.01c-2.44-3.27-5.45-5.98-8.35-9.94c-3.24-4.34-2.5-6.56-2.46-11.91
			c0.1-5.88,0.38-12.41,0.11-17.3c0.34,9.25-3.03,17.63-1.45,26.45C115.06,94.68,118.96,96.27,122.81,101.46z"/>
	</g>
	<g>
		<path d="M31.28,174.86h7.55v2.82h-4.68v2.76h4.68v2.78h-4.68v6.85h-2.88V174.86z"/>
		<path d="M41.09,178.83h2.86v5.42c0,1.06,0.07,1.79,0.22,2.2c0.14,0.41,0.38,0.73,0.7,0.96c0.32,0.23,0.72,0.34,1.19,0.34
			c0.47,0,0.87-0.11,1.2-0.34c0.33-0.22,0.57-0.55,0.73-0.99c0.12-0.32,0.18-1.02,0.18-2.08v-5.51h2.82v4.77
			c0,1.97-0.16,3.31-0.47,4.03c-0.38,0.88-0.94,1.56-1.68,2.03c-0.74,0.47-1.68,0.71-2.81,0.71c-1.23,0-2.23-0.28-3-0.83
			c-0.76-0.55-1.3-1.32-1.61-2.31c-0.22-0.68-0.33-1.92-0.33-3.72V178.83z"/>
		<path d="M53.81,178.83h2.82v1.15c0.64-0.54,1.22-0.92,1.74-1.13c0.52-0.21,1.05-0.32,1.6-0.32c1.12,0,2.06,0.39,2.84,1.17
			c0.65,0.66,0.98,1.64,0.98,2.94v7.44H61v-4.93c0-1.34-0.06-2.24-0.18-2.68c-0.12-0.44-0.33-0.78-0.63-1.01
			c-0.3-0.23-0.67-0.35-1.11-0.35c-0.57,0-1.06,0.19-1.47,0.57c-0.41,0.38-0.69,0.91-0.85,1.59c-0.08,0.35-0.12,1.11-0.12,2.28v4.52
			h-2.82V178.83z"/>
		<path d="M74.83,174.48h2.82v15.6h-2.82v-1.19c-0.55,0.52-1.1,0.9-1.66,1.13c-0.55,0.23-1.16,0.35-1.8,0.35
			c-1.45,0-2.71-0.56-3.77-1.69c-1.06-1.13-1.59-2.53-1.59-4.21c0-1.74,0.51-3.16,1.54-4.27c1.03-1.11,2.27-1.67,3.74-1.67
			c0.67,0,1.31,0.13,1.9,0.38c0.59,0.25,1.14,0.64,1.64,1.15V174.48z M71.86,181.14c-0.87,0-1.6,0.31-2.18,0.93
			s-0.87,1.41-0.87,2.37c0,0.97,0.29,1.77,0.88,2.4c0.59,0.63,1.31,0.94,2.17,0.94c0.89,0,1.62-0.31,2.21-0.93
			c0.58-0.62,0.88-1.43,0.88-2.43c0-0.98-0.29-1.77-0.88-2.38C73.5,181.45,72.76,181.14,71.86,181.14z"/>
		<path d="M88.82,178.83h2.82v11.25h-2.82v-1.19c-0.55,0.52-1.1,0.9-1.66,1.13c-0.55,0.23-1.16,0.35-1.8,0.35
			c-1.45,0-2.71-0.56-3.77-1.69c-1.06-1.13-1.59-2.53-1.59-4.21c0-1.74,0.51-3.16,1.54-4.27c1.03-1.11,2.27-1.67,3.74-1.67
			c0.67,0,1.31,0.13,1.9,0.38c0.59,0.25,1.14,0.64,1.64,1.15V178.83z M85.85,181.14c-0.87,0-1.6,0.31-2.18,0.93
			s-0.87,1.41-0.87,2.37c0,0.97,0.29,1.77,0.88,2.4c0.59,0.63,1.31,0.94,2.17,0.94c0.89,0,1.62-0.31,2.21-0.93
			c0.58-0.62,0.88-1.43,0.88-2.43c0-0.98-0.29-1.77-0.88-2.38C87.48,181.45,86.74,181.14,85.85,181.14z"/>
		<path d="M105.52,181.1l-2.35,1.29c-0.44-0.46-0.88-0.78-1.31-0.96c-0.43-0.18-0.94-0.27-1.52-0.27c-1.06,0-1.91,0.31-2.56,0.94
			c-0.65,0.63-0.98,1.44-0.98,2.42c0,0.96,0.31,1.74,0.94,2.34c0.63,0.61,1.45,0.91,2.47,0.91c1.26,0,2.25-0.43,2.95-1.29l2.23,1.52
			c-1.21,1.57-2.91,2.36-5.11,2.36c-1.98,0-3.53-0.59-4.65-1.76c-1.12-1.17-1.68-2.54-1.68-4.12c0-1.09,0.27-2.09,0.82-3.01
			s1.31-1.64,2.28-2.16s2.07-0.79,3.27-0.79c1.12,0,2.12,0.22,3.01,0.67C104.22,179.65,104.95,180.28,105.52,181.1z"/>
		<path d="M109.16,174.19c0.5,0,0.92,0.18,1.27,0.54c0.35,0.36,0.53,0.79,0.53,1.3c0,0.5-0.18,0.93-0.53,1.29
			c-0.35,0.36-0.77,0.53-1.26,0.53c-0.5,0-0.93-0.18-1.28-0.54c-0.35-0.36-0.53-0.8-0.53-1.32c0-0.5,0.18-0.92,0.53-1.27
			S108.67,174.19,109.16,174.19z M107.75,178.83h2.82v11.25h-2.82V178.83z"/>
		<path d="M118.43,178.54c1.06,0,2.06,0.27,3,0.8s1.66,1.25,2.19,2.16c0.52,0.91,0.79,1.89,0.79,2.95c0,1.06-0.26,2.05-0.79,2.98
			c-0.53,0.92-1.25,1.65-2.16,2.17s-1.91,0.78-3.01,0.78c-1.61,0-2.99-0.57-4.13-1.72c-1.14-1.15-1.71-2.54-1.71-4.18
			c0-1.76,0.65-3.22,1.93-4.4C115.66,179.05,116.96,178.54,118.43,178.54z M118.47,181.2c-0.88,0-1.61,0.31-2.19,0.92
			c-0.58,0.61-0.88,1.39-0.88,2.34c0,0.98,0.29,1.77,0.87,2.38c0.58,0.61,1.31,0.91,2.19,0.91s1.62-0.31,2.21-0.92
			c0.59-0.61,0.88-1.4,0.88-2.37c0-0.96-0.29-1.75-0.87-2.35S119.37,181.2,118.47,181.2z M118.95,172.71h3.34l-3.79,4.06h-2.03
			L118.95,172.71z"/>
		<path d="M126.7,178.83h2.82v1.15c0.64-0.54,1.22-0.92,1.74-1.13s1.05-0.32,1.6-0.32c1.12,0,2.06,0.39,2.84,1.17
			c0.65,0.66,0.98,1.64,0.98,2.94v7.44h-2.79v-4.93c0-1.34-0.06-2.24-0.18-2.68c-0.12-0.44-0.33-0.78-0.63-1.01
			c-0.3-0.23-0.67-0.35-1.11-0.35c-0.57,0-1.06,0.19-1.47,0.57c-0.41,0.38-0.69,0.91-0.85,1.59c-0.08,0.35-0.12,1.11-0.12,2.28v4.52
			h-2.82V178.83z"/>
		<path d="M153.65,174.48h2.82v15.6h-2.82v-1.19c-0.55,0.52-1.1,0.9-1.66,1.13c-0.55,0.23-1.16,0.35-1.8,0.35
			c-1.45,0-2.71-0.56-3.77-1.69c-1.06-1.13-1.59-2.53-1.59-4.21c0-1.74,0.51-3.16,1.54-4.27c1.03-1.11,2.27-1.67,3.74-1.67
			c0.67,0,1.31,0.13,1.9,0.38c0.59,0.25,1.14,0.64,1.64,1.15V174.48z M150.68,181.14c-0.87,0-1.6,0.31-2.18,0.93
			c-0.58,0.62-0.87,1.41-0.87,2.37c0,0.97,0.29,1.77,0.88,2.4c0.59,0.63,1.31,0.94,2.17,0.94c0.89,0,1.62-0.31,2.21-0.93
			s0.88-1.43,0.88-2.43c0-0.98-0.29-1.77-0.88-2.38C152.32,181.45,151.58,181.14,150.68,181.14z"/>
		<path d="M170.61,185.27h-9.07c0.13,0.8,0.48,1.44,1.05,1.91c0.57,0.47,1.29,0.71,2.18,0.71c1.06,0,1.96-0.37,2.72-1.11l2.38,1.12
			c-0.59,0.84-1.3,1.46-2.13,1.87c-0.83,0.4-1.81,0.61-2.95,0.61c-1.76,0-3.2-0.56-4.31-1.67c-1.11-1.11-1.67-2.51-1.67-4.18
			c0-1.72,0.55-3.14,1.66-4.28c1.11-1.13,2.49-1.7,4.16-1.7c1.77,0,3.21,0.57,4.32,1.7c1.11,1.13,1.67,2.63,1.67,4.49L170.61,185.27
			z M167.78,183.05c-0.19-0.63-0.55-1.14-1.1-1.53c-0.55-0.39-1.19-0.59-1.91-0.59c-0.79,0-1.48,0.22-2.07,0.66
			c-0.37,0.28-0.72,0.76-1.04,1.46H167.78z"/>
		<path d="M18.54,199.9l-2.03,1.93c-1.38-1.46-2.93-2.19-4.65-2.19c-1.45,0-2.68,0.5-3.67,1.49c-1,0.99-1.49,2.22-1.49,3.68
			c0,1.01,0.22,1.92,0.66,2.7s1.06,1.41,1.87,1.85c0.81,0.45,1.7,0.67,2.69,0.67c0.84,0,1.61-0.16,2.3-0.47
			c0.7-0.31,1.46-0.89,2.29-1.71l1.96,2.05c-1.12,1.1-2.19,1.86-3.19,2.28c-1,0.42-2.14,0.64-3.42,0.64c-2.37,0-4.3-0.75-5.81-2.25
			c-1.51-1.5-2.26-3.42-2.26-5.77c0-1.52,0.34-2.87,1.03-4.04c0.69-1.18,1.67-2.13,2.95-2.84c1.28-0.72,2.66-1.08,4.13-1.08
			c1.25,0,2.46,0.27,3.63,0.8S17.7,198.93,18.54,199.9z"/>
		<path d="M29.07,201.19h2.82v11.25h-2.82v-1.19c-0.55,0.52-1.1,0.9-1.66,1.13c-0.55,0.23-1.16,0.35-1.8,0.35
			c-1.45,0-2.71-0.56-3.77-1.69c-1.06-1.13-1.59-2.53-1.59-4.21c0-1.74,0.51-3.16,1.54-4.27c1.03-1.11,2.27-1.67,3.74-1.67
			c0.67,0,1.31,0.13,1.9,0.38c0.59,0.25,1.14,0.64,1.64,1.15V201.19z M26.1,203.51c-0.87,0-1.6,0.31-2.18,0.93s-0.87,1.41-0.87,2.37
			c0,0.97,0.29,1.77,0.88,2.4c0.59,0.63,1.31,0.94,2.17,0.94c0.89,0,1.62-0.31,2.21-0.93c0.58-0.62,0.88-1.43,0.88-2.43
			c0-0.98-0.29-1.77-0.88-2.38C27.74,203.81,27,203.51,26.1,203.51z M26.86,195.08h3.34l-3.79,4.06h-2.03L26.86,195.08z"/>
		<path d="M34.75,201.19h2.82v1.15c0.64-0.54,1.22-0.92,1.74-1.13c0.52-0.21,1.05-0.32,1.6-0.32c1.12,0,2.06,0.39,2.84,1.17
			c0.65,0.66,0.98,1.64,0.98,2.94v7.44h-2.79v-4.93c0-1.34-0.06-2.24-0.18-2.68c-0.12-0.44-0.33-0.78-0.63-1.01
			c-0.3-0.23-0.67-0.35-1.11-0.35c-0.57,0-1.06,0.19-1.47,0.57c-0.41,0.38-0.69,0.91-0.85,1.59c-0.08,0.35-0.12,1.11-0.12,2.28v4.52
			h-2.82V201.19z"/>
		<path d="M58.48,203.47l-2.35,1.29c-0.44-0.46-0.88-0.78-1.31-0.96c-0.43-0.18-0.94-0.27-1.52-0.27c-1.06,0-1.91,0.31-2.56,0.94
			c-0.65,0.63-0.98,1.44-0.98,2.42c0,0.96,0.31,1.74,0.94,2.34c0.63,0.61,1.45,0.91,2.48,0.91c1.26,0,2.25-0.43,2.95-1.29l2.23,1.52
			c-1.21,1.57-2.91,2.36-5.11,2.36c-1.98,0-3.53-0.59-4.65-1.76c-1.12-1.17-1.68-2.54-1.68-4.12c0-1.09,0.27-2.09,0.82-3.01
			s1.3-1.64,2.28-2.16c0.98-0.52,2.07-0.79,3.27-0.79c1.12,0,2.12,0.22,3.01,0.67C57.19,202.01,57.92,202.65,58.48,203.47z"/>
		<path d="M72.3,207.64h-9.07c0.13,0.8,0.48,1.44,1.05,1.91c0.57,0.47,1.29,0.71,2.18,0.71c1.05,0,1.96-0.37,2.72-1.11l2.38,1.12
			c-0.59,0.84-1.3,1.46-2.13,1.87c-0.83,0.4-1.81,0.61-2.95,0.61c-1.77,0-3.2-0.56-4.31-1.67c-1.11-1.11-1.67-2.51-1.67-4.18
			c0-1.72,0.55-3.14,1.66-4.28c1.11-1.13,2.5-1.7,4.16-1.7c1.77,0,3.21,0.57,4.32,1.7c1.11,1.13,1.67,2.63,1.67,4.49L72.3,207.64z
			 M69.48,205.41c-0.19-0.63-0.55-1.14-1.1-1.53c-0.55-0.39-1.19-0.59-1.91-0.59c-0.79,0-1.48,0.22-2.07,0.66
			c-0.37,0.28-0.72,0.76-1.04,1.46H69.48z"/>
		<path d="M73.93,201.19h2.42v1.42c0.26-0.56,0.61-0.98,1.04-1.27c0.43-0.29,0.91-0.43,1.43-0.43c0.37,0,0.75,0.1,1.15,0.29
			l-0.88,2.43c-0.33-0.17-0.6-0.25-0.82-0.25c-0.43,0-0.8,0.27-1.1,0.81s-0.45,1.59-0.45,3.17l0.01,0.55v4.55h-2.8V201.19z"/>
		<path d="M95.6,196.85h2.82v15.6H95.6v-1.19c-0.55,0.52-1.1,0.9-1.66,1.13c-0.55,0.23-1.16,0.35-1.8,0.35
			c-1.45,0-2.71-0.56-3.77-1.69c-1.06-1.13-1.59-2.53-1.59-4.21c0-1.74,0.51-3.16,1.54-4.27c1.03-1.11,2.27-1.67,3.74-1.67
			c0.67,0,1.31,0.13,1.9,0.38c0.59,0.25,1.14,0.64,1.64,1.15V196.85z M92.63,203.51c-0.87,0-1.6,0.31-2.18,0.93
			s-0.87,1.41-0.87,2.37c0,0.97,0.29,1.77,0.88,2.4c0.59,0.63,1.31,0.94,2.17,0.94c0.89,0,1.62-0.31,2.21-0.93
			c0.58-0.62,0.88-1.43,0.88-2.43c0-0.98-0.29-1.77-0.88-2.38C94.26,203.81,93.53,203.51,92.63,203.51z"/>
		<path d="M112.56,207.64h-9.07c0.13,0.8,0.48,1.44,1.05,1.91c0.57,0.47,1.29,0.71,2.18,0.71c1.06,0,1.96-0.37,2.72-1.11l2.38,1.12
			c-0.59,0.84-1.3,1.46-2.13,1.87c-0.83,0.4-1.81,0.61-2.95,0.61c-1.76,0-3.2-0.56-4.31-1.67c-1.11-1.11-1.67-2.51-1.67-4.18
			c0-1.72,0.55-3.14,1.66-4.28c1.11-1.13,2.49-1.7,4.16-1.7c1.77,0,3.21,0.57,4.32,1.7c1.11,1.13,1.67,2.63,1.67,4.49L112.56,207.64
			z M109.73,205.41c-0.19-0.63-0.55-1.14-1.1-1.53c-0.55-0.39-1.19-0.59-1.91-0.59c-0.79,0-1.48,0.22-2.07,0.66
			c-0.37,0.28-0.72,0.76-1.04,1.46H109.73z"/>
		<path d="M122.56,197.23h2.82l3.53,10.61l3.56-10.61h2.82l2.55,15.22h-2.8l-1.63-9.61l-3.23,9.61h-2.55l-3.2-9.61l-1.67,9.61h-2.82
			L122.56,197.23z"/>
		<path d="M148.14,201.19h2.82v11.25h-2.82v-1.19c-0.55,0.52-1.1,0.9-1.66,1.13c-0.55,0.23-1.16,0.35-1.8,0.35
			c-1.45,0-2.71-0.56-3.77-1.69c-1.06-1.13-1.59-2.53-1.59-4.21c0-1.74,0.51-3.16,1.54-4.27c1.03-1.11,2.27-1.67,3.74-1.67
			c0.67,0,1.31,0.13,1.9,0.38c0.59,0.25,1.14,0.64,1.64,1.15V201.19z M145.17,203.51c-0.87,0-1.6,0.31-2.18,0.93
			c-0.58,0.62-0.87,1.41-0.87,2.37c0,0.97,0.29,1.77,0.88,2.4c0.59,0.63,1.31,0.94,2.17,0.94c0.89,0,1.62-0.31,2.21-0.93
			s0.88-1.43,0.88-2.43c0-0.98-0.29-1.77-0.88-2.38C146.81,203.81,146.07,203.51,145.17,203.51z"/>
		<path d="M153.8,201.19h2.82v1.29c0.48-0.53,1.02-0.93,1.61-1.19c0.59-0.26,1.23-0.39,1.93-0.39c0.7,0,1.34,0.17,1.91,0.52
			c0.57,0.34,1.02,0.85,1.37,1.51c0.45-0.66,1-1.17,1.65-1.51s1.36-0.52,2.14-0.52c0.8,0,1.5,0.19,2.11,0.56s1.04,0.86,1.31,1.46
			c0.27,0.6,0.4,1.58,0.4,2.93v6.6h-2.85v-5.71c0-1.28-0.16-2.14-0.48-2.59s-0.79-0.68-1.43-0.68c-0.48,0-0.92,0.14-1.3,0.41
			c-0.38,0.28-0.67,0.66-0.85,1.14s-0.28,1.27-0.28,2.34v5.08h-2.84v-5.45c0-1.01-0.07-1.74-0.22-2.19
			c-0.15-0.45-0.37-0.79-0.67-1.01c-0.3-0.22-0.66-0.33-1.08-0.33c-0.47,0-0.9,0.14-1.28,0.42s-0.67,0.67-0.86,1.17
			c-0.19,0.5-0.29,1.3-0.29,2.38v5.01h-2.82V201.19z"/>
		<path d="M182.04,201.19h2.82v11.25h-2.82v-1.19c-0.55,0.52-1.1,0.9-1.66,1.13c-0.55,0.23-1.16,0.35-1.8,0.35
			c-1.45,0-2.71-0.56-3.77-1.69c-1.06-1.13-1.59-2.53-1.59-4.21c0-1.74,0.51-3.16,1.54-4.27c1.03-1.11,2.27-1.67,3.74-1.67
			c0.67,0,1.31,0.13,1.9,0.38c0.59,0.25,1.14,0.64,1.64,1.15V201.19z M179.07,203.51c-0.87,0-1.6,0.31-2.18,0.93
			c-0.58,0.62-0.87,1.41-0.87,2.37c0,0.97,0.29,1.77,0.88,2.4c0.59,0.63,1.31,0.94,2.17,0.94c0.89,0,1.62-0.31,2.21-0.93
			s0.88-1.43,0.88-2.43c0-0.98-0.29-1.77-0.88-2.38C180.71,203.81,179.97,203.51,179.07,203.51z"/>
	</g>
</g>
</svg>
