<?xml version="1.0" encoding="utf-8"?>
<!-- Generator: Adobe Illustrator 25.0.0, SVG Export Plug-In . SVG Version: 6.00 Build 0)  -->
<svg version="1.1" id="Capa_1" xmlns="http://www.w3.org/2000/svg" xmlns:xlink="http://www.w3.org/1999/xlink" x="0px" y="0px"
	 viewBox="0 0 107.34 67.56" style="enable-background:new 0 0 107.34 67.56;" xml:space="preserve">
<style type="text/css">
	.st0{font-family:'ArialMT';}
	.st1{font-size:8.5946px;}
</style>
<g>
	<g>
		<g>
			<polygon points="2.4,13.1 2.4,2.6 9.6,2.6 9.6,4.6 5,4.6 5,7 8.9,7 8.9,9 5,9 5,13.1 			"/>
			<rect x="11.5" y="2.6" width="2.6" height="10.5"/>
			<path d="M16.8,13.1V2.6H20c0.9,0,1.7,0.1,2.4,0.3c0.7,0.2,1.3,0.5,1.8,0.9c0.5,0.4,0.9,1,1.2,1.6c0.3,0.7,0.4,1.4,0.4,2.3
				s-0.1,1.7-0.4,2.4c-0.3,0.7-0.6,1.2-1.1,1.7c-0.5,0.4-1.1,0.8-1.8,1c-0.7,0.2-1.4,0.3-2.3,0.3H16.8z M19.4,11.2h0.5
				c0.5,0,0.9-0.1,1.3-0.2s0.7-0.3,1-0.6c0.3-0.3,0.5-0.6,0.7-1s0.2-1,0.2-1.6S23,6.7,22.9,6.2c-0.2-0.4-0.4-0.8-0.7-1
				c-0.3-0.3-0.6-0.4-1-0.5s-0.8-0.2-1.3-0.2h-0.5V11.2z"/>
			<polygon points="27.9,13.1 27.9,2.6 35.1,2.6 35.1,4.6 30.5,4.6 30.5,6.7 34.4,6.7 34.4,8.7 30.5,8.7 30.5,11.1 35.3,11.1 
				35.3,13.1 			"/>
			<rect x="37.5" y="2.6" width="2.6" height="10.5"/>
			<path d="M47.6,13.3c-0.7,0-1.4-0.1-2-0.3c-0.6-0.2-1.2-0.6-1.7-1c-0.5-0.5-0.9-1-1.1-1.7c-0.3-0.7-0.4-1.4-0.4-2.3
				s0.1-1.6,0.4-2.3C43.1,5,43.5,4.4,44,4c0.5-0.5,1.1-0.8,1.7-1.1c0.7-0.2,1.3-0.4,2.1-0.4c0.7,0,1.4,0.1,2,0.4
				c0.6,0.3,1.1,0.6,1.5,1l-1.4,1.5C49.6,5.2,49.3,5,49,4.8c-0.3-0.2-0.7-0.2-1.1-0.2c-0.4,0-0.8,0.1-1.1,0.2
				c-0.3,0.2-0.6,0.4-0.9,0.7c-0.3,0.3-0.4,0.6-0.6,1.1C45.2,7,45.1,7.5,45.1,8c0,1.1,0.3,1.9,0.8,2.5s1.2,0.9,2,0.9
				c0.5,0,0.9-0.1,1.3-0.3c0.4-0.2,0.7-0.4,1-0.7l1.4,1.5C50.3,12.7,49.1,13.3,47.6,13.3"/>
			<path d="M57.6,13.3c-0.8,0-1.5-0.1-2.1-0.4s-1.2-0.6-1.6-1.1c-0.5-0.5-0.8-1-1.1-1.7s-0.4-1.4-0.4-2.3s0.1-1.6,0.4-2.3
				c0.3-0.7,0.6-1.2,1.1-1.7s1-0.8,1.6-1s1.3-0.4,2.1-0.4c0.8,0,1.5,0.1,2.1,0.4c0.6,0.2,1.2,0.6,1.6,1.1c0.5,0.5,0.8,1,1.1,1.7
				c0.2,0.7,0.4,1.4,0.4,2.3s-0.1,1.6-0.4,2.3c-0.3,0.7-0.6,1.3-1.1,1.7c-0.5,0.5-1,0.8-1.6,1.1C59.1,13.1,58.4,13.3,57.6,13.3
				 M57.6,11.2c0.8,0,1.4-0.3,1.9-0.9s0.7-1.5,0.7-2.5c0-1.1-0.2-1.9-0.7-2.5s-1.1-0.9-1.9-0.9s-1.4,0.3-1.9,0.9
				C55.2,5.9,55,6.7,55,7.8s0.2,1.9,0.7,2.5S56.8,11.2,57.6,11.2"/>
			<path d="M65,13.1V2.6h2.8l1.8,4.7c0.1,0.3,0.2,0.6,0.3,1c0.1,0.3,0.2,0.7,0.3,1h0.1c0.1-0.3,0.2-0.6,0.3-1c0.1-0.3,0.2-0.6,0.3-1
				l1.8-4.7h2.8v10.5h-2.3V9.2c0-0.3,0-0.5,0-0.9c0-0.3,0.1-0.6,0.1-0.9s0.1-0.6,0.1-0.9s0.1-0.6,0.1-0.8h-0.1l-0.9,2.5l-1.6,4h-1.4
				l-1.6-4L67,5.6h-0.1c0,0.3,0.1,0.5,0.1,0.8s0.1,0.6,0.1,0.9s0.1,0.6,0.1,0.9c0,0.3,0,0.6,0,0.9V13H65V13.1z"/>
			<rect x="78.3" y="2.6" width="2.6" height="10.5"/>
			<path d="M87,13.3c-0.7,0-1.5-0.1-2.2-0.4s-1.4-0.6-2-1.1l1.5-1.6c0.4,0.3,0.9,0.6,1.4,0.8c0.5,0.2,1,0.3,1.5,0.3s0.9-0.1,1.2-0.3
				c0.3-0.2,0.4-0.4,0.4-0.7c0-0.2,0-0.3-0.1-0.4s-0.2-0.2-0.3-0.3c-0.1-0.1-0.3-0.2-0.5-0.3c-0.2-0.1-0.4-0.2-0.7-0.3l-1.5-0.6
				c-0.3-0.1-0.6-0.2-0.8-0.4c-0.3-0.2-0.5-0.4-0.7-0.6s-0.4-0.5-0.5-0.8s-0.2-0.7-0.2-1c0-0.4,0.1-0.8,0.3-1.2
				c0.2-0.4,0.5-0.7,0.8-1c0.4-0.3,0.8-0.5,1.3-0.7s1-0.2,1.6-0.2c0.7,0,1.3,0.1,2,0.4c0.6,0.2,1.2,0.6,1.7,1l-1.3,1.5
				c-0.4-0.3-0.7-0.5-1.1-0.6S88,4.6,87.6,4.6c-0.4,0-0.8,0.1-1.1,0.2c-0.3,0.2-0.4,0.4-0.4,0.7c0,0.2,0,0.3,0.1,0.4
				s0.2,0.2,0.4,0.3c0.2,0.1,0.3,0.2,0.6,0.3c0.2,0.1,0.4,0.2,0.7,0.3l1.5,0.5c0.7,0.3,1.3,0.6,1.7,1.1c0.4,0.5,0.6,1,0.6,1.8
				c0,0.4-0.1,0.9-0.3,1.2c-0.2,0.4-0.5,0.7-0.8,1c-0.4,0.3-0.8,0.5-1.4,0.7C88.3,13.2,87.7,13.3,87,13.3"/>
			<path d="M97.9,13.3c-0.8,0-1.5-0.1-2.1-0.4s-1.2-0.6-1.6-1.1c-0.5-0.5-0.8-1-1.1-1.7c-0.3-0.7-0.4-1.4-0.4-2.3s0.1-1.6,0.4-2.3
				c0.2-0.7,0.6-1.2,1.1-1.7s1-0.8,1.6-1s1.3-0.4,2.1-0.4c0.8,0,1.5,0.1,2.1,0.4c0.6,0.2,1.2,0.6,1.6,1.1c0.5,0.5,0.8,1,1.1,1.7
				c0.2,0.7,0.4,1.4,0.4,2.3s-0.1,1.6-0.4,2.3c-0.3,0.7-0.6,1.3-1.1,1.7c-0.5,0.5-1,0.8-1.6,1.1C99.4,13.1,98.7,13.3,97.9,13.3
				 M97.9,11.2c0.8,0,1.4-0.3,1.9-0.9s0.7-1.5,0.7-2.5c0-1.1-0.2-1.9-0.7-2.5s-1.1-0.9-1.9-0.9S96.5,4.7,96,5.3
				c-0.5,0.6-0.7,1.4-0.7,2.5s0.2,1.9,0.7,2.5S97.1,11.2,97.9,11.2"/>
		</g>
	</g>
	<g>
		<g>
			<g>
				<path d="M2.3,53.9V43.4H5l1.8,4.7c0.1,0.3,0.2,0.6,0.3,1c0.1,0.3,0.2,0.7,0.3,1h0.1c0.1-0.3,0.2-0.6,0.3-1
					c0.1-0.3,0.2-0.6,0.3-1l1.7-4.7h2.7v10.5h-2.3V50c0-0.3,0-0.5,0-0.9c0-0.3,0.1-0.6,0.1-0.9c0-0.3,0.1-0.6,0.1-0.9
					c0-0.3,0.1-0.6,0.1-0.8h-0.1L9.5,49l-1.6,4H6.5l-1.6-4L4,46.5H3.9C3.9,46.8,4,47,4,47.3s0.1,0.6,0.1,0.9c0,0.3,0.1,0.6,0.1,0.9
					c0,0.3,0,0.6,0,0.9v3.9H2.3z"/>
			</g>
			<g>
				<polygon points="24.1,53.9 24.1,43.4 31,43.4 31,45.4 26.6,45.4 26.6,47.5 30.4,47.5 30.4,49.5 26.6,49.5 26.6,51.9 31.2,51.9 
					31.2,53.9 				"/>
			</g>
			<g>
				<path d="M41.2,53.9l3.1-5.4l-2.9-5.1h2.8l1,2c0.1,0.2,0.2,0.5,0.4,0.8c0.1,0.3,0.3,0.6,0.4,0.9l0,0c0.1-0.3,0.2-0.6,0.4-0.9
					c0.1-0.3,0.2-0.5,0.3-0.8l0.9-2h2.6l-2.9,5.2l3,5.3h-2.8l-1-2.2c-0.1-0.3-0.3-0.6-0.4-0.8c-0.1-0.3-0.3-0.6-0.4-0.9h-0.1
					c-0.1,0.3-0.2,0.6-0.4,0.9c-0.1,0.3-0.2,0.6-0.4,0.8l-1,2.1h-2.6V53.9z"/>
			</g>
			<g>
				<rect x="60.8" y="43.4" width="2.5" height="10.5"/>
			</g>
			<g>
				<path d="M79.4,54.1c-0.7,0-1.4-0.1-2-0.3c-0.6-0.2-1.2-0.6-1.6-1c-0.5-0.5-0.8-1-1.1-1.7c-0.3-0.7-0.4-1.4-0.4-2.3
					c0-0.9,0.1-1.6,0.4-2.3s0.7-1.3,1.1-1.7c0.5-0.5,1-0.8,1.7-1.1c0.6-0.2,1.3-0.4,2-0.4s1.3,0.1,1.9,0.4c0.6,0.3,1,0.6,1.4,1
					l-1.3,1.5c-0.3-0.2-0.6-0.4-0.9-0.6c-0.3-0.2-0.7-0.2-1.1-0.2s-0.7,0.1-1.1,0.2c-0.3,0.2-0.6,0.4-0.9,0.7
					c-0.2,0.3-0.4,0.6-0.6,1.1c-0.1,0.4-0.2,0.9-0.2,1.4c0,1.1,0.2,1.9,0.7,2.5s1.1,0.9,1.9,0.9c0.4,0,0.9-0.1,1.2-0.3
					c0.4-0.2,0.7-0.4,0.9-0.7l1.3,1.5C82.1,53.5,80.9,54.1,79.4,54.1"/>
			</g>
			<g>
				<g>
					<path d="M98.1,54.1c-0.7,0-1.4-0.1-2-0.4c-0.6-0.3-1.1-0.6-1.6-1.1c-0.4-0.5-0.8-1-1-1.7s-0.4-1.4-0.4-2.3
						c0-0.9,0.1-1.6,0.4-2.3c0.2-0.7,0.6-1.2,1-1.7s1-0.8,1.6-1s1.3-0.4,2-0.4s1.4,0.1,2,0.4c0.6,0.2,1.1,0.6,1.6,1.1
						c0.4,0.5,0.8,1,1,1.7s0.4,1.4,0.4,2.3c0,0.9-0.1,1.6-0.4,2.3c-0.2,0.7-0.6,1.3-1,1.7c-0.4,0.5-1,0.8-1.6,1.1
						C99.5,53.9,98.8,54.1,98.1,54.1 M98.1,52c0.8,0,1.4-0.3,1.8-0.9c0.4-0.6,0.7-1.5,0.7-2.5c0-1.1-0.2-1.9-0.7-2.5
						c-0.4-0.6-1-0.9-1.8-0.9s-1.3,0.3-1.8,0.9c-0.4,0.6-0.7,1.4-0.7,2.5s0.2,1.9,0.7,2.5C96.7,51.7,97.3,52,98.1,52"/>
				</g>
			</g>
		</g>
	</g>
	<g>
		<polygon points="2.4,37.1 2.4,19.4 14.6,19.4 14.6,23.3 7.3,23.3 7.3,26.7 13.6,26.7 13.6,30.6 7.3,30.6 7.3,37.1 		"/>
		<path d="M25.6,37.4c-2.6,0-4.6-0.7-5.9-2.2c-1.3-1.4-1.9-3.7-1.9-6.7v-9.1h5v9.7c0,1.6,0.2,2.7,0.7,3.3s1.2,1,2.2,1s1.7-0.3,2.2-1
			c0.5-0.6,0.7-1.8,0.7-3.3v-9.7h4.8v9.1c0,3-0.6,5.3-1.9,6.7C30.2,36.7,28.2,37.4,25.6,37.4"/>
		<polygon points="37.4,37.1 37.4,19.4 49.5,19.4 49.5,23.3 42.4,23.3 42.4,26.1 48.5,26.1 48.5,30 42.4,30 42.4,33.2 49.8,33.2 
			49.8,37.1 		"/>
		<path d="M53.5,37.1V19.4h7.1c1,0,2,0.1,2.9,0.3c0.9,0.2,1.7,0.5,2.4,0.9c0.7,0.4,1.2,1,1.6,1.8c0.4,0.7,0.6,1.7,0.6,2.8
			c0,1.3-0.3,2.3-0.8,3.2c-0.6,0.8-1.3,1.5-2.2,2l4.1,6.9h-5.6l-3.2-5.9h-1.9v5.9h-5V37.1z M58.5,27.4h1.8c2,0,3-0.8,3-2.3
			c0-0.8-0.3-1.3-0.8-1.6s-1.3-0.4-2.2-0.4h-1.8V27.4z"/>
		<polygon points="70.6,37.1 70.6,34.2 78.3,23.3 71.3,23.3 71.3,19.4 84.4,19.4 84.4,22.2 76.7,33.2 84.5,33.2 84.5,37.1 		"/>
		<path d="M85.1,37.1l5.7-17.7h6l5.7,17.7h-5.3l-0.9-3.8H91l-0.9,3.8H85.1z M92.3,28.5L92,29.7h3.5l-0.3-1.2
			c-0.2-0.9-0.5-1.8-0.7-2.8s-0.5-1.9-0.7-2.8h-0.1c-0.2,0.9-0.4,1.9-0.7,2.8C92.8,26.7,92.6,27.6,92.3,28.5"/>
	</g>
	<rect x="24.2" y="39.7" width="6.6" height="1.8"/>
	<text transform="matrix(1 0 0 1 1.3319 64.7962)" class="st0 st1">Iniciativa del sector privado</text>
</g>
</svg>
