<?xml version="1.0" encoding="utf-8"?>
<!-- Generator: Adobe Illustrator 25.0.0, SVG Export Plug-In . SVG Version: 6.00 Build 0)  -->
<svg version="1.1" id="Layer_1" xmlns="http://www.w3.org/2000/svg" xmlns:xlink="http://www.w3.org/1999/xlink" x="0px" y="0px"
	 viewBox="0 0 320.2 389.4" style="enable-background:new 0 0 320.2 389.4;" xml:space="preserve">
<g>
	<path d="M309.3,10c0-0.2-0.1-0.3-0.1-0.5c-0.4-1-2.5-1.3-3.4-1.3c-0.1,0-0.2,0-0.2,0c-0.3,0-0.6,0-0.9,0c-0.7,0-1.3,0-2,0
		c-0.2,0-0.4,0-0.6,0c-0.1,0-0.2,0.1-0.3,0.2c-0.2,0-0.5,0-0.7,0c-0.1,0-0.2,0-0.3,0c-0.1,0-0.2,0-0.2,0c-0.1,0-0.3,0-0.4,0
		c-0.1,0-0.2,0-0.4,0c-1,0.3-2,0.6-3,0.8c-1.5,0.3-2.9,0.5-4.4,0.6c-1.4,0.1-2.8,0.1-4.3,0.2c-0.1,0-0.2,0-0.2,0c-0.5,0-0.9,0-1.4,0
		c-1.2,0-2.3,0.1-3.5,0.2c-0.8,0-1.6-0.1-2.3,0.2c-1.8,0.8-3.6,0.5-5.4,0.5c-0.2-0.1-0.4-0.2-0.6-0.2c-0.7,0-1.4,0.2-2.1,0.2
		c-2,0-4,0-6-0.1c-0.2,0-0.3,0-0.5,0c-0.2-0.1-0.5-0.1-0.7-0.2c-1.7-0.2-3.4-0.3-5.1-0.4c-1.2-0.1-2.4-0.1-3.6-0.1
		c-2.1-0.1-4.3-0.2-6.4-0.3c-0.8,0-1.5,0-2.3,0c-1-0.1-2-0.3-3-0.3c-2.9,0-5.8,0.1-8.6,0.1c-1.3,0-2.7-0.1-4-0.1c-0.4,0-0.8,0-1.2,0
		c-2.1,0-4.2,0.1-6.3,0.1c-0.1,0-0.2,0-0.4,0c-0.7,0-1.5-0.1-2.2,0c-1.1,0-2.2,0.2-3.4,0.1c-1.6-0.1-3.2-0.3-4.7-0.5
		c-0.2,0-0.5,0-0.7,0c-0.1,0-0.2,0-0.4,0c-0.1,0-0.2,0-0.4,0c-0.4,0-0.8,0-1.2,0c-0.3,0-0.6,0-0.9,0c-0.9,0-1.9,0-2.8,0
		c-0.1,0-0.2,0.1-0.4,0.1C207.3,9.1,207.1,9,207,9c-2.7,0-5.5-0.1-8.2-0.1c-0.1,0-0.2,0-0.2,0c-0.1,0-0.2,0-0.3,0
		c-1.1-0.1-2.1-0.2-3.2-0.3c-2.3,0-4.7-0.1-7-0.1c-0.5-0.1-1.1-0.2-1.6-0.2c-1.3-0.1-2.6-0.2-4-0.3c-2.8-0.1-5.6-0.1-8.3-0.1
		c-0.1,0-0.2,0-0.3,0c-0.1,0-0.2,0-0.4,0c-0.1,0-0.2,0-0.3,0c-0.1,0-0.2,0-0.2,0c-1.4,0-2.8-0.1-4.3-0.1c-3.7,0-7.3,0-11,0.1
		c-1.8,0-3.6,0.1-5.4,0.2c-0.1,0-0.2,0-0.2,0c-0.8,0.1-1.6,0.1-2.4,0.2c-0.4,0-0.9,0-1.3,0c-0.2,0-0.3,0.1-0.5,0.1
		c-1.7,0.1-3.4,0.1-5.1,0.2c-1.2,0-2.3,0-3.5,0c-0.1,0-0.2,0-0.3,0c-0.1,0-0.2,0-0.2,0c-0.1,0-0.2,0-0.4,0c-0.1,0-0.2,0-0.4,0
		c-0.3,0-0.6,0-0.9,0c-0.1,0-0.2,0-0.4,0c-0.9,0-1.9,0.1-2.8,0.1c-0.1,0-0.2,0-0.4,0c-0.2,0-0.3,0-0.5,0c-0.2,0-0.5,0-0.7,0
		c-0.1,0-0.3,0-0.4,0c-0.1,0-0.2,0-0.4,0c-0.1,0-0.2,0-0.3,0c-1.3,0-2.6,0.1-3.8,0.1c-2.4-0.1-4.7-0.2-7.1-0.3c-0.1,0-0.2,0-0.4,0
		c-0.3,0-0.6-0.1-0.9-0.1c-6.3-0.2-12.6-0.3-18.8-0.5c-2.3-0.1-4.6-0.2-6.9-0.3c-1.1-0.1-2.1-0.2-3.2-0.3c-1.1-0.1-2.1-0.3-3.2-0.5
		c-1.5-0.2-3.1-0.3-4.6-0.5c-0.1,0-0.2,0-0.4,0c-0.1,0-0.2,0-0.2,0c-0.1-0.1-0.2-0.1-0.2-0.2c-0.1,0-0.2,0-0.2,0
		c-0.2,0-0.3,0.1-0.5,0.1c-0.1,0-0.2,0-0.4,0c-0.1,0-0.2-0.1-0.4-0.1c-0.5,0-1,0-1.5,0C78.4,6,78.1,6,77.7,5.9c-0.1,0-0.2,0-0.3,0
		c-0.1,0-0.2,0-0.4,0c-0.1,0.4-0.3,0.6-0.4,0.6c0.2-0.1,0.3-0.2,0.4-0.6c-0.7,0-1.5,0-2.2-0.1c-0.2,0-0.3,0-0.5,0
		c-0.1,0-0.2,0-0.2,0c-0.2-0.1-0.5-0.1-0.7-0.2c-1.6,0-3.3-0.1-4.9-0.1c-1.8,0-3.6,0-5.4-0.1c-1.9-0.1-3.7-0.4-5.6-0.5
		c-1.9-0.1-3.8-0.2-5.6,0c-2.5,0.2-5,1-7.6,0.5c-2.3-0.4-4.7-0.7-7-0.8C33.5,4.5,29.7,4.3,26,4.9c-0.1,0.1-0.2,0.2-0.3,0.3
		C25.8,5.2,25.9,5,26,4.9c-2.1,0.1-4.2,0.1-6.2,0.3c-2.2,0.2-4.4,0.2-6.7,0.6C11.5,6.1,10,6.8,8.4,7.5C7.6,7.8,7,8.8,6.7,10.4
		c-0.1,0.8-0.1,1.7-0.2,2.6c0,0.3,0,0.6-0.1,0.9C6.3,14.5,6.1,15,6,15.6c-0.1,0.1-0.2,0.2-0.3,0.3c-0.5,0.2-1,0.3-1.4,0.5
		c-0.4,0.1-0.5,0.5-0.3,1.2c0.3,1,0.6,2.2,1.1,3c0.8,1.4,1.8,2.7,2.6,4c0.2,0.3,0.4,0.7,0.6,1c0.2,0.4,0.3,0.8-0.1,1
		c-0.4,0.2-0.8,0.3-1.1,0.5c-1,0.8-1.7,3.5-0.5,5.1c0.2,0.2,0.3,0.5,0.5,0.9c0.6,1.7,1.6,2.6,2.6,3.2c0.4,0.2,0.7,0.4,1.1,0.7
		c1.2,0.8,2.4,1.2,3.7,1.1c0.1,0,0.2,0,0.4,0c0.1,0,0.3,0,0.4,0c0.2,0.1,0.5,0.2,0.7,0.2c1.5,0.1,3.1,0.3,4.6,0.3
		c2.8,0,5.5,0.1,8.2,1.2c2.2,1.1,4.5,1.4,6.8,1.4c0.1,0,0.2,0,0.2,0c0.2,0,0.3,0,0.5,0c0.1,0,0.1,0,0.2,0c0.3,0,0.5,0,0.8,0
		c1-0.2,2-0.4,3-0.6c1.1-0.2,2.1-0.5,3.2-0.6c0.8-0.1,1.5,0.1,2.3,0.2c0.3,0,0.7,0.1,1,0.1c0.1,0.1,0.2,0.1,0.4,0.2
		c0.4,0.1,0.8,0.2,1.2,0.3c2.2,0.1,4.3,0.3,6.5,0.3c3.7,0.1,7.3,0.3,10.9-0.7c2-0.6,4-1.2,6.1-1c0.3,0,0.6,0,0.9,0
		c1.5,0.1,3,0.2,4.4,0.3c0.7,0,1.3,0.1,2,0.1c0.5,0,1-0.1,1.5-0.1c1,0.1,2,0.2,3,0.2c0.9,0,1.9-0.2,2.8-0.2c2,0,3.9,0.1,5.9,0.1
		c1.7,0,3.5,0,5.2,0c0.2,0,0.4-0.1,0.5-0.1c1.4,0,2.9,0.1,4.3,0.1c0.7,0,1.4,0.1,2.1,0.1c0.3,0.1,0.7,0.1,1,0.2c0.1,0,0.2,0,0.4,0
		c1.2,0.1,2.5,0.2,3.7,0.3c0.1,0.1,0.2,0.1,0.2,0.2c0.4,0,0.7,0,1.1,0c0.3,0,0.6,0,0.9,0c0.3,0,0.7,0,1,0c1.4,0,2.7,0,4.1,0.1
		c1.8,0.1,3.7,0.2,5.5,0.3c2.6,0.1,5.1,0.3,7.7,0.3c2.2,0,4.4-0.1,6.6-0.1c1.4,0,2.9,0.2,4.3,0.3c0.9,0,1.8-0.2,2.6-0.1
		c1.2,0.1,2.4,0.3,3.5,0.4c3,0.2,6-0.1,9-0.5c0.8-0.1,1.5,0,2.3,0c1.9-0.1,3.9-0.3,5.8-0.5c0.6-0.1,1.2-0.1,1.8-0.2
		c0.3,0,0.7-0.2,1-0.2c1.3,0.1,2.5,0.4,3.8,0.5c2.7,0.2,5.4,0.2,8,0.3c8.3,0.3,16.7,0.2,25,0.2c1.9,0,4,0.2,5.9-0.1
		c2-0.3,4.2,0,6.2-0.5c1.7-0.4,3.3-0.4,5.1-0.5c1.1-0.1,2.3-0.3,3.4-0.4c0.9,0,1.8,0.1,2.7-0.1c1.6-0.3,3.1-0.2,4.7-0.6
		c1.7-0.3,3.6-0.1,5.3-0.2c1.8-0.1,3.6-0.3,5.4-0.5c3.6-0.5,7.2-1.1,10.7-1.9c1.7-0.4,3.4-0.5,5.1-1.1c1.6-0.5,3.2-0.8,4.9-1
		c3.8-0.5,7.7-0.7,11.5-0.8c2.2-0.1,4.3-0.5,6.5-0.7c1.9-0.2,3.7-0.6,5.4-1.4c0.9-0.4,1.7-0.6,2.5-1.1c0.6-0.3,1.2-0.7,1.8-1.1
		c1.8-1,3.5-1.7,5.1-3c1.4-1.2,3-1.8,4.5-2.7c0.9-0.5,1.7-1,2.5-1.6c0.8-0.6,1.8-0.9,2.5-1.5c0.9-0.8,1.6-1.7,2.1-2.7
		c0.2-0.5,0.4-1,0.7-1.5c0.3-0.6,0.8-1.3,1-1.9C309.1,13.5,309.6,11.3,309.3,10z M11.1,23.3C11.1,23.3,11.1,23.3,11.1,23.3
		C11.1,23.3,11.1,23.3,11.1,23.3C11.1,23.3,11.1,23.3,11.1,23.3z M11.6,36.1c-0.1,0-0.2,0-0.2,0C11.5,36.1,11.5,36.1,11.6,36.1
		c0.1-0.2,0.2-0.4,0.3-0.6C11.8,35.6,11.7,35.9,11.6,36.1z"/>
	<path d="M311.1,95c0.7-0.6,1.5-1.2,2.2-1.9c0.2-0.3,0.5-0.6,0.7-0.8c0,0,0.1,0,0.1,0c1.1-0.3,2.2-0.7,3.3-1
		c-0.3-0.4-0.6-0.7-0.9-0.8c-1.7-0.4-3.4-0.8-5.1-1.2c-0.4,0-0.8-0.1-1.2-0.1c-0.1,0-0.3-0.1-0.4-0.1c-0.6-0.1-1.1-0.3-1.7-0.2
		c-3.3,0-6.5,0.1-9.8,0.2c-0.6,0-1.1-0.4-1.7-0.6c-0.6-0.3-1.3-0.5-1.9-0.8c-0.1-0.1-0.3-0.2-0.4-0.2c-1.2-0.2-2.4-0.5-3.7-0.6
		c-2.1-0.3-4.2-0.8-6.3-0.8c-3.4,0-6.9,0.3-10.3,0.3c-2.9,0-5.7-0.1-8.6-0.2c-0.2,0-0.3,0-0.5,0c-0.1,0-0.2,0-0.4,0
		c-0.4,0-0.9,0-1.3,0c-0.2-0.1-0.5-0.1-0.7-0.2c-0.2,0-0.3,0-0.5,0c-0.1,0-0.2,0-0.3,0c-0.7-0.1-1.5-0.2-2.2-0.2
		c-1.6-0.1-3.2-0.2-4.8-0.2c-0.5,0-1,0-1.6,0c-1.9-0.2-3.9-0.4-5.8-0.6c-2.3-0.1-4.6-0.2-6.9-0.2c-1,0-1.9-0.2-2.9-0.2
		c-2.9,0-5.8,0-8.7,0c-0.5,0-1,0-1.6,0c-0.2,0-0.4,0-0.6,0c-0.6,0-1.2,0-1.8,0c-0.5,0-1,0.1-1.5,0.1c-2.5,0.1-4.9,0.3-7.4,0.4
		c-1.3,0.1-2.7,0-4,0c-0.8-0.1-1.5-0.1-2.3-0.3c-0.7-0.1-1.4-0.4-2.1-0.6c-0.2-0.2-0.4-0.6-0.6-0.7c-0.8-0.1-1.7-0.1-2.6-0.2
		c-2-0.2-4-0.4-6-0.6c-2.2-0.2-4.4-0.4-6.6-0.6c-1.3-0.1-2.7-0.3-4-0.4c-2.6-0.2-5.2-0.4-7.8-0.6c-0.6-0.1-1.2-0.1-1.8-0.2
		c-2-0.1-3.9-0.1-5.9-0.2c-1.4-0.1-2.8-0.2-4.2-0.2c-1.8,0-3.6,0-5.5,0c-0.2,0-0.3,0.1-0.5,0.2c-0.3,0-0.6,0-0.9,0
		c-0.1,0-0.2,0-0.3,0c-0.1,0-0.2-0.1-0.3-0.1c-0.1,0-0.2-0.1-0.3-0.1c-1.2,0-2.4,0.1-3.6,0.2c-2.8,0.2-5.6-0.3-8.5,0.4
		c-1,0.2-2,0-3,0c-2.6,0.1-5.3,0.1-7.9,0.2c-1.7,0.1-3.4,0.1-5.1,0.2c-2,0.1-4,0.2-6.1,0.2c-3.5,0-7-0.1-10.6-0.2
		c-0.2-0.1-0.5-0.2-0.7-0.2c-5.7-0.1-11.4-0.2-17.1-0.2c-1.8,0-3.7,0-5.5,0c-0.7-0.1-1.4-0.2-2.1-0.2c-1.8,0-3.6-0.1-5.4-0.7
		c-0.1-0.1-0.2-0.2-0.3-0.2c-1.5-0.3-3-0.6-4.5-0.9c-2.2-0.4-4.3-0.8-6.5-1c-2.5-0.2-5.1-0.1-7.7,0c-0.5,0-1.1,0.3-1.6,0.4
		c-0.8,0.2-1.7,0.5-2.5,0.6c-1.2,0.1-2.5,0-3.7,0c-2.4,0-4.7,0-7.1,0c-0.1,0-0.2,0-0.4,0.1c-0.1,0-0.2,0.1-0.4,0.1
		c-2.5-0.1-5-0.3-7.5-0.4c-0.1,0-0.2,0-0.3,0c-1.8-0.2-3.6-0.4-5.4-0.6c-0.1,0-0.2,0-0.3,0c-0.8-0.1-1.6-0.2-2.4-0.3
		c-0.2,0-0.5-0.1-0.7-0.1c-0.2,0-0.5,0-0.7,0c-0.1,0-0.2-0.1-0.3-0.1c-0.1,0-0.2-0.1-0.3-0.1c-0.9-0.1-1.8-0.2-2.7-0.2
		c-2.9-0.1-5.7-0.1-8.6-0.2c-1,0.1-1.9,0.2-2.9,0.4c-0.1,0-0.2,0-0.2,0c-2,0.1-3.9,0.2-5.9,0.4c-0.3,0-0.7,0-1,0c-0.3,0-0.7,0-1,0.1
		c-1,0.3-2.2,0.2-2.8,2.1c-0.1,0.4-0.3,0.8-0.5,1.2c-0.2,0.4-0.4,0.8-0.5,1.2c-0.3,0.1-0.7,0.3-1,0.5c-0.3,0.2-0.7,0.3-1,0.4
		c-1.3,0.3-2.5,0.5-3.8,0.9c-0.8,0.2-0.9,0.5-0.6,1.8C0.4,87.1,0.7,88,0.9,89c0.3,1.3,0.6,2.7,1,4c0.3,1.2,0.7,2.4,1.1,3.5
		c0.5,1.3,1.1,2.6,1.6,3.8c0.6,1.3,1.1,2.7,1.8,3.9c0.7,1.1,1.6,1.7,2.2,2.9c0.8,1.6,1.8,2.4,3,2.1c0.5,0.3,1,0.5,1.5,0.8
		c0.1,0,0.2,0,0.4,0c0.6,0.2,1.2,0.4,1.8,0.6c1.5,0.6,2.9,1.4,4.4,1.4c0.4,0.4,0.8,0.9,1.3,1.3c0.4,0.4,0.9,0.7,1.4,0.8
		c1,0.1,2,0.4,3,0.6c0.3,0.1,0.7,0.1,1,0.2c0.1,0,0.2,0,0.3,0s0.2,0,0.3,0c0.6,0,1.1,0,1.7,0c0.3,0,0.6,0,0.8,0
		c0.1,0,0.1,0.1,0.2,0.1c0.1,0,0.1,0.1,0.2,0.1c1,0.2,2,0.4,3,0.6c0.2,0,0.5,0.1,0.7,0.1c0.2,0,0.5,0.1,0.7,0.1
		c1.1,0,2.2-0.1,3.3-0.2c0.7-0.1,1.4-0.4,2.1-0.6c0.8-0.1,1.6-0.3,2.3-0.4c1.3-0.2,2.5-0.5,3.8-0.8c1.9-0.4,3.9-0.9,5.8-1.3
		c0.4,0,0.7,0.1,1.1,0.1c0.4,0,0.7,0.1,1.1,0.1c2.1,0.1,4.2,0.1,6.2,0.2c0.5,0,1,0.1,1.4,0.2c1.2,0.1,2.4,0.3,3.6,0.4
		c0.3,0,0.6,0.1,0.9,0.1c1.3,0.4,2.6,1.1,4,1.2c2.8,0.1,5.6,0.6,8.3,0.7c1.3,0.1,2.6-0.3,3.9-0.4c1.6,0,3.1,0.1,4.7,0.2
		c1.9,0.1,3.8-0.2,5.7,0.4c1,0.3,2,0.1,3,0.1c1.3,0.1,2.7,0.3,4,0.4c2.3,0.1,4.6,0.3,7,0.3c1.4,0,2.9-0.1,4.3-0.2
		c1.3-0.1,2.7-0.2,4-0.2c3-0.1,6-0.2,9-0.2c2.3,0,4.5,0.1,6.8,0.2c2,0.1,4,0.5,6,0.6c1.1,0.1,2.4-0.3,3.5-0.1c0.3,0,0.5,0.1,0.7,0.1
		c0.8,0,1.7,0,2.5,0c0.7,0,1.3,0,2,0c0.7,0,1.1-0.1,1.8-0.3c1.1-0.3,2.2-0.5,3.3-0.9c0.8-0.2,1.5-0.2,2.3-0.4
		c0.6-0.2,1.2-0.3,1.8-0.5c1.7-0.6,3.4-0.8,5.1-1c1.8-0.2,3.4-0.9,5.2-1.2c1.9-0.3,3.9-0.5,5.9-0.5c2.6,0,5-0.1,7.6,0.4
		c2.4,0.4,4.9,0.9,7.3,1.4c2,0.5,4.1,0.4,6.2,0.4c2.1,0,4.2,0.1,6.4,0.3c2.6,0.2,5.2-0.1,7.8-0.1c1.2,0,2.3,0.3,3.5,0.4
		c2.6,0.1,5.2,0.2,7.8,0.2c0.7,0,1.4-0.1,2.2-0.2c1.3,0,2.7,0,4-0.1c1.6-0.2,3.1-0.5,4.7-0.7c1.2-0.1,2.3,0.3,3.5-0.2
		c0.3-0.1,0.6-0.3,1-0.2c2.3,0.4,4.5-0.8,6.8-1.2c2.1-0.4,4.2-0.6,6.4-0.9c0.9-0.1,1.7-0.4,2.6-0.5c0.5-0.1,0.9-0.2,1.4-0.3
		c1.4-0.1,2.7-0.2,4.1-0.2c1.9-0.1,3.8-0.2,5.7-0.2c1.9,0,3.8,0.2,5.8,0.2c2.4,0,4.7,0,7.1-0.2c1.1-0.1,2.2-0.6,3.3-0.9
		c0.6-0.2,1.1-0.6,1.7-0.7c2.1-0.3,4.1-0.5,6.2-0.6c1.9-0.1,3.7-0.1,5.6-0.2c1.7-0.1,3.4-0.1,5.1-0.2c0.8-0.1,1.6-0.3,2.3-1.2
		c0.8-1,1.7-1.4,2.7-1.3c0.6,0,1.2-0.3,1.7-0.4c0.6-0.2,1.2-0.5,1.8-0.5c1.2-0.1,2.4-0.1,3.5-1.3c0.2-0.2,0.5-0.3,0.8-0.4
		c0.6-0.1,1.3-0.1,1.9-0.3c1.3-0.5,2.5-1,3.7-1.7c0.6-0.3,1.1-1.1,1.6-1.6c0-0.1,0-0.3-0.1-0.4c-1.4-1.4-2.9-1-4.4-0.9
		c0.2-0.4,0.4-0.8,0.6-1.1C310.5,96,310.8,95.5,311.1,95z"/>
	<g>
		<path d="M120.7,301c13.1-0.5,27.1-1.8,34.5-4.1c1.1-0.4,1.7,1.9-0.7,2.6c-9.1,2.6-22.3,3.8-35.1,4.5l-11.6,27.4
			c-0.7,1.8-7.4,1.8-6.3-0.7l11.2-26.4c-5.8,0.3-11.2,0.3-15.9,0.3c-8.3,0-15.9-0.3-22.8-0.7c-4.1,5.9-7,11.5-10.1,15.7
			C52.9,334.4,37.2,335,22.8,329c-7.1-3-13.2-8.5-16.2-15.5c-1.3-2.9-2.2-6.4-2-9.6c0.2-3.6,1.8-6.8,5.6-8.5
			c3.6-1.6,7.9-1.8,11.8-1.6c14.5,0.5,30.7,3.4,48.3,5.7c32.8-51.6,54.5-61.2,64.3-59.8c5.4,0.8,6.9,4.5,0.4,23.9
			C135,263.5,125.3,290.4,120.7,301z M60.3,316.2c2.7-4.4,8-12.9,8-12.9c-16.2-1.3-32.2-5-48.4-6c-3.8-0.2-8.1-0.3-10.8,2.7
			c-3.8,4.4-0.3,11.6,2.7,15.3c4.8,5.8,11.4,10.2,18.6,12.5c9.3,3,19.1,1.6,25.3-5.6C57.3,320.3,58.9,318.4,60.3,316.2z
			 M130.1,261.4c6.1-14.7,7.6-19.1,4.5-19.1c-9.8,0-35.6,24.9-58,57.9c7.3,0.8,15,1.2,23.2,1.2c3.8,0,8.8,0,14.2-0.1L130.1,261.4z"
			/>
		<path d="M148.9,307.1l4.6-10.7c11.4-26.8,22.8-33.6,26.6-33.6c2.5,0,2.8,1.7,2.8,3.1c0,6.5-9.8,22.7-23.3,32.3l-5.1,11.8
			c-2.7,6.2-0.5,8.7,2.5,8.7c13.4,0,33.9-14.1,49.2-27.7c0.3-0.3,1.1-0.2,1.6,0.3c0.6,0.6,0.5,1.2,0,1.5
			c-15.7,13.9-36.9,28.3-50.8,28.3C146.3,321.2,145.4,315.5,148.9,307.1z M180.2,266.3c0-0.3,0-1.1-0.9-1.1
			c-2.1,0-6.8,3.7-17.7,28.6C171.6,285.1,180.2,271.1,180.2,266.3z"/>
		<path d="M199.3,306.6l6.5-15.5c11.7-27.5,23.1-34.3,26.9-34.3c2.5,0,2.8,1.7,2.8,3.1c0,6.2-10.3,17.5-21.4,27.8l-9.5,22.1
			c-2.8,6.5-1.6,9.3,0.8,9.3c5.2,0,11.9-10.8,11.9-16.7c-2.8-2.3-2.1-6,1.3-6c1.6,0,4.3,1.9,4.7,7.1c4.7,2.6,11.5,4,16.9,4
			c6.5,0,10.1,0,17.7-1.7c0.6-0.2,0.9,0.6,0.9,1.1c0,0.9-0.5,1.2-0.9,1.4c-6.6,1.7-10.9,1.7-17.7,1.7c-5.5,0-12-1.4-17.1-3.7
			c-1.1,5.9-7.8,14.9-18,14.9C197.1,321.2,195.4,315.9,199.3,306.6z M232.9,260.2c0-0.3,0-1.1-0.9-1.1c-1.9,0-6.5,3.9-15.3,23.1
			C225.1,273.7,232.9,264.6,232.9,260.2z"/>
		<path d="M251.8,315.6c0-8,9-19.2,18.5-19.2c3,0,5.9,1.2,7.3,2.8c0,0,0.8-0.2,1.3-0.2c3.3,0,2.3,2.6,1.4,4.8l-4.6,8.8
			c-0.6,1.4-1.1,3.4,0.1,4.6c1.4,1.6,3.9,1.1,5.8,0.7c1.8-0.3,3.6-0.9,5.4-1.4c4.3-1.4,8.4-3.2,12.5-5c3.7-1.7,7.4-3.6,11-5.6
			c0.7-0.4,1.5-0.8,2.2-1.2c0.5-0.3,0.9,0.2,1.1,0.6c0.2,0.5,0,0.9-0.5,1.2c-16.3,10.1-31,14.5-35.6,14.5c-7.6,0-9.5-4.6-7.8-8.8
			c-4,4.6-8.5,8.8-12.2,8.8C253.9,321.2,251.8,319.2,251.8,315.6z M275.1,301.1c0,0-1.4-2.7-5.3-2.4c-6.3,0.6-15.5,11.8-11.2,16.8
			C263.5,321,273.7,304.2,275.1,301.1z"/>
		<path d="M3.7,254.3c0-4.6,5.5-10.9,11.2-10.9c1.3,0,2.5,0.4,3.4,1l8-17.2c1-2.2,2.1-2.9,3-2.9c1.5,0,0.8,2,0.3,3.3l-10.4,24.4
			c-1.4,3.1,0.3,3.9,1.5,3.9c3.2,0,16-4.6,23.1-7.2c0.3-0.1,0.6,0.1,0.7,0.4c0.1,0.3,0.1,0.6-0.2,0.8c-7.9,3.1-20.9,7.7-24.5,7.7
			c-5.7,0-5.5-3.6-4.3-6.7c-2.6,3.3-5.9,6.7-8.5,6.7C4.9,257.5,3.7,256.3,3.7,254.3z M17.4,246c-0.3-0.4-0.9-1.2-2.1-1.2
			c-3.6,0-7.3,6.3-7.3,9.1c0,1,0.4,1,0.8,1C10.6,254.8,15.6,249.3,17.4,246z"/>
		<path d="M40,252.6c0-4.2,4.1-9.2,10.8-9.2c0.7,0,3,0.2,3,2.1c0,2.9-5.3,4.2-8.8,4.5c-0.5,1.2-0.9,2.6-0.9,3.3
			c0,1.2,0.8,2.5,2.9,2.5c4.8,0,13-3.8,19.3-7.7c0.3-0.2,0.5,0.1,0.6,0.4c0.1,0.3,0,0.5-0.3,0.7c-6.7,4.3-15.4,8.3-20.7,8.3
			C41.6,257.5,40,255.5,40,252.6z M52,245.5c0-0.6-0.5-1-1.2-1c-2.1,0-3.9,1.7-5,3.8C48.7,248.3,52,247.4,52,245.5z"/>
	</g>
	<g>
		<path d="M11.6,368.7h12.7v4.4h-7.6v4.4H23v4.4h-6.3v7.7h-5.1V368.7z"/>
		<path d="M42.4,368.7h5.1v13.1c0,0.5,0.1,1,0.3,1.4s0.4,0.8,0.7,1c0.3,0.3,0.7,0.5,1.1,0.6c0.4,0.1,0.9,0.2,1.5,0.2
			c0.5,0,1-0.1,1.5-0.2c0.4-0.1,0.8-0.4,1.1-0.6c0.3-0.3,0.6-0.6,0.7-1c0.2-0.4,0.3-0.9,0.3-1.4v-13.1h5.1v13.1
			c0,1.2-0.2,2.2-0.6,3.2c-0.4,1-1,1.8-1.7,2.5c-0.8,0.7-1.7,1.3-2.7,1.7c-1.1,0.4-2.3,0.6-3.6,0.6c-1.3,0-2.5-0.2-3.6-0.6
			c-1.1-0.4-2-0.9-2.7-1.7c-0.8-0.7-1.3-1.6-1.8-2.5c-0.4-1-0.6-2.1-0.6-3.2V368.7z"/>
		<path d="M79.5,368.7h5.1l5.7,9.7c0.2,0.3,0.4,0.7,0.6,1.1c0.2,0.4,0.4,0.8,0.6,1.2c0.2,0.4,0.4,0.8,0.6,1.3h0.1
			c0-0.4-0.1-0.9-0.1-1.3c0-0.4-0.1-0.7-0.1-1.2c0-0.4,0-0.8,0-1.1v-9.7h5.1v20.8H92l-5.8-9.7c-0.2-0.3-0.4-0.7-0.6-1.1
			c-0.2-0.4-0.4-0.8-0.6-1.2c-0.2-0.4-0.4-0.8-0.6-1.3h-0.1c0,0.4,0.1,0.9,0.1,1.3c0,0.4,0.1,0.7,0.1,1.1c0,0.4,0,0.8,0,1.1v9.7
			h-5.1V368.7z"/>
		<path d="M117.1,368.7h7.4c1.6,0,3.1,0.2,4.4,0.7c1.3,0.5,2.4,1.1,3.4,2c0.9,0.9,1.7,2,2.2,3.2c0.5,1.3,0.8,2.7,0.8,4.4
			c0,1.6-0.3,3.1-0.8,4.4c-0.5,1.3-1.2,2.4-2.2,3.3c-0.9,0.9-2.1,1.6-3.4,2c-1.3,0.5-2.8,0.7-4.4,0.7h-7.4V368.7z M124.3,385.1
			c0.9,0,1.7-0.1,2.4-0.4c0.7-0.3,1.3-0.6,1.8-1.2c0.5-0.5,0.9-1.1,1.1-1.9c0.3-0.8,0.4-1.6,0.4-2.6c0-1-0.1-1.9-0.4-2.6
			c-0.3-0.7-0.7-1.4-1.1-1.9c-0.5-0.5-1.1-0.9-1.8-1.1c-0.7-0.3-1.5-0.4-2.3-0.4h-2.1v12H124.3z"/>
		<path d="M164.3,385.1h-6.5l-1.3,4.4h-5.2l7-20.8h5.3l7.1,20.8h-5.2L164.3,385.1z M161,373.4c-0.1,0.4-0.2,0.9-0.3,1.3
			c-0.1,0.4-0.2,0.7-0.3,1.2c-0.1,0.4-0.2,0.8-0.3,1.1l-1.2,4h4.1l-1.2-4c-0.1-0.3-0.2-0.7-0.3-1.1c-0.1-0.4-0.2-0.8-0.3-1.2
			C161.3,374.3,161.2,373.8,161,373.4L161,373.4z"/>
		<path d="M186.8,379c0-1.5,0.3-2.9,0.8-4.2c0.5-1.3,1.3-2.4,2.3-3.4c1-1,2.1-1.7,3.5-2.3c1.3-0.5,2.8-0.8,4.3-0.8
			c0.6,0,1.2,0,1.8,0.1c0.6,0.1,1.1,0.2,1.6,0.3c0.5,0.1,0.9,0.3,1.3,0.5c0.4,0.2,0.8,0.4,1.1,0.5c0.8,0.4,1.4,0.9,2,1.5l-2.4,3.8
			c-0.5-0.4-1-0.7-1.5-1.1c-0.5-0.3-1-0.5-1.7-0.7c-0.6-0.2-1.3-0.3-2-0.3c-1,0-1.9,0.2-2.6,0.5c-0.7,0.3-1.3,0.8-1.8,1.3
			c-0.5,0.6-0.8,1.2-1.1,1.9c-0.2,0.7-0.4,1.4-0.4,2.2c0,0.8,0.1,1.5,0.4,2.3c0.2,0.7,0.6,1.4,1.1,2c0.5,0.6,1.1,1.1,1.8,1.4
			c0.7,0.4,1.6,0.5,2.5,0.5c0.4,0,0.8,0,1.1-0.1c0.4-0.1,0.7-0.2,1.1-0.3c0.3-0.1,0.6-0.3,0.9-0.4c0.3-0.2,0.6-0.3,0.8-0.5
			c0.6-0.4,1.1-0.8,1.6-1.3l2.6,3.7c-0.6,0.7-1.3,1.2-2.1,1.7c-0.4,0.2-0.8,0.4-1.2,0.6c-0.4,0.2-0.9,0.4-1.4,0.6
			c-0.5,0.2-1.1,0.3-1.7,0.4c-0.6,0.1-1.2,0.1-1.9,0.1c-1.6,0-3.1-0.3-4.4-0.8c-1.3-0.5-2.5-1.3-3.4-2.3c-1-1-1.7-2.1-2.2-3.4
			C187,382,186.8,380.5,186.8,379z"/>
		<path d="M224.3,368.7h5.1v20.8h-5.1V368.7z"/>
		<path d="M248,378.9c0-1,0.1-1.9,0.4-2.9c0.2-0.9,0.6-1.8,1.1-2.5c0.5-0.8,1-1.5,1.7-2.1c0.6-0.6,1.4-1.2,2.2-1.6
			c0.8-0.5,1.7-0.8,2.6-1.1c0.9-0.2,1.9-0.4,3-0.4c1,0,2,0.1,3,0.4s1.8,0.6,2.6,1.1c0.8,0.5,1.5,1,2.2,1.6c0.6,0.6,1.2,1.4,1.7,2.1
			c0.5,0.8,0.8,1.6,1.1,2.5c0.2,0.9,0.4,1.9,0.4,2.9c0,1.5-0.3,2.9-0.8,4.3c-0.5,1.3-1.3,2.5-2.3,3.5c-1,1-2.1,1.7-3.4,2.3
			c-1.3,0.6-2.8,0.8-4.3,0.8c-1.6,0-3-0.3-4.3-0.8c-1.3-0.6-2.5-1.3-3.4-2.3c-1-1-1.7-2.1-2.3-3.5S248,380.4,248,378.9z
			 M253.2,378.9c0,0.9,0.1,1.7,0.4,2.5c0.3,0.8,0.7,1.4,1.2,2c0.5,0.6,1.1,1,1.8,1.3c0.7,0.3,1.4,0.5,2.2,0.5c0.8,0,1.5-0.2,2.2-0.5
			c0.7-0.3,1.3-0.8,1.8-1.3c0.5-0.6,0.9-1.2,1.2-2c0.3-0.8,0.4-1.6,0.4-2.5c0-0.9-0.1-1.6-0.4-2.4c-0.3-0.7-0.7-1.4-1.2-1.9
			s-1.1-0.9-1.8-1.2s-1.4-0.5-2.2-0.5c-0.8,0-1.5,0.2-2.2,0.5c-0.7,0.3-1.3,0.7-1.8,1.2s-0.9,1.2-1.2,1.9
			C253.4,377.3,253.2,378.1,253.2,378.9z M259.1,363h5l-3.4,4.4h-3.9L259.1,363z"/>
		<path d="M288.3,368.7h5.1l5.7,9.7c0.2,0.3,0.4,0.7,0.6,1.1c0.2,0.4,0.4,0.8,0.6,1.2c0.2,0.4,0.4,0.8,0.6,1.3h0.1
			c0-0.4-0.1-0.9-0.1-1.3c0-0.4-0.1-0.7-0.1-1.2c0-0.4,0-0.8,0-1.1v-9.7h5.1v20.8h-5.1l-5.8-9.7c-0.2-0.3-0.4-0.7-0.6-1.1
			c-0.2-0.4-0.4-0.8-0.6-1.2c-0.2-0.4-0.4-0.8-0.6-1.3h-0.1c0,0.4,0.1,0.9,0.1,1.3c0,0.4,0.1,0.7,0.1,1.1c0,0.4,0,0.8,0,1.1v9.7
			h-5.1V368.7z"/>
	</g>
	<path d="M314.1,161.4c-0.1-0.7-0.5-1.6-0.9-1.8c-0.7-0.5-1.5-0.6-2.2-0.8c-0.8-0.2-1.7-0.7-2.5-0.7c-1.6-0.1-3.2,0.2-4.8,0.1
		c-1.8-0.1-3.7-0.6-5.5-0.8c-1.7-0.2-3.5-0.3-5.2-0.5c-2-0.2-4-0.4-5.9-0.5c-1.6-0.1-3.2-0.1-4.8-0.1c-1.6,0-3.2,0-4.8-0.1
		c-0.1,0-0.2,0-0.4,0c-0.1,0-0.2,0-0.4,0c-1.4,0-2.9-0.1-4.3-0.1c-0.9,0-1.7,0.1-2.6,0.1c-2.7,0-5.5,0-8.2,0.1c-1.5,0-3,0.4-4.6,0.4
		c-3.5,0.1-7,0.2-10.6,0.2c-1.5,0-3-0.2-4.5-0.4c-1.1-0.1-2.2-0.3-3.3-0.5c-2-0.3-3.9-0.6-5.9-0.8c-1.9-0.1-3.7-0.1-5.6-0.1
		c-1.2,0-2.4-0.1-3.6-0.1c-3.6-0.1-7.2-0.3-10.9-0.4c-0.7,0-1.5,0.2-2.2,0.1c-1.4-0.1-2.8-0.3-4.2-0.4c-0.4,0-0.9,0-1.3,0
		c-2.6-0.2-5.3-0.3-7.9-0.5c-0.7-0.1-1.3-0.2-2-0.3c-0.7-0.1-1.3-0.1-2-0.1c-2.6,0.1-5.2-0.1-7.9-0.8c-2.2-0.5-4.4-0.7-6.6-0.9
		c-2-0.1-4.1-0.1-6.1-0.1c-1.7,0-3.4,0.1-5.1,0.2c-0.9,0-1.7,0.4-2.6,0.2c-1.8-0.5-3.6,0.3-5.4-0.1c-2.1-0.5-4.2-0.1-6.3-0.1
		c-1,0-2.1-0.1-3.1-0.2c-1.7-0.2-3.5-0.4-5.2-0.6c-0.9-0.1-1.8-0.1-2.7-0.2c-2.1-0.3-4.2-0.6-6.3-0.8c-0.2,0-0.4,0.2-0.6,0.3
		c-0.2-0.1-0.4-0.3-0.6-0.3c-1-0.1-2,0-3-0.1c-2.4-0.2-4.7-0.5-7.1-0.8c-0.3,0-0.5,0-0.8,0c-2.3-0.1-4.7-0.3-7-0.2
		c-2,0.1-3.9,0.5-5.9,0.7c-3.3,0.4-6.6,0.6-9.9,1c-1.8,0.2-3.7,0.5-5.5,0.8c-2,0.3-4,0.5-6,0.9c-1.6,0.3-3.2,0.6-4.8-0.1
		c-1.6-0.7-3-0.3-4.4,0.8c-1,0.8-2.1,0.6-3.2,0.6c-1.2,0-2.5-0.6-3.8-0.6c-1.5,0-3,0.6-4.5,0.6c-1.1,0.1-2.2-0.3-3.3-0.4
		c-2.9-0.3-5.7-0.5-8.6-0.7c-0.3,0-0.5,0-0.8,0c-2.4-0.2-4.8-0.4-7.2-0.5c-1.5,0-3.1,0.3-4.6,0.4c-0.8,0.1-1.6,0.3-2.5,0.4
		c-2.3,0.3-4.6,0.6-6.9,0.8c-0.8,0.1-1.6-0.1-2.4-0.1c-2.5,0.1-5,0.3-7.5,0.2c-1.3,0-2.5-0.7-3.8-0.9c-2.3-0.3-4.5-0.6-6.8-0.5
		c-2.1,0.1-4.3,0.6-6.4,1.1c-0.8,0.2-1.6,0.6-2.3,1c-0.8,0.4-1.6,0.8-2.4,1.2c-0.1,0.1-0.3,0.7-0.3,1c0,1.9,0.1,3.8,0.1,5.7
		c0.1,0.6,0.1,1.4,0.3,1.9c0,0.2,0.1,0.3,0.2,0.5c0.6,1.2,1.4,2.1,2.1,3.1c0.1,0.7,0.3,1.5,0.4,2.2c-0.3,0.6-0.6,1.2-0.8,1.8
		c-0.1,0.2-0.3,0.2-0.4,0.4c-0.1,0.2-0.2,0.5-0.1,1c0.8,3.7,2.2,5.5,3.8,6.9c0.5,0.4,1,0.7,1.5,1.1c0,0,0.1,0,0.1,0
		c0.3,0.7,0.7,1.3,1.1,1.8c0.4,0.4,0.8,0.7,1.2,0.9c0.3,0.4,0.5,0.7,0.8,1.1c0.8,0.3,1.6,0.5,2.5,0.8c0.5,0.2,1.1,0.3,1.6,0.4
		c2.2,0.3,4.3,0.6,6.5,0.9c1.3,0.5,2.7,1,4,1.5c0.9,0.3,1.8,0.7,2.7,0.8c1.9,0.1,3.8,0.2,5.6,0.1c2.6-0.1,5.2-0.4,7.9-0.6
		c0.1,0,0.2-0.1,0.2-0.1c0.2-0.1,0.4-0.2,0.6-0.2c0.4,0,0.8,0,1.2,0c1.4-0.2,2.8-0.3,4.2-0.5c0.1,0,0.2,0,0.2,0
		c0.9-0.1,1.8-0.3,2.7-0.4c0.9-0.1,1.8-0.3,2.7-0.2c2,0,4,0.6,6,0.8c1.7,0.2,3.3,0.4,5,0.6c0.4,0.1,0.8,0.2,1.3,0.2
		c2.7,0,5.4,0,8.1,0c0.6,0,1.2-0.1,1.7,0c1.2,0.2,2.3,0.6,3.5,0.6c2,0.1,3.9-0.1,5.9-0.1c0.7,0,1.4-0.2,2.2-0.1c0.5,0,1,0.1,1.5,0.1
		c0.5,0.1,1,0.1,1.5,0.2c3.4,0,6.8-0.1,10.2-0.1c0.5,0,1,0.1,1.5,0.1c0.5,0,1,0.1,1.5,0c1.8-0.1,3.6-0.4,5.4-0.5c1-0.1,2,0.2,3,0.1
		c1-0.1,1.9-0.5,2.9-0.6c2-0.2,4-0.4,6-0.6c0.1,0,0.2,0,0.3-0.1c1.5-0.4,3.1-0.9,4.6-1.3c1.1-0.3,2.2-0.5,3.3-0.8
		c1.7-0.4,3.4-0.9,5.1-1.3c1.2-0.3,2.5-0.3,3.7-0.5c1.6-0.2,3.2-0.5,4.8-0.8c0.5-0.1,0.9,0,1.4-0.1c0.8-0.2,1.5-0.6,2.3-0.6
		c2.3,0.1,4.6,0.3,7,0.5c0.7,0.1,1.4,0.1,2.1,0.2c1.5,0.3,2.9,0.7,4.4,0.9c1.5,0.2,3.1,0.3,4.6,0.4c2.1,0.1,4.2,0.4,6.2,0.3
		c2.1-0.1,4.2-0.7,6.3-0.7c3.5,0,6.9,0.2,10.4,0.4c1.4,0.1,2.8,0.6,4.2,0.9c1.2,0.2,2.4,0.4,3.6,0.6c1.6,0.2,3.3,0.1,4.8,0.7
		c0.6,0.3,1.1,0.5,1.8,0.5c2.1,0.2,4.4,0.1,6.4-0.4c2.4-0.6,4.7-1.3,7.2-1.9c1.4-0.3,3-0.5,4.2-1.1c1-0.4,1.9-1,2.9-1.4
		c1.4-0.5,2.9-1.1,4.3-1.5c1.5-0.4,3.1-0.4,4.6-0.7c2.3-0.5,4.7-1,7-1.1c1.3,0,2.5-0.4,3.8-0.4c0.7,0,1.4,0.1,2.1-0.1
		c2.9-0.5,5.9-1,8.9-1.3c3.3-0.4,6.4-1.4,9.6-2.4c4.4-1.4,8.9-2,13.6-2c1.3,0,2.5,0,3.8,0c1.6,0,3.1-0.3,4.7-0.4
		c2.1-0.1,4.1-0.4,6.2-0.4c1.9,0,3.7-0.7,5.6-1.2c1.8-0.5,3.7-1,5.5-1.7c2-0.7,4.5-1.3,6.2-2.6c0.6-0.5,1.2-1.2,1.7-1.7
		c0.6-0.6,0.7-1.1,1-1.8C313.8,163,314.2,162.6,314.1,161.4z"/>
</g>
</svg>
