<?xml version="1.0" encoding="utf-8"?>
<!-- Generator: Adobe Illustrator 25.0.0, SVG Export Plug-In . SVG Version: 6.00 Build 0)  -->
<svg version="1.1" id="Layer_1" xmlns="http://www.w3.org/2000/svg" xmlns:xlink="http://www.w3.org/1999/xlink" x="0px" y="0px"
	 viewBox="0 0 370.9 452" style="enable-background:new 0 0 370.9 452;" xml:space="preserve">
<style type="text/css">
	.st0{stroke:#000000;stroke-width:1.4353;}
	.st1{stroke:#000000;stroke-width:3.0758;}
	.st2{stroke:#000000;stroke-miterlimit:10;}
</style>
<g>
	<g>
		<path class="st0" d="M92.98,257.19v-0.88h3.86v-5.01c0-3.6,2.55-3.77,4.44-3.77c0.78,0,1.4,0.12,1.89,0.17v0.88
			c-0.84-0.14-1.4-0.18-2.07-0.18c-2.81,0-3.38,1.02-3.38,3.21v4.7h4.87v0.88h-4.87v21.7h-0.88v-21.7H92.98z"/>
		<path class="st0" d="M121.53,278.89h-0.88v-5.58h-0.1c-0.83,3.46-3.68,6.1-8.12,6.1c-4.7,0-8.04-2.9-8.04-8.12v-14.98h0.89v14.84
			c0,5.22,3.33,7.38,7.15,7.38c5.4,0,8.22-4.44,8.22-9.44v-12.78h0.88V278.89z"/>
		<path class="st0" d="M126.36,256.31h0.88v5.58h0.08c0.84-3.47,3.68-6.1,8.13-6.1c4.7,0,8.04,2.89,8.04,8.12v14.99h-0.88v-14.85
			c0-5.23-3.34-7.39-7.16-7.39c-5.4,0-8.21,4.44-8.21,9.45v12.79h-0.88V256.31z"/>
		<path class="st0" d="M165.89,247.53h0.88v31.36h-0.88v-6.33h-0.09c-1.14,3.95-4.43,6.85-9.05,6.85c-5.97,0-9.61-4.97-9.61-11.78
			c0-6.33,3.37-11.85,9.61-11.85c4.79,0,8,2.77,9.05,6.85h0.09V247.53z M156.75,256.65c-6.19,0-8.73,5.75-8.73,10.98
			c0,5.8,2.89,10.9,8.73,10.9c5.79,0,9.13-5.05,9.13-10.9C165.89,260.65,162.24,256.65,156.75,256.65z"/>
		<path class="st0" d="M171.86,263.3c0.22-4.26,3.04-7.51,8.61-7.51c4,0,7.33,1.53,7.47,6.46v14.36c0,1.71,1.62,1.54,2.86,1.41v0.88
			c-1.72,0.12-3.74,0.12-3.74-2.21v-2.94h-0.09c-0.87,2.91-4.29,5.67-8.96,5.67c-4.47,0-7.55-2.11-7.55-6.1
			c0-5.58,3.99-6.5,7.77-6.77c6.2-0.35,8.83-0.22,8.83-3.65c0-2.73-0.57-6.24-6.59-6.24c-4.69,0-7.42,2.42-7.73,6.64H171.86z
			 M187.06,265.61h-0.09c-1.18,1.71-5.08,1.54-8.73,1.81c-3.55,0.26-6.89,1.05-6.89,5.89c0,2.59,1.67,5.23,6.58,5.23
			c5.89,0,9.14-4.31,9.14-8.74V265.61z"/>
		<path class="st0" d="M211.21,271.2c-0.48,5.06-4.13,8.21-9.22,8.21c-6.41,0-10.01-5.18-10.01-11.34c0-6.54,3.29-12.29,10.53-12.29
			c4.22,0,7.96,2.59,8.52,7.37h-0.88c-0.7-4.39-3.91-6.5-7.64-6.5c-7.2,0-9.66,6.11-9.66,11.42c0,5.53,3.16,10.46,9.14,10.46
			c4.43,0,7.99-2.82,8.34-7.34H211.21z"/>
		<path class="st0" d="M215.87,251.97h-0.89v-4.44h0.89V251.97z M215.87,278.89h-0.89v-22.58h0.89V278.89z"/>
		<path class="st0" d="M229.71,255.78c6.58,0,10.14,5.66,10.14,11.81c0,6.19-3.56,11.82-10.19,11.82c-6.59,0-10.15-5.62-10.15-11.82
			C219.52,261.45,223.07,255.78,229.71,255.78z M229.71,278.53c6.01,0,9.26-5.23,9.26-10.94c0-5.62-3.25-10.94-9.26-10.94
			c-6.1,0-9.32,5.32-9.32,10.94C220.39,273.31,223.61,278.53,229.71,278.53z M238.46,245.69l-6.42,6.33h-0.65l5.81-6.33H238.46z"/>
		<path class="st0" d="M243.5,256.31h0.87v5.58h0.1c0.83-3.47,3.69-6.1,8.12-6.1c4.7,0,8.04,2.89,8.04,8.12v14.99h-0.89v-14.85
			c0-5.23-3.33-7.39-7.16-7.39c-5.4,0-8.22,4.44-8.22,9.45v12.79h-0.87V256.31z"/>
	</g>
	<g>
		<path class="st0" d="M60.38,445.79h-0.52v-17.95h0.52v3.74h0.05c0.68-2.34,2.62-4.05,5.35-4.05c3.53,0,5.68,2.93,5.68,6.96
			c0,3.74-2,7.01-5.68,7.01c-2.83,0-4.73-1.65-5.35-4.06h-0.05V445.79z M70.95,434.5c0-3.43-1.71-6.44-5.16-6.44
			c-3.43,0-5.41,2.98-5.41,6.44c0,4.12,2.16,6.49,5.41,6.49C69.44,440.99,70.95,437.59,70.95,434.5z"/>
		<path class="st0" d="M73.78,431.98c0.13-2.52,1.8-4.44,5.09-4.44c2.37,0,4.34,0.91,4.42,3.82v8.49c0,1.02,0.97,0.92,1.69,0.83
			v0.53c-1.01,0.08-2.21,0.08-2.21-1.3v-1.74h-0.05c-0.53,1.71-2.55,3.36-5.29,3.36c-2.65,0-4.47-1.25-4.47-3.63
			c0-3.29,2.36-3.83,4.59-3.98c3.66-0.22,5.22-0.12,5.22-2.16c0-1.61-0.33-3.68-3.9-3.68c-2.77,0-4.38,1.42-4.56,3.92H73.78z
			 M82.77,433.36h-0.05c-0.7,1.01-3.01,0.9-5.17,1.06c-2.1,0.15-4.07,0.62-4.07,3.47c0,1.54,0.99,3.1,3.9,3.1
			c3.48,0,5.39-2.55,5.39-5.17V433.36z"/>
		<path class="st0" d="M86.82,441.2H86.3v-13.35h0.52v3.3h0.05c0.49-1.98,2.05-3.72,5.24-3.62v0.52c-3.66-0.18-5.29,2.67-5.29,5.58
			V441.2z"/>
		<path class="st0" d="M93,431.98c0.13-2.52,1.79-4.44,5.1-4.44c2.36,0,4.34,0.91,4.41,3.82v8.49c0,1.02,0.97,0.92,1.69,0.83v0.53
			c-1.01,0.08-2.2,0.08-2.2-1.3v-1.74h-0.05c-0.53,1.71-2.55,3.36-5.3,3.36c-2.64,0-4.46-1.25-4.46-3.63c0-3.29,2.36-3.83,4.6-3.98
			c3.66-0.22,5.21-0.12,5.21-2.16c0-1.61-0.33-3.68-3.89-3.68c-2.79,0-4.39,1.42-4.57,3.92H93z M101.99,433.36h-0.05
			c-0.7,1.01-3.01,0.9-5.16,1.06c-2.11,0.15-4.08,0.62-4.08,3.47c0,1.54,0.99,3.1,3.9,3.1c3.47,0,5.39-2.55,5.39-5.17V433.36z"/>
		<path class="st0" d="M112.74,422.67h0.52v8.48h0.05c0.49-2.06,2.19-3.62,4.81-3.62c2.77,0,4.75,1.71,4.75,4.8v8.86h-0.53v-8.78
			c0-3.08-1.97-4.36-4.22-4.36c-3.2,0-4.86,2.62-4.86,5.58v7.56h-0.52V422.67z"/>
		<path class="st0" d="M125.69,431.98c0.14-2.52,1.8-4.44,5.1-4.44c2.36,0,4.34,0.91,4.41,3.82v8.49c0,1.02,0.96,0.92,1.7,0.83v0.53
			c-1.01,0.08-2.21,0.08-2.21-1.3v-1.74h-0.05c-0.52,1.71-2.54,3.36-5.29,3.36c-2.65,0-4.47-1.25-4.47-3.63
			c0-3.29,2.36-3.83,4.6-3.98c3.66-0.22,5.21-0.12,5.21-2.16c0-1.61-0.32-3.68-3.89-3.68c-2.78,0-4.39,1.42-4.57,3.92H125.69z
			 M134.68,433.36h-0.05c-0.7,1.01-3,0.9-5.16,1.06c-2.1,0.15-4.08,0.62-4.08,3.47c0,1.54,0.99,3.1,3.9,3.1
			c3.49,0,5.4-2.55,5.4-5.17V433.36z"/>
		<path class="st0" d="M148.96,436.66c-0.28,2.98-2.44,4.86-5.45,4.86c-3.79,0-5.92-3.07-5.92-6.71c0-3.87,1.95-7.27,6.23-7.27
			c2.5,0,4.71,1.53,5.04,4.36h-0.52c-0.41-2.6-2.32-3.84-4.53-3.84c-4.25,0-5.71,3.61-5.71,6.75c0,3.27,1.87,6.18,5.4,6.18
			c2.63,0,4.72-1.65,4.94-4.33H148.96z"/>
		<path class="st0" d="M150.93,434.63c0.05,3.58,1.49,6.36,5.28,6.36c2.76,0,4.78-1.54,5.22-4.42h0.52
			c-0.36,3.07-2.64,4.95-5.68,4.95c-4.13,0.05-5.84-3.02-5.84-6.99c0-4.44,2.83-6.99,5.84-6.99c4.16,0,6,3.44,5.84,7.09H150.93z
			 M161.58,434.11c0.03-3.28-1.82-6.05-5.27-6.05c-2.88,0-5.2,2.31-5.38,6.05H161.58z"/>
		<path class="st0" d="M164.71,441.2h-0.52v-13.35h0.52v3.3h0.04c0.5-1.98,2.06-3.72,5.25-3.62v0.52c-3.67-0.18-5.29,2.67-5.29,5.58
			V441.2z"/>
		<path class="st0" d="M170.91,422.67h0.52v18.53h-0.52V422.67z"/>
		<path class="st0" d="M179.6,427.54c3.9,0,6.01,3.35,6.01,6.99c0,3.66-2.11,6.99-6.02,6.99c-3.91,0-6.01-3.33-6.01-6.99
			C173.58,430.88,175.68,427.54,179.6,427.54z M179.6,440.99c3.56,0,5.48-3.1,5.48-6.46c0-3.32-1.92-6.47-5.48-6.47
			c-3.61,0-5.51,3.15-5.51,6.47C174.1,437.89,176,440.99,179.6,440.99z"/>
		<path class="st0" d="M196.46,431.8c0-2.68-1.76-3.74-4.3-3.74c-3.74,0-3.99,2.36-3.99,2.82c0,1.34,0.56,1.97,1.47,2.34
			c0.94,0.37,2.01,0.6,3.44,0.99c2.05,0.51,4.28,1.03,4.28,3.58c0,2.67-2.51,3.72-4.83,3.72c-3.5,0-5.4-1.54-5.4-4.89h0.52
			c0,2.96,1.79,4.36,4.88,4.36c1.92,0,4.31-0.85,4.31-3.14c0-2.37-2.32-2.72-4.6-3.3c-1.27-0.31-2.23-0.58-2.98-0.91
			c-1.08-0.46-1.61-1.32-1.61-2.76c0-1.48,1.2-3.35,4.52-3.35c2.96,0,4.83,1.3,4.83,4.26H196.46z"/>
		<path class="st0" d="M215.7,431.8c0-2.68-1.76-3.74-4.3-3.74c-3.74,0-4,2.36-4,2.82c0,1.34,0.57,1.97,1.48,2.34
			c0.93,0.37,2,0.6,3.43,0.99c2.05,0.51,4.29,1.03,4.29,3.58c0,2.67-2.52,3.72-4.83,3.72c-3.51,0-5.4-1.54-5.4-4.89h0.51
			c0,2.96,1.79,4.36,4.89,4.36c1.92,0,4.3-0.85,4.3-3.14c0-2.37-2.3-2.72-4.59-3.3c-1.27-0.31-2.24-0.58-2.98-0.91
			c-1.09-0.46-1.62-1.32-1.62-2.76c0-1.48,1.2-3.35,4.53-3.35c2.96,0,4.83,1.3,4.83,4.26H215.7z"/>
		<path class="st0" d="M224.35,427.54c3.9,0,6,3.35,6,6.99c0,3.66-2.1,6.99-6.03,6.99c-3.89,0-6.01-3.33-6.01-6.99
			C218.32,430.88,220.44,427.54,224.35,427.54z M224.35,440.99c3.55,0,5.48-3.1,5.48-6.46c0-3.32-1.93-6.47-5.48-6.47
			c-3.61,0-5.5,3.15-5.5,6.47C218.85,437.89,220.75,440.99,224.35,440.99z"/>
		<path class="st0" d="M232.5,427.85h0.53v3.3h0.05c0.49-2.06,2.18-3.62,4.8-3.62c2.78,0,4.75,1.71,4.75,4.8v8.86h-0.52v-8.78
			c0-3.08-1.97-4.36-4.23-4.36c-3.2,0-4.85,2.62-4.85,5.58v7.56h-0.53V427.85z"/>
		<path class="st0" d="M246.01,441.2h-0.52v-13.35h0.52v3.3h0.06c0.49-1.98,2.05-3.72,5.24-3.62v0.52c-3.66-0.18-5.3,2.67-5.3,5.58
			V441.2z"/>
		<path class="st0" d="M251.96,434.63c0.04,3.58,1.47,6.36,5.27,6.36c2.76,0,4.78-1.54,5.22-4.42h0.52
			c-0.36,3.07-2.65,4.95-5.69,4.95c-4.13,0.05-5.84-3.02-5.84-6.99c0-4.44,2.83-6.99,5.84-6.99c4.16,0,6,3.44,5.84,7.09H251.96z
			 M262.61,434.11c0.02-3.28-1.83-6.05-5.27-6.05c-2.89,0-5.19,2.31-5.37,6.05H262.61z"/>
		<path class="st0" d="M270.27,421.63l-3.8,3.74h-0.38l3.42-3.74H270.27z M265.21,441.2v-13.35h0.52v13.35H265.21z"/>
		<path class="st0" d="M269.1,441.2h-0.53v-13.35h0.53v3.3h0.05c0.49-1.98,2.05-3.72,5.24-3.62v0.52c-3.66-0.18-5.29,2.67-5.29,5.58
			V441.2z"/>
		<path class="st0" d="M278.47,441.2h-0.51v-2.55h0.51V441.2z M287.13,441.2h-0.52v-2.55h0.52V441.2z M295.77,441.2h-0.52v-2.55
			h0.52V441.2z"/>
	</g>
	<g>
		<g>
			<path d="M140.85,110.44C141.38,109.37,140.91,110.46,140.85,110.44c0.01,0,0.42-0.8,0.46-0.86c0.26-0.48,0.54-0.95,0.81-1.42
				c0.67-1.13,1.38-2.23,2.12-3.3c1.38-1.99,2.88-3.9,4.48-5.71c0.07-0.08,0.15-0.17,0.22-0.25c0.37-0.41,0.3-0.33-0.21,0.23
				c0.11-0.25,0.5-0.53,0.68-0.73c0.38-0.41,0.77-0.81,1.17-1.2c0.95-0.96,1.93-1.88,2.93-2.79c1.86-1.67,3.8-3.25,5.81-4.75
				c1.02-0.75,2.05-1.49,3.09-2.2c0.47-0.32,0.95-0.69,1.44-0.96c-1.24,0.68-0.19,0.13,0.06-0.03c0.34-0.22,0.69-0.43,1.04-0.64
				c2.24-1.37,4.54-2.65,6.88-3.84c4.7-2.39,9.59-4.43,14.58-6.12c0.51-0.17,1.14-0.51,1.66-0.55c-1.24,0.09-0.44,0.14,0.03-0.01
				c0.28-0.09,0.56-0.17,0.83-0.25c1.28-0.38,2.56-0.75,3.84-1.08c2.49-0.65,4.99-1.23,7.52-1.71c4.79-0.92,9.63-1.5,14.51-1.75
				c1.15-0.06-1.26,0.03-0.11,0.01c0.31-0.01,0.63-0.02,0.94-0.03c0.52-0.01,1.04-0.02,1.55-0.02c1.34,0,2.68,0.09,4.02,0.19
				c2.34,0.17,4.67,0.46,6.97,0.87c0.6,0.11,1.2,0.22,1.8,0.35c0.2,0.04,0.39,0.08,0.59,0.13c1.08,0.22-1.19-0.29-0.12-0.03
				c1.14,0.28,2.27,0.58,3.39,0.92c1.96,0.6,3.89,1.3,5.77,2.13c0.9,0.4,1.79,0.83,2.68,1.27c0.87,0.43-0.92-0.51-0.34-0.18
				c0.19,0.11,0.39,0.21,0.58,0.32c0.46,0.25,0.91,0.52,1.36,0.78c1.68,1.01,3.3,2.12,4.83,3.34c0.66,0.52,1.36,1.41,2.1,1.78
				c-0.02-0.01-0.98-0.92-0.42-0.38c0.18,0.17,0.36,0.34,0.54,0.51c0.36,0.34,0.71,0.69,1.05,1.05c1.31,1.35,2.53,2.79,3.66,4.29
				c0.49,0.65,0.95,1.32,1.41,1.99c0.27,0.39,0.44,1.04-0.18-0.29c0.1,0.21,0.27,0.42,0.39,0.62c0.26,0.42,0.51,0.84,0.75,1.26
				c0.92,1.6,1.75,3.25,2.49,4.94c0.35,0.8,0.67,1.6,0.98,2.41c0.18,0.47,0.35,0.93,0.51,1.4c0.16,0.45,0.66,2.2,0.13,0.36
				c0.51,1.79,1.02,3.56,1.4,5.38c0.41,1.93,0.72,3.88,0.95,5.84c0.11,0.91,0.19,1.82,0.26,2.73c0.04,0.48,0.07,0.96,0.09,1.44
				c0.01,0.26,0.02,0.53,0.04,0.79c-0.03-0.48-0.04-1.23-0.02-0.31c0.12,4.04-0.1,8.09-0.6,12.1c-0.25,2.01-0.58,4-0.97,5.99
				c-0.11,0.55-0.22,1.09-0.34,1.63c-0.3,1.38,0.25-1.04-0.08,0.34c-0.26,1.09-0.54,2.18-0.84,3.26c-1.14,4.1-2.57,8.13-4.26,12.03
				c-0.84,1.93-1.75,3.83-2.7,5.7c-0.48,0.95,0.58-1.08,0.07-0.14c-0.09,0.17-0.18,0.34-0.27,0.51c-0.27,0.51-0.55,1.01-0.83,1.51
				c-0.54,0.96-1.1,1.92-1.68,2.86c-2.12,3.46-4.37,6.83-6.9,10.01c-0.63,0.79-1.27,1.57-1.93,2.34c-0.3,0.35-0.6,0.7-0.91,1.05
				c-0.18,0.21-0.37,0.42-0.56,0.63c-0.92,1.03,0.55-0.58-0.06,0.07c-1.42,1.53-2.87,3.02-4.37,4.47c-3.15,3.04-6.49,5.88-9.98,8.53
				c-1.74,1.32-3.51,2.6-5.32,3.83c-0.5,0.34-0.99,0.67-1.5,1c-0.17,0.11-0.34,0.22-0.5,0.33c-0.92,0.61,1.03-0.66,0.1-0.07
				c-1.02,0.65-2.04,1.29-3.08,1.91c-3.91,2.35-7.94,4.49-12.07,6.41c-4.05,1.88-8.19,3.55-12.41,4.99
				c-0.57,0.2-1.15,0.38-1.73,0.57c-1.02,0.34,0.99-0.3,0.3-0.09c-0.24,0.07-0.48,0.15-0.72,0.22c-1.15,0.35-2.31,0.69-3.48,1.01
				c-2.12,0.58-4.26,1.1-6.41,1.56c-4.33,0.92-8.73,1.57-13.15,1.92c-1.06,0.08-2.13,0.12-3.2,0.2c1.8-0.12,0.01-0.01-0.37,0
				c-0.63,0.02-1.25,0.02-1.88,0.03c-2.15,0.01-4.3-0.07-6.44-0.23c-2.07-0.15-4.13-0.39-6.18-0.71c-1.02-0.16-2.03-0.34-3.04-0.54
				c-0.46-0.09-0.91-0.19-1.37-0.29c-1.03-0.22,1.22,0.3,0.2,0.04c-0.36-0.09-0.72-0.18-1.08-0.27c-4-1.02-7.9-2.42-11.63-4.19
				c-0.46-0.22-0.92-0.44-1.37-0.68c-0.31-0.16-1.16-0.69,0.17,0.09c-0.16-0.09-0.33-0.18-0.49-0.26c-0.98-0.53-1.95-1.1-2.91-1.69
				c-1.77-1.09-3.47-2.28-5.11-3.55c-0.83-0.65-1.65-1.31-2.44-2c-0.22-0.19-0.43-0.38-0.65-0.57c-0.77-0.68,0.71,0.68,0.21,0.2
				c-0.46-0.44-0.93-0.87-1.38-1.31c-1.57-1.54-3.05-3.16-4.44-4.85c-1.53-1.86-2.93-3.8-4.26-5.8c-0.36-0.54,0.16-0.14,0.18,0.29
				c-0.01-0.2-0.41-0.66-0.52-0.83c-0.29-0.46-0.57-0.93-0.84-1.4c-0.66-1.12-1.29-2.26-1.89-3.42c-1.09-2.11-2.08-4.27-2.96-6.48
				c-0.44-1.1-0.86-2.21-1.25-3.34c-0.21-0.61-0.38-1.24-0.62-1.84c0.04,0.09,0.38,1.24,0.12,0.38c-0.12-0.41-0.25-0.83-0.37-1.24
				c-1.36-4.7-2.3-9.53-2.84-14.39c-0.12-1.09-0.23-2.19-0.31-3.28c-0.05-0.66-0.1-1.32-0.13-1.98c-0.02-0.28-0.03-0.55-0.04-0.83
				c-0.07-1.34,0.02,0.94,0-0.12c-0.07-2.5-0.07-5,0.02-7.5c0.19-5,0.74-9.98,1.59-14.91c0.21-1.23,0.44-2.45,0.69-3.67
				c0.12-0.61,0.25-1.22,0.39-1.83c0.07-0.33,0.17-1.15-0.03,0.13c0.07-0.44,0.21-0.89,0.31-1.33c0.59-2.43,1.25-4.85,1.98-7.24
				c1.49-4.89,3.27-9.7,5.33-14.38c1-2.28,2.06-4.53,3.19-6.74c0.15-0.3,0.31-0.6,0.46-0.9c0.54-1.06-0.54,1.01,0.02-0.04
				c0.27-0.49,0.53-0.99,0.8-1.48c0.64-1.18,1.31-2.34,1.99-3.5c2.51-4.26,5.28-8.38,8.3-12.3c1.44-1.87,2.94-3.7,4.5-5.47
				c0.35-0.39,0.75-0.77,1.06-1.19c-0.83,1.13-0.26,0.29-0.02,0.03c0.22-0.23,0.43-0.46,0.65-0.69c0.83-0.87,1.67-1.73,2.53-2.58
				c3.16-3.1,6.54-5.98,10.14-8.58c2.17-1.57,2.37-5.29,0.59-7.2c-2-2.16-4.88-2.27-7.2-0.59c-16.67,12.05-28.95,29.87-36.99,48.61
				c-8.38,19.54-12.4,41.44-9.7,62.63c2.57,20.24,12.17,39.99,28.68,52.43c14.94,11.25,33.92,14.73,52.24,13.18
				c18.68-1.58,37.09-8.35,52.99-18.16c15.69-9.68,29.3-22.31,38.65-38.31c9.19-15.72,14.16-33.79,13.22-52.04
				c-0.85-16.53-7.8-32.78-21.23-42.89c-16.02-12.06-37.37-12.9-56.32-9.05c-21.53,4.37-42.9,14.54-57.44,31.35
				c-3.46,4-6.28,8.39-8.66,13.11c-1.21,2.4,0.59,5.79,3.02,6.57C137.16,114.39,139.56,113,140.85,110.44L140.85,110.44z"/>
		</g>
		<g>
			<path d="M147.03,177.78c11.56,6.65,24.42,10.28,37.8,9.22c12.02-0.95,23.55-6.18,32.65-14.02c5.48-4.72,10.17-10.4,13.95-16.56
				c1.4-2.28,1.17-5.57-1.25-7.12c-2.22-1.42-5.62-1.18-7.12,1.25c-1.6,2.6-3.35,5.12-5.27,7.49c-0.47,0.58-0.94,1.15-1.43,1.71
				c-0.23,0.27-0.46,0.59-0.73,0.83c0.97-0.89,0.08-0.08-0.11,0.11c-0.99,1.05-2.01,2.07-3.07,3.05c-2.06,1.91-4.26,3.68-6.58,5.27
				c-0.24,0.16-0.48,0.32-0.72,0.48c-0.62,0.43,1.09-0.67,0.1-0.06c-0.58,0.36-1.17,0.72-1.76,1.07c-1.18,0.68-2.38,1.32-3.61,1.91
				c-1.22,0.59-2.46,1.13-3.72,1.62c-0.58,0.22-1.16,0.44-1.74,0.64c-0.26,0.09-0.53,0.18-0.8,0.27c-0.54,0.18-0.43,0.14,0.34-0.11
				c-0.21,0.07-0.43,0.13-0.64,0.19c-2.59,0.76-5.23,1.31-7.91,1.65c-1.24,0.16-2.48,0.25-3.72,0.33c-1.21,0.08,1.22-0.02,0,0
				c-0.34,0-0.69,0.01-1.03,0.02c-0.8,0-1.61-0.01-2.41-0.04c-2.69-0.11-5.38-0.43-8.02-0.93c-0.35-0.07-0.7-0.14-1.06-0.21
				c-0.24-0.05-0.47-0.1-0.7-0.15c0.7,0.16,0.78,0.18,0.23,0.05c-0.83-0.22-1.65-0.42-2.47-0.66c-1.55-0.45-3.09-0.97-4.6-1.54
				c-1.56-0.59-3.1-1.25-4.6-1.96c-0.83-0.39-1.67-0.79-2.48-1.23c1.11,0.6-0.08-0.05-0.26-0.15c-0.47-0.26-0.94-0.53-1.41-0.8
				c-2.31-1.33-5.54-1.21-7.12,1.25C144.39,172.83,144.56,176.36,147.03,177.78L147.03,177.78z"/>
		</g>
		<path d="M179.03,134.85c2.73,7.18,2.99,13.74,0.6,14.65c-2.39,0.91-6.55-4.18-9.27-11.36c-2.74-7.18-3-13.74-0.61-14.65
			C172.15,122.57,176.3,127.67,179.03,134.85z"/>
		<path d="M194.49,119.39c2.73,7.19,2.99,13.75,0.6,14.66c-2.4,0.9-6.55-4.18-9.28-11.37c-2.73-7.18-3-13.74-0.6-14.65
			C187.61,107.12,191.76,112.21,194.49,119.39z"/>
		<g>
			<path d="M81.59,87.39c1.49,2.07,4.25,2.77,6.66,2.82c3.57,0.09,7.12-0.73,10.52-1.76c10.6-3.19,20.59-8.37,30.13-13.91
				c12.06-7.01,23.63-14.97,34.49-23.73c8.65-6.98,17.11-14.51,24.1-23.2c2.31-2.87,4.48-5.92,5.99-9.29
				c1.08-2.4,1.82-5.21,0.9-7.78c-2.08-5.8-10.32-4.5-14.88-3.41c-10.08,2.4-19.64,7.19-28.66,12.16
				c-12.27,6.76-23.99,14.58-35.06,23.16c-9.28,7.18-18.26,14.95-25.97,23.82c-2.56,2.94-5.02,6.04-6.91,9.46
				c-1.42,2.55-2.72,5.39-2.5,8.38C80.49,85.34,80.92,86.39,81.59,87.39c0.67,1,2.3,0.97,3.14,0.26c1-0.85,0.93-2.14,0.26-3.14
				c0.42,0.63,0.08,0.06-0.02-0.1c-0.06-0.1-0.08-0.22-0.13-0.32c0.28,0.61,0.08,0.36,0.07,0.18c-0.01-0.18-0.06-0.42-0.1-0.6
				c-0.04-0.15,0-0.52,0,0.15c0-0.15-0.01-0.31,0.01-0.46c0.02-0.23,0.03-0.46,0.07-0.7c0.02-0.16,0.22-1.02,0.06-0.4
				c0.16-0.6,0.35-1.19,0.58-1.78c0.24-0.6,0.51-1.19,0.8-1.76c0.19-0.38,0.07-0.13,0.02-0.05c0.1-0.19,0.21-0.38,0.31-0.57
				c0.22-0.39,0.45-0.78,0.69-1.17c0.94-1.53,1.99-3,3.09-4.42c6.19-8.02,13.86-14.92,21.63-21.36
				c10.15-8.42,20.95-16.09,32.23-22.92c9.46-5.73,19.35-11.09,29.79-14.83c3.31-1.18,6.77-2.22,10.31-2.62
				c0.34-0.04,0.68-0.07,1.02-0.1c0.66-0.05-0.09-0.03,0.55-0.02c0.63,0,1.25,0.02,1.88,0.1c0.25,0.03,0.51,0.08,0.76,0.13
				c-0.65-0.13,0.1,0.04,0.26,0.1c0.21,0.07,0.41,0.16,0.61,0.25c0.42,0.17-0.42-0.29-0.06-0.03c0.1,0.07,0.2,0.14,0.3,0.2
				c0.1,0.06,0.19,0.15,0.28,0.22c-0.5-0.39-0.25-0.26-0.17-0.14c0.07,0.09,0.5,0.65,0.27,0.3c-0.24-0.36,0.08,0.21,0.14,0.3
				c0.3,0.53,0.01-0.37,0.05,0.14c0.02,0.21,0.06,0.45,0.1,0.66c-0.06-0.32,0.03-0.26-0.01,0.18c-0.02,0.26-0.04,0.51-0.07,0.76
				c-0.01,0.1-0.03,0.19-0.05,0.29c-0.07,0.52,0.01,0.02-0.02,0.11c-0.78,2.95-2.06,4.92-3.83,7.45
				c-5.46,7.8-12.62,14.46-19.79,20.65c-9.83,8.49-20.38,16.22-31.36,23.17c-9.8,6.21-20.03,11.97-30.83,16.27
				c-3.66,1.46-7.33,2.74-11.2,3.5c-0.74,0.14-1.48,0.27-2.22,0.36c-0.34,0.04-0.69,0.08-1.03,0.11c-0.2,0.02-0.39,0.03-0.59,0.04
				c0.4-0.02,0.03,0-0.16,0c-0.58,0-1.15-0.02-1.72-0.08c-0.26-0.03-0.51-0.08-0.77-0.12c-0.51-0.09,0.47,0.15-0.01-0.01
				c-0.13-0.04-0.27-0.08-0.4-0.12c-0.21-0.07-0.41-0.16-0.61-0.25c-0.42-0.17,0.42,0.29,0.06,0.03c-0.06-0.05-0.14-0.08-0.21-0.13
				c-0.34-0.27-0.38-0.37-0.17-0.11c-0.13-0.17-0.28-0.31-0.41-0.49c-0.7-0.98-2.27-0.99-3.14-0.26
				C80.87,85.08,80.89,86.41,81.59,87.39z"/>
		</g>
	</g>
	<g>
		<g>
			<path class="st1" d="M3.55,314.61h3.57v22.69h0.36c3.39-14.12,15-24.83,29.3-24.83c14.31-0.36,24.48,7.86,27.52,21.44h0.36
				c3.57-12.69,15.19-21.44,29.12-21.44c22.15,0,29.13,13.75,29.13,33.59v60.39h-3.57v-60.39c0-18.23-5.54-30.02-25.55-30.02
				c-18.04,0-28.58,15-28.76,32.16v58.26h-3.57v-58.97c0.18-16.97-4.3-31.44-24.66-31.44c-18.23,0-29.66,18.04-29.66,38.42v52H3.55
				V314.61z"/>
			<path class="st1" d="M142.38,343.02c0.89-17.34,12.33-30.56,35.02-30.56c16.25,0,29.84,6.25,30.37,26.27v58.42
				c0,6.98,6.61,6.25,11.61,5.72v3.58c-6.97,0.54-15.18,0.54-15.18-8.94v-11.97h-0.36c-3.57,11.8-17.51,23.05-36.45,23.05
				c-18.22,0-30.74-8.58-30.74-24.84c0-22.69,16.27-26.43,31.63-27.51c25.19-1.44,35.92-0.89,35.92-14.83
				c0-11.08-2.33-25.38-26.8-25.38c-19.12,0-30.2,9.83-31.45,26.99H142.38z M204.2,352.49h-0.36c-4.82,6.96-20.72,6.25-35.55,7.32
				c-14.47,1.06-28.05,4.29-28.05,23.94c0,10.55,6.78,21.27,26.8,21.27c23.95,0,37.17-17.51,37.17-35.55V352.49z"/>
			<path class="st1" d="M232.07,406.45h-3.57v-91.84h3.57v22.69h0.36c3.39-13.57,14.11-25.55,36.09-24.83v3.57
				c-25.19-1.25-36.45,18.41-36.45,38.42V406.45z"/>
			<path class="st1" d="M278.35,371.78v34.67h-3.57V278.87h3.57v88.45l63.43-52.71h5.18l-42.17,35.02L350,406.45h-4.83l-43.06-54.33
				L278.35,371.78z"/>
		</g>
		<g>
			<path class="st2" d="M362.82,399.7c0.77,0,1.51,0.2,2.23,0.58c0.73,0.39,1.3,0.96,1.7,1.68c0.41,0.73,0.61,1.48,0.61,2.27
				c0,0.78-0.19,1.53-0.6,2.26c-0.4,0.72-0.96,1.28-1.67,1.68c-0.72,0.39-1.47,0.59-2.26,0.59c-0.78,0-1.53-0.2-2.25-0.59
				c-0.72-0.39-1.28-0.96-1.67-1.68c-0.41-0.72-0.61-1.47-0.61-2.26c0-0.79,0.2-1.55,0.61-2.27c0.41-0.72,0.98-1.29,1.71-1.68
				C361.32,399.9,362.05,399.7,362.82,399.7z M362.82,400.44c-0.64,0-1.25,0.17-1.86,0.49c-0.6,0.33-1.07,0.79-1.41,1.4
				c-0.34,0.6-0.51,1.24-0.51,1.89c0,0.65,0.16,1.28,0.5,1.88c0.33,0.6,0.8,1.07,1.4,1.4c0.6,0.34,1.23,0.5,1.88,0.5
				c0.65,0,1.28-0.17,1.88-0.5c0.6-0.34,1.06-0.8,1.4-1.4c0.33-0.59,0.5-1.22,0.5-1.88c0-0.65-0.17-1.29-0.5-1.89
				c-0.35-0.61-0.82-1.08-1.42-1.4C364.07,400.61,363.45,400.44,362.82,400.44z M360.84,406.74v-4.88h1.66
				c0.58,0,0.99,0.05,1.25,0.14c0.26,0.1,0.46,0.25,0.61,0.47c0.16,0.22,0.22,0.46,0.22,0.72c0,0.36-0.12,0.66-0.38,0.93
				c-0.25,0.26-0.58,0.41-1.01,0.45c0.17,0.07,0.31,0.15,0.41,0.26c0.2,0.19,0.45,0.51,0.72,0.96l0.59,0.96h-0.96l-0.43-0.77
				c-0.34-0.6-0.62-0.98-0.82-1.14c-0.14-0.11-0.35-0.17-0.63-0.17h-0.47v2.07H360.84z M361.62,403.99h0.96
				c0.46,0,0.76-0.07,0.93-0.2c0.17-0.13,0.25-0.31,0.25-0.53c0-0.15-0.03-0.27-0.11-0.4c-0.09-0.11-0.19-0.2-0.34-0.25
				c-0.14-0.06-0.41-0.08-0.79-0.08h-0.9V403.99z"/>
		</g>
	</g>
</g>
</svg>
