<?xml version="1.0" encoding="utf-8"?>
<!-- Generator: Adobe Illustrator 25.0.0, SVG Export Plug-In . SVG Version: 6.00 Build 0)  -->
<svg version="1.1" id="Layer_1" xmlns="http://www.w3.org/2000/svg" xmlns:xlink="http://www.w3.org/1999/xlink" x="0px" y="0px"
	 viewBox="0 0 595.32 311.61" style="enable-background:new 0 0 595.32 311.61;" xml:space="preserve">
<g>
	<g>
		<g>
			<path d="M273.42,176.95c0.08,0.53,0.16,1.13,0.25,1.8c0.09,0.67,0.27,1.36,0.55,2.09c0.25,0.73,0.63,1.46,1.14,2.19
				s1.18,1.27,2.02,1.63c0.81,0.4,1.74,0.58,2.78,0.55c1.04-0.03,1.94-0.19,2.7-0.48c0.76-0.28,1.36-0.67,1.79-1.16
				c0.43-0.49,0.88-0.99,1.33-1.5c1.19-1.24,2.26-1.97,3.2-2.19c0.84-0.15,1.84,0.2,3.01,1.07c0.53,0.4,1.05,0.84,1.57,1.31
				c0.52,0.48,0.86,0.95,1.01,1.42c0.2,0.73-0.2,1.69-1.22,2.89c-1.12,1.26-2.25,2.33-3.39,3.19c-1.57,1.15-3.16,2.03-4.76,2.63
				c-1.77,0.71-3.62,1.17-5.52,1.4c-2,0.16-4.08,0.05-6.24-0.3c-2.31-0.42-4.78-1.15-7.42-2.16c-2.79-1.07-4.89-2.22-6.28-3.46
				c-1.63-1.4-2.87-3.33-3.73-5.79c-0.84-2.3-1.41-5.37-1.71-9.2c-0.41-3.99-0.48-7.47-0.23-10.44c0.13-1.44,0.33-2.66,0.61-3.65
				c0.28-1,0.65-1.98,1.11-2.92c0.91-2.13,2.13-4.12,3.65-5.95c1.85-2.21,3.98-4.06,6.39-5.55c2.41-1.55,5.06-2.65,7.96-3.29
				c3.27-0.71,6.13-0.8,8.57-0.27c2.36,0.55,4.59,1.8,6.7,3.73c0.94,0.86,1.8,1.84,2.57,2.94c0.77,1.1,1.39,2.44,1.84,4.04
				c0.45,1.6,0.76,3.42,0.9,5.45c0.14,2.04,0.21,3.99,0.21,5.85c0,4.04-0.31,6.99-0.92,8.88c-0.3,0.97-0.76,1.64-1.37,2
				c-0.61,0.35-1.73,0.52-3.35,0.49c-1.63,0-3.63-0.13-6.01-0.38c-2.39-0.25-4.33-0.47-5.83-0.65c-1.49-0.16-2.44-0.24-2.84-0.25
				c-0.39-0.01-0.65,0.05-0.78,0.18c-0.28,0.26-0.43,0.74-0.46,1.43C273.21,174.8,273.26,175.62,273.42,176.95z M287.67,166.85
				c0.19-0.16,0.29-0.7,0.29-1.63c0-0.94-0.01-2.21-0.04-3.84s-0.09-3.21-0.19-4.73c-0.25-3.19-0.77-5.47-1.56-6.85
				c-0.74-1.2-1.82-2.03-3.23-2.5c-0.92-0.24-1.9-0.2-2.97,0.14c-1.68,0.57-2.93,1.36-3.77,2.36c-0.53,0.65-0.94,1.39-1.22,2.25
				c-0.28,0.85-0.51,1.69-0.68,2.51c-0.38,1.61-0.63,3.32-0.76,5.12c-0.08,0.95-0.13,1.93-0.15,2.94c-0.03,1.01,0.01,1.83,0.11,2.48
				c0.07,0.66,0.29,1.12,0.65,1.38c0.36,0.26,1.16,0.41,2.4,0.48c1.22,0.11,2.77,0.16,4.65,0.16c1.88,0,3.38-0.01,4.53-0.03
				C286.83,167.08,287.49,167,287.67,166.85z"/>
			<path d="M317.12,143.96c-0.15,0.26,0.09,0.25,0.72-0.01c1.09-0.4,2.13-0.65,3.12-0.73c2.21-0.24,4.62-0.09,7.23,0.46
				c2.97,0.67,5.27,2.13,6.89,4.39c0.59,0.93,1,1.73,1.26,2.39c0.55,1.55,0.84,3.6,0.84,6.15c0,1.13-0.03,2.21-0.1,3.24
				c-0.06,1.03-0.31,2.02-0.74,2.97c-1.12,2.55-3.08,4.31-5.87,5.29c-1.26,0.46-2.77,0.76-4.51,0.9c-1.74,0.13-3.21-0.14-4.43-0.83
				c-0.33-0.18-0.68-0.45-1.07-0.83c-1.09-1.04-1.57-2.46-1.43-4.24c0.14-1.78,1.01-2.94,2.61-3.47c0.23-0.07,0.47-0.13,0.72-0.2
				c0.26-0.07,0.51-0.16,0.76-0.27c0.94-0.29,1.58-0.88,1.94-1.76c0.36-1.09,0.27-2.06-0.26-2.92c-0.48-0.67-1.33-1.08-2.55-1.23
				c-0.76-0.07-1.74-0.02-2.94,0.15c-1.19,0.16-1.98,0.58-2.36,1.24c-0.26,0.46-0.42,1.09-0.49,1.88c-0.08,0.78-0.11,1.42-0.11,1.91
				c-0.11,2.3-0.15,4.61-0.14,6.91c0.01,2.3,0.03,4.58,0.06,6.85c0,2.86,0.03,5.72,0.09,8.61c0.07,2.88,0.09,5.72,0.06,8.54
				c0,0.44-0.01,1.01-0.02,1.69c-0.01,0.68-0.08,1.21-0.21,1.56c-0.15,0.45-0.48,0.72-0.99,0.84c-0.53,0.13-1.47,0.2-2.82,0.23
				c-1.34,0.02-2.3,0.03-2.85,0.03c-2.61,0.07-5.2,0.03-7.77-0.1c-1.67-0.09-2.69-0.37-3.04-0.83c-0.38-0.45-0.65-1.36-0.8-2.76
				c-0.13-1.09-0.19-2.2-0.2-3.33c-0.01-1.13-0.03-2.26-0.06-3.39c-0.03-1.13-0.05-2.27-0.06-3.4c-0.01-1.14-0.02-2.29-0.02-3.44
				c-0.05-4.59-0.09-9.17-0.11-13.76c-0.03-4.58,0-9.18,0.08-13.79c0-0.87,0.02-1.97,0.07-3.31c0.05-1.34,0.18-2.41,0.38-3.21
				c0.23-1.05,0.63-1.64,1.2-1.78c0.57-0.14,1.38-0.23,2.42-0.25c3.65-0.07,6.95-0.09,9.9-0.07c0.56,0.02,1.48,0.05,2.75,0.08
				c1.26,0.03,2.17,0.15,2.7,0.35c0.45,0.2,0.66,0.59,0.61,1.17C317.43,143.01,317.27,143.71,317.12,143.96z"/>
			<path d="M375.36,188.92c0.01,0.44-0.05,0.73-0.17,0.86c-0.15,0.14-1.12,0.48-2.89,1.03c-0.99,0.31-2.23,0.68-3.71,1.13
				c-1.48,0.45-2.79,0.8-3.91,1.07c-2.08,0.51-3.4,0.57-3.96,0.16c-0.33-0.22-0.55-0.53-0.67-0.93c-0.11-0.4-0.2-0.73-0.25-1
				c-0.05-0.31-0.4-0.46-1.06-0.46c-0.51,0-1.21-0.01-2.11-0.02c-0.9-0.01-1.84-0.07-2.8-0.18c-2.23-0.22-4.24-0.72-6.02-1.49
				c-1.09-0.46-2.21-1.05-3.35-1.75c-1.15-0.7-2.08-1.49-2.82-2.37c-1.37-1.55-2.01-3.56-1.9-6.02c0.07-2.57,0.76-4.79,2.05-6.68
				c1.11-1.67,2.94-3.08,5.48-4.25c1.15-0.53,2.3-0.99,3.48-1.36c1.19-0.38,2.19-0.69,3.03-0.94c0.81-0.2,1.41-0.4,1.79-0.61
				c0.38-0.21,0.65-0.68,0.8-1.41c0.13-0.69,0.17-1.64,0.13-2.86c-0.03-1.22-0.13-2.43-0.28-3.63c-0.15-1.17-0.34-2.25-0.57-3.22
				c-0.22-0.97-0.43-1.8-0.61-2.46c-0.36-1.19-0.76-1.92-1.22-2.16c-0.74-0.31-1.44-0.21-2.09,0.3c-0.38,0.26-0.74,0.64-1.07,1.13
				c-0.33,0.49-0.68,1.01-1.07,1.57c-1.04,1.53-1.94,2.54-2.7,3.02c-0.92,0.57-1.97,0.67-3.16,0.26c-1.3-0.4-2.25-1.04-2.86-1.92
				c-0.63-0.89-0.66-1.9-0.07-3.03c0.58-1.22,1.67-2.55,3.27-3.98c1.47-1.31,3.21-2.48,5.22-3.52c1.9-1,3.89-1.73,5.97-2.19
				c1.88-0.42,3.62-0.53,5.22-0.34c1.44,0.24,2.83,0.83,4.15,1.76c1.49,1.17,2.88,2.7,4.15,4.58c0.68,1.07,1.35,2.28,2,3.64
				c0.65,1.36,1.21,2.96,1.7,4.8c0.48,1.86,0.88,3.97,1.18,6.33c0.3,2.36,0.57,4.97,0.8,7.83c0.2,2.86,0.37,5.8,0.49,8.8
				c0.13,3.02,0.23,5.41,0.31,7.18L375.36,188.92z M355.54,180.71c0.53,1.19,1.27,2.1,2.21,2.72c0.79,0.56,1.48,0.8,2.05,0.73
				c0.2-0.02,0.32-0.17,0.33-0.46c0.01-0.29-0.06-1.01-0.21-2.16c-0.15-1.13-0.36-2.59-0.61-4.37c-0.25-1.78-0.45-3.22-0.61-4.3
				c-0.18-1.09-0.31-1.73-0.4-1.93c-0.09-0.2-0.22-0.27-0.4-0.2c-0.53,0.2-1.07,0.52-1.63,0.96c-0.61,0.47-1.01,1.05-1.22,1.76
				c-0.36,0.91-0.48,2.03-0.38,3.36C354.69,178.28,354.98,179.58,355.54,180.71z"/>
			<path d="M397.35,164.9c0.05,0.67,0.11,1.34,0.19,2.01c0.23,2.73,0.45,5.45,0.67,8.16c0.22,2.71,0.43,5.43,0.63,8.16
				c0.07,1.59,0.1,3.02,0.07,4.25c0,0.62-0.05,1.28-0.15,1.97c-0.1,0.68-0.3,1.25-0.61,1.69c-0.58,0.73-1.76,1.15-3.54,1.26
				c-1.3,0.11-3.65,0.09-7.07-0.09c-3.41-0.16-5.76-0.37-7.02-0.61c-1.37-0.22-2.12-1.02-2.25-2.39c-0.08-0.67-0.14-1.36-0.17-2.08
				c-0.04-0.72-0.06-1.42-0.06-2.11c-0.18-5.72-0.31-11.46-0.4-17.21c-0.09-5.76-0.09-11.51-0.02-17.25c0-1.13,0.02-2.54,0.06-4.23
				c0.04-1.7,0.13-3.09,0.28-4.18c0.18-0.88,0.4-1.42,0.65-1.59c0.28-0.18,0.97-0.3,2.09-0.36c1.67-0.07,4.11-0.13,7.31-0.18
				c3.19-0.06,5.57,0.04,7.12,0.28c1.57,0.26,2.46,0.68,2.65,1.26c0.18,0.57,0.31,1.45,0.36,2.62v1.17c0,0.6,0.03,0.93,0.08,0.99
				c0.08,0,0.36-0.12,0.84-0.36c1.93-1.02,3.94-1.8,6.02-2.36c1.29-0.33,2.72-0.59,4.28-0.76c1.56-0.18,3.06-0.16,4.51,0.03
				c1.52,0.2,2.64,0.66,3.35,1.38c0.71,0.72,1.28,1.68,1.71,2.87c0.53,1.49,0.91,3.4,1.13,5.74c0.21,2.34,0.36,4.34,0.43,6
				c0,0.73,0.03,1.44,0.08,2.14c0.05,0.7,0.07,1.4,0.07,2.08c0,1.44,0.02,2.87,0.06,4.29c0.04,1.42,0.08,2.84,0.13,4.25l0.15,6.38
				c0.05,2.13,0.13,4.24,0.23,6.35c0.03,0.82,0.05,1.9,0.07,3.22c0.03,1.33-0.02,2.4-0.15,3.2c-0.13,0.71-0.38,1.21-0.76,1.49
				c-0.38,0.31-0.97,0.53-1.77,0.65c-0.8,0.13-1.51,0.22-2.15,0.28c-1.93,0.24-3.5,0.3-4.72,0.17c-0.84-0.09-1.3-0.41-1.41-0.97
				c-0.07-0.33-0.07-1.03,0-2.09c0.05-1.4,0.11-2.8,0.17-4.2c0.07-1.41,0.13-2.81,0.18-4.21c0.02-1.4,0.05-2.81,0.09-4.23
				s0.08-2.86,0.13-4.31c0.08-2.86,0.13-5.72,0.15-8.57s0.07-5.72,0.12-8.61c0-0.67,0.01-1.37,0.02-2.13
				c0.01-0.75-0.02-1.48-0.1-2.16c-0.1-0.75-0.4-1.22-0.88-1.4c-0.74-0.22-1.61-0.02-2.63,0.6c-1.01,0.62-1.78,1.11-2.32,1.46
				l-1.41,0.96c-0.76,0.49-1.55,1.01-2.36,1.55c-0.81,0.54-1.56,1.06-2.25,1.55l-0.84,0.63c-0.08,0.04-0.13,0.09-0.15,0.13
				c-0.56,0.44-0.9,0.88-1.03,1.3c-0.15,0.51-0.22,1.18-0.19,2.01s0.07,1.52,0.15,2.07C397.25,163.55,397.29,164.23,397.35,164.9z"
				/>
			<path d="M464.83,193.47c-1.67-0.03-3.22-0.07-4.66-0.14c-3.25-0.09-5.35-0.28-6.28-0.56c-1.09-0.29-1.79-0.89-2.09-1.8
				c-0.15-0.4-0.26-0.85-0.31-1.34c-0.05-0.5-0.07-0.9-0.07-1.18c0-0.38-0.08-0.49-0.23-0.34c-0.38,0.4-0.78,0.72-1.22,0.96
				c-0.78,0.42-2.03,0.69-3.73,0.8c-1.15,0.07-2.49,0.1-4.04,0.1c-1.55,0-2.93-0.06-4.15-0.17c-2.11-0.15-3.92-0.67-5.45-1.56
				c-1.8-0.99-3.48-2.26-5.02-3.79c-1.55-1.51-2.53-3.02-2.93-4.52c-0.56-1.86-0.74-3.91-0.53-6.12c0.07-1.38,0.41-2.92,1.03-4.66
				c0.28-0.75,0.61-1.57,0.99-2.46c0.38-0.89,0.9-1.83,1.56-2.83c1.37-2.15,2.97-4.07,4.8-5.75c1.52-1.4,3.18-2.29,4.99-2.66
				c1.88-0.38,4.08-0.49,6.59-0.33c1.07,0.09,2.02,0.18,2.84,0.3c0.82,0.11,1.48,0.13,1.96,0.07c0.45-0.07,0.74-0.36,0.88-0.88
				c0.13-0.52,0.18-1.67,0.18-3.44v-6.7v-6.73c0-1.75,0.02-2.9,0.06-3.46c0.04-0.55,0.17-0.96,0.4-1.23
				c0.2-0.24,0.58-0.45,1.14-0.61c0.56-0.16,1.67-0.3,3.31-0.41c1.6-0.07,3.61-0.09,6.04-0.09c2.42,0.01,4.39,0.12,5.92,0.32
				c1.49,0.22,2.44,0.92,2.81,2.09c0.38,1.18,0.63,4.32,0.72,9.44c0.03,2.57,0.06,5.62,0.1,9.17c0.03,3.55,0.07,7.18,0.09,10.91
				c0.03,3.72,0.05,7.34,0.06,10.83c0.01,3.5,0.03,6.48,0.05,8.94c0,4.94-0.07,7.82-0.22,8.64c-0.15,0.82-0.7,1.22-1.64,1.2
				C467.81,193.51,466.49,193.49,464.83,193.47z M439.34,182.57c1.45,0.22,3.02,0.24,4.72,0.07c1.3-0.09,2.77-0.32,4.42-0.7
				c1.22-0.26,1.99-0.53,2.32-0.8c0.18-0.13,0.29-0.37,0.33-0.71c0.03-0.34,0.07-1.13,0.09-2.34c0-1.22,0.01-2.79,0.04-4.72
				c0.03-1.92,0-3.54-0.08-4.85c-0.1-1.26-0.26-2.14-0.49-2.64c-0.23-0.5-0.59-0.95-1.07-1.34c-1.29-0.97-2.71-1.64-4.26-2
				c-1.6-0.31-3.21-0.22-4.84,0.26c-1.22,0.38-2.4,1.09-3.54,2.13c-1.19,1.09-2.15,2.3-2.86,3.62c-0.84,1.53-1.3,3.1-1.41,4.72
				c-0.15,1.48,0.04,3,0.57,4.55c0.51,1.51,1.22,2.59,2.13,3.26C436.36,181.82,437.67,182.32,439.34,182.57z"/>
			<path d="M522.38,187.09l-0.23,0.2l-0.22,0.2l-1.45,1.17c-1.4,1.06-2.86,2.02-4.4,2.86c-1.53,0.84-3.25,1.4-5.16,1.66
				c-1.07,0.18-2.21,0.29-3.42,0.34c-1.22,0.04-2.38,0.07-3.46,0.07c-2.24,0.02-4.52-0.04-6.86-0.18c-2.34-0.14-4.5-0.48-6.51-1.01
				c-2.61-0.67-5.18-1.9-7.69-3.72c-0.28-0.2-0.74-0.59-1.4-1.17c-1.32-1.17-2.43-2.36-3.31-3.56c-0.94-1.24-1.79-2.65-2.56-4.22
				c-0.74-1.44-1.3-3.08-1.71-4.92c-0.41-1.77-0.65-3.7-0.72-5.78c-0.07-2.19,0.07-4.55,0.44-7.06c0.37-2.52,1.01-4.83,1.92-6.93
				c0.63-1.53,1.4-3,2.29-4.42c0.73-1.15,1.55-2.18,2.44-3.09l0.65-0.63c0.23-0.22,0.54-0.49,0.93-0.8c0.4-0.31,0.72-0.57,0.97-0.76
				c1.07-0.76,2.22-1.38,3.46-1.86c1.24-0.49,2.52-0.96,3.85-1.43c0.92-0.31,1.81-0.59,2.7-0.83c1.78-0.47,3.87-0.79,6.28-0.97
				c2.16-0.13,4.41-0.11,6.76,0.07c2.35,0.18,4.46,0.56,6.34,1.16c1.83,0.65,3.45,1.38,4.87,2.19c0.61,0.38,1.13,0.72,1.56,1.03
				l1.94,1.53c0.13,0.09,0.29,0.22,0.49,0.4l1.67,1.73c0.71,0.8,1.23,1.42,1.56,1.86c0.41,0.53,0.76,1.01,1.07,1.46
				c0.2,0.26,0.5,0.7,0.88,1.29c0.38,0.6,0.65,1.03,0.8,1.3c0.4,0.8,0.74,1.55,1.03,2.26c0.33,0.91,0.58,1.76,0.76,2.56
				c0.53,2.55,0.84,5.53,0.92,8.96c0.08,3.42-0.2,6.35-0.84,8.79c-0.18,0.68-0.44,1.52-0.8,2.5c-0.23,0.62-0.6,1.37-1.11,2.26
				c-0.79,1.4-1.76,2.68-2.93,3.85L522.38,187.09z M495.19,178.44c0.13,0.2,0.26,0.41,0.38,0.62c0.13,0.21,0.27,0.4,0.42,0.58
				c0.86,1.11,1.61,1.9,2.25,2.39l0.3,0.24c0.26,0.18,0.45,0.32,0.61,0.43c0.2,0.16,0.66,0.39,1.37,0.7
				c1.01,0.49,2.27,0.76,3.77,0.84c1.49,0.07,2.82,0.02,3.96-0.14c2.79-0.35,5.1-1.22,6.93-2.59c0.97-0.69,1.84-1.54,2.63-2.56
				c0.33-0.38,0.63-0.76,0.88-1.17c2.36-3.81,3.21-8.11,2.56-12.89c-0.31-2.06-0.84-4.04-1.58-5.93c-0.75-1.89-1.86-3.63-3.33-5.2
				c-1.5-1.53-3.01-2.79-4.53-3.76c-2.19-1.3-4.43-1.9-6.74-1.79c-1.9,0.09-3.77,0.7-5.6,1.86c-0.13,0.07-0.24,0.14-0.34,0.22
				c-0.11,0.08-0.2,0.15-0.31,0.22l-1.14,0.9l-0.57,0.5l-0.53,0.5c-1.04,1.04-1.86,2.32-2.47,3.85c-0.61,1.53-1.07,2.98-1.38,4.35
				c-0.53,2.19-0.77,4.5-0.72,6.93c0.05,2.43,0.45,4.71,1.22,6.84C493.77,175.95,494.43,177.32,495.19,178.44z"/>
		</g>
		<g>
			<path d="M311.9,79.46c-0.93,0-1.72-0.3-2.38-0.89c-0.66-0.59-0.99-1.31-0.99-2.14c0-0.85,0.33-1.57,0.99-2.16
				c0.66-0.59,1.45-0.89,2.38-0.89c0.94,0,1.74,0.3,2.4,0.89c0.66,0.59,0.99,1.31,0.99,2.16c0,0.84-0.33,1.55-0.99,2.14
				C313.64,79.17,312.84,79.46,311.9,79.46z"/>
			<path d="M311.9,80.3c-1.13,0-2.12-0.37-2.94-1.09c-0.84-0.76-1.27-1.69-1.27-2.78s0.43-2.02,1.26-2.78
				c1.65-1.48,4.29-1.46,5.91,0c0.84,0.76,1.26,1.69,1.26,2.78s-0.43,2.02-1.26,2.77C314.04,79.93,313.04,80.3,311.9,80.3z
				 M311.9,74.23c-0.72,0-1.31,0.22-1.81,0.67c-0.49,0.43-0.71,0.92-0.71,1.53c0,0.59,0.23,1.09,0.71,1.52
				c1.01,0.9,2.64,0.9,3.65-0.01c0.47-0.42,0.7-0.92,0.7-1.51c0-0.61-0.22-1.09-0.71-1.53C313.23,74.45,312.63,74.23,311.9,74.23z"
				/>
		</g>
		<g>
			<path d="M391.65,41.97c13.9,50.08-78.21,77.22-97.34,31.6c-1.11-2.65-7.95-0.34-6.89,2.19c21.26,50.69,126.63,19.91,111.11-35.98
				C397.79,37.1,390.88,39.21,391.65,41.97L391.65,41.97z"/>
			<path d="M332.56,102.32c-19.78,0-38.2-7.82-45.92-26.23c-0.63-1.49,0.38-3.04,2.56-3.95c2.23-0.93,5.04-0.87,5.88,1.11
				c9.73,23.21,38.71,27.03,62.3,18.86c21.47-7.45,40.14-25.78,33.45-49.91l0,0c-0.57-2.05,1.51-3.64,3.67-4.23
				c2.44-0.67,4.39-0.04,4.83,1.59c7.76,27.95-14.24,49.3-39.49,58.06C351.08,100.66,341.68,102.32,332.56,102.32z M292,73.24
				c-0.67,0-1.45,0.16-2.14,0.45c-1.01,0.42-1.9,1.16-1.66,1.75c10.88,25.94,44.02,30,71.11,20.59c24.5-8.5,45.88-29.12,38.42-56.02
				c-0.19-0.68-1.56-0.76-2.76-0.41c-1.39,0.38-2.74,1.32-2.51,2.16l0,0c6.99,25.18-12.29,44.24-34.51,51.95
				c-24.35,8.43-54.28,4.35-64.41-19.8C293.34,73.44,292.73,73.24,292,73.24z"/>
		</g>
		<g>
			<path d="M257.48,92.15c-2.44-15.14,8.68-29.52,23.01-33.16c10.82-2.75,22.4-0.5,33.05-4.24c16.63-5.84,28.25-20.98,22.12-38.3
				c-0.49-1.4-5.68-8-4.43-4.49c9.69,27.39-23.46,36.76-42.78,38.21c-19.95,1.49-39.51,13.17-35.81,36.14
				C252.93,88.11,257.75,93.79,257.48,92.15L257.48,92.15z"/>
			<path d="M257.43,93.29c-1.61,0-5.39-5.45-5.62-6.84c-1.42-8.81,0.38-16.47,5.34-22.77c6.41-8.11,17.79-13.35,31.23-14.35
				c14.86-1.11,33.32-6.26,40.59-17.4c3.63-5.55,4.12-12.18,1.46-19.68c-0.22-0.61-0.41-1.31,0.01-1.8l0.32-0.37l0.62,0.05
				c1.38,0.26,4.75,5.11,5.08,6.05c2.56,7.23,2.23,14.56-0.95,21.2c-3.87,8.07-11.77,14.7-21.69,18.18
				c-5.92,2.08-12.17,2.34-18.22,2.6c-4.95,0.21-10.06,0.43-14.9,1.66c-14.61,3.71-24.66,18.16-22.39,32.21l0,0
				c0.13,0.76-0.32,1.19-0.79,1.26C257.49,93.28,257.46,93.29,257.43,93.29z M256.66,92.29L256.66,92.29l0.83-0.14L256.66,92.29z
				 M332.6,13.45c2.17,7.31,1.42,13.83-2.21,19.4c-7.61,11.65-26.62,17.02-41.87,18.16c-12.98,0.97-23.93,5.97-30.04,13.71
				c-4.66,5.91-6.35,13.13-5,21.46c0.14,0.86,1.76,3.06,2.96,4.4c-1.36-14.34,9.01-28.64,23.85-32.41c5-1.27,10.21-1.49,15.25-1.71
				c5.92-0.25,12.04-0.51,17.73-2.51c9.49-3.33,17.04-9.64,20.72-17.31c2.98-6.23,3.29-13.11,0.88-19.91
				C334.67,16.17,333.59,14.67,332.6,13.45z M331.88,11.16L331.88,11.16L331.88,11.16z"/>
		</g>
		<g>
			<path d="M438.44,52.97c-16.39,0.44-30.99-3.35-40.28-17.67c-4.5-6.94-6.57-15.08-12.5-21.06C370.82-0.7,336.18-4.69,319.52,10.1
				c-2.39,2.12-4.34,4.71-4.86,5.03c-3.11,1.9-7.64,2.11-10.96,3.72c-8.42,4.08-13.97,11.71-17.06,20.38
				c-6.86,19.27,10.39,67.83-10.17,78.11c-3.72,1.86-4.84,7.62,0.42,4.99c17.41-8.7,17.46-27.78,16.2-45.08
				c-0.84-11.52-3.11-23.19-0.38-34.63c3.68-15.48,13.5-17.45,25.19-23.57c5.99-3.13,10.21-8.55,17.16-10.44
				c10.23-2.79,22.46-1.15,32.09,3.17c10.72,4.81,15,11.92,19.98,21.58c10.13,19.6,26.11,26.27,47.85,25.68
				C437.9,58.94,443.42,52.83,438.44,52.97L438.44,52.97z"/>
			<path d="M274.63,123.83c-1.21,0-1.73-0.68-1.93-1.09c-0.88-1.77,0.82-4.89,3.39-6.17c12.14-6.07,10.53-26.29,8.98-45.85
				c-0.99-12.45-1.92-24.2,0.78-31.79c3.49-9.78,9.54-16.99,17.49-20.85c1.59-0.77,3.42-1.23,5.19-1.68
				c2.02-0.51,4.11-1.03,5.7-2.01c0.14-0.1,0.64-0.67,1.07-1.16c0.93-1.05,2.21-2.48,3.67-3.78c17.29-15.34,52.57-10.65,67.3,4.18
				c3.77,3.8,6.05,8.49,8.24,13.03c1.32,2.74,2.69,5.57,4.37,8.17c7.97,12.3,20.51,17.84,39.55,17.28l0,0
				c1.21-0.05,2.17,0.31,2.6,1.01c0.28,0.47,0.49,1.28-0.18,2.52c-1.03,1.9-3.8,4.14-5.84,4.2c-23.58,0.62-39.08-7.67-48.63-26.14
				c-5.04-9.76-9.13-16.51-19.57-21.19c-10.02-4.49-22.09-5.7-31.52-3.12c-4.06,1.11-7.11,3.43-10.35,5.9
				c-2.07,1.58-4.22,3.21-6.64,4.48c-1.94,1.01-3.83,1.92-5.64,2.78c-9.02,4.3-16.14,7.7-19.11,20.23
				c-2.09,8.78-1.18,17.9-0.3,26.72c0.26,2.56,0.51,5.11,0.7,7.66c1.28,17.54,1.15,36.99-16.66,45.9
				C276.14,123.63,275.29,123.83,274.63,123.83z M348.07,1.62c-10.57,0-20.87,2.79-27.99,9.11c-1.39,1.23-2.62,2.62-3.52,3.64
				c-0.79,0.89-1.15,1.29-1.46,1.48c-1.81,1.11-4.02,1.67-6.17,2.21c-1.76,0.44-3.43,0.86-4.86,1.55
				c-9.54,4.63-14.31,13.37-16.63,19.9c-2.59,7.25-1.67,18.83-0.69,31.09c1.6,20.11,3.25,40.91-9.9,47.49
				c-1.97,0.98-2.98,3.22-2.63,3.91c0.11,0.22,0.84,0.3,2.3-0.43c16.88-8.44,16.97-27.28,15.73-44.27
				c-0.18-2.53-0.43-5.07-0.69-7.61c-0.9-8.96-1.82-18.22,0.33-27.28c3.16-13.31,10.98-17.04,20.03-21.36
				c1.8-0.86,3.67-1.75,5.59-2.76c2.29-1.2,4.38-2.79,6.4-4.33c3.22-2.45,6.55-4.99,10.93-6.18c9.8-2.68,22.3-1.44,32.66,3.21
				c10.93,4.9,15.34,12.2,20.39,21.96c8.99,17.4,22.79,25.26,44.52,25.26c0.84,0,1.69-0.01,2.56-0.04c1.26-0.03,3.56-1.77,4.4-3.32
				c0.28-0.53,0.26-0.79,0.23-0.84c-0.04-0.06-0.27-0.21-1.13-0.21l0,0c-19.61,0.55-32.68-5.21-41-18.05
				c-1.75-2.68-3.13-5.56-4.48-8.35c-2.23-4.62-4.34-8.97-7.92-12.57C376.9,6.62,362.25,1.62,348.07,1.62z"/>
		</g>
		<g>
			<path d="M345.19,87.87c7.03-1.57,13.31-4.58,17.78-10.4c0.46-0.6-3.49-1.65-4.14-0.81c-4.17,5.43-9.99,8.52-16.61,10
				C340.25,87.1,344.34,88.06,345.19,87.87L345.19,87.87z"/>
			<path d="M344.93,88.72c-1.08,0-3.21-0.43-3.8-1.07l-0.33-0.36l0.09-0.62c0.19-0.63,0.88-0.78,1.15-0.84
				c6.95-1.55,12.37-4.81,16.13-9.69c0.42-0.56,1.28-0.75,2.56-0.59c0.43,0.05,2.62,0.39,3.04,1.41l0.18,0.45l-0.32,0.56
				c-4.13,5.38-10.1,8.88-18.26,10.71C345.26,88.72,345.11,88.72,344.93,88.72z M344.32,87.01c0.32,0.05,0.58,0.07,0.68,0.04
				c7.45-1.67,12.97-4.78,16.83-9.5c-0.75-0.26-2.07-0.47-2.41-0.3C355.85,81.92,350.76,85.21,344.32,87.01z"/>
		</g>
		<g>
			<path d="M439.1,46.14c18.21-7.83,34.28,14.34,53.48,14.7c14.96,0.28,30.59-5.89,35.38-21.05c0.75-2.37-7.15-5.85-7.71-4.08
				c-7.98,25.24-37.4,21.95-55.34,10.8c-11.08-6.88-20.29-10.44-32.86-5.03C430.4,42.19,436.81,47.13,439.1,46.14L439.1,46.14z"/>
			<path d="M493.52,61.69c-0.32,0-0.63,0-0.94-0.01c-8.47-0.16-16.29-4.42-23.85-8.55c-9.92-5.41-19.29-10.54-29.29-6.22l0,0
				c-2.12,0.92-5.43-1.47-6.07-1.95c-1.17-0.88-2.54-2.15-2.42-3.25c0.05-0.45,0.34-0.82,0.77-1c12.6-5.41,21.86-2.22,33.64,5.09
				c10.43,6.47,26.51,10.95,38.85,6.38c7.48-2.77,12.61-8.4,15.24-16.72c0.09-0.3,0.38-0.83,1.19-1.01c1.8-0.39,5.65,1.26,7.32,3.09
				c0.98,1.08,0.98,1.96,0.8,2.52C523.72,56.03,507.43,61.69,493.52,61.69z M447.12,43.64c7.72,0,15.16,4.06,22.42,8.01
				c7.38,4.03,15.02,8.19,23.07,8.34c0.3,0.01,0.61,0.01,0.92,0.01c13.31,0,28.86-5.35,33.64-20.47c0.07-0.21-0.18-0.68-0.86-1.27
				c-1.84-1.57-4.78-2.42-5.35-2.16c-2.68,8.7-8.15,14.69-16.15,17.65c-13.79,5.11-30.34-0.33-40.34-6.53
				c-11.19-6.95-19.99-10.02-31.7-5.13c0.43,0.61,1.75,1.8,3.46,2.66c1.35,0.68,2.21,0.73,2.54,0.61l0,0
				C441.59,44.15,444.38,43.64,447.12,43.64z"/>
		</g>
		<g>
			<path d="M522.15,59.21c6.28,5.64,12.84,7.7,21,5.52c15.79-4.2,25.22-7.51,40.97,1.68c5.02,2.93,5.08-3.12,1.25-5.35
				c-10.1-5.89-20.97-9.92-32.75-7.52c-9.57,1.95-18.56,9.44-27.28,1.6C521.37,51.58,518.24,55.7,522.15,59.21L522.15,59.21z"/>
			<path d="M586.44,68.04c-0.69,0-1.59-0.23-2.75-0.9c-14.58-8.51-23.33-6.16-37.81-2.27l-2.52,0.68
				c-8.13,2.17-15.03,0.35-21.78-5.71l0,0c-2.44-2.19-2.52-4.67-1.33-5.99c1.05-1.18,3.27-1.47,5.66,0.67
				c5.93,5.33,12.12,3.06,18.68,0.65c2.55-0.94,5.18-1.91,7.87-2.46c13.49-2.73,25.49,3.04,33.35,7.62
				c2.15,1.26,3.13,3.49,3.12,5.03c0,1.06-0.45,1.92-1.21,2.36C587.41,67.9,586.99,68.04,586.44,68.04z M564.78,59.69
				c6.05,0,12.2,1.58,19.78,6c1.51,0.89,2.16,0.67,2.32,0.58c0.32-0.18,0.36-0.65,0.36-0.91c0.01-1.1-0.78-2.68-2.29-3.57
				c-12.1-7.06-22.32-9.42-32.15-7.42c-2.56,0.52-5.14,1.47-7.63,2.39c-6.74,2.48-13.68,5.05-20.39-0.98
				c-1.51-1.36-2.75-1.38-3.27-0.8c-0.61,0.67-0.39,2.17,1.21,3.61l0,0c6.35,5.72,12.6,7.37,20.22,5.34l2.52-0.67
				C552.67,61.3,558.67,59.69,564.78,59.69z"/>
		</g>
		<ellipse cx="537.02" cy="93.35" rx="1.74" ry="1.56"/>
		<path d="M490.26,102.06c7.13,2.28,14.2,2.67,21.34,0.21c1.62-0.56-1.02-3.96-2.45-3.47c-6.67,2.3-13.16,2.05-19.84-0.09
			C486.96,97.97,488.88,101.62,490.26,102.06L490.26,102.06z"/>
		<g>
			<path d="M374.36,57.12c-0.93,0-1.72-0.3-2.38-0.89c-0.66-0.59-0.99-1.31-0.99-2.14c0-0.85,0.33-1.57,0.99-2.16
				c0.66-0.59,1.45-0.89,2.38-0.89c0.94,0,1.74,0.3,2.4,0.89s0.99,1.31,0.99,2.16c0,0.84-0.33,1.55-0.99,2.14
				S375.3,57.12,374.36,57.12z"/>
			<path d="M374.36,57.96c-1.14,0-2.13-0.37-2.95-1.11c-0.82-0.74-1.26-1.7-1.26-2.77c0-1.08,0.43-2.04,1.26-2.78
				c1.65-1.48,4.29-1.46,5.91,0c0.82,0.74,1.26,1.7,1.26,2.78c0,1.07-0.44,2.03-1.27,2.77C376.51,57.6,375.51,57.96,374.36,57.96z
				 M374.36,51.89c-0.72,0-1.32,0.22-1.82,0.67c-0.47,0.43-0.7,0.92-0.7,1.53c0,0.59,0.23,1.09,0.7,1.51c1,0.92,2.65,0.9,3.65,0
				c0.48-0.43,0.71-0.92,0.71-1.51c0-0.61-0.23-1.1-0.7-1.52C375.69,52.11,375.09,51.89,374.36,51.89z"/>
		</g>
		<g>
			<path d="M470.11,82.53c-0.93,0-1.72-0.3-2.38-0.89c-0.66-0.59-0.99-1.31-0.99-2.14c0-0.85,0.33-1.57,0.99-2.16
				c0.66-0.59,1.45-0.89,2.38-0.89c0.94,0,1.74,0.3,2.4,0.89c0.66,0.59,0.99,1.31,0.99,2.16c0,0.84-0.33,1.55-0.99,2.14
				C471.85,82.23,471.05,82.53,470.11,82.53z"/>
			<path d="M470.11,83.37c-1.13,0-2.12-0.37-2.94-1.09c-0.84-0.76-1.27-1.69-1.27-2.78s0.43-2.02,1.26-2.78
				c1.65-1.48,4.29-1.47,5.91,0c0.84,0.76,1.26,1.69,1.26,2.78s-0.43,2.02-1.26,2.77C472.25,83,471.26,83.37,470.11,83.37z
				 M470.11,77.3c-0.72,0-1.31,0.22-1.81,0.67c-0.49,0.43-0.71,0.92-0.71,1.53c0,0.59,0.23,1.09,0.71,1.52
				c1.01,0.9,2.65,0.9,3.65-0.01c0.47-0.42,0.7-0.92,0.7-1.51c0-0.61-0.22-1.09-0.71-1.53C471.44,77.52,470.84,77.3,470.11,77.3z"/>
		</g>
		<g>
			<path d="M536.62,94.64c-0.93,0-1.72-0.3-2.38-0.89c-0.66-0.59-0.99-1.31-0.99-2.14c0-0.85,0.33-1.57,0.99-2.16
				c0.66-0.59,1.45-0.89,2.38-0.89c0.94,0,1.74,0.3,2.4,0.89c0.66,0.59,0.99,1.31,0.99,2.16c0,0.84-0.33,1.55-0.99,2.14
				C538.36,94.34,537.56,94.64,536.62,94.64z"/>
			<path d="M536.62,95.48c-1.15,0-2.13-0.38-2.94-1.11c-0.84-0.76-1.26-1.69-1.26-2.77c0-1.09,0.43-2.03,1.26-2.79
				c1.63-1.47,4.28-1.47,5.91,0c0.84,0.76,1.26,1.69,1.26,2.79c0,1.08-0.43,2.01-1.26,2.77C538.77,95.11,537.77,95.48,536.62,95.48z
				 M536.62,89.4c-0.72,0-1.32,0.22-1.81,0.67c-0.49,0.43-0.71,0.92-0.71,1.53c0,0.6,0.22,1.08,0.71,1.51c0.99,0.91,2.65,0.9,3.64,0
				c0.49-0.43,0.71-0.92,0.71-1.51c0-0.61-0.22-1.1-0.71-1.53C537.95,89.62,537.35,89.4,536.62,89.4z"/>
		</g>
		<g>
			<path d="M84.86,136.26h0.7l1.34,0.06c0.89,0,1.77,0.01,2.64,0.05c0.88,0.04,1.75,0.06,2.65,0.06l1.27,0.05
				c0.76,0.07,1.75,0.14,2.96,0.22c1.21,0.07,2.13,0.3,2.77,0.67c0.51,0.34,0.87,0.82,1.08,1.44c0.09,0.38,0.13,1.09,0.13,2.17v1.2
				v1.14v0.94v0.84l-0.06,2.33c0,0.15-0.01,0.25-0.03,0.31c-0.02,0.05-0.03,0.14-0.03,0.24v0.61v0.61c0,0.55-0.02,1.12-0.07,1.69
				c-0.04,0.58-0.06,1.14-0.06,1.7l-0.13,2.28c-0.09,0.74-0.14,1.48-0.19,2.22c-0.04,0.74-0.09,1.46-0.13,2.17l-0.45,4.28
				c-0.13,0.93-0.35,2.09-0.67,3.5c-0.32,1.4-0.63,2.56-0.92,3.44c-0.05,0.11-0.08,0.2-0.1,0.28c-0.02,0.07-0.03,0.14-0.03,0.22
				c-0.13,0.37-0.26,0.74-0.41,1.11c-0.14,0.38-0.28,0.72-0.41,1.06c-0.3,0.67-0.78,1.63-1.46,2.88c-0.17,0.34-0.49,0.84-0.95,1.5
				c-0.59,0.93-1.3,1.89-2.1,2.89c-0.38,0.37-0.74,0.76-1.09,1.17c-0.34,0.41-0.7,0.78-1.08,1.11c-0.26,0.22-0.54,0.5-0.86,0.83
				c-0.32,0.34-0.56,0.56-0.73,0.67c-0.13,0.07-0.26,0.16-0.38,0.28l-1.72,1.44c-0.17,0.15-0.3,0.24-0.38,0.28
				c-0.13,0.11-0.26,0.2-0.38,0.28l-0.32,0.28l-0.76,0.5c-0.59,0.44-1.53,1.03-2.8,1.78c-0.05,0.03-0.09,0.07-0.13,0.08l-0.07,0.03
				c-1.23,0.7-2.15,1.17-2.74,1.39c-0.09,0.03-0.14,0.06-0.16,0.08c-0.02,0.02-0.05,0.03-0.1,0.03c-0.42,0.22-0.86,0.41-1.3,0.56
				c-0.45,0.14-0.86,0.3-1.24,0.44c-1.78,0.59-3.56,1-5.35,1.22l-0.64,0.11c-0.21,0.03-0.4,0.05-0.57,0.05
				c-0.21,0-0.41,0.02-0.61,0.06c-0.19,0.03-0.37,0.05-0.54,0.05l-2.55,0.17c-0.13,0.03-0.36,0.05-0.7,0.05
				c-0.3,0-0.62,0.01-0.95,0.03c-0.34,0.02-0.64,0.03-0.9,0.03c-0.89,0-1.78,0.02-2.67,0.06c-0.89,0.03-1.78,0.05-2.67,0.05
				c-2.25,0-4.23-0.05-5.93-0.16h-0.35h-0.35l-5.03-0.28c-0.13-0.04-0.34-0.06-0.64-0.06c-2.88-0.3-5.05-0.59-6.49-0.89
				c-1.87-0.37-3.27-0.7-4.21-1c-0.16-0.07-0.34-0.13-0.51-0.16c-0.55-0.07-1.34-0.35-2.36-0.83c-0.26-0.08-0.42-0.13-0.51-0.17
				l-3.06-1.45c-1.82-0.86-3.39-1.84-4.71-2.94c-0.09-0.04-0.14-0.07-0.16-0.09c-0.03-0.02-0.03-0.05-0.03-0.09
				c-0.38-0.26-0.92-0.68-1.59-1.28c-0.76-0.55-1.7-1.4-2.81-2.56c-0.34-0.33-0.68-0.67-1.01-1.03c-0.34-0.35-0.64-0.73-0.9-1.14
				l-1.91-2.44c-0.09-0.11-0.51-0.74-1.27-1.89c-0.34-0.52-0.76-1.22-1.28-2.11c-0.51-0.89-0.89-1.63-1.15-2.22l-1.34-2.94
				c-0.64-1.26-1.11-2.45-1.4-3.56c-0.63-1.86-1.06-3.44-1.27-4.78c-0.05-0.34-0.15-1.02-0.32-2.05l-0.44-4.28
				c-0.05-0.18-0.07-0.39-0.07-0.61c0-0.11-0.01-0.19-0.03-0.25c-0.02-0.05-0.03-0.14-0.03-0.25l-0.13-2.28
				c0-0.33-0.01-0.69-0.03-1.08c-0.02-0.39-0.03-0.79-0.03-1.19v-0.56v-0.61c0-0.22-0.01-0.41-0.03-0.58
				c-0.03-0.17-0.03-0.36-0.03-0.59v-0.55v-0.56v-0.05c0-0.22,0.01-0.41,0.03-0.55c0.02-0.15,0.03-0.34,0.03-0.56v-0.55v-0.61
				l0.19-3.39l0.38-3.22c0.05-1,0.27-2.3,0.67-3.92c0.4-1.61,0.75-2.94,1.05-3.97c0-0.15,0.11-0.46,0.32-0.95
				c0.04-0.37,0.13-0.67,0.26-0.89c0.63-1.81,1.1-3,1.4-3.56c0-0.07,0.03-0.14,0.07-0.19c0.05-0.06,0.09-0.14,0.13-0.25
				c0.13-0.34,0.28-0.68,0.45-1.03c0.17-0.36,0.34-0.71,0.51-1.09c0.3-0.7,0.66-1.37,1.09-2l0.64-1.17c0.38-0.7,0.87-1.46,1.46-2.28
				l0.76-1.11c0.09-0.08,0.17-0.18,0.26-0.34c1.27-1.71,2.4-3.1,3.37-4.17c1.15-1.22,2.19-2.28,3.12-3.17
				c0.09-0.03,0.14-0.08,0.16-0.14c0.02-0.05,0.09-0.12,0.22-0.19l0.32-0.28l0.63-0.61c1.19-1.04,2.11-1.8,2.74-2.28
				c0.3-0.26,0.53-0.45,0.7-0.56c0.34-0.22,0.85-0.59,1.53-1.11l4.27-2.73l2.1-1.17c0.38-0.22,0.8-0.43,1.24-0.64
				c0.44-0.2,0.88-0.41,1.3-0.64l2.74-1.17c0.38-0.18,0.84-0.36,1.37-0.53c0.53-0.17,1.03-0.34,1.49-0.53
				c0.3-0.03,0.64-0.13,1.02-0.28c0.3-0.11,0.61-0.2,0.95-0.28c0.34-0.07,0.7-0.16,1.08-0.28c2.04-0.48,4.33-0.84,6.88-1.05
				l2.55-0.17h1.24h1.37h0.07c0.42,0,1.17,0.01,2.23,0.03c1.07,0.02,1.78,0.05,2.17,0.09l1.85,0.11c0.47,0.04,1.08,0.09,1.84,0.16
				c1.7,0.18,3.44,0.47,5.22,0.84c1.19,0.26,2.25,0.52,3.19,0.78c0.51,0.15,1.49,0.48,2.93,1c0.34,0.14,0.67,0.3,0.99,0.47
				c0.32,0.16,0.67,0.3,1.05,0.41c0.94,0.44,1.8,0.89,2.61,1.33c0.09,0.08,0.17,0.14,0.26,0.2c0.09,0.05,0.19,0.1,0.32,0.14
				l4.97,3.22l0.13,0.11c0.04,0.04,0.11,0.06,0.19,0.06l2.93,2.33c0.09,0.04,0.19,0.11,0.32,0.22c0.26,0.26,0.69,0.64,1.3,1.14
				c0.62,0.5,1.01,0.86,1.18,1.08c0.13,0.15,0.29,0.31,0.48,0.47c0.19,0.16,0.37,0.3,0.54,0.41l1.84,1.95l1.78,2.44
				c0.85,1.41,1.02,2.61,0.51,3.61c-0.22,0.34-0.62,0.76-1.21,1.28c-0.64,0.48-1.3,0.95-1.98,1.39l-1.02,0.61
				c-0.25,0.15-0.44,0.24-0.57,0.28l-1.15,0.5c-0.72,0.18-1.38,0.28-1.98,0.28c-0.63,0-1.4-0.28-2.29-0.83l-0.7-0.5
				c-0.13-0.04-0.26-0.11-0.38-0.22c-0.09-0.03-0.15-0.07-0.19-0.11c-0.05-0.03-0.09-0.09-0.13-0.16l-3.94-3.22
				c-0.68-0.56-1.38-1.08-2.1-1.56c-0.9-0.55-1.38-0.87-1.47-0.94l-0.19-0.09c-0.04-0.02-0.09-0.07-0.13-0.14
				c-0.47-0.3-1.51-0.89-3.12-1.78c-0.21-0.03-0.36-0.11-0.45-0.22l-3.95-1.49c-2.16-0.74-4.71-1.11-7.64-1.11
				c-2.21,0-4.23,0.24-6.05,0.72c-0.13,0.07-0.4,0.14-0.83,0.22c-0.17,0.08-0.33,0.13-0.47,0.17c-0.15,0.03-0.29,0.07-0.41,0.11
				c-0.38,0.14-0.78,0.28-1.21,0.41c-0.42,0.13-0.83,0.28-1.21,0.47l-0.76,0.34c-1.36,0.59-3.1,1.55-5.22,2.89
				c-0.09,0.04-0.19,0.11-0.32,0.22l-2.23,1.55c-0.34,0.3-0.69,0.58-1.05,0.86c-0.36,0.28-0.69,0.56-0.99,0.86l-0.83,0.78
				c-0.72,0.7-1.15,1.17-1.27,1.38c-0.09,0.08-0.26,0.26-0.51,0.56c-0.85,1.03-1.46,1.83-1.84,2.39l-1.59,2.56
				c-0.34,0.59-0.81,1.51-1.4,2.78c-0.17,0.3-0.38,0.78-0.64,1.44c-0.25,0.52-0.45,1.04-0.6,1.55c-0.15,0.52-0.31,1.02-0.48,1.5
				c-0.13,0.22-0.21,0.48-0.26,0.78c-0.51,1.78-0.85,3.15-1.01,4.12c-0.05,0.3-0.15,0.87-0.32,1.72l-0.19,1.78
				c-0.09,0.67-0.13,1.3-0.13,1.89c-0.09,0.37-0.13,1.36-0.13,2.97c0,1.61,0.04,2.59,0.13,2.92l0.19,2.67c0.3,3.23,0.85,6.22,1.65,9
				l0.45,1.5c0.13,0.74,0.49,1.8,1.08,3.17c0.6,1.37,1.11,2.41,1.53,3.11l1.08,1.88c0.47,0.7,0.74,1.09,0.83,1.17l2.03,2.56
				c0.72,0.74,1.15,1.17,1.28,1.28c0.21,0.18,0.38,0.35,0.51,0.5l1.08,0.94c0.13,0.11,0.22,0.2,0.29,0.28
				c0.07,0.08,0.16,0.13,0.29,0.17l0.57,0.44c0.13,0.11,0.23,0.18,0.32,0.22l0.89,0.61c0.55,0.37,1.47,0.85,2.74,1.44
				c0.09,0.07,0.32,0.18,0.7,0.34c0.09,0.03,0.34,0.13,0.76,0.28c0.72,0.26,1.53,0.5,2.42,0.72c0.59,0.14,1.53,0.3,2.81,0.44
				l1.91,0.22c0.76,0.07,1.44,0.11,2.03,0.11c0.38,0,0.74,0.01,1.09,0.03c0.34,0.02,0.7,0.03,1.08,0.03s0.74-0.01,1.09-0.03
				c0.34-0.02,0.72-0.03,1.15-0.03c0.13,0,0.21-0.01,0.26-0.03c0.04-0.02,0.13-0.03,0.25-0.03l2.61-0.16
				c1.48-0.15,2.46-0.28,2.93-0.39c0.85-0.15,1.46-0.26,1.84-0.34c0.3-0.03,0.87-0.18,1.72-0.44c1.57-0.45,3.04-1.13,4.4-2.05
				c0.25-0.15,0.47-0.3,0.63-0.45l0.57-0.44c0.13-0.08,0.32-0.26,0.57-0.56c0.22-0.18,0.38-0.35,0.51-0.5l0.76-0.83
				c0.26-0.34,0.59-0.84,1.02-1.5c0.21-0.3,0.51-0.85,0.89-1.67c0.51-1.19,0.92-2.32,1.21-3.39l0.38-1.61
				c0-0.14,0.04-0.44,0.13-0.89c0.05-0.44,0.13-1.03,0.26-1.75c0.13-0.72,0.19-1.31,0.19-1.75c0-0.48,0.04-1.09,0.13-1.84v-0.22
				v-0.28c0.13-1.33,0.19-2.11,0.19-2.33v-0.41v-0.53c0-0.3,0.01-0.59,0.03-0.89c0.02-0.3,0.03-0.63,0.03-1
				c0-0.11,0.01-0.18,0.03-0.22c0.02-0.04,0.03-0.11,0.03-0.22v-0.72v-0.72c0-0.18,0.02-0.35,0.06-0.5c0-0.63-0.11-1.03-0.32-1.22
				c-0.17-0.14-0.85-0.22-2.04-0.22c-1.1,0-2.19,0.03-3.28,0.08c-1.08,0.06-2.17,0.09-3.28,0.09c-0.76,0-1.49,0.01-2.19,0.03
				c-0.7,0.02-1.44,0.03-2.2,0.03c-0.85,0-1.63-0.13-2.36-0.39c-0.68-0.22-1.21-0.98-1.59-2.28c-0.13-0.67-0.19-1.01-0.19-1.05
				c-0.13-0.7-0.17-1.96-0.13-3.75c0.04-1.8,0.45-2.96,1.21-3.48c0.3-0.22,0.7-0.41,1.21-0.55c0.64-0.15,1.42-0.24,2.32-0.28
				c0.92-0.04,1.75-0.06,2.52-0.06h8.09H84.86z"/>
			<path d="M141.35,137.92c-0.25,0.67-0.33,1.79-0.22,3.37s0.18,2.75,0.22,3.53c0.05,1.15,0.1,2.29,0.16,3.41
				c0.07,1.13,0.14,2.25,0.22,3.37c0.21,3.44,0.4,6.88,0.54,10.31c0.15,3.42,0.33,6.84,0.55,10.25c0.04,1.11,0.09,2.26,0.13,3.44
				c0.04,1.19,0.17,2.28,0.38,3.28c0.13,1.22,0.83,1.8,2.1,1.72c1.91-0.11,3.79-0.25,5.64-0.41c1.85-0.16,3.81-0.25,5.89-0.25
				c2.8,0,4.69,0.39,5.67,1.17c1.06,0.93,1.59,2.34,1.59,4.22c0,2.78-1.15,4.51-3.47,5.17c-2.31,0.67-4.74,1.11-7.29,1.34
				c-2.81,0.26-5.64,0.45-8.5,0.58c-2.87,0.13-5.7,0.27-8.51,0.42c-1.44,0.07-2.9,0.14-4.39,0.22c-1.49,0.08-2.93,0.11-4.33,0.11
				c-1.44,0.07-2.9,0.14-4.39,0.2c-1.49,0.05-2.95,0.08-4.39,0.08c-1.91,0-3.06-0.33-3.44-1c-0.25-0.33-0.43-0.84-0.54-1.53
				c-0.11-0.68-0.18-1.26-0.22-1.75c-0.16-1.19-0.32-2.37-0.44-3.56c-0.13-1.19-0.26-2.39-0.38-3.62c-0.34-2.4-0.62-4.85-0.83-7.34
				c-0.21-2.48-0.38-4.94-0.51-7.39c-0.34-5.04-0.6-10.09-0.77-15.17c-0.21-5.56-0.39-11.18-0.54-16.87
				c-0.14-5.68-0.22-11.31-0.22-16.87c0-7.26,0.38-13.94,1.15-20.06c0.09-0.78,0.26-1.79,0.51-3.06c0.26-1.11,0.72-1.87,1.4-2.28
				c0.97-0.55,3.17-0.99,6.59-1.3c3.42-0.32,5.83-0.53,7.22-0.64c2.55-0.22,5.13-0.37,7.74-0.44c2.61-0.08,5.19-0.11,7.74-0.11
				c1.82,0,4.22,0.03,7.2,0.11c2.97,0.07,5.35,0.28,7.13,0.61c1.53,0.26,2.55,0.76,3.06,1.5c0.59,0.93,0.85,2.13,0.76,3.62
				c-0.09,1.67-0.57,2.65-1.46,2.94c-0.9,0.33-2.35,0.53-4.37,0.58c-2.02,0.06-3.56,0.09-4.62,0.09c-1.61,0-3.23,0.01-4.84,0.03
				c-1.61,0.02-3.21,0.03-4.77,0.03c-1.57,0-2.42,0.69-2.55,2.06c-0.09,0.67-0.13,1.35-0.13,2.05v2.05
				c-0.04,1.37-0.07,2.76-0.09,4.17c-0.02,1.41-0.03,2.8-0.03,4.17c-0.04,1.44-0.09,2.9-0.13,4.39c-0.05,1.48-0.07,2.94-0.07,4.39
				c0,1.51,0.51,2.28,1.53,2.28c0.55,0,1.16-0.04,1.82-0.11s1.3-0.15,1.94-0.22c3.27-0.26,5.8-0.44,7.58-0.55
				c1.15,0,2.4,0.01,3.75,0.03c1.36,0.02,2.61,0.16,3.76,0.41c1.15,0.37,2.06,0.78,2.74,1.22l0.51,0.5
				c1.15,1.33,1.46,2.85,0.92,4.56c-0.53,1.7-1.41,2.88-2.64,3.56c-1.19,0.67-2.69,1.13-4.52,1.39c-1.53,0.26-3.38,0.45-5.57,0.58
				c-2.19,0.13-4.11,0.23-5.76,0.31c-0.9,0-1.55,0.01-1.98,0.05C141.83,137.33,141.43,137.56,141.35,137.92z"/>
			<path d="M234.25,102.15c0.23-1.11,1.26-1.91,3.09-2.39c1.15-0.34,2.81-0.49,5-0.47c2.19,0.02,3.69,0.36,4.49,1.03
				c0.59,0.56,1,1.82,1.21,3.78c0.09,1.07,0.17,2.65,0.26,4.72v24.31v24.31c0,3.26-0.03,6.51-0.07,9.75
				c-0.04,3.24-0.07,6.47-0.07,9.69c0,3.7-0.11,6.87-0.32,9.5c-0.09,1.41-0.32,2.82-0.7,4.22c-0.38,1.41-1.21,2.32-2.49,2.73
				c-1.36,0.37-2.78,0.09-4.27-0.84c-0.16-0.11-0.68-0.5-1.53-1.17l-1.27-1.34c-0.9-1.11-1.63-2.08-2.23-2.89
				c-0.94-1.29-1.95-2.86-3.06-4.69c-1.11-1.84-2.02-3.46-2.74-4.87c-0.51-0.89-0.83-1.42-0.95-1.61c-0.34-0.67-0.64-1.22-0.89-1.67
				l-1.78-3.33c-0.26-0.52-0.54-1.07-0.86-1.64c-0.32-0.57-0.61-1.14-0.86-1.69c-0.6-1.11-1.18-2.23-1.75-3.37
				c-0.57-1.13-1.14-2.27-1.69-3.41l-2.54-5.12c-0.85-1.7-1.66-3.42-2.42-5.16c-0.51-1.15-1.05-2.29-1.63-3.42
				c-0.57-1.13-1.11-2.3-1.62-3.53l-3.25-6.95c-1.27-2.59-2.33-4.91-3.18-6.94c-0.81-1.67-1.63-3.38-2.48-5.14
				c-0.85-1.76-1.68-3.47-2.49-5.14l-0.89-1.67c-0.97-1.67-1.63-2.72-1.98-3.16c-0.68-0.82-1.15-0.8-1.4,0.05
				c-0.38,1.19-0.56,3.51-0.54,6.97c0.02,3.46,0.03,5.86,0.03,7.2c0,3.15,0.09,6.3,0.26,9.47c0.17,3.17,0.32,6.31,0.44,9.42
				c0.09,2.07,0.17,3.64,0.26,4.67c0,0.78,0.02,1.55,0.07,2.33l0.13,2.34c0.21,3.08,0.38,6.18,0.48,9.33
				c0.11,3.15,0.26,6.26,0.47,9.34c0.05,0.78,0.08,1.56,0.1,2.36s0.07,1.59,0.16,2.36c0.09,2.15,0.07,3.72-0.07,4.72
				c-0.21,1.67-0.94,2.65-2.17,2.94c-1.65,0.45-4.29,0.7-7.9,0.75c-3.61,0.06-6.26,0.07-7.96,0.03c-1.23-0.03-3.04-0.09-5.41-0.16
				c-1.11,0-2.86-0.1-5.29-0.28c-0.94-0.04-1.51-0.18-1.75-0.44c-0.23-0.26-0.35-1.11-0.35-2.56c-0.09-2.37-0.14-4.77-0.19-7.19
				c-0.04-2.43-0.07-4.85-0.07-7.25c0-1.59-0.02-3.21-0.06-4.83c-0.05-1.63-0.05-3.25,0-4.83c0-1.59-0.01-3.21-0.03-4.84
				c-0.02-1.63-0.03-3.26-0.03-4.89c-0.04-4.78-0.05-9.61-0.03-14.5c0.02-4.89,0.12-9.73,0.29-14.5c0.04-1.56,0.07-3.13,0.09-4.73
				c0.02-1.59,0.1-3.17,0.22-4.72c0.09-1.03,0.17-2.59,0.26-4.67c0-0.78,0.04-1.54,0.13-2.3c0.09-0.76,0.15-1.53,0.19-2.3
				c0.05-1.19,0.16-2.69,0.35-4.5c0.19-1.82,0.4-3.3,0.61-4.45c0.3-1.86,0.81-3.03,1.53-3.53c0.72-0.5,2.23-0.82,4.52-0.97
				c2.97-0.14,6.4-0.17,10.29-0.08c3.89,0.09,6.99,0.74,9.33,1.97c1.87,1,3.35,2.16,4.46,3.47c1.11,1.32,2.19,2.79,3.25,4.42
				c0.43,0.74,0.74,1.28,0.95,1.61l0.95,1.67c0.22,0.34,0.49,0.87,0.83,1.61c0.34,0.59,0.94,1.71,1.78,3.33
				c0.21,0.41,0.49,0.98,0.83,1.73c0.59,1.11,1.17,2.25,1.72,3.41c0.55,1.17,1.11,2.31,1.65,3.42l1.66,3.45
				c0.55,1.15,1.13,2.27,1.72,3.38c0.26,0.56,0.53,1.12,0.83,1.7c0.3,0.57,0.59,1.13,0.89,1.69l2.61,5c0.13,0.3,0.26,0.59,0.41,0.89
				c0.15,0.3,0.29,0.57,0.41,0.84c0.13,0.26,0.27,0.53,0.41,0.83c0.15,0.3,0.31,0.58,0.48,0.84c0.13,0.22,0.42,0.78,0.89,1.67
				l6.12,11.72c0.25,0.59,0.53,1.16,0.82,1.7c0.3,0.53,0.6,1.08,0.9,1.64l1.78,3.33c0.21,0.44,0.52,1.01,0.92,1.69
				s0.73,1.2,0.99,1.53c0.64,0.93,1.04,1,1.21,0.22c0.13-0.67,0.2-1.44,0.22-2.3c0.03-0.87,0.03-1.68,0.03-2.42
				c0-1.59-0.01-3.19-0.03-4.81c-0.02-1.61-0.03-3.23-0.03-4.86c-0.13-3.19-0.19-6.38-0.19-9.59c0-3.2-0.07-6.41-0.19-9.64
				c-0.09-1.55-0.14-3.13-0.16-4.72c-0.02-1.59-0.05-3.2-0.09-4.83c-0.05-1.55-0.1-3.12-0.16-4.7c-0.07-1.57-0.12-3.15-0.16-4.75
				C233.92,104.7,234.02,103.25,234.25,102.15z"/>
		</g>
		<g>
			<path d="M82.11,253.06c0.09,0.61,0.18,1.3,0.28,2.07c0.11,0.76,0.32,1.57,0.64,2.41c0.29,0.84,0.73,1.69,1.31,2.53
				c0.59,0.84,1.36,1.46,2.32,1.87c0.94,0.46,2,0.67,3.2,0.63c1.2-0.04,2.24-0.22,3.11-0.55c0.88-0.33,1.56-0.78,2.06-1.34
				c0.49-0.57,1.01-1.14,1.53-1.73c1.37-1.43,2.59-2.27,3.68-2.53c0.96-0.18,2.11,0.23,3.46,1.22c0.62,0.46,1.22,0.97,1.82,1.51
				c0.6,0.55,0.98,1.09,1.16,1.63c0.24,0.84-0.23,1.95-1.4,3.33c-1.28,1.46-2.59,2.68-3.9,3.67c-1.81,1.32-3.64,2.33-5.48,3.02
				c-2.05,0.82-4.17,1.35-6.35,1.61c-2.31,0.18-4.71,0.07-7.19-0.34c-2.66-0.49-5.51-1.32-8.55-2.49c-3.21-1.22-5.62-2.56-7.23-3.98
				c-1.87-1.61-3.31-3.83-4.3-6.66c-0.96-2.65-1.62-6.19-1.97-10.6c-0.47-4.6-0.56-8.6-0.26-12.02c0.14-1.66,0.38-3.06,0.7-4.21
				c0.32-1.15,0.75-2.27,1.27-3.37c1.05-2.45,2.46-4.73,4.21-6.86c2.13-2.55,4.59-4.68,7.37-6.39c2.77-1.78,5.83-3.05,9.16-3.79
				c3.77-0.82,7.05-0.92,9.86-0.3c2.72,0.64,5.29,2.07,7.72,4.29c1.08,0.99,2.07,2.12,2.96,3.38c0.9,1.26,1.6,2.81,2.13,4.66
				c0.53,1.83,0.87,3.92,1.03,6.28c0.16,2.34,0.24,4.59,0.24,6.74c0,4.64-0.35,8.05-1.05,10.22c-0.35,1.12-0.88,1.88-1.57,2.29
				c-0.7,0.41-1.99,0.61-3.86,0.58c-1.87,0-4.18-0.15-6.93-0.44c-2.75-0.3-4.98-0.55-6.7-0.75c-1.73-0.18-2.81-0.27-3.27-0.28
				c-0.45-0.01-0.75,0.06-0.9,0.21c-0.32,0.3-0.5,0.86-0.53,1.65C81.86,250.58,81.93,251.52,82.11,253.06z M98.53,241.42
				c0.22-0.18,0.33-0.8,0.33-1.88s-0.02-2.54-0.05-4.42c-0.03-1.88-0.11-3.69-0.22-5.46c-0.3-3.67-0.9-6.3-1.8-7.88
				c-0.85-1.38-2.09-2.34-3.73-2.87c-1.05-0.28-2.19-0.23-3.42,0.15c-1.93,0.67-3.38,1.57-4.34,2.72c-0.61,0.74-1.08,1.6-1.4,2.58
				c-0.32,0.99-0.59,1.95-0.79,2.89c-0.43,1.86-0.73,3.83-0.88,5.89c-0.09,1.1-0.14,2.23-0.18,3.39c-0.03,1.16,0.02,2.11,0.13,2.85
				c0.09,0.76,0.34,1.29,0.74,1.59c0.41,0.3,1.33,0.48,2.77,0.55c1.4,0.13,3.18,0.19,5.35,0.19c2.16,0,3.9-0.01,5.22-0.03
				C97.55,241.69,98.3,241.6,98.53,241.42z"/>
			<path d="M143.8,249.27c0.12,0.11,0.25,0.2,0.4,0.27l2.19,1.76c0.17,0.16,0.4,0.38,0.68,0.65c0.28,0.28,0.5,0.47,0.68,0.57
				l1.19,1.07c0.58,0.61,1.24,1.36,1.97,2.22c0.3,0.41,0.6,0.95,0.92,1.61c1.2,2.63,1.14,5.36-0.18,8.19
				c-0.58,1.22-1.3,2.21-2.15,2.95l-0.35,0.3c-0.14,0.13-0.28,0.22-0.4,0.27c-1.58,1.22-3.4,2.04-5.48,2.45s-4.12,0.67-6.14,0.76
				c-1.61,0.05-3.42,0.07-5.43,0.04c-3.31,0-6.38-0.28-9.23-0.86c-2.85-0.57-5.54-1.71-8.09-3.42c-0.44-0.28-0.95-0.63-1.53-1.05
				c-0.59-0.42-1.05-0.82-1.4-1.21c-0.38-0.36-0.8-0.8-1.25-1.34c-0.45-0.54-0.61-1.21-0.46-2.03c0.2-1.2,0.82-2.27,1.84-3.21
				c0.38-0.39,0.87-0.74,1.46-1.07c0.6-0.34,1.37-0.34,2.3,0c0.43,0.18,1.21,0.63,2.32,1.34c0.23,0.18,0.5,0.39,0.81,0.63
				c0.3,0.24,0.59,0.45,0.86,0.63l0.35,0.3c0.38,0.36,1.01,0.81,1.88,1.34c1.08,0.69,2.37,1.2,3.86,1.53
				c1.49,0.34,2.97,0.43,4.45,0.29c1.48-0.14,2.57-0.94,3.27-2.39c0.26-0.51,0.52-1.13,0.77-1.86c0.25-0.73,0.33-1.42,0.24-2.09
				c-0.2-1.02-0.92-2-2.15-2.95l-0.17-0.15c-0.09-0.07-0.16-0.13-0.22-0.15c-0.14-0.13-0.26-0.22-0.35-0.27
				c-0.09-0.07-0.22-0.16-0.4-0.26c-0.61-0.39-1.22-0.77-1.82-1.15c-0.6-0.38-1.18-0.78-1.73-1.19c-0.35-0.26-0.61-0.43-0.79-0.53
				c-0.55-0.38-1.34-0.94-2.36-1.65c-1.02-0.72-1.75-1.26-2.19-1.65l-3.5-2.99c-0.32-0.3-0.65-0.63-0.97-0.95
				c-0.32-0.33-0.63-0.67-0.92-0.99c-0.09-0.08-0.29-0.32-0.61-0.72c-0.09-0.11-0.18-0.21-0.28-0.33c-0.11-0.11-0.2-0.24-0.28-0.36
				c-1.29-1.63-2.39-3.45-3.31-5.45c-0.92-2.01-1.41-4.04-1.47-6.1c-0.09-1.97,0.25-4.1,1.01-6.39c0.76-2.3,1.8-4.22,3.11-5.78
				c0.7-0.82,1.33-1.47,1.88-1.95c1.14-0.95,2.16-1.67,3.07-2.19c1.81-0.99,3.92-1.71,6.31-2.14c2.4-0.43,4.7-0.72,6.88-0.84
				c3.33-0.18,6.55,0.24,9.65,1.26c1.02,0.36,1.68,0.6,1.97,0.72c0.62,0.31,1.19,0.59,1.73,0.84c0.54,0.26,1.12,0.57,1.73,0.95
				c0.59,0.39,1.08,0.76,1.49,1.11c1.11,0.94,1.89,1.89,2.32,2.83c0.47,1.22,0.22,2.48-0.74,3.75c-0.55,0.61-0.88,0.94-0.96,0.99
				l-0.2,0.17l-0.16,0.13c-0.09,0.11-0.21,0.2-0.37,0.31c-0.16,0.1-0.28,0.19-0.38,0.27c-0.09,0.07-0.35,0.24-0.79,0.49
				c-1.4,0.76-2.77,0.74-4.12-0.07c-0.18-0.11-0.44-0.28-0.79-0.54c-0.55-0.48-0.79-0.67-0.7-0.57c-0.09-0.08-0.18-0.15-0.28-0.23
				c-0.1-0.08-0.2-0.15-0.28-0.23c-0.06-0.05-0.12-0.09-0.18-0.11c-0.14-0.08-0.27-0.16-0.37-0.27c-0.11-0.1-0.21-0.2-0.33-0.3
				c-0.14-0.08-0.28-0.17-0.4-0.27l-0.35-0.31c-0.88-0.59-1.74-1.04-2.59-1.38c-1.2-0.43-2.81-0.64-4.82-0.61
				c-3.27,0.13-5.47,1.44-6.58,3.94c-0.53,1.22-0.88,2.53-1.05,3.91c-0.5,3.16,0.05,5.8,1.66,7.92c0.18,0.28,0.37,0.52,0.57,0.72
				c0.24,0.31,0.49,0.59,0.77,0.86c0.28,0.27,0.55,0.55,0.81,0.82c0.26,0.28,0.53,0.55,0.81,0.8c0.28,0.26,0.56,0.51,0.86,0.76
				l2.71,2.45c0.47,0.41,0.84,0.7,1.1,0.88l1.09,0.84c0.61,0.49,1.24,0.94,1.88,1.38c0.65,0.43,1.3,0.87,1.98,1.3
				c1.32,0.87,2.61,1.76,3.9,2.68L143.8,249.27z"/>
			<path d="M183.7,253.95c-0.56-0.06-1.05-0.11-1.49-0.13c-0.73,0-1.07,0.64-1.01,1.92c0,0.86,0.02,1.49,0.05,1.88l0.09,1.84
				c0.03,0.61,0.07,1.22,0.13,1.84c0.06,1.2,0.14,2.39,0.26,3.58c0.12,1.19,0.24,2.36,0.35,3.54c0.09,1.17,0.21,2.33,0.36,3.48
				c0.14,1.15,0.26,2.33,0.35,3.56c0,0.51-0.01,1.1-0.02,1.76c-0.02,0.66-0.14,1.22-0.38,1.68c-0.23,0.36-0.61,0.67-1.14,0.92
				c-0.32,0.13-0.88,0.28-1.67,0.46c-0.96,0.18-2.27,0.33-3.92,0.45c-1.65,0.13-2.98,0.23-4.01,0.31l-4.21,0.23
				c-1.4,0.07-2.81,0.11-4.21,0.11c-1.93,0-3.19-0.13-3.79-0.4c-0.59-0.27-1-1.24-1.21-2.93c-0.09-0.74-0.16-1.95-0.22-3.64
				c0-0.61-0.02-1.22-0.07-1.84c-0.04-0.61-0.07-1.24-0.07-1.88c-0.06-2.5-0.11-5-0.15-7.5c-0.05-2.5-0.08-5.01-0.11-7.54
				c-0.03-1.25-0.07-2.5-0.11-3.75c-0.05-1.25-0.07-2.52-0.07-3.79c-0.03-1.25-0.07-2.51-0.11-3.77c-0.05-1.26-0.07-2.52-0.07-3.77
				c-0.03-2.42-0.11-4.89-0.22-7.41c-0.12-2.51-0.24-4.99-0.36-7.44c-0.05-1.2-0.14-2.4-0.24-3.62c-0.11-1.21-0.17-2.43-0.2-3.65
				c-0.03-0.61-0.06-1.24-0.09-1.87c-0.03-0.64,0-1.26,0.09-1.88c0.12-1.3,0.66-2.11,1.62-2.41c0.47-0.16,1.06-0.28,1.78-0.37
				c0.71-0.09,1.36-0.17,1.95-0.24c0.65-0.08,1.28-0.15,1.93-0.21c0.64-0.07,1.3-0.14,1.97-0.21c0.99-0.08,2.36-0.19,4.08-0.35
				c1.73-0.15,3.07-0.23,4.04-0.23c0.59,0,1.26,0.01,2.02,0.04c0.76,0.03,1.39,0.15,1.88,0.38c0.47,0.28,0.76,0.68,0.88,1.19
				c0.09,0.56,0.07,1.28-0.07,2.18c-0.13,0.89-0.24,1.63-0.33,2.22c-0.09,0.46,0.02,0.67,0.31,0.61c0.14,0,0.44-0.07,0.88-0.19
				c3.04-0.67,6.09-0.98,9.16-0.95c3.07,0.02,6.02,0.53,8.86,1.53c1.93,0.69,3.64,1.44,5.13,2.26c1.28,0.74,2.32,1.43,3.11,2.07
				l0.26,0.27c0.09,0.05,0.19,0.13,0.31,0.23l0.26,0.22c0.11,0.11,0.2,0.19,0.26,0.27l0.52,0.5c1.41,1.63,2.59,3.47,3.56,5.51
				c0.84,1.96,1.3,4.13,1.36,6.51c0,2.6-0.4,4.82-1.19,6.66c-0.67,1.69-1.81,3.25-3.42,4.71l-1.75,1.38
				c-0.55,0.38-1.07,0.73-1.53,1.03c-0.47,0.31-1.01,0.64-1.62,0.99c-2.19,1.22-4.06,2.13-5.61,2.72c-2.02,0.74-3.92,1.14-5.72,1.21
				c-1.8,0.07-3.76,0.02-5.89-0.13C184.76,254.07,184.25,254.02,183.7,253.95z M178.11,236.08c0.05,0.88,0.11,1.75,0.2,2.62
				c0.06,0.72,0.13,1.61,0.2,2.7c0.07,1.09,0.16,1.94,0.28,2.54c0.12,0.8,0.67,1.24,1.67,1.34c1.17,0.15,2.17,0.24,2.98,0.27
				c1.93,0.07,3.93,0.11,6.01,0.11s3.98-0.3,5.74-0.92c0.67-0.18,1.38-0.5,2.15-0.96l0.92-0.53c0.09-0.05,0.16-0.11,0.24-0.15
				c0.07-0.05,0.15-0.12,0.24-0.19l1.05-0.8l1.79-1.65c0.09-0.08,0.32-0.35,0.7-0.8c1.08-1.36,1.65-2.73,1.71-4.14
				c0.03-2.12-0.88-4.15-2.72-6.08c-1.28-1.3-3.13-2.52-5.53-3.64c-1.49-0.66-3.06-1.19-4.69-1.57c-1.73-0.33-3.69-0.49-5.92-0.46
				c-1.87,0.08-3.83,0.26-5.87,0.54c-0.67,0.07-1.12,0.14-1.36,0.19c-0.38,0.13-0.59,0.45-0.61,0.95c0,0.26,0.02,0.7,0.07,1.34
				c0.05,0.64,0.08,1.09,0.11,1.34c0.09,0.9,0.16,1.78,0.22,2.66c0.06,0.88,0.13,1.75,0.22,2.62
				C177.99,234.32,178.06,235.2,178.11,236.08z"/>
			<path d="M237.41,253.06c0.09,0.61,0.18,1.3,0.28,2.07c0.11,0.76,0.32,1.57,0.64,2.41c0.29,0.84,0.73,1.69,1.31,2.53
				c0.59,0.84,1.36,1.46,2.32,1.87c0.94,0.46,2,0.67,3.2,0.63c1.2-0.04,2.24-0.22,3.11-0.55c0.88-0.33,1.56-0.78,2.06-1.34
				c0.49-0.57,1.01-1.14,1.53-1.73c1.37-1.43,2.59-2.27,3.68-2.53c0.96-0.18,2.11,0.23,3.46,1.22c0.61,0.46,1.22,0.97,1.82,1.51
				c0.6,0.55,0.99,1.09,1.16,1.63c0.24,0.84-0.23,1.95-1.4,3.33c-1.28,1.46-2.59,2.68-3.9,3.67c-1.81,1.32-3.64,2.33-5.48,3.02
				c-2.05,0.82-4.17,1.35-6.35,1.61c-2.31,0.18-4.71,0.07-7.19-0.34c-2.66-0.49-5.51-1.32-8.55-2.49c-3.21-1.22-5.62-2.56-7.23-3.98
				c-1.87-1.61-3.31-3.83-4.3-6.66c-0.96-2.65-1.62-6.19-1.97-10.6c-0.47-4.6-0.55-8.6-0.26-12.02c0.14-1.66,0.38-3.06,0.7-4.21
				c0.32-1.15,0.75-2.27,1.27-3.37c1.05-2.45,2.46-4.73,4.21-6.86c2.13-2.55,4.59-4.68,7.37-6.39c2.77-1.78,5.83-3.05,9.16-3.79
				c3.77-0.82,7.05-0.92,9.86-0.3c2.72,0.64,5.29,2.07,7.72,4.29c1.08,0.99,2.07,2.12,2.96,3.38c0.9,1.26,1.6,2.81,2.13,4.66
				c0.53,1.83,0.87,3.92,1.03,6.28c0.16,2.34,0.24,4.59,0.24,6.74c0,4.64-0.35,8.05-1.05,10.22c-0.35,1.12-0.88,1.88-1.57,2.29
				c-0.7,0.41-1.99,0.61-3.86,0.58c-1.87,0-4.18-0.15-6.93-0.44c-2.75-0.3-4.98-0.55-6.7-0.75c-1.73-0.18-2.81-0.27-3.27-0.28
				s-0.75,0.06-0.9,0.21c-0.32,0.3-0.5,0.86-0.53,1.65C237.16,250.58,237.24,251.52,237.41,253.06z M253.83,241.42
				c0.22-0.18,0.33-0.8,0.33-1.88s-0.02-2.54-0.05-4.42s-0.11-3.69-0.22-5.46c-0.3-3.67-0.9-6.3-1.8-7.88
				c-0.85-1.38-2.09-2.34-3.73-2.87c-1.05-0.28-2.19-0.23-3.42,0.15c-1.93,0.67-3.38,1.57-4.34,2.72c-0.61,0.74-1.08,1.6-1.4,2.58
				c-0.32,0.99-0.59,1.95-0.79,2.89c-0.44,1.86-0.73,3.83-0.88,5.89c-0.09,1.1-0.14,2.23-0.18,3.39c-0.03,1.16,0.02,2.11,0.13,2.85
				c0.09,0.76,0.34,1.29,0.74,1.59c0.41,0.3,1.33,0.48,2.77,0.55c1.4,0.13,3.18,0.19,5.35,0.19c2.16,0,3.9-0.01,5.22-0.03
				C252.86,241.69,253.61,241.6,253.83,241.42z"/>
			<path d="M287.8,215.07c-0.18,0.3,0.1,0.29,0.83-0.02c1.26-0.46,2.46-0.74,3.6-0.84c2.54-0.28,5.31-0.1,8.33,0.54
				c3.42,0.76,6.06,2.45,7.93,5.05c0.67,1.07,1.16,1.99,1.45,2.75c0.65,1.79,0.96,4.15,0.96,7.09c0,1.3-0.03,2.54-0.11,3.73
				c-0.07,1.19-0.36,2.33-0.86,3.43c-1.28,2.93-3.54,4.96-6.75,6.08c-1.46,0.53-3.19,0.88-5.2,1.03c-2,0.15-3.7-0.16-5.1-0.96
				c-0.38-0.2-0.79-0.52-1.23-0.95c-1.26-1.2-1.8-2.83-1.64-4.88c0.16-2.05,1.16-3.38,3-4c0.26-0.08,0.54-0.16,0.83-0.23
				c0.29-0.08,0.59-0.18,0.88-0.31c1.08-0.33,1.83-1.01,2.24-2.03c0.41-1.25,0.3-2.37-0.31-3.37c-0.55-0.77-1.53-1.24-2.94-1.42
				c-0.88-0.08-2-0.02-3.37,0.17c-1.38,0.19-2.29,0.67-2.72,1.44c-0.29,0.53-0.48,1.26-0.57,2.16c-0.09,0.91-0.13,1.64-0.13,2.2
				c-0.11,2.65-0.16,5.31-0.15,7.96c0.01,2.65,0.04,5.28,0.07,7.89c0,3.29,0.04,6.59,0.11,9.91c0.07,3.32,0.09,6.6,0.07,9.84
				c0,0.51-0.01,1.16-0.03,1.95c-0.01,0.79-0.09,1.4-0.24,1.8c-0.18,0.51-0.56,0.83-1.14,0.95c-0.61,0.15-1.7,0.24-3.25,0.27
				c-1.55,0.02-2.64,0.03-3.29,0.03c-3.01,0.08-5.99,0.04-8.94-0.11c-1.93-0.11-3.1-0.42-3.5-0.95c-0.44-0.51-0.75-1.57-0.92-3.18
				c-0.14-1.25-0.23-2.52-0.24-3.83c-0.01-1.3-0.03-2.6-0.07-3.91c-0.03-1.3-0.05-2.61-0.07-3.92c-0.01-1.31-0.02-2.63-0.02-3.96
				c-0.06-5.28-0.11-10.57-0.13-15.85c-0.03-5.28,0-10.58,0.09-15.88c0-0.99,0.03-2.27,0.09-3.81c0.05-1.55,0.2-2.78,0.43-3.69
				c0.26-1.2,0.72-1.88,1.38-2.05c0.66-0.16,1.59-0.26,2.78-0.29c4.21-0.07,8.01-0.1,11.4-0.07c0.65,0.03,1.69,0.05,3.15,0.09
				c1.46,0.04,2.5,0.17,3.11,0.4c0.53,0.23,0.76,0.68,0.7,1.34C288.15,213.98,287.97,214.77,287.8,215.07z"/>
			<path d="M354.9,266.84c0.01,0.51-0.05,0.84-0.2,1c-0.18,0.15-1.28,0.55-3.33,1.19c-1.14,0.36-2.56,0.79-4.27,1.3
				c-1.71,0.51-3.21,0.92-4.49,1.22c-2.4,0.59-3.92,0.65-4.56,0.19c-0.38-0.25-0.63-0.61-0.76-1.07c-0.13-0.46-0.22-0.84-0.28-1.15
				c-0.06-0.36-0.47-0.53-1.23-0.53c-0.58,0-1.4-0.01-2.43-0.02c-1.04-0.01-2.11-0.09-3.22-0.21c-2.57-0.26-4.88-0.83-6.93-1.73
				c-1.26-0.53-2.54-1.21-3.86-2.01c-1.31-0.8-2.4-1.71-3.24-2.73c-1.58-1.79-2.31-4.1-2.19-6.93c0.09-2.96,0.88-5.53,2.36-7.7
				c1.29-1.91,3.39-3.54,6.32-4.9c1.31-0.61,2.65-1.13,4.01-1.57c1.36-0.43,2.52-0.79,3.48-1.07c0.94-0.23,1.62-0.46,2.06-0.7
				c0.43-0.24,0.74-0.78,0.92-1.63c0.14-0.79,0.2-1.89,0.15-3.29c-0.05-1.4-0.15-2.8-0.33-4.18c-0.18-1.35-0.4-2.59-0.66-3.71
				c-0.26-1.12-0.49-2.06-0.7-2.83c-0.41-1.38-0.88-2.21-1.4-2.48c-0.85-0.36-1.65-0.24-2.41,0.34c-0.44,0.3-0.85,0.74-1.23,1.3
				c-0.38,0.57-0.79,1.17-1.22,1.8c-1.2,1.76-2.24,2.92-3.11,3.48c-1.05,0.66-2.27,0.76-3.64,0.3c-1.49-0.46-2.59-1.2-3.29-2.22
				c-0.73-1.02-0.76-2.18-0.09-3.48c0.67-1.4,1.93-2.94,3.77-4.6c1.69-1.5,3.69-2.86,6.01-4.06c2.19-1.15,4.48-1.99,6.88-2.52
				c2.16-0.49,4.16-0.61,6-0.38c1.67,0.28,3.26,0.95,4.78,2.03c1.73,1.35,3.32,3.11,4.78,5.28c0.78,1.22,1.55,2.62,2.3,4.19
				c0.74,1.57,1.4,3.42,1.95,5.53c0.56,2.15,1.01,4.58,1.36,7.29c0.35,2.72,0.65,5.72,0.92,9.02c0.24,3.29,0.43,6.68,0.57,10.15
				s0.26,6.22,0.35,8.26L354.9,266.84z M332.08,257.39c0.61,1.38,1.46,2.42,2.54,3.13c0.91,0.64,1.7,0.92,2.37,0.84
				c0.23-0.03,0.36-0.2,0.37-0.53c0.01-0.34-0.07-1.16-0.24-2.49c-0.18-1.3-0.41-2.98-0.7-5.03c-0.29-2.05-0.53-3.71-0.7-4.96
				c-0.2-1.25-0.36-1.99-0.46-2.22c-0.11-0.23-0.26-0.31-0.46-0.23c-0.61,0.23-1.24,0.6-1.88,1.11c-0.7,0.53-1.17,1.21-1.4,2.03
				c-0.41,1.04-0.56,2.33-0.44,3.87C331.1,254.59,331.44,256.08,332.08,257.39z"/>
			<path d="M380.26,239.18c0.06,0.78,0.13,1.55,0.22,2.31c0.26,3.14,0.52,6.28,0.77,9.4c0.24,3.13,0.49,6.26,0.72,9.4
				c0.09,1.84,0.12,3.47,0.09,4.9c0,0.72-0.06,1.47-0.18,2.26c-0.12,0.8-0.35,1.44-0.7,1.96c-0.67,0.84-2.03,1.32-4.08,1.46
				c-1.49,0.13-4.2,0.09-8.13-0.1c-3.93-0.19-6.62-0.43-8.09-0.7c-1.58-0.26-2.44-1.18-2.59-2.76c-0.09-0.76-0.15-1.56-0.2-2.39
				c-0.05-0.83-0.07-1.64-0.07-2.43c-0.2-6.59-0.36-13.2-0.46-19.83c-0.1-6.64-0.11-13.26-0.02-19.87c0-1.3,0.02-2.92,0.07-4.88
				c0.05-1.95,0.15-3.55,0.33-4.8c0.2-1.02,0.45-1.63,0.74-1.84c0.32-0.2,1.13-0.35,2.41-0.42c1.93-0.08,4.73-0.15,8.42-0.21
				c3.68-0.07,6.41,0.05,8.2,0.32c1.81,0.31,2.83,0.79,3.04,1.46c0.22,0.67,0.36,1.67,0.42,3.02v1.34c0,0.68,0.03,1.07,0.09,1.15
				c0.09,0,0.41-0.14,0.96-0.42c2.23-1.17,4.53-2.08,6.93-2.72c1.49-0.38,3.13-0.67,4.93-0.88c1.8-0.2,3.53-0.19,5.2,0.04
				c1.75,0.22,3.04,0.76,3.85,1.59c0.82,0.83,1.48,1.93,1.98,3.31c0.61,1.71,1.05,3.91,1.29,6.6c0.25,2.69,0.41,5,0.51,6.91
				c0,0.84,0.03,1.67,0.09,2.47c0.06,0.8,0.09,1.6,0.09,2.4c0,1.65,0.03,3.3,0.07,4.93c0.05,1.63,0.1,3.27,0.16,4.9l0.17,7.35
				c0.06,2.45,0.15,4.89,0.26,7.32c0.03,0.94,0.06,2.18,0.09,3.71c0.03,1.53-0.03,2.76-0.18,3.67c-0.14,0.82-0.44,1.39-0.88,1.73
				c-0.44,0.36-1.12,0.61-2.04,0.74c-0.92,0.14-1.75,0.25-2.48,0.33c-2.22,0.28-4.03,0.34-5.43,0.19c-0.97-0.11-1.51-0.47-1.62-1.11
				c-0.09-0.38-0.09-1.19,0-2.41c0.05-1.61,0.12-3.22,0.2-4.84c0.07-1.62,0.14-3.23,0.19-4.85c0.03-1.61,0.07-3.23,0.11-4.88
				c0.05-1.65,0.1-3.3,0.15-4.95c0.09-3.29,0.15-6.59,0.18-9.88c0.03-3.29,0.07-6.6,0.13-9.92c0-0.76,0.01-1.58,0.02-2.45
				c0.02-0.86-0.02-1.69-0.11-2.48c-0.12-0.87-0.45-1.4-1.01-1.61c-0.85-0.26-1.86-0.03-3.03,0.68c-1.17,0.72-2.06,1.28-2.67,1.69
				l-1.62,1.11c-0.88,0.56-1.78,1.15-2.72,1.78s-1.8,1.22-2.58,1.78l-0.97,0.72c-0.09,0.05-0.14,0.11-0.17,0.16
				c-0.65,0.51-1.04,1.01-1.19,1.49c-0.18,0.59-0.25,1.36-0.22,2.32c0.03,0.95,0.09,1.75,0.17,2.39
				C380.14,237.62,380.2,238.41,380.26,239.18z"/>
			<path d="M442.8,237.2c-1.82,3.64-3.63,7.26-5.41,10.89c-0.32,0.61-0.63,1.23-0.92,1.86c-0.29,0.63-0.6,1.23-0.92,1.82
				c-0.49,0.97-1.15,2.13-1.97,3.48c-0.35,0.59-0.72,1.15-1.1,1.69c-0.38,0.53-0.74,1.09-1.09,1.65c-0.44,0.76-0.66,1.44-0.66,2.03
				c0,0.76,0.57,1.15,1.71,1.15c1.14,0,2.29-0.03,3.46-0.11c1.17-0.08,2.32-0.15,3.46-0.23c1.15-0.05,2.3-0.11,3.46-0.17
				c1.17-0.07,2.34-0.13,3.51-0.17c0.99-0.03,2.15-0.04,3.48-0.04c1.33,0,2.46,0.11,3.4,0.34c0.99,0.31,1.62,0.82,1.88,1.53
				c0.59,1.53,0.66,3.31,0.22,5.35c-0.2,0.82-0.57,1.36-1.09,1.61c-0.61,0.3-1.4,0.5-2.34,0.59c-0.95,0.09-1.79,0.17-2.52,0.24
				c-3.89,0.31-7.53,0.53-10.91,0.65c-3.77,0.18-7.52,0.36-11.25,0.52c-3.72,0.16-7.47,0.24-11.24,0.24c-0.44,0-1.01,0.01-1.71,0.02
				c-0.7,0.01-1.21-0.02-1.53-0.09c-0.49-0.05-0.88-0.27-1.14-0.65c-0.43-0.69-0.65-1.7-0.65-3.02c0-1.56,0.4-3.34,1.21-5.34
				c0.8-2,1.51-3.76,2.12-5.26c0.32-0.79,0.67-1.6,1.03-2.43c0.36-0.83,0.72-1.65,1.07-2.47c0.35-0.79,0.71-1.6,1.07-2.43
				s0.72-1.64,1.07-2.43c0.2-0.54,0.42-1.08,0.66-1.63c0.23-0.55,0.48-1.11,0.74-1.67c0.7-1.63,1.39-3.26,2.06-4.88
				c0.67-1.62,1.36-3.27,2.06-4.96c0.67-1.66,1.33-3.33,1.97-5c0.65-1.67,1.32-3.35,2.02-5.03c0.18-0.38,0.42-0.94,0.72-1.67
				c0.31-0.72,0.51-1.28,0.59-1.67c0.18-0.66-0.14-1.09-0.96-1.3c-0.5-0.11-1.27-0.15-2.32-0.15h-2.59h-2.54
				c-0.99,0-2.13-0.03-3.4-0.08c-1.27-0.05-2.29-0.3-3.04-0.73c-0.76-0.41-1.26-1.04-1.51-1.91c-0.25-0.87-0.37-1.69-0.37-2.45
				c0-1.43,0.54-2.67,1.62-3.71l0.35-0.31c0.12-0.1,0.31-0.15,0.57-0.15c3.44,0,6.91-0.03,10.39-0.07
				c3.48-0.05,6.94-0.09,10.39-0.12h5.08c1.4,0,3.35,0.02,5.85,0.06c2.5,0.04,4.31,0.28,5.41,0.74c0.79,0.36,1.24,0.92,1.36,1.69
				c0.12,0.76,0.12,1.49,0,2.18c-0.2,1.05-0.68,2.32-1.43,3.81c-0.74,1.49-1.38,2.73-1.9,3.73c-0.35,0.61-0.67,1.22-0.97,1.82
				c-0.29,0.61-0.6,1.2-0.92,1.78C446.49,229.94,444.63,233.55,442.8,237.2z"/>
			<path d="M499.93,266.84c0.01,0.51-0.05,0.84-0.2,1c-0.18,0.15-1.28,0.55-3.33,1.19c-1.14,0.36-2.56,0.79-4.27,1.3
				c-1.71,0.51-3.21,0.92-4.49,1.22c-2.4,0.59-3.92,0.65-4.56,0.19c-0.38-0.25-0.63-0.61-0.76-1.07c-0.13-0.46-0.22-0.84-0.28-1.15
				c-0.06-0.36-0.47-0.53-1.23-0.53c-0.58,0-1.4-0.01-2.43-0.02c-1.04-0.01-2.11-0.09-3.22-0.21c-2.57-0.26-4.88-0.83-6.93-1.73
				c-1.26-0.53-2.54-1.21-3.86-2.01c-1.31-0.8-2.4-1.71-3.24-2.73c-1.58-1.79-2.31-4.1-2.19-6.93c0.09-2.96,0.88-5.53,2.36-7.7
				c1.29-1.91,3.39-3.54,6.32-4.9c1.31-0.61,2.65-1.13,4.01-1.57c1.36-0.43,2.52-0.79,3.48-1.07c0.94-0.23,1.62-0.46,2.06-0.7
				c0.43-0.24,0.74-0.78,0.92-1.63c0.14-0.79,0.2-1.89,0.15-3.29c-0.05-1.4-0.15-2.8-0.33-4.18c-0.18-1.35-0.4-2.59-0.66-3.71
				c-0.26-1.12-0.49-2.06-0.7-2.83c-0.41-1.38-0.88-2.21-1.4-2.48c-0.85-0.36-1.65-0.24-2.41,0.34c-0.44,0.3-0.85,0.74-1.23,1.3
				c-0.38,0.57-0.79,1.17-1.22,1.8c-1.2,1.76-2.24,2.92-3.11,3.48c-1.05,0.66-2.27,0.76-3.64,0.3c-1.49-0.46-2.59-1.2-3.29-2.22
				c-0.73-1.02-0.76-2.18-0.09-3.48c0.67-1.4,1.93-2.94,3.77-4.6c1.69-1.5,3.69-2.86,6.01-4.06c2.19-1.15,4.48-1.99,6.88-2.52
				c2.16-0.49,4.16-0.61,6-0.38c1.67,0.28,3.26,0.95,4.78,2.03c1.73,1.35,3.32,3.11,4.78,5.28c0.78,1.22,1.55,2.62,2.3,4.19
				c0.74,1.57,1.4,3.42,1.95,5.53c0.56,2.15,1.01,4.58,1.36,7.29c0.35,2.72,0.65,5.72,0.92,9.02c0.24,3.29,0.43,6.68,0.57,10.15
				c0.14,3.47,0.26,6.22,0.35,8.26L499.93,266.84z M477.11,257.39c0.61,1.38,1.46,2.42,2.54,3.13c0.91,0.64,1.7,0.92,2.37,0.84
				c0.23-0.03,0.36-0.2,0.37-0.53c0.01-0.34-0.07-1.16-0.24-2.49c-0.18-1.3-0.41-2.98-0.7-5.03c-0.29-2.05-0.53-3.71-0.7-4.96
				c-0.2-1.25-0.36-1.99-0.46-2.22c-0.11-0.23-0.26-0.31-0.46-0.23c-0.61,0.23-1.24,0.6-1.88,1.11c-0.7,0.53-1.17,1.21-1.4,2.03
				c-0.41,1.04-0.56,2.33-0.44,3.87C476.14,254.59,476.48,256.08,477.11,257.39z"/>
		</g>
		<g>
			<path d="M560.6,79.39c-6.78,22.74-27.79,32.96-50.78,33.88c-25.75,1.03-59.23-14.88-52.88-45.25c0.02-0.08,0.04-0.15,0.05-0.23
				l-5.13-4.48c-10.54,62.57,95.84,82.01,113.41,23.11C565.96,84.13,560.96,78.21,560.6,79.39z"/>
			<path d="M511.11,121.05c-5.79,0-11.64-0.65-17.33-1.98c-13.59-3.15-25.32-9.86-33.03-18.89c-8.71-10.21-12.31-23.01-9.95-37.01
				l0.25-1.49l7.04,4.1l-0.13,0.5c-2.16,10.3-0.11,21,6.34,28.63c10.94,12.93,30.71,18.16,45.49,17.52
				c24.7-0.99,43.82-12.51,50.01-33.27l0.14-0.46l0.61-0.26c0.45-0.12,1.04-0.03,2.3,1.29c1.12,1.19,3.89,4.74,3.23,6.95
				c-4.38,14.69-13.66,23.17-28.42,29.33C529.64,119.34,520.46,121.05,511.11,121.05z M452.46,64.95
				c-4.29,30.55,19.62,47.35,41.7,52.48c37.5,8.71,63.34-7.86,70.3-31.25c0.38-1.24-2.02-4.64-3.29-5.77
				c-6.66,21.04-26.2,32.69-51.32,33.7c-15.17,0.64-35.54-4.76-46.84-18.11c-6.66-7.87-9.06-17.51-6.95-27.9L452.46,64.95z"/>
		</g>
		<g>
			<path d="M457.27,65.58c3.89-15.7,14.45-30.15,31.49-32.81c8.37-1.31,14.01,2.78,21.73,2.78c5.9,0,10.79-2.53,17.31-1.4
				c17.25,3.01,31.3,17.53,32.89,36.54c0.17,2,4.99,8.21,4.81,5.95c-2.11-25.41-23.35-52.67-50.95-51.03
				c-4.34,0.26-7.92,1.56-12.24,1.24c-2.83-0.2-5.84-1.67-8.64-1.95c-7.66-0.78-15.1,1.09-21.7,5.03
				c-11.45,6.84-17.46,18.57-19.97,31.23c-0.03,0.13-0.05,0.27-0.08,0.4L457.27,65.58z"/>
			<path d="M565.27,77.98c-0.17,0-0.36-0.04-0.58-0.14c-1.45-0.68-4.7-5.17-4.85-7.07c-1.49-18.02-14.73-32.74-32.18-35.78
				c-3.73-0.65-6.85-0.06-10.15,0.56c-2.23,0.42-4.54,0.85-7.01,0.85h-0.01c-3.44,0-6.47-0.79-9.42-1.54
				c-3.91-1.01-7.62-1.97-12.18-1.24c-14.86,2.32-26.38,14.35-30.8,32.18l-0.3,1.23l-6.8-5.08l0.18-0.93
				c2.88-14.56,9.92-25.56,20.36-31.79c6.93-4.14,14.6-5.91,22.21-5.15c1.42,0.14,2.88,0.57,4.29,0.99
				c1.45,0.42,2.95,0.86,4.33,0.96c2.48,0.17,4.71-0.19,7.07-0.59c1.61-0.27,3.27-0.55,5.06-0.66c27.97-1.65,49.69,25.97,51.84,51.8
				c0.06,0.69-0.22,1.04-0.47,1.21C565.75,77.88,565.54,77.98,565.27,77.98z M524.36,33.02c1.15,0,2.33,0.09,3.58,0.31
				c18.21,3.17,32.01,18.51,33.58,37.3c0.08,1.01,1.82,3.56,3,4.88c-2.59-24.02-22.29-49.12-47.64-49.12
				c-0.76,0-1.52,0.02-2.29,0.07c-1.71,0.1-3.33,0.37-4.89,0.63c-2.35,0.4-4.79,0.82-7.47,0.61c-1.56-0.11-3.15-0.57-4.68-1.02
				c-1.4-0.41-2.72-0.8-3.99-0.93c-7.26-0.73-14.57,0.96-21.17,4.92c-10,5.96-16.75,16.53-19.55,30.55l3.92,2.93
				c4.81-17.83,16.64-29.84,31.85-32.21c4.95-0.77,8.97,0.27,12.86,1.28c2.97,0.77,5.78,1.49,9,1.49h0.01c2.31,0,4.45-0.4,6.7-0.82
				C519.47,33.46,521.81,33.02,524.36,33.02z"/>
		</g>
		<g>
			<path d="M341.95,29.1c11.44,1.87,22.13,1.13,33.05-2.92c21.86-8.11,43.72-26.39,65.03-6.34c1.77,1.66,9.51-0.78,8.21-2
				c-34.09-32.07-63.84,14.26-100.49,8.28C345.82,25.8,337.77,28.42,341.95,29.1L341.95,29.1z"/>
			<path d="M353.54,30.93c-3.79,0-7.68-0.34-11.74-0.99l0,0c-1.72-0.28-1.97-1.04-1.88-1.62c0.3-1.8,6.46-3.23,7.95-3.03
				c14.71,2.42,28.44-3.84,41.72-9.87c19.85-9.02,38.62-17.56,59.22,1.81c0.47,0.44,0.64,1.2-0.03,1.91
				c-1.38,1.47-7.42,3.12-9.34,1.32c-16.38-15.43-32.85-7.72-50.27,0.45c-4.54,2.13-9.25,4.34-13.88,6.06
				C368.14,29.62,361.04,30.93,353.54,30.93z M342.24,28.3c11.72,1.89,22.04,0.96,32.47-2.91c4.58-1.7,9.25-3.89,13.76-6
				c17.15-8.05,34.9-16.38,52.15-0.16c0.24,0.23,1.06,0.43,2.5,0.27c1.93-0.22,3.62-0.9,4.25-1.34
				c-19.63-18.2-37.81-9.96-57.06-1.21c-13.51,6.13-27.46,12.48-42.69,10C346.58,26.73,343.63,27.63,342.24,28.3z"/>
		</g>
	</g>
	<g>
		<path d="M267.85,295.83v3.49h6.55v3.37h-6.55v6.57h-4.04v-16.92h11.14v3.49H267.85z"/>
		<path d="M284.19,309.26v-1.65h-0.05c-0.14,0.27-0.33,0.53-0.56,0.76c-0.23,0.24-0.5,0.45-0.81,0.62
			c-0.31,0.18-0.65,0.32-1.03,0.43c-0.38,0.11-0.77,0.17-1.18,0.17c-0.8,0-1.47-0.14-2.02-0.43c-0.55-0.29-1-0.66-1.34-1.11
			s-0.59-0.97-0.74-1.55c-0.15-0.58-0.23-1.17-0.23-1.78v-7.36h3.94v6.45c0,0.33,0.02,0.65,0.07,0.96c0.05,0.3,0.14,0.57,0.28,0.81
			c0.13,0.24,0.31,0.43,0.54,0.56c0.22,0.13,0.52,0.2,0.88,0.2c0.68,0,1.21-0.25,1.57-0.77c0.36-0.51,0.54-1.11,0.54-1.79v-6.43
			h3.92v11.9H284.19z"/>
		<path d="M298.84,309.26v-6.5c0-0.33-0.03-0.65-0.08-0.96s-0.15-0.57-0.27-0.8c-0.13-0.23-0.31-0.41-0.54-0.55
			c-0.23-0.13-0.52-0.2-0.87-0.2s-0.66,0.07-0.92,0.2c-0.26,0.14-0.48,0.32-0.66,0.56c-0.18,0.24-0.31,0.51-0.39,0.83
			c-0.09,0.31-0.13,0.63-0.13,0.97v6.45h-3.94v-11.9h3.8v1.65h0.05c0.14-0.25,0.33-0.51,0.56-0.75c0.23-0.25,0.5-0.46,0.81-0.63
			c0.31-0.17,0.65-0.32,1.02-0.43c0.37-0.11,0.76-0.17,1.17-0.17c0.8,0,1.47,0.14,2.03,0.43s1.01,0.66,1.35,1.11
			c0.34,0.45,0.59,0.98,0.74,1.57s0.23,1.18,0.23,1.77v7.36H298.84z"/>
		<path d="M314.76,309.26v-1.55h-0.05c-0.38,0.61-0.93,1.07-1.64,1.4s-1.46,0.49-2.26,0.49c-0.89,0-1.69-0.18-2.39-0.53
			c-0.7-0.35-1.29-0.82-1.78-1.4s-0.86-1.25-1.11-2.02s-0.38-1.56-0.38-2.39s0.13-1.62,0.39-2.38c0.26-0.76,0.64-1.42,1.12-2
			c0.49-0.57,1.08-1.03,1.77-1.36c0.69-0.33,1.47-0.5,2.33-0.5c0.88,0,1.62,0.17,2.22,0.5c0.6,0.33,1.08,0.7,1.41,1.1h0.05v-7.43
			h3.92v18.07H314.76z M314.62,303.28c0-0.38-0.07-0.76-0.2-1.12c-0.14-0.37-0.33-0.69-0.57-0.98c-0.25-0.29-0.55-0.52-0.9-0.69
			c-0.35-0.17-0.75-0.26-1.2-0.26c-0.46,0-0.87,0.09-1.22,0.26c-0.35,0.18-0.65,0.4-0.88,0.68c-0.24,0.28-0.42,0.6-0.54,0.97
			c-0.12,0.37-0.18,0.74-0.18,1.12c0,0.38,0.06,0.76,0.18,1.13c0.12,0.38,0.3,0.71,0.54,0.99c0.24,0.29,0.53,0.52,0.88,0.69
			c0.35,0.18,0.76,0.26,1.22,0.26c0.45,0,0.84-0.09,1.2-0.26c0.35-0.17,0.65-0.41,0.9-0.69c0.25-0.29,0.44-0.61,0.57-0.98
			C314.55,304.04,314.62,303.67,314.62,303.28z"/>
		<path d="M321.31,298.98c0.7-0.67,1.52-1.17,2.45-1.51c0.93-0.33,1.88-0.5,2.86-0.5c1,0,1.85,0.12,2.54,0.37
			c0.69,0.25,1.25,0.63,1.69,1.15c0.43,0.52,0.74,1.17,0.94,1.96c0.2,0.79,0.3,1.72,0.3,2.81v6h-3.58v-1.27h-0.07
			c-0.3,0.49-0.76,0.88-1.37,1.15s-1.28,0.41-2,0.41c-0.48,0-0.97-0.06-1.48-0.19c-0.51-0.13-0.98-0.33-1.4-0.62
			c-0.42-0.29-0.77-0.67-1.04-1.15c-0.27-0.48-0.41-1.07-0.41-1.77c0-0.86,0.23-1.55,0.71-2.08c0.47-0.53,1.08-0.93,1.82-1.22
			c0.74-0.29,1.57-0.48,2.47-0.57s1.79-0.14,2.65-0.14v-0.19c0-0.59-0.21-1.02-0.62-1.3c-0.42-0.28-0.92-0.42-1.53-0.42
			c-0.56,0-1.09,0.12-1.61,0.36c-0.52,0.24-0.96,0.53-1.33,0.86L321.31,298.98z M328.5,304.07H328c-0.43,0-0.86,0.02-1.3,0.06
			c-0.44,0.04-0.83,0.12-1.17,0.23c-0.34,0.11-0.63,0.28-0.85,0.49c-0.22,0.21-0.33,0.5-0.33,0.85c0,0.22,0.05,0.41,0.16,0.57
			s0.24,0.29,0.39,0.38s0.34,0.16,0.55,0.2s0.41,0.06,0.6,0.06c0.8,0,1.41-0.22,1.83-0.66c0.42-0.44,0.63-1.03,0.63-1.78V304.07z"/>
		<path d="M343.22,301.21c-0.22-0.29-0.53-0.52-0.91-0.69c-0.38-0.17-0.77-0.26-1.17-0.26c-0.42,0-0.79,0.08-1.12,0.25
			c-0.33,0.17-0.62,0.39-0.86,0.67c-0.24,0.28-0.43,0.6-0.56,0.97c-0.14,0.37-0.2,0.76-0.2,1.17s0.06,0.8,0.19,1.17
			c0.13,0.37,0.31,0.69,0.56,0.97c0.25,0.28,0.54,0.5,0.88,0.66s0.73,0.24,1.16,0.24c0.4,0,0.79-0.08,1.18-0.23s0.71-0.37,0.94-0.66
			l2.17,2.65c-0.49,0.48-1.13,0.85-1.91,1.12s-1.61,0.41-2.49,0.41c-0.94,0-1.82-0.14-2.63-0.43c-0.81-0.29-1.52-0.71-2.12-1.25
			c-0.6-0.55-1.07-1.21-1.42-2c-0.34-0.78-0.52-1.67-0.52-2.65c0-0.97,0.17-1.85,0.52-2.63c0.34-0.78,0.82-1.45,1.42-2
			c0.6-0.55,1.31-0.97,2.12-1.27c0.82-0.29,1.68-0.44,2.61-0.44c0.43,0,0.86,0.04,1.28,0.12c0.42,0.08,0.83,0.19,1.22,0.32
			c0.39,0.14,0.75,0.3,1.08,0.5s0.61,0.42,0.85,0.66L343.22,301.21z"/>
		<path d="M351.28,293.56c0,0.3-0.06,0.58-0.18,0.85c-0.12,0.26-0.28,0.49-0.48,0.68s-0.44,0.34-0.72,0.45
			c-0.28,0.11-0.57,0.17-0.87,0.17c-0.64,0-1.17-0.21-1.6-0.63c-0.43-0.42-0.65-0.93-0.65-1.52c0-0.29,0.06-0.56,0.17-0.82
			c0.11-0.26,0.27-0.49,0.48-0.68s0.45-0.35,0.72-0.47s0.57-0.18,0.88-0.18c0.3,0,0.59,0.06,0.87,0.17
			c0.28,0.11,0.52,0.26,0.72,0.45c0.2,0.19,0.36,0.42,0.48,0.68C351.22,292.97,351.28,293.25,351.28,293.56z M347.07,309.26v-11.9
			h3.92v11.9H347.07z"/>
		<path d="M366.72,303.26c0,0.97-0.18,1.85-0.53,2.64c-0.35,0.79-0.83,1.46-1.43,2.01c-0.61,0.55-1.31,0.98-2.1,1.28
			c-0.8,0.3-1.65,0.45-2.56,0.45c-0.89,0-1.74-0.15-2.54-0.45c-0.8-0.3-1.51-0.73-2.1-1.28c-0.6-0.55-1.07-1.22-1.42-2.01
			c-0.35-0.79-0.53-1.67-0.53-2.64s0.17-1.85,0.53-2.63s0.82-1.44,1.42-1.98c0.6-0.54,1.3-0.96,2.1-1.24
			c0.8-0.29,1.65-0.43,2.54-0.43c0.91,0,1.76,0.14,2.56,0.43c0.8,0.29,1.5,0.7,2.1,1.24c0.61,0.54,1.08,1.2,1.43,1.98
			C366.54,301.41,366.72,302.29,366.72,303.26z M362.94,303.26c0-0.38-0.06-0.76-0.19-1.12c-0.13-0.37-0.31-0.69-0.55-0.97
			c-0.24-0.28-0.53-0.5-0.88-0.68c-0.35-0.17-0.76-0.26-1.22-0.26s-0.87,0.09-1.22,0.26c-0.35,0.18-0.64,0.4-0.87,0.68
			c-0.23,0.28-0.41,0.6-0.53,0.97c-0.12,0.37-0.18,0.74-0.18,1.12c0,0.38,0.06,0.76,0.18,1.12c0.12,0.37,0.3,0.7,0.54,0.99
			c0.24,0.3,0.53,0.53,0.88,0.71c0.35,0.18,0.76,0.26,1.22,0.26c0.46,0,0.87-0.09,1.22-0.26c0.35-0.17,0.64-0.41,0.88-0.71
			c0.24-0.29,0.42-0.62,0.54-0.99C362.88,304.02,362.94,303.64,362.94,303.26z M361.03,295.59h-2.96l2.49-3.44h3.97L361.03,295.59z"
			/>
		<path d="M377.02,309.26v-6.5c0-0.33-0.03-0.65-0.08-0.96c-0.06-0.3-0.15-0.57-0.28-0.8c-0.13-0.23-0.31-0.41-0.54-0.55
			c-0.23-0.13-0.52-0.2-0.87-0.2c-0.35,0-0.66,0.07-0.92,0.2c-0.26,0.14-0.48,0.32-0.66,0.56c-0.17,0.24-0.31,0.51-0.39,0.83
			c-0.09,0.31-0.13,0.63-0.13,0.97v6.45h-3.94v-11.9h3.8v1.65h0.05c0.14-0.25,0.33-0.51,0.56-0.75c0.23-0.25,0.5-0.46,0.81-0.63
			c0.31-0.17,0.65-0.32,1.02-0.43s0.76-0.17,1.17-0.17c0.8,0,1.47,0.14,2.03,0.43c0.56,0.29,1.01,0.66,1.35,1.11
			s0.59,0.98,0.74,1.57s0.23,1.18,0.23,1.77v7.36H377.02z"/>
		<path d="M403.3,304.34c0,0.92-0.18,1.7-0.55,2.33c-0.37,0.63-0.85,1.13-1.46,1.52s-1.29,0.66-2.07,0.82
			c-0.77,0.17-1.56,0.25-2.38,0.25h-6.74v-16.92h6.74c0.65,0,1.32,0.07,2.01,0.2c0.68,0.14,1.31,0.37,1.86,0.69
			c0.56,0.33,1.01,0.77,1.36,1.33s0.53,1.27,0.53,2.13c0,0.94-0.25,1.72-0.76,2.33s-1.18,1.06-2.01,1.33v0.05
			c0.48,0.08,0.93,0.23,1.35,0.44c0.42,0.21,0.79,0.49,1.1,0.82s0.56,0.73,0.74,1.17C403.21,303.28,403.3,303.78,403.3,304.34z
			 M398.67,297.24c0-0.57-0.22-0.99-0.66-1.25s-1.09-0.39-1.95-0.39h-2.01v3.49h2.2c0.76,0,1.36-0.16,1.78-0.47
			C398.46,298.3,398.67,297.84,398.67,297.24z M399.22,303.95c0-0.7-0.26-1.19-0.79-1.46c-0.53-0.27-1.23-0.41-2.1-0.41h-2.27v3.87
			h2.29c0.32,0,0.65-0.03,0.99-0.08c0.34-0.06,0.65-0.16,0.93-0.3c0.28-0.14,0.5-0.35,0.68-0.61
			C399.13,304.71,399.22,304.37,399.22,303.95z"/>
		<path d="M413.63,309.26v-1.65h-0.05c-0.14,0.27-0.33,0.53-0.56,0.76c-0.23,0.24-0.5,0.45-0.81,0.62
			c-0.31,0.18-0.65,0.32-1.03,0.43c-0.38,0.11-0.77,0.17-1.18,0.17c-0.8,0-1.47-0.14-2.02-0.43c-0.55-0.29-1-0.66-1.34-1.11
			c-0.34-0.45-0.59-0.97-0.74-1.55c-0.15-0.58-0.23-1.17-0.23-1.78v-7.36h3.94v6.45c0,0.33,0.02,0.65,0.07,0.96
			c0.05,0.3,0.14,0.57,0.27,0.81c0.14,0.24,0.31,0.43,0.54,0.56c0.22,0.13,0.52,0.2,0.88,0.2c0.68,0,1.21-0.25,1.56-0.77
			c0.36-0.51,0.54-1.11,0.54-1.79v-6.43h3.92v11.9H413.63z"/>
		<path d="M433.73,303.26c0,0.83-0.13,1.62-0.38,2.39c-0.26,0.76-0.63,1.44-1.11,2.02c-0.49,0.58-1.08,1.05-1.78,1.4
			c-0.7,0.35-1.5,0.53-2.39,0.53c-0.8,0-1.55-0.16-2.26-0.49c-0.71-0.33-1.25-0.79-1.64-1.4h-0.05v1.55h-3.61v-18.07h3.92v7.43h0.05
			c0.33-0.4,0.8-0.76,1.41-1.1c0.61-0.33,1.35-0.5,2.22-0.5c0.86,0,1.64,0.17,2.33,0.5c0.69,0.33,1.28,0.79,1.77,1.36
			c0.49,0.57,0.86,1.24,1.12,2C433.6,301.64,433.73,302.43,433.73,303.26z M429.95,303.26c0-0.38-0.06-0.76-0.18-1.12
			c-0.12-0.37-0.3-0.69-0.54-0.97c-0.24-0.28-0.53-0.5-0.88-0.68c-0.35-0.17-0.76-0.26-1.22-0.26c-0.45,0-0.84,0.09-1.2,0.26
			c-0.35,0.18-0.65,0.41-0.9,0.69c-0.25,0.29-0.44,0.61-0.57,0.98s-0.2,0.74-0.2,1.12c0,0.38,0.07,0.76,0.2,1.12
			c0.14,0.37,0.33,0.69,0.57,0.98c0.25,0.29,0.55,0.52,0.9,0.69c0.35,0.18,0.75,0.26,1.2,0.26c0.46,0,0.87-0.09,1.22-0.26
			c0.35-0.17,0.65-0.41,0.88-0.69c0.24-0.29,0.42-0.62,0.54-0.99C429.89,304.02,429.95,303.64,429.95,303.26z"/>
		<path d="M436.05,298.98c0.7-0.67,1.52-1.17,2.45-1.51c0.93-0.33,1.88-0.5,2.86-0.5c1,0,1.85,0.12,2.54,0.37s1.25,0.63,1.68,1.15
			c0.43,0.52,0.75,1.17,0.94,1.96c0.2,0.79,0.3,1.72,0.3,2.81v6h-3.58v-1.27h-0.07c-0.3,0.49-0.76,0.88-1.37,1.15s-1.28,0.41-2,0.41
			c-0.48,0-0.97-0.06-1.48-0.19c-0.51-0.13-0.98-0.33-1.4-0.62c-0.42-0.29-0.77-0.67-1.04-1.15c-0.27-0.48-0.41-1.07-0.41-1.77
			c0-0.86,0.24-1.55,0.71-2.08c0.47-0.53,1.08-0.93,1.82-1.22c0.74-0.29,1.57-0.48,2.47-0.57s1.79-0.14,2.65-0.14v-0.19
			c0-0.59-0.21-1.02-0.62-1.3c-0.41-0.28-0.92-0.42-1.53-0.42c-0.56,0-1.1,0.12-1.61,0.36s-0.96,0.53-1.33,0.86L436.05,298.98z
			 M443.24,304.07h-0.5c-0.43,0-0.86,0.02-1.3,0.06s-0.83,0.12-1.17,0.23c-0.34,0.11-0.62,0.28-0.85,0.49
			c-0.22,0.21-0.33,0.5-0.33,0.85c0,0.22,0.05,0.41,0.16,0.57c0.1,0.16,0.23,0.29,0.39,0.38c0.16,0.1,0.34,0.16,0.55,0.2
			s0.41,0.06,0.6,0.06c0.8,0,1.41-0.22,1.83-0.66s0.63-1.03,0.63-1.78V304.07z M442.14,295.59h-2.96l2.49-3.44h3.97L442.14,295.59z"
			/>
		<path d="M466.97,309.26l-1.31-3.32h-6.55l-1.24,3.32h-4.45l7.1-16.92h3.97l7.03,16.92H466.97z M462.43,296.86l-2.15,5.81h4.25
			L462.43,296.86z"/>
		<path d="M477.18,307.16c0,0.67-0.24,1.23-0.71,1.67c-0.47,0.45-1.03,0.67-1.68,0.67c-0.33,0-0.65-0.06-0.94-0.18
			c-0.29-0.12-0.55-0.28-0.78-0.49c-0.22-0.21-0.4-0.45-0.53-0.73c-0.13-0.28-0.19-0.58-0.19-0.92c0-0.32,0.06-0.62,0.19-0.91
			c0.13-0.29,0.3-0.54,0.53-0.75c0.22-0.21,0.48-0.39,0.78-0.51c0.29-0.13,0.61-0.19,0.94-0.19c0.65,0,1.21,0.22,1.68,0.67
			C476.94,305.93,477.18,306.49,477.18,307.16z"/>
		<path d="M492.21,308.96c-1.1,0.5-2.37,0.75-3.8,0.75c-1.31,0-2.51-0.21-3.62-0.65c-1.11-0.43-2.07-1.04-2.88-1.83
			c-0.81-0.79-1.45-1.73-1.91-2.83c-0.46-1.1-0.69-2.31-0.69-3.63c0-1.35,0.24-2.58,0.71-3.68s1.12-2.04,1.95-2.81
			c0.83-0.77,1.8-1.37,2.92-1.78c1.12-0.41,2.32-0.62,3.61-0.62c1.19,0,2.37,0.21,3.52,0.63c1.16,0.42,2.09,1.04,2.81,1.85
			l-2.77,2.77c-0.38-0.53-0.88-0.92-1.51-1.17s-1.26-0.38-1.91-0.38c-0.72,0-1.37,0.13-1.97,0.39c-0.6,0.26-1.11,0.62-1.54,1.09
			c-0.43,0.46-0.76,1.01-1,1.64c-0.24,0.63-0.36,1.32-0.36,2.07c0,0.76,0.12,1.47,0.36,2.1c0.24,0.64,0.57,1.18,0.99,1.64
			c0.42,0.45,0.93,0.81,1.52,1.06c0.59,0.26,1.23,0.38,1.94,0.38c0.81,0,1.52-0.16,2.13-0.48c0.61-0.32,1.09-0.73,1.46-1.24
			l2.84,2.68C494.23,307.78,493.31,308.46,492.21,308.96z"/>
		<path d="M500.98,307.16c0,0.67-0.24,1.23-0.71,1.67c-0.47,0.45-1.03,0.67-1.68,0.67c-0.33,0-0.65-0.06-0.94-0.18
			c-0.29-0.12-0.55-0.28-0.78-0.49c-0.22-0.21-0.4-0.45-0.53-0.73c-0.13-0.28-0.19-0.58-0.19-0.92c0-0.32,0.06-0.62,0.19-0.91
			c0.13-0.29,0.3-0.54,0.53-0.75c0.22-0.21,0.48-0.39,0.78-0.51c0.29-0.13,0.61-0.19,0.94-0.19c0.65,0,1.21,0.22,1.68,0.67
			C500.74,305.93,500.98,306.49,500.98,307.16z"/>
	</g>
</g>
</svg>
