<?xml version="1.0" encoding="utf-8"?>
<!-- Generator: Adobe Illustrator 25.0.0, SVG Export Plug-In . SVG Version: 6.00 Build 0)  -->
<svg version="1.1" xmlns="http://www.w3.org/2000/svg" xmlns:xlink="http://www.w3.org/1999/xlink" x="0px" y="0px"
	 viewBox="0 0 571.14 682" style="enable-background:new 0 0 571.14 682;" xml:space="preserve">
<style type="text/css">
	.st0{display:none;}
	.st1{display:inline;}
	.st2{stroke:#000000;stroke-miterlimit:10;}
</style>
<g id="Capa_2" class="st0">
	<rect x="-37" y="-47" class="st1" width="673" height="825"/>
</g>
<g id="Capa_1">
	<g>
		<path class="st2" d="M-1.32,257c0.98-7.17,1.72-14.39,3-21.51c1.85-10.27,3.87-20.52,6.26-30.68c1.4-5.95,6.9-8.27,11.76-10.64
			c16.39-7.98,36.83,1.28,40.29,18.26c0.57,2.81,0.38,6.02-0.36,8.81c-5.36,20.32-13.4,39.54-29.05,54.05
			c-8.78,8.14-19.47,14.23-29.81,21.62c-1.05-2.46-1.58-3.69-2.11-4.92c0-6,0-12,0-18c1.16,0.04,2.37-0.1,3.48,0.16
			c10.49,2.53,19.46-0.54,25.76-8.86c6.87-9.07,12.88-18.84,18.71-28.63c3.79-6.36,3.63-13.74,2.91-20.91
			c-0.75-7.41-5.27-12.54-11.68-13.82c-6.48-1.3-11.79,1.03-16.12,5.69c-4.08,4.38-4.23,9.46-2.22,14.87
			c2.31,6.21,5.01,12.34,6.54,18.74c1.91,8.04,1.37,16.19-5.35,22.11c-6.38,5.62-14.11,5.88-22.02,3.64
			C-1.32,263.67-1.32,260.33-1.32,257z"/>
		<path class="st2" d="M447.68,5c0.91,1.74,2.54,3.45,2.62,5.23c0.82,17.99,1.66,36.14-7.39,52.61c-2.63,4.78-6.54,9.71-11.13,12.4
			c-11.44,6.68-23.53,12.29-35.53,17.97c-7.49,3.54-14.66,1.47-21.22-2.89c-4.87-3.24-6.27-7.87-2.64-12.35
			c4.24-5.24,9.31-9.92,14.55-14.19c9.03-7.35,18.52-14.13,27.74-21.25c9.37-7.23,16.46-16.38,22.36-26.58
			c2.22-3.84,5.07-7.3,7.64-10.94C445.68,5,446.68,5,447.68,5z M422.71,48.46c0.35,0.22,0.7,0.45,1.04,0.67
			c-0.36,0.83-0.61,1.74-1.11,2.49c-2.95,4.42-6.05,8.74-8.88,13.23c-0.55,0.88-0.11,2.39-0.13,3.61c1.37-0.1,3.14,0.3,4.03-0.41
			c2.06-1.63,3.64-3.84,5.51-5.72c2.52-2.54,5.12-5,7.69-7.49c0.45,0.44,0.9,0.87,1.36,1.31c-4.01,5.44-8.02,10.88-12.04,16.32
			c0.4,0.36,0.8,0.72,1.2,1.07c7.46-1.11,12.34-6.1,16.51-11.97c3.81-5.37,2.73-9.67-2.76-13.4c-3.12-2.12-6.12-4.46-8.96-6.94
			c-2.22-1.93-3.64-2.01-5.69,0.43c-3.07,3.65-6.65,6.87-10.01,10.27c-1.86,1.88-4.04,3.55-5.44,5.73
			c-0.65,1.02-0.09,3.17,0.58,4.47c0.22,0.43,2.65,0.15,3.78-0.41c1.45-0.72,2.7-1.93,3.85-3.12
			C416.45,55.27,419.56,51.85,422.71,48.46z M391.67,88.69c0.24,0.45,0.48,0.9,0.73,1.35c3.69-1.66,7.53-3.07,10.97-5.15
			c0.99-0.59,1.68-3.84,1.03-4.62c-3.17-3.78-6.76-7.24-10.42-10.55c-0.97-0.87-2.78-1.22-4.16-1.14
			c-4.54,0.27-13.78,9.21-14.92,15.28c4.92-1.92,9.18-3.58,13.45-5.24c0.41,0.47,0.82,0.95,1.23,1.42
			c-2.79,1.84-5.59,3.69-8.38,5.53c8.3,2.71,11.21-5.01,18.28-7.13C396.24,82.7,393.96,85.7,391.67,88.69z M446.87,10.38
			c-8.15,5.58-11.87,16.69-7.43,19.48c0.11-0.12,0.29-0.24,0.3-0.37c0.12-1.44,0.21-2.88,0.29-3.99c1.85,0.44,3.7,0.89,5.48,1.31
			c-3.38,5.85-3.37,5.89,2.5,7.9C447.63,26.73,447.27,19.04,446.87,10.38z"/>
		<path class="st2" d="M240.92,420.19c4.72-8.82,7.55-9.57,15.46-2.99c3.06,2.54,5.37,6.17,7.48,9.63c1.75,2.87,0.06,4.3-3.02,4.25
			c-3.83-0.06-7.69-0.43-11.49-0.12c-6.1,0.49-12.19,1.24-18.23,2.25c-3.58,0.6-6.94,1.21-9.46-2.13c-2.79-3.69-4.44-7.51-0.4-11.36
			c-5.28-6.75-4.05-13.07,4.15-15.39c8.53-2.42,17.6-3.01,26.47-4.17c4.61-0.6,9.28-0.74,13.93-1.01c3.35-0.2,4.27-1.8,3.44-4.99
			c-2.7-10.28-5.27-20.58-8.2-32.08c-4.35,7.57-8.26,14.37-12.17,21.17c-0.43-0.21-0.86-0.43-1.28-0.64
			c2.32-11.03,4.65-22.07,7.15-33.95c1.57,3.37,2.84,6.07,4.1,8.78c0.28-0.08,0.55-0.16,0.83-0.24
			c-2.52-13.79-5.03-27.59-7.56-41.43c-6.07,6.67-13.46,30.03-11.68,36.81c4.04-1.14,4.04-1.14,7.78-14.5
			c3.73,6.4,1.35,23.13-3.97,27.95c-3.76,3.4-7.67,3.23-13.02-0.58c-4.71,3.89-6.13,10.07-3.45,15.06
			c3.85,7.21,9.28,8.75,19.21,5.46c-0.08,9.8-7.67,16.16-16.87,13.42c1.03-1.92,2.15-3.67,2.94-5.56c0.69-1.65,1-3.46,1.76-6.22
			c-12.39,9.19-27.7,9.93-45.93,7.11c2.99-1.5,5.75-2.89,8.78-4.42c-4.11-4.11-9.25-4.42-15.16-1.25c-1.55,0.83-2.66,2.47-3.98,3.74
			c0.48,0.42,0.97,0.84,1.45,1.26c0.78-0.99,1.57-1.98,2.35-2.98c3.32,3,2.87,6.24-1.13,7.69c-2.17,0.79-4.62,0.96-6.61,2.04
			c-1.27,0.69-1.91,2.52-2.84,3.84c1.19,0.72,2.73,2.29,3.48,1.98c1.48-0.63,2.63-2.21,3.69-3.58c0.33-0.43-0.06-1.42-0.22-3.45
			c2.28,1.33,3.68,2.14,5.65,3.28c0.77-5.22,4.87-4.95,8.92-5.02c6.32-0.12,12.66-0.16,18.94-0.72c6.05-0.53,12.05-1.67,19.19-2.7
			c-2.38,2.41-4.11,4.48-6.16,6.15c-4.18,3.39-8.27,6.76-9.47,12.42c-0.15,0.7-0.81,1.82-1.29,1.85
			c-6.87,0.44-13.56-0.38-21.48-2.93c5.88-1.2,10.21-2.09,14.55-2.97c-6.74-5.26-13.26-3.95-19.79-1.34
			c0.07,6.47-1.75,9.46-5.85,9.8c-3.68,0.3-4.98-1.47-5.42-6.07c-2.91-2.83-5.85-4.48-6.79-6.9c-1.22-3.14,0.43-6.16,4.06-7.42
			c0.28-0.1,0.67-0.34,0.72-0.57c2.72-12.16,13.16-10.88,21.82-12.29c6.39-1.04,12.9-1.34,19.37-1.77c4.34-0.29,6.7-2.65,7.64-6.61
			c3.49-14.69,7.24-29.34,10.26-44.12c3.98-19.47,8.8-38.56,19.52-55.63c0.94-1.5,1.43-3.29,2.58-6.01c-5.09,0-9.48,0.12-13.86-0.02
			c-14.96-0.5-29.99-0.88-44.33-5.85c-14.87-5.14-26.07-15-34.56-28.1c-2.01-3.09-4.51-5.95-5.95-9.28
			c-0.81-1.87,0.07-4.48,0.2-6.76c2.03,0.17,4.05,0.35,6.57,0.56c-0.83-1.19-2.02-2.77-3.07-4.45c-0.7-1.12-1.52-2.32-1.7-3.57
			c-0.27-1.9-0.72-4.35,0.2-5.65c0.73-1.03,3.4-0.68,5.34-0.97c0.26-5.96,0.43-6.13,4.92-5.48c1.46-3.36,2.2-7.09,4.44-9.33
			c0.98-0.98,5,1.08,7.74,1.78c-0.11,0.47,0.02,0.03,0.09-0.42c0.57-3.71,0.23-7.94,4.75-9.61c4.72-1.73,8.22,1.06,10.93,4.09
			c2.94,3.29,5.21,7.26,7.39,11.15c3.5,6.23,6.64,12.65,10.02,18.95c1.77,3.3,4.33,5.26,8.38,5.16c19.46-0.49,38.93-0.73,58.38-1.44
			c2.52-0.09,5.01-2.27,7.42-3.65c10.59-6.06,21.15-12.18,31.72-18.27c0.42,0.63,0.85,1.26,1.27,1.89
			c-2.41,2.17-4.68,4.54-7.27,6.48c-7.86,5.88-15.65,11.89-23.89,17.21c-3.18,2.05-7.46,3.27-11.26,3.34
			c-19.45,0.36-38.91,0.26-58.37,0.24c-5.25,0-9.02-2.55-11.91-6.95c-4.83-7.37-9.87-14.6-15.04-21.74
			c-1.43-1.97-3.4-3.79-5.53-4.91c-1.05-0.55-4.39,0.73-4.37,1.02c0.36,4.94-3.43,5.24-6.59,6.31c-0.59,0.2-1.11,0.62-2.14,1.21
			c5.67-0.98,12.1,2.98,13.04,8.03c0.23,1.23-1.03,3.24-2.19,4.13c-3.41,2.62-7.21,4.74-10.66,7.32c-0.99,0.74-2.16,2.74-1.81,3.53
			c3.32,7.54,6.47,15.24,10.69,22.27c2.41,4.01,7.05,6.27,12.67,6.2c-7.46-4.51-15.4-8.54-13.86-20.57
			c5.61,7.63,14.71,10.11,18.42,18.85c3.08,7.27,13.97,11.44,21.11,8.31c-6.75-0.4-13.44-0.92-16.47-8.47
			c6.07,1.19,12.02,2.27,17.91,3.58c0.91,0.2,1.85,1.29,2.33,2.2c2.32,4.43,6.09,6.42,10.88,6.8c5.54,0.43,11.08,0.8,16.75,0.51
			c-5.45-2.95-13.15-0.58-17.39-8.93c8.78,2,17.15-1.82,24.48,5.04c5.75,5.37,18.9,5.81,25.58,1.43c-8.4-0.43-16.72,2.04-23.41-4.99
			c7.65-0.39,14.71-0.78,21.77-1.05c0.86-0.03,1.89,0.46,2.59,1.02c9.92,7.94,18.07,7.58,27.21-1.3c0.81-0.79,1.55-1.65,2.14-3.07
			c-7.39,4.77-14.72,9.13-23.1,3.28c5.96-3.26,11.89-6.6,17.93-9.72c1.06-0.55,2.62-0.34,3.92-0.19c8.39,1,15.6-2.43,22.74-6.03
			c1.21-0.61,2.08-1.89,2.85-3.47c-7.08-0.52-12.48,8-21,3.09c5.39-3.4,10.26-6.74,15.42-9.52c1.11-0.6,3.4,0.54,4.94,1.29
			c7.5,3.65,14.22,1.55,20.67-2.63c0.55-0.36,0.73-1.3,1.52-2.81c-6.87-0.08-13.16,7.6-19.84-0.37c6.29-2.7,12.17-5.75,18.4-7.58
			c1.82-0.53,5.71,1.86,6.81,3.9c2.05,3.82-0.53,9.33-4.12,10.96c-7.1,3.24-14.54,5.89-21.25,9.8c-9.01,5.25-18.02,10.78-26,17.43
			c-7.59,6.33-15.88,8.23-25.22,8.9c-10.49,0.75-20.47,4.33-29.74,9c-8.27,4.16-10.74,15.8-6.34,24.06
			c2.08,3.89,5.28,5.29,10.18,4.38c-5.86-6.44-8.53-13.65-3.84-21.24c2.65-4.29,7.75-5.16,12.6-4.83c0,10.42,0.09,20.44-0.12,30.45
			c-0.03,1.18-1.55,2.58-2.7,3.45c-3.81,2.9-8.18,5.19-11.57,8.49c-4.38,4.27-4.27,10.2-0.73,16.62c2.8,5.07,6.26,6.89,11.87,6.04
			c-3.9-6.58-9.23-13.12-4.6-21.04c1.38-2.35,5.45-3.13,9.08-5.04c1.6,10.69,2.94,19.69,4.35,29.13
			c-9.46,3.98-19.03,8.16-15.23,21.45c1.9,6.65,5.75,9.68,12.43,9.75c-3.86-4.94-9.51-9.55-6.44-16.22
			c1.58-3.42,5.89-5.59,8.97-8.32c0.46,0.34,0.92,0.69,1.37,1.03c1.13,8.88,2.91,17.73,3.19,26.64c0.21,6.66-4.68,11.48-9.41,15.77
			c-1.84,1.67-4.09,2.87-6.05,4.41c-4.98,3.92-5.53,8.65-0.13,11.73c7.84,4.48,16.36,7.91,24.86,11.06c4.26,1.58,9.1,1.72,13.7,2.21
			c3.94,0.42,5.28-1.93,3.97-5.3c-1.05-2.72-2.57-5.42-4.49-7.6c-2.73-3.11-6.01-5.75-9.05-8.59c-4.37-4.08-6.82-8.86-5.55-15.89
			c1.95,2.96,3.29,5.51,5.16,7.58c0.94,1.05,2.85,1.23,4.32,1.8c0.36-1.47,1.11-2.98,0.99-4.42c-0.26-3.1-0.98-6.15-0.39-9.69
			c1.32,2.87,2.52,5.8,3.99,8.59c2.15,4.08,4.2,8.25,6.81,12.03c4.98,7.2,5.71,15.09,4.25,23.3c-0.23,1.28-2.52,3.03-3.96,3.13
			c-13.16,0.89-25.79-1.6-37.97-6.61c-6.84-2.81-12.06-7.39-16.36-13.39c-6.43-8.97-23.39-11.71-32.37-5.41
			c-1.06,0.74-1.53,2.31-2.28,3.49c1.31,0.38,2.7,1.24,3.92,1.04c3.82-0.61,7.58-1.63,11.66-2.55c-4.96,6.54-15.7,5.57-18.25,14.35
			c0.33,0.59,0.65,1.17,0.98,1.76c2.75-1.16,5.56-2.2,8.25-3.5c2.54-1.23,4.9-2.82,7.46-4.01c0.47-0.22,1.48,0.74,2.23,1.14
			c-5.12,2.96-10.23,5.92-15.34,8.88c0.19,0.45,0.38,0.91,0.57,1.36c10.66-1.37,21.32-2.74,32.3-4.16c0.09-4.13-2.27-6.34-5.67-7.14
			c-1.88-0.45-4.06,0.37-6.11,0.62c0.57,1.95,1.14,3.89,1.8,6.16c-3.83,0-8.18,0-13,0C237.63,423.82,239.28,422,240.92,420.19z"/>
		<path class="st2" d="M10.57,639.14c12.94,1.21,25.65,2.2,38.28,3.75c2.89,0.35,5.78,2.34,8.23,4.16
			c4.69,3.48,19.83,3.96,24.41,0.41c3.88-3,3.84-7.39-0.84-8.9c-7.68-2.48-15.66-4.66-23.66-5.38c-14.56-1.3-29.23-1.43-43.85-2.06
			c-0.97-0.04-1.93-0.13-2.82-0.2c0-12.19-0.12-24.12,0.06-36.05c0.07-4.63,0.48-9.32,1.33-13.87c1.18-6.26,3.73-8.13,9.95-8.14
			c28.16-0.02,56.31-0.02,84.47,0c6.65,0,9.77,2.43,10.46,9.36c0.87,8.75,1.03,17.58,1.49,26.39c-9.65,0-18.73,0.42-27.74-0.13
			c-7.55-0.46-14.4-2.78-21.45-6.59c-5.54-3-14.06-0.84-21.19-0.27c-1.46,0.12-3.54,3.31-3.69,5.21c-0.11,1.42,2.2,4.03,3.83,4.41
			c9.33,2.2,18.7,4.68,28.19,5.59c13.68,1.31,27.49,1.36,40.69,1.92c0,16.22,0.38,32.17-0.17,48.09
			c-0.26,7.68-3.78,10.11-11.38,10.11c-27.49,0.03-54.98,0.03-82.47,0c-7.11-0.01-9.61-1.96-11.11-8.8
			c-0.57-2.58-0.93-5.25-0.98-7.89C10.47,653.67,10.57,647.06,10.57,639.14z"/>
		<path class="st2" d="M532.78,609.02c-2.07-6.88-7.09-8.84-12.48-9c-15.81-0.47-31.63-0.45-47.45-0.54
			c-11.83-0.07-14.54-2.54-15.11-14.47c-0.18-3.8-0.03-7.61-0.03-11.89c1.73-0.09,3.33-0.25,4.92-0.25
			c29.98-0.01,59.96-0.02,89.95-0.01c7.29,0,9.95,2.08,11.06,9.27c0.71,4.58,1.08,9.26,1.1,13.89c0.06,21.32-0.05,42.64-0.12,63.96
			c0,1.33-0.07,2.67-0.27,3.98c-1.67,11.35-3.6,13-15.16,13c-26.15,0-52.3,0.01-78.45-0.01c-8.54-0.01-11.73-1.79-12.16-10.34
			c-0.79-15.74-0.83-31.57-0.01-47.31c0.45-8.72,3.48-10.3,12.1-10.3C491.17,609.02,511.65,609.02,532.78,609.02z M532.67,630.96
			c-13.88,0-27.17-0.18-40.44,0.15c-2.57,0.06-5.42,1.65-7.56,3.29c-7.02,5.41-5.66,13.03-5.16,20.63c13.38,0,26.34,0.21,39.3-0.08
			c7.38-0.16,13.28-6.41,13.83-13.91C532.86,637.91,532.67,634.76,532.67,630.96z"/>
		<path class="st2" d="M149.47,459.7c8.76,4.89,12.16,14.09,9.11,23.05c-3.31,9.75-11.29,15.75-19.85,14.46
			c0.71-1.69,1.39-3.26,2.03-4.85c2.34-5.8,1.31-7.99-4.88-8.89c-2.5-0.37-5.44-0.04-7.74,0.98c-5.48,2.43-6.08,7.86-1.61,11.64
			c10.59,8.97,22.56,14.69,36.66,14.9c8.33,0.12,11.79-3.72,11.54-12.03c-0.09-2.88-0.01-5.77-0.01-10.07
			c3.72,9.46,5.52,18.38,10.36,25.12c4.84,6.73,12.74,11.26,19.5,16.92c-3.36,2.91-7.18,2.32-10.82,1.41
			c-19.62-4.93-37.81-13.48-55.87-22.34c-10.24-5.02-19.59-11.24-27.49-19.59c-3.44-3.63-4.46-6.85-1.13-11.31
			c5.05-6.77,6.49-15,6.61-23.13c0.05-3.05-2.35-7.01-4.85-9.08c-8.57-7.1-18.58-5.79-28.52-3.48c-1.45,0.34-3.01,0.6-4.26,1.34
			c-2.62,1.56-6.9,3.15-7.19,5.19c-0.56,3.98,7.1,8.48,11.44,7.64c7.17-1.39,15.72,2.87,18.79,9.37c2.48,5.25,0.94,9.98-2.19,15.43
			c-17.99-15.62-38.28-28.51-48.41-52.86c2.96,0.43,4.68,0.56,6.34,0.95c29.35,6.96,58.87,8.32,88.63,2.94
			c6.37-1.15,12.82-1.92,19.16-3.24c4.74-0.99,6.8,0.51,7.91,5.3c4.24,18.24,11.34,35.36,20.69,51.62
			c10.7,18.6,26.85,28.92,47.55,32.97c9.04,1.77,18.04,3.11,27.19,0.98c6.11-1.42,7.19-3.25,6.87-9.45
			c-0.55-10.77-5.23-18.93-15.03-23.48c-10.35-4.81-20.85-9.41-31.57-13.29c-3.05-1.1-8.02-0.54-10.51,1.35
			c-3.44,2.62-2.8,7.44-1.34,11.61c2.86,8.13,8.51,13.37,16.61,15.98c5.51,1.77,10.5,0.39,15.04-3c1.58-1.18,3.14-2.38,5.93-4.5
			c-0.71,2.29-0.77,3.38-1.31,4.11c-6.98,9.45-18.15,12.39-28.83,7.28c-3.4-1.63-6.76-3.79-9.43-6.42
			c-14.71-14.51-26.06-31.12-30.35-51.72c-1.04-5.01-0.95-10.26-1.38-15.4c0.56-0.23,1.13-0.46,1.69-0.69
			c1.64,0.92,3.49,1.59,4.89,2.79c27.29,23.55,59.34,37.55,93.75,46.84c1.6,0.43,3.55,0.43,4.73,1.38c1.29,1.03,2.96,3.31,2.59,4.41
			c-3.6,10.69-0.31,21.13,0.78,31.62c0.65,6.24,0.81,6.58-5.39,6.89c-20.82,1.06-41.55,1.4-61.71-5.57
			c-20.54-7.11-33.07-22.77-43.95-40.27c-2.8-4.5-4.95-9.41-7.51-14.07c-5.89-10.74-21.74-18.48-33.9-16.64
			c-6.75,1.02-11.07,6.74-9.92,13.14c0.9,5.01,8.82,10.62,13.85,8.81c2.34-0.84,3.93-4.34,5.36-6.91
			C149.01,464.22,148.98,462.1,149.47,459.7z"/>
		<path class="st2" d="M147.79,148.89c-7.53-1.74-15.64-4.48-23.95-5.32c-12.82-1.3-23,4.32-29.99,15.12
			c-6.4,9.88-7.25,20.26-1.21,30.65c5.62,9.66,14.08,16.24,24,21.1c3.89,1.91,6.08,0.37,6.92-3.48c0.7-3.24,1.39-6.55,1.47-9.84
			c0.03-1.43-1.12-3.43-2.35-4.25c-9.19-6.14-11.69-12.4-7.4-19.3c4.85-7.79,16.99-10.38,25.47-5.16
			c-2.18,6.64-4.69,13.28-6.53,20.11c-2.49,9.29-4.67,18.68-6.57,28.11c-0.79,3.93-2.32,5.29-6.46,5.63
			c-10.97,0.9-18.95-4.3-24.68-12.45c-12.59-17.95-31.01-24.84-51.25-28.49c-9.43-1.7-18.01,1.85-26.28,6.03
			c-1.88,0.95-3.74,1.94-6.77,3.52c8.93-27.53,21.57-51.71,38.09-74.41c6.38,4.61,11.1,9.67,11.48,17.55
			c0.34,6.94-2.51,11.07-9.29,12.82c-4.16,1.07-8.54,1.23-12.77,2.06c-4.7,0.92-12.1,12.32-10.93,16.89c0.25,0.96,1.62,2,2.68,2.33
			c21.71,6.86,43.21-2.68,52.82-23.34c6.87-14.77,1.98-27.14-13.26-32.96c-4.28-1.63-8.84-2.55-14.55-4.16
			c8.71-9.54,16.98-18.59,25.85-28.3c-0.31,6.69-1.2,12.14-0.7,17.46c3.06,32.27,23.59,39.66,46.64,38.88
			c12.67-0.43,23.46-5.81,32.06-15.2c6.07-6.62,8.28-14.44,7.46-23.45c-2.13-23.45-25.13-38.8-46.87-31.05
			c-11.44,4.08-18.88,18.01-16.74,31.37c2.09,13.02,10.85,20.52,24.58,20.69c3.78,0.05,7.91,0.13,11.25-1.29
			c3.25-1.39,6.47-4.21,8.32-7.25c3.2-5.27,0.83-9.8-5.16-11.37c-2.4-0.63-4.9-0.86-7.35-1.33c-7.51-1.43-9.96-4.38-9.18-11
			c0.72-6.15,5.85-10.1,12.44-9.59c10.44,0.81,17.95,7.73,19.61,18.08c2.81,17.5-4.63,27.49-23.22,31.15
			c-20.73,4.08-38.47-6.4-42.8-25.31c-3.42-14.91,1.47-27.37,12.12-37.54c11.13-10.62,24.53-12.97,38.89-7.87
			c21.23,7.54,32.23,23.55,35.89,45.17c0.25,1.48-0.02,3.46-0.84,4.66C168.47,119.43,158.08,134.2,147.79,148.89z"/>
		<path class="st2" d="M452.81,676.92c-7.63,0-14.77,0.11-21.91-0.04c-4.36-0.1-7.37-2.62-8.12-6.79c-1.01-5.7-1.77-11.52-1.9-17.3
			c-0.28-12.15-0.06-24.32-0.1-36.48c-0.04-10.33-5.4-16.24-15.7-16.68c-8.14-0.35-16.31-0.07-25.13-0.07c0,25.44,0,51.12,0,77.27
			c-8.92,0-17.2,0.31-25.44-0.11c-5.19-0.27-7.24-4.51-7.73-9.04c-0.71-6.6-1.14-13.26-1.18-19.9c-0.14-23.82-0.06-47.64-0.06-71.47
			c0-0.97,0.13-1.93,0.23-3.29c9.03,0,17.83-0.34,26.57,0.22c2.49,0.16,4.81,2.93,7.28,4.55c1.9-3.81,5.78-5.03,10.66-4.98
			c16.82,0.16,33.65,0.05,50.48,0.07c7.46,0.01,9.79,1.67,11.06,9.22c0.9,5.38,1.24,10.91,1.27,16.38
			c0.13,24.99,0.06,49.98,0.04,74.97C453.14,674.41,452.96,675.39,452.81,676.92z"/>
		<path class="st2" d="M245.79,53.89c-23.43,10.92-43.26,25.47-61.34,44.37c-1.83-16.25-6.78-30.01-18.65-40.11
			c-12.09-10.29-26.94-9.79-41.81-9.62c20.34-13.9,42.43-23.6,65.74-30.69c2.52,6.5,1.43,11.73-3.04,15.48
			c-5.95,4.98-12.43,5.81-17.96,3.17c-2.46-1.17-5.87-1.79-8.39-1.06c-4.22,1.21-8.06,3.7-12.85,6.03
			c11.9,4.49,22.92,7.83,34.85,4.87c15.79-3.93,25.23-16.22,24.7-33.62c14.86-2.12,29.88-4.26,45.13-6.43
			c0.61,1.97,1.13,3.17,1.33,4.42c2.33,14.53,9.04,21.83,23.64,21.9c12.34,0.06,24.74-2.24,37.02-4.08
			c2.33-0.35,4.26-3.43,6.37-5.25c-2.14-2.33-3.88-5.57-6.53-6.78c-3.34-1.52-7.44-1.79-11.22-1.79c-1.75,0-3.66,1.73-5.21,3.01
			c-7.69,6.38-16.33,5.47-25.07,3.3c-7.1-1.76-10.78-6.58-11.74-14.3C305,5.45,346.55,14.58,385.6,35.39
			c-5.83-0.52-11.65-1.04-17.48-1.56c-30.45-2.68-60.45-0.47-89.93,7.96c-2.24,0.64-5.22,0.21-7.41-0.74
			c-16.59-7.2-33.66-8.1-50.72-2.94c-13.61,4.12-23.86,12.65-26.73,27.46c-0.78,4.02,0.27,8.39,0.48,12.6c0.65,0.33,1.3,0.66,1.95,1
			c4.89-4.27,9.84-8.46,14.6-12.86c0.85-0.78,1.37-2.46,1.26-3.65c-0.74-7.95,6.49-12.77,13.7-14.8
			C233.02,45.7,239.67,47.29,245.79,53.89z"/>
		<path class="st2" d="M381.81,413.65c-13.39,8.6-27.66,11.31-43.36,7.56c-9.5-2.27-16.61-7.27-21.97-15.15
			c-9.87-14.52-13.1-31.25-16.5-48.2c6.36-2.07,11.27,0.3,15.67,3.65c10.78,8.21,16.91,19.41,20.03,32.41
			c0.49,2.04,0.79,4.12,1.18,6.19c0.53,0.14,1.06,0.29,1.59,0.43c2.4-7.29,5.84-14.42,6.97-21.9c1.83-12.22-8.69-24.11-21.27-25.62
			c-5.94-0.71-11.92-1.15-17.82-2.11c-7.34-1.19-10.39-4.8-10.59-12.2c-0.25-9.49,1.02-18.35,7.93-25.94
			c2.97-3.26,4.55-8.04,5.95-12.39c2.18-6.73-1.51-11.57-6.58-15.34c-1.23-0.91-3.61-1.27-4.97-0.7c-1.04,0.44-1.85,2.76-1.79,4.2
			c0.13,3.3,0.99,6.57,1.33,9.87c0.97,9.61-5.72,15.24-14.99,12.37c-1.56-0.48-3.6-2.82-3.63-4.33c-0.11-7.12-0.05-14.32,0.83-21.37
			c0.74-5.89,3.1-11.32,9.86-13.04c7.92-2.02,15.06-0.82,20.16,5.97c3.38,4.49,6.58,9.29,8.86,14.4
			c8.51,19.1,16.66,38.36,24.85,57.6c3.7,8.67,18.03,17.74,27.11,15.96c3.25-0.64,6.97-3.52,8.65-6.43
			c2.86-4.96,4.28-10.74,6.28-16.19c0.61-1.68,1.13-3.39,1.68-5.09c0.59,0.08,1.18,0.17,1.77,0.25c-0.59,6.2-1.07,12.4-1.79,18.58
			c-1.34,11.59-7.64,18.76-19.18,21.26c-2.74,0.59-5.37,1.72-8.08,2.47c-8.03,2.22-11.2,8.43-12.54,15.79
			c-0.92,5.07,2.87,9.94,8.94,12.32c7.12,2.79,14.38,2.06,21.62,0.62c3.37-0.67,6.69-1.54,11.51-2.66c-3.05,2.7-5,4.42-6.96,6.15
			C382.34,413.24,382.08,413.44,381.81,413.65z M302.75,336.05c0.39,2.79-0.53,6.73,4.57,5.39c7.65-2,15.12-16.95,12.2-24.21
			c-2.28-5.66-6.05-6.27-9.94-1.55C304.71,321.59,303.38,328.7,302.75,336.05z M328.1,350.35c0.01-0.45,0.01-0.89,0.02-1.34
			c-1.81-0.6-3.61-1.21-5.42-1.81c-0.17-0.45-0.34-0.9-0.52-1.36c5.47,1.23,6.83-1.04,5.13-6.39c2.87,3.15,4.86,5.35,6.86,7.54
			c0.48-0.32,0.96-0.64,1.43-0.96c-2.21-4.37-4.27-8.82-6.69-13.07c-1.56-2.75-4.16-2.87-6.31-0.78
			c-3.56,3.47-6.95,7.13-10.17,10.92c-2.19,2.57-0.94,4.31,2.04,4.88C319.01,348.86,323.56,349.58,328.1,350.35z"/>
		<g>
			<path class="st2" d="M254.99,196.26C254.99,196.26,254.98,196.26,254.99,196.26c0,0,0,0.01,0,0.01
				C254.99,196.27,254.99,196.27,254.99,196.26z"/>
			<path class="st2" d="M361.04,214.28c0.32,0.05,0.63,0.1,0.95,0.14c1.01-3.97,2.03-7.94,3.14-12.3c-2.73,0-4.81,0-7.56,0
				C358.82,206.5,359.93,210.39,361.04,214.28z"/>
			<path class="st2" d="M386.87,218.48c2.22-5.14,3.84-8.91,5.75-13.32c-3.18-0.81-5.9-1.5-9.34-2.37
				C384.53,208.25,385.55,212.72,386.87,218.48z"/>
			<path class="st2" d="M373.61,214.85c1.19-4.09,2.38-8.19,3.69-12.68c-2.72,0-4.97,0-7.85,0c1.14,4.68,2.13,8.71,3.11,12.74
				C372.92,214.88,373.27,214.86,373.61,214.85z"/>
			<path class="st2" d="M254.86,196.15c0.04,0.04,0.08,0.07,0.12,0.11c-1.04-2.82-2.33-5.57-3.07-8.47
				c-1.23-4.81-4.3-6.16-8.26-3.21c-0.83,0.62-1.63,1.79-1.75,2.79c-1.15,9.28,10.49,19.32,19.24,17.11
				C259.1,201.79,256.98,198.97,254.86,196.15z"/>
			<path class="st2" d="M328.34,169.15c-0.55,4.74-1.1,9.49-1.66,14.35c12.66-3.49,16.76-8.92,12.77-18.08
				c-0.96,6.91-0.46,14.32-9.93,14.27c0-3.47,0-6.95,0-10.44C329.13,169.22,328.73,169.18,328.34,169.15z"/>
			<path class="st2" d="M326.15,198.75c1.71-0.09,3.42-0.11,5.12-0.29c10.56-1.14,21.11-3.08,31.68-3.25
				c9.56-0.15,19.15,1.65,28.74,2.52c2.65,0.24,6.2,1.55,6.07-3.23c-0.33-12.97-0.57-25.95-1.35-38.89c-0.28-4.58-2-9.07-3.06-13.6
				c-0.56,0.06-1.13,0.11-1.69,0.17c0,1.7-0.01,3.39,0,5.09c0.05,7.96,0.39,15.92,0.06,23.86c-0.21,4.99-2.59,9.16-8.2,9.77
				c-6.45,0.7-12.8,0.5-16.87-6.66c6.56,1.01,13.12,2.02,19.68,3.03c0.19-0.63,0.38-1.27,0.57-1.9c-1.27-0.75-2.45-1.8-3.83-2.18
				c-3.68-1-7.41-1.82-11.16-2.5c-7.03-1.28-10.11-0.01-12.58,6.52c-2.45,6.48-6.86,10.44-13.04,12.78
				c-4.8,1.82-9.67,3.48-14.52,5.18c-1.98,0.69-3.98,1.31-5.97,1.96C325.93,197.67,326.04,198.21,326.15,198.75z"/>
			<path class="st2" d="M296.97,240.88c-0.89-5.25-1.52-8.99-2.23-13.18c-3.12,1.65-5.54,2.93-8.44,4.47
				C289.82,235.04,292.83,237.49,296.97,240.88z"/>
			<path class="st2" d="M319.77,222.69c-1.38-3.43-2.77-6.86-4.29-10.64c-2.41,1.6-4.51,2.98-7.13,4.71
				c3.91,2.43,7.29,4.52,10.67,6.62C319.27,223.16,319.52,222.92,319.77,222.69z"/>
			<path class="st2" d="M310.36,231.52c-1.7-4.98-2.95-8.65-4.42-12.97c-2.8,2.31-5.12,4.23-7.94,6.56
				C302.2,227.29,305.71,229.11,310.36,231.52z"/>
			<path class="st2" d="M253.69,206.07c-7.91-3.07-10.73-9.93-13.96-16.68c-0.88-1.83-3.88-2.65-5.9-3.93
				c-0.72,2.48-2.53,5.24-1.97,7.38C234.25,201.97,243.26,207.47,253.69,206.07z"/>
			<path class="st2" d="M332.39,205.3c2.77,4.01,5.2,7.53,8.05,11.65c0-4.95,0-8.93,0-13.37
				C337.62,204.19,335.31,204.68,332.39,205.3z"/>
			<path class="st2" d="M329.02,218.95c0.31-0.17,0.62-0.34,0.93-0.51c-0.47-3.71-0.94-7.43-1.52-12.01
				c-2.89,1.11-5.21,1.99-8.13,3.11C323.55,213.05,326.29,216,329.02,218.95z"/>
			<path class="st2" d="M351.09,215.51c0.53-4.3,1.05-8.59,1.65-13.43c-3.33,0.41-6.05,0.75-9.55,1.18
				c2.56,4.61,4.74,8.53,6.92,12.46C350.43,215.65,350.76,215.58,351.09,215.51z"/>
			<path class="st2" d="M185.08,513.99c-4.85-6.73-6.64-15.66-10.36-25.12c0,4.3-0.07,7.19,0.01,10.07
				c0.25,8.31-3.21,12.15-11.54,12.03c-14.1-0.21-26.07-5.92-36.66-14.9c-4.46-3.78-3.87-9.21,1.61-11.64
				c2.3-1.02,5.24-1.34,7.74-0.98c6.19,0.9,7.22,3.1,4.88,8.89c-0.64,1.59-1.32,3.16-2.03,4.85c8.55,1.29,16.54-4.71,19.85-14.46
				c3.04-8.96-0.35-18.17-9.11-23.05c-0.49,2.4-0.45,4.52-1.35,6.13c-1.43,2.57-3.02,6.07-5.36,6.91
				c-5.03,1.81-12.95-3.8-13.85-8.81c-1.15-6.4,3.17-12.12,9.92-13.14c12.16-1.84,28.01,5.9,33.9,16.64
				c2.56,4.66,4.71,9.56,7.51,14.07c10.88,17.49,23.41,33.16,43.95,40.27c20.16,6.97,40.89,6.63,61.71,5.57
				c6.2-0.31,6.04-0.65,5.39-6.89c-1.09-10.48-4.38-20.93-0.78-31.62c0.37-1.1-1.3-3.38-2.59-4.41c-1.18-0.95-3.12-0.95-4.73-1.38
				c-34.41-9.28-66.45-23.29-93.75-46.84c-1.39-1.2-3.25-1.87-4.89-2.79c-0.56,0.23-1.13,0.46-1.69,0.69
				c0.43,5.14,0.33,10.39,1.38,15.4c4.29,20.59,15.64,37.21,30.35,51.72c2.67,2.63,6.03,4.79,9.43,6.42
				c10.67,5.11,21.84,2.17,28.83-7.28c0.54-0.73,0.6-1.81,1.31-4.11c-2.79,2.12-4.35,3.32-5.93,4.5c-4.53,3.39-9.53,4.78-15.04,3
				c-8.1-2.61-13.75-7.84-16.61-15.98c-1.47-4.17-2.1-8.99,1.34-11.61c2.49-1.9,7.46-2.45,10.51-1.35
				c10.73,3.88,21.22,8.48,31.57,13.29c9.8,4.55,14.47,12.71,15.03,23.48c0.32,6.2-0.77,8.03-6.87,9.45
				c-9.15,2.13-18.15,0.79-27.19-0.98c-20.7-4.05-36.85-14.38-47.55-32.97c-9.35-16.26-16.45-33.38-20.69-51.62
				c-1.11-4.78-3.17-6.28-7.91-5.3c-6.34,1.32-12.79,2.09-19.16,3.24c-29.76,5.38-59.28,4.02-88.63-2.94
				c-1.66-0.39-3.39-0.52-6.34-0.95c10.13,24.34,30.42,37.24,48.41,52.86c3.13-5.45,4.66-10.18,2.19-15.43
				c-3.07-6.5-11.62-10.76-18.79-9.37c-4.34,0.84-11.99-3.66-11.44-7.64c0.29-2.04,4.57-3.63,7.19-5.19
				c1.25-0.74,2.81-1.01,4.26-1.34c9.94-2.31,19.95-3.62,28.52,3.48c2.5,2.07,4.9,6.03,4.85,9.08c-0.13,8.13-1.56,16.36-6.61,23.13
				c-3.32,4.45-2.3,7.68,1.13,11.31c7.9,8.34,17.25,14.56,27.49,19.59c18.06,8.86,36.25,17.41,55.87,22.34
				c3.64,0.91,7.46,1.5,10.82-1.41C197.82,525.25,189.92,520.72,185.08,513.99z"/>
			<path class="st2" d="M134.88,419.81c-33.17,3.52-65.79,0.21-98.2-7.77c1.42,5.25,4.92,9.23,10.09,11.04
				c5.27,1.85,10.89,3.58,16.4,3.74c32.43,0.95,64.88,1.51,97.32,2c6.32,0.09,12.66-0.72,19.59-1.15
				c-4.85-5.54-9.51-10.14-13.25-15.39c-2.89-4.07-6.34-4.95-10.94-5.35c-19.85-1.76-39.68-3.83-59.49-6.06
				c-3.36-0.38-6.56-2.09-11.15-3.63c2.78-1.37,3.89-2.25,5.14-2.49c13.34-2.63,26.68-5.25,40.06-7.6c1.74-0.31,3.89,0.65,5.57,1.56
				c0.96,0.52,1.92,2.17,1.8,3.19c-0.1,0.87-1.66,2.08-2.71,2.23c-2.76,0.4-5.6,0.56-8.38,0.34c-4.1-0.33-8.17-1.08-12.25-1.65
				c-0.12,0.39-0.23,0.79-0.35,1.18c0.59,0.5,1.1,1.21,1.78,1.47c11.77,4.45,23.98,6.72,36.53,6.85c4.6,0.05,5.47-2.19,2.86-6.14
				c-4.02-6.07-7.95-12.22-12.33-18.02c-0.95-1.26-3.74-1.91-5.52-1.65c-26.15,3.74-52.28,7.62-78.4,11.59
				c-10.73,1.63-21.43,3.52-32.27,5.32c4.42,11.41,5.59,12.24,16.87,12.6c2.33,0.07,4.66,0.16,6.97,0.4
				c28.29,2.83,56.58,5.67,84.86,8.6c1.52,0.16,2.96,1.15,4.44,1.75c-0.04,0.47-0.09,0.95-0.13,1.42
				C138.16,418.71,136.56,419.63,134.88,419.81z"/>
			<path class="st2" d="M92.11,373.84c-0.25-4.24-0.47-7.81-0.75-12.4c-1.91,1.65-3.12,2.74-4.36,3.77
				c-11.12,9.28-26.4,6.86-32.34-5.12c-2.4-4.84-0.93-10.66,3.76-14.16c3.37-2.51,6.83-3.12,10.56,0.48
				c-1.08,0.39-1.81,0.59-2.49,0.91c-4.57,2.12-5.98,5.57-4.18,10.19c1.87,4.81,6.21,6.97,10.81,5.38
				c5.63-1.94,9.61-9.06,8.32-14.86c-2.66-11.96-21.42-22.85-33.84-19.35c0.97,17.48-1.8,34.53-8.42,52.11
				C57.37,378.4,74.68,376.13,92.11,373.84z"/>
			<path class="st2" d="M369.16,87.25c-7.72-7.2-9.68-7.11-14.89,1.81c-1.59,2.71-3.17,2.99-6.01,2.6
				c-5.25-0.71-10.61-1.18-15.9-1.04c-22.16,0.59-43.38,5.89-64.04,13.59c-14.85,5.54-28.93,12.61-41.87,21.84
				c-2.97,2.11-5.26,4.53-3.24,8.27c2.12,3.92,4.12,8.29,7.37,11.05c1.7,1.44,5.97-0.2,9.09-0.38c1.83-0.11,3.66-0.11,5.49-0.1
				c3.65,0.03,6.8-0.92,7.46-5.01c0.67-4.19,0.05-8.35-4.47-10.01c-2.17-0.8-6.71-0.77-7.06,0.11c-1.55,3.91,2.8,2.14,4.13,3.44
				c1.2,1.16,1.71,3.04,2.52,4.6c-1.53,0.38-3.31,1.47-4.54,1.03c-6.24-2.23-7.96-8.45-3.17-12.94c4.79-4.49,10.02-8.88,15.8-11.86
				c15.43-7.95,31.85-13.3,49.05-16c12-1.88,24-4.01,36.1-0.53c6.44,1.85,6.61,2.13,3.56,8.46c4.86,0.27,8.44-1.32,10.78-4.77
				c2.1-3.1,4.03-3.02,6.47-0.83c1.61,1.44,3.41,2.79,4.63,4.52c6.3,8.93,12.6,17.86,18.54,27.03c2.44,3.77,4.92,7.34,9.75,5.74
				c5.93-1.96,11.56-4.85,17.31-7.34c2.71-1.18,5.33-3.07,8.15-3.41c9.18-1.12,17.48-4.01,24.36-10.31
				c4.29-3.93,8.26-8.23,12.62-12.07c15.77-13.86,24.01-31.47,26.22-52.1c0.25-2.34-0.4-4.78-0.63-7.17
				c-2.54,0.36-5.45,0.07-7.55,1.23c-3.88,2.14-7.29,5.15-10.91,7.78c-13.85,10.07-28.14,19.6-39.47,32.72
				c-1.09,1.27-2.85,1.96-5.22,3.54c1.42-2.8,2.29-4.51,3.16-6.23c-2.29-0.15-3.68,0.58-5.05,1.31
				c-7.48,3.96-14.89,8.07-22.48,11.83c-5.5,2.72-11.05,2.28-15.96-1.53C375.74,93.36,372.44,90.31,369.16,87.25z M462.13,62.14
				c5.07-3.77,10.23-7.41,15.36-11.09c0.7,0.48,1.39,0.95,2.09,1.43c-1.45,5.81-2.54,11.74-4.49,17.38
				c-1.27,3.68-4.43,3.13-8.21,1.05c2.28-1.91,4.16-3.47,5.84-4.87c-1.95-1.17-3.98-2.39-6.08-3.64c-0.31,0.85-0.71,2.67-1.63,4.18
				c-0.55,0.9-1.9,1.3-2.89,1.92c-0.47-1.26-1.21-2.49-1.31-3.77C460.74,63.87,461.41,62.68,462.13,62.14z M435.85,81.44
				c1.63-2.05,3.81-3.71,5.91-5.32c5.65-4.31,10.41-3.97,15.51,0.94c5.6,5.4,6.33,10.42,2,16.14c-2.6,3.43-5.43,6.75-8.52,9.73
				c-1.88,1.82-4.46,2.91-7.24,3.72c5.82-4.86,9.38-10.82,11.54-17.65c-0.42-0.27-0.83-0.55-1.25-0.82
				c-1.07,1.81-1.95,3.77-3.26,5.39c-1.84,2.27-3.77,4.62-6.14,6.23c-1.01,0.68-3.6,0.02-4.77-0.91c-0.63-0.5-0.3-3.29,0.51-4.32
				c2.47-3.11,5.42-5.84,8.14-8.76c1.09-1.17,2.08-2.42,3.11-3.64c-0.34-0.38-0.68-0.76-1.02-1.13c-1.68,1.23-3.32,2.55-5.07,3.68
				c-1.8,1.16-3.62,2.67-5.61,3.05c-1.89,0.36-4.02-0.54-6.04-0.88C434.36,85.05,434.68,82.91,435.85,81.44z M417.96,98.07
				c0.96-0.31,3.38,0.98,3.64,1.94c1.85,6.77,5.02,12.59,10.95,16.55c-4.22,5.55-16.15,8.79-23.38,6.14
				c3.87-2.22,7.31-4.19,10.74-6.16c-0.15-0.57-0.3-1.14-0.45-1.7c-5.09,0.66-10.17,1.32-15.26,1.98c-0.14-0.31-0.27-0.63-0.41-0.94
				c3.58-2.73,7.16-5.47,10.74-8.2c-0.37-0.58-0.75-1.16-1.12-1.74c-3.28,1.49-6.55,2.99-9.83,4.48c-0.25-0.36-0.5-0.71-0.76-1.07
				C406.97,104.5,411.59,100.11,417.96,98.07z M402.85,100.96c-1.48,4.02-5.11,9.2-4.63,13.95c0.48,4.7,5.13,8.98,7.75,13.13
				c-1.46-0.87-3.81-2.13-6-3.65c-0.91-0.63-1.47-1.78-2.13-2.74C390.16,110.63,391.54,106.02,402.85,100.96z"/>
			<path class="st2" d="M451.83,582.09c-1.27-7.55-3.6-9.21-11.06-9.22c-16.83-0.01-33.65,0.09-50.48-0.07
				c-4.88-0.05-8.76,1.17-10.66,4.98c-2.47-1.62-4.79-4.39-7.28-4.55c-8.74-0.56-17.54-0.22-26.57-0.22
				c-0.1,1.35-0.23,2.32-0.23,3.29c-0.01,23.82-0.08,47.65,0.06,71.47c0.04,6.64,0.47,13.3,1.18,19.9c0.48,4.53,2.54,8.78,7.73,9.04
				c8.24,0.42,16.52,0.11,25.44,0.11c0-26.15,0-51.83,0-77.27c8.82,0,16.99-0.28,25.13,0.07c10.31,0.44,15.67,6.35,15.7,16.68
				c0.04,12.16-0.18,24.33,0.1,36.48c0.13,5.78,0.89,11.6,1.9,17.3c0.74,4.18,3.75,6.7,8.12,6.79c7.14,0.16,14.28,0.04,21.91,0.04
				c0.15-1.53,0.33-2.51,0.33-3.49c0.02-24.99,0.08-49.98-0.04-74.97C453.07,593,452.73,587.47,451.83,582.09z"/>
			<path class="st2" d="M312.73,538.74c14.28-2.57,28.29-6.69,42.42-10.11c-0.13-0.75-0.25-1.49-0.38-2.24
				c-52.16,10.1-103.9,13.15-154.38-9.01c6.49,4.71,9.72,10.85,12.08,17.76c0.45,1.33,2.87,2.49,4.55,2.82
				C248.86,544.26,280.84,544.47,312.73,538.74z"/>
			<path class="st2" d="M287.37,143.91c-3.73,7.57-7.04,14.29-10.01,20.31c15.02-1.82,31.36-3.79,47.69-5.77
				c0.06-0.47,0.11-0.94,0.17-1.41C311.95,154.64,297.41,155.91,287.37,143.91z"/>
			<path class="st2" d="M278.76,136.41c2.61-3.26,4.3-6.69,5.98-10.12c1.95-3.99,3.41-8.34,6.02-11.84c1.35-1.81,4.74-2.1,7.2-3.08
				c-0.18,2.64,0.55,5.91-0.74,7.78c-2.98,4.32-6.83,8.06-10.54,11.82c-2.02,2.05-3.01,4.22,0.02,5.47
				c7.56,3.12,15.34,5.71,23.09,8.53c0.36-1.28,0.48-1.47,0.43-1.59c-0.42-1.07-0.83-2.15-1.33-3.18c-4-8.2-3.6-15.99,1.95-23.41
				c1.69-2.26,3.34-4.59,4.64-7.08c0.93-1.8,2.25-4.46,1.56-5.76c-0.69-1.29-3.74-2.02-5.64-1.83c-8.57,0.86-17.18,1.74-25.61,3.4
				c-5.57,1.1-10.9,3.5-14.69,8.32C281,119.04,277.75,128.19,278.76,136.41z"/>
			<path class="st2" d="M298.58,173.16c-0.51-0.01-1.01-0.02-1.52-0.04c-0.41,2.19-0.82,4.37-1.33,7.11
				c-3.98-0.46-7.79-0.91-11.49-1.34c0.43-3.66,0.78-6.66,1.13-9.65c-0.48-0.06-0.97-0.12-1.45-0.18
				c-0.78,3.77-1.56,7.54-2.43,11.74c5.6,0.51,10.77,0.98,16.35,1.49C298.11,178.79,298.34,175.97,298.58,173.16z"/>
			<path class="st2" d="M275.67,140.88c-0.34-3.92-0.69-8.39-1.13-12.84c-0.13-1.31-0.23-2.75-0.83-3.87
				c-0.77-1.46-1.79-3.47-3.11-3.86c-6.82-2-12.45,2.71-11.69,9.84c0.49,4.58,1.48,9.17,2.78,13.59c1.95,6.63,4.71,9.06,8.84,8.14
				C276.45,150.57,275.27,145.59,275.67,140.88z"/>
			<path class="st2" d="M230.35,147.18c-0.4-0.28-0.8-0.57-1.2-0.85c-1.14,1.58-3.18,3.14-3.22,4.75
				c-0.08,3.39,0.92,6.81,1.42,10.22c0.58,4.01,1.32,8.02,1.57,12.06c0.27,4.43,0.06,8.89,0.06,13.33c0.44,0.14,0.87,0.29,1.31,0.43
				c1.93-4.42,4.86-5.3,8.97-3.48c1.15,0.51,2.88-0.08,4.29-0.4c2.66-0.59,5.28-1.35,8.22-2.12c0.66-1.82,1.4-4.18,2.35-6.45
				c0.96-2.29,2.3-4.43,3.18-6.75c2.18-5.72,0.24-8.74-5.86-8.83c-3.97-0.06-7.96,0.35-11.93,0.69c-8.57,0.74-11.05-2.01-9.18-10.27
				C230.5,148.77,230.35,147.96,230.35,147.18z"/>
			<path class="st2" d="M307.86,170.76c-0.8,4.32-1.6,8.63-2.51,13.53c5.31,0,9.6,0,14.42,0c0.42-4.06,0.82-7.97,1.22-11.87
				c-0.55-0.38-1.11-0.75-1.66-1.13c-0.13,8.11-1.65,14.43-11.34,10.38c0.5-3.53,1-7.1,1.5-10.67
				C308.94,170.93,308.4,170.84,307.86,170.76z"/>
			<path class="st2" d="M271.1,171.19c-0.88,2.33-1.48,3.91-2.12,5.6c-1.94,0.28-3.89,0.57-6.38,0.93c0.33-3.74,0.61-6.86,0.89-9.97
				c-0.45-0.03-0.9-0.06-1.36-0.09c-0.43,1.9-0.94,3.79-1.28,5.71c-0.37,2.05-0.57,4.12-0.86,6.21
				C271.74,179.24,272.44,179.23,271.1,171.19z"/>
			<path class="st2" d="M329.92,572.88c-13.98-0.04-27.97-0.01-41.95-0.01c-13.48,0-26.97,0-40.45,0c-9.39,0-12.43,2.26-12.83,11.75
				c-0.7,16.45-0.87,32.92-0.91,49.39c-0.03,10.63,0.28,21.29,0.99,31.9c0.56,8.43,3.85,11.07,12.2,11.07
				c26.47,0.02,52.94,0.01,79.41,0.01c10.58,0,13.98-2.77,14.25-13.25c0.55-21.62,0.79-43.25,0.84-64.88
				c0.01-6.11-0.66-12.3-1.77-18.31C338.56,574.49,336.06,572.89,329.92,572.88z M314.45,649.97c-13.68,0-26.67,0.24-39.65-0.09
				c-7.45-0.19-13.76-6.39-13.99-13.8c-0.36-11.97-0.1-23.97-0.1-36.6c8.21,0,16.17-0.04,24.12,0.01c5.16,0.03,10.34-0.1,15.47,0.37
				c8.03,0.74,13.63,5.75,14,13.66C314.86,625.45,314.45,637.43,314.45,649.97z"/>
			<path class="st2" d="M45.25,181.33c20.24,3.65,38.66,10.54,51.25,28.49c5.72,8.15,13.71,13.35,24.68,12.45
				c4.14-0.34,5.66-1.7,6.46-5.63c1.9-9.43,4.08-18.82,6.57-28.11c1.83-6.83,4.35-13.48,6.53-20.11
				c-8.47-5.22-20.62-2.63-25.47,5.16c-4.29,6.9-1.79,13.16,7.4,19.3c1.23,0.82,2.39,2.82,2.35,4.25c-0.08,3.29-0.77,6.6-1.47,9.84
				c-0.84,3.85-3.03,5.38-6.92,3.48c-9.92-4.86-18.38-11.44-24-21.1c-6.04-10.38-5.19-20.76,1.21-30.65
				c7-10.8,17.18-16.42,29.99-15.12c8.31,0.84,16.42,3.59,23.95,5.32c10.29-14.69,20.69-29.47,30.94-44.34
				c0.82-1.2,1.09-3.17,0.84-4.66c-3.66-21.62-14.65-37.63-35.89-45.17c-14.36-5.1-27.76-2.75-38.89,7.87
				c-10.66,10.17-15.54,22.62-12.12,37.54c4.33,18.9,22.07,29.39,42.8,25.31c18.58-3.66,26.03-13.64,23.22-31.15
				c-1.66-10.35-9.17-17.28-19.61-18.08c-6.59-0.51-11.72,3.45-12.44,9.59c-0.78,6.62,1.67,9.57,9.18,11
				c2.45,0.47,4.95,0.7,7.35,1.33c5.99,1.57,8.36,6.1,5.16,11.37c-1.84,3.04-5.06,5.86-8.32,7.25c-3.33,1.42-7.47,1.34-11.25,1.29
				c-13.73-0.17-22.49-7.67-24.58-20.69c-2.14-13.36,5.3-27.29,16.74-31.37c21.74-7.75,44.74,7.61,46.87,31.05
				c0.82,9.01-1.39,16.82-7.46,23.45c-8.6,9.39-19.39,14.77-32.06,15.2c-23.05,0.78-43.58-6.61-46.64-38.88
				c-0.51-5.32,0.39-10.77,0.7-17.46c-8.87,9.71-17.14,18.76-25.85,28.3c5.72,1.61,10.27,2.53,14.55,4.16
				c15.24,5.82,20.13,18.18,13.26,32.96c-9.6,20.66-31.11,30.2-52.82,23.34c-1.06-0.34-2.43-1.37-2.68-2.33
				c-1.17-4.57,6.23-15.97,10.93-16.89c4.23-0.83,8.62-0.99,12.77-2.06c6.78-1.74,9.63-5.87,9.29-12.82
				c-0.38-7.87-5.1-12.94-11.48-17.55c-16.52,22.7-29.16,46.87-38.09,74.41c3.03-1.57,4.89-2.57,6.77-3.52
				C27.24,183.18,35.82,179.63,45.25,181.33z"/>
			<path class="st2" d="M398.36,207.8c0.63,4.51,1.11,8,1.77,12.73c2.26-3.07,3.86-5.26,5.76-7.84
				C403.3,211.01,401.26,209.69,398.36,207.8z"/>
			<path class="st2" d="M165.81,58.14c11.86,10.1,16.82,23.86,18.65,40.11c18.08-18.9,37.9-33.45,61.34-44.37
				c-6.13-6.6-12.77-8.19-20.48-6.02c-7.21,2.03-14.44,6.85-13.7,14.8c0.11,1.19-0.41,2.87-1.26,3.65c-4.76,4.4-9.71,8.6-14.6,12.86
				c-0.65-0.33-1.3-0.66-1.95-1c-0.21-4.21-1.26-8.58-0.48-12.6c2.86-14.82,13.12-23.35,26.73-27.46
				c17.06-5.16,34.13-4.27,50.72,2.94c2.19,0.95,5.17,1.38,7.41,0.74c29.48-8.43,59.48-10.64,89.93-7.96
				c5.83,0.51,11.65,1.04,17.48,1.56C346.55,14.58,305,5.45,260.77,6.71c0.96,7.72,4.64,12.54,11.74,14.3
				c8.74,2.17,17.37,3.08,25.07-3.3c1.55-1.29,3.47-3.01,5.21-3.01c3.77,0,7.87,0.27,11.22,1.79c2.66,1.21,4.39,4.44,6.53,6.78
				c-2.11,1.82-4.04,4.9-6.37,5.25c-12.28,1.84-24.68,4.14-37.02,4.08c-14.6-0.07-21.32-7.37-23.64-21.9
				c-0.2-1.25-0.73-2.45-1.33-4.42c-15.25,2.17-30.27,4.31-45.13,6.43c0.53,17.39-8.91,29.69-24.7,33.62
				c-11.92,2.96-22.95-0.38-34.85-4.87c4.78-2.33,8.63-4.82,12.85-6.03c2.52-0.72,5.93-0.11,8.39,1.06
				c5.54,2.64,12.02,1.81,17.96-3.17c4.48-3.75,5.56-8.98,3.04-15.48c-23.32,7.09-45.4,16.8-65.74,30.69
				C138.87,48.35,153.73,47.86,165.81,58.14z"/>
			<path class="st2" d="M424.22,265.93c-1.54-11.16-4.7-22.13-12.08-31.26c-11.57-14.33-34.15-13.79-44.97,1.02
				c-5.58,7.64-7.57,16.52-9.11,25.58c-2.93,17.32,1.14,33,11.29,47.15c2.37,3.31,5.11,6.48,9.56,6.9c0.42-0.62,0.66-0.87,0.76-1.17
				c0.28-0.78,0.57-1.57,0.73-2.39c2.98-14.36,9.24-25.99,24.76-30c0.47-0.12,0.88-0.46,1.33-0.68c5.34-2.75,7.27-7.08,5.68-12.82
				c-3.18-11.54-17.9-15.85-28.1-8.24c-5.92,4.42-8.97,10.89-6.94,16.34c0.7,1.88,3.21,4.27,4.94,4.32c3.24,0.08,4.01-2.9,3.63-5.86
				c-0.13-0.98-0.39-1.95-0.65-2.91c-1.37-5.01,1.91-7.44,5.5-9.4c3.58-1.96,7.16-1.67,9.8,1.8c2.69,3.54,2.41,7.31-0.48,10.49
				c-1.98,2.18-4.47,3.97-6.96,5.6c-8.01,5.24-17.25,9.12-20.31,20.1c-1.1-1.47-1.82-2.16-2.22-3.01
				c-8.49-17.85-7.99-35.44,2.5-52.23c1.99-3.19,6.07-6.06,9.74-7.06c18.48-5.04,37.88,11.81,36.43,30.93
				c-0.63,8.39-5.34,13.63-12.01,17.8c-6.05,3.77-12.14,7.49-17.92,11.65c-1.97,1.42-3.05,4.1-4.53,6.2
				c0.39,0.5,0.77,1.01,1.16,1.51c9.91-4.35,19.37-10.84,31.99-7.87c-2.18,2.49-3.96,4.04-5.13,5.95c-2.82,4.62-6.7,9.16-7.68,14.21
				c-1.47,7.57-1.5,15.61-0.88,23.34c0.47,5.81,2.14,11.86,4.71,17.09c3.3,6.72,11,7.16,15.09,1.52c5.86-8.09,4.97-27.29-6.27-33.22
				c0.29,1.92,0.69,3.46,0.73,5.01c0.17,6.11,0.4,12.22,0.18,18.32c-0.04,1.15-1.88,2.82-3.16,3.14c-0.88,0.22-2.47-1.31-3.31-2.39
				c-0.77-0.99-1.16-2.39-1.41-3.67c-2.24-11.54-0.8-22.52,5.56-32.55c1.14-1.8,3.23-3.01,4.88-4.5c1.43,1.73,3.3,3.26,4.21,5.24
				c1.69,3.65,2.83,7.56,4.2,11.36c0.93-0.83,1.14-1.58,1.07-2.31C428.51,305.25,426.92,285.51,424.22,265.93z"/>
			<path class="st2" d="M90.91,359.43c6.48-7.88,11.97-14.54,17.78-21.6c-15.95-6.71-31.61-14.65-49.72-15.51
				C78.46,326.82,91.34,336.85,90.91,359.43z"/>
			<path class="st2" d="M284.76,232.63c-3.06,0.47-5.43,0.83-8.3,1.27c2.35,4.05,4.38,7.54,7.06,12.14
				C284,240.86,284.35,237.02,284.76,232.63z"/>
			<path class="st2" d="M54.76,308.16c-7.38-7.05-14.76-14.1-21.58-20.61c-9.58,6.29-19.92,13.09-30.27,19.89
				C20.26,302.74,37.41,303.9,54.76,308.16z"/>
			<path class="st2" d="M61.5,308.07c0,0.41-0.01,0.82-0.01,1.23c18.03,6.42,36.06,12.84,54.07,19.25
				c-5.29-9.35-13.4-19.19-3.61-31.84C96.2,307.39,78.56,306.45,61.5,308.07z"/>
			<path class="st2" d="M47.69,601.63c7.14-0.57,15.65-2.72,21.19,0.27c7.05,3.81,13.9,6.13,21.45,6.59
				c9.02,0.55,18.1,0.13,27.74,0.13c-0.47-8.81-0.62-17.63-1.49-26.39c-0.69-6.92-3.81-9.35-10.46-9.36
				c-28.16-0.02-56.31-0.02-84.47,0c-6.22,0.01-8.77,1.88-9.95,8.14c-0.86,4.55-1.26,9.23-1.33,13.87
				c-0.18,11.93-0.06,23.86-0.06,36.05c0.9,0.06,1.86,0.16,2.82,0.2c14.62,0.63,29.29,0.76,43.85,2.06c8,0.71,15.98,2.9,23.66,5.38
				c4.67,1.51,4.72,5.89,0.84,8.9c-4.58,3.55-19.73,3.07-24.41-0.41c-2.45-1.82-5.35-3.8-8.23-4.16
				c-12.63-1.55-25.34-2.53-38.28-3.75c0,7.92-0.09,14.53,0.05,21.14c0.05,2.64,0.42,5.31,0.98,7.89c1.5,6.83,3.99,8.79,11.11,8.8
				c27.49,0.03,54.98,0.03,82.47,0c7.6-0.01,11.12-2.43,11.38-10.11c0.55-15.92,0.17-31.87,0.17-48.09
				c-13.2-0.56-27.01-0.61-40.69-1.92c-9.5-0.91-18.87-3.38-28.19-5.59c-1.63-0.39-3.94-3-3.83-4.41
				C44.15,604.94,46.23,601.75,47.69,601.63z"/>
			<path class="st2" d="M25.59,348.36c-0.62-6.09-2.57-7.76-8.7-8.65c-1.62-0.24-3.95-1.96-4.3-3.41
				c-1.38-5.57,2.26-11.3,7.57-12.88c5.94-1.77,12.16,0.6,14.13,6.14c1.25,3.49,1.87,7.5,1.61,11.19
				c-0.98,13.65-5.33,25.67-18.5,32.7c2.56,5.8,4.96,11.23,7.74,17.51c15.2-19.53,21.26-40.61,19.32-63.89
				c-0.65-7.77-5-13.79-12.66-16.51c-9.31-3.32-17.99-1.18-26.16,3.84c-2.98,1.83-3.53,4.55-2.81,7.77
				c1.41,6.32,2.5,12.73,4.2,18.97c2.29,8.43,5.02,16.73,7.59,25.19C22.39,362.71,26.35,355.89,25.59,348.36z"/>
			<path class="st2" d="M322.47,497.03c5.34,9.32,10.34,18.06,15.6,27.25c5.17-8.72,10.07-16.96,15.41-25.96
				c4.61,8.88,8.77,16.87,13.27,25.54c4.57-8.26,8.69-15.7,13.02-23.51c3.81,4.41,7.06,8.17,10.74,12.43
				c2.62-5.74,5.02-11.02,7.59-16.67c2.65,3.01,4.83,5.49,7.44,8.46c9.63-6.73,19.03-13.3,28.42-19.87
				c-0.21-0.46-0.41-0.92-0.62-1.38c-44.69,8.85-89.53,11.37-135.42,3.05c2.44,12.19,4.7,23.52,7.17,35.85
				C311.24,513.3,316.67,505.44,322.47,497.03z"/>
			<path class="st2" d="M229.42,247.63c1.74-5.41,2.99-9.33,4.32-13.47c-3.19,0-5.74,0-8.73,0
				C226.41,238.44,227.68,242.31,229.42,247.63z"/>
			<path class="st2" d="M189.25,229.96c5.54-2.16,9.57-3.74,14.11-5.51c-2.4-2.93-4.3-5.24-6.56-8
				C194.27,220.99,192.11,224.84,189.25,229.96z"/>
			<path class="st2" d="M210.85,232.37c-2.08-1.93-3.84-3.57-5.98-5.56c-1.26,5.1-2.36,9.56-3.46,14.01
				c0.35,0.18,0.7,0.35,1.05,0.53C205.22,238.41,207.97,235.46,210.85,232.37z"/>
			<path class="st2" d="M222.07,233.64c-3.09-0.2-5.59-0.36-8.53-0.55c1.09,4.91,2.04,9.17,3.3,14.84
				C218.84,242.44,220.34,238.36,222.07,233.64z"/>
			<path class="st2" d="M236.81,234.04c2.24,4.66,4.14,8.61,6.56,13.62c0.97-5.23,1.71-9.28,2.52-13.62
				C242.68,234.04,240.24,234.04,236.81,234.04z"/>
			<path class="st2" d="M269.15,246.54c0.48-4.08,0.96-8.16,1.46-12.38c-2.94,0-5.22,0-8.28,0c2.14,4.7,3.95,8.67,5.76,12.64
				C268.44,246.71,268.79,246.62,269.15,246.54z"/>
			<path class="st2" d="M255.37,247.31c1.26-4.29,2.52-8.58,3.83-13.04c-3.32,0-5.84,0-8.73,0c1.38,4.67,2.62,8.86,3.86,13.06
				C254.67,247.32,255.02,247.31,255.37,247.31z"/>
			<path class="st2" d="M396.89,380.1c-10.71,0.99-21.44,1.86-32.13,3.08c-2.18,0.25-4.48,1.5-6.27,2.88
				c-4.24,3.27-5.29,7.95-4.39,12.99c0.71,3.98,2.62,7.06,7.07,8.02c15.82,3.41,34.97-5.47,42.21-19.8c0.69-1.36,0.65-3.09,1.03-5.1
				c-1.28,0.37-1.7,0.37-1.85,0.56c-1.43,1.82-2.86,3.64-4.19,5.54c-7.98,11.35-19.14,15.5-32.55,14.06
				c-5.81-0.62-7.65-3.44-6.96-9.25c0.65-5.53,3-7.27,9.24-6.86c-3.6,5.63-3.13,9.73,1.41,12.3c3.91,2.21,12.04,1.93,15.14-1.2
				c1.48-1.5,2.58-4.44,2.19-6.39c-0.3-1.47-3.25-2.41-4.66-3.34c-0.64,2.6-0.54,4.73-1.41,5.25c-2.86,1.69-6.05,2.71-9.49-0.6
				c7.68-6.44,17.3-7.39,25.89-10.7C397.08,381.05,396.98,380.58,396.89,380.1z"/>
			<path class="st2" d="M235.42,371.62c0.24-0.63-1.98-2.21-3.07-3.36c-0.66,0.02-1.31,0.04-1.97,0.06
				c-0.86,2.12-2.35,4.23-2.36,6.35c-0.01,1.53,1.97,3.06,3.07,4.59C232.6,376.75,234.37,374.32,235.42,371.62z"/>
			<path class="st2" d="M344.28,284.87c2.46,6.45,9.04,11.34,13.81,16.91c0.44-0.34,0.87-0.68,1.31-1.02
				c-1.86-5.76-4.64-11.41-5.34-17.31c-1.01-8.51-0.75-17.2-0.55-25.81c0.12-5.22-0.74-7.1-4.47-5.49
				c-9.56,4.11-19.39,7.99-28.1,13.55c-8.98,5.73-8.57,8.56-2.6,17.46c11.45,17.07,27.16,29.55,43.66,41.25
				c3.1,2.2,6.16,4.62,8.68,7.43c2.91,3.25,1.9,8.11-1.83,12.05c-3.06,3.23-6.55,3.39-9.78,0.71c-4.07-3.39-8.38-6.77-11.47-10.98
				c-4.47-6.09-7.94-12.91-11.75-19.26c2.44,11.11,4.6,22.65,10.45,33c4.91,8.69,12.21,14.35,22.15,16.33
				c3.36,0.67,5.88-0.19,7.28-3.56c4.82-11.66,9.72-23.28,14.44-34.97c0.68-1.69,0.5-3.73,0.77-6.14c-1.86,0.4-3.02,0.47-4.02,0.9
				c-6.29,2.74-12.22,1.6-17.39-2.36c-6.46-4.94-12.94-10-18.59-15.8c-5.41-5.56-10.36-11.78-14.44-18.37
				c-4.86-7.85-1.68-16.76,7.27-20.21C343.77,270.77,341.9,278.63,344.28,284.87z"/>
			<path class="st2" d="M236.29,385.84c2.04,0.39,5.14,0.12,6.35-1.18c1.63-1.75,1.89-4.77,3.08-8.23
				c-1.15-1.45-2.43-3.06-3.71-4.68c-1.5,1.22-3.26,2.24-4.42,3.72c-1.2,1.53-1.77,3.54-2.71,5.29
				C233.69,382.97,233.41,385.3,236.29,385.84z"/>
			<path class="st2" d="M392.19,342.5c-1.46,12.46-1.61,25.33-12.95,34.37c7.47,0,14.39,0,21.76,0
				C403.32,365.01,398.91,347.21,392.19,342.5z"/>
		</g>
		<path class="st2" d="M137.05,301.31c-7.92,1.48-9.8,4.29-8.03,11.42c1.55,6.23,7.28,11.14,12.67,10.88
			c7.48-0.37,13.15-5.94,14-13.76c1.97-18.12-13.17-30.85-31.53-26.29c-12.56,3.12-24.94,7.03-37.56,9.84
			c-10.86,2.42-21.83,2.01-32.37-2.22c-2.3-0.92-4.57-2.03-6.64-3.37c-9.3-6.06-9.5-8.49-2.25-16.78
			c13.16-15.05,21.27-32.81,27.25-51.66c3.77-11.9,3.96-12.36,14.99-6.4c27.88,15.05,51.65,34.52,66.35,63.51
			c7.56,14.92,9.95,30.51,7.64,46.94c-0.86,6.13-2.75,7.8-8.9,7.52c-8.62-0.39-17.23-1.04-25.84-1.7c-0.76-0.06-1.81-0.94-2.09-1.68
			c-1.87-4.94-4.18-9.83-5.19-14.96c-1.44-7.35,2.24-13.31,9.06-16.57c6.38-3.05,15.75-1.91,19.84,3.07
			c1.44,1.76,1.81,4.83,1.69,7.25c-0.05,0.99-2.82,2.74-4.15,2.57c-2.37-0.31-4.83-1.49-6.78-2.93
			C138.07,305.13,137.81,303.08,137.05,301.31z M65.46,253.98c24.59-0.47,47.3,5.99,70.75,13.15
			c-5.51-13.11-14.17-22.55-24.32-30.35c-5.23-4.02-11.95-6.33-18.28-8.6c-6.12-2.2-11.6-0.17-16.38,4.35
			C71.09,238.32,67.63,245.42,65.46,253.98z M130.33,271c-22.35-2.47-44.64-3.87-65.96-10.89c-2.63,6.49-0.51,13.11,6.69,17.03
			c5.09,2.77,11.08,4.4,16.86,5.29C103.56,284.84,117.7,280.62,130.33,271z"/>
		<path class="st2" d="M114.48,392.8c4.08,0.57,8.15,1.31,12.25,1.65c2.77,0.22,5.62,0.06,8.38-0.34c1.05-0.15,2.61-1.36,2.71-2.23
			c0.12-1.02-0.84-2.67-1.8-3.19c-1.68-0.9-3.83-1.86-5.57-1.56c-13.39,2.35-26.73,4.97-40.06,7.6c-1.24,0.24-2.36,1.12-5.14,2.49
			c4.59,1.54,7.8,3.25,11.15,3.63c19.81,2.23,39.64,4.3,59.49,6.06c4.59,0.41,8.04,1.29,10.94,5.35c3.74,5.25,8.4,9.85,13.25,15.39
			c-6.93,0.43-13.27,1.25-19.59,1.15c-32.44-0.49-64.89-1.05-97.32-2c-5.51-0.16-11.12-1.89-16.4-3.74
			c-5.17-1.81-8.67-5.79-10.09-11.04c32.41,7.98,65.03,11.29,98.2,7.77c1.68-0.18,3.28-1.09,4.92-1.66
			c0.04-0.47,0.09-0.95,0.13-1.42c-1.48-0.6-2.92-1.59-4.44-1.75c-28.28-2.93-56.57-5.77-84.86-8.6c-2.32-0.23-4.65-0.32-6.97-0.4
			c-11.27-0.36-12.45-1.19-16.87-12.6c10.84-1.8,21.53-3.69,32.27-5.32c26.12-3.96,52.25-7.85,78.4-11.59
			c1.78-0.25,4.57,0.39,5.52,1.65c4.38,5.8,8.31,11.95,12.33,18.02c2.61,3.95,1.74,6.19-2.86,6.14c-12.54-0.13-24.76-2.4-36.53-6.85
			c-0.68-0.26-1.19-0.97-1.78-1.47C114.25,393.58,114.37,393.19,114.48,392.8z"/>
		<path class="st2" d="M372.61,300.49c3.06-10.98,12.29-14.86,20.31-20.1c2.49-1.63,4.98-3.42,6.96-5.6
			c2.89-3.18,3.17-6.95,0.48-10.49c-2.64-3.47-6.22-3.76-9.8-1.8c-3.58,1.96-6.87,4.4-5.5,9.4c0.26,0.96,0.53,1.93,0.65,2.91
			c0.38,2.96-0.39,5.94-3.63,5.86c-1.73-0.04-4.24-2.44-4.94-4.32c-2.03-5.44,1.02-11.92,6.94-16.34c10.2-7.62,24.92-3.3,28.1,8.24
			c1.58,5.73-0.34,10.06-5.68,12.82c-0.44,0.23-0.86,0.56-1.33,0.68c-15.52,4.01-21.79,15.64-24.76,30
			c-0.17,0.81-0.45,1.6-0.73,2.39c-0.11,0.3-0.35,0.55-0.76,1.17c-4.45-0.42-7.18-3.59-9.56-6.9
			c-10.15-14.15-14.23-29.83-11.29-47.15c1.53-9.06,3.53-17.94,9.11-25.58c10.82-14.82,33.4-15.35,44.97-1.02
			c7.37,9.13,10.54,20.1,12.08,31.26c2.69,19.59,4.28,39.33,6.31,59.01c0.07,0.72-0.13,1.47-1.07,2.31c-1.37-3.8-2.5-7.71-4.2-11.36
			c-0.91-1.97-2.78-3.51-4.21-5.24c-1.65,1.48-3.73,2.69-4.88,4.5c-6.36,10.03-7.81,21.01-5.56,32.55c0.25,1.28,0.63,2.68,1.41,3.67
			c0.85,1.08,2.43,2.61,3.31,2.39c1.28-0.32,3.12-1.99,3.16-3.14c0.22-6.1-0.01-12.21-0.18-18.32c-0.04-1.55-0.44-3.09-0.73-5.01
			c11.24,5.92,12.13,25.13,6.27,33.22c-4.09,5.64-11.79,5.2-15.09-1.52c-2.57-5.23-4.24-11.28-4.71-17.09
			c-0.63-7.74-0.6-15.77,0.88-23.34c0.98-5.05,4.86-9.58,7.68-14.21c1.17-1.92,2.94-3.46,5.13-5.95
			c-12.62-2.97-22.08,3.52-31.99,7.87c-0.39-0.5-0.77-1.01-1.16-1.51c1.48-2.1,2.56-4.78,4.53-6.2c5.78-4.16,11.87-7.88,17.92-11.65
			c6.68-4.16,11.38-9.41,12.01-17.8c1.45-19.12-17.95-35.97-36.43-30.93c-3.67,1-7.75,3.87-9.74,7.06
			c-10.49,16.79-10.99,34.38-2.5,52.23C370.8,298.32,371.52,299.02,372.61,300.49z"/>
		<path class="st2" d="M335.85,314.35c3.8,6.35,7.28,13.17,11.75,19.26c3.09,4.21,7.4,7.59,11.47,10.98
			c3.23,2.69,6.72,2.52,9.78-0.71c3.73-3.93,4.73-8.8,1.83-12.05c-2.52-2.81-5.58-5.23-8.68-7.43
			c-16.5-11.71-32.2-24.18-43.66-41.25c-5.97-8.9-6.38-11.73,2.6-17.46c8.71-5.56,18.54-9.43,28.1-13.55
			c3.73-1.61,4.59,0.27,4.47,5.49c-0.2,8.6-0.46,17.3,0.55,25.81c0.7,5.9,3.49,11.55,5.34,17.31c-0.44,0.34-0.87,0.68-1.31,1.02
			c-4.78-5.57-11.35-10.45-13.81-16.91c-2.38-6.24-0.52-14.1-0.52-21.68c-8.95,3.45-12.13,12.35-7.27,20.21
			c4.08,6.59,9.03,12.81,14.44,18.37c5.65,5.81,12.14,10.86,18.59,15.8c5.16,3.95,11.09,5.1,17.39,2.36c1-0.44,2.16-0.5,4.02-0.9
			c-0.28,2.41-0.09,4.45-0.77,6.14c-4.71,11.7-9.62,23.32-14.44,34.97c-1.39,3.37-3.91,4.23-7.28,3.56
			c-9.94-1.98-17.24-7.64-22.15-16.33C340.45,337,338.29,325.46,335.85,314.35z"/>
		<g>
			<path class="st2" d="M255,196.28c0,0,0-0.01,0-0.01c-0.05-0.04-0.09-0.08-0.14-0.12L255,196.28z"/>
			<path class="st2" d="M381.13,140.11c-0.52-0.54-1.49-0.66-3.1-1.32c1.14,2.2,1.98,3.43,2.45,4.79c1.32,3.8-1.43,8.26-5.18,7.64
				c-2.12-0.35-4.64-2.39-5.65-4.36c-1.47-2.88,0.07-5.32,3.27-6.64c5.88-2.44,5.85-2.53,6.13-5.37c-4.6,0.66-9.32,1.44-14.06,1.98
				c-3.8,0.43-6.18-1.29-7.53-5.03c-1.57-4.36-3.28-8.74-5.6-12.73c-5.23-9-15.65-12.34-26.12-8.83
				c-9.41,3.16-13.26,9.93-12.07,21.26c0.94,8.98,6.36,16.51,13.94,18.28c8.03,1.87,16.18,3.01,20.24-5.76
				c0.69,5.72,1.09,12,2.3,18.13c0.91,4.62,0.08,8.51-2.41,12.29c-3.41,5.17-8.52,7.82-14.19,9.51c-11.4,3.4-23.04,2.72-34.65,1.57
				c-10.42-1.03-20.79-2.79-31.23-3.36c-12.15-0.66-14.39,2.23-12.67,14.12c3,2.58,5.84,5.56,10.83,4.5
				c-0.5-0.86-0.74-1.48-1.15-1.93c-3.03-3.32-5.1-7.81-2.44-11.18c1.49-1.89,6.76-1.62,10.12-1.05c7.02,1.19,13.89,3.23,20.83,4.91
				c18.5,4.48,36.5,4.41,53.7-5.21c6.32-3.53,10.35-8.25,10.69-15.61c0.22-4.81,0.2-9.63,0.24-14.44c0.03-3.38,0.01-6.75,0.01-10.67
				c3.27,1.21,6.95,1.3,5.37,5.32c-1.86,4.72,0.8,6.94,4.06,8.66c4.62,2.43,12.11,0.41,14.94-3.58
				C385.16,151.79,384.68,143.86,381.13,140.11z M331.51,122.41c-3.82,1.84-5.19,8.08-2.81,12.78c2.74,5.4,8.84,5.82,16.35,1.13
				c0.71,5.18-0.91,7.69-5.69,8.78c-6.37,1.45-12.45,0.98-16.9-4.3c-4.68-5.55-5.06-12.27-2.85-18.84
				c1.94-5.78,7.28-7.59,12.75-7.88c6.59-0.35,12.13,2.28,15.24,8.36c1.37,2.69,1.74,5.89,2.56,8.86
				C345.53,122.03,339.14,118.74,331.51,122.41z"/>
		</g>
		<path class="st2" d="M429.67,176.12c9.28,0,18.56-0.08,27.84,0.05c2.74,0.04,4.47-0.63,6.05-3.13
			c5.26-8.35,12.94-13.87,22.35-16.54c3.61-1.02,4.97-2.96,5.96-6.21c2.59-8.5,5.49-16.9,9.32-25.41c2.81,8.56,5.75,17.08,8.37,25.7
			c0.95,3.13,2.3,4.89,5.7,5.85c9.61,2.71,17.11,8.53,22.92,16.71c1.08,1.52,3.58,2.81,5.47,2.86c9.31,0.29,18.64,0.13,28.82,0.13
			c-1.17,1.26-1.76,2.12-2.56,2.71c-6.97,5.12-14.05,10.1-20.9,15.37c-1.28,0.98-2.35,3.14-2.34,4.74
			c0.12,10.55-2.89,19.92-9.13,28.44c-1.09,1.48-1.34,4.28-0.8,6.12c2.61,9.03,5.62,17.94,8.94,28.27
			c-8.96-6.5-16.64-12.23-24.54-17.64c-1.45-0.99-4.04-1.43-5.66-0.86c-10,3.52-19.83,3.39-29.8-0.07c-1.5-0.52-3.9-0.15-5.22,0.76
			c-7.91,5.47-15.63,11.21-24.65,17.77c2.31-7.35,3.82-13.55,6.2-19.4c3.07-7.55,4.28-14.03-1.79-21.27
			c-4.95-5.9-5.42-14.07-5.53-21.87c-0.02-1.77-1.16-4.09-2.55-5.17c-7.47-5.78-15.19-11.25-22.82-16.82
			C429.42,176.85,429.55,176.48,429.67,176.12z M499.99,226.7c0.43,0.57,0.86,1.13,1.29,1.7c-1.58,1.26-3.14,2.54-4.74,3.76
			c-1.77,1.34-3.58,2.63-5.37,3.94c0.16,0.32,0.32,0.64,0.48,0.95c6.03,0,12.06,0,18.99,0c-1.95-2.08-2.99-3.2-4.03-4.31
			c0.35-0.46,0.71-0.92,1.06-1.38c10.83,7.76,21.65,15.53,33.24,23.84c-4.59-16.25-10.65-31.03-14.42-46.45
			c0.56-0.17,1.13-0.34,1.69-0.51c1.34,3.79,2.68,7.58,4.02,11.38c0.49,0.12,0.98,0.23,1.47,0.35c1.92-5.69,3.83-11.38,6.12-18.17
			c-3.01,1.19-4.49,1.78-5.97,2.37c-0.27-0.46-0.54-0.92-0.81-1.38c10.61-7.8,21.22-15.61,31.83-23.41
			c-0.14-0.46-0.29-0.92-0.43-1.38c-15.74,0-31.48,0-47.22,0c-0.01-0.51-0.03-1.03-0.04-1.54c4.09-0.21,8.18-0.41,12.26-0.62
			c0.21-0.47,0.42-0.95,0.63-1.42c-4.77-3.38-9.53-6.76-15.3-10.85c0.24,3.21,0.34,4.68,0.45,6.14c-0.52,0.15-1.04,0.29-1.56,0.44
			c-4.18-12.56-8.36-25.12-12.97-38.98c-5.38,16.39-10.29,31.34-15.19,46.29c-0.61-0.16-1.23-0.32-1.84-0.48
			c1.02-3.9,2.03-7.79,3.05-11.69c-0.36-0.35-0.71-0.7-1.07-1.05c-4.78,3.45-9.55,6.9-15.13,10.93c2.99,0.86,4.51,1.3,6.03,1.74
			c-0.06,0.46-0.12,0.92-0.18,1.38c-13.14,0-26.28,0-39.42,0c-0.09,0.39-0.18,0.78-0.28,1.17c12.75,9.33,25.49,18.66,38.24,27.99
			c-0.41,0.59-0.82,1.18-1.24,1.76c-3.47-2.38-6.94-4.75-10.4-7.13c-0.41,0.28-0.83,0.56-1.24,0.84c1.89,5.65,3.79,11.29,5.97,17.8
			c1.72-2.46,2.62-3.74,3.52-5.03c0.46,0.22,0.91,0.43,1.37,0.65c-4.07,12.63-8.13,25.27-12.57,39.04
			C474.16,245.37,487.08,236.04,499.99,226.7z"/>
		<path class="st2" d="M353.48,498.32c-5.34,9-10.24,17.24-15.41,25.96c-5.26-9.19-10.26-17.93-15.6-27.25
			c-5.8,8.41-11.23,16.27-17.38,25.18c-2.47-12.34-4.73-23.66-7.17-35.85c45.89,8.33,90.73,5.8,135.42-3.05
			c0.21,0.46,0.41,0.92,0.62,1.38c-9.4,6.57-18.79,13.14-28.42,19.87c-2.62-2.97-4.79-5.45-7.44-8.46
			c-2.57,5.65-4.98,10.92-7.59,16.67c-3.68-4.26-6.93-8.01-10.74-12.43c-4.33,7.82-8.44,15.25-13.02,23.51
			C362.25,515.2,358.09,507.2,353.48,498.32z"/>
		<path class="st2" d="M25.13,390.97c-2.77-6.28-5.17-11.72-7.74-17.51c13.18-7.04,17.52-19.06,18.5-32.7
			c0.27-3.69-0.36-7.69-1.61-11.19c-1.98-5.54-8.19-7.91-14.13-6.14c-5.31,1.58-8.95,7.3-7.57,12.88c0.36,1.45,2.68,3.17,4.3,3.41
			c6.13,0.89,8.08,2.56,8.7,8.65c0.76,7.52-3.2,14.34-10.98,17.97c-2.57-8.46-5.3-16.76-7.59-25.19c-1.69-6.24-2.79-12.65-4.2-18.97
			c-0.72-3.22-0.17-5.94,2.81-7.77c8.17-5.03,16.85-7.16,26.16-3.84c7.66,2.73,12.01,8.75,12.66,16.51
			C46.38,350.36,40.33,371.45,25.13,390.97z"/>
		<path class="st2" d="M91.36,361.44c0.28,4.59,0.49,8.16,0.75,12.4c-17.42,2.29-34.74,4.56-52.93,6.95
			c6.63-17.58,9.4-34.63,8.42-52.11c12.42-3.5,31.18,7.38,33.84,19.35c1.29,5.81-2.69,12.92-8.32,14.86
			c-4.6,1.59-8.94-0.58-10.81-5.38c-1.8-4.62-0.39-8.07,4.18-10.19c0.68-0.32,1.42-0.52,2.49-0.91c-3.72-3.6-7.19-2.99-10.56-0.48
			c-4.69,3.49-6.16,9.31-3.76,14.16c5.94,11.98,21.22,14.4,32.34,5.12C88.25,364.17,89.45,363.09,91.36,361.44z"/>
		<path class="st2" d="M381.81,413.65c0.26-0.2,0.53-0.41,0.79-0.61c4.11,0.49,1.84,2.69,0.71,3.74c-3.24,3-6.78,5.69-10.72,8.92
			c3.37,0,6.24,0,9.73,0c-3.57,2.31-6.57,4.25-10.68,6.91c2.63,1.05,3.48,1.63,4.37,1.7c9.45,0.77,19.85-7.16,22.09-16.37
			c1.43-5.89,3.43-11.64,5.18-17.46c0.41,0.09,0.81,0.17,1.22,0.26c0,3.98-0.14,7.97,0.09,11.94c0.06,1.11,1.2,2.15,1.85,3.23
			c1.1-0.85,2.55-1.48,3.23-2.59c2.93-4.77,2.64-9.79,0.63-14.84c-2.57-6.47-2.29-13.12-1.78-20.81c2.26,5.93,4.12,10.79,5.97,15.66
			c0.9-0.04,1.79-0.08,2.69-0.12c0.62-2.59,2.43-5.64,1.64-7.7c-2.34-6.1-5.62-11.85-8.7-17.65c-0.98-1.85-2.5-3.41-3.64-5.43
			c7.54,5.18,14.73,12.92,24.34,1.8c-2.08,17.08-3.26,33.4-11.06,48.11c-9.93,18.74-34.17,31.2-54.92,28.7
			c-5.78-0.7-7.83-4.91-4.07-9.47c2.7-3.27,6.39-5.75,9.68-8.52C374.23,419.87,378.04,416.77,381.81,413.65z"/>
		<path class="st2" d="M355.14,528.63c-14.13,3.42-28.13,7.54-42.42,10.11c-31.88,5.73-63.87,5.52-95.71-0.78
			c-1.69-0.33-4.1-1.49-4.55-2.82c-2.37-6.91-5.6-13.05-12.08-17.76c50.48,22.16,102.22,19.11,154.38,9.01
			C354.89,527.14,355.02,527.88,355.14,528.63z"/>
		<path class="st2" d="M325.81,197.13c1.99-0.65,3.99-1.26,5.97-1.96c4.85-1.7,9.72-3.35,14.52-5.18
			c6.18-2.35,10.59-6.31,13.04-12.78c2.47-6.53,5.55-7.8,12.58-6.52c3.75,0.68,7.48,1.5,11.16,2.5c1.37,0.37,2.56,1.43,3.83,2.18
			c-0.19,0.63-0.38,1.27-0.57,1.9c-6.56-1.01-13.12-2.02-19.68-3.03c4.07,7.17,10.43,7.36,16.87,6.66c5.61-0.61,7.99-4.78,8.2-9.77
			c0.33-7.94-0.01-15.91-0.06-23.86c-0.01-1.69,0-3.39,0-5.09c0.56-0.06,1.13-0.11,1.69-0.17c1.06,4.53,2.78,9.02,3.06,13.6
			c0.78,12.94,1.02,25.92,1.35,38.89c0.12,4.77-3.43,3.47-6.07,3.23c-9.58-0.87-19.17-2.67-28.74-2.52
			c-10.57,0.17-21.12,2.11-31.68,3.25c-1.7,0.18-3.41,0.2-5.12,0.29C326.04,198.21,325.93,197.67,325.81,197.13z"/>
		<path class="st2" d="M309.79,144.99c-7.75-2.82-15.53-5.42-23.09-8.53c-3.03-1.25-2.04-3.42-0.02-5.47
			c3.71-3.77,7.57-7.51,10.54-11.82c1.29-1.87,0.56-5.15,0.74-7.78c-2.47,0.98-5.85,1.27-7.2,3.08c-2.61,3.49-4.07,7.85-6.02,11.84
			c-1.68,3.44-3.38,6.86-5.98,10.12c-1.01-8.22,2.23-17.38-7.67-22.55c3.79-4.82,9.12-7.22,14.69-8.32
			c8.44-1.66,17.04-2.54,25.61-3.4c1.9-0.19,4.95,0.54,5.64,1.83c0.69,1.3-0.62,3.96-1.56,5.76c-1.29,2.49-2.95,4.83-4.64,7.08
			c-5.56,7.42-5.95,15.22-1.95,23.41c0.5,1.03,0.91,2.11,1.33,3.18C310.27,143.52,310.15,143.71,309.79,144.99z"/>
		<path class="st2" d="M145.96,332.64c2.08,9.22-0.06,14.15-6.43,14.06c0.64,2.39,1.89,4.71,1.64,6.85
			c-0.24,1.99-2.08,3.79-3.49,6.13c1.48-0.13,2.67-0.24,3.76-0.34c2.05,2.73-1.24,8.7-5.68,9.36c-8.5,1.25-17.09,1.91-25.65,2.63
			c-2.29,0.19-4.67-0.1-6.95-0.49c-5.49-0.95-7.51-4.23-4.5-8.83c3.5-5.34,7.53-10.65,12.4-14.69
			C121.09,338.98,133.74,336.26,145.96,332.64z M106.19,360.51c-0.75,1.66-1.5,3.32-2.25,4.98c1.86,0.78,3.9,2.5,5.56,2.19
			c7.16-1.34,14.28-3.06,21.26-5.16c1.42-0.43,2.16-3.08,3.22-4.71c-0.39-0.36-0.79-0.71-1.18-1.07
			c-8.13,1.55-16.26,3.13-24.41,4.59c-0.68,0.12-1.5-0.55-2.28-0.88c8.32-3.14,16.67-6.19,24.93-9.48c1.64-0.65,2.9-2.25,4.33-3.41
			c-0.39-0.57-0.77-1.14-1.16-1.71c-10.17,0.76-19.78,3.03-27,11.24C106.49,357.89,106.51,359.35,106.19,360.51z"/>
		<path class="st2" d="M251.76,181.12c-2.94,0.77-5.56,1.53-8.22,2.12c-1.41,0.32-3.14,0.91-4.29,0.4
			c-4.11-1.83-7.04-0.94-8.97,3.48c-0.44-0.14-0.87-0.29-1.31-0.43c0-4.45,0.21-8.9-0.06-13.33c-0.25-4.04-0.99-8.05-1.57-12.06
			c-0.49-3.42-1.5-6.83-1.42-10.22c0.04-1.61,2.09-3.17,3.22-4.75c0.4,0.28,0.8,0.57,1.2,0.85c0,0.78,0.15,1.59-0.02,2.33
			c-1.87,8.27,0.6,11.01,9.18,10.27c3.97-0.34,7.96-0.75,11.93-0.69c6.1,0.09,8.04,3.1,5.86,8.83c-0.88,2.32-2.22,4.46-3.18,6.75
			C253.16,176.94,252.42,179.3,251.76,181.12z"/>
		<path class="st2" d="M397.18,381.53c-8.59,3.3-18.21,4.26-25.89,10.7c3.44,3.31,6.63,2.29,9.49,0.6c0.86-0.51,0.77-2.64,1.41-5.25
			c1.41,0.94,4.36,1.87,4.66,3.34c0.4,1.95-0.7,4.89-2.19,6.39c-3.1,3.13-11.23,3.41-15.14,1.2c-4.55-2.57-5.02-6.67-1.41-12.3
			c-6.24-0.41-8.58,1.33-9.24,6.86c-0.69,5.81,1.15,8.62,6.96,9.25c13.41,1.44,24.57-2.71,32.55-14.06
			c1.33-1.89,2.76-3.71,4.19-5.54c0.15-0.2,0.57-0.19,1.85-0.56c-0.38,2.02-0.34,3.74-1.03,5.1c-7.24,14.33-26.39,23.21-42.21,19.8
			c-4.46-0.96-6.37-4.04-7.07-8.02c-0.89-5.05,0.15-9.72,4.39-12.99c1.79-1.38,4.08-2.63,6.27-2.88
			c10.69-1.22,21.41-2.09,32.13-3.08C396.98,380.58,397.08,381.05,397.18,381.53z"/>
		<path class="st2" d="M61.5,308.07c17.05-1.62,34.7-0.68,50.45-11.35c-9.8,12.65-1.69,22.48,3.61,31.84
			c-18.01-6.41-36.04-12.83-54.07-19.25C61.5,308.89,61.5,308.48,61.5,308.07z"/>
		<path class="st2" d="M58.97,322.32c18.11,0.85,33.77,8.8,49.72,15.51c-5.81,7.06-11.3,13.73-17.78,21.6
			C91.34,336.85,78.46,326.82,58.97,322.32z"/>
		<path class="st2" d="M2.91,307.44c10.34-6.8,20.69-13.59,30.27-19.89c6.81,6.51,14.2,13.56,21.58,20.61
			C37.41,303.9,20.26,302.74,2.91,307.44z"/>
		<path class="st2" d="M275.67,140.88c-0.4,4.71,0.78,9.69-5.13,11c-4.13,0.92-6.89-1.51-8.84-8.14c-1.3-4.43-2.29-9.01-2.78-13.59
			c-0.76-7.13,4.88-11.84,11.69-9.84c1.32,0.39,2.34,2.4,3.11,3.86c0.59,1.12,0.7,2.56,0.83,3.87
			C274.98,132.49,275.33,136.95,275.67,140.88z"/>
		<path class="st2" d="M277.36,164.22c2.97-6.02,6.28-12.75,10.01-20.31c10.04,12.01,24.58,10.74,37.86,13.14
			c-0.06,0.47-0.11,0.94-0.17,1.41C308.72,160.43,292.38,162.41,277.36,164.22z"/>
		<path class="st2" d="M401.01,376.87c-7.38,0-14.29,0-21.76,0c11.34-9.04,11.49-21.91,12.95-34.37
			C398.91,347.21,403.32,365.01,401.01,376.87z"/>
		<path class="st2" d="M254.86,196.15c2.12,2.82,4.25,5.64,6.28,8.34c-8.75,2.2-20.39-7.83-19.24-17.11c0.12-1,0.92-2.17,1.75-2.79
			c3.96-2.96,7.03-1.6,8.26,3.21c0.74,2.9,2.03,5.66,3.08,8.49C255,196.28,254.86,196.15,254.86,196.15z"/>
		<path class="st2" d="M253.69,206.07c-10.43,1.4-19.43-4.1-21.83-13.23c-0.56-2.14,1.25-4.91,1.97-7.38
			c2.03,1.28,5.02,2.1,5.9,3.93C242.96,196.15,245.78,203.01,253.69,206.07z"/>
		<path class="st2" d="M245.71,376.43c-1.19,3.46-1.45,6.48-3.08,8.23c-1.21,1.3-4.3,1.57-6.35,1.18c-2.87-0.54-2.59-2.87-1.42-5.08
			c0.93-1.75,1.5-3.76,2.71-5.29c1.16-1.48,2.93-2.5,4.42-3.72C243.28,373.36,244.56,374.98,245.71,376.43z"/>
		<path class="st2" d="M326.68,183.5c0.56-4.87,1.11-9.61,1.66-14.35c0.39,0.04,0.79,0.07,1.18,0.11c0,3.48,0,6.97,0,10.44
			c9.47,0.05,8.97-7.36,9.93-14.27C343.44,174.58,339.34,180.01,326.68,183.5z"/>
		<path class="st2" d="M189.25,229.96c2.86-5.12,5.02-8.97,7.55-13.51c2.26,2.76,4.16,5.07,6.56,8
			C198.82,226.23,194.79,227.8,189.25,229.96z"/>
		<path class="st2" d="M343.19,203.26c3.5-0.43,6.22-0.77,9.55-1.18c-0.59,4.84-1.12,9.13-1.65,13.43
			c-0.33,0.07-0.66,0.14-0.98,0.21C347.93,211.8,345.75,207.87,343.19,203.26z"/>
		<path class="st2" d="M305.35,184.29c0.91-4.89,1.71-9.21,2.51-13.53c0.54,0.08,1.08,0.16,1.63,0.24c-0.5,3.57-1,7.13-1.5,10.67
			c9.69,4.05,11.21-2.27,11.34-10.38c0.55,0.38,1.11,0.75,1.66,1.13c-0.4,3.91-0.8,7.81-1.22,11.87
			C314.95,184.29,310.66,184.29,305.35,184.29z"/>
		<path class="st2" d="M392.62,205.16c-1.91,4.41-3.53,8.18-5.75,13.32c-1.32-5.76-2.34-10.23-3.59-15.7
			C386.72,203.66,389.44,204.35,392.62,205.16z"/>
		<path class="st2" d="M254.32,247.33c-1.24-4.2-2.48-8.39-3.86-13.06c2.9,0,5.41,0,8.73,0c-1.31,4.46-2.57,8.75-3.83,13.04
			C255.02,247.31,254.67,247.32,254.32,247.33z"/>
		<path class="st2" d="M216.83,247.93c-1.26-5.67-2.21-9.93-3.3-14.84c2.94,0.19,5.44,0.35,8.53,0.55
			C220.34,238.36,218.84,242.44,216.83,247.93z"/>
		<path class="st2" d="M305.94,218.55c1.47,4.32,2.72,7.99,4.42,12.97c-4.65-2.41-8.16-4.23-12.37-6.41
			C300.82,222.78,303.14,220.86,305.94,218.55z"/>
		<path class="st2" d="M298.58,173.16c-0.23,2.82-0.46,5.63-0.75,9.13c-5.58-0.51-10.75-0.98-16.35-1.49
			c0.87-4.2,1.65-7.97,2.43-11.74c0.48,0.06,0.97,0.12,1.45,0.18c-0.35,3-0.7,5.99-1.13,9.65c3.7,0.43,7.51,0.88,11.49,1.34
			c0.51-2.74,0.92-4.92,1.33-7.11C297.56,173.13,298.07,173.14,298.58,173.16z"/>
		<path class="st2" d="M232.35,368.26c1.09,1.15,3.31,2.73,3.07,3.36c-1.05,2.7-2.82,5.12-4.33,7.65c-1.09-1.53-3.07-3.06-3.07-4.59
			c0.01-2.12,1.5-4.24,2.36-6.35C231.04,368.3,231.69,368.28,232.35,368.26z"/>
		<path class="st2" d="M236.81,234.04c3.42,0,5.87,0,9.07,0c-0.8,4.34-1.55,8.39-2.52,13.62
			C240.95,242.65,239.05,238.7,236.81,234.04z"/>
		<path class="st2" d="M262.33,234.16c3.06,0,5.34,0,8.28,0c-0.5,4.22-0.98,8.3-1.46,12.38c-0.35,0.09-0.71,0.17-1.06,0.26
			C266.28,242.83,264.47,238.86,262.33,234.16z"/>
		<path class="st2" d="M296.97,240.88c-4.15-3.39-7.15-5.84-10.67-8.71c2.9-1.53,5.32-2.81,8.44-4.47
			C295.45,231.88,296.09,235.63,296.97,240.88z"/>
		<path class="st2" d="M229.42,247.63c-1.74-5.32-3.01-9.19-4.41-13.47c2.99,0,5.54,0,8.73,0
			C232.41,238.3,231.16,242.23,229.42,247.63z"/>
		<path class="st2" d="M369.46,202.16c2.88,0,5.12,0,7.85,0c-1.31,4.5-2.5,8.59-3.69,12.68c-0.35,0.02-0.7,0.04-1.05,0.06
			C371.58,210.87,370.6,206.84,369.46,202.16z"/>
		<path class="st2" d="M328.43,206.43c0.58,4.58,1.05,8.3,1.52,12.01c-0.31,0.17-0.62,0.34-0.93,0.51
			c-2.73-2.95-5.47-5.91-8.72-9.42C323.22,208.42,325.54,207.53,328.43,206.43z"/>
		<path class="st2" d="M332.39,205.3c2.92-0.62,5.23-1.12,8.05-1.72c0,4.44,0,8.42,0,13.37
			C337.59,212.84,335.16,209.32,332.39,205.3z"/>
		<path class="st2" d="M283.52,246.04c-2.68-4.61-4.7-8.09-7.06-12.14c2.87-0.44,5.24-0.8,8.3-1.27
			C284.35,237.02,284,240.86,283.52,246.04z"/>
		<path class="st2" d="M201.42,240.83c1.1-4.46,2.2-8.91,3.46-14.01c2.14,1.99,3.9,3.63,5.98,5.56c-2.89,3.09-5.64,6.04-8.39,8.99
			C202.12,241.18,201.77,241,201.42,240.83z"/>
		<path class="st2" d="M262.61,177.73c2.49-0.36,4.43-0.65,6.38-0.93c0.64-1.7,1.24-3.27,2.12-5.6c1.35,8.04,0.64,8.04-11.11,8.39
			c0.28-2.1,0.49-4.17,0.86-6.21c0.34-1.92,0.85-3.8,1.28-5.71c0.45,0.03,0.9,0.06,1.36,0.09
			C263.21,170.87,262.94,173.99,262.61,177.73z"/>
		<path class="st2" d="M315.49,212.06c1.52,3.77,2.9,7.21,4.29,10.64c-0.25,0.23-0.5,0.46-0.75,0.69c-3.38-2.1-6.76-4.19-10.67-6.62
			C310.97,215.04,313.07,213.65,315.49,212.06z"/>
		<path class="st2" d="M357.57,202.12c2.75,0,4.83,0,7.56,0c-1.11,4.37-2.13,8.34-3.14,12.3c-0.32-0.05-0.63-0.1-0.95-0.14
			C359.93,210.39,358.82,206.5,357.57,202.12z"/>
		<path class="st2" d="M405.89,212.69c-1.9,2.59-3.5,4.77-5.76,7.84c-0.66-4.73-1.14-8.23-1.77-12.73
			C401.26,209.69,403.3,211.01,405.89,212.69z"/>
		<g>
			<path class="st2" d="M228.22,582.92c-0.87-7.62-3.85-10.04-11.44-10.04c-13.82-0.01-27.64,0-41.46,0c-13.49,0-26.97,0-40.46,0
				c-8.7,0-12.19,2.48-12.31,11.25c-0.39,27.1-0.4,54.21-0.03,81.3c0.12,8.86,3.87,11.55,12.79,11.55c26.64,0.01,53.28,0.01,79.92,0
				c9.32,0,12.75-2.54,13.04-11.77c0.66-21.62,0.79-43.25,0.95-64.88C229.26,594.53,228.88,588.69,228.22,582.92z M202.24,635.7
				c-0.19,7.4-6.32,13.9-13.68,14.13c-13.12,0.4-26.27,0.11-40,0.11c0-12.4-0.07-24.5,0.07-36.6c0.02-1.74,0.84-3.56,1.61-5.19
				c2.21-4.7,5.94-8.01,11.12-8.13c13.45-0.32,26.92-0.11,40.96-0.11C202.32,612.07,202.53,623.89,202.24,635.7z"/>
		</g>
		<path class="st2" d="M270.23,609.03c10.19,0,19.65-0.06,29.11,0.03c3.27,0.03,5.4,1.79,5.43,5.22c0.08,8.46,0.03,16.92,0.03,26.04
			c-10.3,0-20.21,0.23-30.09-0.23c-1.56-0.07-4.17-3.17-4.27-4.97C269.98,626.68,270.23,618.18,270.23,609.03z"/>
		<path class="st2" d="M192.72,609.03c-10.19,0-19.65-0.06-29.11,0.03c-3.27,0.03-5.4,1.79-5.43,5.22
			c-0.08,8.46-0.03,16.92-0.03,26.04c10.3,0,20.21,0.23,30.09-0.23c1.56-0.07,4.17-3.17,4.27-4.97
			C192.98,626.68,192.72,618.18,192.72,609.03z"/>
		<path class="st2" d="M492.14,212.98c2.92-4.04,5.51-7.61,8.53-11.79c3.03,4.15,5.7,7.8,8.6,11.78c-3.05,2.22-5.69,4.14-8.56,6.23
			C497.97,217.21,495.32,215.29,492.14,212.98z"/>
		<path class="st2" d="M485.98,195.87c3.88,1.28,7.48,2.46,11.06,3.67c0.59,0.2,1.11,0.58,1.84,0.98c-0.39,0.7-0.65,1.3-1.02,1.81
			c-2.22,3.08-4.46,6.14-6.68,9.17C481.78,207.34,481.27,205.88,485.98,195.87z"/>
		<path class="st2" d="M514.59,194.43c-4.07,1.3-8.24,2.64-12.82,4.1c0-5.04,0-9.32,0-13.59
			C511.01,182.35,513.7,184.26,514.59,194.43z"/>
		<path class="st2" d="M486.7,194.4c2.46-11.51,0.92-10.89,12.81-9.76c0,4.37,0,8.77,0,13.83C495,197.04,490.83,195.71,486.7,194.4z
			"/>
		<path class="st2" d="M515.54,195.8c4.07,9.84,4.07,9.84-4.95,16.13c-2.68-3.61-5.37-7.24-8.56-11.54
			C506.76,198.78,510.99,197.34,515.54,195.8z"/>
		<path class="st2" d="M472.78,234.94c2.25-6.9,4.41-13.83,6.85-20.66c0.35-0.98,2.01-2.04,3.1-2.08c2.12-0.07,4.26,0.55,7.2,1.02
			c-5.55,7.67-10.83,14.95-16.1,22.23C473.47,235.27,473.13,235.11,472.78,234.94z"/>
		<path class="st2" d="M525.37,237.1c-6.46-4.68-12.91-9.35-19.57-14.17c1.43-3.02,2.69-5.66,4.23-8.9
			c5.62,7.75,10.88,15,16.14,22.25C525.91,236.55,525.64,236.83,525.37,237.1z"/>
		<path class="st2" d="M484.63,193.72c-8.84-2.89-17.12-5.59-25.41-8.3c0.07-0.42,0.14-0.85,0.22-1.27c7.2,0,14.4-0.09,21.59,0.11
			c0.86,0.02,2.11,1.46,2.43,2.48C484.08,188.73,484.19,190.89,484.63,193.72z"/>
		<path class="st2" d="M517.06,193.66c-0.13-1.14-0.25-1.47-0.19-1.78c1.54-7.77,1.54-7.77,9.66-7.77c5.11,0,10.23,0,15.34,0
			c0.11,0.42,0.21,0.83,0.32,1.25C533.93,188.1,525.66,190.82,517.06,193.66z"/>
		<path class="st2" d="M527.66,235.5c-5.3-7.27-10.59-14.54-15.87-21.78c0.48-0.41,0.58-0.56,0.7-0.59c8.6-1.9,8.58-1.89,11.18,6.48
			c1.6,5.15,3.26,10.27,4.89,15.41C528.26,235.19,527.96,235.34,527.66,235.5z"/>
		<path class="st2" d="M475.18,236.3c5.18-7.15,10.36-14.3,16.03-22.12c1.6,3.16,2.93,5.79,4.42,8.74
			c-6.74,4.86-13.2,9.53-19.66,14.2C475.7,236.84,475.44,236.57,475.18,236.3z"/>
		<path class="st2" d="M524.2,202.15c-2.31-2.23-4.43-4.28-7.04-6.81c9.14-2.98,17.55-5.73,25.97-8.48c0.2,0.35,0.4,0.69,0.59,1.04
			C537.27,192.61,530.82,197.31,524.2,202.15z"/>
		<path class="st2" d="M458.41,186.9c8.31,2.71,16.61,5.42,25.61,8.36c-2.73,2.09-5.03,3.85-7.93,6.07
			c-5.45-3.97-11.93-8.68-18.4-13.38C457.93,187.6,458.17,187.25,458.41,186.9z"/>
		<path class="st2" d="M499.51,155.76c0,8.64,0,17.27,0,25.92c-8.01-1.75-8.6-2.71-6.19-9.93c1.79-5.39,3.55-10.78,5.33-16.18
			C498.93,155.63,499.22,155.7,499.51,155.76z"/>
		<path class="st2" d="M501.7,181.69c0-8.63,0-17.23,0-25.83c0.27-0.1,0.55-0.21,0.82-0.31c0.81,2.29,1.65,4.56,2.43,6.86
			c1.06,3.13,2.08,6.27,3.11,9.41C510.43,179.01,509.74,180.09,501.7,181.69z"/>
	</g>
</g>
</svg>
