<?xml version="1.0" encoding="utf-8"?>
<!-- Generator: Adobe Illustrator 25.0.0, SVG Export Plug-In . SVG Version: 6.00 Build 0)  -->
<svg version="1.1" id="Capa_1" xmlns="http://www.w3.org/2000/svg" xmlns:xlink="http://www.w3.org/1999/xlink" x="0px" y="0px"
	 viewBox="0 0 1588.9 811.9" style="enable-background:new 0 0 1588.9 811.9;" xml:space="preserve">
<style type="text/css">
	.st0{fill-rule:evenodd;clip-rule:evenodd;}
	.st1{fill-rule:evenodd;clip-rule:evenodd;fill:none;}
</style>
<path class="st0" d="M630.5,0C704.2-1,754.9,21.2,798,50.7c7.6,5.2,38.3,26.9,39.6,35c-12-6.2-24-12.3-36-18.5
	c-31.2-14-76.6-25.9-123.1-19.7c-23.4,3.1-44.8,6.9-63.8,14.4c-120.2,47.4-203.9,187.2-137,344.4c22.5,52.9,64.4,93.1,112.6,120.7
	c12.8,7.3,28.8,14.8,43.7,19c8.5,2.6,17,5.3,25.4,7.9c-0.1,0.2-0.2,0.3-0.2,0.5c-46.4,9.9-102.4-6.6-133.7-19.2
	c-93.4-37.7-156-117.1-169.2-235.7c-3.5-31.9,1.3-65.4,8.6-90.5C392.6,114,455.6,46.9,546.3,14.9c15.4-5.4,32.1-9.5,49.9-12.2
	C607.6,1.8,619.1,0.9,630.5,0z"/>
<path class="st0" d="M925.7,317.6c0.8,0.2,1.6,0.3,2.4,0.5c2.6,11-0.9,22.8-4.3,30c-26.2,54.6-134.5-2.8-154.8,45.4
	C753.2,430.8,811.2,513,826.3,534c4,5.6,15.2,15.3,15.8,22.1c-41.4-0.6-82.9-1.3-124.3-1.9c-3-46.3-5.9-92.6-8.9-139
	c-1.7-13.7,0.7-36.4-8.2-43.2c-19.7-15.1-87.3-6.1-114.5-2.4c-9.4,1.1-18.7,2.2-28.1,3.4c-0.2-0.2-0.5-0.5-0.7-0.7
	c0.2-15.1,0.5-30.2,0.7-45.4c6.5,1.2,13,2.4,19.4,3.6c23.3,2.9,46.6,5.8,69.8,8.6c59.2,6.7,131.2,4.6,187.4-2.6
	C868.9,332.2,900.7,330.3,925.7,317.6z"/>
<path class="st0" d="M86.7,580.4c17.4-0.4,49.8,12,48.5,25.2c-2.3,1.5-4.6,3-7,4.6c-9.6-7.1-13.4-17.2-28.3-19.7
	c-37.6-6.3-51.6,41.2-38.9,73.4c6.2,15.7,19.4,31.4,43,25c4.7-1.3,9.5-2.4,11.8-6c0.3-14.1,0.6-28.2,1-42.2c4.2-1.7,19.1-1.8,23,0.2
	c0.1,13.4,0.2,26.9,0.2,40.3c-3.5,2.5-7,5-10.6,7.4c-25.6,15.6-57.5,13.1-78.7-4.8c-31.6-26.6-19.3-76.7,10.3-95.3
	C68.5,583.8,76.4,583,86.7,580.4z"/>
<path class="st0" d="M158.2,583.2c18.7,2.1,45.6-3.9,60,3.1c15.5,7.5,28.9,36.1,10.3,50.9c-5.1,4.1-11.5,4.9-18.5,7.4
	c-0.1,0.2-0.2,0.3-0.2,0.5c9.4,16.8,18.7,33.6,28.1,50.4c-0.3,0.2-0.6,0.5-1,0.7c-8.1-0.2-16.2-0.5-24.2-0.7
	c-10.2-19.1-20.3-38.2-30.5-57.4c0.4-0.4,0.8-0.8,1.2-1.2c14.1,0.5,26.1-3.7,29.5-14.6c6-19.4-15.3-39-33.6-30.2
	c-0.1,27.4-0.2,54.9-0.2,82.3c0,6.6,1.2,17.1-1,21.4c-7.3,0-14.6,0-21.8,0c-1.9-3.5-2.6-103.1-0.5-111.6
	C156.6,583.9,157.4,583.6,158.2,583.2z"/>
<path class="st0" d="M996.3,583.2c5.9,0.2,11.8,0.3,17.8,0.5c18.2,23.8,36.5,47.5,54.7,71.3c0.4-0.1,0.8-0.2,1.2-0.2
	c0.3-23.6,0.6-47.2,1-70.8c3.2-0.1,6.4-0.2,9.6-0.2c0.3,0.4,0.6,0.8,1,1.2c-0.2,37-0.5,73.9-0.7,110.9c-3.4,0-6.7,0-10.1,0
	c-4.1-5.3-8.2-10.6-12.2-15.8c-5.7-7.7-49.3-66.8-52.6-67.2c-0.5,27.5-1,55-1.4,82.6c-1.9,1.3-7.9,1.2-10.1,0.2
	c-0.2-8.5-0.5-17-0.7-25.4c0.2-28.6,0.3-57.3,0.5-85.9C994.8,583.9,995.5,583.6,996.3,583.2z"/>
<path class="st0" d="M250.1,583.5c7.1,0.2,14.2,0.5,21.4,0.7C278.6,617,254,692.7,299.8,686c28.1-4.2,19.2-50.4,19.2-81.6
	c0.2-6.7,0.5-13.4,0.7-20.2c2.3-1.1,8-1,10.3,0c0.2,12.3,0.5,24.6,0.7,37c0,42.2,6.2,73.6-33.1,78c-50,5.6-49.4-26.4-49.4-69.6
	C248.2,620.6,246.5,586.5,250.1,583.5z"/>
<path class="st0" d="M597.4,583.5c21.8,0.2,43.7,0.5,65.5,0.7c0.1,2.7,0.2,5.4,0.2,8.2c-7.1,0.5-14.2,1-21.4,1.4
	c-0.2,33.9-0.5,67.8-0.7,101.8c-4.2,1.9-18.1,1.4-22.6,0.2c-0.5-34.1-1-68.2-1.4-102.2c-7-0.3-13.9-0.6-20.9-1
	C595.2,589.9,595.8,585.2,597.4,583.5z"/>
<path class="st0" d="M838.3,644.9c0.2-0.2,0.3-0.3,0.5-0.5c6.6-1.7,13.2-3.2,17.8-7c14.2-11.6,8.7-37.2-3.4-46.8
	c-13.3-10.6-44.1-7.5-67.9-7.2c-3.8,3.5-1.7,19.7-1.7,26.4c0.2,28.6,0.5,57.1,0.7,85.7c3.7,1.5,18.5,1.5,22.6-0.2
	c0.2-28.3,0.3-56.6,0.5-85c0.6-6.2-1.9-14,0.7-18.7c20.2-6.8,40.1,11.6,32.9,31.2c-3.9,10.5-14.8,14.6-29.5,14.2
	c-0.2,0.2-0.5,0.5-0.7,0.7c-0.3,2.7,28,56.5,30.2,57.8c8,0.2,16,0.5,24,0.7c0.3-0.2,0.6-0.5,1-0.7
	C866.3,684.6,839.5,658.1,838.3,644.9z"/>
<path class="st0" d="M1110.5,583.5c7.2,0.2,14.4,0.5,21.6,0.7c0.2,14.5,0.3,29,0.5,43.4c0,32.2,5.7,63.1-22.8,67.7
	c-5.9,0.9-15,1.3-20.6-0.2c-0.9-1.9-1-5.5,0-7.4c5-2.1,11.6-0.6,15.4-3.6c7.5-5.9,4.3-52.7,4.3-68.4
	C1108.8,607.2,1106,587.4,1110.5,583.5z"/>
<path class="st0" d="M1155.6,583.5c6-0.1,17.5-1.6,21.6,1c2,6.6,1.3,108.2-0.5,111.4c-7.4,0-14.7,0-22.1,0
	c-0.2-28.2-0.3-56.5-0.5-84.7C1154.2,603.9,1151.9,587.7,1155.6,583.5z"/>
<path class="st0" d="M1203.4,583.5c6.2-0.1,17.2-1.5,21.6,1c0.2,33.3,0.5,66.6,0.7,99.8c14.2,0.3,28.5,0.6,42.7,1
	c1.2,2.1,1.3,7.3,0.5,10.1c-3.5,1.5-62.2,1.8-66.5,0.2c-1.8-4.1-1.8-107.5,0-111.6C1202.7,583.8,1203.1,583.6,1203.4,583.5z"/>
<path class="st0" d="M487.5,580.4c-25.7,6.5-40.3,13.8-49,36.7c-16,42.6,13.8,87.4,58.6,82.3C563.9,691.8,563.8,579.3,487.5,580.4z
	 M485.5,690c-30.4-5.1-33.7-66.6-16.6-89.8c4.8-6.4,10.8-7.9,19.9-10.3C536.3,589.2,531.7,697.8,485.5,690z"/>
<path class="st0" d="M714,580.4c-26.1,5.9-41.1,12.7-49.9,35c-17,43,12.3,88.8,56.9,84C789.1,692.1,788.3,579.3,714,580.4z
	 M717.4,690c-39.5,6.2-39.3-70.9-21.8-91.4c4.6-5.4,10.2-6.6,18.5-8.6C758.5,589.3,757.5,683.8,717.4,690z"/>
<path class="st0" d="M920.7,580.4c-24,6.4-38.3,13.5-47.3,34.3c-19,44.1,14.4,91.9,61.7,84.2C997.9,688.7,997.1,579.3,920.7,580.4z
	 M925.7,690c-38,4.8-38.4-69.3-21.8-90.5c4.4-5.7,10.3-7,18-9.6C968.6,589.2,966.9,684.8,925.7,690z"/>
<path class="st0" d="M431.8,611.1c-5.4-32.8-40.8-28-78.7-27.6c-3.2,3-1.7,26.4-1.7,33.4c0.1,26.2,0.2,52.3,0.2,78.5
	c1.6,2.3,20.6,1.1,22.8,0c0.2-14.7,0.5-29.4,0.7-44.2c3.2-1.7,11-1,15.8-1c17.2,0,31.2-3.7,37.7-14.4
	C432.4,629.7,433.2,619.4,431.8,611.1z M375.6,640.6c-2.1-3.7-1-47.6,0.7-49.4c12.1-0.1,23,1.7,28.3,8.4
	C419.9,618.5,402.1,648,375.6,640.6z"/>
<path class="st0" d="M1470.7,603.9c17.4,0.2,28.8,8.2,36,18.7c-0.9,2.6-3.1,4.3-5.3,5.5c-5.5-1.6-9.1-9.7-13.9-12.7
	c-18-11.3-37.4,5.1-41.3,19.4c-7.2,26.8,8.1,66,38.2,53c9.2-3.9,11.7-10.6,17.8-17.5c2.4,1.2,4.8,2.4,7.2,3.6
	c0.4,4.4-4.2,8.3-6.5,11c-13.8,16.7-45.5,17.2-62.2,3.1c-25.5-21.6-18.9-61.2,6.5-77.5C1454.1,606.2,1461,606.1,1470.7,603.9z"/>
<path class="st0" d="M1349.1,603.9c-0.5,0-1,0-1.4,0c-3.7,5.2-36,90.7-35.5,92.2c13.4,3.4,13.8-14.7,18.5-22.3
	c9-0.1,18.1-0.2,27.1-0.2c2.2,4.9,4.5,9.8,6.7,14.6c1.2,2.6,2.4,5.1,3.6,7.7c5.9,0.1,11.8,0.2,17.8,0.2
	C1387,693.4,1353.6,613.2,1349.1,603.9z M1353.9,665.3c-6.6-0.2-13.1-0.3-19.7-0.5c3-8.3,6.1-16.6,9.1-25c2.3,0.6,10.9,21.1,11,25
	C1354.2,665,1354,665.2,1353.9,665.3z"/>
<path class="st0" d="M1403.8,679.5c10.9,1,12.9,16.7,1.7,18.2C1392.5,699.5,1391.7,683.3,1403.8,679.5z"/>
<path class="st0" d="M1526.9,679.2c10.2,0.5,13.5,15.4,3.6,18C1517.4,700.7,1514.1,683.5,1526.9,679.2z"/>
<path class="st1" d="M1520.2,708.3c12.9,0.3,0.4,18.1-2.4,20.4c-0.7-0.2-1.4-0.3-2.2-0.5c-0.2-0.7-0.5-1.4-0.7-2.2
	c1.1-2,2.2-4,3.4-6c-0.7-2.6-1.4-5.1-2.2-7.7C1517.5,711,1518.8,709.6,1520.2,708.3z"/>
<g>
	<path class="st0" d="M1506.5,708.5c11.5,0.2,3,20.1-3.8,19.9C1501.2,727.2,1503.3,710.4,1506.5,708.5z"/>
	<path class="st1" d="M62.9,708.7c2.2,0.3,2.8,0.9,3.1,3.1c-1,1.8-1.9,3.7-2.9,5.5c-0.6,4.3,4.2,12.7-4.6,11.3
		C49.9,724.2,59.6,711.5,62.9,708.7z"/>
	<path class="st1" d="M76.3,708.7c0.8,0.2,1.6,0.5,2.4,0.7c0.9,3.8-1.5,4.3-2.2,7.2c-1.4,6.3,3.3,7.9-1.7,12.5
		C60.6,731.6,73.7,711,76.3,708.7z"/>
	<path class="st0" d="M442.1,709c1.1,0.4,2.2,0.8,3.4,1.2c1.7,5.2,1.3,35.6-0.5,39.8c-1.8,0.7-3.6,0.9-5.3,0
		c-1.7-4-1.9-35.2-0.5-39.6C440.2,710,441.1,709.5,442.1,709z"/>
	<path class="st0" d="M634.8,709c0.9,0.3,1.8,0.6,2.6,1c1.5,8.8,2.1,31.6,0,40.1c-1.6,1-3.9,1.1-6,0.5c-1.5-2.8-1.2-38.6,0-40.8
		C632.6,709.5,633.7,709.2,634.8,709z"/>
	<path class="st0" d="M454.6,709.2c1.1,0.2,2.2,0.3,3.4,0.5c2.2,4.1,1.9,36.9-0.2,40.6c-2.3,0.7-3.5,0.6-5.5-0.2
		c0-13.2,0-26.4,0-39.6C453,710,453.8,709.6,454.6,709.2z"/>
	<path class="st0" d="M898.8,709.5c1,0.4,1.9,0.8,2.9,1.2c1.3,5.8,1.9,35.2-0.2,39.6c-1.8,0.2-3.5,0.3-5.3,0.5
		c-0.2-0.2-0.5-0.5-0.7-0.7c-1.4-4.5-1.6-35.8,0-39.6C896.6,710.1,897.7,709.8,898.8,709.5z"/>
	<path class="st0" d="M1145.3,710.7c5.9,0.6,5.4,8.6-0.5,8.9C1140.1,717.4,1141.2,712.7,1145.3,710.7z"/>
	<path class="st0" d="M593.1,710.9c1.3,0.2,2.6,0.3,3.8,0.5c2.7,2.9,1.6,8-3.1,8.2c-0.8-0.5-1.6-1-2.4-1.4
		C589.9,715,591.1,712.6,593.1,710.9z"/>
	<path class="st0" d="M739.7,714.8c1,0.3,2.1,0.6,3.1,1c0.5,2.2,1,4.3,1.4,6.5c2.1,0.5,4.2,1,6.2,1.4c0.6,6.9-4.5,3.1-7.2,6.7
		c-2.2,2.9-1,12.2,1.2,13.9c2.2,0.6,4.5,1.1,6.7,1.7c0.2,2,0,3-1.2,4.1c-1.6,1.4-4.6,1.6-7,1c-8.9-2.4-5.9-10.6-7.2-19.9
		c-0.5-3.4-4.7-2.1-3.8-7c4.1-2.3,4.4-3,5.5-8.4C738.3,715.4,739,715.1,739.7,714.8z"/>
	<path class="st0" d="M819.4,714.8c5.9-0.1,3.8,4.1,5.5,7.4c1.9,0.6,3.8,1.1,5.8,1.7c0.2,1.2,0.3,2.4,0.5,3.6
		c-1.6,1.4-4.9,1.5-7.2,2.2c-2,3.7-1.2,12.6,1.4,15.4c2.2,0.4,4.3,0.8,6.5,1.2c0,0.2,0,0.3,0,0.5c0,1.7-0.5,3-1.9,3.8
		c-14.9,8.8-11.2-11.7-13.4-19.4c-0.9-3-4.1-2-4.3-6.2c1.5-1,3-1.9,4.6-2.9C818.4,719.5,817.3,716.7,819.4,714.8z"/>
	<path class="st0" d="M92.7,712.4c-1.8,0.3-3.5,0.6-5.3,1c-1.7,4.5-1.5,33.9,0.2,37.2c2.1,0.7,4.1,0.2,5.8-0.7
		c0.3-4.2,0.6-8.5,1-12.7c4.8-1.4,9.6-2.9,14.4-4.3c2.3-1.5,3.3-4.7,3.8-7.9C114.8,712.2,103.3,712.6,92.7,712.4z M94.1,729.6
		c0.1-3.6,0.2-7.2,0.2-10.8c0.8-0.4,1.6-0.8,2.4-1.2c4.9-0.3,8.4,1.5,9.1,5.3C107.1,729.2,98.8,732.4,94.1,729.6z"/>
	<path class="st0" d="M722.2,721c2.2,0.6,4.3,1.3,6.5,1.9c-0.4,1.5-0.8,3-1.2,4.6c-3.6,0.2-9.1-1-10.3,2.4c3.8,5,11.3,3.3,12.5,11.3
		c1.6,10.6-13.5,13.9-20.2,8.2c0.3-1.4,0.6-2.7,1-4.1c3-0.8,11.3,1.8,13-1.4c1.3-2.6-12.6-6-13.7-12.7
		C708.3,722.8,716.3,722.6,722.2,721z"/>
	<path class="st0" d="M1145.1,721c1,0.4,2.1,0.8,3.1,1.2c1.1,5.6,1.1,25.1-1,28.1c-1.5-0.1-3-0.2-4.6-0.2
		c-2.6-3.6-2.3-21.5-1.4-27.4C1142.5,722.1,1143.8,721.6,1145.1,721z"/>
	<path class="st0" d="M377.8,721.2c6,0,25.1,0.3,27.4,2.4c-0.5,1.4-1,2.9-1.4,4.3c-16.3,3.3-7.5,7.3-10.8,22.1
		c-1.8,0.1-3.7,0.2-5.5,0.2c-0.6-7.8-1.1-15.5-1.7-23.3c-23.9,5.4-5.1,9.4-13,23.5c-1.7-0.1-3.4-0.2-5-0.2c-2-3.1-2.7-23.7-0.7-27.8
		C371.5,721.1,374.3,723.3,377.8,721.2z"/>
	<path class="st0" d="M518.2,721.2c3.6-0.1,7,0,9.1,1.2c0.2,0.2,0.3,0.5,0.5,0.7c-0.4,7.5-6.8,2.9-11.8,5c1.1,7.9,16.8,6,12.2,17.8
		c-2.8,7.1-24.5,7.7-19-1.4c4.4-0.4,8.3,1.3,12.7-0.2c0.1-0.2,0.2-0.3,0.2-0.5c-0.2-0.9-0.5-1.8-0.7-2.6
		C509.6,737.3,500.3,726.5,518.2,721.2z"/>
	<path class="st0" d="M578.9,721.2c3.1-0.1,4.6,0.5,6.2,1.7c0.1,1.3,0.2,2.6,0.2,3.8c-0.2,0.3-0.5,0.6-0.7,1c-3-0.1-5.9-0.2-8.9-0.2
		c-5.4,2.3-5.8,13.5-1,16.8c2.9,2,7.8,0.6,11.3,1c0.2,0.3,0.5,0.6,0.7,1c-0.4,11.2-17.5,3-20.2-0.5C558,734.4,568,723.8,578.9,721.2
		z"/>
	<path class="st0" d="M592.8,721.2c1.4,0.2,2.9,0.5,4.3,0.7c1.3,2.9,0.7,27.1-0.2,28.6c-1.6,0.4-4.7,0.7-5.8-0.7
		c-0.2-9.1-0.3-18.2-0.5-27.4C591.4,722,592.1,721.6,592.8,721.2z"/>
	<path class="st0" d="M664.1,721.2c3.5,0.4,7,0.8,10.6,1.2c-0.2,1.4-0.5,2.9-0.7,4.3c-3.5,0.6-7,1.1-10.6,1.7c0,0.6,0,1.1,0,1.7
		c3.1,4.9,11.4,3.6,12.7,10.6c2.1,10.8-14.9,14.4-20.9,8.4c0.2-1.1,0.5-2.2,0.7-3.4c3.5-2,9.4,0.7,13.4-1.4c0.1-0.2,0.2-0.5,0.2-0.7
		C667.1,738.4,643,730.3,664.1,721.2z"/>
	<path class="st0" d="M1020.5,721.2c13.5,0,15,15.8,11.3,28.6c-1.7,0.2-3.4,0.5-5,0.7c-4.1-7,5-27.1-10.1-22.6
		c-3.9,5-0.7,15.4-3.1,21.8c-1.8,1-3.5,1-5.5,0.2c-2.1-4.8-2.1-21.8-1-26.6C1011.3,721.4,1016.1,722.8,1020.5,721.2z"/>
	<path class="st0" d="M1402.1,721.2c13.4-0.5,13,7.3,13,18.5c0,4.9,0.8,8.2-1.9,10.8c-1.4-0.1-2.9-0.2-4.3-0.2
		c-3.3-6.7,1.5-15.6-1.9-21.8c-15-5-7.7,13-10.8,21.8c-0.3,0.2-0.6,0.5-1,0.7c-1.6-0.4-3.2-0.8-4.8-1.2c-1-1.2-0.9-25.3,0-27.1
		C1394.6,721.7,1398.6,722.8,1402.1,721.2z"/>
	<path class="st0" d="M150,721.5c4.9,0,12.4-0.4,16.3,1.7c0.6,2.5-0.5,4-1.9,5.3c-15-1.3-5.8,12.1-10.8,21.8
		c-1.4,0.1-2.9,0.2-4.3,0.2c-0.3-0.2-0.6-0.5-1-0.7c-0.2-9.1-0.3-18.2-0.5-27.4C148.6,722.1,149.3,721.8,150,721.5z"/>
	<path class="st0" d="M224.2,721.5c12.5,0.6,13.6,6.9,12.2,19.7c-0.2,3-0.5,6.1-0.7,9.1c-2,0.6-4.1,0.4-5.8-0.5
		c-1.8-6.8,4.5-30.8-10.6-20.2c-2.2,5.5,1,15.1-1.4,20.6c-2.1,1.1-4.6,0.7-6.2-0.5c-0.3-8.7-0.6-17.4-1-26.2
		C214.3,721.4,220,723,224.2,721.5z"/>
	<path class="st0" d="M323.3,721.5c4.1-0.2,7.4,0.1,9.6,1.7c0.1,1.1,0.2,2.2,0.2,3.4c-0.2,0.2-0.3,0.5-0.5,0.7
		c-3.7,0.7-7.5-0.4-11,1.2c-0.1,0.5-0.2,1-0.2,1.4c4.1,4.6,11.8,4.3,13,12c1.5,9.8-14.4,12.1-21.1,7.7c-0.3-2.2,0.2-3.3,1.2-4.8
		c4-0.3,8.9,1.5,12.7-0.5c0.1-0.2,0.2-0.3,0.2-0.5c-0.2-0.8-0.3-1.6-0.5-2.4c-3.1-1.5-6.2-3-9.4-4.6
		C310.4,731.1,315.8,723.1,323.3,721.5z"/>
	<path class="st0" d="M797.5,721.5c14-0.4,15.2,15.6,11.5,28.3c-2.2,1.2-4.6,0.9-6.5-0.5c-0.7-7,3.7-28-8.9-21.4
		c-8,4.2,4.9,23.7-8.4,22.8c-1.1-1.5-2-23.5-1.4-27.1C787.8,721.2,792.9,722.9,797.5,721.5z"/>
	<path class="st0" d="M961,721.5c3.6-0.1,7,0.1,9.1,1.4c-0.2,1.5-0.5,3-0.7,4.6c-3.4,0.4-6.9,0.8-10.3,1.2
		c-4.5,3.1-3.9,12.7,0.5,15.4c4,0.6,8,1.1,12,1.7c0.2,0.7,0.3,1.4,0.5,2.2c-4.4,6.9-17.7,2-20.9-2.6
		C944.2,735.1,952.2,724.4,961,721.5z"/>
	<path class="st0" d="M1454.2,721.5c4.6,1,9.1-0.4,13.4,1.4c-0.2,1.7-0.5,3.4-0.7,5c-20,4.3-3.3,11.3-11,22.8
		c-2.3,0.5-3.7-0.4-5-1.4c-1.8-5.9-2.4-23.1-0.2-27.1C1451.8,722,1453,721.7,1454.2,721.5z"/>
	<path class="st0" d="M701.8,721.7c5,1.5,4.1,28.5,2.4,29.3c-2.5-0.2-5-0.5-7.4-0.7c-15.2,2.9-15.2-1.1-16.1-14.9
		c-0.1-4.1-0.2-8.2-0.2-12.2c1.4-0.9,3.3-1.2,5.5-0.7c3.9,8-3.4,29.4,11.5,21.6c0.4-7,0.8-14.1,1.2-21.1
		C699.7,722.5,700.7,722.1,701.8,721.7z"/>
	<path class="st0" d="M182.4,722c2.5-0.1,3.5,0.3,4.8,1.2c1.4,6.5-1.2,30.6,10.8,20.9c4.5-3.6-5.7-27.4,7-21.1
		c1.3,4.3,1.7,23.1,0.2,26.9c-2.6,1.3-4.7-0.2-8.2,0.5c-4.1,0.8-9.3,1.8-13-0.7C180.7,747.2,178.2,725.5,182.4,722z"/>
	<path class="st0" d="M1113.6,722c1.4,0.3,2.7,0.6,4.1,1c1.7,7.5-1.6,17.7,3.1,22.1c3.4,0.7,6-0.2,7.9-1.7c1.6-6-1-15.6,1.7-20.9
		c1.6,0.1,3.2,0.2,4.8,0.2c1.8,3.8,0.8,27.4,0,27.8c-2.5-0.2-5-0.3-7.4-0.5c-12.1,1.7-17.8-1.2-16.3-16.1c0.1-3.7,0.2-7.4,0.2-11
		C1112.3,722.6,1113,722.3,1113.6,722z"/>
	<path class="st0" d="M1481.8,721.2c-5.2,2.3-9.8,4.6-12,9.8c-4.6,10.8,4.3,22.2,15.1,20.4C1501.7,748.6,1502.6,720.8,1481.8,721.2z
		 M1484.7,746c-11,2.3-9.9-15.8-1.7-19.7C1490.8,728.1,1493.9,744,1484.7,746z"/>
	<path class="st0" d="M279.4,710.2c-1.4-0.4-2.7-0.8-4.1-1.2c-3,1.9-2.7,6.3-2.4,11.3c-0.3,0.4-0.6,0.8-1,1.2
		c-4.6,0.7-8.4-0.4-12,1.9c-16.4,10.3-4.4,33.4,19.2,26.9C280.9,747,281,714.8,279.4,710.2z M269.8,745.2
		c-11,2.7-12.4-15.6-2.2-18.7C275.3,727.3,276.3,743.7,269.8,745.2z"/>
	<path class="st0" d="M292.6,739.5c0.2-0.3,0.5-0.6,0.7-1c5.4-0.4,10.7-0.8,16.1-1.2c5.9-8.8-3.9-16.6-13-16.1
		c-28.1,10.5,3.6,43.6,13.7,26.6c-0.3-0.9-0.6-1.8-1-2.6C302.9,745,293.9,746.6,292.6,739.5z M297.6,726.5c3.1,0.2,4.4,1.4,5.5,3.6
		c-0.1,0.6-0.2,1.1-0.2,1.7c-2.1,1.2-6.2,1.5-8.9,0.7C291.9,729.3,294.7,727.5,297.6,726.5z"/>
	<path class="st0" d="M762,738.8c5.1-1.3,12.9,0.2,16.8-1.9c3.3-9.7-3.4-15-11-15.8c-9.6,2.6-21.7,17-10.1,26.6
		c3.3,2.7,23.3,8.3,20.4-1.9c-0.1-0.2-0.2-0.3-0.2-0.5c-5.6-1.1-16.8,2.6-16.1-6C761.9,739.1,761.9,738.9,762,738.8z M766.8,726.5
		c3.7-0.1,6.3,2.9,4.6,6c-3,0.1-5.9,0.2-8.9,0.2C760.4,729.3,763.9,727.7,766.8,726.5z"/>
	<path class="st0" d="M932.2,737.1c5.2-9.1-4.4-16.3-13.4-15.8c-7.4,2.6-16,12.8-9.8,23.3c2.3,4,23.1,13.3,23,1.4
		c-5.5-3.3-12,0-16.6-4.6c0-0.8,0-1.6,0-2.4C921,738.4,926.6,737.7,932.2,737.1z M915.1,730.6c0.7-2.2,1.9-3,3.8-4.1
		c4.1-0.2,6.6,1.7,6,5.3c-2.6,1.3-6.1,1.6-9.1,0.7C915.6,731.9,915.4,731.2,915.1,730.6z"/>
	<path class="st0" d="M987.1,721.2c-19.7,6.3-15.7,36.4,7.7,29C1006.9,746.5,1006.2,720.5,987.1,721.2z M990.5,746
		c-12,2.7-10.4-16.2-2.9-19.4C997.4,726,997.6,744.3,990.5,746z"/>
	<path class="st0" d="M1105.2,722.4c-4.6-0.4-9.3-0.8-13.9-1.2c-12.5,3.9-19.1,21.3-6,28.8c3.5,2,8.5,0.6,13,1.2
		c0.2,3.8,0.5,7.5,0.7,11.3c2.2,1.4,4.6,1.3,6.7-0.2C1105.5,749,1105.4,735.7,1105.2,722.4z M1098.3,743.3
		c-12,8.9-16.6-10.5-6.2-16.8C1099.9,726.2,1101.1,737.2,1098.3,743.3z"/>
	<path class="st0" d="M1238.2,710.4c-1.4-0.4-2.9-0.8-4.3-1.2c-3.1,2.8,0,8-2.6,11.3c-2.7,3.4-13.6-1.6-18.2,10.1
		c-0.1,0.2-0.2,0.5-0.2,0.7c-4.9,15.9,7.2,20.3,17.8,19c3.3-0.4,4.8,1.4,7.7,0C1240.1,745.3,1239.6,716.6,1238.2,710.4z
		 M1231.7,743.8c-10.6,7.7-18.2-11.1-5.3-17.3c1.3,0.2,2.6,0.5,3.8,0.7C1232.3,730.2,1233.4,739.7,1231.7,743.8z"/>
	<path class="st0" d="M1281.9,709.7c-1.3-0.2-2.6-0.3-3.8-0.5c-2.9,2.7-1.4,7.2-2.4,11.5c-4,1.9-10.3,0.1-13.7,2.9
		c-15.4,12.8-0.4,35.1,20.2,26.6C1283.6,747.8,1283.5,712.3,1281.9,709.7z M1275.9,743.3c-11.2,8.2-18.3-10.6-5.3-16.8
		C1277.5,726.7,1278.3,736.9,1275.9,743.3z"/>
	<path class="st0" d="M128.2,721.5c-18.5,5.1-16.2,33.2,2.4,30.2C146.7,749.2,148.5,721,128.2,721.5z M130.6,746
		c-9.7,1.9-11.3-15.4-2.2-19.2C137.9,726.7,138.6,744.4,130.6,746z"/>
	<path class="st0" d="M418.1,721.5c-16,5.4-16.1,32.8,3.4,29.8C439,748.5,440.4,721,418.1,721.5z M422.2,745.7
		c-11.7,2.7-9.7-15.6-3.1-19C429,726.3,429.9,744,422.2,745.7z"/>
	<path class="st0" d="M544.6,721c-18.6,7.6-16,34.3,3.4,30.5C564.7,748.2,564.7,720.8,544.6,721z M547.5,746
		c-11.1,2.8-9.7-16.2-2.6-19.2C555.6,726.3,555.7,743.9,547.5,746z"/>
	<path class="st0" d="M1368.5,742.6c-0.2-1-0.3-1.9-0.5-2.9c0.2-0.3,0.5-0.6,0.7-1c5.3-0.6,10.6-1.3,15.8-1.9
		c3.6-7.9-2.6-12.6-7.4-15.4c-0.2-0.6-0.3-1.1-0.5-1.7c1.4-1.9,11.3-9.4,4.3-10.3c-6.7,2-26.9,24.1-19.4,35
		c2.9,4.2,23,13.9,23.3,1.4c-0.1-0.1-0.2-0.2-0.2-0.2C1379.8,743.1,1373,745.8,1368.5,742.6z M1373.5,726.8c2.4,0.4,3.3,1.4,4.3,3.1
		c-0.1,0.7-0.2,1.4-0.2,2.2c-2.4,1.4-5.6,1.5-8.6,0.7c-0.3-0.4-0.6-0.8-1-1.2C1368.8,728.7,1370.7,727.6,1373.5,726.8z"/>
	<path class="st0" d="M476.4,721.5c-17,4.6-16.3,33.1,2.9,30C496.2,748.8,497.8,720.6,476.4,721.5z M478.8,746
		c-11,1.8-8.1-15.9-2.4-19C487.5,726.5,488,744.5,478.8,746z"/>
	<path class="st0" d="M1057,738.8c0.1-0.1,0.2-0.2,0.2-0.2c5.4-0.3,10.9-0.6,16.3-1c6.1-7.4-3.4-16-11.3-16.3
		c-9.1,2.1-17,10.5-12.2,22.1c2.2,5.3,21.7,14.5,24.2,3.4c-0.2-0.4-0.3-0.8-0.5-1.2C1067.1,744.4,1057.2,747.2,1057,738.8z
		 M1061.5,727c3.4-0.2,4.6,0.5,5.8,2.6c0.5,4.2-6.1,4-9.4,2.9c-0.2-0.6-0.5-1.3-0.7-1.9C1058.7,729.4,1060.1,728.2,1061.5,727z"/>
	<path class="st0" d="M1179.1,710c-1.2-0.2-2.4-0.5-3.6-0.7c-0.7,0.4-1.4,0.8-2.2,1.2c-0.4,3.3-0.8,6.6-1.2,9.8
		c-3.5,1.9-9.8,1.1-12.7,3.4c-9.4,7.2-7.6,26.5,5.5,28.1c4.8-0.6,9.6-1.1,14.4-1.7C1179.9,749.5,1180.4,712.6,1179.1,710z
		 M1168.1,745.5c-10.2-1.1-9.5-15.8-1-18.5c1.4,0.1,2.7,0.2,4.1,0.2C1174.4,731.2,1176.5,746.4,1168.1,745.5z"/>
	<path class="st0" d="M1295.3,740.2c0.2-0.5,0.3-1,0.5-1.4c5.4-0.5,10.9-1,16.3-1.4c6-8.6-4.6-16.2-12.5-16.1
		c-9.9,3.1-19.4,18.6-7.7,26.9c3.8,2.7,20.5,7.3,20.4-2.2C1307.1,742.8,1297.3,748,1295.3,740.2z M1298.7,727c3.9-0.2,5.7,0.5,7,2.9
		c-0.2,0.7-0.3,1.4-0.5,2.2c-2.6,1.1-6.2,1-9.4,0.5c-0.2-0.3-0.5-0.6-0.7-1C1295.5,728.9,1296.7,728.1,1298.7,727z"/>
	<path class="st0" d="M871.5,722.2c-0.2-0.2-0.3-0.3-0.5-0.5c-0.2-3.8-0.3-7.5-0.5-11.3c-1-0.4-2.1-0.8-3.1-1.2
		c-1.3,0.6-2.6,1.1-3.8,1.7c0.2,13,0.5,25.9,0.7,38.9c4.2,0.6,8.3,1.3,12.5,1.9C895.3,749.2,898.3,719.7,871.5,722.2z M871.5,744
		c-2.2-6.1-1.5-14.3,2.9-16.8C889.6,726.5,883.1,753.4,871.5,744z"/>
	<path class="st0" d="M359.8,725.1c-2.1-3.1-8.1-3.8-13.2-3.8c-4,0.7-7,0.6-7.7,4.8c0.3,0.4,0.6,0.8,1,1.2c5,0.8,9.7-0.7,13.7,1.9
		c0,0.7,0,1.4,0,2.2c-6.8,3.1-15,3-16.3,11.5c-1.4,9.3,20.4,10.1,23.8,7.2C361.4,749.7,361,726.8,359.8,725.1z M344.9,741.6
		c1.3-2.2,2.5-2.8,5-3.8c1.2,0.2,2.4,0.3,3.6,0.5c0.4,1.3,0.8,2.6,1.2,3.8C353.1,745.5,345.5,747.2,344.9,741.6z"/>
	<path class="st0" d="M613,721.2c-4.8,0.9-7.9-0.1-9.8,3.6c0,0.7,0,1.4,0,2.2c0.2,0.2,0.5,0.5,0.7,0.7c4.2,0,8.5,0,12.7,0
		c0.5,0.7,1,1.4,1.4,2.2c-0.1,0.6-0.2,1.3-0.2,1.9c-6.9,2.6-18.9,1.8-16.1,13.7c1.6,6.7,17.3,8.1,23.3,4.3
		C627.6,737.7,626.7,721,613,721.2z M618.3,743.6c-2.5,1.9-6.3,2.6-9.1,0.5c-0.2-1-0.3-2.1-0.5-3.1c1.8-1,3.5-2.1,5.3-3.1
		C617.6,737.8,619,740,618.3,743.6z"/>
	<path class="st0" d="M841.5,720.8c-2.8,1.5-6,1.9-6.2,6c0.2,0.3,0.5,0.6,0.7,1c5,0,11.2-2.2,14.4,2.2c-2,6.2-15,0.9-16.6,12.7
		c-1.4,10.8,16.5,10.3,23.5,7.4c0-3.8,0-7.7,0-11.5C856.5,725.4,855.9,720.4,841.5,720.8z M841.2,744c-0.2-0.9-0.3-1.8-0.5-2.6
		c1.7-1.9,3.3-2.6,6-3.6c1,0.2,2.1,0.5,3.1,0.7c0.3,1.7,0.6,3.4,1,5C848.4,745.7,844.1,746.1,841.2,744z"/>
	<path class="st0" d="M1207,740.4c-1.2-11.6,2.1-19.8-13-19.4c-4.5,0.8-7.6,0.5-8.4,5c0.2,0.4,0.5,0.8,0.7,1.2
		c4.7,0.5,10.1-0.7,13.7,1.7c0.1,0.7,0.2,1.4,0.2,2.2c-0.1,0.1-0.2,0.2-0.2,0.2c-6.2,2.9-17.9,2.6-16.6,12.7
		c1.3,9.5,15.4,6.7,22.8,7C1208.9,748.2,1207.3,744,1207,740.4z M1200.3,743.8c-2.9,2-6.8,1.5-9.4-0.5c-0.1-0.5-0.2-1-0.2-1.4
		c1.6-2.2,3.3-2.9,6-4.1c1.1,0.1,2.2,0.2,3.4,0.2C1201.1,739.7,1201.2,741.8,1200.3,743.8z"/>
	<path class="st0" d="M1357.9,723.2c0-1,0-2.1,0-3.1c-1.4-0.6-2.9-1.3-4.3-1.9c-1.8,1.3-3.7,2.6-5.5,3.8c-6.8,1.9-12-1.9-16.3,3.1
		c-5.5,6.4,1.6,14.2-0.7,22.6c-0.9,3.2-4,4.3-3.6,8.6c0.1,0.4,0.2,0.8,0.2,1.2c0,0.2,0,0.5,0,0.7c1.1,3.7,4.2,5.2,7.7,6.7
		c-1,0.1-2.1,0.2-3.1,0.2c5,1,11.5,1,16.6,0c-1.1-0.1-2.2-0.2-3.4-0.2c0-0.1,0-0.2,0-0.2c6-0.4,16.7-10.2,9.8-16.6
		c-3.9-3.7-12.5-2.1-18-4.3c0.1-0.6,0.2-1.1,0.2-1.7C1362.3,738.7,1346,731.4,1357.9,723.2z M1337.5,750.8c3.6,0.2,7.2,0.5,10.8,0.7
		c0.6,1.2,1.1,2.4,1.7,3.6c-3.4,6.4-12.2,5.7-16.1,0.5C1334,752.3,1335.1,751.6,1337.5,750.8z M1335.6,732.3
		c0.4-3.3,2.4-4.3,4.8-5.5c4.5-0.1,6.7,2.2,6.5,6.7C1343.7,737.7,1338.1,736.4,1335.6,732.3z"/>
	<path class="st0" d="M1427.8,740.7c0.2-4.8,12.4-2.2,16.3-2.9c5-7.7-2.2-16.7-10.8-16.3c-9.7,2.1-14.9,6.4-12.7,18.2
		c0.6,3.1,0.9,6,2.9,7.7c3.5,2.8,21.2,8.6,21.4-1.2c-0.2-0.3-0.5-0.6-0.7-1C1437.9,743.7,1431.2,746.6,1427.8,740.7z M1432.1,726.5
		c3.4,0.2,5.5,1.6,5.8,5c-0.2,0.2-0.5,0.5-0.7,0.7c-2.8,0.2-5.6,0.3-8.4,0.5C1425.9,729.8,1429.3,727.5,1432.1,726.5z"/>
</g>
<path class="st0" d="M687.9,766.6c82.7,0.5,165.4,1,248.2,1.4c41.5,0.5,83,1,124.6,1.4c12.6,0.3,25.3,0.6,37.9,1
	c10.7-0.1,21.4-0.2,32.2-0.2c44.2,1.3,88.3,2.6,132.5,3.8c51.3,1.7,102.6,3.4,153.8,5c14.7,1.5,49.5-1.6,59.5,3.6
	c-8.9,5.4-30.2,1.5-40.8,3.8c36.7,1.5,73.4,3,110.2,4.6c9,0.9,21.5-1,28.6,2.4c-5.2,3.4-16.7,1.4-24.2,2.2
	c-24.1,1-48.2,1.9-72.2,2.9c-14.5,0.4-29,0.8-43.4,1.2c-28.8,2.9-60.8,1.7-91.7,1.7c-47,0.1-94.1,0.2-141.1,0.2
	c-243.7-0.2-487.5-0.5-731.3-0.7c-46.3,0.1-92.6,0.2-139,0.2c-26-0.5-52-1-78-1.4c-16.3-0.5-32.6-1-49-1.4
	c-25.2-1-50.4-1.9-75.6-2.9c-7.8-0.6-15.5-1.1-23.3-1.7c0.1-0.2,0.2-0.3,0.2-0.5c15.1-1.1,30.2-2.2,45.4-3.4
	c-34.1-1.5-68.2-3-102.2-4.6c-8.5-0.9-35.6,1.1-39.4-3.1c44.9-1.8,89.8-3.7,134.6-5.5c71.7-2.1,143.4-4.2,215-6.2
	c29.7-0.4,59.4-0.8,89-1.2c25.2-0.3,50.4-0.6,75.6-1C578.6,767.7,633.2,767.2,687.9,766.6z"/>
</svg>
