<?xml version="1.0" encoding="utf-8"?>
<!-- Generator: Adobe Illustrator 25.0.0, SVG Export Plug-In . SVG Version: 6.00 Build 0)  -->
<svg version="1.1" id="Capa_1" xmlns="http://www.w3.org/2000/svg" xmlns:xlink="http://www.w3.org/1999/xlink" x="0px" y="0px"
	 viewBox="0 0 1806.37 616.29" style="enable-background:new 0 0 1806.37 616.29;" xml:space="preserve">
<g>
	<g>
		<g>
			<path d="M457.55,262.48c-25.44-49.85-51.68-99.29-77.58-148.9c-3.58-6.85-9.17-4.77-11.27-2.67
				c-29.7,20.59-40.85,59.53-23.87,93.15c14.27,28.24,29.62,55.93,43.59,84.32c9.74,19.78,19.38,57.58,19.59,73.74
				c0.04,3.26-0.07,6.47-0.31,9.65c14.17-3.92,30.27-6.38,48.57-6.85l6.86-0.18l-0.09,6.86c-0.02,1.09-0.53,26.94-14.9,56.49
				c-13.22,27.19-38.86,62.52-99.28,77.17l-6.88,0.79c-43.85-1.06-101.87-13.94-136.83-67.7c-20.9-32.15-23.16-63.48-23.24-64.8
				l-0.44-6.84l6.86-0.17c15.62-0.39,29.68,0.78,42.37,3.11c-0.11-1.73-0.17-3.48-0.2-5.24c-0.24-18.76,7.76-52.69,20.76-76.27
				c6.35-11.51,12.27-23.24,18.42-34.86c25.29-47.75,50.81-95.38,75.76-143.31c10.7-20.56,6.11-42.58-11.06-58.15
				c-7.11-7.11-14.52-5.77-18.93,3.06C275.48,129.95,235.42,204.97,195.37,280c-0.91,1.7-1.88,3.4-2.92,5
				c-3.1,4.81-15.73,1.58-13-7.31c39.98-75.3,79.93-150.62,120.37-225.67c8.73-16.19,3.63-25.1-5.37-34.09
				c-5.62-5.62-12.14-6.84-17.54,2.33c-0.51,0.95-0.98,1.91-1.48,2.86c-44.24,83.03-88.49,166.06-132.74,249.09
				c-2.12,3.99-7.32,12.62-7.69,13.12c-2.79,3.83-16.55,2.38-12.58-7.77c17.5-33.12,35.19-66.14,52.84-99.19
				c21.5-40.26,42.96-80.53,64.54-120.74c3.86-7.19,5.1-14.35,0.29-21.29c-2.78-4.01-6.15-7.85-10.07-10.79
				c-1.91-1.44-7.71-3.24-11.65,2.64c-45.14,84.26-90.3,168.5-135.46,252.75c-0.81,1.51-1.94,3.33-2.63,4.26
				c-4.56,6.23-16.54,0.4-12.47-7.21c31.98-60.04,64.09-120.01,96.23-179.97c7.64-14.26,6.35-21.69-5.93-32.05
				c-3.6-3.6-8.53-4.38-12.8,2.28c-32.04,60-63.8,120.16-96.2,179.97C20.31,301.44,9.85,357.44,21.98,417.04
				c21.74,106.85,117.76,184.52,227.85,185.71c14.72-1.73,29.59-2.63,44.12-5.35c42.01-7.87,79.29-26.1,110.92-54.81
				c45.96-41.72,71.97-93.56,77-155.76C485.42,343.03,477.45,301.47,457.55,262.48z"/>
		</g>
		<g>
			<path d="M316.44,340.89v78.41c3.48,4.36,6.53,8.72,9.19,12.98c1.25-2.03,2.59-4.06,3.99-6.09v-84.6
				c15.53-1.99,44.78-11.39,49.86-53.66c0,0-41.11-3.28-56.03,40.28c-11.35-25.43-36.84-23.4-36.84-23.4
				C289.67,330.18,305.39,338.32,316.44,340.89z"/>
		</g>
		<path d="M333.1,445.69c9.62,19.51,13.41,37.37,14.84,46.65c83.37-22.61,98.6-91.66,101.33-113.94
			C409.63,380.78,360.32,395.04,333.1,445.69z"/>
		<path d="M196.01,379.64c1.81,10.46,6.89,31.25,20.51,52c24.44,37.24,64.14,57.7,118.06,60.89c-1.87-10.89-6.97-32.21-20.11-53.24
			C289.97,400.08,250.12,380.02,196.01,379.64z"/>
	</g>
	<g>
		<path d="M647.93,322.74c0,0-44.67,0-44.67-22.34V58.48c2.4,0,44.67-1.03,44.67,25.77v47.77c0,8.59-2.75,20.62-2.75,20.62
			s16.49-13.4,44.33-13.4c36.77,0,68.73,19.24,68.73,59.45v124.06c0,0-44.67-0.69-44.67-22.34v-96.56
			c0-22.34-12.03-31.96-28.52-31.96c-18.56,0-37.11,11.68-37.11,28.52V322.74z"/>
		<path d="M961.68,263.98c0,37.8-26.46,60.48-82.82,60.48c-56.36,0-82.82-22.68-82.82-60.48v-64.26c0-37.8,26.46-60.48,82.82-60.48
			c56.36,0,82.82,22.68,82.82,60.48V263.98z M917.01,204.87c0-20.96-6.53-32.99-38.15-32.99c-31.61,0-38.14,12.03-38.14,32.99v53.95
			c0,20.96,6.53,32.99,38.14,32.99c31.62,0,38.15-12.03,38.15-32.99V204.87z"/>
		<path d="M1109.8,201.09c0-18.21-8.59-28.52-32.99-28.52c-17.53,0-32.65,4.81-32.65,4.81v145.36c0,0-44.67,0-44.67-22.34V139.24
			c0,0,13.4,7.22,30.93,7.22c16.84,0,32.65-7.22,51.2-7.22c19.59,0,40.21,3.78,54.29,14.78c0,0,15.81-14.78,58.76-14.78
			c37.8,0,70.1,19.24,70.1,59.45v124.06c0,0-44.67-0.69-44.67-22.34v-96.56c0-22.34-12.03-31.96-28.52-31.96
			c-18.21,0-36.43,7.9-37.11,24.06v126.8c0,0-44.67-0.69-44.67-22.34V201.09z"/>
		<path d="M1461.02,264.67c0,38.15-28.18,59.79-80.76,59.79c-28.52,0-47.42-11.34-74.23-12.37V58.48c3.09,0,44.67-0.34,44.67,25.77
			v48.45c0,8.59-2.75,19.93-2.75,19.93s15.81-13.4,44.33-13.4c36.77,0,68.73,22.34,68.73,59.45V264.67z M1350.71,286.32
			c4.47,2.06,13.4,5.5,28.87,5.5c28.52,0,36.77-10.65,36.77-32.3v-55.67c0-22.34-12.03-31.96-28.52-31.96
			c-18.56,0-37.11,11.68-37.11,28.52V286.32z"/>
		<path d="M1498.82,300.41V139.58c10.31,5.15,18.9,6.87,26.46,6.87c15.12,0,30.24-7.22,50.51-7.22c24.4,0,46.39,8.93,46.39,32.3
			c0,16.84-13.06,29.55-15.81,33.68c0-21.65-17.18-31.27-37.11-31.27c-11.68,0-21.99,3.09-25.77,3.78v145.02
			C1543.5,322.74,1498.82,322.74,1498.82,300.41z"/>
		<path d="M1632.17,263.98v-64.26c0-37.8,26.8-60.48,75.95-60.48c49.14,0,72.51,22.68,72.51,57.04c0,29.21-17.18,56.36-71.48,56.36
			c-11,0-21.99-2.06-32.3-6.19v12.37c0,20.62,12.37,31.27,38.15,31.27c34.02,0,57.04-14.43,57.39-35.05
			c7.22,10.31,10.65,19.59,10.65,28.18c0,24.74-28.52,41.24-68.04,41.24C1662.75,324.46,1632.17,301.78,1632.17,263.98z
			 M1676.84,214.84c3.44,0.69,15.46,3.09,25.77,3.09c24.74,0,33.33-7.9,33.33-21.65c0-14.43-7.9-24.4-29.21-24.4
			c-23.37,0-29.9,12.03-29.9,32.99V214.84z"/>
		<path d="M678.87,459.95c0-13.39-6.31-20.96-24.25-20.96c-12.88,0-23.99,3.53-23.99,3.53v106.84c0,0-32.83,0-32.83-16.42V414.49
			c0,0,9.85,5.31,22.73,5.31c12.38,0,23.99-5.31,37.63-5.31c26.02,0,53.54,8.84,53.54,41.67v93.2c0,0-32.83-0.51-32.83-16.42V459.95
			z"/>
		<path d="M815.25,456.17c0-9.09-5.05-17.17-24.5-17.17c-21.22,0-40.41,7.32-40.41,28.54c-7.32-9.85-9.6-17.68-9.6-24.5
			c0-21.97,29.55-28.54,50.26-28.54c37.13,0,56.83,15.66,56.83,43.19v92.44c-6.57-3.28-13.13-4.04-19.45-4.04
			c-12.63,0-25.26,4.55-39.65,4.55c-26.01,0-51.52-9.6-51.52-39.65C737.2,463.74,804.89,476.12,815.25,456.17z M816,481.93
			c-5.81,13.39-46.22,6.06-46.22,28.54c0,11.36,8.34,17.17,22.73,17.17c13.39,0,23.49-4.55,23.49-4.55V481.93z"/>
		<path d="M876.62,393.02c6.57,0,32.58,0,32.58,21.47v9.09h51.52c0,0-0.25,24.75-18.69,24.75H909.2v50.77
			c0,16.92,4.8,26.77,23.99,26.77c14.65,0,29.8-6.31,29.8-26.52c6.82,7.58,10.61,14.65,10.61,22.48c0,15.41-14.65,28.79-44.96,28.79
			c-33.09,0-52.03-16.42-52.03-44.45V393.02z"/>
		<path d="M1021.33,505.17c0,13.39,6.31,20.96,24.25,20.96c12.88,0,23.99-3.53,23.99-3.53V415.75c0,0,32.83,0,32.83,16.42v118.46
			c0,0-9.85-5.31-22.73-5.31c-12.38,0-23.99,5.31-37.63,5.31c-26.01,0-53.54-8.84-53.54-41.67v-93.2c0,0,32.83,0.51,32.83,16.42
			V505.17z"/>
		<path d="M1132.45,532.95v-118.2c7.58,3.79,13.89,5.05,19.45,5.05c11.11,0,22.23-5.31,37.13-5.31c17.93,0,34.1,6.57,34.1,23.74
			c0,12.38-9.6,21.72-11.62,24.75c0-15.91-12.63-22.98-27.28-22.98c-8.59,0-16.16,2.27-18.94,2.78v106.59
			C1165.29,549.37,1132.45,549.37,1132.45,532.95z"/>
		<path d="M1306.22,456.17c0-9.09-5.05-17.17-24.5-17.17c-21.21,0-40.41,7.32-40.41,28.54c-7.32-9.85-9.6-17.68-9.6-24.5
			c0-21.97,29.55-28.54,50.26-28.54c37.13,0,56.83,15.66,56.83,43.19v92.44c-6.57-3.28-13.13-4.04-19.45-4.04
			c-12.63,0-25.26,4.55-39.65,4.55c-26.02,0-51.52-9.6-51.52-39.65C1228.18,463.74,1295.86,476.12,1306.22,456.17z M1306.98,481.93
			c-5.81,13.39-46.22,6.06-46.22,28.54c0,11.36,8.33,17.17,22.73,17.17c13.39,0,23.49-4.55,23.49-4.55V481.93z"/>
		<path d="M1366.07,354.63c2.02,0,32.83,0.25,32.83,16.42v130.58c0,13.64,0.25,37.63,17.93,37.63c-6.82,9.09-14.65,10.1-20.96,10.1
			c-20.46,0-29.8-18.44-29.8-39.65V354.63z"/>
		<path d="M1427.69,506.18v-47.23c0-27.78,19.7-44.45,55.82-44.45c36.12,0,53.29,16.67,53.29,41.93c0,21.47-12.63,41.42-52.53,41.42
			c-8.08,0-16.16-1.52-23.74-4.55v9.09c0,15.15,9.09,22.98,28.04,22.98c25,0,41.93-10.61,42.18-25.76
			c5.31,7.58,7.83,14.4,7.83,20.71c0,18.19-20.96,30.31-50.01,30.31C1450.17,550.63,1427.69,533.96,1427.69,506.18z M1460.53,470.06
			c2.53,0.5,11.36,2.27,18.94,2.27c18.19,0,24.5-5.81,24.5-15.91c0-10.61-5.81-17.93-21.47-17.93c-17.17,0-21.97,8.84-21.97,24.25
			V470.06z"/>
		<path d="M1557.25,442.53c0,0,0-25,18.94-25h87.89c-2.27,7.58-3.28,15.41-5.3,23.24c-9.35,34.1-50.26,54.3-68.7,81.83h74.51
			c0,0,0,25-18.94,25h-89.92c-1.52-6.82-1.52-8.84-1.52-10.86c0-40.66,53.55-58.6,70.97-94.21H1557.25z"/>
		<path d="M1756.78,456.17c0-9.09-5.05-17.17-24.5-17.17c-21.21,0-40.41,7.32-40.41,28.54c-7.32-9.85-9.6-17.68-9.6-24.5
			c0-21.97,29.55-28.54,50.26-28.54c37.13,0,56.83,15.66,56.83,43.19v92.44c-6.57-3.28-13.14-4.04-19.45-4.04
			c-12.63,0-25.26,4.55-39.65,4.55c-26.02,0-51.52-9.6-51.52-39.65C1678.73,463.74,1746.42,476.12,1756.78,456.17z M1757.53,481.93
			c-5.81,13.39-46.22,6.06-46.22,28.54c0,11.36,8.33,17.17,22.73,17.17c13.39,0,23.49-4.55,23.49-4.55V481.93z"/>
	</g>
</g>
</svg>
