<?xml version="1.0" encoding="utf-8"?>
<!-- Generator: Adobe Illustrator 25.0.0, SVG Export Plug-In . SVG Version: 6.00 Build 0)  -->
<svg version="1.1" id="Layer_1" xmlns="http://www.w3.org/2000/svg" xmlns:xlink="http://www.w3.org/1999/xlink" x="0px" y="0px"
	 viewBox="0 0 373.01 258.57" style="enable-background:new 0 0 373.01 258.57;" xml:space="preserve">
<style type="text/css">
	.st0{fill:#FFFFFF;}
</style>
<g>
	<g>
		<g>
			<g>
				<g>
					<path d="M153.18,124.31c-2.54-4.97-7.12,2.83-7.89,1.75c-5.89-8.43-9.3-15.61-15.08-21.24c-2.34-2.28-4.27-19.56-5.93-25.41
						c-1.67-5.84-11.69-12.96-11.69-12.96l0.01-3.77c18.8,0.03,19.23-10.83,19.23-10.83c0.83-5-2.5-9.19-5-11.29
						c-2.52-2.08,0-5.84,2.93-7.51c2.92-1.67,2.09-6.69,2.09-6.69c2.51-4.17,8.77,0.43,8.77,0.43c-0.42-4.18-7.93-4.6-7.93-4.6
						c2.08-0.41,2.09-9.6,2.09-9.6c-3.35,5.84-6.27,5.01-6.27,5.01c-32.99-17.18-46.79,2.01-46.79,2.01
						c-6.69-0.84-10.45,4.59-10.45,4.59c1.68-0.83,7.52,2.1,7.52,2.1c-5.02,1.24-7.12,7.92-7.12,7.92l4.6-1.25
						c-6.7,11.68,7.89,25.49,7.89,27.58c0,2.08-0.83,5-0.83,5c2.5,1.26,6.68-2.91,7.94-1.66c1.24,1.27,9.61,0.01,9.61,0.01
						l-0.43,3.77c-10.44-0.01-5.85,7.91-7.54,8.33c-1.67,0.43-3.76,5.85-3.76,5.85c-9.62,6.67-24.7,36.32-25.53,40.07
						c-0.85,3.76-2.1,4.59-2.1,4.59c-10.02,0.82-8.78,7.09-8.36,9.17c0.41,2.09,6.68,4.19,8.76,5.44c2.08,1.26,2.51-2.92,2.51-5.01
						c0-2.08,2.1-2.5,2.1-2.5c4.17-0.83,16.73-14.18,16.73-14.18c-1.69,12.53,2.48,21.72,2.48,24.23c0,2.5,2.44,53.88,3.26,55.56
						c0.84,1.67,1.25,8.36,0.41,10.86c-0.84,2.51-3.77,1.25-4.18,3.76c-0.43,2.5,3.33,3.34,5,4.18c1.67,0.83-0.01,3.34-2.1,5.84
						c-2.09,2.49-2.09,5.83-1.67,8.36c0.41,2.49,10.85,4.6,15.44,4.19c4.6-0.41,5.03-8.35,3.78-9.6c-1.25-1.26-1.66-5.02,0.01-8.36
						c1.68-3.34,0.85-4.18-0.4-5.85c-1.26-1.66,0.83-2.09,2.93-5c2.08-2.92-0.5-34.25-0.49-40.94c0.02-6.68,3.47-2.08,3.88-0.83
						c0.42,1.26,2.05,35.09,1.64,36.76c-0.43,1.67,2.07,5.44,3.32,7.53c1.26,2.08,1.25,15.04-0.02,16.7
						c-1.25,1.67-0.01,7.94,12.53,7.54c12.53-0.4,3.78-19.21,1.27-21.72c-2.5-2.51,2.93-6.27,5.03-7.51
						c2.09-1.25-1.67-5.43-2.09-8.78c-0.4-3.34,0.43-7.93-0.81-10.86c-1.25-2.92,0.01-13.78-0.38-22.13
						c-0.41-8.35-2.06-17.96-4.16-20.9c-2.26-3.12-1.25-4.6-1.25-4.6c1.71-5.7,1.16-12.94,2.83-12.94c1.68,0,9.9,8.08,11.69,10.32
						c1.84,2.31,7.93,5.02,11.71,1.69C156.69,133.61,154.78,127.47,153.18,124.31z M127.38,50.01c0,0-4.76,15.44-14.52,1.95
						C112.86,51.96,121.37,55.35,127.38,50.01z"/>
				</g>
			</g>
		</g>
	</g>
	<g>
		<g>
			<g>
				<g>
					<path d="M249.99,39.61c0,0,0,20.61,12.27,21.08c0,0,8.46-0.85,8.87-7.43c0,0-12.26,3.04-10.57-5.3
						c1.7-8.33-1.27-57.89-33.83-17.62c0,0-3.44-12.18-19.58-14.2c1.02-2.45,4.48-3.94,14.89-1.09
						c24.72,6.75,12.92-12.44,12.92-12.44c-6.11,11.52-9.03,2.6-23.11-1.81c-14.35-4.49-11.08,10.96-9.98,15.06
						c-4.01,0.06-8.67,0.67-14.04,2.08c0,0-11.41,1.72-16.91,8.28c-5.5,6.56-0.66,8.4-7.61,8.75c0,0,6.78,4.83,9.73-2.17
						c0,0-0.85,7.46,6.77,10.99c0,0,1.68,3.96-0.85,4.83c-2.53,0.86-4.66,5.25-3.39,10.95c0,0,0,10.54,19.88,10.59v3.06
						c0,0-14.37,16.19-11.83,28.04c0,0-16.92-3.12-21.15-1.36c0,0-2.96-9.22-5.92-9.23c-2.96-0.01-8.89,3.49-7.2,9.18
						c1.7,5.72,1.7,8.35,5.92,8.36c4.23,0,8.05-1.74,11.01-0.42c2.95,1.33,12.26,8.37,15.63,7.94c0,0-1.68,14.47,4.23,17.11
						c0,0-21.7,32.15-22.12,40.47c0,0,16.08,3.99,23.27-5.2l0.14,39.38c0,0-2.11,5.25-4.66,6.99c-2.53,1.76-7.6,5.25-6.34,9.65
						c1.27,4.38,4.66,6.58,9.31,3.51c4.66-3.05,7.18-7.43,10.14-7.43c2.98,0.02,5.09-5.25,5.08-7.87
						c0.01-2.64-0.99-36.75-0.99-36.75l9.73-6.99c0,0,3.79,14.48,8.03,15.36c4.24,0.89,27.5-14.4,28.76-15.26
						c1.27-0.88,1.27,7.01,3.8,7.9c2.55,0.88,6.36,2.65,8.47-2.61c2.11-5.26,3.37-17.11,2.53-19.73c-0.87-2.63-8.04-6.6-11.85-3.11
						c-3.81,3.5-20.3,15.3-20.3,17.06c0,1.75-5.08-5.72-2.12-7.02c2.96-1.31,23.68-14.85,24.96-22.29c0,0-7.49-1.07-15.1-8.55
						c-7.6-7.48-14.37-7.49-16.49-4.87c0,0-3.8-22.81-1.28-25.01c0,0,19.88,13.21,27.08,14.99c7.18,1.78,7.61,6.61,8.46,8.37
						c0,0,5.92,10.09,10.14,3.96c4.24-6.14,2.12-11.83-1.26-10.54c-3.39,1.32-3.81-1.32-3.81-1.32s-22.42-21.55-34.67-25.54
						c-12.27-3.97-11.28-6.11-11.01-7.49c1.3-6.17,0.8-11.77-1.27-9.21c-2.06,2.56-5.64,0.9-5.92,0.87c-0.27-0.03,0-3.94,0-3.94
						s26.22-1.7,23.67-33.28C230.54,37.36,245.77,26,249.99,39.61z M178.15,59.01c0,0,7.83,3.23,13.35-1.83
						C191.5,57.18,187.15,71.89,178.15,59.01z"/>
				</g>
			</g>
		</g>
	</g>
	<g>
		<path d="M365.37,222.95c-2.31-2.33-5.14-3.95-8.22-4.8c-1.49-5.37-3.98-9.85-7.44-13.33c-5.45-5.52-12.57-8.43-20.54-8.43
			c-8,0-15.18,2.92-20.74,8.44c-0.65,0.65-1.27,1.32-1.85,2.01c-0.71-1.19-1.53-2.3-2.46-3.33c-2.95-3.26-8.41-7.12-17.64-7.12
			c-5.65,0-9.98,1.47-13.21,3.34v-34.26c0-7.29-5.9-13.18-13.2-13.18h-22.26c-4.89,0-9.14,2.65-11.42,6.59
			c-6.57-5.61-15.4-8.46-26.32-8.46c-11.48,0-20.99,3.19-28.3,9.46c-7.42-6.22-16.27-9.46-26.05-9.46
			c-11.76,0-22.12,4.41-29.97,12.72c-1.29,1.37-2.47,2.81-3.55,4.3c-1.14-1.85-2.42-3.59-3.87-5.2
			c-4.85-5.4-13.87-11.83-29.18-11.83c-11.69,0-21.42,3.66-28.97,10.84c-1.76-5.22-6.68-8.97-12.5-8.97H15.43
			c-7.27,0-13.17,5.89-13.17,13.18v74.87c0,7.28,5.9,13.19,13.17,13.19H37.7c2.46,0,4.75-0.68,6.72-1.85
			c1.97,1.17,4.26,1.85,6.72,1.85H73.4c1.7,0,3.32-0.32,4.8-0.91c1.49,0.58,3.1,0.91,4.79,0.91h22.28c2.16,0,4.2-0.53,6-1.45
			c1.8,0.92,3.83,1.45,5.99,1.45h22.27c7.29,0,13.19-5.91,13.19-13.19v-7.66c2.25-1.1,4.13-2.82,5.44-4.93v12.59
			c0,7.28,5.9,13.19,13.18,13.19h22.27c1.77,0,3.45-0.35,4.98-0.99c1.55,0.64,3.23,0.99,5,0.99h22.26c5.57,0,10.34-3.47,12.26-8.37
			c6.71,5.55,15.26,8.37,25.47,8.37h5.92c0.7,0,1.39-0.07,2.07-0.18c1.05,0.27,2.14,0.43,3.28,0.43h9.01c0.69,0,1.36-0.06,2.01-0.15
			c0.66,0.09,1.33,0.15,2.02,0.15h9c0.99,0,1.94-0.12,2.87-0.32c1.84,0.59,3.78,0.91,5.79,0.91c3.63,0,7.08-1.03,10.05-2.94
			c4.03,2.04,8.53,3.1,13.34,3.1c4.88,0,9.39-1.03,13.35-3.01c2.93,1.85,6.35,2.85,9.96,2.85c4.88,0,9.49-1.86,12.98-5.27
			c3.55-3.5,5.51-8.14,5.51-13.12C370.76,231.08,368.84,226.45,365.37,222.95z M357.93,241.49c-1.47,1.48-3.58,2.36-5.67,2.36
			c-0.23,0-0.46-0.01-0.68-0.04c0.68-0.88,1.32-1.79,1.9-2.75c0.95-0.21,1.8-0.67,2.54-1.38c1.03-1.01,1.54-2.24,1.54-3.69
			c0-1.01-0.26-1.92-0.77-2.73c0.28-1.02,0.51-2.07,0.72-3.15c0.11,0.1,0.22,0.19,0.32,0.29c1.47,1.47,2.39,3.6,2.39,5.57
			C360.23,237.98,359.37,240.05,357.93,241.49z"/>
		<path class="st0" d="M362.25,226.04c-2.42-2.43-5.43-3.84-8.77-4.12c-0.04-0.36-0.09-0.72-0.17-1.08
			c-1.22-5.32-3.48-9.68-6.71-12.93c-4.61-4.66-10.64-7.13-17.42-7.13c-6.82,0-12.92,2.48-17.63,7.18
			c-2.82,2.79-4.84,6.07-6.03,9.71c-0.5-4.58-2.04-8.34-4.64-11.19c-2.35-2.59-6.76-5.69-14.38-5.69c-7.6,0-12.27,3.12-14.83,5.72
			c-0.85,0.86-1.75,1.97-2.58,3.33h-0.2v-44.35c0-4.84-3.93-8.79-8.8-8.79h-22.26c-4.86,0-8.8,3.95-8.8,8.79v3.08
			c-0.88-1.41-1.87-2.72-2.95-3.91c-5.94-6.53-14.67-9.82-25.99-9.82c-11.5,0-20.73,3.46-27.46,10.28
			c-0.27,0.27-0.52,0.56-0.78,0.84c-7.19-7.29-16.12-11.11-26.11-11.11c-10.66,0-19.67,3.82-26.77,11.34
			c-3.06,3.24-5.45,6.86-7.17,10.83c-1.5-4.55-3.75-8.5-6.72-11.8c-6.18-6.88-14.9-10.37-25.91-10.37
			c-10.87,0-19.81,3.45-26.6,10.27c-2.47,2.48-4.49,5.25-6.07,8.3v-7.92c0-4.84-3.93-8.79-8.79-8.79H15.43
			c-4.84,0-8.77,3.95-8.77,8.79v74.87c0,4.86,3.93,8.78,8.77,8.78H37.7c2.7,0,5.11-1.22,6.72-3.13c1.61,1.91,4.02,3.13,6.72,3.13
			H73.4c1.78,0,3.42-0.52,4.8-1.41c1.38,0.9,3.03,1.41,4.79,1.41h22.28c2.32,0,4.43-0.91,6-2.38c1.57,1.47,3.68,2.38,5.99,2.38
			h22.27c4.86,0,8.79-3.93,8.79-8.78v-10.84c4.21-0.67,7.4-4.3,7.4-8.69v-20.07c0-1.63-0.45-3.17-1.22-4.49
			c0.27-0.17,0.54-0.34,0.8-0.53l7.31-5.33c-0.03,0.77-0.05,1.54-0.05,2.33v47.62c0,4.86,3.93,8.78,8.78,8.78h22.27
			c1.85,0,3.57-0.56,4.98-1.55c1.43,0.99,3.14,1.55,5,1.55h22.26c4.86,0,8.8-3.93,8.8-8.78v-5.6c1.06,1.63,2.26,3.16,3.61,4.58
			c6.23,6.51,14.75,9.81,25.32,9.81h5.92c0.79,0,1.54-0.11,2.27-0.31c0.96,0.36,1.99,0.56,3.07,0.56h9.01
			c0.69,0,1.38-0.07,2.01-0.23c0.66,0.16,1.33,0.23,2.02,0.23h9c1.06,0,2.06-0.19,3-0.53c1.74,0.75,3.64,1.15,5.66,1.15
			c3.69,0,7.03-1.34,9.69-3.85c3.98,2.62,8.63,3.99,13.7,3.99c5.17,0,9.82-1.35,13.69-3.91c2.59,2.45,5.91,3.76,9.62,3.76
			c3.79,0,7.21-1.4,9.91-4.04c2.74-2.69,4.18-6.12,4.18-9.97C366.36,232.2,364.94,228.76,362.25,226.04z"/>
		<g>
			<path d="M37.7,161.08H15.43c-2.42,0-4.38,1.97-4.38,4.4v74.87c0,2.42,1.97,4.4,4.38,4.4H37.7c2.45,0,4.4-1.97,4.4-4.4v-74.87
				C42.1,163.05,40.15,161.08,37.7,161.08z"/>
			<path d="M79.16,159.22c-9.64,0-17.56,3.03-23.49,8.98c-5.93,5.95-8.94,13.87-8.94,23.56v48.59c0,2.42,1.97,4.4,4.4,4.4H73.4
				c2.42,0,4.4-1.97,4.4-4.4v-47.84c0-1.42,0.19-2.14,0.32-2.44c0.06,0,0.1,0,0.15,0c0.11,0.26,0.33,0.96,0.33,2.44v47.84
				c0,2.42,1.97,4.4,4.39,4.4h22.28c2.42,0,4.39-1.97,4.39-4.4v-47.84c0-10.39-2.65-18.59-7.85-24.39
				C96.49,162.22,88.87,159.22,79.16,159.22z"/>
			<path d="M200.09,159.22c-10.28,0-18.47,3.03-24.32,8.97c-1.41,1.43-2.65,3-3.73,4.7c-0.06-0.1-0.11-0.2-0.19-0.3
				c-6.91-8.88-15.71-13.38-26.12-13.38c-9.4,0-17.34,3.36-23.57,9.97c-6.17,6.54-9.28,14.85-9.28,24.71v46.45
				c0,2.42,1.96,4.4,4.38,4.4h22.27c2.43,0,4.4-1.97,4.4-4.4v-15.13h3.01c2.43,0,4.39-1.97,4.39-4.4v-20.07
				c0-2.42-1.96-4.4-4.39-4.4h-3.01v-4.88c0-1.75,0.32-2.5,0.41-2.7c0.07-0.01,0.19-0.03,0.35-0.03c0.45,0,0.8,0,1.3,1.38
				c0.46,1.3,1.51,2.3,2.85,2.7c1.31,0.41,2.76,0.18,3.88-0.65l15.86-11.59c-1.08,3.65-1.64,7.7-1.64,12.14v47.62
				c0,2.42,1.97,4.4,4.4,4.4h22.27c2.42,0,4.41-1.97,4.41-4.4v-13.44h1.18v13.44c0,2.42,1.97,4.4,4.4,4.4h22.26
				c2.43,0,4.4-1.97,4.4-4.4v-48.38c0-10.73-2.51-18.94-7.44-24.37C217.77,162.04,210.12,159.22,200.09,159.22z M199.21,198.38
				h-1.18v-4.94c0-2.28,0.4-3.15,0.53-3.37c0.07-0.01,0.22-0.01,0.36-0.01c0.13,0.51,0.29,1.52,0.29,3.37V198.38z"/>
			<path d="M359.13,229.14c-1.87-1.88-4.24-2.88-6.87-2.88c-1.09,0-2.13,0.18-3.12,0.52c0.01-0.06,0.02-0.11,0.03-0.17
				c0.09-0.78-0.01-1.55-0.3-2.25c0.29-0.8,0.34-1.67,0.16-2.52c-1.05-4.53-2.92-8.16-5.56-10.82c-3.82-3.86-8.64-5.83-14.3-5.83
				c-5.72,0-10.61,1.97-14.55,5.88c-3.94,3.93-5.95,8.8-5.95,14.5c0,0.42,0.03,0.83,0.05,1.24c-1-0.35-2.06-0.54-3.17-0.54
				c-1.52,0-2.95,0.35-4.25,1v-6.21c0-5.01-1.24-8.93-3.69-11.63c-2.56-2.82-6.3-4.24-11.12-4.24c-4.88,0-8.83,1.47-11.71,4.4
				c-1.43,1.46-2.51,3.19-3.23,5.17c-0.61-0.32-1.29-0.52-2.03-0.52h-1.15c-2.14,0-3.09-0.29-3.43-0.43
				c-0.15-0.34-0.46-1.41-0.46-3.85v-44.48c0-2.42-1.97-4.4-4.4-4.4h-22.26c-2.43,0-4.41,1.97-4.41,4.4v48.05
				c0,9.53,2.7,17.19,8.02,22.75c5.37,5.61,12.82,8.47,22.15,8.47h5.92c0.94,0,1.81-0.3,2.52-0.81c0.76,0.65,1.74,1.05,2.82,1.05
				h9.01c0.72,0,1.41-0.17,2.01-0.49c0.61,0.32,1.3,0.49,2.02,0.49h9c1.15,0,2.19-0.45,2.98-1.17c1.62,1.16,3.55,1.78,5.68,1.78
				c2.62,0,4.97-0.96,6.83-2.77c0.9-0.88,1.59-1.89,2.07-2.98c0.03,0.03,0.05,0.06,0.08,0.08c3.86,3.86,8.72,5.81,14.41,5.81
				c5.6,0,10.25-1.75,13.84-5.22c0.22-0.21,0.41-0.44,0.62-0.65c0.46,1.1,1.13,2.1,2,2.97c1.82,1.8,4.19,2.76,6.86,2.76
				c2.62,0,4.97-0.96,6.83-2.77c1.89-1.84,2.87-4.21,2.87-6.84C361.96,233.37,360.99,231.01,359.13,229.14z M331.01,225.38
				c-0.1,1.05-0.37,1.84-0.75,2.24c-0.11,0.1-0.4,0.41-1.44,0.41c-0.77,0-1.13-0.21-1.47-0.58c-0.31-0.32-0.64-0.81-0.64-1.88
				c0-1.19,0.38-1.72,0.69-2.07c0.35-0.37,0.75-0.6,1.55-0.6c0.69,0,1.33,0,1.97,1.94c0.03,0.1,0.07,0.22,0.12,0.32
				C331.03,225.22,331.02,225.3,331.01,225.38z"/>
		</g>
		<g>
			<g>
				<g>
					<g>
						<g>
							<path class="st0" d="M37.7,165.48v74.87H15.43v-74.87H37.7z"/>
						</g>
					</g>
				</g>
				<g>
					<g>
						<g>
							<path class="st0" d="M51.14,240.35v-48.59c0-8.52,2.56-15.34,7.65-20.46c5.1-5.13,11.88-7.68,20.37-7.68
								c8.45,0,14.91,2.48,19.39,7.46c4.46,4.97,6.72,12.12,6.72,21.43v47.84H83v-47.84c0-4.57-1.61-6.84-4.88-6.84
								c-3.13,0-4.72,2.28-4.72,6.84v47.84H51.14z"/>
						</g>
					</g>
				</g>
				<g>
					<g>
						<g>
							<path class="st0" d="M146.96,200.75v20.07h-7.41v19.53h-22.27V193.9c0-8.75,2.7-15.97,8.1-21.7
								c5.39-5.72,12.19-8.58,20.37-8.58c9.04,0,16.59,3.9,22.65,11.68l-18.26,13.32c-1.02-2.84-2.84-4.27-5.43-4.27
								c-3.43,0-5.16,2.38-5.16,7.12v9.28H146.96z"/>
						</g>
					</g>
				</g>
				<g>
					<g>
						<g>
							<path class="st0" d="M200.04,202.77v19.75h-6.42v17.82h-22.27v-47.62c0-9.19,2.51-16.36,7.54-21.47
								c5.03-5.1,12.11-7.64,21.2-7.64c8.78,0,15.26,2.31,19.47,6.94c4.2,4.62,6.3,11.76,6.3,21.41v48.38h-22.26v-46.9
								c0-2.92-0.35-4.94-1.04-6.09c-0.7-1.13-1.95-1.69-3.73-1.69c-3.48,0-5.22,2.6-5.22,7.78v9.33H200.04z"/>
						</g>
					</g>
				</g>
				<g>
					<g>
						<g>
							<path class="st0" d="M237.83,165.48h22.26v44.48c0,3.48,0.55,5.79,1.67,6.94c1.12,1.15,3.33,1.73,6.62,1.73h1.15v21.72h-5.92
								c-8.11,0-14.46-2.37-18.97-7.1c-4.54-4.73-6.8-11.31-6.8-19.72V165.48z"/>
						</g>
					</g>
				</g>
			</g>
			<g>
				<g>
					<g>
						<g>
							<path class="st0" d="M286.47,225.41v7.99h-2.59v7.2h-9.01v-19.25c0-3.73,1.02-6.62,3.05-8.67c2.04-2.06,4.89-3.11,8.58-3.11
								c3.55,0,6.18,0.94,7.88,2.82c1.69,1.86,2.54,4.75,2.54,8.66v19.55h-9v-18.96c0-1.18-0.13-2-0.42-2.48
								c-0.27-0.43-0.78-0.68-1.5-0.68c-1.41,0-2.11,1.05-2.11,3.15v3.77H286.47z"/>
						</g>
					</g>
				</g>
				<g>
					<g>
						<g>
							<path class="st0" d="M305.56,230.67c1.46,0,2.7,0.52,3.75,1.57c1.04,1.05,1.57,2.3,1.57,3.75c0,1.45-0.52,2.68-1.56,3.69
								c-1.03,1-2.28,1.53-3.76,1.53c-1.51,0-2.75-0.49-3.74-1.48c-0.97-0.99-1.47-2.23-1.47-3.76c0-1.48,0.5-2.73,1.53-3.76
								C302.89,231.18,304.13,230.67,305.56,230.67z"/>
						</g>
					</g>
				</g>
				<g>
					<g>
						<g>
							<path class="st0" d="M335.38,225.81l9.43,0.24c-0.63,4.87-2.31,8.64-5.08,11.31c-2.76,2.66-6.35,3.99-10.79,3.99
								c-4.51,0-8.29-1.52-11.32-4.54c-3.04-3.01-4.56-6.77-4.56-11.26c0-4.51,1.55-8.3,4.66-11.38c3.09-3.05,6.92-4.61,11.44-4.61
								c4.47,0,8.19,1.53,11.19,4.53c2.06,2.09,3.52,4.99,4.38,8.72l-9.65,0.64c-1.08-3.33-3.12-4.97-6.14-4.97
								c-1.91,0-3.5,0.67-4.75,1.99c-1.25,1.34-1.87,3.03-1.87,5.08c0,1.98,0.61,3.62,1.84,4.92c1.22,1.29,2.78,1.94,4.65,1.94
								c1.91,0,3.43-0.57,4.56-1.71C334.51,229.57,335.18,227.93,335.38,225.81z"/>
						</g>
					</g>
				</g>
				<g>
					<g>
						<g>
							<path class="st0" d="M352.26,230.67c1.45,0,2.7,0.52,3.74,1.57c1.05,1.05,1.55,2.3,1.55,3.75c0,1.45-0.51,2.68-1.54,3.69
								c-1.05,1-2.29,1.53-3.76,1.53c-1.51,0-2.76-0.49-3.75-1.48c-0.99-0.99-1.47-2.23-1.47-3.76c0-1.48,0.51-2.73,1.53-3.76
								C349.6,231.18,350.83,230.67,352.26,230.67z"/>
						</g>
					</g>
				</g>
			</g>
		</g>
	</g>
</g>
</svg>
