<?xml version="1.0" encoding="utf-8"?>
<!-- Generator: Adobe Illustrator 25.0.0, SVG Export Plug-In . SVG Version: 6.00 Build 0)  -->
<svg version="1.1" id="Capa_1" xmlns="http://www.w3.org/2000/svg" xmlns:xlink="http://www.w3.org/1999/xlink" x="0px" y="0px"
	 viewBox="0 0 1149.2 213" style="enable-background:new 0 0 1149.2 213;" xml:space="preserve">
<style type="text/css">
	.st0{fill:#878684;}
	.st1{fill:#FFFFFF;}
</style>
<g>
	<path class="st0" d="M1351.9,809.6c-0.2,0.3,0.5,1-0.5,1c-1.3,0-2.7,0-4,0c-513.5,0-1026.9,0-1540.4,0c-0.3-0.7-0.1-1.3,0.6-1.7
		c1.6-1,3.5-1,5.3-1.1c2.5-0.1,5,0,7.5,0c506,0,1012,0,1517.9,0c4,0,8-0.6,11.9,0.7C1350.8,808.8,1351.4,809.2,1351.9,809.6z"/>
	<path d="M222.4,177.4c-4-52.7-1.7-105.3-2.4-157.9c-0.1-4.4,0.8-6.2,5.6-5.8c5.1,0.5,10.3,0.4,15.5,0c4.6-0.4,6.1,0.7,6,5.7
		c-0.3,33.6-0.1,67.3-0.1,100.9c0,29.1-0.1,58.3,0.1,87.4c0,4.3-1.2,5.2-5.2,5c-6.8-0.4-13.7-0.2-20.5-0.1c-2.1,0-3.7-0.4-5-2.3
		c-32.3-48.2-67.2-94.6-97.5-144.2c-4-6.5-7.5-13.2-11.9-20.9c0,3.3-0.1,5.7,0,8c2.1,33.3,1.8,66.5,1.8,99.8c0,18.5-0.1,37,0.1,55.5
		c0,3.2-0.7,4.3-4.1,4.2c-6-0.2-12-0.2-18,0.2c-3.8,0.2-5-0.7-4.9-4.8c0.2-35.3,0.1-70.6,0.1-105.9c0-28,0.1-56-0.1-84
		c0-3.7,0.8-4.8,4.6-4.6c7.8,0.3,15.7,0.1,23.5,0.1c1.9,0,3.4,0.2,4.7,2c30.9,45.3,64.1,89.1,93.1,135.8
		C212.9,160,217.5,168.7,222.4,177.4z"/>
	<path d="M562.5,117.8c19.3,6.8,27.6,21.2,32.4,38.4c4.2,15.2,7.7,30.6,12.9,45.5c1.2,3.6,2.7,7,4.2,11c-9.5,0-18.6,0-27.7,0
		c-2.8,0-3-2.3-3.6-4c-5.2-12.8-8.3-26.3-11.8-39.6c-1.9-7.2-3.7-14.5-7-21.2c-7.2-14.8-20-20.2-35.4-20.9c-8.3-0.4-16.7,0-25-0.3
		c-3.6-0.1-4.3,1.1-4.3,4.5c0.2,25.5,0,51,0.2,76.5c0,4-0.8,5.5-5.1,5.2c-6.5-0.4-13-0.3-19.5,0c-3.3,0.1-4.1-0.8-4.1-4.1
		c0.2-16.8,0.1-33.7,0.1-50.5c0-45.7,0-91.3,0-137c0-2.5-0.4-4.7,3.3-5.2c28.5-3.4,57-5.6,85.5-0.4c6.9,1.3,13.5,3.5,19.7,6.8
		c16.9,8.9,26.1,22.7,26.9,41.9c0.8,20.6-8.6,35.7-25.9,46.3C573.9,113.5,568.9,115.5,562.5,117.8z"/>
	<path d="M948.3,117.7c19.5,6.8,27.8,21.3,32.6,38.5c4.2,15.2,7.7,30.6,12.9,45.5c1.2,3.6,2.7,7,4.3,11c-9.5,0-18.6,0-27.7,0
		c-2.8,0-3-2.3-3.7-4c-5.2-12.8-8.3-26.3-11.8-39.6c-1.9-7.2-3.7-14.5-7-21.2c-7.2-14.8-20-20.2-35.4-20.9c-8.3-0.4-16.7,0-25-0.3
		c-3.6-0.1-4.3,1-4.3,4.4c0.2,25.5,0,51,0.2,76.5c0,4-0.7,5.6-5.1,5.3c-6.5-0.4-13-0.3-19.5,0c-3.2,0.1-4.2-0.8-4.1-4.1
		c0.2-14.8,0.1-29.7,0.1-44.5c0-47.7,0-95.3-0.1-143c0-3,0.2-4.8,3.9-5.3c26.8-3.3,53.7-5.2,80.6-1.1c16.3,2.5,31.3,8.3,41.7,22.1
		c18,24.1,10.3,58.1-16.5,73.6C959.9,113.4,954.9,115.6,948.3,117.7z"/>
	<path d="M817.2,212.7c-9.5,0-18.6-0.1-27.8,0.1c-2.9,0.1-3.2-1.8-3.8-3.6c-6.9-18.5-13.9-37-20.7-55.5c-1-2.9-2.3-4.1-5.6-4
		c-23.3,0.2-46.6,0.2-70,0c-3,0-4.3,1-5.3,3.7c-6.6,18.4-13.4,36.8-19.9,55.3c-1.1,3.2-2.5,4.3-5.9,4.1c-8.3-0.3-16.6-0.1-25.3-0.1
		c6.5-17.5,12.9-34.6,19.3-51.6c17.9-47.5,35.9-95,53.6-142.6c1.4-3.9,3.2-5,7.1-4.8c8.7,0.3,17.3,0.2,26,0c2.5,0,3.8,0.6,4.7,3.1
		c24.3,64.6,48.8,129.2,73.2,193.8C817,211,817,211.5,817.2,212.7z"/>
	<path d="M1034.9,112.8c0-31.5,0.1-63-0.1-94.5c0-3.8,0.9-4.6,4.6-4.6c36.7,0.2,73.3,0.1,110,0c3.5,0,5.2,0.4,4.7,4.5
		c-0.4,4.1-0.4,8.3,0,12.5c0.3,3.7-0.9,4.7-4.6,4.7c-26.7-0.2-53.3,0.1-80-0.2c-5.1-0.1-6.3,1.3-6.2,6.3c0.3,17.3,0.3,34.7,0,52
		c-0.1,4.1,0.9,5.3,5.2,5.3c25.3-0.2,50.7,0,76-0.2c3.6,0,5,0.7,4.7,4.6c-0.4,4.3-0.3,8.7,0,13c0.2,3.3-1,3.8-3.9,3.8
		c-25.7-0.1-51.3,0-77-0.2c-3.8,0-5,0.9-4.9,4.8c0.2,20.5,0.3,41,0,61.5c-0.1,4.4,1.4,5,5.3,5c28.5-0.2,57,0,85.5-0.2
		c3.9,0,5.2,1,4.9,4.9c-0.4,4.6-0.2,9.3,0,14c0.1,2.4-0.6,3.1-3,3.1c-39.3-0.1-78.7-0.1-118,0c-3.7,0-3-2-3-4.1
		C1034.9,176.7,1034.9,144.8,1034.9,112.8z"/>
	<path d="M372.8,124.4c0,27.7-0.1,55.3,0.1,83c0,4.8-1.5,5.8-5.8,5.5c-6.3-0.3-12.7-0.3-19,0c-3.7,0.2-4.3-1.1-4.3-4.4
		c0.1-55.6,0-111.3,0.2-166.9c0-4.9-1.2-5.9-6-5.8c-19,0.3-38,0-57,0.2c-3.4,0-4.7-0.6-4.5-4.3c0.4-5,0.2-10,0-15
		c-0.1-2.1,0.5-3,2.8-2.9c2.2,0.2,4.3,0,6.5,0c49.6,0,99.3,0.1,148.9-0.1c4.6,0,5.7,1.3,5.2,5.5c-0.6,5.4,2.3,12.7-1.1,15.7
		c-2.9,2.7-10.1,0.8-15.4,0.9c-15.5,0-31,0.2-46.5-0.1c-3.9-0.1-4.5,1.2-4.5,4.7C372.9,68.4,372.8,96.4,372.8,124.4z"/>
	<path d="M0,113.3C0,81.6,0.1,50-0.1,18.4c0-3.6,0.7-4.9,4.5-4.7c7,0.4,14,0.2,21,0.1c2.4,0,3.2,0.7,3.1,3.1c-0.1,6,0,12,0,18
		c0,57.6,0,115.2,0.1,172.9c0,4.2-1,5.4-5.2,5.2c-6.5-0.4-13-0.3-19.5,0c-3.4,0.1-4-1-4-4.1C0,176.9,0,145.1,0,113.3z"/>
	<path class="st1" d="M497.5,70.7c0-10.7,0-21.3,0-32c0-2-0.2-3.8,2.7-4.2c17.4-2.4,34.8-3.4,51.8,2.4c14.4,5,23,14.9,23.8,30.5
		c0.8,15.6-6.5,26.7-20.3,33.7c-9.4,4.8-19.6,6-30,6.2c-8.2,0.2-16.3-0.1-24.5,0.1c-2.9,0.1-3.7-0.9-3.7-3.7
		C497.6,92.6,497.5,81.6,497.5,70.7z"/>
	<path class="st1" d="M883.4,70.6c0-10.7,0-21.3,0-32c0-2.1-0.2-3.8,2.8-4.2c17.3-2.3,34.5-3.5,51.3,2.3
		c15.6,5.3,23.6,15.8,24.3,31.2c0.7,14.8-7.3,27.3-21.7,33.9c-9.3,4.2-19.1,5.3-29.2,5.5c-7.8,0.1-15.7-0.1-23.5,0.1
		c-3.4,0.1-4.2-1.1-4.1-4.3C883.6,92.3,883.4,81.4,883.4,70.6z"/>
	<path class="st1" d="M757.3,129.8c-20.8,0-41.1,0-61.3,0c-1.3,0-2.6,0-4.4,0c10.9-31.1,24.1-60.8,32.7-92.3
		C732.9,69,746.3,98.7,757.3,129.8z"/>
</g>
</svg>
