<?xml version="1.0" encoding="utf-8"?>
<!-- Generator: Adobe Illustrator 25.0.0, SVG Export Plug-In . SVG Version: 6.00 Build 0)  -->
<svg version="1.1" id="Layer_1" xmlns="http://www.w3.org/2000/svg" xmlns:xlink="http://www.w3.org/1999/xlink" x="0px" y="0px"
	 viewBox="0 0 246.67 398" style="enable-background:new 0 0 246.67 398;" xml:space="preserve">
<style type="text/css">
	.st0{stroke:#809CBC;stroke-width:0.1;stroke-miterlimit:10;}
</style>
<g>
	<path d="M161.57,101.33c0-16.75,0.18-33.5-0.11-50.25c-0.09-5.36,1.87-7.02,6.96-6.83c7.79,0.29,15.61-0.08,23.41,0.17
		c16.31,0.51,26.4,9.4,27,25.63c0.76,20.71,0.71,41.5-0.01,62.21c-0.55,15.88-11.26,25.35-27.1,25.66c-7.99,0.15-16-0.16-23.98,0.12
		c-4.85,0.17-6.26-1.9-6.22-6.45C161.67,134.84,161.57,118.08,161.57,101.33z M181.65,138.5c13.26,1.66,17.27-1.17,17.55-13.28
		c0.38-16.38,0.4-32.79-0.04-49.17c-0.31-11.47-6.13-15.13-17.5-12.05C181.65,88.71,181.65,113.44,181.65,138.5z"/>
	<path d="M128.39,135.75c-5.85,0-11.48,0-17.45,0c-0.8,5.91-1.24,11.8-2.58,17.48c-0.44,1.86-3.23,4.48-4.97,4.51
		c-16.41,0.21-16.03,2.24-13.35-13.84c5.18-31.12,10.23-62.27,15.18-93.42c0.73-4.61,2.7-6.59,7.49-6.24
		c4.73,0.35,9.52,0.25,14.27,0.02c4.28-0.21,6.46,0.98,7.22,5.74c5.34,33.6,11.02,67.14,16.49,100.71c1.04,6.39,0.17,7.29-6.48,7.21
		c-13.95-0.16-12.55,2.11-14.37-12.41C129.44,142.34,128.9,139.19,128.39,135.75z M120.19,70.84c-0.38,0.02-0.76,0.05-1.13,0.07
		c-1.95,15.24-3.9,30.47-5.87,45.81c4.62,0,8.49,0,12.95,0C124.11,101.08,122.15,85.96,120.19,70.84z"/>
	<path d="M118.97,199.48c0,12.9,0,25.19,0,38.15c5.22,0,10.31,0.12,15.39-0.04c3.89-0.13,5.57,1.56,5.58,5.4
		c0.03,15.76,0.72,12.97-12.51,13.18c-2.65,0.04-5.31,0.01-8.38,0.01c0,6.07,0,11.86,0,18.43c6.53,0,12.94,0.18,19.34-0.06
		c4.95-0.19,6.67,1.77,6.58,6.72c-0.28,14.25,0.96,12.4-12.08,12.48c-9.34,0.06-18.68-0.12-28.01,0.07
		c-4.25,0.09-6.29-1.19-6.28-5.81c0.1-34.11,0.09-68.23,0.01-102.34c-0.01-3.81,1.27-5.61,5.25-5.57
		c11.62,0.1,23.25,0.11,34.87-0.01c3.87-0.04,5.35,1.54,5.57,5.38c0.82,14,0.91,14-13.09,14
		C127.24,199.48,123.28,199.48,118.97,199.48z"/>
	<path d="M51.52,139.31c6.98,0,13.23,0.16,19.48-0.06c4.31-0.15,6.11,1.35,6.23,5.85c0.34,12.85,0.49,12.84-12.51,12.84
		c-9.15,0-18.29-0.12-27.44,0.05c-4.17,0.08-5.78-1.57-5.77-5.72c0.08-34.11,0.09-68.21-0.02-102.32c-0.01-4.23,1.64-5.74,5.73-5.69
		c16.99,0.23,14.17-1.68,14.26,13.61C51.63,84.73,51.52,111.58,51.52,139.31z"/>
	<path d="M51.47,275.13c7.25,0,13.7,0.12,20.15-0.05c3.9-0.1,5.33,1.51,5.54,5.36c0.69,13.16,0.63,13.32-12.59,13.32
		c-8.96,0-17.91-0.14-26.86,0.06c-4.26,0.09-6.28-1.22-6.26-5.82c0.1-34.11,0.09-68.21,0.01-102.32c-0.01-3.8,1.25-5.61,5.25-5.57
		c17.78,0.16,14.62-1.71,14.73,13.69c0.18,24.77,0.05,49.54,0.05,74.31C51.47,270.18,51.47,272.25,51.47,275.13z"/>
	<g>
		<path d="M197.59,255.85c-0.03,1.2-1.14,2.29-2.31,2.17c-1.32-0.13-1.96-0.95-1.97-2.26c0-1.23,1.05-2.22,2.27-2.17
			C196.71,253.62,197.62,254.66,197.59,255.85z"/>
		<g>
			<path class="st0" d="M212.81,242.2c-1.17,1.96-2.23,3.99-3.52,5.88c-0.71,1.04-1.66,1.99-2.7,2.69
				c-2.51,1.68-4.68,0.72-5.07-2.26c-0.48-3.63,0.3-7.13,1.28-10.6c0.27-0.95,1.37-4.54,2.91-3.95c1,0.38,0.16,2.61,0.07,3.36
				c-0.05,0.42-0.38,2.5,0.54,2.29c0.45-0.1,0.97-0.62,1.19-1c0.38-0.66,0.48-1.47,0.53-2.22c0.12-1.61,0.05-3.96-1.76-4.64
				c-2.54-0.96-4.68,1.91-5.66,3.85c-0.95,1.91-1.69,3.91-2.26,5.96c-0.81,2.89-1.41,6.12,0.03,8.94c1.27,2.47,3.46,3.66,6.09,2.81
				c2.62-0.84,4.2-2.61,5.65-4.87c0.75-1.18,1.46-2.39,2.16-3.61c0.35-0.61,0.7-1.22,1.05-1.82c0.26-0.45,0.44-0.85,0.62-1.34
				c0.08-0.2,0.44-1.23-0.03-1.17c-0.17,0.02-0.5,0.68-0.59,0.82C213.15,241.61,212.98,241.91,212.81,242.2z"/>
			<path class="st0" d="M216.55,246.75c-1.22-0.04-2.27,0.94-2.27,2.17c0,1.31,0.65,2.13,1.97,2.26c1.17,0.12,2.28-0.97,2.31-2.17
				C218.59,247.83,217.67,246.79,216.55,246.75z"/>
			<path class="st0" d="M190.68,254.27c-0.1,0.11-0.19,0.22-0.29,0.32c-0.2,0.2-0.4,0.39-0.62,0.57c-0.42,0.35-0.86,0.68-1.32,0.98
				c-1.28,0.83-2.66,0.18-3.34-1.06c-1.02-1.85-0.92-4.22-0.98-6.27c-0.06-2.34,0-4.69,0.26-7.01c0.43-3.89,1.66-7.69,2.56-11.61
				c-1.83-1.28-3.77-0.83-4.73,1.33c-0.36,0.81-0.62,1.69-0.74,2.56c-0.81,5.9-3.05,11.27-6.05,16.34c-0.94,1.58-1.88,3.18-3.03,4.6
				c-1.67,2.06-3.46,1.77-4.07-0.82c-0.58-2.45-0.91-5.08-0.72-7.58c0.45-6.14,1.95-12.12,4.17-17.85c1.34-3.45,2.95-6.87,4.94-9.99
				c0.7-1.09,1.92-2.43,3.35-1.78c0.67,0.3,1.15,0.94,1.51,1.55c0.32,0.54,0.65,1.82,1.45,1.83c0.16,0,0.31-0.06,0.45-0.13
				c1.13-0.59,1.13-1.73,0.65-2.8c-1.4-3.14-5.22-4.08-8.4-2.09c-2.54,1.59-4.23,3.95-5.68,6.48c-3.78,6.62-5.94,13.8-7.03,21.31
				c-0.52,3.61-0.75,7.23,0.22,10.81c0.6,2.21,1.73,4.04,4.09,4.67c2.48,0.66,4.6-0.2,6.1-2.16c1.58-2.07,2.91-4.34,4.3-6.55
				c0.6-0.95,1.06-1.99,1.74-3.27c0.47,2.91,0.76,5.43,1.3,7.9c0.51,2.37,1.53,4.59,4.24,5.03c3.03,0.5,5.62-2.09,5.95-4.98
				c0.01-0.06,0.08-0.55-0.04-0.54C190.84,254.05,190.72,254.21,190.68,254.27z"/>
		</g>
	</g>
	<g>
		<path d="M32.45,323.39c-0.31,0-0.56-0.24-0.56-0.55v-5.49c0-0.3,0.25-0.55,0.56-0.55c0.3,0,0.55,0.24,0.55,0.55v4.94h1.92
			c0.3,0,0.55,0.25,0.55,0.56c0,0.3-0.25,0.55-0.55,0.55H32.45z"/>
		<path d="M38.29,320.1c0-1.82,1.41-3.29,3.15-3.29s3.16,1.48,3.16,3.29c0,1.81-1.42,3.29-3.16,3.29S38.29,321.91,38.29,320.1z
			 M39.39,320.1c0,1.21,0.92,2.19,2.05,2.19c1.14,0,2.06-0.98,2.06-2.19c0-1.21-0.92-2.19-2.06-2.19
			C40.31,317.9,39.39,318.88,39.39,320.1z"/>
		<path d="M51.94,321.2v0.09c0,0.55-0.22,1.06-0.59,1.44c-0.41,0.41-0.98,0.64-1.6,0.64h-0.07c-0.8-0.03-1.5-0.48-1.82-1.18
			c-0.04-0.07-0.05-0.16-0.05-0.24c0-0.21,0.11-0.4,0.32-0.5c0.08-0.04,0.15-0.05,0.23-0.05c0.21,0,0.41,0.11,0.51,0.32
			c0.15,0.33,0.47,0.54,0.86,0.55h0.05c0.33,0,0.6-0.1,0.8-0.3c0.19-0.19,0.29-0.42,0.29-0.68v-0.04c-0.03-0.43-0.85-0.82-1.2-0.92
			l-0.04-0.02c-0.97-0.35-1.46-0.96-1.46-1.81v-0.08c0.02-0.48,0.24-0.91,0.64-1.21c0.34-0.26,0.8-0.42,1.29-0.42h0.08
			c0.39,0.01,0.8,0.17,1.13,0.41c0.14,0.11,0.22,0.27,0.22,0.43c0,0.11-0.04,0.24-0.11,0.33c-0.11,0.14-0.27,0.22-0.44,0.22
			c-0.11,0-0.23-0.03-0.33-0.1c-0.14-0.11-0.33-0.18-0.5-0.19h-0.06c-0.46,0-0.82,0.23-0.83,0.57v0.04c0,0.46,0.36,0.63,0.72,0.78
			C50.25,319.37,51.89,319.9,51.94,321.2z"/>
		<path d="M68.6,322.63c0.03,0.07,0.04,0.14,0.04,0.21c0,0.28-0.22,0.55-0.55,0.55c-0.22,0-0.42-0.13-0.51-0.35l-0.41-1.03h-2.55
			l-0.41,1.03c-0.08,0.22-0.29,0.35-0.51,0.35c-0.32,0-0.55-0.27-0.55-0.55c0-0.08,0.01-0.14,0.04-0.21l2.19-5.48
			c0.08-0.21,0.29-0.35,0.52-0.35c0.22,0,0.42,0.14,0.51,0.35L68.6,322.63z M66.73,320.92l-0.83-2.1l-0.84,2.1H66.73z"/>
		<path d="M77.16,322.84v-3.85l-1.48,1.98c-0.1,0.14-0.27,0.23-0.44,0.23c-0.17,0-0.34-0.08-0.44-0.23l-1.48-1.98v3.85
			c0,0.3-0.24,0.55-0.55,0.55c-0.3,0-0.55-0.24-0.55-0.55v-5.49c0-0.29,0.23-0.55,0.55-0.55c0.17,0,0.33,0.08,0.43,0.22l2.03,2.71
			l2.03-2.71c0.1-0.14,0.26-0.22,0.43-0.22c0.32,0,0.55,0.25,0.55,0.55v5.49c0,0.3-0.24,0.55-0.55,0.55
			C77.4,323.39,77.16,323.14,77.16,322.84z"/>
		<path d="M81.84,322.84v-5.49c0-0.3,0.25-0.55,0.55-0.55c0.3,0,0.55,0.24,0.55,0.55v5.49c0,0.3-0.24,0.55-0.55,0.55
			C82.08,323.39,81.84,323.14,81.84,322.84z"/>
		<path d="M87.46,322.43c-0.62-0.62-0.96-1.45-0.96-2.33c0-0.87,0.34-1.7,0.96-2.32c0.62-0.63,1.45-0.97,2.33-0.97
			c0.87,0,1.7,0.34,2.33,0.97c0.1,0.1,0.15,0.24,0.15,0.38c0,0.14-0.05,0.28-0.16,0.39c-0.11,0.11-0.24,0.16-0.39,0.16
			c-0.14,0-0.28-0.05-0.39-0.16c-0.41-0.41-0.97-0.64-1.55-0.64c-0.59,0-1.14,0.23-1.55,0.64c-0.41,0.41-0.65,0.97-0.65,1.55
			c0,0.58,0.24,1.14,0.65,1.55c0.42,0.43,0.99,0.65,1.55,0.65c0.5,0,0.99-0.17,1.39-0.5v-1.16h-1.37c-0.3,0-0.55-0.24-0.55-0.55
			c0-0.3,0.25-0.55,0.55-0.55h1.92c0.3,0,0.55,0.25,0.55,0.55v1.94c0,0.15-0.06,0.29-0.16,0.39c-0.64,0.64-1.49,0.96-2.32,0.96
			C88.95,323.39,88.1,323.07,87.46,322.43z"/>
		<path d="M95.86,320.1c0-1.82,1.41-3.29,3.15-3.29s3.16,1.48,3.16,3.29c0,1.81-1.42,3.29-3.16,3.29S95.86,321.91,95.86,320.1z
			 M96.96,320.1c0,1.21,0.92,2.19,2.05,2.19c1.14,0,2.06-0.98,2.06-2.19c0-1.21-0.92-2.19-2.06-2.19
			C97.88,317.9,96.96,318.88,96.96,320.1z"/>
		<path d="M109.51,321.2v0.09c0,0.55-0.22,1.06-0.59,1.44c-0.41,0.41-0.98,0.64-1.6,0.64h-0.07c-0.8-0.03-1.5-0.48-1.82-1.18
			c-0.04-0.07-0.05-0.16-0.05-0.24c0-0.21,0.11-0.4,0.32-0.5c0.08-0.04,0.15-0.05,0.23-0.05c0.21,0,0.41,0.11,0.51,0.32
			c0.15,0.33,0.47,0.54,0.86,0.55h0.05c0.33,0,0.6-0.1,0.8-0.3c0.19-0.19,0.29-0.42,0.29-0.68v-0.04c-0.03-0.43-0.85-0.82-1.2-0.92
			l-0.04-0.02c-0.97-0.35-1.46-0.96-1.46-1.81v-0.08c0.02-0.48,0.24-0.91,0.64-1.21c0.34-0.26,0.8-0.42,1.29-0.42h0.08
			c0.39,0.01,0.8,0.17,1.13,0.41c0.14,0.11,0.22,0.27,0.22,0.43c0,0.11-0.04,0.24-0.11,0.33c-0.11,0.14-0.27,0.22-0.44,0.22
			c-0.11,0-0.23-0.03-0.33-0.1c-0.14-0.11-0.33-0.18-0.5-0.19h-0.06c-0.46,0-0.82,0.23-0.83,0.57v0.04c0,0.46,0.36,0.63,0.72,0.78
			C107.82,319.37,109.45,319.9,109.51,321.2z"/>
		<path d="M121.27,323.39c-0.3,0-0.55-0.24-0.55-0.55v-5.49c0-0.3,0.25-0.55,0.55-0.55h1.6c0.04,0,2.79-0.01,2.79,3.29
			c0,3.3-2.76,3.29-2.79,3.29H121.27z M121.82,322.29h1.04c0.03,0,0.45-0.01,0.87-0.28c0.55-0.35,0.82-1,0.82-1.91
			c0-0.93-0.28-1.58-0.86-1.93c-0.41-0.25-0.83-0.26-0.84-0.26h-1.04V322.29z"/>
		<path d="M133.36,322.84c0,0.3-0.24,0.55-0.55,0.55h-3.01c-0.31,0-0.56-0.24-0.56-0.55v-5.49c0-0.3,0.25-0.55,0.56-0.55h3.01
			c0.31,0,0.55,0.24,0.55,0.55c0,0.31-0.24,0.56-0.55,0.56h-2.46v1.65h1.92c0.3,0,0.55,0.25,0.55,0.55c0,0.3-0.24,0.55-0.55,0.55
			h-1.92v1.65h2.46C133.12,322.29,133.36,322.53,133.36,322.84z"/>
		<path d="M145.13,323.39c-0.31,0-0.55-0.24-0.55-0.55v-5.49c0-0.3,0.24-0.55,0.55-0.55c0.3,0,0.55,0.24,0.55,0.55v4.94h1.92
			c0.3,0,0.55,0.25,0.55,0.56c0,0.3-0.25,0.55-0.55,0.55H145.13z"/>
		<path d="M157.17,322.63c0.03,0.07,0.04,0.14,0.04,0.21c0,0.28-0.22,0.55-0.55,0.55c-0.22,0-0.42-0.13-0.51-0.35l-0.41-1.03h-2.55
			l-0.41,1.03c-0.08,0.22-0.29,0.35-0.51,0.35c-0.32,0-0.55-0.27-0.55-0.55c0-0.08,0.01-0.14,0.04-0.21l2.19-5.48
			c0.08-0.21,0.29-0.35,0.52-0.35c0.22,0,0.42,0.14,0.51,0.35L157.17,322.63z M155.3,320.92l-0.83-2.1l-0.84,2.1H155.3z"/>
		<path d="M172.54,322.84c0,0.3-0.24,0.55-0.55,0.55h-3.01c-0.31,0-0.55-0.24-0.55-0.55v-5.49c0-0.3,0.24-0.55,0.55-0.55h3.01
			c0.31,0,0.55,0.24,0.55,0.55c0,0.31-0.24,0.56-0.55,0.56h-2.46v1.65h1.92c0.3,0,0.55,0.25,0.55,0.55c0,0.3-0.24,0.55-0.55,0.55
			h-1.92v1.65h2.46C172.3,322.29,172.54,322.53,172.54,322.84z"/>
		<path d="M180.26,321.2v0.09c0,0.55-0.22,1.06-0.59,1.44c-0.41,0.41-0.98,0.64-1.6,0.64h-0.07c-0.8-0.03-1.5-0.48-1.82-1.18
			c-0.04-0.07-0.05-0.16-0.05-0.24c0-0.21,0.11-0.4,0.32-0.5c0.08-0.04,0.15-0.05,0.23-0.05c0.21,0,0.41,0.11,0.51,0.32
			c0.15,0.33,0.47,0.54,0.86,0.55h0.05c0.33,0,0.6-0.1,0.8-0.3c0.19-0.19,0.29-0.42,0.29-0.68v-0.04c-0.03-0.43-0.85-0.82-1.2-0.92
			l-0.04-0.02c-0.97-0.35-1.46-0.96-1.46-1.81v-0.08c0.02-0.48,0.24-0.91,0.64-1.21c0.34-0.26,0.8-0.42,1.29-0.42h0.08
			c0.39,0.01,0.8,0.17,1.13,0.41c0.14,0.11,0.22,0.27,0.22,0.43c0,0.11-0.04,0.24-0.11,0.33c-0.11,0.14-0.27,0.22-0.44,0.22
			c-0.11,0-0.23-0.03-0.33-0.1c-0.14-0.11-0.33-0.18-0.5-0.19h-0.06c-0.46,0-0.82,0.23-0.83,0.57v0.04c0,0.46,0.36,0.63,0.72,0.78
			C178.57,319.37,180.2,319.9,180.26,321.2z"/>
		<path d="M189.74,322.48c0.08,0.1,0.13,0.23,0.13,0.35c0,0.16-0.07,0.32-0.2,0.42c-0.1,0.09-0.24,0.13-0.36,0.13
			c-0.15,0-0.31-0.07-0.42-0.2l-0.25-0.3c-0.48,0.32-1.05,0.5-1.66,0.5c-1.74,0-3.15-1.48-3.15-3.29c0-1.82,1.41-3.29,3.15-3.29
			c1.74,0,3.16,1.48,3.16,3.29c0,0.77-0.26,1.49-0.69,2.05L189.74,322.48z M187.95,322.04l-0.41-0.5c-0.08-0.1-0.13-0.24-0.13-0.36
			c0-0.16,0.07-0.31,0.2-0.41c0.1-0.08,0.23-0.13,0.35-0.13c0.16,0,0.32,0.07,0.42,0.2l0.36,0.43c0.21-0.34,0.32-0.74,0.32-1.18
			c0-1.21-0.92-2.19-2.06-2.19c-1.13,0-2.05,0.98-2.05,2.19c0,1.21,0.92,2.19,2.05,2.19C187.34,322.29,187.66,322.2,187.95,322.04z"
			/>
		<path d="M194,322.11c-0.26-0.57-0.27-1.13-0.27-1.19v-3.56c0-0.3,0.25-0.55,0.55-0.55s0.55,0.24,0.55,0.55v3.56
			c0,0.14,0.11,1.37,1.24,1.37c1.07,0,1.23-1.16,1.23-1.37v-3.56c0-0.3,0.24-0.55,0.55-0.55c0.3,0,0.55,0.24,0.55,0.55v3.56
			c0,0.07,0,0.62-0.26,1.19c-0.38,0.83-1.12,1.28-2.06,1.28C195.12,323.39,194.39,322.94,194,322.11z"/>
		<path d="M201.96,322.84v-5.49c0-0.3,0.24-0.55,0.55-0.55s0.55,0.24,0.55,0.55v5.49c0,0.3-0.24,0.55-0.55,0.55
			S201.96,323.14,201.96,322.84z"/>
		<path d="M210.57,323.15l-2.84-4.06v3.75c0,0.3-0.25,0.55-0.55,0.55s-0.55-0.24-0.55-0.55v-5.49c0-0.28,0.23-0.55,0.55-0.55
			c0.17,0,0.34,0.08,0.44,0.24l2.84,4.06v-3.75c0-0.3,0.24-0.55,0.55-0.55c0.3,0,0.55,0.24,0.55,0.55v5.49
			c0,0.29-0.25,0.55-0.55,0.55C210.84,323.39,210.67,323.3,210.57,323.15z"/>
		<path d="M220.59,322.63c0.03,0.07,0.04,0.14,0.04,0.21c0,0.28-0.22,0.55-0.55,0.55c-0.22,0-0.42-0.13-0.51-0.35l-0.41-1.03h-2.55
			l-0.41,1.03c-0.08,0.22-0.29,0.35-0.51,0.35c-0.32,0-0.55-0.27-0.55-0.55c0-0.08,0.01-0.14,0.04-0.21l2.19-5.48
			c0.08-0.21,0.29-0.35,0.52-0.35c0.22,0,0.42,0.14,0.51,0.35L220.59,322.63z M218.72,320.92l-0.83-2.1l-0.84,2.1H218.72z"/>
	</g>
</g>
<g>
	<path d="M122.81,356.97c0.09-0.4,0.14-0.82,0.28-1.21c1.45-4.1,2.9-8.21,4.39-12.29c0.24-0.66,0.64-1.27,1.03-1.86
		c0.3-0.45,0.81-0.66,1.34-0.67c0.93-0.02,1.87-0.03,2.8,0.01c0.77,0.03,1.33,0.48,1.64,1.15c0.45,0.95,0.84,1.92,1.2,2.91
		c1.32,3.62,2.62,7.24,3.89,10.88c0.17,0.49,0.22,1.05,0.2,1.57c-0.05,1.12-0.87,1.95-1.99,2.11c-1.59,0.23-2.57-0.36-3.14-1.88
		c-0.36-0.96-0.15-0.81-1.19-0.82c-1.5-0.01-3,0.01-4.5-0.01c-0.33,0-0.53,0.08-0.62,0.42c-0.06,0.24-0.17,0.47-0.26,0.7
		c-0.68,1.72-2.92,2.22-4.28,0.96C123.06,358.43,122.85,357.87,122.81,356.97z M129.37,353.06c1.28,0,2.47,0,3.71,0
		c-0.59-2.07-1.17-4.08-1.75-6.1c-0.05,0-0.1,0-0.15,0.01C130.59,348.97,129.99,350.98,129.37,353.06z"/>
	<path d="M100.2,345.65c-0.03-0.03-0.06-0.06-0.09-0.08c-0.31-0.25-0.88-0.23-0.98,0.21c-0.14,0.6,0.29,1.42,0.47,1.98
		c0.43,1.33,0.86,2.67,1.29,4c0.34,1.05,0.82,2.04,1.39,2.98c0.58,0.97,1.21,1.91,1.92,2.79c0.65,0.8,1.44,1.82,2.39,2.27
		c1.98,0.95,4.86-0.39,5.18-2.61c0.24-1.65,0.33-3.28,0.36-4.94c0.03-1.62,0.1-3.24-0.17-4.84l-0.04-0.68
		c-0.02-0.4-0.02-0.85-0.36-1.12l-0.25-0.05c-0.9-0.16-0.77,1.72-0.82,2.21c-0.06,0.71-0.05,1.46-0.19,2.17
		c-0.06,0.28-0.13,0.68-0.42,0.32l-0.49-1.28l-0.65-1.61l-0.71-1.69l-0.71-1.8l-0.55-1.45l-0.46-1.1l-0.28-0.66l-0.14-0.31
		c-0.13-0.28-0.48-0.31-0.73-0.2c-0.35,0.15-0.45,0.56-0.36,0.9l0.34,1.37l0.58,2.26l0.42,1.57l0.25,0.93c0,0,0.06,0.3,0.06,0.31
		c0.03,0.14-0.03,0.48-0.16,0.57c-0.22,0.15-0.31-0.17-0.4-0.33l-0.75-2.27l-0.92-2.62l-0.27-0.91c-0.21-0.62-0.39-1.25-0.75-1.8
		c-0.32-0.48-1.09-0.19-1.09,0.34c-0.01,0.52,0.19,1.05,0.32,1.55c0.37,1.44,0.78,2.87,1.21,4.3c0.15,0.48,0.29,0.96,0.47,1.43
		c0.12,0.32,0.42,0.75,0.26,1.1c-0.31,0.67-0.82-1.04-0.89-1.23l-1.19-3.32c0,0-0.63-1.6-0.63-1.6c-0.09-0.24-0.25-0.55-0.48-0.68
		c-0.23-0.13-0.55-0.07-0.75,0.08c-0.28,0.2-0.25,0.45-0.21,0.76l0.12,0.53l0.72,2.14l0.66,1.82l0.36,1.06l0.18,0.53l0.19,0.53
		c0.1,0.21,0.32,0.9-0.08,0.97c-0.19,0.03-0.57-0.93-0.64-1.07l-0.67-1.56l-0.44-1.17C100.48,346.33,100.43,345.91,100.2,345.65z"/>
	<path d="M170.8,346.07c0,0.35,0,0.7,0,1.04c-0.01,0.05-0.03,0.1-0.03,0.15c-0.11,0.8-0.36,1.56-0.75,2.28
		c-0.52,0.95-1.2,1.79-1.96,2.55c-0.54,0.54-1.1,1.06-1.65,1.59c-0.74,0.71-1.48,1.43-2.23,2.14c-1.23,1.18-2.46,2.37-3.69,3.55
		c-0.35,0.34-0.8,0.34-1.16-0.01c-0.47-0.46-0.94-0.91-1.41-1.36c-0.92-0.89-1.85-1.77-2.77-2.66c-0.69-0.67-1.39-1.33-2.07-2
		c-0.68-0.67-1.41-1.29-2.02-2.03c-0.65-0.79-1.24-1.61-1.61-2.58c-0.35-0.92-0.5-1.86-0.4-2.84c0.13-1.17,0.47-2.25,1.27-3.15
		c0.49-0.55,1.07-0.96,1.75-1.25c0.58-0.25,1.18-0.38,1.79-0.46c0.78-0.09,1.56-0.07,2.32,0.15c1.06,0.31,1.94,0.93,2.78,1.59
		c0.32,0.25,0.62,0.53,0.93,0.81c0.02-0.01,0.04-0.02,0.05-0.04c0.61-0.6,1.29-1.11,2-1.58c0.6-0.39,1.25-0.68,1.95-0.85
		c0.72-0.18,1.45-0.15,2.18-0.06c1.07,0.14,2.05,0.49,2.89,1.2c0.83,0.7,1.35,1.59,1.6,2.64
		C170.68,345.28,170.73,345.67,170.8,346.07z"/>
	<g>
		<path d="M183.52,355.88c0-0.26,0-0.47,0-0.69c0-4.49,0-8.98,0-13.47c0-0.17,0-0.35,0.03-0.52c0.01-0.08,0.09-0.21,0.14-0.21
			c0.08,0,0.17,0.08,0.22,0.15c0.05,0.07,0.08,0.17,0.09,0.27c0.19,1.57,0.87,2.81,1.75,3.97c0.61,0.81,1.2,1.65,1.68,2.57
			c0.78,1.49,0.81,3.12,0.32,4.74c-0.26,0.87-0.64,1.69-0.97,2.52c-0.05,0.12-0.18,0.21-0.27,0.31c-0.03-0.03-0.07-0.06-0.1-0.09
			c0.06-0.19,0.11-0.38,0.18-0.56c0.39-1.06,0.8-2.12,0.92-3.29c0.23-2.31-1.31-4.85-3.23-5.31c-0.1-0.02-0.2-0.03-0.36-0.06
			c0,0.22,0,0.41,0,0.61c0,3.36-0.03,6.71,0.01,10.07c0.02,1.5-0.59,2.44-1.66,3.06c-0.55,0.32-1.14,0.48-1.76,0.43
			c-1.58-0.14-1.8-1.57-1.3-2.8c0.63-1.53,2.41-2.43,3.8-1.95C183.17,355.68,183.31,355.78,183.52,355.88z"/>
	</g>
	<g>
		<path d="M210.16,345.25c1.31,1.66,2.34,3.34,2.38,5.44c0.02,1.41-0.78,2.17-2.26,2.18c-1.6,0.02-2.51-0.74-2.49-2.15
			C207.81,348.61,208.82,346.9,210.16,345.25z"/>
		<path d="M201.71,343.6c1.39,0.7,2.59,1.66,3.69,2.75c0.07,0.07,0.14,0.19,0.14,0.29c0.01,0.9,0.01,1.79,0.01,2.77
			c-0.42-0.31-0.81-0.6-1.29-0.97c-0.06,0.81-0.11,1.53-0.16,2.26C202.3,349.27,201,345.41,201.71,343.6z"/>
		<path d="M218.85,343.57c0.33,2.84-0.56,5.15-2.46,7.2c-0.06-0.8-0.12-1.51-0.18-2.33c-0.49,0.37-0.89,0.67-1.26,0.95
			c0-0.91,0-1.78,0-2.66c0-0.12,0.01-0.29,0.09-0.36C216.16,345.28,217.35,344.29,218.85,343.57z"/>
		<path d="M210.16,360.12c-0.99-1.4-1.69-2.81-1.69-4.48c0.01-1.15,0.64-1.76,1.76-1.75c1.06,0.01,1.63,0.6,1.63,1.74
			C211.86,357.3,211.14,358.71,210.16,360.12z"/>
		<path d="M211.77,346c-0.54-0.72-1.05-1.41-1.62-2.18c-0.56,0.75-1.06,1.43-1.59,2.14c-0.28-0.26-0.58-0.5-0.82-0.78
			c-0.09-0.11-0.13-0.36-0.07-0.5c0.56-1.49,1.43-2.8,2.48-4.05c1.08,1.28,1.96,2.62,2.52,4.16c0.05,0.13-0.04,0.36-0.13,0.47
			C212.31,345.52,212.04,345.74,211.77,346z"/>
		<path d="M199.81,349.97c0.88,0.06,1.64,0.08,2.39,0.17c0.59,0.08,1.01,0.4,1.32,0.97c0.83,1.52,2.1,2.59,3.76,3.19
			C205.13,355.36,201.07,353.21,199.81,349.97z"/>
		<path d="M220.56,350.14c-1.15,2.88-4.99,5.2-7.43,4.17c1.26-0.48,2.31-1.19,3.12-2.22c0.19-0.24,0.41-0.47,0.53-0.75
			c0.61-1.4,1.85-1.36,3.07-1.35C220.07,350,220.29,350.09,220.56,350.14z"/>
		<path d="M216.09,354.9c0.95-0.23,1.8-0.54,2.45-1.22c0.07-0.07,0.2-0.13,0.3-0.12c1.51,0.06,2.93,0.38,4.18,1.48
			c-1.89,0.54-3.68,1.15-5.61,0.83C216.86,355.78,216.37,355.55,216.09,354.9z"/>
		<path d="M204.39,355.03c-0.2,0.54-0.73,0.75-1.3,0.85c-1.4,0.26-2.76-0.08-4.11-0.4c-0.46-0.11-0.92-0.27-1.44-0.43
			c0.81-0.84,1.82-1.13,2.84-1.35c0.24-0.05,0.5-0.07,0.74-0.11c0.44-0.07,0.77,0.06,1.15,0.33
			C202.91,354.36,203.65,354.65,204.39,355.03z"/>
		<path d="M212.57,354.88c0.77,0.12,1.41,0.18,2.03,0.33c0.43,0.1,0.91,0.24,1.24,0.51c0.76,0.63,1.09,1.55,1.47,2.51
			c-1.88-0.08-3.42-0.7-4.59-2.11C212.26,355.59,212.28,355.23,212.57,354.88z"/>
		<path d="M207.79,354.89c0.3,0.39,0.3,0.7-0.16,1.26c-1.16,1.38-2.69,1.99-4.56,2.09c0.43-1.14,0.83-2.21,1.89-2.85
			c0.2-0.12,0.47-0.16,0.71-0.2C206.33,355.1,207,355.01,207.79,354.89z"/>
		<path d="M215.78,349.68c-0.02,1.6-0.65,2.89-2.02,3.77c-0.87,0.56-1.8,0.59-2.81,0.04c1.41-0.28,2.24-1.07,2.53-2.4
			c0.02-0.08,0.1-0.15,0.18-0.2C214.35,350.49,215.04,350.1,215.78,349.68z"/>
		<path d="M209.4,353.49c-1.02,0.53-1.91,0.52-2.75-0.03c-1.37-0.89-1.99-2.19-2.01-3.78c0.73,0.42,1.45,0.82,2.16,1.24
			c0.07,0.04,0.1,0.16,0.12,0.25C207.22,352.44,208.01,353.21,209.4,353.49z"/>
		<path d="M213.96,344.9c0.5,1.99,0.81,3.81-0.44,5.5c-0.44-1.19-0.88-2.33-1.28-3.47c-0.05-0.13-0.02-0.36,0.07-0.46
			C212.82,345.96,213.35,345.48,213.96,344.9z"/>
		<path d="M206.48,344.92c0.59,0.57,1.12,1.06,1.63,1.58c0.09,0.09,0.1,0.32,0.05,0.45c-0.4,1.13-0.83,2.26-1.24,3.38
			C205.95,349.72,205.71,347.16,206.48,344.92z"/>
	</g>
	<g>
		<g>
			<path d="M30.78,349.91c0-0.29,0-0.58,0-0.87c0.01-0.04,0.01-0.08,0.02-0.12c0.05-0.92,0.23-1.82,0.56-2.69
				c0.51-1.34,1.3-2.47,2.43-3.36c1.29-1.01,2.76-1.59,4.38-1.81c0.94-0.13,1.88-0.12,2.81,0.01c1.05,0.14,2.07,0.43,3.03,0.86
				c2.85,1.27,4.91,3.34,6.25,6.14c0.71,1.49,1.01,3.06,0.78,4.71c-0.06,0.39-0.18,0.74-0.48,1c-0.48,0.42-1.06,0.39-1.47-0.1
				c-0.15-0.19-0.27-0.41-0.39-0.62c-0.21-0.37-0.42-0.74-0.74-1.03c-0.1-0.09-0.23-0.17-0.35-0.23c-0.16-0.08-0.33-0.04-0.45,0.09
				c-0.09,0.09-0.16,0.2-0.21,0.32c-0.13,0.31-0.19,0.64-0.17,0.97c0.02,0.4,0.15,0.77,0.28,1.14c0.24,0.68,0.48,1.35,0.73,2.02
				c0.18,0.49,0.27,0.98,0.2,1.5c-0.11,0.77-0.48,1.38-1.15,1.79c-0.42,0.26-0.89,0.43-1.37,0.58c-1.35,0.42-2.74,0.51-4.14,0.32
				c-1.21-0.16-2.35-0.52-3.45-1.04c-1.37-0.64-2.6-1.5-3.72-2.52c-0.91-0.83-1.68-1.77-2.25-2.87c-0.59-1.13-0.95-2.34-1.08-3.61
				C30.81,350.32,30.8,350.11,30.78,349.91z M39.16,345.32c0-0.95-0.77-1.73-1.72-1.73c-0.95,0-1.73,0.77-1.73,1.72
				c0,0.95,0.77,1.73,1.72,1.73C38.38,347.05,39.16,346.28,39.16,345.32z M34.48,348.21c-0.95,0-1.72,0.78-1.72,1.73
				c0,0.95,0.78,1.72,1.74,1.72c0.94,0,1.72-0.79,1.71-1.74C36.21,348.97,35.43,348.2,34.48,348.21z M44.59,345.44
				c0-0.96-0.77-1.72-1.74-1.72c-0.94,0-1.71,0.77-1.71,1.72c0,0.95,0.77,1.73,1.72,1.73C43.82,347.16,44.59,346.39,44.59,345.44z
				 M38.75,354.33c0-0.95-0.77-1.72-1.71-1.72c-0.96,0-1.73,0.76-1.74,1.72c0,0.96,0.76,1.73,1.73,1.73
				C37.98,356.06,38.75,355.29,38.75,354.33z"/>
		</g>
		<path d="M53.34,352.22c0.06-0.32,0.13-0.65,0.2-0.97c0.11-0.48,0.22-0.95,0.33-1.42c0.13-0.53,0.27-1.06,0.4-1.59
			c0.12-0.48,0.25-0.95,0.39-1.42c0.12-0.42,0.24-0.83,0.36-1.25c0.14-0.46,0.27-0.92,0.42-1.38c0.16-0.51,0.33-1.02,0.5-1.53
			c0.11-0.32,0.22-0.63,0.34-0.95c0.09-0.23,0.19-0.44,0.29-0.68c-0.18-0.29-0.35-0.6-0.46-0.94c-0.12-0.35-0.15-0.71-0.1-1.08
			c0.07-0.54,0.22-1.06,0.42-1.56c0.15-0.38,0.31-0.74,0.46-1.12c0.11-0.28,0.14-0.58,0.14-0.88c0.01-0.53-0.09-1.05-0.24-1.56
			c-0.02-0.07-0.04-0.14-0.05-0.21c0,0,0-0.01,0.01-0.04c0.16,0.1,0.31,0.19,0.46,0.28c0.47,0.31,0.88,0.68,1.23,1.11
			c0.32,0.4,0.57,0.85,0.74,1.34c0.32,0.9,0.37,1.81,0.2,2.74c-0.07,0.4-0.2,0.79-0.38,1.16c-0.15,0.31-0.33,0.6-0.59,0.83
			c-0.14,0.13-0.31,0.2-0.49,0.25c-0.06,0.02-0.08,0.06-0.09,0.12c-0.02,0.41-0.01,0.82-0.06,1.23c-0.1,0.93-0.21,1.86-0.35,2.78
			c-0.14,0.98-0.31,1.96-0.48,2.94c-0.15,0.84-0.33,1.68-0.5,2.51c-0.12,0.6-0.26,1.19-0.4,1.78c-0.14,0.57-0.29,1.13-0.45,1.69
			c-0.11,0.39-0.23,0.79-0.35,1.17c-0.14,0.45-0.3,0.9-0.45,1.34c-0.11,0.32-0.22,0.64-0.35,0.96c-0.18,0.45-0.38,0.89-0.58,1.33
			c-0.11,0.24-0.24,0.48-0.38,0.71c-0.1,0.16-0.23,0.32-0.36,0.46c-0.14,0.14-0.27,0.12-0.35-0.08c-0.11-0.27-0.13-0.55-0.15-0.84
			c-0.05-0.72-0.01-1.44,0.04-2.15c0.06-0.92,0.16-1.84,0.3-2.75c0.11-0.72,0.24-1.44,0.37-2.16
			C53.32,352.34,53.33,352.28,53.34,352.22z"/>
	</g>
	<path d="M87.96,345.29c-4.26-0.02-6.44,1.47-7.16,4.85c-0.1,0.46-0.37,0.89-0.56,1.34l-0.36-0.09c0-1.87-0.05-3.73,0.03-5.6
		c0.02-0.55,0.28-1.19,0.65-1.62c2.87-3.35,2.76-6.76-0.29-9.95c-0.8-0.83-1.34-0.75-2.09,0.04c-3,3.13-3.12,6.42-0.41,9.76
		c0.48,0.59,0.79,1.44,0.81,2.18c0.09,2.73,0.02,5.47,0.02,8.2c0,0.67,0,1.34,0,2.01l-0.4,0.09c-0.19-0.44-0.47-0.86-0.57-1.32
		c-0.85-3.77-3.63-4.68-7.17-4.66c-0.29,0-0.88,0.65-0.82,0.88c0.8,2.98,2.21,5.35,6,5.48c1.21,0.04,1.93,0.55,2.6,1.32
		c0.66,0.77,0.6,1.74,0.06,2.44c0.54-0.02,1.08-0.03,1.62-0.04c-0.01-2.22-0.07-4.35,0.03-6.48c0.05-1.1,1.68-2.41,2.81-2.44
		c3.69-0.1,5.31-2.51,6.09-5.41C89.02,345.57,88.69,345.29,87.96,345.29z"/>
</g>
</svg>
