<?xml version="1.0" encoding="utf-8"?>
<!-- Generator: Adobe Illustrator 25.0.0, SVG Export Plug-In . SVG Version: 6.00 Build 0)  -->
<svg version="1.1" id="Layer_1" xmlns="http://www.w3.org/2000/svg" xmlns:xlink="http://www.w3.org/1999/xlink" x="0px" y="0px"
	 viewBox="0 0 315.4 301.7" style="enable-background:new 0 0 315.4 301.7;" xml:space="preserve">
<g>
	<g>
		<g>
			<path d="M259.5,38.3c-3.8-10.9-12.6-20.9-22.2-27.6C226,2.7,211,0.3,197.5,4C190,0.7,181.9-0.7,173,0.4c-7.2,0.9-14,2.7-19.9,6.9
				c-3.7,2.7-6.7,5.9-9.5,9.3c-2.8-2.8-5.9-5.4-9.5-7.5c-10.7-6.3-25.8-6.8-37.4-2.6c-12.3-4.2-27.5-0.3-36.6,8.3
				c-1.7,1.6-3.2,3.4-4.4,5.4c-10.3,7.5-14.3,18.9-14.2,31.2c0.1,9.7,1.9,20,6.4,28.8c-1.8,8.2,0.4,17,3.4,24.7
				c3.4,8.5,8.2,16.1,15,22.6c5.3,5,11.5,9.4,18.3,12.4c5.1,2.2,12.2,4.8,14.6,10.1c1.8,4.3,4.3,8.4,7.2,12.1
				c5,6.2,11.8,9.7,17.8,14.5c3.5,2.8,5.5,6.7,8.2,10.2c3.9,5.2,8.2,9.9,11.7,15.3c1.9,2.8,6.1,3.6,8.7,1.1c2.8-2.8,5.2-5.7,7.7-8.7
				c3.3-4,7.3-7.5,10.9-11.3c7.5-7.9,14.5-15.9,22.7-23.1c14.4-12.5,30.1-24.4,38.2-41.8c1.7-3.6,3-7.3,3.9-11.2
				c0.6-0.2,1.2-0.6,1.8-1.1c10.2-9.4,18.4-20.7,22.2-33.9C263.5,61.4,263.1,48.7,259.5,38.3z M206.9,43.6c4.5,11.1,6.5,23,6,34.9
				v0.1c0,0,0,0,0,0c0,0,0,0,0,0c-4.3-4.6-8.5-9.3-10.5-15.2C200.6,58.3,200.6,46.7,206.9,43.6C206.8,43.6,206.8,43.7,206.9,43.6
				C206.8,43.7,206.9,43.7,206.9,43.6z M199.7,24.9c2-0.7,4.2-1.3,6.3-1.7v0c0,0,0,0,0,0c-1,1.5-1.9,3.2-2.2,5.3
				c-0.2,1.8-0.2,3.6,0,5.3c-5.9,2.3-10,7.7-12.1,13.8c-2.9,8.2-1.2,17.5,2.9,25.1c3.7,7,10,12.7,15.3,18.6c0.4,0.4,0.7,0.8,1,1.1
				c-1.9,6.8-5.1,13.2-10.3,18.2c-4.4,4.2-10.3,6.9-15.6,10c-5.7,3.4-11.4,6.9-16.8,10.8c0,0,0,0,0-0.1c0,0,0,0-0.1,0.1
				c6.2-5.9,11.3-13.2,15-20.3c4.7-9,8.2-18.3,9.5-28.3c1.2-8.4-0.9-16-3.6-23.9c-1.4-4.3-2.9-8.9-3.4-13.5c0-0.1,0-0.2,0-0.3
				c-0.1-0.7-0.1-1.3-0.1-2c0-0.3,0-0.5,0-0.8c0-0.5,0-1.1,0.1-1.6c0.1-0.4,0.1-0.7,0.1-1.1c0.1-0.2,0.1-0.5,0.1-0.7
				C187.2,31.7,193.1,27.2,199.7,24.9z M160.7,137.1c-2.4,2.2-4.7,4.5-6.7,7c0,0,0,0,0,0l0,0c-0.5-0.9-1-1.9-1.5-2.7
				C155.3,140.3,158.1,138.9,160.7,137.1C160.7,137.2,160.6,137.2,160.7,137.1C160.7,137.2,160.7,137.2,160.7,137.1z M145.6,132.7
				L145.6,132.7L145.6,132.7c-1.5-1.2-3-2.3-4.4-3.5c6.7-11,16.8-19.9,25.9-29.4c5.3-5.6,9.9-11.7,12.3-19c1.4-4.3,1.6-8.8,1.2-13.3
				c0,0,0,0.1,0,0.1v-0.1c0.5,1.7,1,3.4,1.3,5.1c1.6,8.9-1.7,18.5-5.1,26.7c-3.2,7.6-7.4,14.9-13.1,21
				C159.1,125.3,152.6,131.1,145.6,132.7z M187,19.4c-4.8,3.3-8.5,7.8-10.7,13.1c-2,4.9-2,10.3-1.2,15.5c0,0,0-0.1,0-0.1
				c0,0,0,0.1,0,0.1c-2.5-4.3-5.9-7.8-10.6-10.1c0.6-1.2,1.4-2.4,2.1-3.6C170.4,28.4,178.8,21,187,19.4L187,19.4
				C186.9,19.4,187,19.4,187,19.4z M159,16.1c4.1-3.3,9.5-4.7,14.7-5.4c1.1-0.1,2.2-0.2,3.3-0.2c1.1,0,2.1,0,3.2,0
				c-7.6,2.9-14.7,8.4-19.5,13.7c-2,2.3-3.8,4.8-5.3,7.4l0,0l0,0c-1.5-2.4-3.1-4.6-4.8-6.8C153.2,21.8,155.9,18.7,159,16.1z
				 M101.3,16.1c3.8-1.1,7.7-1.7,11.7-1.6c3.9,0,7.9,0.7,11.7,1.9c8.4,2.7,14.2,10.7,19.1,17.3c4.3,5.8,7,13.1,7.6,20.4
				c-0.2,3.8-0.7,7.5-2.5,10.9l0,0h0c-2.5-1.8-5.4-3.1-8.7-4.2c3.8-11.5,1.5-23.3-6.9-32.7c-4.7-5.2-11.7-8.4-19.2-9.4
				c-0.3,0-0.7-0.1-1-0.1c-0.4,0-0.8-0.1-1.2-0.1c-3.7-0.3-7.5,0-11,0.8l0,0h0C100.9,18.1,101.1,17.1,101.3,16.1z M129.7,57.7
				C129.7,57.6,129.7,57.6,129.7,57.7L129.7,57.7c-4.9-1.6-9.6-3.5-14-6.5c-6.8-4.6-11.9-12.8-14-21.3c2-0.7,4.2-1,6.3-1.1
				c6.5-0.2,13.2,2.4,17.5,6.7c1,1,1.3,1.5,2.3,3.2c1.2,1.8,1.9,3.6,2.5,5.6C131.8,48.8,131.2,53.3,129.7,57.7z M89.9,17.6
				L89.9,17.6C89.9,17.6,89.9,17.6,89.9,17.6c-1.4,13,4.6,27,13.2,36.6c5.8,6.5,14.3,10.7,22.7,13.5c5.3,1.8,15.2,2.3,18.7,7.4
				c-1.5,1.3-3.2,2.4-4.9,3.6c-1.6,1.1-3.3,2.2-4.9,3.3l0,0l0,0c-5.3-6.3-12.5-9.3-20.3-11.2c-7.6-3.9-16.7-4.1-24.1-8.6
				c-5.9-3.6-9.9-10.6-11.4-17.1C76.9,36.4,79.8,21.1,89.9,17.6z M65.8,24.8c1.7-2.8,4.4-5,7.4-6.5c0,0,0,0,0,0c0,0,0.1,0,0.1,0
				c-4.8,7.8-6.5,18.1-5.4,26.2c0.6,5,2.4,10,5.2,14.5c0,0,0,0-0.1,0c0,0,0,0,0,0c-0.1-0.1-0.2-0.2-0.4-0.3
				C62.3,51,59.1,35.5,65.8,24.8z M96.9,134.2C96.9,134.2,96.9,134.2,96.9,134.2C96.9,134.1,96.9,134.2,96.9,134.2
				c-5.8-3.2-12.1-5.7-17.5-9.8c-7-5.2-12-11.5-15.9-19c-1.6-3.2-3.1-6.8-4.1-10.6c0,0,0,0,0,0s0,0,0,0c6.8,6.2,14.9,10.8,23.8,13.9
				c4.5,1.6,8.9,3.2,13.1,5.2c1.8,0.8,4,2.1,5.1,3c0.2,0.2,0.4,0.4,0.6,0.6C99.4,122.8,97.5,128.6,96.9,134.2z M107.3,108
				c-2.9-2.1-6.5-3.8-9.6-5.1c-4.5-1.9-9.2-3.5-13.9-5.2c-0.7-0.3-1.5-0.5-2.2-0.8c-0.4-0.2-0.8-0.4-1.2-0.6c-3.2-1.6-6.2-3.4-9-5.5
				c-5.9-4.4-11-9.8-14.3-16.3c-2.5-4.7-3.3-10.9-4-16.1c-0.5-3.6-0.7-7.5-0.4-11.2c0,0,0,0.1,0,0.1v-0.1c1,3.6,2.4,7.1,4.2,10.2
				c6.9,11.8,21.3,17.3,34.5,19.7c6.4,1.2,12.7,1.9,18.9,3.6c0.9,0.5,1.8,0.8,2.7,0.8c4.6,1.4,9.7,3.4,12.9,6.9
				c-6.6,5.1-12.5,10.8-17.2,17.6C108.2,106.6,107.8,107.3,107.3,108L107.3,108L107.3,108z M123.9,143.2c-1.5,6.7-1.4,13.5,0.1,20.2
				c0,0,0,0,0,0v0c-0.7-0.4-1.3-0.9-2-1.3c-6.6-4.6-11.7-12.2-13.8-19.7c-1.8-6.3,0.3-13.1,3.3-19.2c0.4-0.3,0.6-0.7,0.9-1.2
				c0.3-0.6,0.5-1.3,0.7-1.9c1.1-2.1,2.2-4.1,3.3-5.9c4.4-7.6,10.9-13.6,18-18.9c6.9-5.1,15.5-9.2,20.8-15.9
				c5.2-6.5,7.4-14.9,7.3-23.3c0.1-0.8,0.2-1.5,0.2-2.2c0.2-1.6,0-3.1-0.1-4.7c0,0,0,0,0,0v0c1.8,1.5,3.2,3.6,4.3,6
				c2,4.1,2.5,8.5,2.8,12.5c0.5,6.1-0.6,11.3-3.9,16.6c-3.9,6.3-9.7,11.4-15,16.6C138.5,112.8,127.7,126.7,123.9,143.2z
				 M137.1,168.6L137.1,168.6L137.1,168.6c-0.6-1.3-1.1-2.7-1.5-4c-2.8-8.5-2.1-16.8,0.8-25.2c0-0.1,0-0.1,0.1-0.2l0,0v0
				c0.4,0.3,0.7,0.5,1.1,0.8c2.4,1.9,4,4.5,5.6,7c1.9,3.1,3.2,6.2,3.7,9.6C142.9,160.3,139.5,164.3,137.1,168.6z M149.6,191
				C149.6,191,149.6,191,149.6,191C149.6,191,149.6,191,149.6,191c-1.4-1.8-2.8-3.5-4.3-5.3c-1.5-5.1,0-10.2,3.1-14.7l0,0
				c0,0,0,0,0-0.1c0,0.1,0.1,0.3,0.1,0.4c1.5,4.7,4.8,8.2,9,10.9C154.9,185.1,152.3,188.1,149.6,191z M180,158.4
				c-5.3,5-10.1,10.5-15,15.9c0,0,0,0,0,0l0,0c-0.1,0-0.2-0.1-0.3-0.2c-3.8-2.1-5.6-4.6-6.3-8.6c-0.3-1.5-0.3-2.9-0.4-4.4
				c3.3-2.6,6.7-4.7,9.7-6.3c10.3-5.4,21.5-9,32-14c0.6-0.3,1.1-0.5,1.6-0.8c0,0,0,0,0,0c0,0,0,0,0.1,0
				C194.4,146.2,186.8,152,180,158.4z M214.9,117.8c-3.6,4.2-8.4,7.2-13.2,10c-9.2,5.3-19.1,9.1-28.9,13.2c0,0,0,0,0,0
				c0,0,0,0-0.1,0c2.2-1.6,4.4-3.2,6.6-4.5c10.7-7.1,24.3-12.2,32.4-22.2c2.6-3.2,4.8-6.6,6.5-10.3c0,0,0,0,0,0c0,0,0,0,0,0
				c0.3,0.9,0.5,1.7,0.6,2.6C219.3,110.9,217.7,114.4,214.9,117.8z M227,97C227,97,227,97,227,97C227,97,227,97,227,97
				c-1.2-2.4-2.6-4.7-4.2-7c1.1-5.3,1.5-10.8,1.4-16.3c0,0,0,0.1,0,0.1c0,0,0-0.1,0-0.1c0.8,2.2,1.5,4.5,2,6.8
				C227.4,86.1,227.6,91.6,227,97z M237.8,84.6C237.8,84.5,237.8,84.5,237.8,84.6C237.8,84.5,237.8,84.5,237.8,84.6
				c-0.8-7.2-2.8-14.3-6-20.9c-3.7-7.8-8.7-14.9-13.2-22.2c-1.7-2.7-3.6-5.9-4-9.2c-0.4-2.9,1-4.5,2.6-6.4l0,0v0
				c0.9,0.5,1.8,1,2.7,1.5c8.2,5,12.8,13.8,16.5,22c2.8,6.2,3.4,12.5,3.4,19.2C239.8,73.7,239.5,79.5,237.8,84.6z M250.7,64.4
				c0-0.1,0-0.1,0-0.1C250.7,64.4,250.7,64.4,250.7,64.4c-0.4-6.7-1.6-13-4.4-19.3c-4.4-10-10.1-19.3-19.4-25.8
				c-3.5-2.5-7.6-4.6-11.8-6.1h0h0c5.8,0.8,11.4,3.1,16.6,6.5c7.5,5,14.5,13.7,17.4,22.1C251.8,49.5,252.1,57.1,250.7,64.4z"/>
			<path d="M149.6,191C149.6,191,149.6,191,149.6,191"/>
			<path d="M145.4,185.7c1.4,1.7,2.9,3.5,4.2,5.3c0,0,0,0,0,0C148.3,189.2,146.8,187.5,145.4,185.7"/>
			<path d="M145.4,185.7c1.4,1.7,2.9,3.5,4.2,5.3"/>
		</g>
		<g>
			<path d="M55.7,225.3l0.6,0.1c0.2,0,0.3,0,0.5,0c0.3,0,0.7-0.1,1-0.2l6.1-2.9c0.9-0.4,1.4-1.3,1.2-2.2c-0.1-0.9-0.8-1.7-1.7-1.9
				l-1.1-0.3c-0.6-0.1-1.2-0.1-1.7,0.2l-5.6,3.1c-0.8,0.5-1.3,1.3-1.1,2.2C54.1,224.3,54.8,225.1,55.7,225.3z"/>
			<path d="M12.2,283.7H5.3c-1.8,0-3,1.2-3,2.9v13.1c0,0.6,0.5,1.1,1.2,1.1h0.4c0.7,0,1.2-0.5,1.2-1.1v-6.3h6.7
				c0.7,0,1.2-0.5,1.2-1.2v-0.3c0-0.7-0.5-1.2-1.2-1.2H5.1v-4.2c0-0.1,0-0.2,0.1-0.2h6.9c0.7,0,1.2-0.5,1.2-1.2v-0.3
				C13.4,284.2,12.9,283.7,12.2,283.7z"/>
			<path d="M49.2,283.7h-0.4c-0.7,0-1.2,0.5-1.2,1.2v8.8c0,3.1-1.1,4.6-3.3,4.6h-0.6c-2.2,0-3.3-1.5-3.3-4.6v-8.8
				c0-0.6-0.5-1.2-1.2-1.2h-0.4c-0.7,0-1.2,0.5-1.2,1.2v8.8c0,4.6,2.3,7.3,6.1,7.3h0.6c3.9,0,6.1-2.7,6.1-7.3v-8.8
				C50.5,284.2,49.9,283.7,49.2,283.7z"/>
			<path d="M86.6,283.7h-0.4c-0.7,0-1.2,0.5-1.2,1.2v10.8l-6.8-10.9c-0.4-0.6-1-1-1.7-1c-1,0-1.8,0.8-1.8,1.8v14.2
				c0,0.6,0.5,1.1,1.2,1.1h0.4c0.7,0,1.2-0.5,1.2-1.1V289c1.6,2.6,4,6.4,5.4,8.7c0.8,1.3,1.4,2.2,1.4,2.2c0.4,0.6,1,1,1.7,1
				c1,0,1.8-0.8,1.8-1.8v-14.2C87.8,284.2,87.2,283.7,86.6,283.7z"/>
			<path d="M117.5,283.7h-4.3c-0.7,0-1.2,0.5-1.2,1.2v14.8c0,0.6,0.5,1.1,1.2,1.1h4.3c4.4,0,7.2-3.3,7.2-8.6
				C124.7,287,121.9,283.7,117.5,283.7z M117.5,298.2h-2.7v-11.8h2.7c3.8,0,4.3,4.1,4.3,5.9C121.8,294.1,121.3,298.2,117.5,298.2z"
				/>
			<path d="M160.4,293c-0.6-2-1.9-6.2-2.6-7.7l0.1,0c-0.4-1-1.3-1.6-2.6-1.6H155c-1.3,0-2.2,0.6-2.6,1.6l0,0
				c-0.4,0.8-1.1,2.8-2.6,7.7c-0.9,3.1-1.5,5.2-1.8,6.4c-0.1,0.3,0,0.7,0.2,1c0.2,0.3,0.6,0.4,1,0.4h0.4c0.6,0,1.1-0.4,1.2-0.9
				c0.2-0.9,0.6-2.4,1.2-4.3h6.2c0.5,1.6,0.9,3,1.2,4.3c0.1,0.5,0.6,0.9,1.2,0.9h0.4h0c0.7,0,1.2-0.5,1.2-1.1c0-0.2,0-0.4-0.1-0.5
				C161.8,298,161.3,295.9,160.4,293z M152.8,293c0.6-2,1.3-4.3,2.2-6.6h0h0.2c0.9,2.3,1.6,4.6,2.2,6.6H152.8z"/>
			<path d="M192.8,286.2h0.3c1,0,1.9,0.3,2.6,0.9c0.5,0.4,1.2,0.4,1.6,0l0.3-0.3c0.3-0.2,0.4-0.6,0.4-0.9c0-0.3-0.2-0.6-0.4-0.9
				c-1.2-1-2.8-1.5-4.5-1.5h-0.3c-4.5,0-7.4,3.4-7.4,8.8c0,5.3,2.9,8.8,7.4,8.8h0.3c1.7,0,3.3-0.5,4.5-1.5c0.3-0.2,0.4-0.5,0.4-0.9
				c0-0.3-0.1-0.7-0.4-0.9l-0.3-0.3c-0.5-0.4-1.1-0.4-1.6,0c-0.7,0.6-1.6,0.8-2.6,0.8h-0.3c-4.3,0-4.5-5.1-4.5-6.1
				C188.2,291.3,188.4,286.2,192.8,286.2z"/>
			<path d="M224.2,283.7h-0.4c-0.7,0-1.2,0.5-1.2,1.2v14.8c0,0.6,0.5,1.1,1.2,1.1h0.4c0.7,0,1.2-0.5,1.2-1.1v-14.8
				C225.5,284.2,224.9,283.7,224.2,283.7z"/>
			<path d="M257.5,283.5c-4.5,0-7.4,3.4-7.4,8.8c0,5.3,2.9,8.8,7.4,8.8c4.5,0,7.4-3.4,7.4-8.8C264.9,287,262,283.5,257.5,283.5z
				 M257.5,298.4c-4.3,0-4.6-5.1-4.6-6.1c0-1,0.2-6.1,4.6-6.1c4.3,0,4.5,5.1,4.5,6.1C262,293.3,261.8,298.4,257.5,298.4z"/>
			<path d="M259.8,279.1c-0.3-0.1-0.7-0.1-1,0.1l-2.8,1.5c-0.4,0.2-0.7,0.7-0.6,1.1c0.1,0.5,0.4,0.8,0.8,1l0.3,0.1
				c0.1,0,0.3,0.1,0.4,0.1c0.2,0,0.4,0,0.5-0.1l3.1-1.4c0.4-0.2,0.7-0.6,0.7-1.1c0-0.5-0.3-0.9-0.8-1L259.8,279.1z"/>
			<path d="M301.1,283.7h-0.4c-0.7,0-1.2,0.5-1.2,1.2v10.7l-6.7-10.9c-0.4-0.6-1-1-1.7-1c-1,0-1.8,0.8-1.8,1.8v14.2
				c0,0.6,0.6,1.1,1.2,1.1h0.4c0.7,0,1.2-0.5,1.2-1.1v-10.8c2.5,4,6.7,10.8,6.8,10.9c0.4,0.6,1,1,1.7,1c1,0,1.8-0.8,1.8-1.8v-14.2
				C302.3,284.2,301.7,283.7,301.1,283.7z"/>
			<path d="M219.9,228.4h-1.1c-0.6,0-1.1,0.4-1.2,0.9c-3.7,14.7-7.1,25.7-11,35.7c-0.2,0.5-0.8,0.8-1.6,0.8h-0.4
				c-0.8,0-1.5-0.3-1.7-0.8c-3.9-10-7.4-21.4-11-35.7c-0.1-0.5-0.6-0.9-1.2-0.9h-1.1c-0.4,0-0.7,0.2-1,0.4c-0.2,0.3-0.3,0.7-0.2,1
				c1.3,5.3,6.2,23.8,11.2,36.4c0.7,1.9,2.5,2.9,5,2.9h0.4c2.5,0,4.3-1.1,5-2.9c5.4-13.7,10.4-33.1,11.2-36.4c0.1-0.3,0-0.7-0.2-1
				C220.7,228.5,220.3,228.4,219.9,228.4z"/>
			<path d="M229.6,228.4h-1c-0.7,0-1.2,0.5-1.2,1.2v38.4c0,0.7,0.6,1.2,1.2,1.2h1c0.7,0,1.3-0.5,1.3-1.2v-38.4
				C230.8,228.9,230.3,228.4,229.6,228.4z"/>
			<path d="M253.6,269.1c2.5,0,4.3-1.1,5-2.9c4.9-12.5,9.9-31,11.2-36.4c0.1-0.3,0-0.7-0.2-1c-0.2-0.3-0.6-0.4-1-0.4h-1.1
				c-0.6,0-1.1,0.4-1.2,0.9c-3.7,14.6-7.1,25.6-11,35.8c-0.2,0.5-0.8,0.8-1.6,0.8h-0.4c-0.8,0-1.4-0.3-1.6-0.8
				c-3.9-10-7.3-21.1-11-35.7c-0.1-0.5-0.6-0.9-1.2-0.9h-1.1c-0.4,0-0.7,0.2-1,0.4c-0.2,0.3-0.3,0.7-0.2,1
				c0.7,3.3,5.7,22.6,11.2,36.4c0.7,1.9,2.5,3,5,3H253.6z"/>
			<path d="M39.9,267.9v-36.8c0-2-1.4-3.4-3.3-3.4c-1.5,0-2.8,0.9-3.4,2.2c-0.2,0.3-1.5,3-12.2,23.8c-3.7-7.2-11.7-22.9-12.1-23.7
				c-0.7-1.4-2-2.3-3.5-2.3c-1.9,0-3.3,1.5-3.3,3.4v36.8c0,1.1,0.9,1.9,2,1.9h1.1c1.1,0,2-0.9,2-1.9v-30.3
				c4.2,8.2,11.4,22.5,11.5,22.7c0.4,0.8,1.3,1.4,2.3,1.4c1,0,1.9-0.5,2.4-1.4c0.1-0.1,0.9-1.8,2.2-4.3c3.6-7,7-13.7,9.3-18.3v30.3
				c0,1.1,0.9,1.9,2,1.9h1.1C39,269.9,39.9,269,39.9,267.9z"/>
			<path d="M68,227.6H50.1c-3.9,0-6.6,2.6-6.6,6.3v29.5c0,3.7,2.7,6.4,6.6,6.4H68c1.1,0,2-0.9,2-1.9V267c0-1.1-0.9-1.9-2-1.9H50.1
				c-0.7,0-1.5-0.2-1.5-1.6v-12.9H67c1.1,0,2-0.9,2-1.9v-0.9c0-1.1-0.9-1.9-2-1.9H48.5V234c0-1.4,0.9-1.6,1.5-1.6H68
				c1.1,0,2-0.9,2-1.9v-0.9C70,228.5,69.1,227.6,68,227.6z"/>
			<path d="M100.9,257.6c-2.9-4.7-5-7.9-6.7-9.8c1.7-2.2,4.4-6.4,5.9-8.8c2.7-4.5,4.2-7.3,4.8-8.6c0.3-0.6,0.2-1.3-0.1-1.8
				c-0.4-0.6-1-0.9-1.7-0.9h-1.2c-0.8,0-1.5,0.4-1.8,1.1c-0.6,1.2-1.9,3.8-4.4,7.8c-3.8,6.2-5.9,8.8-5.9,8.8c0,0-0.1,0.1-0.1,0.1
				c0,0-0.1-0.1-0.1-0.1c-0.2-0.3-2.4-2.9-5.9-8.7c-2.2-3.7-3.6-6.3-4.4-7.8c-0.3-0.7-1-1.1-1.8-1.1h-1.1c-0.7,0-1.3,0.3-1.7,0.9
				c-0.4,0.5-0.4,1.2-0.1,1.8c1.2,2.4,2.8,5.4,4.8,8.6c1.5,2.3,4.2,6.6,5.9,8.8c-2.1,2.5-4.7,6.7-6.7,9.9c-3.2,5.3-4.7,8.4-5.3,9.5
				c-0.3,0.6-0.2,1.3,0.1,1.8c0.4,0.6,1,0.9,1.7,0.9h1.2c0.8,0,1.5-0.4,1.8-1.1c1.3-2.6,2.9-5.5,4.8-8.7c3.9-6.5,5.7-8.9,6.5-9.7
				c0,0,0.1-0.1,0.2-0.1c0.2,0,0.3,0.1,0.3,0.1c0,0,0.1,0.1,0.1,0.1c0.8,0.9,2.6,3.3,6.4,9.7c1.9,3.1,3.5,6,4.8,8.6
				c0.3,0.7,1,1.1,1.8,1.1h1.2c0.7,0,1.3-0.3,1.7-0.9c0.4-0.5,0.4-1.2,0.1-1.8C105.5,265.7,103.9,262.6,100.9,257.6z"/>
			<path d="M113.5,269.9c1.1,0,2-0.9,2-1.9v-38.4c0-1.1-0.9-1.9-2-1.9h-1c-1.1,0-2,0.9-2,1.9v38.4c0,1.1,0.9,1.9,2,1.9H113.5z"/>
			<path d="M150.6,265.3c0-0.5-0.2-1.1-0.6-1.5l-0.8-0.7c-0.7-0.7-1.9-0.7-2.6-0.1c-2.1,1.6-4.7,2.5-7.6,2.5h-0.8
				c-9.5,0-13-8.7-13-16.9c0-8.1,3.4-16.8,13-16.8h0.8c2.9,0,5.5,0.9,7.6,2.5c0.8,0.6,1.9,0.6,2.6-0.1l0.8-0.7
				c0.4-0.4,0.7-0.9,0.6-1.5c0-0.5-0.3-1.1-0.7-1.4c-2.9-2.4-6.7-3.6-10.9-3.6h-0.8c-11,0-18.1,8.5-18.1,21.6
				c0,13.1,7.1,21.6,18.1,21.6h0.8c4.2,0,8-1.3,10.9-3.6C150.4,266.4,150.6,265.9,150.6,265.3z"/>
			<path d="M170.8,227.1c-11,0-18.1,8.5-18.1,21.6c0,13.1,7.1,21.6,18.1,21.6c11,0,18.1-8.5,18.1-21.6
				C188.9,235.6,181.7,227.1,170.8,227.1z M170.8,265.6c-9.6,0-13-8.7-13-16.9c0-8.1,3.4-16.8,13-16.8c9.5,0,12.9,8.7,12.9,16.8
				C183.7,256.9,180.3,265.6,170.8,265.6z"/>
			<path d="M303.1,248.7c0-12.7-6.8-20.9-17.4-20.9c-10.5,0-17.3,8.2-17.3,20.9c0,12.7,6.8,20.9,17.3,20.9
				C296.2,269.6,303.1,261.4,303.1,248.7z M285.7,266.3c-10.1,0-13.7-9.5-13.7-17.6c0-8.5,3.6-17.6,13.7-17.6
				c10.1,0,13.7,9.1,13.7,17.6C299.4,257.2,295.8,266.3,285.7,266.3z"/>
		</g>
	</g>
	<g>
		<path d="M313.1,231.9c-1.1,1.1-2.4,1.6-3.9,1.6c-1.5,0-2.8-0.5-3.9-1.6c-1.1-1.1-1.6-2.4-1.6-3.9c0-1.5,0.5-2.8,1.6-3.9
			c1.1-1.1,2.4-1.6,3.9-1.6c1.6,0,2.9,0.5,3.9,1.6c1.1,1.1,1.6,2.4,1.6,3.9C314.7,229.5,314.2,230.8,313.1,231.9z M305.8,224.6
			c-0.9,0.9-1.4,2.1-1.4,3.4c0,1.3,0.5,2.5,1.4,3.4c0.9,0.9,2,1.4,3.4,1.4c1.3,0,2.5-0.5,3.4-1.4c0.9-0.9,1.4-2.1,1.4-3.4
			c0-1.3-0.5-2.5-1.4-3.4c-0.9-0.9-2.1-1.4-3.4-1.4C307.8,223.2,306.7,223.6,305.8,224.6z M309,224.9c0.8,0,1.3,0.1,1.7,0.2
			c0.6,0.3,1,0.8,1,1.5c0,0.6-0.2,0.9-0.6,1.2c-0.2,0.1-0.5,0.2-0.9,0.3c0.5,0.1,0.8,0.3,1,0.6c0.2,0.3,0.3,0.6,0.3,0.9v0.4
			c0,0.1,0,0.3,0,0.5c0,0.2,0,0.3,0.1,0.3l0,0.1h-1c0,0,0,0,0-0.1c0,0,0-0.1,0-0.1l0-0.2v-0.5c0-0.7-0.2-1.2-0.6-1.4
			c-0.2-0.1-0.6-0.2-1.2-0.2H308v2.4h-1.1v-6.1H309z M310.2,225.9c-0.3-0.2-0.7-0.2-1.3-0.2H308v2.2h1c0.5,0,0.8,0,1-0.1
			c0.4-0.2,0.6-0.5,0.6-1C310.6,226.3,310.5,226,310.2,225.9z"/>
	</g>
</g>
</svg>
