<?xml version="1.0" encoding="utf-8"?>
<!-- Generator: Adobe Illustrator 25.0.0, SVG Export Plug-In . SVG Version: 6.00 Build 0)  -->
<svg version="1.1" id="Capa_1" xmlns="http://www.w3.org/2000/svg" xmlns:xlink="http://www.w3.org/1999/xlink" x="0px" y="0px"
	 viewBox="0 0 639 427.5" style="enable-background:new 0 0 639 427.5;" xml:space="preserve">
<style type="text/css">
	.st0{fill:#FFFFFF;}
	.st1{fill:#F5F6F7;}
	.st2{fill:#FDFDFD;}
	.st3{fill:#F5F5F6;}
</style>
<g>
	<g>
		<path d="M313.8,266.7c-1.9,40.8-10.7,79.6-33.5,114.1c-11.7,17.6-26.1,33.1-45.1,42.9c-21.4,10.9-46-3.1-47.6-23.5
			c-1-12.9,3-24.2,7.8-35.5c5.4-12.7,12.3-24.6,16.7-37.8c5.9-18.1,1.9-35.2-4.7-52c-7.2-18.4-16.7-35.8-25.3-53.6
			c-8.2-17-8.1-33.7,3.1-49.5c6.7-9.5,16.5-14,27.7-14.5c27.4-1.3,49,11.2,67.7,29.7c19.6,19.3,30.5,42.8,32.4,70.3
			c0.1,1.7,0.6,3.3,0.7,4.9C313.9,263.7,313.8,265.2,313.8,266.7z"/>
		<path d="M89.2,100.2c1.5-3.3,4.1-5.8,6.7-8.2c4-2.7,7.1-6.2,10-9.9c5.5-5.9,12-10.3,19.1-13.9c8.9-3.5,17.4-8.1,27.2-9.2
			c11.7-1.4,23.4-2.2,34,4.7c0.6,0.4,1.1,0.6,1.8,0.5c4.6,2.7,8.2,6.2,10.1,11.3c2.7,5.9,5.3,11.8,5.8,18.4c0.4,5.1-0.1,5.8-5.2,5.7
			c-2.2,0-4.3-0.2-6.2,1.3c-5.9,4.5-11,9.3-12.5,17.2c-1.6,8.5-0.1,16.1,5.2,22.9c1,1.3,2.5,2.3,2,4.3c-5.1,11-10.4,21.8-14.8,33.1
			c-8.9,22.8-7.3,44.6,3.9,66.3c7.2,14,14.8,27.9,17.2,43.7c1.1,7.2,0.3,14.2-2.4,20.9c-2.6,3.9-6.2,7.2-9,10.9
			c-11.4,8.9-23.8,9.3-36.3,3.3c-8.7-4.1-16.1-10.3-22.8-17.3c-2.2-3.2-4.8-5.9-8-7.9c-9.8-10.1-17.3-21.8-23.7-34.2
			c0.7-1.4-0.2-2.6-0.8-3.7c-8.7-16.9-13.9-34.9-17.5-53.5c-3.7-19.5-6.1-39-2.9-58.8c1.5-9.5,4-18.8,8.1-27.6
			c0.7-1.5,1.5-2.9,1.6-4.7l-0.1,0.1C83.4,111.1,85.9,105.4,89.2,100.2z"/>
		<path d="M304,113c-6.5-3.6-12.3-8.3-18.7-12c-14.7-8.5-30.4-14.2-46.7-18.6c-3.5-2.4-7.8-1.8-11.7-2.8c-4.8-1.2-5.2-1.9-4.5-7.4
			c0.6-4.5,3.2-4.1,6.4-3.6c18.5,2.9,36,8.7,52.9,16.7c1,0.5,2,1.2,3.3,1c58.9,32.4,92.2,81.5,97.9,148.9
			c-0.9,9.6,0.1,19.2-1.4,28.7c-0.5,3.3-1.1,6.5-1.5,9.8c-0.2,1.6-0.6,3-2.6,2.9c-8.4-1.3-8.5-1.3-7.4-10
			c2.8-22.8,1.1-45.3-5.3-67.4c-0.7-2.3-0.8-5-2.9-6.7c-3.7-8.6-7.1-17.3-11.6-25.6c-9.2-17-21.4-31.4-35.2-44.7
			C312.1,118.2,308.2,115.4,304,113z"/>
		<path d="M170,422.1c-34.7-3.2-65.5-16-93.1-37.1C51,365.2,32,340.1,19.6,310c-0.2-0.6-0.3-1.2-0.5-1.9c0.8-2.5-1-4.4-1.7-6.5
			C12,285.1,7.7,268.3,8,250.7c0.4-8.8-0.7-17.6,0.9-26.4c0.6-3.6,2.1-4.4,5.3-3.8c3.2,0.5,6.4,0.8,5.7,5.1
			c-1.7,10.2-1.8,20.5-0.8,30.8c1,10.6,1.9,21.4,6.2,31.4c2.6,7.1,5.1,14.3,7.7,21.4c1.8,5.8,4.3,11.2,8.1,15.9
			c9.3,15.1,20,28.9,33,41c2.8,4.1,6.6,6.9,10.9,9.2c12.3,8.9,25.5,16.5,39.4,22.6c1.7,2.6,4.8,2.9,7.3,3.7
			c12.2,3.9,24.4,7.4,37.2,8.7c5.7,0.6,7.5,3.8,5.9,9.4C174,422.7,171.5,421.2,170,422.1z"/>
		<path d="M187.2,145.3c-11.4-12.2-12.1-29.5-1.7-40.2c2-2.1,4.5-3.2,6.9-4.7c4.3-2.1,8.4-1.8,12.3,1c12.7,9.7,13.1,22.8,9.7,32.9
			C210.1,147.1,199.7,151.2,187.2,145.3z"/>
		<path d="M201.9,32.1c-0.7,2.6-1.5,5-3.3,7.1c-2,1.8-4.1,3.6-5.6,6c-4,3.4-8.5,3.9-13.3,2.2c-12.6-7.6-16.7-19.7-11.6-33.9
			c0.5-1.4,1.1-2.8,1.1-4.3c3.8-6,8.9-10,16.3-9.1c7.8,0.9,12.6,5.9,15.3,13.1C202.1,19.5,202.2,25.8,201.9,32.1z"/>
		<path d="M376.9,307.2c0,16.3,0.1,32.6,0.1,48.9c0,1.7,1.6,4.6-1.5,4.9c-2.9,0.3-6.3,1.4-8.3-2.5c-4.4-8.7-9.1-17.3-13.7-25.9
			c-1.2-2.3-2.4-4.5-4.5-6.6c0,9.9,0,19.7,0,29.6c0,6.3-1.3,7.1-8,4.7c1.2-1.5,0.5-3.2,0.5-4.8c0.1-14.6,0-29.2,0-43.8
			c0-2-0.4-4.3,2.2-4.9c2.5-0.6,4.4,0.3,5.9,2.5c1.9,2.9,2.4,6.6,5.3,8.8c4.2,7.5,8.4,15.1,13,23.4c0.3-3.4,0.6-6,0.8-8.6
			c0.8,1,0.9,2,0.7,2.4c0-6.9,0-14.3,0-21.8C369.5,306.3,369.7,306.2,376.9,307.2z"/>
		<path d="M393.9,386.2c0.3,1.3,1.1,1,1.9,0.6c1.8-0.2,2.7-1.8,4.1-2.5c4.7-2.3,8.7-1.2,13.3,3.6c0.7,0.5,1.2,1.4,2.2,1.2
			c4.4-5.5,9.9-7,16.6-4.8c3.6,2.2,5,5.6,5.1,9.7c0,9-0.1,18,0.1,27c0.1,3.5-1.7,3.2-4,3.2c-2.1-0.1-4.3,0.5-4.2-3.1
			c0.2-7,0.1-14,0-21c0-5.4-2.5-8.9-6-8.9c-3.4,0-6.7,4.4-6.8,9.1c-0.1,5.8,0,11.7,0,17.5c0,7-0.7,7.5-8.3,5.6
			c1.6-4.8,0.3-9.7,0.7-14.6c0.2-3.1-0.1-6.2,0.1-9.3c-0.1,6.7-0.1,13.4-0.1,20.1c0,1.2,0.6,2.7-0.7,3.7c-0.2-8-0.4-16.1-0.6-24.1
			c-0.1-3.2-0.8-5.9-3.8-7.5c-3.2-1.7-5.2,0.8-7.3,2.5c-2.5,1.8-2.5,4.5-2.5,7.1c0,5.6,0,11.3,0,16.9c0,2.3-0.2,4.6-3.1,4.7
			c-3.5,0.2-3.4-2.5-3.4-4.8c0-9.4-0.1-18.9,0-28.3C387.1,383.9,388.6,383.1,393.9,386.2z"/>
		<path d="M240.5,112.9c5.5-0.1,9.1,2.9,11.2,7.6c3.9,8.6,1.8,18.6-4.9,25.2c-7,6.9-17.3,5.2-21.5-3.6c-4.4-9.1-0.2-22.6,8.4-27.7
			C235.9,113.2,238.2,113,240.5,112.9z"/>
		<path d="M326.9,413.1c0.3-0.4,0.7-0.7,1-1.1c4.4-4.4,4.3-4.2,8.1,0.4c1.7,2,1.3,3-0.2,4.8c-8.8,10.9-27.5,10.7-35-0.4
			c-2.9-6.3-5.9-12.4-5.9-19.6c0-7.1,1.4-13.7,5.9-19.4c0.6-0.8,1.1-1.6,1-2.7c2-1.7,3.6-3.8,6.2-4.7c4.7-0.7,9.1-3.1,14.1-1.8
			c3.7,1,6.9,3.3,10.5,4.4c6,4.5,6.1,5.2,2.1,9.4c-1.9,2-3.1,1.9-5.2,0c-4.5-4.3-9.9-7.1-16.2-4.2c-6.6,3-9.9,8.5-10.4,15.7
			c-0.6,7.5,1.2,14.1,7.2,19.2C315.3,417.5,321.2,417.5,326.9,413.1z"/>
		<path d="M433.5,327.1c0.9,2.6,1.8,5.3,2.6,7.9c0.8,2.5,1.4,5,2.3,8.1c3.1-6.4,4.3-12.7,6.4-18.7c0.6-1.7,0.3-4,3.3-4.1
			c3-0.1,3.4,2,4.1,4c1.6,5.2,3.2,10.4,4.8,15.6c0.3,0.9,0.3,2.2,1.6,1.9c0.5-0.1,0.8-1.3,1.2-2c3-4.5,2.8-10,5-14.8
			c0.6-1.3,0.6-3,2.3-3.5c3.2-0.9,4.5,0.7,4.7,3.7c-3.2,10.6-6.4,21.2-9.7,31.8c-0.6,1.9-0.6,4.3-3.8,4.3c-3.2,0-3-2.3-3.6-4.3
			c-1.9-6-3.9-11.9-6.3-19.1c-2.4,7.6-4.4,13.9-6.3,20.2c-1.1,3.5-2.9,4.5-6.1,2.3c-1.9-9.8-5.3-19.1-8.1-28.6
			c-0.6-2.2-1.4-4.4-1.9-6.7c-0.3-1.4-0.7-3.1,1.5-3.5c1.7-0.3,3.2-0.1,4.1,1.9C432.2,324.5,431.8,326.3,433.5,327.1z"/>
		<path d="M406.2,343.3c-3.5,0-7,0-10.5,0c-2.4,0-2.7,0.9-1.9,3.1c2.3,6.6,9.3,9.4,14.7,5.1c3.9-3.2,5.7,0.2,8.1,1.3
			c1.9,0.9,0,2.3-0.7,3.2c-5.6,7.6-17.8,8.4-24.7,1.6c-8.4-8.3-8.3-25.3,0.2-33.5c8.5-8.2,21.8-5.2,26.6,6c1.5,3.5,2.9,7.6,1.6,11.1
			c-1.8,4.8-6.7,1-10,2.1C408.7,343.5,407.4,343.2,406.2,343.3C406.2,343.2,406.2,343.3,406.2,343.3z"/>
		<path d="M509.3,388.5c5.2-5.8,10.2-7.6,15.5-5c5.1,2.5,6.8,7.5,6.8,13c0.1,8.2-0.1,16.3,0.1,24.5c0.1,4.1-2.5,3-4.6,3.1
			c-2.2,0.1-4.2,0.4-4-3.2c0.3-7.2,0-14.3-0.1-21.5c0-3.8-1.1-7.4-5.1-8c-4.2-0.7-5.8,3-7.2,6.3c-0.7,1.6-0.7,3.2-0.7,4.9
			c0,5.7-0.1,11.3,0,17c0.1,3.1-0.3,4.7-4.2,4.7c-4,0-4.1-1.7-4-4.7c0.1-10.8,0-21.7,0.1-32.5c0-1.8-1-4.3,2.6-3.9
			C507.1,383.5,510.8,381.8,509.3,388.5z"/>
		<path d="M373,388.4c8.7,9.5,7,26.6-3.2,34c-8.8,6.4-21,1.6-24.7-10.2c-2.4-7.6-2.2-15.4,2.9-22.3c1.8,0,2.3-1.8,3.4-2.7
			c5.9-5.2,13.2-5.2,19.2,0C371.2,387.7,371.8,388.6,373,388.4z"/>
		<path d="M467.2,407.8c4.1,9,8.1,10.3,17,5.6c3-1.6,5.1,0.8,6.9,2.4c1.8,1.6-0.5,2.9-1.4,3.9c-7.4,8.3-20,7.1-26.5-2.3
			c-4.6-6.7-4.7-20.3-0.1-27c7.8-11.6,22-10.7,28.8,1.9c-0.4,2.9,1.2,5.3,1.8,8c0.8,3.8-0.2,5.3-4.1,5.4c-6.1,0.1-12.2,0-18.3,0.1
			C469.6,405.7,467.4,405,467.2,407.8z"/>
		<path d="M134.9,46.4c-1.1-0.9-2.3-1.8-2.7-3.3c0-1.9-1.2-3.4-2-5.1c-3-6.2-2.5-12.3,0.4-18.3c2.7-5.7,10.5-7.9,16.4-4.8
			c1.2,0.6,2,1.7,3.4,2.1c6.5,5.7,8.7,14.5,5.7,23.2c-2.3,3.4-4.5,6.9-8.6,8.4C142.8,50.3,139.1,47.3,134.9,46.4z"/>
		<path d="M594,385.3c10.1,6.4,13.6,25.9,0.3,36.6c-5.2,4.2-11.5,4.2-17.4,0.3c-0.2-1.4-1.4-2.2-2.3-3.1c-3.7-3.4-5.6-7.5-5.1-12.6
			c-0.2-0.6-0.7,0.5,0,0.3c0.1,0,0.2,0.1,0.1,0.5c-0.1,0.8,0.2,1.7-0.7,2.2c-1.4-4.2-1.2-8.4,0.1-12.5c0.6,0.5,0.6,1.1,0.6,1.8
			c0.1-0.2,0-0.4,0-0.7c1.7-11.9,11.5-17.6,22.5-13.1C592.7,385.2,593.3,385.5,594,385.3z"/>
		<path d="M280.2,143.6c0.4,7-2.5,12.3-7,16.3c-6.6,5.8-14.5,3.3-17.9-5c-3.2-7.9,2.9-20.9,10.9-23.5
			C273.7,129.1,280.2,135,280.2,143.6z"/>
		<path d="M283,169c-0.2-4.4,2.2-9,5.8-12.7c3-3.2,6.9-5,11.7-3.4c5.1,1.7,6.6,5.8,7.4,10.3c1,5.7-1.3,10.8-4.9,15.1
			c-3.8,4.6-9.2,6.2-13.3,4.2C284.6,180,283,175.5,283,169z"/>
		<path d="M90,54.3c7.2,6.1,10,14.4,7.2,21.5c-2.8,7.2-9.1,9.4-15.6,5.4c-9.1-5.6-11.2-18.4-4.2-26.2C81.4,52.6,85.7,53.1,90,54.3z"
			/>
		<path d="M125.8,55.1c-5.4,7.1-7.8,10.5-15,6.3c-2.8-2.9-5.9-5.4-7.8-9c-3.7-7.5-2.6-14.4,3.4-19.6c2.5-2.2,5.8-2.1,8.8-0.6
			c3.9,2.1,6.7,5.4,9.2,9l-0.1-0.1C126.4,45.5,125,50.4,125.8,55.1z"/>
		<path d="M561.8,388.1c-4.1,8.8-8.3,17.6-12.8,27.3c4.1,0,7.6,0.2,11.1-0.1c3.6-0.3,3.2,1.9,3,4.1c-0.2,2,1.3,4.8-2.9,4.7
			c-7.6-0.2-15.3-0.1-23.8-0.1c3.7-7.8,7.2-15.2,10.6-22.6c1.5-3.3,3.9-6.2,4-10c-2.2-1.8-4.7-0.6-7.1-0.7c-2.4-0.2-4.3-0.5-4.3-3.5
			c0-2.9,1.9-3,4-3.1c4.6,0,9.3,0.1,13.9-0.1C560.5,384,561.6,385.4,561.8,388.1z"/>
		<path d="M628,421.2c-5.5,5.7-12.7,5.5-18-0.4c-1.2-3.8,0.2-6.3,4-7.4c2.9,1.4,6.1,5.6,8.8,0.9c2.2-3.9-2-5.5-4.8-7.2
			c-7.9-4.9-10.6-10.9-8.2-17.7c1.5-4.3,4.6-6.5,8.9-6.9c4.4-0.4,8.4,1,10.7,5c2.4,4-2.9,4.7-3.2,7.7c-3.2-1.6-5.9-6.6-8.8-2.4
			c-2.6,3.9,3,4.2,4.8,6.3c0.3,0.4,0.7,0.7,1.1,1c4.5,3.7,7.7,7.8,7,14.2C629.9,416.9,628,418.7,628,421.2z"/>
		<path d="M302,198c0-6.6,5.5-13.9,11.8-15.6c6.9-1.8,12.7,3.8,11.7,11.1c-0.9,5.9-4.2,10-9.1,12.9C309.3,210.6,302,206.3,302,198z"
			/>
		<path d="M78.2,93.9c1.5,6.5,0.4,10.6-3.6,12.8c-3.9,2.1-10.2,0.5-14-3.5c-3.6-3.8-6-8-4.9-13.4c1.3-6.6,5.9-9.1,12.5-6.8
			C72.5,85.8,76.2,89.1,78.2,93.9z"/>
		<path d="M445,403.7c0-5.8,0.2-11.7-0.1-17.5c-0.2-3.6,1.8-3.2,4-3.1c2,0.1,4.3-0.9,4.3,2.9c-0.2,11.6-0.2,23.3,0,34.9
			c0.1,4.1-2.4,2.9-4.6,3.1c-2.7,0.3-3.8-0.5-3.7-3.5C445.1,415,445,409.3,445,403.7z"/>
		<path d="M25.2,287.8c-1.8,1.3-1.3-0.7-1.5-1.2c-3.4-10.7-5.5-21.8-5.6-33c-0.1-8.9-1-17.9,0.8-26.8c0.6-2.9-0.2-5.2-3.8-5.6
			c-3.3-0.4-4.9,0.3-5.5,4.2C8.4,234,9.4,242.6,9,251.2c-0.6,0.6-1.2,0.6-1.9,0c-0.4-10.1-0.5-20.2,0.8-30.2
			c0.2-1.7,0.7-2.5,2.5-1.9c0.2,0,0.3,0,0.5,0c10.4,0.5,10.4,0.5,9.3,10.7c-1.8,16.8-0.3,33.4,3.3,49.9
			C24.1,282.4,24.7,285.1,25.2,287.8z"/>
		<path d="M361.8,192.5c1.9-1.3,1.8,0.8,2,1.4c7.2,22.4,10.4,45.1,7.4,68.6c-0.1,1.2,0,2.3-0.2,3.5c-0.9,7.8-0.9,7.8,6,10.1
			c0.3,0.2,0.5,0.4,0.3,0.6c-0.1,0.2-0.2,0.3-0.3,0.3c-9.3-0.1-9.3-0.1-8.1-8.8c3.5-25,1.4-49.4-6.7-73.4
			C361.9,194.2,361.9,193.4,361.8,192.5z"/>
		<path d="M285,86.3c-4.2,0.7-7.3-2.1-10.7-3.6c-14.8-6.5-30.1-10.7-46-13.4c-2.3-0.4-4.9-0.5-5.2,2.9c-0.2,3-0.6,6,3.6,6.8
			c4.1,0.8,8.5,0.7,12.4,2.6c0,0,0,0.3-0.1,0.4c-0.1,0.1-0.2,0.2-0.3,0.4c-4.6-0.8-9.1-1.6-13.7-2.3c-3.1-0.4-4.4-1.7-4-5.1
			c1.1-8.3,0.9-8.3,9.3-6.9C249.5,71.2,267.7,77.3,285,86.3z"/>
		<path d="M393.9,386.2c-5.9-1-5.9-1-5.9,5.5c0,8.8,0,17.6,0,26.5c0,1.7-0.6,4.1,2.3,3.9c2.5-0.1,2.6-2.1,2.6-4
			c0-6.2-0.1-12.3,0.1-18.5c0.1-2.1-0.7-5.1,3-5.3c-3.6,7.9-1.4,16.3-1.9,24.4c-0.3,5.4-0.8,6-6.1,5.6c-1.9-0.1-2.1-0.8-2.1-2.4
			c0-12.1,0.1-24.2,0-36.4c0-3.7,2.6-2.1,4.2-2.2C392.1,383.1,395,382.3,393.9,386.2z"/>
		<path d="M79.7,115.9c0.7,1.8-0.1,3.2-0.8,4.7c-7.3,15.6-9.9,32.3-9.6,49.3c0.2,12.5,1.7,25,4.8,37.3c-0.5,0.5-0.8,1.5-1.8,1
			c-2.6-14.6-5-29.3-4.5-44.3C68.2,147,71.5,130.8,79.7,115.9z"/>
		<path d="M170,422.1c4.7-0.7,4.2-4.3,3.9-7.5c-0.3-3.6-3.2-3.1-5.6-3.4c-15.1-2.3-29.9-5.5-43.9-11.8c-0.3-0.1-0.6-0.4-0.6-0.6
			c0-0.3,0.3-0.5,0.5-0.8c15.4,6.1,31.2,10.3,47.7,11.9c3.5,0.3,4.6,1.6,4.1,4.8c-0.2,1.1-0.1,2.3-0.1,3.5
			C176,422.5,174.3,424.2,170,422.1z"/>
		<path d="M454.2,372.9c0.1,3.7-1.8,5.8-5.2,5.9c-3.7,0.1-5-2.4-5-5.9c0-3.5,1.5-6.4,4.8-6.4C452.2,366.4,453.9,369.4,454.2,372.9z"
			/>
		<path d="M7.1,251.2c0.6,0,1.2,0,1.9,0c-0.3,17.8,3.8,34.8,9.6,51.5c0.6,1.6,2.5,3.5,0.5,5.5C12,289.8,7.1,271,7.1,251.2z"/>
		<path d="M72.2,208.2c0.6-0.3,1.2-0.6,1.8-1c1.8,12.6,5.5,24.7,9.9,36.6c2.1,5.6,4.3,11.1,7.1,16.3c0.6,1.2,1.9,2.5,0.3,4
			C81.9,246.5,76.3,227.6,72.2,208.2z"/>
		<path d="M355,318.1c-1,1-1.4,0.1-1.8-0.5c-0.9-1.7-1.7-3.6-2.7-5.3c-1.4-2.4-2.7-5.5-6.1-4.9c-3.8,0.7-2.4,4.2-2.4,6.6
			c0,14.9,0.1,29.8,0.2,44.7c0,1.2-0.5,1.4-1.4,1.5c0-16.8-0.1-33.6-0.1-50.4c0-1.4-1.2-3.9,1.5-3.8c2.4,0.1,5.4-1.7,7.2,1.6
			C351.4,311.1,353.2,314.6,355,318.1z"/>
		<path d="M433.5,327.1c-0.5-0.4-1.2-0.6-1.5-1.1c-1.1-1.7-1.3-4.9-4.2-3.5c-2.6,1.3-0.5,3.7,0.1,5.5c2.9,10,6,19.9,9,29.8
			c0.3,1,1.5,2.2-0.7,2.4c-4.1-13.1-8.1-26.2-12.2-39.4C431.7,320,431.7,320,433.5,327.1z"/>
		<path d="M301.9,375.1c1.2,0.7,1,1.5,0.3,2.4c-8.5,11.2-7.7,23-2.4,35.1c0.6,1.4,1.4,2.6,1.1,4.2
			C291.3,403.8,291.7,388.1,301.9,375.1z"/>
		<path d="M169.2,9.2c0.2,5.5-3,10.5-2.4,16.3c1,9.3,3.5,17.2,13.2,20.6c0.3,0.1,0.6,0.5,0.9,0.7c-0.4,0.2-0.9,0.4-1.3,0.5
			c-8.2-1.3-13.8-11.9-14.5-20.5C164.7,20.6,165.9,14.6,169.2,9.2z"/>
		<path d="M561.8,388.1c-1-2-2.2-3.2-4.8-3c-4.6,0.3-9.2,0.1-13.9,0.1c-1.6,0-3.1,0.1-3,2.3c0.1,1.8,1.3,2.4,2.9,2.7
			c2.6,0.5,5.6-1.3,7.9,1.3c-2.3,0-4.6,0-6.9,0c-5.2,0-6.4-1.6-5.3-6.7c0.4-2.1,1.8-1.5,3-1.5c7.1,0,14.2,0,21.8,0
			C562.9,385,562.3,386.5,561.8,388.1z"/>
		<path d="M150.3,17.1c-0.5,0-1.1,0.1-1.5-0.1c-4.9-3.2-10-4.4-14.7-0.3c-4.9,4.4-5.9,10.3-4.7,16.9c0.6,3.3,3.7,5.9,2.7,9.6
			c-4.9-6.8-6.2-14.1-3.1-21.9C132.8,11.9,143,10,150.3,17.1z"/>
		<path d="M377,277.1c0-0.3,0-0.6,0-1c4.3-3.8,3.1-9.3,3.9-14c1.3-8.2,1.3-16.5,1.1-24.7c0-0.7,0.6-1.5,0.8-2.2
			c0.5,13.2,0.5,26.4-2.2,39.4C380.2,276.7,380.4,279.4,377,277.1z"/>
		<path d="M188,64.3c-1.5,1.7-2.3-0.1-3.3-0.7c-10.4-5.7-21.5-5.2-32.7-3.4c-0.5-0.5-1.5-0.8-1-1.8C164,56.4,176.7,56,188,64.3z"/>
		<path d="M204.7,101.4c-4-1.4-8.1-1.5-12.3-1c1.5-2.1,2.8-3,6.5-2.1c4.1,1,4.3-0.8,4.2-3.9c-0.1-4.9-1.4-9.4-3.3-13.8
			c-0.7-1.6-1.9-3.1-1.6-5.1C203.8,83.3,205,92.2,204.7,101.4z"/>
		<path d="M467.2,407.8c-1.1-1.5-0.8-2.4,1.6-2.6c3.5-0.2,7-0.1,10.4-0.1c0.3,0,0.7,0,1,0c3.9-0.4,8.6,1.7,11.5-1
			c3.2-3-0.6-7.1-0.8-10.7c0-0.4,0.5-0.8,0.7-1.2c0.2,0.6,0.4,1.2,0.6,1.8c4.6,10.3,3.4,12.4-7.5,12.4c-4.6,0-9.3,0-13.9,0
			C469.6,406.5,467.9,405.8,467.2,407.8z"/>
		<path d="M594,385.3c-2.5,1.7-4.1-1.1-6.3-1.2c-9.6-0.7-17.3,6-17.6,15.7c0,0.8-0.1,1.6-0.2,2.8c-1.3-2.1-0.4-4-0.9-5.7
			C570.7,386.5,582.7,377.5,594,385.3z"/>
		<path d="M471.8,325.1c-1-1.3-1.3-3.4-3.9-2.9c-2.3,0.4-2.2,2.4-2.6,3.8c-1.5,4.7-2.6,9.6-4.2,14.3c-0.8,2.4-0.9-0.1-1.2-0.4
			c1.6-5.6,3.2-11.1,4.7-16.7c0.6-2.2,1.6-2.6,3.8-2.8C472.7,319.9,473.4,321.5,471.8,325.1z"/>
		<path d="M373,388.4c-1,1.1-1.7,0.4-2.5-0.3c-7.4-5.7-12.9-5.5-19.7,0.7c-0.7,0.7-1.3,2.8-2.9,1C352,381.1,366.7,379.5,373,388.4z"
			/>
		<path d="M376.9,307.2c-6.9,0.5-6.9,0.5-6.9,8.1c0,7.9,0,15.9,0,23.8c-0.2,0-0.4,0-0.5,0c-0.2-2.1-0.4-4.1-0.6-6.2
			c-0.1-7.3,0.3-14.6-0.3-21.8c-0.4-5,1.6-5.8,5.7-5.2C375.3,306,376.6,305.3,376.9,307.2z"/>
		<path d="M151,58.3c0.3,0.6,0.6,1.2,1,1.8c-8.8,0.6-16.6,4.5-24.5,8.1c-0.9,0.4-1.6,1.2-2.5,0C133,63.3,141.7,60,151,58.3z"/>
		<path d="M628,421.2c-1.1-2.9,1.4-5.2,1.3-8.1c-0.3-4.8-1.2-8.7-5.7-11.1c-0.7-0.4-1.5-0.9-0.4-1.8
			C631.7,404.9,633.7,413.4,628,421.2z"/>
		<path d="M332.6,373.1c-1.8,0.3-3.2-0.6-4.7-1.4c-5.2-2.8-10.6-3.4-16.3-1.3c-1.2,0.5-2.4,1.3-3.6,0
			C316.9,365.4,325,367.1,332.6,373.1z"/>
		<path d="M326.9,413.1c-0.8,2.1-1.2,2.5-3.5,3.4c-5.4,2.1-11.4,0.6-13.3-3.3C315.7,416.3,321.3,416.1,326.9,413.1z"/>
		<path d="M413.2,387.9c-1.4,1.3-1.4-0.5-1.9-1c-3.7-3.5-8.1-3.8-12.5-1c-0.9,0.6-1.4,2.7-3,0.9C401,380.4,409.6,380.9,413.2,387.9z
			"/>
		<path d="M201.9,32.1c-2.3-4,0.2-8.2-0.7-12.4c-0.4-1.9-2.3-4.2-0.4-6.5C203.5,19.4,203.8,25.7,201.9,32.1z"/>
		<path d="M432,384.3c-0.5,0.6-1,0.8-1.7,0.5c-6.1-2.7-10.3,1.4-14.8,4.3C420,382,424.9,380.6,432,384.3z"/>
		<path d="M41,325.1c-0.1,0.1-0.2,0.2-0.3,0.4c-3.9-4.8-7.2-9.9-7.8-16.3C35.6,314.5,38.3,319.8,41,325.1z"/>
		<path d="M568.8,409.5c0.2-1.1,0.3-2.2,0.5-3.3c0.2,5.8,2.9,10.2,7,13.9c0.6,0.5,1.9,1.1,0.5,2.2
			C572.5,419,569.2,415.2,568.8,409.5z"/>
		<path d="M89.2,100.2c1.2,3.2-2,4.4-3.2,6.4c-1.9,3.2-2.4,7.5-6.4,9.3C82.2,110.3,85.1,104.9,89.2,100.2z"/>
		<path d="M134.9,46.4c0.5-0.8,1.2-1.3,1.9-0.6c3.2,3,7.2,2.4,11,2.4c0.5-0.5,0.9-0.5,1.3,0.1C143.8,51.9,139.3,49.4,134.9,46.4z"/>
		<path d="M78.2,93.9c-2.7-4.2-6.5-7.4-10-10.9C73.7,84.7,76.9,88.5,78.2,93.9z"/>
		<path d="M304,113c5,1.4,8.7,4.5,10.9,9.2C311.3,119.1,307.7,116.1,304,113z"/>
		<path d="M106,82.2c-2.1,4.5-5.3,8-10,9.9C98.9,88.4,102.1,85,106,82.2z"/>
		<path d="M182,320.2c2-4.5,5.5-7.7,9-10.9C189.2,313.9,186,317.4,182,320.2z"/>
		<path d="M85,375.3c-3.8-0.3-9.6-5.2-10.9-9.2C77.7,369.2,81.3,372.3,85,375.3z"/>
		<path d="M90,54.3c-4.2,0.2-8.5-0.6-12.6,0.8C81.3,51.1,85.6,51.8,90,54.3z"/>
		<path d="M124.3,41.1c-3.1-3-6.1-6-9.2-9C119.9,33.3,122.6,36.6,124.3,41.1z"/>
		<path d="M102.9,52.3c3,2.7,5.8,5.6,7.8,9C106.8,59.5,104.1,56.5,102.9,52.3z"/>
		<path d="M149.2,48.3c-0.4,0-0.9,0-1.3-0.1c3.1-2.4,6.2-4.7,7.4-8.8c0.2-0.8,0.5,0.6,0.8,0.9C155.1,44.1,153,46.9,149.2,48.3z"/>
		<path d="M114.9,298.3c4,1.3,6.7,3.9,8,7.9C119.8,304.1,117.3,301.2,114.9,298.3z"/>
		<path d="M125.8,55.1c-0.5-4.7-1.1-9.4-1.6-14.2C127.5,45.3,126.6,50.2,125.8,55.1z"/>
		<path d="M613.9,413.4c-2.8,1.7-4.2,4.1-4,7.4c-2.5-1.6-2.3-3.3-0.3-5C610.9,414.7,610.7,410.9,613.9,413.4z"/>
		<path d="M193,45.2c0.5-3.3,3-4.6,5.6-6C197.4,41.9,195.5,43.8,193,45.2z"/>
		<path d="M407.8,423.4c0-8.7,0-17.5,0-26.2c0.5,0,1,0,1.5,0c0,8.4,0,16.8,0,25.1C409.3,423.1,408.4,423.2,407.8,423.4l0.2-0.2
			L407.8,423.4z"/>
		<path d="M480.9,391.3c-6.9-1.1-9.9,0.4-12.9,6.9c-0.4-0.2-1.2-0.4-1.2-0.6c0.4-5.3,9.3-10.2,14-7.9
			C481.5,390.1,481.5,390.7,480.9,391.3z"/>
		<path d="M469.2,399c5.2,0,10.4,0,15.7,0.1c-1,2.6-3.2,0.9-4.7,1c-3.7,0.2-7.4-0.1-11.1-0.2c0,0-0.1-0.3-0.1-0.4
			C469,399.3,469.1,399.2,469.2,399z"/>
	</g>
</g>
<path class="st0" d="M576,402.8c-0.1-4.4,1.7-8.7,6.8-10.8c3.4-1.4,6.7-0.2,8.9,2.7c3.4,4.4,3.6,9.5,1.8,14.6
	c-1.7,4.9-5.8,7.2-9.9,6.2C579,414.5,575.7,409.4,576,402.8z"/>
<path class="st1" d="M480.9,391.3c1.7,2.4,6.5,3.2,4,7.8c-5.2,0.9-10.4,1-15.7-0.1c-0.4-0.3-0.8-0.6-1.3-0.8
	C468.8,391.7,474.7,388.6,480.9,391.3z"/>
<path class="st2" d="M370.4,403c0,4.8-1.1,7.9-3.7,10.3c-3.9,3.6-8.9,3.3-12.2-0.8c-3.1-3.8-3.3-12.9-0.3-16.9
	c2.1-2.8,4.9-4.8,8.6-3.8c4.1,1.1,6.1,4.4,7.3,8.2C370.4,401.3,370.3,402.9,370.4,403z"/>
<path class="st3" d="M402.6,335.7c-1.5,0-3,0.1-4.5,0c-1.3-0.2-3.5,1-3.9-0.9c-0.2-1.1,0.9-2.8,1.9-3.9c4-4.7,11.7-3.6,14.8,1.8
	c1.4,2.5,0.9,3.2-1.9,3.1C407,335.6,404.8,335.7,402.6,335.7z"/>
</svg>
