<?xml version="1.0" encoding="utf-8"?>
<!-- Generator: Adobe Illustrator 25.0.0, SVG Export Plug-In . SVG Version: 6.00 Build 0)  -->
<svg version="1.1" id="Layer_1" xmlns="http://www.w3.org/2000/svg" xmlns:xlink="http://www.w3.org/1999/xlink" x="0px" y="0px"
	 viewBox="0 0 448 220.8" style="enable-background:new 0 0 448 220.8;" xml:space="preserve">
<g>
	<path d="M58.6,169.7c-3.9,0-7.1-3.2-7.1-7.1s3.2-7,7.1-7c3.9,0,7,3.1,7,7S62.5,169.7,58.6,169.7z M64.2,218H53v-40.7h11.2V218z"/>
	<path d="M154,219.5c-12.1,0-21.3-9.8-21.3-21.8s9.2-21.8,21.3-21.8c12,0,21.3,9.8,21.3,21.8S166,219.5,154,219.5z M154,185.7
		c-6.7,0-10.9,5.3-10.9,11.9c0,6.6,4.2,11.9,10.9,11.9c6.6,0,10.8-5.3,10.8-11.9C164.8,191.1,160.6,185.7,154,185.7z"/>
	<path d="M225.2,186c-2.6,0-4.4,0.9-4.4,2.7c0,4.5,15.5,4.8,15.5,16.3c0,9.9-7.4,14-14.6,14c-7.1,0-12.7-3.8-12.7-3.8v-12.1
		c0,0,6.2,5.5,11.1,5.5c2.8,0,5.1-0.9,5.1-3.3c0-6-15.6-4.8-15.6-16.8c0-8.4,6.7-12.6,14-12.6c7.3,0,11.4,2.9,11.4,2.9v11.6
		C234.8,190.4,230.1,186,225.2,186z"/>
	<path d="M268.6,219.5c-12.1,0-21.3-9.8-21.3-21.8s9.2-21.8,21.3-21.8c12,0,21.3,9.8,21.3,21.8S280.6,219.5,268.6,219.5z
		 M268.6,185.7c-6.7,0-10.9,5.3-10.9,11.9c0,6.6,4.2,11.9,10.9,11.9c6.6,0,10.8-5.3,10.8-11.9C279.4,191.1,275.2,185.7,268.6,185.7z
		"/>
	<path d="M361.6,169.7c-3.9,0-7.1-3.2-7.1-7.1s3.2-7,7.1-7c3.9,0,7,3.1,7,7S365.5,169.7,361.6,169.7z M367.2,218H356v-40.7h11.2V218
		z"/>
	<path d="M445.7,218h-11.2v-61.8h11.2V218z"/>
	<path d="M39.4,191.1c0-0.2-0.1-0.4-0.1-0.5c0-0.3-0.1-0.5-0.2-0.8c0-0.2-0.1-0.3-0.1-0.5c0,0,0-0.1,0-0.1c0,0,0,0,0,0
		c-0.1-0.2-0.1-0.4-0.2-0.6c-1.3-4.4-4.1-8.1-7.9-10.5v0c-0.7-0.4-1.5-0.9-2.2-1.2c0,0,0,0,0,0c-0.4-0.2-0.8-0.3-1.2-0.5h0
		c-0.4-0.1-0.8-0.3-1.2-0.4c0,0-0.1,0-0.1,0c-0.4-0.1-0.8-0.2-1.2-0.3c-0.1,0-0.1,0-0.2,0c-0.4-0.1-0.7-0.2-1.1-0.2c0,0-0.1,0-0.1,0
		c-0.4-0.1-0.8-0.1-1.2-0.1c-0.1,0-0.2,0-0.3,0c-0.4,0-0.8,0-1.2,0c-0.4,0-0.8,0-1.2,0c-0.1,0-0.2,0-0.3,0c-0.4,0-0.8,0.1-1.2,0.1
		c0,0-0.1,0-0.1,0c-0.4,0.1-0.7,0.1-1.1,0.2c-0.1,0-0.1,0-0.2,0c-0.4,0.1-0.8,0.2-1.2,0.3c0,0-0.1,0-0.1,0c-0.8,0.2-1.6,0.5-2.4,0.9
		c0,0,0,0,0,0c-0.8,0.4-1.5,0.8-2.2,1.2c0,0,0,0,0,0c-3.5,2.3-6.2,5.7-7.6,9.8c-0.1,0.4-0.2,0.8-0.3,1.2c0,0.1,0,0.1,0,0.2
		c-0.1,0.4-0.2,0.8-0.3,1.2v0c0,0.3-0.1,0.5-0.1,0.8l0-0.1c-0.3,1.8-0.5,3.8-0.5,5.9v21h11.3v-21c0-2.3,0.3-4.2,0.9-5.9l0,0
		c1-2.7,3.6-4.6,6.7-4.6c2.7,0,5.1,1.5,6.3,3.8l-0.2-0.5c0.1,0.3,0.3,0.5,0.4,0.8c0-0.1-0.1-0.2-0.1-0.3l0.2,0.5
		c0.7,1.7,1,3.8,1,6.2v21h11.3v-21C39.9,194.8,39.7,192.9,39.4,191.1L39.4,191.1z"/>
	<path d="M109.4,156.2v23.6c-0.8-0.7-1.6-1.2-2.3-1.7c-0.1,0-0.1-0.1-0.2-0.1c-0.1,0-0.1-0.1-0.2-0.1c-0.2-0.1-0.3-0.2-0.5-0.3
		c0,0,0,0,0,0c-0.2-0.1-0.3-0.2-0.5-0.3c0,0-0.1,0-0.1,0c-0.1,0-0.2-0.1-0.2-0.1c-2.8-1.2-5-1.3-5-1.3l0,0c-0.5,0-1-0.1-1.5-0.1
		c-12,0-21.7,9.8-21.7,21.8s9.7,21.8,21.7,21.8c12.1,0,21.8-9.8,21.8-21.8v-41.5H109.4z M109.4,197.7c0,6.6-3.9,11.9-10.6,11.9
		c-6.6,0-11.9-5.3-11.9-11.9c0-6.6,5.3-11.9,11.9-11.9c4.2,0,8.1,2,10.3,5.3l0.3,0.5V197.7z"/>
	<path d="M331.6,202.9c-1.7,4-5.1,6.7-9.9,6.7c-6.6,0-10.8-5.3-10.8-12c0-6.6,4.2-11.9,10.8-11.9c4.8,0,8.2,2.8,9.9,6.8h10.9
		c-2.3-9.5-10.6-16.6-20.9-16.6c-12,0-21.2,9.7-21.2,21.7c0,12.1,9.2,21.9,21.2,21.9c10.2,0,18.5-7.1,20.8-16.6H331.6z"/>
	<path d="M400.5,175.9c-12.8,0-21,9.8-21,21.7c0,11.3,7.6,21.9,18.8,21.9c2.5,0,4.5-0.3,6-0.7l0,0c0.7-0.2,1.4-0.4,2-0.7
		c1.8-0.8,2.5-1.5,2.5-1.5v0c0.6-0.5,1.1-0.9,1.5-1.4v4.5h11.2v-22C421.6,185.7,413.4,175.9,400.5,175.9z M406.9,208.2
		c-1.3,0.8-3.2,1.4-5.7,1.4c-5.6,0-10.4-3.8-10.4-12c0-7.1,3.9-11.9,9.8-11.9c5.8,0,9.9,4.9,9.9,11.9v5.5
		C409.8,205.9,408.1,207.4,406.9,208.2z"/>
	<g>
		<g>
			<path d="M218.7,90.3c1.4-0.5,2.4-1.9,2.4-3.5c0-1.1-0.5-2.2-1.3-2.9l0,0l-38.5-38.7c-2.5-2.5-4-5.7-4.4-9.1l0,0.1
				c-4.3,7.6-0.2,12.5,0.7,13.4l36.4,36.5c-7.2,4-12.1,11.6-12.1,20.4v20.8h5.7v-20.8C207.6,99.2,212.2,92.9,218.7,90.3L218.7,90.3z
				"/>
			<path d="M225,80.3l48-47.8c1.7-1.7,2.6-3.9,2.6-6.3c0-2.4-0.9-4.6-2.6-6.3c-1.7-1.7-3.9-2.6-6.3-2.6c-2.4,0-4.6,0.9-6.3,2.6
				L225,55.1l-26.7-26.7c-1.2-1.2-1.2-3.2,0-4.4c0.6-0.6,1.4-0.9,2.2-0.9s1.6,0.3,2.2,0.9l13.7,13.6l30.2-30.1
				c2.4-2.4,5.6-3.9,9-4.3h0C248-1.2,243.1,3,242.2,3.8l-25.8,25.7l-9.6-9.6c-1.7-1.7-3.9-2.6-6.3-2.6c-2.4,0-4.6,0.9-6.3,2.6
				c-3.5,3.5-3.5,9.1,0,12.6L225,63.2L264.5,24c0.6-0.6,1.4-0.9,2.2-0.9c0.8,0,1.6,0.3,2.2,0.9c0.6,0.6,0.9,1.4,0.9,2.2
				c0,0.8-0.3,1.6-0.9,2.2L225,72.1L189.9,37c-2.9-2.9-4.5-6.7-4.5-10.8c0-4.1,1.6-7.9,4.5-10.8c5.9-5.9,15.6-5.9,21.5,0l5.1,5.1
				l4.1-4l-5.1-5.1c-8.2-8.2-21.5-8.2-29.7,0c-4,4-6.1,9.2-6.1,14.8c0,5.6,2.2,10.9,6.1,14.8L225,80.3z"/>
			<path d="M225.1,95.7c-6.2,0-11.2,5-11.2,11.2v20.5h5.7V107c0-3,2.5-5.5,5.5-5.5c3.3,0,5.5,2.8,5.5,6.9v19h5.7v-19
				C236.4,101.1,231.6,95.7,225.1,95.7z"/>
			<path d="M287.6,26.2c0-5.6-2.2-10.9-6.1-14.8c-8.2-8.2-21.5-8.2-29.7,0l-31,31l4.1,4.1l31.1-31c5.9-5.9,15.6-5.9,21.5,0
				c2.9,2.9,4.5,6.7,4.5,10.8c0,4.1-1.6,7.9-4.5,10.8l-47.1,47l0,0c-0.8,0.7-1.3,1.7-1.3,2.8c0,1.6,1,2.9,2.3,3.5h0
				c6.6,2.5,11.3,8.9,11.3,16.4v20.8h5.7v-20.8c0-8.8-4.9-16.5-12.2-20.5L281.4,41C285.4,37.1,287.6,31.8,287.6,26.2z"/>
		</g>
	</g>
</g>
</svg>
