<?xml version="1.0" encoding="utf-8"?>
<!-- Generator: Adobe Illustrator 25.0.0, SVG Export Plug-In . SVG Version: 6.00 Build 0)  -->
<svg version="1.1" id="Layer_1" xmlns="http://www.w3.org/2000/svg" xmlns:xlink="http://www.w3.org/1999/xlink" x="0px" y="0px"
	 viewBox="0 0 179.12 54.2" style="enable-background:new 0 0 179.12 54.2;" xml:space="preserve">
<g>
	<g>
		<path d="M1.34,21.63v-0.11c0-10.26,7.71-19.24,19.03-19.24c11.32,0,18.93,8.88,18.93,19.14v0.11c0,10.26-7.71,19.24-19.03,19.24
			C8.94,40.77,1.34,31.89,1.34,21.63z M34.94,21.63v-0.11c0-8.45-6.17-15.36-14.67-15.36c-8.51,0-14.57,6.8-14.57,15.26v0.11
			c0,8.45,6.17,15.36,14.67,15.36C28.87,36.88,34.94,30.08,34.94,21.63z"/>
		<path d="M45.52,2.91h15.84c4.25,0,7.6,1.22,9.73,3.3c1.54,1.6,2.39,3.56,2.39,5.95v0.11c0,4.84-2.98,7.34-5.9,8.61
			c4.41,1.33,7.97,3.88,7.97,8.98v0.11c0,6.38-5.37,10.15-13.5,10.15H45.52V2.91z M69.23,12.75c0-3.67-2.92-6.06-8.24-6.06H49.66
			V19.5h11c5.05,0,8.56-2.29,8.56-6.65V12.75z M61.41,23.22H49.66v13.13h12.49c5.64,0,9.14-2.5,9.14-6.64V29.6
			C71.3,25.56,67.9,23.22,61.41,23.22z"/>
	</g>
	<g>
		<rect x="86.98" y="3.06" width="4.12" height="48.86"/>
	</g>
	<g>
		<path d="M101.49,2.91h8.82l9.78,15.74l9.78-15.74h8.82v37.21h-8.13V15.83L120.1,31.73h-0.21l-10.37-15.74v24.13h-8.03V2.91z"/>
		<path d="M177.25,2.91L164.81,21.1l12.97,19.03h-9.57l-8.34-12.76l-8.4,12.76h-9.3l12.97-18.92L142.69,2.91h9.57l7.76,12.07
			l7.92-12.07H177.25z"/>
	</g>
</g>
</svg>
