<?xml version="1.0" encoding="utf-8"?>
<!-- Generator: Adobe Illustrator 25.0.0, SVG Export Plug-In . SVG Version: 6.00 Build 0)  -->
<svg version="1.1" id="Capa_1" xmlns="http://www.w3.org/2000/svg" xmlns:xlink="http://www.w3.org/1999/xlink" x="0px" y="0px"
	 viewBox="0 0 639 484" style="enable-background:new 0 0 639 484;" xml:space="preserve">
<style type="text/css">
	.st0{stroke:#000000;stroke-miterlimit:10;}
	.st1{fill:#FFFFFF;}
</style>
<polygon points="25.5,36.5 211.1,60.4 391.4,36.5 383.7,8.3 209.6,35.1 30.6,8.3 "/>
<g>
	<path d="M67.2,361.2c0,0,21.4-34.1,17-44.6c0,0-4-37,8.2-71.2l19.3-51.3c0,0,27.6-0.5,51.3,27c0,0,7.2,6.5,12.4,1.5
		c0,0,4.8,1.4,7.5,1.2c1.5-0.1,2.2-4.3,11.3-4.5c0,0,12.8-20.9,1.2-30.6c0,0-30.4-37-35.3-52.3c0,0-0.5-8.9-6.8-13.9
		c0,0-8.5-18.6-16.1-21.5c0,0-1.1-17.4-9.7-21.7c0,0-8.2,25.7-32.3,36.4l-5.7-0.2l-11.4,7.7l-0.7,8.2l-29,10.4l3,5
		c0,0-21.4,8.7-29.8,19.4c0,0-0.3,0-8.4,13.4C13.1,179.6,21.5,296.4,67.2,361.2z"/>
	<path d="M158.7,200c0,0-0.1,0.6-0.2,1.7c-0.2,1.1-0.3,2.8-0.7,4.9c-0.7,4.2-1.8,10.1-3.5,17.1c-0.9,3.5-1.7,7.3-2.9,11.2
		c-1.2,3.9-2.2,8.2-3.7,12.4c-1.4,4.3-2.8,8.7-4.4,13.1c-1.7,4.4-3.4,8.9-5.1,13.4c-1.8,4.5-3.8,8.8-5.8,13.2c-1,2.2-2,4.4-3.2,6.5
		c-0.6,1.1-1.2,2.1-1.9,3.3c-0.7,1.1-1.3,2.2-2.7,3.8c-0.2,0.2-0.4,0.4-0.7,0.7c-0.4,0.3-0.4,0.4-1.1,0.9c-0.3,0.2-0.6,0.4-0.9,0.6
		c-0.2,0.1,0.2-0.1-0.5,0.3l-0.1,0l-0.1,0l-0.4,0.1l-0.4,0.1l-0.8,0.3c-0.5,0.2-1.2,0.3-1.6,0.4c-1.8,0.4-3.4,0.3-5,0.2
		c-3-0.3-5.5-1.2-7.7-2.1c-4.4-1.9-7.8-4.1-10.9-6.4c-3-2.2-5.6-4.4-7.8-6.4c-2.2-2-4.1-3.8-5.6-5.3c-1.5-1.5-2.6-2.8-3.4-3.6
		c-0.8-0.8-1.2-1.3-1.2-1.3l0.5-0.7c0,0,2,1.3,5.4,3.7c3.5,2.3,8.4,5.7,14.6,9.1c3.1,1.7,6.5,3.5,10.4,4.7c1.9,0.6,3.9,1.1,6,1.2
		c1,0,2.1,0,3.1-0.2c0.5-0.1,0.9-0.2,1.4-0.5c0.3-0.1,0.5-0.2,0.6-0.3c0.1-0.1,0.3-0.3,0.5-0.5c2.5-3.4,4.3-7.8,6.2-12
		c1.9-4.3,3.7-8.7,5.5-13.1c7.3-17.6,14.1-35.4,19.1-48.7c5-13.4,8.3-22.3,8.3-22.3L158.7,200z"/>
</g>
<path d="M375.9,297.7c-7.3,18.9-16.4,36.6-27.3,53c-31.4,47.2-78,83.8-138.5,109.1c-11.8-3.8-68.6-24.1-116.7-77
	c-31.4-34.5-53-76.1-64.2-123.6c-13.7-58.1-11.9-125.2,5.4-199.6L210,82.1l0.9,0.1L382,59.5c3.6,12.7,12,46.3,14.6,89.5h14
	c-3.2-56.6-16.3-97-17-99.3l-1.8-5.5l-180.8,24L24,44.2l-1.5,6C3.3,129.4,1,200.9,15.8,262.8c11.9,49.8,34.7,93.4,67.8,129.7
	c56.4,61.8,122.2,80.4,125,81.2l2.3,0.6l2.2-0.9c64.2-26.3,113.7-65.1,147-115.1c12.5-18.7,22.6-39,30.6-60.7H375.9z"/>
<path d="M181.5,273.9c0,0-4.1,0.3-4.5-4.2c-0.3-2.9-2.1-7-0.3-11.8c0,0,2.1-5.7,2.4-7.8c0.7-6.4,4.2-17.2,22.7-11.9
	c7.3,2.1,16.5,9.3,9.7,28.9c-1.3,3.6-3.2,7.8-8,13c0,0,7.2,4,8.9,14.1c1.7,10.1-1.9,18-1.1,25.2c0.8,7.4,3.1,29.8,3.1,29.8
	s2.1,9.2-6.6,6.5c0,0-0.9,6.7-1.5,8.7c-0.8,2.7-2.1,7.8-2.5,10.4c-0.5,3.4,0.7,7.3-1.9,13.5c0,0-1,1.1,1.3,4.3
	c1.7,2.5-0.6,5.5,2.4,9.8c1.7,2.5,4.1,4.6,6,11.6c0,0,4.3,14.3,4.2,16.3c-0.1,1.6-4.3,2.4-4.3,2.4s-0.6,1,0.6,1.9c0,0,4.3,4-0.9,5.2
	c0,0-6.6,1-10.5,1.6c-4.3,0.7-12.8,6.6-16.5,0.9c-1.2-1.9-0.1-7.6,6.1-6.5c0.4,0.1,0.9,0.4,1.3,0.6c0,0-2-3.6-0.3-13.1
	c0.7-4.1-4.6-8.3-6-15.9c-0.6-3.1-4.7-7.9-5.8-11.3c-1.1-3.2-4.7-7.5-3.4-13.4c0,0,2.1-5.8,2.7-13.4l0.9-13.4c0,0-6.7,0.1-8.8-0.4
	c-2.9-0.7-1.1-1-1.6-6.2c-0.8-10.5-2.4-26.6,0.4-42.2c0,0-11.4-0.8-15.2-4.1c-4.2-3.6-7.7-7.4-9.8-10.9c0,0-0.5-2.5-0.9-3.4
	c-0.3-0.6-1-0.8-2.6-2.2c-1.8-1.5-4.8-4,0.8-5c0,0,1.1,0.2,1.5-2.2c0.5-2.8-1.6-11.3,0-13.5c0.9-1.2,3.1,1.5,5.2,5.9
	c1.2,2.6,3.1,7.7,4.4,10.5c1,2.1,6.2,4.1,7.5,5.3c0.6,0.7,1.6,0.7,3.3,1.7c0,0,2.2,1.3,3.2-2.2c0.7-2.4,1.4-3.2,7.1-5.6
	c1.5-0.6,5.8-3.2,5.8-3.2s-3.2-2-3.1-3.9C176.7,274.7,181,275.6,181.5,273.9z"/>
<g>
	<path d="M316.9,174.9c0,2.4-0.5,4.5-1.5,6.3c-1,1.9-2.4,3.4-4.2,4.7c-1.8,1.3-3.9,2.2-6.4,2.9c-2.4,0.7-5.1,1-7.9,1h-1.1v15h-10.9
		v-44.4h12.8c2.8,0,5.4,0.3,7.8,0.9c2.4,0.6,4.4,1.5,6.1,2.6c1.7,1.2,3,2.7,4,4.5C316.4,170.3,316.9,172.4,316.9,174.9z M306.3,175
		c0-4.1-2.9-6.1-8.7-6.1h-1.9v12.6h1.8c2.9,0,5.1-0.6,6.6-1.7C305.6,178.6,306.3,177,306.3,175z"/>
	<path d="M343,196.2h-17l-2.7,8.6H312l16.5-44.4h12l16.5,44.4h-11.3L343,196.2z M328.8,187.6h11.4l-5.7-18.7L328.8,187.6z"/>
	<path d="M387.9,191.6c0,2-0.4,3.8-1.2,5.5c-0.8,1.7-1.9,3.2-3.4,4.5c-1.5,1.3-3.2,2.3-5.3,3c-2.1,0.7-4.5,1.1-7.1,1.1
		c-2.4,0-4.9-0.3-7.3-0.8c-2.4-0.5-4.7-1.3-6.8-2.3l2.2-8.3c1.6,0.8,3.3,1.4,5.3,2c2,0.6,4.1,0.8,6.3,0.8c1.9,0,3.4-0.3,4.6-1
		c1.2-0.7,1.8-1.8,1.8-3.4c0-1.1-0.5-2.1-1.6-3c-1-0.9-2.9-1.9-5.7-2.9c-4.4-1.6-7.5-3.5-9.5-5.6c-2-2.1-3-4.8-3-8.1
		c0-4.3,1.4-7.6,4.2-9.9c2.8-2.3,6.7-3.4,11.7-3.4c2.5,0,5,0.3,7.3,0.8c2.3,0.6,4.3,1.3,5.9,2.2l-1.9,8.2c-1.6-0.8-3.3-1.4-5.1-1.8
		c-1.8-0.5-3.7-0.7-5.7-0.7c-1.6,0-3,0.3-4,0.8c-1,0.6-1.5,1.5-1.5,2.8c0,0.6,0.1,1.2,0.3,1.6c0.2,0.4,0.5,0.9,1,1.3
		c0.5,0.4,1.1,0.8,2,1.2c0.8,0.4,1.9,0.9,3.2,1.4c1.9,0.8,3.6,1.6,5.3,2.4c1.6,0.8,3.1,1.8,4.3,2.9c1.2,1.1,2.1,2.4,2.8,3.8
		C387.6,188,387.9,189.7,387.9,191.6z"/>
	<path d="M434,182.6c0,3.2-0.5,6.1-1.5,8.9c-1,2.8-2.5,5.2-4.4,7.3c-1.9,2.1-4.3,3.7-7.1,5c-2.8,1.2-6,1.8-9.6,1.8
		c-3.6,0-6.8-0.6-9.6-1.8c-2.8-1.2-5.2-2.9-7.1-5c-1.9-2.1-3.4-4.5-4.4-7.3c-1-2.8-1.5-5.7-1.5-8.9s0.5-6.1,1.5-8.9
		c1-2.8,2.5-5.2,4.4-7.3c1.9-2.1,4.3-3.7,7.1-5c2.8-1.2,6-1.8,9.6-1.8c3.6,0,6.8,0.6,9.6,1.8c2.8,1.2,5.2,2.9,7.1,5
		c1.9,2.1,3.4,4.5,4.4,7.3C433.5,176.5,434,179.5,434,182.6z M411.4,197c1.9,0,3.6-0.4,5.1-1.1c1.5-0.7,2.7-1.7,3.7-3
		c1-1.3,1.7-2.8,2.2-4.5c0.5-1.8,0.7-3.7,0.7-5.8c0-2.1-0.2-4-0.7-5.8c-0.5-1.8-1.2-3.3-2.2-4.5c-1-1.3-2.2-2.3-3.7-3
		c-1.5-0.7-3.2-1.1-5.1-1.1c-2,0-3.7,0.4-5.1,1.1c-1.4,0.7-2.7,1.7-3.7,3c-1,1.3-1.7,2.8-2.2,4.5c-0.5,1.8-0.7,3.7-0.7,5.8
		c0,2.1,0.2,4,0.7,5.8c0.5,1.8,1.2,3.3,2.2,4.5c1,1.3,2.2,2.3,3.7,3C407.7,196.6,409.4,197,411.4,197z"/>
	<path d="M466.4,191.6c0,2-0.4,3.8-1.2,5.5c-0.8,1.7-1.9,3.2-3.4,4.5c-1.5,1.3-3.2,2.3-5.3,3c-2.1,0.7-4.5,1.1-7.1,1.1
		c-2.4,0-4.9-0.3-7.3-0.8c-2.4-0.5-4.7-1.3-6.8-2.3l2.2-8.3c1.6,0.8,3.3,1.4,5.3,2c2,0.6,4.1,0.8,6.3,0.8c1.9,0,3.4-0.3,4.6-1
		c1.2-0.7,1.8-1.8,1.8-3.4c0-1.1-0.5-2.1-1.6-3c-1-0.9-2.9-1.9-5.7-2.9c-4.4-1.6-7.5-3.5-9.5-5.6c-2-2.1-3-4.8-3-8.1
		c0-4.3,1.4-7.6,4.2-9.9c2.8-2.3,6.7-3.4,11.7-3.4c2.5,0,5,0.3,7.3,0.8c2.3,0.6,4.3,1.3,5.9,2.2l-1.9,8.2c-1.6-0.8-3.3-1.4-5.1-1.8
		c-1.8-0.5-3.7-0.7-5.7-0.7c-1.6,0-3,0.3-4,0.8c-1,0.6-1.5,1.5-1.5,2.8c0,0.6,0.1,1.2,0.3,1.6c0.2,0.4,0.5,0.9,1,1.3
		c0.5,0.4,1.1,0.8,2,1.2c0.8,0.4,1.9,0.9,3.2,1.4c1.9,0.8,3.6,1.6,5.3,2.4c1.6,0.8,3.1,1.8,4.3,2.9c1.2,1.1,2.1,2.4,2.8,3.8
		C466,188,466.4,189.7,466.4,191.6z"/>
</g>
<g>
	<path d="M485.4,172.7h9.8c2.8,0,5.4,0.4,7.8,1.2c2.4,0.8,4.4,1.9,6.1,3.3c1.7,1.4,3,3.1,3.9,5.1c0.9,2,1.4,4.1,1.4,6.4
		c0,2.3-0.5,4.5-1.4,6.4c-0.9,2-2.2,3.7-3.9,5.1c-1.7,1.4-3.7,2.5-6.1,3.3c-2.4,0.8-5,1.2-7.8,1.2h-9.8V172.7z M495.7,198.6
		c1.6,0,3.1-0.2,4.4-0.7c1.3-0.4,2.5-1.1,3.4-1.9c0.9-0.8,1.7-1.9,2.2-3.1s0.8-2.6,0.8-4.1c0-1.5-0.3-2.9-0.8-4.1
		c-0.5-1.2-1.2-2.2-2.2-3.1c-0.9-0.8-2.1-1.5-3.4-1.9c-1.3-0.4-2.8-0.7-4.4-0.7h-2.4v19.6H495.7z"/>
	<path d="M516.4,172.7h20v6.3h-12.1v6.5h11.5v6.3h-11.5v6.8h12.2v6.3h-20.2V172.7z"/>
</g>
<g>
	<path d="M224.5,213.7h30.4v9.5h-18.4v9.8H254v9.5h-17.5v10.4h18.6v9.5h-30.6V213.7z"/>
	<path d="M291.7,247.9c0,2.2-0.4,4.2-1.3,6c-0.9,1.9-2.1,3.5-3.7,4.9c-1.6,1.4-3.6,2.5-5.9,3.3c-2.3,0.8-4.9,1.2-7.8,1.2
		c-2.7,0-5.4-0.3-8.1-0.9c-2.7-0.6-5.2-1.4-7.5-2.6l2.4-9.2c1.7,0.8,3.6,1.6,5.8,2.2c2.1,0.6,4.5,0.9,7,0.9c2.1,0,3.7-0.4,5.1-1.1
		c1.3-0.8,2-2,2-3.7c0-1.2-0.6-2.3-1.7-3.3c-1.1-1-3.2-2.1-6.3-3.2c-4.8-1.8-8.3-3.9-10.5-6.2c-2.2-2.3-3.3-5.3-3.3-8.9
		c0-4.7,1.6-8.4,4.7-10.8c3.1-2.5,7.4-3.7,12.9-3.7c2.8,0,5.4,0.3,8,0.9c2.5,0.6,4.7,1.4,6.4,2.4l-2.1,9c-1.7-0.8-3.6-1.5-5.6-2
		c-2-0.5-4.1-0.8-6.3-0.8c-1.8,0-3.3,0.3-4.4,0.9c-1.1,0.6-1.6,1.6-1.6,3.1c0,0.7,0.1,1.3,0.3,1.8c0.2,0.5,0.5,1,1.1,1.4
		c0.5,0.4,1.2,0.9,2.2,1.3c0.9,0.4,2.1,1,3.5,1.5c2.1,0.8,4,1.7,5.8,2.6c1.8,0.9,3.4,2,4.7,3.2c1.3,1.2,2.4,2.6,3.1,4.2
		C291.3,243.9,291.7,245.8,291.7,247.9z"/>
	<path d="M330.2,229.6c0,2.6-0.6,4.9-1.7,7c-1.1,2.1-2.7,3.8-4.7,5.2c-2,1.4-4.3,2.5-7,3.2c-2.7,0.7-5.6,1.1-8.7,1.1h-1.2v16.5h-12
		v-48.8h14.1c3.1,0,5.9,0.3,8.5,1c2.6,0.6,4.9,1.6,6.7,2.9c1.9,1.3,3.3,2.9,4.4,4.9C329.7,224.5,330.2,226.8,330.2,229.6z
		 M318.6,229.6c0-4.5-3.2-6.7-9.6-6.7h-2.1v13.8h2c3.2,0,5.6-0.6,7.3-1.9C317.8,233.6,318.6,231.8,318.6,229.6z"/>
	<path d="M332.2,213.7h30.4v9.5h-18.4v9.8h17.5v9.5h-17.5v10.4h18.6v9.5h-30.6V213.7z"/>
	<path d="M404.2,229.1c0,3.3-0.9,6.1-2.7,8.6c-1.8,2.4-4.4,4.3-7.7,5.6l16,19.2H395l-13.4-16.9h-2.2v16.9h-12v-48.8H383
		c3,0,5.8,0.3,8.4,1c2.6,0.6,4.8,1.6,6.7,2.9c1.9,1.3,3.4,2.9,4.5,4.8C403.7,224.2,404.2,226.5,404.2,229.1z M392.6,229.3
		c0-2.2-0.9-3.8-2.6-4.9c-1.7-1-4.1-1.6-7.2-1.6h-3.4v13.7h2.9c3.2,0,5.7-0.6,7.5-1.9C391.7,233.4,392.6,231.6,392.6,229.3z"/>
	<path d="M441.9,253h-18.7l-3,9.5h-12.4l18.2-48.8h13.2l18.2,48.8h-12.4L441.9,253z M426.3,243.5h12.5l-6.2-20.6L426.3,243.5z"/>
	<path d="M491,262.5l-20.2-29.1v29.1h-11.6v-48.8h11.6l20.2,29.1v-29.1h11.6v48.8H491z"/>
	<path d="M507.8,213.7H542v9.5l-21.4,29.8h22.1v9.5h-35.5v-9.5l21.4-29.8h-20.8V213.7z"/>
	<path d="M577.1,253h-18.7l-3,9.5h-12.4l18.2-48.8h13.2l18.2,48.8h-12.4L577.1,253z M561.5,243.5h12.5l-6.2-20.6L561.5,243.5z"/>
</g>
<path d="M179.2,250.1c0,0-5.6-3-1.9-4c0,0,2.4,0.3,5.2-2.5l2.5,9L179.2,250.1z"/>
<g>
	<path d="M305.1,270.2h8v1.3h-6.4v5.4h6.2v1.3h-6.2v5.8h6.5v1.3h-8V270.2z"/>
	<path d="M327.1,285.4c-1.1,0-2.1-0.2-3-0.6c-0.9-0.4-1.6-1-2.2-1.7c-0.6-0.7-1.1-1.5-1.4-2.5c-0.3-0.9-0.5-1.9-0.5-2.9
		c0-1,0.2-2,0.5-2.9c0.3-0.9,0.8-1.8,1.4-2.5c0.6-0.7,1.4-1.3,2.2-1.7c0.9-0.4,1.9-0.6,3-0.6c1.1,0,2.1,0.2,3,0.6
		c0.9,0.4,1.6,1,2.2,1.7c0.6,0.7,1.1,1.5,1.4,2.5c0.3,0.9,0.5,1.9,0.5,2.9c0,0.8-0.1,1.5-0.3,2.2s-0.4,1.4-0.8,2
		c-0.3,0.6-0.8,1.2-1.3,1.6c-0.5,0.5-1.1,0.9-1.7,1.2l3.9,2.4l-0.7,1.1l-4.8-3c-0.2,0-0.4,0.1-0.7,0.1
		C327.6,285.4,327.3,285.4,327.1,285.4z M327.1,284.1c0.9,0,1.7-0.2,2.4-0.5c0.7-0.3,1.3-0.8,1.8-1.4c0.5-0.6,0.9-1.3,1.1-2
		c0.2-0.8,0.4-1.6,0.4-2.5c0-0.9-0.1-1.7-0.4-2.5c-0.2-0.8-0.6-1.5-1.1-2.1c-0.5-0.6-1.1-1.1-1.8-1.4c-0.7-0.3-1.5-0.5-2.4-0.5
		c-0.9,0-1.7,0.2-2.4,0.5c-0.7,0.3-1.3,0.8-1.8,1.4c-0.5,0.6-0.8,1.3-1.1,2.1c-0.3,0.8-0.4,1.6-0.4,2.5c0,0.9,0.1,1.7,0.4,2.5
		c0.3,0.8,0.6,1.5,1.1,2c0.5,0.6,1.1,1,1.8,1.4C325.4,283.9,326.2,284.1,327.1,284.1z"/>
	<path d="M351.4,270.2h1.5v9.7c0,0.7-0.1,1.4-0.4,2.1c-0.2,0.7-0.6,1.2-1.1,1.7c-0.5,0.5-1.1,0.9-1.8,1.2c-0.7,0.3-1.5,0.4-2.5,0.4
		c-0.9,0-1.8-0.1-2.5-0.4c-0.7-0.3-1.3-0.7-1.8-1.2c-0.5-0.5-0.8-1.1-1.1-1.7c-0.2-0.7-0.4-1.4-0.4-2.1v-9.7h1.5v9.8
		c0,1.2,0.4,2.2,1.1,3c0.7,0.8,1.7,1.1,3.1,1.1c1.4,0,2.4-0.4,3.1-1.1c0.7-0.8,1.1-1.7,1.1-3V270.2z"/>
	<path d="M362.8,285.1h-1.5v-14.9h1.5V285.1z"/>
	<path d="M381.5,285.1l-8.8-12.5v12.5h-1.5v-14.9h1.5l8.8,12.5v-12.5h1.5v14.9H381.5z"/>
	<path d="M397.5,285.4c-1.1,0-2.1-0.2-3-0.6c-0.9-0.4-1.6-1-2.2-1.7c-0.6-0.7-1.1-1.5-1.4-2.5c-0.3-0.9-0.5-1.9-0.5-2.9
		c0-1,0.2-2,0.5-2.9c0.3-0.9,0.8-1.8,1.4-2.5c0.6-0.7,1.4-1.3,2.2-1.7c0.9-0.4,1.9-0.6,3-0.6c1.1,0,2.1,0.2,3,0.6
		c0.9,0.4,1.6,1,2.2,1.7c0.6,0.7,1.1,1.5,1.4,2.5c0.3,0.9,0.5,1.9,0.5,2.9c0,1-0.2,2-0.5,2.9c-0.3,0.9-0.8,1.8-1.4,2.5
		c-0.6,0.7-1.4,1.3-2.2,1.7C399.6,285.2,398.6,285.4,397.5,285.4z M397.5,284.1c0.9,0,1.7-0.2,2.4-0.5c0.7-0.3,1.3-0.8,1.8-1.4
		c0.5-0.6,0.9-1.3,1.1-2c0.2-0.8,0.4-1.6,0.4-2.5c0-0.9-0.1-1.7-0.4-2.5c-0.2-0.8-0.6-1.5-1.1-2.1c-0.5-0.6-1.1-1.1-1.8-1.4
		c-0.7-0.3-1.5-0.5-2.4-0.5c-0.9,0-1.7,0.2-2.4,0.5c-0.7,0.3-1.3,0.8-1.8,1.4c-0.5,0.6-0.8,1.3-1.1,2.1c-0.3,0.8-0.4,1.6-0.4,2.5
		c0,0.9,0.1,1.7,0.4,2.5c0.3,0.8,0.6,1.5,1.1,2c0.5,0.6,1.1,1,1.8,1.4C395.8,283.9,396.6,284.1,397.5,284.1z"/>
	<path d="M420.8,270.2v1.3h-4.5v13.7h-1.5v-13.7h-4.5v-1.3H420.8z"/>
	<path d="M427.7,270.2h8v1.3h-6.4v5.4h6.2v1.3h-6.2v5.8h6.5v1.3h-8V270.2z"/>
	<path d="M452.4,274.3c0,0.6-0.1,1.1-0.3,1.6c-0.2,0.5-0.5,0.9-0.9,1.2c-0.4,0.4-0.8,0.6-1.3,0.9c-0.5,0.2-1,0.4-1.5,0.6l5.3,6.5
		h-1.9l-5.1-6.3c-0.1,0-0.3,0-0.4,0c-0.2,0-0.3,0-0.4,0h-1.1v6.2h-1.5v-14.9h3.6c0.7,0,1.4,0.1,2.1,0.2c0.7,0.2,1.2,0.4,1.7,0.8
		c0.5,0.3,0.9,0.8,1.2,1.3C452.3,273,452.4,273.6,452.4,274.3z M450.9,274.3c0-0.5-0.1-1-0.3-1.3c-0.2-0.4-0.5-0.7-0.9-0.9
		c-0.4-0.2-0.8-0.4-1.3-0.5c-0.5-0.1-1-0.2-1.5-0.2h-2v6.2h1.2c0.6,0,1.3-0.1,1.8-0.2c0.6-0.1,1.1-0.3,1.5-0.6c0.4-0.3,0.8-0.6,1-1
		C450.8,275.4,450.9,274.9,450.9,274.3z"/>
	<path d="M472.7,285.1h-1.6l-1.5-3.8h-7.2l-1.5,3.8h-1.6l5.9-14.9h1.5L472.7,285.1z M466,271.8l-3.1,8.3h6.3L466,271.8z"/>
	<path d="M488.5,274.5c0,0.7-0.1,1.4-0.4,1.9c-0.3,0.6-0.7,1-1.2,1.4c-0.5,0.4-1.2,0.7-1.9,0.9c-0.7,0.2-1.5,0.3-2.4,0.3h-1.3v6.1
		h-1.5v-14.9h3.3c0.7,0,1.5,0.1,2.1,0.3c0.7,0.2,1.2,0.4,1.7,0.8c0.5,0.4,0.9,0.8,1.2,1.3C488.4,273.1,488.5,273.7,488.5,274.5z
		 M487,274.5c0-0.5-0.1-1-0.3-1.4c-0.2-0.4-0.5-0.7-0.9-0.9c-0.4-0.2-0.8-0.4-1.3-0.5c-0.5-0.1-1-0.2-1.5-0.2h-1.7v6.3h1.4
		c0.6,0,1.2-0.1,1.7-0.2c0.5-0.1,1-0.4,1.4-0.6c0.4-0.3,0.7-0.6,0.9-1C486.9,275.5,487,275,487,274.5z"/>
	<path d="M497,285.1h-1.5v-14.9h1.5V285.1z"/>
	<path d="M517.4,285.1h-1.6l-1.5-3.8h-7.2l-1.5,3.8h-1.6l5.9-14.9h1.5L517.4,285.1z M510.8,271.8l-3.1,8.3h6.3L510.8,271.8z"/>
</g>
<path class="st0" d="M321.3,270"/>
<g>
	<path class="st1" d="M43.1,31.3c-0.6,0.2-1.3,0.2-2,0.2c-0.7-0.1-1.3-0.3-1.8-0.6c-0.5-0.3-1-0.7-1.4-1.1c-0.4-0.5-0.6-1-0.8-1.6
		C37,27.6,36.9,27,37,26.3c0.1-0.7,0.3-1.3,0.6-1.8c0.3-0.5,0.7-1,1.2-1.3c0.5-0.3,1-0.6,1.6-0.7c0.6-0.1,1.2-0.2,1.9-0.1
		c0.6,0.1,1.2,0.3,1.8,0.5c0.6,0.3,1,0.7,1.3,1.1l-1.6,1.2c-0.2-0.3-0.4-0.5-0.7-0.7c-0.3-0.2-0.6-0.3-1-0.3c-0.4,0-0.7,0-1,0.1
		c-0.3,0.1-0.6,0.3-0.9,0.5c-0.2,0.2-0.5,0.5-0.6,0.8c-0.2,0.3-0.3,0.7-0.3,1c0,0.4,0,0.8,0.1,1.1c0.1,0.3,0.2,0.6,0.4,0.9
		s0.4,0.5,0.7,0.6c0.3,0.2,0.6,0.3,1,0.3c0.4,0,0.8,0,1.1-0.1c0.3-0.1,0.6-0.3,0.8-0.5l1.3,1.5C44.2,30.8,43.7,31.1,43.1,31.3z"/>
	<path class="st1" d="M55.2,28.5c-0.1,0.7-0.3,1.3-0.6,1.8c-0.3,0.5-0.7,1-1.2,1.3c-0.5,0.4-1,0.6-1.6,0.8c-0.6,0.1-1.2,0.2-1.9,0.1
		c-0.7-0.1-1.3-0.3-1.8-0.6c-0.5-0.3-1-0.7-1.4-1.1c-0.4-0.5-0.6-1-0.8-1.6c-0.2-0.6-0.2-1.2-0.1-1.9c0.1-0.7,0.3-1.3,0.6-1.8
		c0.3-0.5,0.7-1,1.2-1.3c0.5-0.3,1-0.6,1.6-0.7c0.6-0.1,1.2-0.2,1.9-0.1c0.7,0.1,1.3,0.3,1.8,0.5c0.6,0.3,1,0.6,1.4,1.1
		c0.4,0.4,0.6,1,0.8,1.5C55.2,27.2,55.3,27.8,55.2,28.5z M52.9,28.2c0-0.4,0-0.7-0.1-1.1c-0.1-0.3-0.2-0.6-0.4-0.9
		c-0.2-0.3-0.4-0.5-0.7-0.6c-0.3-0.2-0.6-0.3-1-0.3s-0.7,0-1,0.1c-0.3,0.1-0.6,0.2-0.8,0.5c-0.2,0.2-0.5,0.5-0.6,0.8
		c-0.2,0.3-0.3,0.7-0.3,1c0,0.4,0,0.8,0.1,1.1c0.1,0.3,0.2,0.6,0.4,0.9c0.2,0.3,0.4,0.5,0.7,0.7c0.3,0.2,0.6,0.3,1,0.3
		c0.4,0,0.7,0,1-0.1c0.3-0.1,0.6-0.3,0.9-0.5c0.2-0.2,0.5-0.5,0.6-0.8C52.8,29,52.9,28.6,52.9,28.2z"/>
	<path class="st1" d="M61.8,33.7L59,27.6l0,0l-0.6,5.7l-2-0.2l1-8.7l2.4,0.3l2.8,6.1l0,0l0.6-5.7l2,0.2l-1,8.7L61.8,33.7z"/>
	<path class="st1" d="M76,35.3c-0.6,0.2-1.3,0.2-2,0.2c-0.7-0.1-1.3-0.3-1.8-0.6c-0.5-0.3-1-0.7-1.4-1.1c-0.4-0.5-0.6-1-0.8-1.6
		c-0.2-0.6-0.2-1.2-0.1-1.9c0.1-0.7,0.3-1.3,0.6-1.8s0.7-1,1.2-1.3c0.5-0.3,1-0.6,1.6-0.7c0.6-0.1,1.2-0.2,1.9-0.1
		c0.6,0.1,1.2,0.3,1.8,0.5c0.6,0.3,1,0.7,1.3,1.1l-1.6,1.2c-0.2-0.3-0.4-0.5-0.7-0.7c-0.3-0.2-0.6-0.3-1-0.3c-0.4,0-0.7,0-1,0.1
		c-0.3,0.1-0.6,0.3-0.9,0.5c-0.2,0.2-0.5,0.5-0.6,0.8c-0.2,0.3-0.3,0.7-0.3,1c0,0.4,0,0.8,0.1,1.1c0.1,0.3,0.2,0.6,0.4,0.9
		c0.2,0.3,0.4,0.5,0.7,0.6c0.3,0.2,0.6,0.3,1,0.3c0.4,0,0.8,0,1.1-0.1c0.3-0.1,0.6-0.3,0.8-0.5l1.3,1.5C77.1,34.8,76.6,35.1,76,35.3
		z"/>
	<path class="st1" d="M84.4,36.4l-0.5-1.8l-3.3-0.4l-0.8,1.6l-2.3-0.3l4.7-8.2l2,0.2l2.5,9.1L84.4,36.4z M82.8,29.8l-1.5,2.8
		l2.2,0.3L82.8,29.8z"/>
	<path class="st1" d="M87.8,36.9l1-8.7l2.1,0.3l-0.8,6.8l3.3,0.4l-0.2,1.8L87.8,36.9z"/>
	<path class="st1" d="M94.5,37.7l1-8.7l2.1,0.3l-1,8.7L94.5,37.7z"/>
	<path class="st1" d="M107.4,34.8c-0.1,0.8-0.3,1.4-0.7,1.9c-0.3,0.5-0.8,0.9-1.3,1.2c-0.5,0.3-1.1,0.5-1.7,0.6
		c-0.6,0.1-1.2,0.1-1.8,0l-3.2-0.4l1-8.7l3.1,0.4c0.6,0.1,1.2,0.2,1.8,0.4c0.6,0.2,1.1,0.5,1.5,0.9c0.4,0.4,0.7,0.9,1,1.5
		C107.4,33.3,107.5,34,107.4,34.8z M105.2,34.6c0.1-0.5,0-0.9-0.1-1.2c-0.1-0.3-0.3-0.6-0.5-0.8c-0.2-0.2-0.5-0.4-0.9-0.5
		c-0.3-0.1-0.7-0.2-1-0.2l-1-0.1l-0.6,5.1l1,0.1c0.4,0,0.7,0,1.1,0c0.4,0,0.7-0.1,1-0.3s0.5-0.4,0.7-0.7
		C105,35.4,105.2,35,105.2,34.6z"/>
	<path class="st1" d="M114.2,40.1l-0.5-1.8l-3.3-0.4l-0.8,1.6l-2.3-0.3l4.7-8.2l2,0.2l2.5,9.1L114.2,40.1z M112.6,33.4l-1.5,2.8
		l2.2,0.3L112.6,33.4z"/>
	<path class="st1" d="M126.2,37.1c-0.1,0.8-0.3,1.4-0.7,1.9c-0.3,0.5-0.8,0.9-1.3,1.2c-0.5,0.3-1.1,0.5-1.7,0.6
		c-0.6,0.1-1.2,0.1-1.8,0l-3.2-0.4l1-8.7l3.1,0.4c0.6,0.1,1.2,0.2,1.8,0.4c0.6,0.2,1.1,0.5,1.5,0.9c0.4,0.4,0.7,0.9,1,1.5
		C126.2,35.6,126.3,36.3,126.2,37.1z M124,36.8c0.1-0.5,0-0.9-0.1-1.2c-0.1-0.3-0.3-0.6-0.5-0.8c-0.2-0.2-0.5-0.4-0.9-0.5
		c-0.3-0.1-0.7-0.2-1-0.2l-1-0.1l-0.6,5.1l1,0.1c0.4,0,0.7,0,1.1,0c0.4,0,0.7-0.1,1-0.3c0.3-0.2,0.5-0.4,0.7-0.7
		S123.9,37.3,124,36.8z"/>
	<path class="st1" d="M136.3,42.7l0.4-3.6l-3.4-0.4l-0.4,3.6l-2.1-0.3l1-8.7l2.1,0.3l-0.4,3.3l3.4,0.4l0.4-3.3l2.1,0.3l-1,8.7
		L136.3,42.7z"/>
	<path class="st1" d="M147.8,42.3c-0.2,0.4-0.5,0.7-0.9,1c-0.4,0.3-0.8,0.5-1.3,0.6s-1,0.1-1.6,0.1c-0.6-0.1-1.1-0.2-1.5-0.4
		c-0.4-0.2-0.8-0.5-1.1-0.9c-0.3-0.3-0.5-0.7-0.6-1.2c-0.1-0.4-0.1-0.9-0.1-1.5l0.7-5.4l2.1,0.3l-0.6,5.2c0,0.2,0,0.5,0,0.7
		c0,0.2,0.1,0.4,0.2,0.6c0.1,0.2,0.3,0.3,0.5,0.5c0.2,0.1,0.4,0.2,0.7,0.2c0.3,0,0.5,0,0.8-0.1s0.4-0.2,0.6-0.3
		c0.2-0.2,0.3-0.3,0.4-0.5c0.1-0.2,0.1-0.4,0.2-0.7l0.6-5.2l2.1,0.3l-0.7,5.4C148.2,41.4,148,41.9,147.8,42.3z"/>
	<path class="st1" d="M157.7,45.3l0.8-6.1l0,0l-3,5.8l-1.5-0.2l-1.4-6.4l0,0l-0.7,6.1l-2-0.2l1-8.7l3,0.4l1.3,5.8l0,0l2.6-5.3l3,0.4
		l-1,8.6L157.7,45.3z"/>
	<path class="st1" d="M167.8,46.6l-0.5-1.8l-3.3-0.4l-0.8,1.6l-2.3-0.3l4.7-8.2l2,0.2l2.5,9.1L167.8,46.6z M166.2,39.9l-1.5,2.8
		L167,43L166.2,39.9z"/>
	<path class="st1" d="M176.7,47.6l-2.8-6.1l0,0l-0.6,5.7l-2-0.2l1-8.7l2.4,0.3l2.8,6.1l0,0l0.6-5.7l2,0.2l-1,8.7L176.7,47.6z"/>
	<path class="st1" d="M187.1,48.9l-0.5-1.8l-3.3-0.4l-0.8,1.6l-2.3-0.3l4.7-8.2l2,0.2l2.5,9.1L187.1,48.9z M185.5,42.3l-1.5,2.8
		l2.2,0.3L185.5,42.3z"/>
	<path class="st1" d="M199.1,50.4l-2.8-6.1l0,0l-0.6,5.7l-2-0.2l1-8.7l2.4,0.3l2.8,6.1l0,0l0.6-5.7l2,0.2l-1,8.7L199.1,50.4z"/>
	<path class="st1" d="M211,49.9c-0.2,0.4-0.5,0.7-0.9,1c-0.4,0.3-0.8,0.5-1.3,0.6c-0.5,0.1-1,0.1-1.6,0.1c-0.6-0.1-1.1-0.2-1.5-0.4
		c-0.4-0.2-0.8-0.5-1.1-0.9c-0.3-0.3-0.5-0.7-0.6-1.2c-0.1-0.4-0.1-0.9-0.1-1.5l0.7-5.4l2.1,0.3l-0.6,5.2c0,0.2,0,0.5,0,0.7
		c0,0.2,0.1,0.4,0.2,0.6c0.1,0.2,0.3,0.3,0.5,0.5c0.2,0.1,0.4,0.2,0.7,0.2c0.3,0,0.5,0,0.8-0.1c0.2-0.1,0.4-0.2,0.6-0.3
		c0.2-0.2,0.3-0.3,0.4-0.5c0.1-0.2,0.1-0.4,0.2-0.7l0.6-5.2l2.1,0.3l-0.7,5.4C211.3,49.1,211.2,49.5,211,49.9z"/>
	<path class="st1" d="M214.4,51.1l-1.1-8.6l5.8-0.7l0.2,1.8l-3.8,0.5l0.2,1.6l3.6-0.5l0.2,1.7l-3.6,0.5l0.2,1.8l4-0.5l0.2,1.8
		L214.4,51.1z"/>
	<path class="st1" d="M225.9,43.1c-0.2-0.2-0.5-0.4-0.8-0.5s-0.6-0.1-0.9-0.1c-0.1,0-0.3,0-0.4,0.1c-0.1,0-0.3,0.1-0.4,0.2
		c-0.1,0.1-0.2,0.2-0.3,0.3c-0.1,0.1-0.1,0.3-0.1,0.4c0,0.1,0.1,0.3,0.1,0.4c0.1,0.1,0.2,0.2,0.3,0.2c0.1,0.1,0.3,0.1,0.4,0.1
		c0.2,0,0.4,0.1,0.6,0.1c0.3,0.1,0.6,0.1,1,0.2c0.3,0.1,0.6,0.2,0.9,0.4c0.3,0.2,0.5,0.4,0.7,0.6c0.2,0.3,0.3,0.6,0.4,1
		c0.1,0.5,0,0.9-0.1,1.3c-0.1,0.4-0.3,0.7-0.6,1s-0.6,0.5-1,0.7c-0.4,0.2-0.8,0.3-1.2,0.3c-0.6,0.1-1.2,0-1.8-0.1
		c-0.6-0.1-1.1-0.4-1.6-0.7l1.2-1.6c0.2,0.2,0.6,0.4,0.9,0.5c0.4,0.1,0.7,0.2,1.1,0.1c0.2,0,0.3-0.1,0.4-0.1
		c0.1-0.1,0.3-0.1,0.4-0.2c0.1-0.1,0.2-0.2,0.2-0.3c0-0.1,0.1-0.3,0-0.5c0-0.2-0.1-0.3-0.2-0.4c-0.1-0.1-0.2-0.2-0.4-0.3
		c-0.2-0.1-0.4-0.1-0.6-0.2c-0.2,0-0.5-0.1-0.8-0.2c-0.3-0.1-0.6-0.1-0.9-0.2c-0.3-0.1-0.5-0.2-0.8-0.4c-0.2-0.2-0.4-0.4-0.6-0.6
		s-0.3-0.6-0.3-1c-0.1-0.5,0-0.9,0.1-1.3c0.2-0.4,0.4-0.7,0.7-0.9c0.3-0.3,0.6-0.5,1-0.6c0.4-0.2,0.8-0.3,1.2-0.3
		c0.5-0.1,1,0,1.5,0.1c0.5,0.1,1,0.3,1.4,0.6L225.9,43.1z"/>
	<path class="st1" d="M232.4,41.8l0.9,6.9l-2.1,0.3l-0.9-6.9l-2.4,0.3l-0.2-1.8l7-0.9l0.2,1.8L232.4,41.8z"/>
	<path class="st1" d="M241.7,47.6l-2.3-3.2l-0.7,0.1l0.4,3.4l-2,0.3l-1.1-8.6l3.3-0.4c0.4-0.1,0.8-0.1,1.2,0c0.4,0,0.8,0.1,1.1,0.3
		c0.3,0.2,0.6,0.4,0.9,0.7c0.2,0.3,0.4,0.7,0.4,1.2c0.1,0.6,0,1.1-0.3,1.5c-0.3,0.4-0.7,0.8-1.2,1l2.7,3.4L241.7,47.6z M240.8,41.6
		c0-0.2-0.1-0.4-0.2-0.5c-0.1-0.1-0.2-0.2-0.4-0.3c-0.1-0.1-0.3-0.1-0.5-0.1c-0.2,0-0.3,0-0.5,0l-1.1,0.1l0.3,2l1-0.1
		c0.2,0,0.3-0.1,0.5-0.1c0.2-0.1,0.3-0.1,0.5-0.2c0.1-0.1,0.2-0.2,0.3-0.4S240.8,41.9,240.8,41.6z"/>
	<path class="st1" d="M251.3,46.4l-0.9-1.6l-3.3,0.4l-0.4,1.8l-2.3,0.3l2.5-9.1l2-0.3l4.7,8.2L251.3,46.4z M248.2,40.3l-0.7,3.1
		l2.2-0.3L248.2,40.3z"/>
	<path class="st1" d="M257.9,45.5l-1.1-8.6l5.8-0.7l0.2,1.8l-3.8,0.5l0.2,1.6l3.6-0.5l0.2,1.7l-3.6,0.5l0.2,1.8l4-0.5l0.2,1.8
		L257.9,45.5z"/>
	<path class="st1" d="M269.5,37.6c-0.2-0.2-0.5-0.4-0.8-0.5c-0.3-0.1-0.6-0.1-0.9-0.1c-0.1,0-0.3,0-0.4,0.1c-0.1,0-0.3,0.1-0.4,0.2
		s-0.2,0.2-0.3,0.3c-0.1,0.1-0.1,0.3-0.1,0.4c0,0.1,0.1,0.3,0.1,0.4c0.1,0.1,0.2,0.2,0.3,0.2c0.1,0.1,0.3,0.1,0.4,0.1
		c0.2,0,0.4,0.1,0.6,0.1c0.3,0.1,0.6,0.1,1,0.2c0.3,0.1,0.6,0.2,0.9,0.4c0.3,0.2,0.5,0.4,0.7,0.6c0.2,0.3,0.3,0.6,0.4,1
		c0.1,0.5,0,0.9-0.1,1.3c-0.1,0.4-0.3,0.7-0.6,1c-0.3,0.3-0.6,0.5-1,0.7c-0.4,0.2-0.8,0.3-1.2,0.3c-0.6,0.1-1.2,0-1.8-0.1
		c-0.6-0.1-1.1-0.4-1.6-0.7l1.2-1.6c0.2,0.2,0.6,0.4,0.9,0.5c0.4,0.1,0.7,0.2,1.1,0.1c0.2,0,0.3-0.1,0.4-0.1
		c0.1-0.1,0.3-0.1,0.4-0.2c0.1-0.1,0.2-0.2,0.2-0.3c0-0.1,0.1-0.3,0-0.5c0-0.2-0.1-0.3-0.2-0.4c-0.1-0.1-0.2-0.2-0.4-0.3
		c-0.2-0.1-0.4-0.1-0.6-0.2c-0.2,0-0.5-0.1-0.8-0.2c-0.3-0.1-0.6-0.1-0.9-0.2c-0.3-0.1-0.5-0.2-0.8-0.4c-0.2-0.2-0.4-0.4-0.6-0.6
		c-0.2-0.3-0.3-0.6-0.3-1c-0.1-0.5,0-0.9,0.1-1.3s0.4-0.7,0.7-0.9c0.3-0.3,0.6-0.5,1-0.6c0.4-0.2,0.8-0.3,1.2-0.3
		c0.5-0.1,1,0,1.5,0.1c0.5,0.1,1,0.3,1.4,0.6L269.5,37.6z"/>
	<path class="st1" d="M279.1,36.8c0.1,0.5,0,0.9-0.1,1.3c-0.1,0.4-0.4,0.7-0.7,0.9c-0.3,0.3-0.6,0.5-1,0.6s-0.8,0.3-1.3,0.3l-1,0.1
		l0.4,3.3l-2.1,0.3l-1.1-8.6l3.2-0.4c0.5-0.1,0.9-0.1,1.3,0c0.4,0,0.8,0.1,1.1,0.3c0.3,0.2,0.6,0.4,0.8,0.7
		C278.9,35.9,279,36.3,279.1,36.8z M277,37.1c0-0.2-0.1-0.4-0.2-0.5c-0.1-0.1-0.2-0.2-0.4-0.3c-0.1-0.1-0.3-0.1-0.5-0.1
		c-0.2,0-0.4,0-0.5,0l-0.9,0.1l0.3,2l0.9-0.1c0.2,0,0.4-0.1,0.6-0.1c0.2-0.1,0.3-0.1,0.5-0.2c0.1-0.1,0.2-0.2,0.3-0.4
		C277,37.4,277,37.3,277,37.1z"/>
	<path class="st1" d="M281.4,42.6l-1.1-8.6l5.8-0.7l0.2,1.8l-3.8,0.5l0.2,1.6l3.6-0.5l0.2,1.7l-3.6,0.5l0.2,1.8l4-0.5l0.2,1.8
		L281.4,42.6z"/>
	<path class="st1" d="M293.9,41l-2.3-3.2l-0.7,0.1l0.4,3.4l-2,0.3l-1.1-8.6l3.3-0.4c0.4-0.1,0.8-0.1,1.2,0c0.4,0,0.8,0.1,1.1,0.3
		c0.3,0.2,0.6,0.4,0.9,0.7c0.2,0.3,0.4,0.7,0.4,1.2c0.1,0.6,0,1.1-0.3,1.5c-0.3,0.4-0.7,0.8-1.2,1l2.7,3.4L293.9,41z M293,35
		c0-0.2-0.1-0.4-0.2-0.5c-0.1-0.1-0.2-0.2-0.4-0.3c-0.1-0.1-0.3-0.1-0.5-0.1c-0.2,0-0.3,0-0.5,0l-1.1,0.1l0.3,2l1-0.1
		c0.2,0,0.3-0.1,0.5-0.1c0.2-0.1,0.3-0.1,0.5-0.2s0.2-0.2,0.3-0.4S293,35.2,293,35z"/>
	<path class="st1" d="M303.5,39.7l-0.9-1.6l-3.3,0.4l-0.4,1.8l-2.3,0.3l2.5-9.1l2-0.3l4.7,8.2L303.5,39.7z M300.4,33.7l-0.7,3.1
		l2.2-0.3L300.4,33.7z"/>
	<path class="st1" d="M312.4,38.6l-4.2-5.2l0,0l0.8,5.6l-2,0.3l-1.1-8.6l2.4-0.3l4.2,5.2l0,0l-0.8-5.6l2-0.3l1.1,8.6L312.4,38.6z"/>
	<path class="st1" d="M316.5,38.1l-0.2-1.8l3.5-5.6l-4,0.5l-0.2-1.8l6.6-0.8l0.2,1.7l-3.6,5.7l4.3-0.5l0.2,1.8L316.5,38.1z"/>
	<path class="st1" d="M330.9,36.3l-0.9-1.6l-3.3,0.4l-0.4,1.8l-2.3,0.3l2.5-9.1l2-0.3l4.7,8.2L330.9,36.3z M327.8,30.2l-0.7,3.1
		l2.2-0.3L327.8,30.2z"/>
	<path class="st1" d="M343.6,34.5c-0.5,0.3-1.2,0.5-1.9,0.6c-0.7,0.1-1.3,0.1-1.9-0.1c-0.6-0.1-1.1-0.4-1.6-0.7
		c-0.5-0.4-0.9-0.8-1.2-1.3c-0.3-0.5-0.5-1.1-0.6-1.8c-0.1-0.7,0-1.3,0.1-1.9c0.2-0.6,0.4-1.1,0.8-1.6c0.4-0.4,0.8-0.8,1.4-1.1
		c0.5-0.3,1.1-0.5,1.8-0.6c0.6-0.1,1.2,0,1.8,0.1c0.6,0.1,1.1,0.4,1.6,0.8l-1.2,1.6c-0.2-0.2-0.5-0.4-0.8-0.5
		c-0.3-0.1-0.7-0.1-1-0.1c-0.4,0-0.7,0.2-1,0.3c-0.3,0.2-0.5,0.4-0.7,0.7c-0.2,0.3-0.3,0.6-0.4,0.9c-0.1,0.3-0.1,0.7,0,1.1
		c0,0.4,0.2,0.7,0.3,1.1s0.4,0.6,0.6,0.8c0.2,0.2,0.5,0.4,0.8,0.4c0.3,0.1,0.7,0.1,1,0.1c0.4-0.1,0.8-0.2,1.1-0.4
		c0.3-0.2,0.5-0.4,0.7-0.7l1.6,1.2C344.6,33.7,344.2,34.2,343.6,34.5z"/>
	<path class="st1" d="M351,33.7l-2.3-3.2l-0.7,0.1l0.4,3.4l-2,0.3l-1.1-8.6l3.3-0.4c0.4-0.1,0.8-0.1,1.2,0c0.4,0,0.8,0.1,1.1,0.3
		c0.3,0.2,0.6,0.4,0.9,0.7c0.2,0.3,0.4,0.7,0.4,1.2c0.1,0.6,0,1.1-0.3,1.5c-0.3,0.4-0.7,0.8-1.2,1l2.7,3.4L351,33.7z M350.1,27.7
		c0-0.2-0.1-0.4-0.2-0.5c-0.1-0.1-0.2-0.2-0.4-0.3c-0.1-0.1-0.3-0.1-0.5-0.1c-0.2,0-0.3,0-0.5,0l-1.1,0.1l0.3,2l1-0.1
		c0.2,0,0.3-0.1,0.5-0.1c0.2-0.1,0.3-0.1,0.5-0.2c0.1-0.1,0.2-0.2,0.3-0.4C350.1,28.1,350.2,27.9,350.1,27.7z"/>
	<path class="st1" d="M354.8,33.2l-1.1-8.6l5.8-0.7l0.2,1.8l-3.8,0.5l0.2,1.6l3.6-0.5l0.2,1.7l-3.6,0.5l0.2,1.8l4-0.5l0.2,1.8
		L354.8,33.2z"/>
	<path class="st1" d="M368.7,31.3c-0.5,0.3-1.2,0.5-1.9,0.6c-0.7,0.1-1.3,0.1-1.9-0.1c-0.6-0.1-1.1-0.4-1.6-0.7
		c-0.5-0.4-0.9-0.8-1.2-1.3c-0.3-0.5-0.5-1.1-0.6-1.8c-0.1-0.7,0-1.3,0.1-1.9c0.2-0.6,0.4-1.1,0.8-1.6c0.4-0.4,0.8-0.8,1.4-1.1
		c0.5-0.3,1.1-0.5,1.8-0.6c0.6-0.1,1.2,0,1.8,0.1c0.6,0.1,1.1,0.4,1.6,0.8l-1.2,1.6c-0.2-0.2-0.5-0.4-0.8-0.5
		c-0.3-0.1-0.7-0.1-1-0.1c-0.4,0-0.7,0.2-1,0.3c-0.3,0.2-0.5,0.4-0.7,0.7s-0.3,0.6-0.4,0.9s-0.1,0.7,0,1.1c0,0.4,0.2,0.7,0.3,1.1
		s0.4,0.6,0.6,0.8c0.2,0.2,0.5,0.4,0.8,0.4c0.3,0.1,0.7,0.1,1,0.1c0.4-0.1,0.8-0.2,1.1-0.4c0.3-0.2,0.5-0.4,0.7-0.7l1.6,1.2
		C369.7,30.6,369.3,31,368.7,31.3z"/>
	<path class="st1" d="M371.4,31.1l-1.1-8.6l5.8-0.7l0.2,1.8l-3.8,0.5l0.2,1.6l3.6-0.5l0.2,1.7l-3.6,0.5l0.2,1.8l4-0.5l0.2,1.8
		L371.4,31.1z"/>
</g>
<g>
	<path d="M599.9,261.8h-2l5.7-13.1h1.7l5.6,13.1h-2.1l-1.3-3.2h-6.2L599.9,261.8z M601.8,257h4.9l-2.4-6.1L601.8,257z"/>
	<path d="M615.1,260.7c0,0.3-0.1,0.6-0.4,0.8c-0.2,0.2-0.5,0.4-0.9,0.4c-0.3,0-0.6-0.1-0.9-0.4c-0.2-0.2-0.4-0.5-0.4-0.8
		c0-0.3,0.1-0.6,0.4-0.9c0.2-0.2,0.5-0.4,0.9-0.4c0.4,0,0.7,0.1,0.9,0.4C614.9,260.1,615.1,260.4,615.1,260.7z"/>
	<path d="M629.6,259.8c-0.5,0.7-1.2,1.3-2,1.7c-0.8,0.4-1.8,0.7-3,0.7c-1,0-1.9-0.2-2.8-0.5c-0.8-0.3-1.6-0.8-2.2-1.4
		c-0.6-0.6-1.1-1.3-1.4-2.2c-0.3-0.8-0.5-1.8-0.5-2.8c0-1,0.2-2,0.5-2.8c0.4-0.8,0.8-1.6,1.5-2.2c0.6-0.6,1.4-1.1,2.2-1.4
		s1.8-0.5,2.8-0.5c0.4,0,0.9,0,1.3,0.1s0.9,0.2,1.3,0.4c0.4,0.2,0.8,0.4,1.1,0.6c0.3,0.3,0.6,0.5,0.9,0.9l-1.4,1.1
		c-0.3-0.4-0.8-0.8-1.4-1.1c-0.6-0.3-1.2-0.4-1.9-0.4c-0.8,0-1.4,0.1-2.1,0.4c-0.6,0.3-1.1,0.7-1.6,1.1c-0.4,0.5-0.8,1-1,1.7
		c-0.2,0.6-0.4,1.3-0.4,2c0,0.7,0.1,1.4,0.3,2.1c0.2,0.6,0.6,1.2,1,1.7c0.4,0.5,0.9,0.8,1.6,1.1c0.6,0.3,1.3,0.4,2,0.4
		c0.7,0,1.4-0.1,2-0.4c0.6-0.3,1.1-0.7,1.5-1.3L629.6,259.8z"/>
	<path d="M634,260.7c0,0.3-0.1,0.6-0.4,0.8c-0.2,0.2-0.5,0.4-0.9,0.4c-0.3,0-0.6-0.1-0.9-0.4c-0.2-0.2-0.4-0.5-0.4-0.8
		c0-0.3,0.1-0.6,0.4-0.9c0.2-0.2,0.5-0.4,0.9-0.4c0.4,0,0.7,0.1,0.9,0.4C633.9,260.1,634,260.4,634,260.7z"/>
</g>
</svg>
