<?xml version="1.0" encoding="utf-8"?>
<!-- Generator: Adobe Illustrator 25.0.0, SVG Export Plug-In . SVG Version: 6.00 Build 0)  -->
<svg version="1.1" id="Capa_1" xmlns="http://www.w3.org/2000/svg" xmlns:xlink="http://www.w3.org/1999/xlink" x="0px" y="0px"
	 viewBox="0 0 2154.33 249.26" style="enable-background:new 0 0 2154.33 249.26;" xml:space="preserve">
<g>
	<path d="M1340.75,237.83c-24.27,0-44.01-13.54-44.01-30.19v-87.83c0-16.64,19.74-30.19,44.01-30.19s44.01,13.54,44.01,30.19v87.83
		C1384.76,224.29,1365.02,237.83,1340.75,237.83z M1340.75,108.61c-11.92,0-21.63,6.65-21.63,14.83v80.57
		c0,8.18,9.7,14.83,21.63,14.83s21.63-6.65,21.63-14.83v-80.57C1362.38,115.27,1352.68,108.61,1340.75,108.61z"/>
	<path d="M1235.83,157.03c-16.64-3.95-21.75-10.84-22.86-18.33c-0.81-4.65,0-18.74,0-18.74c0-15.16,39.36-17.17,39.36,0v14.06h7.79
		h12.64h7.79v-14.06c0-21.55-25.93-30.19-48.15-30.19c-27.64,0-47.66,13.54-47.66,30.19v23.08l0.1,0.98
		c0.23,1.14,2.67,11.33,16.16,19.09c5.36,3.08,12.21,4.96,19.47,6.94c17.45,4.77,32.52,8.9,32.01,27.71
		c-0.07,5.48-0.15,9.94-0.15,10.02c0,8-7.02,15.93-19.68,15.93c-16.74,0-19.68-7.93-19.68-15.93v-16.31h-28.23v16.31
		c0,16.64,21.49,30.05,47.91,30.05c21.61,0,47.91-13.41,47.91-29.97c0,0,0.07-4.47,0.15-9.9
		C1281.48,169.51,1254.01,162,1235.83,157.03z"/>
	<path d="M1451.47,157.03c-16.64-3.95-21.75-10.84-22.86-18.33c-0.81-4.65,0-18.74,0-18.74c0-15.16,39.36-17.17,39.36,0v14.06h7.79
		h12.64h7.79v-14.06c0-21.55-25.93-30.19-48.15-30.19c-27.64,0-47.66,13.54-47.66,30.19v23.08l0.1,0.98
		c0.23,1.14,2.67,11.33,16.16,19.09c5.36,3.08,12.21,4.96,19.47,6.94c17.45,4.77,32.52,8.9,32.01,27.71
		c-0.07,5.48-0.15,9.94-0.15,10.02c0,8-7.02,15.93-19.68,15.93c-16.74,0-19.68-7.93-19.68-15.93v-16.31h-28.23v16.31
		c0,16.64,21.49,30.05,47.91,30.05c21.61,0,47.91-13.41,47.91-29.97c0,0,0.07-4.47,0.15-9.9
		C1497.12,169.51,1469.65,162,1451.47,157.03z"/>
	<polygon points="1600.36,93.07 1506.88,93.07 1506.88,109.11 1542.3,109.11 1542.3,237.83 1568.6,237.83 1568.6,109.11 
		1600.36,109.11 	"/>
	<rect x="1820.28" y="93.07" width="26.3" height="144.76"/>
	<polygon points="2007.96,221.79 2007.96,93.02 1981.66,93.02 1981.66,237.78 1984.12,237.78 1984.12,237.83 2062.25,237.83 
		2062.25,221.79 	"/>
	<polygon points="1641.74,221.79 1685.47,221.79 1685.47,237.83 1614.95,237.83 1614.95,220.46 1614.95,169.84 1614.95,93.02 
		1685.96,93.02 1685.96,109.06 1641.74,109.06 1641.74,154.15 1667.68,154.15 1667.68,170.19 1641.74,170.19 	"/>
	<polygon points="2150.33,109.06 2150.33,93.02 2071.71,93.02 2071.71,237.83 2149.84,237.83 2149.84,221.79 2098.5,221.79 
		2098.5,170.19 2124.44,170.19 2124.44,154.15 2098.5,154.15 2098.5,109.06 	"/>
	<polygon points="1796.28,93.47 1769.98,93.47 1769.98,198.61 1727.12,93.47 1700.81,93.47 1700.81,237.83 1727.12,237.83 
		1727.12,145.01 1769.98,237.83 1796.28,237.83 	"/>
	<path d="M1950.14,158.46c7.28-4.59,11.93-11.47,11.93-19.14v-21.36c0-13.79-14.96-25.01-33.34-25.01h-49.79v0.12h-12.55v144.76
		h62.34c19.41,0,34.62-12.74,34.62-29.47v-26.32C1963.35,172.34,1958.22,163.88,1950.14,158.46z M1938.84,117.96v21.36
		c0,4.92-4.63,9.08-10.11,9.08h-36.04v-39.52h36.04C1934.21,108.88,1938.84,113.04,1938.84,117.96z M1937.56,208.35
		c0,7.54-5.72,12.15-8.83,12.15h-36.04v-50.62h36.04c3.11,0,8.83,4.61,8.83,12.15V208.35z"/>
	<g>
		<path d="M61.14,12.9C39.19,41.33,23.25,79.02,23.25,131.52c0,51.62,16.54,88.74,37.89,117.74H40.39
			C21.45,225.19,1,188.07,1,131.52C1.3,74.39,21.45,37.26,40.39,12.9H61.14z"/>
		<path d="M264.4,249.26c21.35-28.71,37.89-66.41,37.89-118.61c0-51.91-16.24-89.03-37.89-117.74h20.45
			c19.24,23.78,39.39,60.9,39.39,118.03c0,56.84-20.15,93.67-39.39,118.32H264.4z"/>
	</g>
	<path d="M658.02,135.9c9.72,0,10.25,11.6,9.52,17.5v84.25c0,0,59.31,0,69.67,0l12.42-13.98h-58.28V114.83h26.92v-13.98
		c0,0-22.04,0-40.38,0c-14.02,0-10.8,19.97-10.8,19.97s-32.68,0-60.63,0c-25.73,0-24.36,19.31-24.85,31.95c0.96,16.95,0,67.9,0,67.9
		H528l-4.64,15.98h77.92c0,0,0-70.27,0-83.25c0-8.11,0.07-17.5,8.34-17.5H658.02z"/>
	<path d="M800.42,14.53l-8.44,58.63h11.82c0,0,5.07-40.71,25.33-43.97s103.97,0,103.97,0L762.55,237.65h209.39l18.57-48.86h-8.87
		c0,0-13.09,29.31-35.04,30.94s-119.89,0-119.89,0L990.51,12.9C990.51,12.9,800.42,12.9,800.42,14.53z"/>
	<path d="M1113.07,206.61c-5.47-21.11,0-84.45,0-84.45c0-58.06-103.98-49.26-111.27,0c-7.3,35.19,34.66,15.83,27.36,1.76
		c-3.65-7.04,2.43-31.08,28.88-31.08c18.24,0,30.4,8.21,29.49,38.12c-0.04,1.41-0.07,2.72-0.11,4.1
		c-24.25,6.67-88.14,27.82-91.09,66.27c-3.28,42.65,62.55,41.32,93.2,21.5c5.08,8.63,20.23,26.79,49.09,3.13v-12.32
		C1138.6,213.64,1118.54,227.72,1113.07,206.61z M1032.75,196.75c1.89-32.15,52.01-52.59,52.01-52.59l0.95,62.12
		C1073.41,224.13,1030.86,228.89,1032.75,196.75z"/>
	<polygon points="69.08,71.03 69.08,92.13 109.28,92.13 109.28,202.93 131.16,202.93 131.16,92.13 186.42,92.13 186.42,237.75 
		208.3,237.75 208.3,92.13 220.61,92.13 264.92,92.13 264.92,72.08 	"/>
	<g>
		<path d="M510.1,199.8V218c-11.49,6.44-23.43,11.33-35.8,14.66c-12.37,3.33-24.81,4.99-37.31,4.99c-25.63,0-46.44-7.49-62.41-22.47
			c-15.98-14.98-23.96-34.49-23.96-58.54c0-24.69,8.37-44.85,25.1-60.47c16.73-15.62,38.23-23.43,64.5-23.43
			c21.47,0,38.48,5.83,51.05,17.47c12.56,11.65,18.85,27.51,18.85,47.59c0,2.69-0.03,4.73-0.09,6.12c-0.06,1.4-0.22,2.74-0.47,4.03
			H383.91v3.7c0,20.72,5.87,37.12,17.62,49.2c11.75,12.08,27.6,18.12,47.56,18.12c9.22,0,18.79-1.55,28.7-4.67
			C487.71,211.18,498.47,206.35,510.1,199.8z M475.29,134.09v-5.14c0-13.27-3.44-23.43-10.31-30.49
			c-6.88-7.06-16.87-10.59-29.99-10.59c-12.87,0-24,4.36-33.39,13.08c-9.4,8.72-14.66,19.77-15.8,33.14H475.29z"/>
	</g>
</g>
</svg>
