<?xml version="1.0" encoding="utf-8"?>
<!-- Generator: Adobe Illustrator 25.0.0, SVG Export Plug-In . SVG Version: 6.00 Build 0)  -->
<svg version="1.1" id="Layer_1" xmlns="http://www.w3.org/2000/svg" xmlns:xlink="http://www.w3.org/1999/xlink" x="0px" y="0px"
	 viewBox="0 0 300 300" style="enable-background:new 0 0 300 300;" xml:space="preserve">
<g>
	<path d="M42.64,200.84h-6.85v11.59h-4.7v-30.73h11.55c7.07,0,11.72,2.72,11.72,9.57C54.37,198.16,49.71,200.84,42.64,200.84
		 M42.56,185.7h-6.76v11.19h6.76c3.95,0,7.02-1.31,7.02-5.61C49.58,187,46.51,185.7,42.56,185.7"/>
	<path d="M68.06,212.91c-7.29,0-11.19-4.52-11.19-11.97c0-7.51,3.9-12.03,11.19-12.03c7.24,0,11.2,4.51,11.2,12.03
		C79.26,208.42,75.3,212.91,68.06,212.91 M68.06,192.5c-4.6,0-6.58,3.29-6.58,8.44c0,5.12,1.98,8.38,6.58,8.38
		c4.61,0,6.59-3.26,6.59-8.38C74.65,195.79,72.67,192.5,68.06,192.5"/>
	<path d="M88.35,194.25c0.36-0.92,2.68-5.58,8.7-5.14v4.3c-7.82,0-8.7,7.29-8.7,7.29v11.73h-4.52v-23.06h4.52V194.25z"/>
	<path d="M118.13,208.88c-1.54,1.19-5.8,4.03-9.93,4.03c-5,0-6.28-3.42-6.28-6.97v-16.56h1.85v16.38c0,3.03,0.96,5.49,4.6,5.49
		c3.69,0,8.08-2.94,9.75-4.35v-17.52h1.84v23.06h-1.84V208.88z"/>
	<path d="M128.77,192.98c1.53-1.24,5.8-4.08,9.88-4.08c5.04,0,6.32,3.42,6.32,6.97v16.56h-1.84v-16.38c0-3.04-0.97-5.49-4.61-5.49
		c-3.77,0-8.12,2.95-9.74,4.36v17.52h-1.85v-23.06h1.85V192.98z"/>
	<polygon points="169.07,199.39 157.79,199.39 157.79,212.43 150.28,212.43 150.28,181.71 157.79,181.71 157.79,193.21 
		169.07,193.21 169.07,181.71 176.53,181.71 176.53,212.43 169.07,212.43 	"/>
	<path d="M192.53,212.91c-7.9,0-12.29-4.39-12.29-12.03c0-7.58,4.34-11.98,12.29-11.98c7.9,0,12.29,4.43,12.29,12.03
		C204.82,208.51,200.48,212.91,192.53,212.91 M192.53,194.43c-3.47,0-4.97,2.37-4.97,6.45c0,4.08,1.5,6.5,4.97,6.5
		c3.47,0,5-2.37,5-6.45C197.54,196.85,196,194.43,192.53,194.43"/>
	<path d="M230.81,189.38v22.75c0,6.59-3.33,9.71-10.36,9.71c-3.64,0-8.52-0.75-12.48-1.9c0.49-1.88,0.92-3.73,1.41-5.53
		c2.86,0.87,7.2,1.85,9.52,1.85c3.56,0,4.7-1.15,4.7-3.78v-2.41c-1.93,1.57-4.25,2.84-7.6,2.84c-5.4,0-9.05-4.08-9.05-11.97
		c0-8,3.64-12.03,9.05-12.03c3.35,0,5.66,1.31,7.6,2.89v-2.42H230.81z M223.61,204.43v-7.02c-1.67-1.88-3.52-2.72-5.31-2.72
		c-2.67,0-4.05,2.16-4.05,6.19c0,4.08,1.38,6.24,4.05,6.24C220.09,207.12,221.94,206.28,223.61,204.43"/>
	<path d="M249.78,209.84c-1.76,1.59-4.39,3.07-7.95,3.07c-4.74,0-8.07-3.07-8.07-7.59c0-4.74,3.59-7.42,8.59-7.42
		c2.63,0,5.89,0.75,7.42,1.05v-1.45c0-2.32-0.96-3.16-3.87-3.16c-2.23,0-4.69,0.52-8.38,1.62l-2.2-4.92
		c4.65-1.48,8.57-2.14,11.94-2.14c6.81,0,9.71,2.46,9.71,8.99v14.54h-7.2V209.84z M249.78,205.18v-2.77c-1.24-0.26-3.42-0.7-5-0.7
		c-2.46,0-3.69,1.06-3.69,2.95c0,1.88,1.27,2.72,3.12,2.72C246,207.38,247.94,206.72,249.78,205.18"/>
	<path d="M268.31,194.17c0.52-1.32,2.76-5.44,8.59-5.05v6.76c-7.76,0-8.59,7.42-8.59,7.42v9.13h-7.2v-23.06h7.2V194.17z"/>
	<polygon points="111.21,131.06 111.24,131.09 111.24,131.07 	"/>
	<path d="M160.97,145.54c-2.7,4.94-8.32,10.35-8.32,10.35s-7.45-12.16-7.69-9.55c-0.23,2.61,1.9,9.73,2.45,10.91
		c0.09,0.18,0.21,0.49,0.36,0.85c0.76,1.89,2.09,5.64,2.09,5.64s-0.94,1.55-3.48,1.71c0.18,1.46,0.47,2.98,0.77,4.35
		c0.28,1.27,0.57,2.42,0.79,3.27c0.05,0.18,0.09,0.34,0.13,0.5c1.77-0.04,3.55-0.05,5.34-0.05c0,0,0.11-0.17,0.27-0.45
		c0.34-0.59,0.98-1.75,1.76-3.31c1.37-2.77,3.13-6.83,4.34-11.35C160.89,154.3,161.53,149.8,160.97,145.54"/>
	<path d="M142,173.08l-0.42-3.16l-0.52-3.94l-2.25,0.01l0.13,4l0.11,3.1l0.02,0.7c1-0.03,2.01-0.05,3.02-0.09L142,173.08z"/>
	<polygon points="172.71,170.12 168.63,156.9 164.6,169.87 163.61,173.08 173.63,173.08 	"/>
	<path d="M196.69,171.81v-40.71v-10.84l6.36-0.01l-6.36,10.85l22.12-16.37L154,72.17l-64.87,42.55l22.08,16.34l-6.34-10.81
		l6.37,0.01l0,10.82v0v0.02v40.72c-32.27,3.41-44.33,9.89-44.33,9.89s27.89-5.84,65.58-7.66l0.14-0.97l0.4-2.87l0.64-4.47
		c0,0-4.63,0.12-6.94-1.35c3.83-4.61,5.26-13.68,5.72-17.63c0.14-1.19,0.18-1.93,0.18-1.93s-0.42,0.49-1.08,1.26
		c-2.07,2.42-6.55,7.74-8.33,10.6c-0.51-1.39-3.08-3.31-3.08-3.31s3.19-6.05,6.42-10.96c2.46-3.74,4.95-6.82,6.07-6.02
		c2.61,1.81,7.74,0.93,9.94,0.08c3.15-1.22,4.29,1.71,4.29,1.71s1.63,3.16,5.11,9.57c1.61-2.26,6.25-8.61,7.63-9.06
		c1.69-0.57,2.65-0.41,6.48-1.2c3.41-0.72,3.99-0.45,9.25-10.57c0.37-0.72,0.77-1.49,1.19-2.3c0.82,0.71,1.75,1.45,2.81,2.17
		l0.39,0.26l0.45-0.04c0.06-0.01,0.37-0.06,0.88-0.16c-0.63,1.02-1.32,2.14-2.01,3.33c-2.57,4.39-5.13,9.56-5.13,12.66
		c0,1.04,0.28,2.64,0.75,4.57c1.62,6.67,5.48,17.36,7.64,23.2c0.38,0.97,0.68,1.8,0.93,2.47c0.26,0.69,0.46,1.19,0.56,1.44
		c33.44,2.18,57.3,7.18,57.3,7.18S229,175.21,196.69,171.81 M137.97,134.98c-3.81,0-6.91-3.09-6.91-6.92c0-3.81,3.09-6.9,6.91-6.9
		c3.82,0,6.92,3.08,6.92,6.9C144.89,131.9,141.79,134.98,137.97,134.98 M164.62,134.98c-4.19,0-7.59-3.4-7.59-7.61
		c0-4.19,3.4-7.59,7.59-7.59c4.21,0,7.61,3.4,7.61,7.59C172.22,131.58,168.82,134.98,164.62,134.98 M189.43,120.4
		c-0.2,0.26-0.42,0.51-0.62,0.75c-0.05,0.04-0.09,0.1-0.15,0.14c-0.2,0.24-0.42,0.46-0.63,0.66c-0.05,0.04-0.08,0.07-0.12,0.1
		c-0.2,0.2-0.39,0.37-0.61,0.54c-0.03,0.03-0.08,0.06-0.11,0.1c-0.23,0.18-0.46,0.35-0.68,0.51c-0.06,0.03-0.11,0.07-0.16,0.1
		c-0.23,0.15-0.44,0.3-0.67,0.43c-0.01,0.01-0.02,0.01-0.03,0.02c-0.24,0.15-0.47,0.26-0.7,0.4c-0.04,0.02-0.1,0.06-0.14,0.08
		c-0.23,0.11-0.45,0.23-0.66,0.32c-0.05,0.01-0.08,0.03-0.12,0.04c-0.19,0.09-0.37,0.17-0.55,0.24c-0.05,0.02-0.09,0.05-0.14,0.06
		c-0.19,0.08-0.38,0.15-0.58,0.21c-0.04,0.03-0.1,0.04-0.16,0.06c-0.14,0.06-0.3,0.1-0.45,0.15c-0.03,0.01-0.07,0.02-0.1,0.02
		c0,0,0,0,0,0c-0.17,0.06-0.33,0.09-0.48,0.14c-0.07,0.02-0.12,0.03-0.19,0.04c-0.09,0.03-0.17,0.05-0.26,0.07
		c-0.06,0.01-0.13,0.02-0.17,0.05c-0.09,0.02-0.17,0.03-0.25,0.04c-0.06,0.01-0.11,0.02-0.17,0.04c-0.07,0.01-0.14,0.02-0.18,0.03
		c-0.05,0.01-0.07,0.01-0.09,0.01c-0.05,0.01-0.07,0.01-0.11,0.01c-0.02,0-0.03,0-0.04,0c-0.02,0.02-0.05,0.02-0.05,0.02
		c-0.34-0.24-0.67-0.48-0.97-0.71c-0.13-0.09-0.23-0.17-0.34-0.26c-0.2-0.15-0.38-0.28-0.55-0.43c-0.12-0.1-0.26-0.2-0.38-0.32
		c-0.24-0.19-0.47-0.39-0.67-0.59c0,0,0,0,0,0c-0.23-0.2-0.43-0.42-0.64-0.61c-0.04-0.06-0.1-0.1-0.16-0.15
		c-0.18-0.19-0.35-0.37-0.52-0.56c-0.04-0.07-0.11-0.13-0.17-0.2c-0.16-0.18-0.3-0.36-0.45-0.54c-0.06-0.07-0.1-0.14-0.16-0.19
		c-0.14-0.2-0.27-0.37-0.4-0.55c-0.04-0.07-0.09-0.12-0.13-0.19c-0.13-0.18-0.24-0.35-0.34-0.53c-0.05-0.07-0.08-0.13-0.12-0.2
		c-0.1-0.18-0.2-0.36-0.29-0.53c-0.02-0.06-0.06-0.1-0.08-0.16c-0.09-0.19-0.18-0.37-0.26-0.55c-0.01-0.04-0.02-0.07-0.05-0.11
		c-0.44-1.08-0.64-2.13-0.67-3.1c0-0.04,0-0.06,0-0.08c0-0.16,0-0.33,0.03-0.49c0-0.05,0-0.1,0.01-0.15
		c0.01-0.15,0.02-0.29,0.04-0.43c0.01-0.06,0.01-0.11,0.04-0.17c0.02-0.14,0.04-0.27,0.06-0.41c0.03-0.07,0.04-0.12,0.05-0.18
		c0.03-0.12,0.07-0.25,0.1-0.37c0.01-0.06,0.04-0.12,0.06-0.16c0-0.01,0.01-0.02,0.01-0.04c0.03-0.11,0.08-0.23,0.12-0.35
		c0.03-0.05,0.06-0.11,0.08-0.18c0.05-0.11,0.09-0.23,0.15-0.33c0.02-0.05,0.06-0.11,0.09-0.17c0.06-0.1,0.11-0.21,0.17-0.32
		c0.04-0.04,0.07-0.1,0.09-0.14c0.07-0.12,0.14-0.22,0.21-0.32c0-0.01,0.01-0.01,0.01-0.02c0.16-0.23,0.33-0.43,0.51-0.64
		c0.04-0.05,0.09-0.11,0.15-0.17c0.05-0.06,0.12-0.12,0.19-0.19c0.07-0.06,0.12-0.11,0.18-0.18c0.07-0.06,0.14-0.11,0.19-0.17
		c0.07-0.06,0.14-0.11,0.22-0.17c0.07-0.06,0.12-0.1,0.2-0.15c0.08-0.04,0.15-0.1,0.23-0.16c0.07-0.03,0.13-0.08,0.2-0.12
		c0.08-0.05,0.16-0.09,0.24-0.14c0.07-0.03,0.14-0.08,0.2-0.1c0.08-0.03,0.17-0.08,0.25-0.11c0.07-0.04,0.14-0.06,0.21-0.09
		c0.09-0.04,0.17-0.07,0.26-0.09c0.07-0.03,0.12-0.05,0.19-0.07c0.09-0.04,0.18-0.06,0.27-0.07c0.07-0.01,0.13-0.03,0.2-0.05
		c0.1-0.02,0.2-0.03,0.3-0.04c0.06-0.01,0.1-0.01,0.16-0.02c0.16-0.03,0.31-0.04,0.45-0.04c4.06,0,5.16,3.28,5.46,4.62h0.62
		c0.09-0.08,0.18-0.17,0.29-0.24c0.05-0.05,0.11-0.08,0.17-0.11c0.09-0.07,0.18-0.13,0.27-0.19c0.07-0.03,0.12-0.05,0.19-0.09
		c0.09-0.04,0.18-0.09,0.27-0.12c0.07-0.02,0.14-0.06,0.21-0.08c0.09-0.03,0.18-0.07,0.27-0.09c0.07-0.02,0.14-0.05,0.2-0.06
		c0.09-0.02,0.2-0.03,0.28-0.05c0.06-0.02,0.13-0.03,0.2-0.04c0.09-0.01,0.18-0.02,0.26-0.02c0.07,0,0.14-0.01,0.19-0.01
		c0.04,0,0.07,0,0.11,0c0.1,0,0.19,0,0.29,0.01c0.9,0,1.71,0.4,2.31,1.09C191.66,114.33,191.89,117.18,189.43,120.4"/>
</g>
</svg>
