<?xml version="1.0" encoding="utf-8"?>
<!-- Generator: Adobe Illustrator 25.0.0, SVG Export Plug-In . SVG Version: 6.00 Build 0)  -->
<svg version="1.1" id="Capa_1" xmlns="http://www.w3.org/2000/svg" xmlns:xlink="http://www.w3.org/1999/xlink" x="0px" y="0px"
	 viewBox="0 0 536.62 150" style="enable-background:new 0 0 536.62 150;" xml:space="preserve">
<g id="Guides_For_Artboard">
</g>
<g id="Layer_1">
	<g>
		<g>
			<g>
				<path d="M166.13,53.85c0.76-0.16,1.51-0.26,2.25-0.33c0.74-0.06,1.56-0.08,2.49-0.08c1.52,0,3.07,0.17,4.65,0.49
					c0.17,0.28,0.31,0.67,0.45,1.19c0.13,0.52,0.27,1.08,0.41,1.68c0.13,0.59,0.25,1.19,0.33,1.75c0.08,0.58,0.14,1.06,0.2,1.44
					c0.49-0.88,1.09-1.73,1.79-2.58c0.71-0.84,1.57-1.58,2.58-2.24c1.01-0.66,2.13-1.19,3.39-1.58c1.25-0.42,2.63-0.62,4.16-0.62
					c2.34,0,4.54,0.44,6.57,1.31c2.04,0.88,3.83,2.2,5.35,3.96c1.52,1.78,2.71,3.99,3.55,6.65c0.84,2.67,1.26,5.83,1.26,9.47
					c0,3.54-0.52,6.71-1.55,9.51c-1.03,2.81-2.53,5.18-4.49,7.15c-1.96,1.96-4.35,3.47-7.18,4.54c-2.84,1.05-6.05,1.58-9.64,1.58
					c-0.93,0-1.84-0.04-2.74-0.12c-0.9-0.07-1.65-0.17-2.25-0.28v18.77c-1.03,0.17-2.03,0.28-2.98,0.33s-1.89,0.08-2.81,0.08
					c-0.93,0-1.87-0.03-2.81-0.08c-0.96-0.05-1.95-0.16-2.98-0.33L166.13,53.85L166.13,53.85z M177.72,87.16
					c1.47,0.44,3.16,0.66,5.06,0.66c3.38,0,5.96-1.09,7.76-3.27c1.8-2.17,2.69-5.47,2.69-9.88c0-1.68-0.14-3.25-0.41-4.69
					s-0.74-2.68-1.39-3.72c-0.66-1.03-1.49-1.84-2.49-2.44s-2.24-0.9-3.71-0.9c-1.37,0-2.52,0.26-3.48,0.78
					c-0.95,0.51-1.72,1.23-2.32,2.12c-0.6,0.89-1.04,1.95-1.3,3.14c-0.27,1.2-0.41,2.48-0.41,3.84V87.16z"/>
				<path d="M260.84,97.12c-3.43,0-6.41-0.56-8.94-1.68c-2.53-1.11-4.62-2.67-6.29-4.65c-1.66-1.99-2.91-4.32-3.75-6.99
					c-0.84-2.66-1.27-5.55-1.27-8.65s0.42-6,1.27-8.73c0.84-2.73,2.1-5.07,3.75-7.07c1.66-1.99,3.76-3.55,6.29-4.7
					c2.53-1.14,5.51-1.71,8.94-1.71c3.42,0,6.42,0.57,8.98,1.71c2.56,1.15,4.68,2.71,6.37,4.7c1.69,2,2.94,4.34,3.76,7.07
					c0.82,2.72,1.22,5.63,1.22,8.73c0,3.11-0.4,5.99-1.22,8.65c-0.82,2.67-2.07,5-3.76,6.99c-1.69,1.98-3.81,3.54-6.37,4.65
					C267.26,96.56,264.26,97.12,260.84,97.12z M260.84,88.3c3.04,0,5.24-1.13,6.57-3.39c1.33-2.26,2-5.51,2-9.76
					c0-4.24-0.67-7.49-2-9.75s-3.53-3.39-6.57-3.39c-3,0-5.16,1.13-6.49,3.39c-1.34,2.26-2,5.51-2,9.75c0,4.25,0.67,7.5,2,9.76
					S257.84,88.3,260.84,88.3z"/>
				<path d="M317.01,86.17c0.65,1.09,1.2,2.37,1.63,3.8c0.44,1.44,0.66,3.14,0.66,5.1c-2.18,0.88-4.22,1.43-6.13,1.68
					c-1.9,0.24-3.88,0.36-5.96,0.36c-3.54,0-6.62-0.56-9.23-1.68c-2.61-1.11-4.78-2.66-6.49-4.61c-1.72-1.96-3.02-4.28-3.88-6.99
					c-0.87-2.68-1.3-5.61-1.3-8.77c0-3.11,0.42-5.98,1.27-8.65c0.84-2.67,2.12-5.01,3.84-7.02c1.71-2.03,3.85-3.59,6.41-4.74
					c2.56-1.14,5.53-1.71,8.9-1.71c1.2,0,2.29,0.03,3.3,0.09c1.01,0.04,1.97,0.16,2.9,0.32c0.92,0.16,1.85,0.38,2.78,0.66
					c0.93,0.27,1.96,0.62,3.11,1.06c0,1.25-0.17,2.65-0.49,4.21c-0.33,1.54-0.85,3.03-1.55,4.44c-1.64-0.54-3.06-0.91-4.29-1.1
					s-2.63-0.29-4.2-0.29c-3.37,0-5.92,1.11-7.64,3.31c-1.71,2.21-2.56,5.34-2.56,9.43c0,4.41,0.92,7.63,2.77,9.64
					c1.85,2.01,4.35,3.02,7.5,3.02c0.82,0,1.57-0.01,2.25-0.04c0.68-0.04,1.35-0.1,2-0.21c0.66-0.11,1.32-0.27,2.01-0.48
					C315.28,86.78,316.09,86.5,317.01,86.17z"/>
				<path d="M325.09,53.93c1.96-0.32,3.89-0.49,5.79-0.49c1.91,0,3.84,0.17,5.8,0.49v22.38c0,2.23,0.18,4.07,0.53,5.51
					s0.9,2.59,1.63,3.43c0.73,0.85,1.65,1.44,2.74,1.8c1.09,0.35,2.36,0.54,3.83,0.54c2.02,0,3.7-0.2,5.07-0.57V53.94
					c1.95-0.32,3.86-0.49,5.71-0.49c1.91,0,3.84,0.17,5.8,0.49v40.58c-1.74,0.6-4.04,1.2-6.9,1.76c-2.86,0.57-5.84,0.86-8.94,0.86
					c-2.78,0-5.44-0.22-8-0.65s-4.8-1.37-6.74-2.79c-1.93-1.41-3.47-3.48-4.61-6.2c-1.14-2.72-1.71-6.34-1.71-10.86V53.93z"/>
				<path d="M380.12,78.59c0.21,3.27,1.36,5.64,3.43,7.1c2.06,1.47,4.78,2.21,8.16,2.21c1.85,0,3.75-0.18,5.68-0.53
					s3.77-0.87,5.51-1.51c0.6,1.09,1.12,2.39,1.55,3.92s0.68,3.16,0.74,4.9c-4.25,1.63-9.04,2.45-14.38,2.45
					c-3.91,0-7.27-0.55-10.08-1.63c-2.8-1.09-5.09-2.62-6.86-4.53c-1.77-1.94-3.08-4.24-3.92-6.9c-0.84-2.67-1.26-5.58-1.26-8.74
					c0-3.1,0.44-6.01,1.3-8.73c0.88-2.72,2.17-5.09,3.88-7.11c1.71-2,3.83-3.6,6.37-4.76c2.53-1.17,5.49-1.76,8.86-1.76
					c2.94,0,5.54,0.51,7.84,1.55c2.29,1.04,4.23,2.45,5.84,4.25c1.6,1.8,2.81,3.93,3.63,6.41c0.82,2.47,1.23,5.14,1.23,7.96
					c0,1.04-0.04,2.06-0.12,3.07c-0.08,1-0.18,1.8-0.29,2.41h-27.11V78.59z M396.7,70.5c-0.11-2.61-0.83-4.72-2.17-6.33
					c-1.34-1.6-3.2-2.41-5.59-2.41c-2.73,0-4.79,0.77-6.21,2.28c-1.42,1.53-2.26,3.68-2.54,6.45L396.7,70.5L396.7,70.5z"/>
				<path d="M489.77,86.17c0.65,1.09,1.2,2.37,1.63,3.8c0.44,1.44,0.65,3.14,0.65,5.1c-2.18,0.88-4.21,1.43-6.12,1.68
					c-1.91,0.24-3.9,0.36-5.96,0.36c-3.54,0-6.61-0.56-9.22-1.68c-2.62-1.11-4.78-2.66-6.49-4.61c-1.72-1.96-3.01-4.28-3.88-6.99
					c-0.87-2.68-1.3-5.61-1.3-8.77c0-3.11,0.42-5.98,1.27-8.65c0.84-2.67,2.12-5.01,3.83-7.02c1.71-2.03,3.85-3.59,6.41-4.74
					c2.56-1.14,5.53-1.71,8.9-1.71c1.2,0,2.3,0.03,3.31,0.09c1.01,0.04,1.97,0.16,2.9,0.32c0.93,0.16,1.85,0.38,2.77,0.66
					c0.93,0.27,1.96,0.62,3.11,1.06c0,1.25-0.16,2.65-0.49,4.21c-0.33,1.54-0.84,3.03-1.55,4.44c-1.63-0.54-3.06-0.91-4.29-1.1
					s-2.63-0.29-4.2-0.29c-3.38,0-5.92,1.11-7.63,3.31c-1.71,2.21-2.58,5.34-2.58,9.43c0,4.41,0.93,7.63,2.78,9.64
					c1.84,2.01,4.35,3.02,7.51,3.02c0.81,0,1.56-0.01,2.24-0.04c0.68-0.04,1.35-0.1,2-0.21s1.32-0.27,2-0.48
					C488.04,86.78,488.85,86.5,489.77,86.17z"/>
				<path d="M519.65,68.38c0-1.3-0.22-2.36-0.65-3.18c-0.44-0.82-1.04-1.47-1.79-1.92c-0.77-0.46-1.71-0.77-2.82-0.94
					c-1.12-0.15-2.36-0.25-3.72-0.25c-2.94,0-6.07,0.58-9.38,1.72c-0.76-1.42-1.34-2.76-1.72-4.01c-0.38-1.24-0.57-2.74-0.57-4.48
					c2.39-0.82,4.79-1.42,7.18-1.8c2.4-0.38,4.63-0.57,6.7-0.57c5.65,0,10.08,1.36,13.27,4.09c3.18,2.72,4.78,7.07,4.78,13.06v24.49
					c-1.91,0.6-4.22,1.16-6.94,1.7c-2.72,0.54-5.8,0.82-9.23,0.82c-2.78,0-5.32-0.25-7.63-0.73c-2.31-0.5-4.3-1.31-5.96-2.46
					c-1.66-1.15-2.94-2.61-3.84-4.41c-0.9-1.8-1.34-4.01-1.34-6.61c0-2.61,0.55-4.81,1.67-6.58c1.12-1.76,2.55-3.18,4.33-4.24
					c1.77-1.07,3.74-1.82,5.92-2.3c2.17-0.45,4.36-0.68,6.53-0.68c1.58,0,3.32,0.08,5.22,0.23v-0.95H519.65z M519.65,76.79
					c-0.65-0.11-1.36-0.21-2.12-0.29c-0.76-0.08-1.45-0.12-2.04-0.12c-2.66,0-4.77,0.47-6.33,1.42c-1.55,0.96-2.32,2.5-2.32,4.61
					c0,1.42,0.3,2.51,0.89,3.27c0.6,0.76,1.33,1.32,2.17,1.68c0.84,0.35,1.74,0.57,2.69,0.65c0.96,0.08,1.78,0.12,2.5,0.12
					c0.82,0,1.63-0.06,2.44-0.2c0.82-0.13,1.53-0.26,2.12-0.36V76.79z"/>
				<path d="M452.02,96.63c-1.96,0.32-3.89,0.49-5.79,0.49s-3.84-0.16-5.8-0.49V74.26c0-2.23-0.18-4.07-0.53-5.51
					c-0.35-1.44-0.9-2.59-1.64-3.43c-0.73-0.85-1.64-1.44-2.73-1.8c-1.09-0.36-2.38-0.54-3.85-0.54c-2.01,0-3.69,0.19-5.05,0.58
					v33.07c-1.96,0.32-3.87,0.49-5.72,0.49c-1.9,0-3.83-0.16-5.79-0.49V56.04c1.74-0.6,4.04-1.17,6.9-1.75
					c2.86-0.57,5.84-0.86,8.94-0.86c2.77,0,5.44,0.22,8,0.66c2.55,0.44,4.8,1.35,6.73,2.77c1.93,1.41,3.47,3.48,4.62,6.2
					c1.14,2.73,1.71,6.35,1.71,10.87L452.02,96.63L452.02,96.63z"/>
				<path d="M212.99,53.93c0.82-0.16,1.6-0.28,2.33-0.35c0.73-0.09,1.54-0.14,2.41-0.14c0.82,0,1.62,0.06,2.41,0.17
					c0.79,0.11,1.56,0.24,2.32,0.41c0.16,0.27,0.31,0.66,0.45,1.18c0.13,0.52,0.26,1.07,0.37,1.63c0.11,0.57,0.21,1.16,0.29,1.72
					c0.08,0.58,0.15,1.06,0.2,1.44c1.2-1.7,2.66-3.21,4.4-4.53c1.75-1.33,3.92-2.01,6.54-2.01c0.54,0,1.17,0.03,1.88,0.08
					c0.71,0.07,1.22,0.14,1.55,0.25c0.11,0.54,0.19,1.17,0.25,1.88c0.05,0.7,0.08,1.44,0.08,2.21c0,0.92-0.04,1.92-0.13,3.01
					c-0.08,1.09-0.23,2.12-0.45,3.11c-0.6-0.11-1.27-0.16-2-0.16s-1.18,0-1.35,0c-0.92,0-1.96,0.1-3.1,0.29
					c-1.15,0.19-2.23,0.69-3.27,1.5c-1.04,0.82-1.89,2.04-2.56,3.68c-0.69,1.63-1.03,3.92-1.03,6.86v20.08
					c-0.97,0.17-1.96,0.27-2.94,0.32c-0.98,0.06-1.94,0.09-2.86,0.09c-0.93,0-1.86-0.03-2.82-0.09c-0.95-0.05-1.95-0.16-2.98-0.32
					V53.93H212.99z"/>
			</g>
		</g>
		<g>
			<g>
				<path d="M103.15,95.8c0,0-5.76,7.01-5.76,10.2c0,3.17,2.58,5.75,5.76,5.75s5.75-2.58,5.75-5.75
					C108.9,102.8,103.15,95.8,103.15,95.8z"/>
				<path d="M96.28,107.98c0,0-0.4-3.26-2.64-3.99c-1.02-0.33-2.12,0.22-2.45,1.24c-0.34,1.03,0.21,2.13,1.24,2.45
					C93.8,108.12,95.37,106.98,96.28,107.98z"/>
				<path d="M97.63,112.23c0,0-2.12-2.49-4.41-1.86c-1.04,0.28-1.64,1.36-1.36,2.39c0.29,1.04,1.36,1.65,2.39,1.36
					C95.64,113.72,96.31,111.9,97.63,112.23z"/>
			</g>
			<g>
				<g>
					<path d="M99.49,68.53c-3.26,0-5.9,2.64-5.9,5.9c0,3.26,2.64,5.9,5.9,5.9s5.9-2.64,5.9-5.9
						C105.39,71.18,102.75,68.53,99.49,68.53z"/>
				</g>
				<g>
					<g>
						<path d="M98.69,66.95l0.46-0.04c0,0,1.71-0.2,1.19-0.7c-0.37-0.36-0.61-0.89-0.21-1.43c0.82-1.14,0.58-1.9,0.23-2.76
							c0,0-0.38,1.27-1.17,1.92C98.14,64.8,97.49,66.12,98.69,66.95z"/>
					</g>
					<g>
						<path d="M95.06,68.35l0.38-0.26c0,0,1.38-1.02,0.69-1.2c-0.5-0.13-0.98-0.46-0.91-1.13c0.14-1.4-0.45-1.94-1.18-2.51
							c0,0,0.3,1.3-0.05,2.25C93.5,66.76,93.6,68.24,95.06,68.35z"/>
					</g>
					<g>
						<path d="M92.61,71.38l0.2-0.42c0,0,0.68-1.58-0.01-1.39c-0.5,0.14-1.08,0.09-1.35-0.52c-0.57-1.28-1.35-1.45-2.27-1.59
							c0,0,0.91,0.97,1.07,1.98C90.47,70.78,91.29,72.01,92.61,71.38z"/>
					</g>
					<g>
						<path d="M89.13,74.73c0.85,1.04,2.18,1.7,3.01,0.49l-0.04-0.46c0,0-0.2-1.71-0.7-1.2c-0.36,0.37-0.89,0.62-1.43,0.22
							c-1.14-0.82-1.9-0.58-2.75-0.23C87.22,73.56,88.49,73.94,89.13,74.73z"/>
					</g>
					<g>
						<path d="M93.4,78.86l-0.26-0.37c0,0-1.03-1.38-1.2-0.69c-0.13,0.51-0.46,0.97-1.13,0.91c-1.39-0.14-1.94,0.45-2.5,1.18
							c0,0,1.3-0.3,2.24,0.06C91.81,80.42,93.28,80.32,93.4,78.86z"/>
					</g>
					<g>
						<path d="M96.01,81.12c0,0-1.58-0.68-1.38,0c0.13,0.5,0.08,1.07-0.53,1.35c-1.28,0.57-1.46,1.35-1.58,2.27
							c0,0,0.96-0.91,1.97-1.08c1.33-0.21,2.56-1.03,1.93-2.35L96.01,81.12z"/>
					</g>
					<g>
						<path d="M100.28,81.92l-0.46,0.04c0,0-1.71,0.2-1.2,0.7c0.38,0.36,0.62,0.88,0.22,1.43c-0.82,1.13-0.58,1.9-0.23,2.75
							c0,0,0.39-1.27,1.17-1.92C100.82,84.07,101.48,82.75,100.28,81.92z"/>
					</g>
					<g>
						<path d="M103.91,80.52l-0.38,0.26c0,0-1.38,1.03-0.68,1.21c0.5,0.13,0.97,0.46,0.91,1.13c-0.15,1.4,0.44,1.94,1.17,2.51
							c0,0-0.3-1.29,0.06-2.25C105.47,82.11,105.37,80.63,103.91,80.52z"/>
					</g>
					<g>
						<path d="M106.36,77.49l-0.2,0.41c0,0-0.68,1.59,0.01,1.38c0.5-0.13,1.08-0.09,1.35,0.53c0.57,1.27,1.35,1.45,2.27,1.58
							c0,0-0.92-0.97-1.08-1.98C108.5,78.09,107.68,76.86,106.36,77.49z"/>
					</g>
					<g>
						<path d="M109.97,74.14c-0.85-1.05-2.18-1.7-3.01-0.5L107,74.1c0,0,0.2,1.71,0.7,1.19c0.36-0.37,0.88-0.61,1.43-0.22
							c1.14,0.82,1.9,0.59,2.76,0.23C111.89,75.31,110.62,74.93,109.97,74.14z"/>
					</g>
					<g>
						<path d="M107.03,71.07c0.13-0.5,0.46-0.97,1.13-0.9c1.4,0.14,1.93-0.45,2.51-1.18c0,0-1.29,0.3-2.25-0.05
							c-1.26-0.48-2.74-0.38-2.85,1.07l0.26,0.38C105.83,70.38,106.86,71.76,107.03,71.07z"/>
					</g>
					<g>
						<path d="M102.96,67.75c0,0,1.58,0.68,1.38-0.01c-0.14-0.5-0.09-1.07,0.53-1.35c1.28-0.57,1.46-1.35,1.58-2.27
							c0,0-0.97,0.91-1.98,1.07c-1.33,0.21-2.56,1.03-1.93,2.36L102.96,67.75z"/>
					</g>
				</g>
			</g>
			<g>
				<g>
					<g>
						<path d="M43.54,44.29c-0.89,0.01-1.66,0.57-2.07,1.41c-0.44-0.82-1.22-1.36-2.11-1.36c-1.35,0.03-2.43,1.31-2.41,2.89
							c0,0.3,0.05,0.61,0.13,0.88c0.19,0.91,1.56,2.38,2.83,3.58c0.62,0.58,1.65,1.39,1.65,1.39c0.43-0.32,1.01-0.83,1.61-1.43
							c1.24-1.22,2.57-2.74,2.74-3.65c0.07-0.28,0.11-0.57,0.11-0.89C46,45.54,44.89,44.26,43.54,44.29z"/>
					</g>
				</g>
			</g>
			<path d="M45.71,36.7c0,0.96-0.78,1.73-1.73,1.73c-0.96,0-1.73-0.78-1.73-1.73c0-0.96,0.78-1.73,1.73-1.73
				C44.93,34.96,45.71,35.74,45.71,36.7z"/>
			<path d="M129.39,59.48c0,0.96-0.78,1.73-1.73,1.73s-1.73-0.78-1.73-1.73c0-0.96,0.78-1.73,1.73-1.73S129.39,58.52,129.39,59.48z"
				/>
			<path d="M71.87,119.65c-0.35,1.23-1.63,1.95-2.86,1.61c-1.24-0.35-1.95-1.63-1.61-2.86c0.35-1.24,1.63-1.95,2.87-1.6
				C71.5,117.14,72.22,118.41,71.87,119.65z"/>
			<path d="M120.68,78.23c0,1.28-1.04,2.32-2.32,2.32c-1.29,0-2.32-1.04-2.32-2.32c0-1.29,1.03-2.32,2.32-2.32
				C119.64,75.92,120.68,76.95,120.68,78.23z"/>
			<g>
				<g>
					<g>
						<g>
							<path d="M91.55,123.74c-0.02,0-0.04,0-0.06,0c0,0-0.01,0-0.02,0c-0.02,0-0.04,0-0.05,0c-2.49,5.88-2.49,13.08,0,18.96
								c0.02,0,0.04,0,0.05,0c0.01,0,0.02,0,0.02,0c0.02,0,0.04,0,0.06,0C94.05,136.82,94.05,129.62,91.55,123.74z"/>
						</g>
						<g>
							<g>
								<path d="M97.35,128.7c-0.01,0-0.02-0.01-0.03-0.01h-0.01c-0.01,0-0.02-0.01-0.03-0.01c-2.18,1.59-3.36,4.21-3.1,6.9
									c0.01,0,0.02,0.01,0.02,0.01h0.01c0.01,0.01,0.02,0.01,0.03,0.01C96.43,134.01,97.61,131.39,97.35,128.7z"/>
							</g>
							<g>
								<path d="M85.62,128.7c0.01,0,0.02-0.01,0.03-0.01c0,0,0,0,0.01,0s0.02-0.01,0.03-0.01c2.18,1.59,3.36,4.21,3.11,6.9
									c-0.01,0-0.02,0.01-0.03,0.01s-0.01,0-0.01,0c-0.01,0.01-0.02,0.01-0.03,0.01C86.54,134.01,85.36,131.39,85.62,128.7z"/>
							</g>
							<g>
								<path d="M101.75,131.26c-0.01-0.01-0.03-0.03-0.05-0.04c-0.01,0-0.02-0.01-0.02-0.01c-0.01-0.02-0.03-0.03-0.05-0.04
									c-5.14,1.99-8.7,6.57-9.36,12.05c0.02,0.01,0.03,0.02,0.05,0.04c0.01,0,0.01,0.01,0.02,0.01c0.02,0.01,0.03,0.03,0.05,0.04
									c2.16-0.84,4.04-2.13,5.55-3.75C100.01,137.31,99.5,134.88,101.75,131.26z"/>
							</g>
							<g>
								<path d="M81.23,131.26c0.02-0.01,0.03-0.03,0.05-0.04c0,0,0.01-0.01,0.02-0.01c0.02-0.02,0.03-0.03,0.05-0.04
									c5.14,1.99,8.7,6.57,9.36,12.05c-0.02,0.01-0.03,0.02-0.05,0.04c-0.01,0-0.02,0.01-0.02,0.01
									c-0.02,0.01-0.03,0.03-0.05,0.04c-2.16-0.84-4.04-2.13-5.54-3.75C82.96,137.31,83.47,134.88,81.23,131.26z"/>
							</g>
						</g>
					</g>
				</g>
			</g>
			<g>
				<path d="M61.71,24.61l-3.96-3.98h1.26c1.09,0,1.38-0.65,0.62-1.45l-3.09-3.28h0.72c1.09,0,1.4-0.68,0.69-1.5l-2.68-3.09
					c-0.72-0.83-1.89-0.83-2.61,0l-2.68,3.09c-0.71,0.83-0.4,1.5,0.69,1.5h0.72l-3.09,3.28c-0.75,0.8-0.47,1.45,0.63,1.45h1.25
					l-3.96,3.98c-0.77,0.77-0.51,1.41,0.59,1.41h14.3C62.22,26.02,62.48,25.39,61.71,24.61z"/>
				<path d="M52.87,30.93c0,0.62,0.5,1.12,1.11,1.12c0.62,0,1.11-0.5,1.11-1.12v-3.67h-2.22V30.93z"/>
			</g>
			<g>
				<g>
					<g>
						<path d="M55.76,64.56c-0.55,0-1.08,0.08-1.58,0.22l-1.58-3.4c-0.13-0.27-0.4-0.45-0.7-0.45h-8.04l1.06-1.98h1.82
							c0.48,0,0.86-0.39,0.86-0.86c0-0.48-0.38-0.86-0.86-0.86h-2.58c-0.48,0-0.86,0.38-0.86,0.86c0,0.15,0.04,0.28,0.11,0.4
							l-3.49,6.48c-0.68-0.27-1.43-0.42-2.21-0.42c-3.31,0-6,2.69-6,6s2.69,6,6,6s6.01-2.69,6.01-6c0-1.98-0.97-3.73-2.45-4.82
							l1.63-3.04l3.07,6.57c-0.27,0.33-0.44,0.74-0.44,1.2c0,1.04,0.85,1.89,1.89,1.89c0.74,0,1.37-0.42,1.68-1.04h0.71
							c0.38,2.94,2.9,5.23,5.95,5.23c3.31,0,6-2.69,6-6C61.76,67.24,59.07,64.56,55.76,64.56z M42.02,70.56
							c0,2.38-1.94,4.31-4.31,4.31c-2.38,0-4.31-1.93-4.31-4.31s1.93-4.32,4.31-4.32c0.49,0,0.96,0.09,1.4,0.24l-1.99,3.71
							c-0.2,0.38-0.06,0.85,0.31,1.05c0.12,0.06,0.24,0.09,0.37,0.09c0.27,0,0.54-0.14,0.68-0.41l1.99-3.69
							C41.41,68.03,42.02,69.22,42.02,70.56z M52.75,65.37c-1.58,0.92-2.7,2.53-2.94,4.41h-0.64c-0.07-0.17-0.16-0.32-0.26-0.46
							l2.95-5.85L52.75,65.37z M54.8,69.78h-3.28c0.22-1.21,0.94-2.23,1.95-2.87L54.8,69.78z M50.63,62.47l-3.09,6.12
							c-0.04,0-0.08-0.01-0.13-0.01c-0.02,0-0.04,0-0.06,0l-2.85-6.11H50.63z M55.76,74.87c-2.12,0-3.88-1.53-4.24-3.54h4.5
							c0.27,0,0.51-0.13,0.66-0.35c0.14-0.23,0.16-0.51,0.04-0.74l-1.81-3.9c0.28-0.06,0.56-0.09,0.85-0.09
							c2.38,0,4.31,1.94,4.31,4.32C60.07,72.93,58.13,74.87,55.76,74.87z"/>
					</g>
					<g>
						<path d="M50.13,60.46h2.58c0.47,0,0.86-0.39,0.86-0.86c0-0.48-0.38-0.86-0.86-0.86h-2.58c-0.47,0-0.86,0.38-0.86,0.86
							C49.27,60.07,49.65,60.46,50.13,60.46z"/>
					</g>
				</g>
			</g>
			<g>
				<g>
					<g>
						<path d="M134.53,104.28c-0.97,0.02-1.82,0.62-2.27,1.54c-0.48-0.9-1.34-1.49-2.31-1.49c-1.48,0.02-2.66,1.44-2.63,3.17
							c0,0.34,0.05,0.66,0.14,0.97c0.21,0.99,1.71,2.62,3.1,3.92c0.67,0.63,1.8,1.52,1.8,1.52c0.47-0.35,1.11-0.92,1.76-1.57
							c1.35-1.34,2.82-3,3-4c0.08-0.3,0.12-0.63,0.12-0.97C137.22,105.65,136,104.26,134.53,104.28z"/>
					</g>
				</g>
			</g>
			<g>
				<g>
					<g>
						<path d="M18.61,91.83c-0.95,0.01-1.78,0.62-2.23,1.51c-0.47-0.88-1.32-1.47-2.27-1.46c-1.46,0.02-2.62,1.41-2.6,3.11
							c0,0.34,0.06,0.65,0.14,0.96c0.21,0.97,1.69,2.57,3.05,3.85c0.66,0.62,1.77,1.49,1.77,1.49c0.47-0.34,1.09-0.9,1.73-1.54
							c1.33-1.32,2.77-2.95,2.95-3.93c0.08-0.3,0.12-0.62,0.12-0.95C21.26,93.18,20.06,91.81,18.61,91.83z"/>
					</g>
				</g>
			</g>
			<g>
				<g>
					<g>
						<path d="M70.15,50.19c0-0.71,0.58-1.29,1.29-1.29c0.56,0,1.04,0.36,1.21,0.87c0.24-0.69,0.89-1.2,1.67-1.2
							c0.45,0,0.86,0.18,1.18,0.45c0.33-0.91,1.18-1.57,2.21-1.57c0.7,0,1.31,0.31,1.74,0.79c0.42-0.62,1.14-1.04,1.95-1.04
							s1.53,0.42,1.95,1.05c0.25-0.08,0.52-0.14,0.8-0.14c1.11,0,2.06,0.69,2.44,1.67c0.94,0.11,1.67,0.9,1.67,1.88
							c0,0.22-0.04,0.43-0.12,0.62c0.63,0.29,1.07,0.92,1.07,1.66c0,0.89-0.63,1.63-1.47,1.8c-0.16,1.15-1.13,2.03-2.32,2.03
							c-0.16,0-0.32-0.02-0.47-0.05v4.32c0,0.32-0.26,0.58-0.58,0.58s-0.58-0.26-0.58-0.58v-4.39c-0.42,0.62-1.13,1.03-1.95,1.03
							c-0.78,0-1.47-0.38-1.89-0.97c-0.36,0.46-0.91,0.77-1.54,0.77c-0.38,0-0.73-0.12-1.03-0.31v3.84c0,0.28-0.23,0.5-0.51,0.5
							s-0.5-0.22-0.5-0.5V57.6c-0.2,0.07-0.41,0.12-0.63,0.12c-1.04,0-1.88-0.82-1.94-1.85c-0.13,0.04-0.27,0.07-0.42,0.07
							c-0.87,0-1.57-0.7-1.57-1.57c0-0.39,0.15-0.75,0.39-1.02c-0.39-0.26-0.64-0.69-0.68-1.19c-0.11,0.07-0.23,0.12-0.37,0.12
							c-0.37,0-0.67-0.3-0.67-0.67c0-0.17,0.07-0.31,0.16-0.42C70.34,50.95,70.15,50.59,70.15,50.19z"/>
					</g>
					<g>
						<path d="M87.35,48.73c0,0.59,0.48,1.07,1.07,1.07c0.19,0,0.37-0.05,0.53-0.14c0.14,0.31,0.4,0.56,0.72,0.67
							c0.02,0.05,0.05,0.1,0.07,0.15c-0.03,0.07-0.04,0.15-0.04,0.23v3.48c0,0.35,0.28,0.64,0.63,0.64s0.63-0.28,0.63-0.64v-2.17
							l1.31,1.31c1.07,1.07,2.51,1.37,3.22,0.66c0.7-0.7,0.4-2.14-0.67-3.21l-1.72-1.72c0.03-0.1,0.05-0.2,0.05-0.32
							c0-0.04-0.01-0.08-0.02-0.13c0.05,0.01,0.11,0.02,0.16,0.02c0.57,0,1.04-0.47,1.04-1.04c0-0.58-0.47-1.04-1.04-1.04
							c-0.01,0-0.02,0-0.03,0c0-0.02,0.01-0.04,0.01-0.05c0-0.71-0.58-1.29-1.29-1.29c-0.35,0-0.67,0.14-0.9,0.37
							c-0.23-0.26-0.57-0.42-0.94-0.42c-0.5,0-0.93,0.29-1.14,0.71c-0.11-0.03-0.21-0.05-0.32-0.05c-0.71,0-1.29,0.58-1.29,1.29
							c0,0.31,0.11,0.6,0.3,0.82C87.48,48.14,87.35,48.42,87.35,48.73z M91.35,49.38c0-0.33,0.26-0.59,0.58-0.59
							s0.59,0.26,0.59,0.59c0,0.32-0.27,0.59-0.59,0.59C91.62,49.97,91.35,49.7,91.35,49.38z"/>
					</g>
				</g>
			</g>
			<g>
				<g>
					<g>
						<path d="M50.82,132.11c0-0.71,0.58-1.29,1.29-1.29c0.56,0,1.04,0.36,1.21,0.87c0.24-0.69,0.89-1.2,1.67-1.2
							c0.45,0,0.86,0.18,1.18,0.45c0.33-0.91,1.18-1.57,2.21-1.57c0.7,0,1.31,0.3,1.74,0.79c0.42-0.62,1.14-1.04,1.95-1.04
							s1.53,0.42,1.95,1.05c0.26-0.08,0.52-0.14,0.8-0.14c1.12,0,2.06,0.7,2.45,1.67c0.94,0.11,1.67,0.9,1.67,1.88
							c0,0.21-0.04,0.42-0.12,0.62c0.63,0.29,1.07,0.92,1.07,1.66c0,0.89-0.63,1.63-1.47,1.8c-0.16,1.14-1.13,2.02-2.32,2.02
							c-0.16,0-0.32-0.02-0.47-0.05v4.32c0,0.32-0.26,0.58-0.58,0.58s-0.58-0.26-0.58-0.58v-4.39c-0.42,0.62-1.14,1.04-1.95,1.04
							c-0.78,0-1.47-0.39-1.89-0.97c-0.36,0.46-0.91,0.77-1.54,0.77c-0.38,0-0.73-0.12-1.03-0.31v3.84c0,0.28-0.23,0.5-0.51,0.5
							s-0.5-0.22-0.5-0.5v-4.41c-0.2,0.07-0.41,0.11-0.63,0.11c-1.04,0-1.88-0.82-1.94-1.85c-0.13,0.04-0.27,0.07-0.42,0.07
							c-0.87,0-1.57-0.71-1.57-1.57c0-0.39,0.15-0.75,0.39-1.02c-0.39-0.26-0.64-0.69-0.68-1.19c-0.11,0.07-0.23,0.12-0.37,0.12
							c-0.37,0-0.67-0.3-0.67-0.67c0-0.17,0.07-0.31,0.16-0.43C51.02,132.87,50.82,132.52,50.82,132.11z"/>
					</g>
					<g>
						<path d="M68.03,130.66c0,0.59,0.48,1.07,1.07,1.07c0.19,0,0.37-0.05,0.53-0.14c0.15,0.31,0.4,0.55,0.73,0.67
							c0.02,0.04,0.05,0.1,0.07,0.15c-0.03,0.07-0.04,0.15-0.04,0.23v3.48c0,0.36,0.28,0.64,0.63,0.64s0.63-0.28,0.63-0.64v-2.17
							l1.31,1.31c1.07,1.07,2.51,1.37,3.22,0.66c0.7-0.7,0.4-2.14-0.67-3.21L73.79,131c0.03-0.1,0.06-0.21,0.06-0.32
							c0-0.04-0.01-0.08-0.02-0.13c0.05,0.01,0.11,0.02,0.16,0.02c0.57,0,1.04-0.46,1.04-1.04c0-0.58-0.47-1.04-1.04-1.04
							c-0.01,0-0.02,0.01-0.03,0.01c0-0.02,0.01-0.04,0.01-0.05c0-0.71-0.58-1.29-1.29-1.29c-0.35,0-0.67,0.14-0.9,0.37
							c-0.23-0.26-0.57-0.42-0.94-0.42c-0.5,0-0.93,0.29-1.14,0.71c-0.11-0.03-0.21-0.05-0.32-0.05c-0.71,0-1.29,0.57-1.29,1.29
							c0,0.31,0.11,0.59,0.3,0.82C68.16,130.06,68.03,130.34,68.03,130.66z M72.03,131.31c0-0.33,0.26-0.59,0.58-0.59
							s0.59,0.26,0.59,0.59c0,0.32-0.26,0.59-0.59,0.59C72.29,131.9,72.03,131.63,72.03,131.31z"/>
					</g>
				</g>
			</g>
			<path d="M28.7,64.78c0,1.66-1.34,2.99-3,2.99c-1.65,0-2.99-1.34-2.99-2.99c0-1.66,1.34-3,2.99-3
				C27.36,61.78,28.7,63.12,28.7,64.78z"/>
			<g>
				<g>
					<path d="M138.95,63.92c-1.56-0.53-2.53-1.23-2.57-1.27l0.16-0.22c0.01,0,0.98,0.71,2.5,1.22L138.95,63.92z"/>
				</g>
				<path d="M144.05,64.23c0,0,1.44-0.25,2.42-0.98"/>
				<g>
					<path d="M145.83,63.46c0.19-0.11,0.38-0.22,0.56-0.34c0.14-0.11,0.1-0.33-0.09-0.34c-3.05-0.13-5.43-2.85-6.16-5.6
						c-0.13-0.5-0.34-0.85-0.61-1.09c0.26-0.37,0.43-0.81,0.47-1.28c0.44-1.99-0.91-3.77-0.94-3.77c-0.03,0.97-1.79,1-1.79,1
						s0,0,0.01,0.01c-1.1,0.08-2,0.85-2.28,1.87c-0.06,0.29-0.14,0.92,0.06,1.55c0.08,0.22,0.19,0.43,0.32,0.62
						c-0.5,0.38-0.89,0.88-1.12,1.45c-0.16,0.33-0.25,0.68-0.22,1.04c-0.01,0.49,0.08,1,0.33,1.5c0.53,1.07,1.49,1.97,2.66,2.66v1.8
						c-0.06,0.01-0.13,0.01-0.2,0.03c-0.15,0.05-0.26,0.24-0.26,0.4c0,0.15,0.11,0.2,0.26,0.15c0.33-0.12,0.7-0.12,1.03,0
						c0.15,0.05,0.26,0,0.26-0.15s-0.11-0.34-0.26-0.4c-0.09-0.03-0.18-0.03-0.27-0.05v-1.48c2.2,1.11,4.96,1.5,7.13,0.87
						c0.52,0.45,0.99,1.02,0.99,1.63c0.17,0.17,1.69-0.47,1.69-0.47S147.39,64.2,145.83,63.46z M136.57,54.22
						c-0.28,0-0.5-0.22-0.5-0.5s0.22-0.49,0.5-0.49s0.5,0.21,0.5,0.49C137.06,54,136.84,54.22,136.57,54.22z"/>
					<path d="M134.42,54.23c-1.51,0.04-3.03,0.23-4.77,0.19c1.79,0.36,3.21,0.78,4.86,0.99C134.39,54.97,134.39,54.55,134.42,54.23z
						"/>
				</g>
			</g>
			<g>
				<g>
					<g>
						<path d="M124.65,99.3"/>
					</g>
					<g>
						<path d="M114.2,104.28c-0.08-0.03-0.08,0.06,0,0.25c0.29,0.74,0.41,1.69-0.14,3.28c-0.14,0.4-0.11,0.91,0.43,0.63
							c1.19-0.58,3.56-2.95,4.14-4.14c0.27-0.53-0.24-0.57-0.63-0.43c-1.6,0.55-2.54,0.44-3.29,0.14c-0.19-0.07-0.27-0.07-0.24,0
							C114.52,104.21,114.39,104.34,114.2,104.28z"/>
					</g>
					<g>
						<path d="M111.16,92.02c-0.67-2.93-0.54-4.92-0.41-4.96c2.97-0.96,5.07-0.43,6.15,0.02C114.39,87.84,112.33,89.65,111.16,92.02
							z"/>
					</g>
					<g>
						<path d="M110.77,97.08c0,3.15,1.44,5.93,3.65,7.72c1.1,0.58,0.2-1.14,0.2-1.14h0.01c-0.45-0.91-0.72-1.95-0.72-3.06
							c0-3.51,2.56-6.36,5.72-6.36c1.12,0,2.17,0.37,3.06,1c-0.1-0.21-0.17-0.43-0.24-0.65c-0.48-1.81,0.32-3.58,1.79-3.97
							c0.48-0.13,0.97-0.09,1.42,0.08c-0.27-0.03-0.55-0.01-0.82,0.06c-1.46,0.39-2.26,2.17-1.79,3.97
							c0.13,0.49,0.35,0.93,0.62,1.31c0.62,0.46,2.41,1.61,4.94,1.45c-1.42-0.39-1.92-1.19-1.89-1.21c0.92,0.34,2.31,0.64,2.91,0.62
							c-0.1-5.32-4.28-9.62-9.42-9.62C115,87.28,110.77,91.67,110.77,97.08z M126.31,92.18c0.41,0,0.75,0.34,0.75,0.76
							s-0.33,0.75-0.75,0.75s-0.76-0.34-0.76-0.75C125.56,92.52,125.89,92.18,126.31,92.18z"/>
					</g>
				</g>
			</g>
			<g>
				<g>
					<path d="M108.58,36.59v21.03h10.58C119.16,57.62,113.76,45.87,108.58,36.59z"/>
					<path d="M104.57,58.63l0.01,0.02h15.21l0.52,1.01h-16.52c0,0-0.12-0.38-0.29-1.03H104.57z"/>
				</g>
				<path d="M107.44,42.31c-6.05,2.82-5.04,11.28-4.19,15.24h4.19V42.31z"/>
			</g>
			<path d="M96.83,92.41c0,1.56-1.26,2.82-2.82,2.82c-1.55,0-2.82-1.26-2.82-2.82s1.26-2.82,2.82-2.82
				C95.56,89.6,96.83,90.86,96.83,92.41z"/>
			<path d="M60.79,122.32c0,2.01-1.62,3.62-3.63,3.62c-2,0-3.62-1.62-3.62-3.62s1.62-3.62,3.62-3.62
				C59.17,118.7,60.79,120.31,60.79,122.32z"/>
			<g>
				<g>
					<g>
						<path d="M55.05,52.07c0,1.99,1.28,4.34,3.9,4.37c2.61-0.02,3.89-2.38,3.89-4.37c0-2.81-4.12-6.39-3.89-6.47
							C59.18,45.68,55.05,49.26,55.05,52.07z"/>
					</g>
					<g>
						<path d="M50.74,41.95c0,1.73,1.11,3.77,3.38,3.79c2.27-0.02,3.38-2.06,3.38-3.79c0-2.43-3.57-5.53-3.38-5.61
							C54.31,36.42,50.74,39.52,50.74,41.95z"/>
					</g>
					<g>
						<path d="M60.02,42.24c0,1.46,0.94,3.19,2.85,3.21c1.92-0.02,2.86-1.74,2.86-3.21c0-2.06-3.02-4.68-2.86-4.74
							C63.04,37.56,60.02,40.19,60.02,42.24z"/>
					</g>
				</g>
			</g>
			<g>
				<g>
					<g>
						<g>
							<polygon points="116.58,118.22 119.71,113 120.16,113.27 117.03,118.49 							"/>
						</g>
						<g>
							<path d="M120.68,113.55c-0.43,0.31-1.02,0.21-1.32-0.22c-0.3-0.42-0.21-1.02,0.22-1.32c0.43-0.31,1.01-0.2,1.32,0.22
								C121.2,112.66,121.1,113.25,120.68,113.55z"/>
						</g>
					</g>
					<g>
						<g>
							<polygon points="117.72,119.81 117.62,119.3 123.56,118.02 123.67,118.54 							"/>
						</g>
						<g>
							<path d="M123.46,117.44c-0.43,0.31-0.53,0.89-0.22,1.32c0.3,0.42,0.9,0.52,1.32,0.21c0.42-0.31,0.52-0.89,0.22-1.32
								C124.47,117.23,123.88,117.13,123.46,117.44z"/>
						</g>
					</g>
					<g>
						<g>
							<path d="M115.35,124.4c2.35-1.78,3.46-4.27,2.47-5.64c-0.99-1.38-3.7-1.13-6.14,0.52L115.35,124.4z"/>
						</g>
						<g>
							<g>
								<path d="M108.86,122.38c-0.52,1.08-0.6,2.12-0.08,2.85s1.54,0.99,2.72,0.84L108.86,122.38z"/>
							</g>
							<g>
								<path d="M112.52,125.87c0.62-0.19,1.28-0.46,1.92-0.85l-3.63-5.07c-0.57,0.48-1.04,1.01-1.42,1.54L112.52,125.87z"/>
							</g>
						</g>
					</g>
					<g>
						<path d="M117.14,127.32c-0.28-1.05-0.77-1.92-1.32-2.54c-0.11,0.08-0.22,0.17-0.33,0.25c-1.06,0.76-2.17,1.28-3.21,1.58
							c-0.02,0.62,0.05,1.28,0.24,1.97c0.61,2.25,2.14,3.8,3.42,3.45C117.21,131.68,117.75,129.57,117.14,127.32z"/>
					</g>
					<g>
						<path d="M122.98,126.83c0.66-1.15-0.45-3.02-2.47-4.18c-0.71-0.41-1.43-0.66-2.11-0.79c-0.55,0.99-1.41,1.99-2.52,2.86
							c0.45,0.76,1.23,1.51,2.24,2.09C120.15,127.97,122.33,127.98,122.98,126.83z"/>
					</g>
					<g>
						<path d="M115.07,117.21c0.1-0.68,0.09-1.45-0.06-2.25c-0.45-2.28-1.86-3.94-3.16-3.68c-1.3,0.25-1.99,2.31-1.55,4.61
							c0.22,1.14,0.69,2.12,1.25,2.79C112.74,117.9,113.96,117.41,115.07,117.21z"/>
					</g>
					<g>
						<path d="M111.13,118.96c0.12-0.08,0.23-0.15,0.34-0.23c-0.4-0.73-1.08-1.47-1.98-2.08c-1.93-1.31-4.1-1.47-4.84-0.37
							c-0.74,1.09,0.22,3.04,2.16,4.35c0.59,0.4,1.2,0.68,1.79,0.86C109.22,120.59,110.07,119.72,111.13,118.96z"/>
					</g>
				</g>
			</g>
			<path d="M137.47,96.41c-0.35,1.23-1.63,1.95-2.86,1.6c-1.24-0.35-1.95-1.63-1.6-2.86c0.35-1.24,1.62-1.95,2.87-1.6
				C137.1,93.9,137.82,95.17,137.47,96.41z"/>
			<g>
				<g>
					<g>
						<path d="M107.3,28.46c-0.67,0-1.26,0.43-1.57,1.07c-0.33-0.62-0.92-1.04-1.6-1.03c-1.02,0.01-1.84,0.99-1.82,2.18
							c0.01,0.23,0.04,0.46,0.1,0.67c0.14,0.69,1.18,1.81,2.14,2.71c0.46,0.44,1.24,1.05,1.24,1.05c0.33-0.24,0.77-0.63,1.22-1.08
							c0.93-0.92,1.95-2.07,2.07-2.77c0.05-0.21,0.09-0.43,0.08-0.67C109.16,29.4,108.32,28.44,107.3,28.46z"/>
					</g>
				</g>
			</g>
			<g>
				<path d="M60.78,89.97c-0.91,0-1.79-0.07-2.61-0.19c-0.2,0.89-0.35,1.81-0.35,2.56c0.06,0.7,0.56,0.56,1.24,0.64
					c1.21,0.09,2.02,0.09,3.23,0c0.68-0.09,1.25-0.02,1.24-0.64c0-0.74-0.13-1.65-0.32-2.53C62.44,89.91,61.63,89.97,60.78,89.97z"
					/>
				<path d="M60.67,82.08c-3.26,0-5.9,2.24-5.9,5.01c0,0.58,0.53,1.04,1.36,1.38c1.32,0.41,2.93,0.65,4.65,0.65
					c1.23,0,2.4-0.12,3.45-0.34c1.38-0.34,2.34-0.9,2.34-1.69C66.57,84.32,63.93,82.08,60.67,82.08z M60.88,82.9
					c0.22,0,0.4,0.18,0.4,0.4s-0.18,0.4-0.4,0.4s-0.4-0.18-0.4-0.4C60.48,83.08,60.66,82.9,60.88,82.9z M57.09,87.56
					c-0.4,0-0.73-0.32-0.73-0.72s0.33-0.73,0.73-0.73s0.73,0.32,0.73,0.73C57.82,87.24,57.49,87.56,57.09,87.56z M58.96,85.38
					c-0.4,0-0.73-0.32-0.73-0.72s0.32-0.72,0.73-0.72c0.4,0,0.72,0.32,0.72,0.72C59.68,85.05,59.36,85.38,58.96,85.38z M60.86,87.24
					c-0.4,0-0.72-0.32-0.72-0.73c0-0.4,0.32-0.72,0.72-0.72s0.73,0.32,0.73,0.72C61.59,86.91,61.27,87.24,60.86,87.24z M62.48,85.38
					c-0.4,0-0.73-0.32-0.73-0.72s0.33-0.72,0.73-0.72s0.72,0.32,0.72,0.72C63.21,85.05,62.88,85.38,62.48,85.38z M64.25,87.56
					c-0.4,0-0.73-0.32-0.73-0.72s0.32-0.73,0.73-0.73c0.4,0,0.73,0.32,0.73,0.73C64.98,87.24,64.65,87.56,64.25,87.56z"/>
			</g>
			<g>
				<g>
					<g>
						<path d="M75.27,21.89c-0.02,0-0.03,0-0.05,0c0,0-0.01,0-0.02,0c-0.02,0-0.03,0-0.05,0c-2.15,5.07-2.15,11.28,0,16.35
							c0.02,0,0.03,0,0.05,0c0.01,0,0.01,0,0.02,0c0.02,0,0.03,0,0.05,0C77.42,33.17,77.42,26.95,75.27,21.89z"/>
					</g>
					<g>
						<g>
							<path d="M80.27,26.16c-0.01,0-0.01-0.01-0.02-0.01h-0.01c-0.01,0-0.02-0.01-0.02-0.01c-1.88,1.37-2.9,3.64-2.68,5.95
								c0.01,0,0.02,0.01,0.02,0.01h0.01c0.01,0,0.02,0.01,0.02,0.01C79.47,30.74,80.49,28.48,80.27,26.16z"/>
						</g>
						<g>
							<path d="M70.15,26.16c0,0,0.01-0.01,0.02-0.01c0,0,0,0,0.01,0s0.01-0.01,0.02-0.01c1.88,1.37,2.9,3.64,2.68,5.95
								c-0.01,0-0.02,0.01-0.03,0.01c0,0,0,0-0.01,0s-0.02,0.01-0.02,0.01C70.94,30.74,69.92,28.48,70.15,26.16z"/>
						</g>
						<g>
							<path d="M84.05,28.37c-0.01-0.01-0.03-0.02-0.04-0.03c-0.01,0-0.01-0.01-0.02-0.01c-0.01-0.01-0.03-0.02-0.04-0.04
								c-4.44,1.72-7.5,5.66-8.07,10.39c0.02,0.01,0.03,0.02,0.04,0.03c0.01,0,0.01,0.01,0.02,0.01c0.01,0.01,0.03,0.03,0.04,0.04
								c1.86-0.73,3.49-1.84,4.79-3.24C82.56,33.58,82.12,31.49,84.05,28.37z"/>
						</g>
						<g>
							<path d="M66.36,28.37c0.01-0.01,0.02-0.02,0.04-0.03c0,0,0.01-0.01,0.02-0.01c0.02-0.01,0.03-0.02,0.04-0.04
								c4.43,1.72,7.51,5.66,8.07,10.39c-0.01,0.01-0.03,0.02-0.04,0.03c-0.01,0-0.02,0.01-0.02,0.01
								c-0.01,0.01-0.03,0.03-0.04,0.04c-1.86-0.73-3.49-1.84-4.78-3.24C67.86,33.58,68.3,31.49,66.36,28.37z"/>
						</g>
					</g>
				</g>
			</g>
			<g>
				<g>
					<path d="M31.41,109.64c2.72-0.93,4.4-2.15,4.47-2.2l-0.27-0.38c-0.02,0.01-1.71,1.23-4.35,2.14L31.41,109.64z"/>
				</g>
				<path d="M22.53,110.17c0,0-2.5-0.43-4.22-1.71"/>
				<g>
					<path d="M16.71,111.67c0,0,2.65,1.11,2.94,0.81c0-1.06,0.81-2.05,1.73-2.84c3.76,1.12,8.58,0.43,12.41-1.51v2.58
						c-0.16,0.02-0.32,0.03-0.47,0.08c-0.26,0.1-0.45,0.42-0.45,0.69c0,0.26,0.19,0.35,0.45,0.26c0.58-0.21,1.21-0.21,1.79,0
						c0.26,0.09,0.46,0,0.46-0.26s-0.2-0.59-0.46-0.69c-0.11-0.04-0.23-0.03-0.34-0.05v-3.14c2.03-1.21,3.71-2.78,4.63-4.63
						c0.44-0.89,0.6-1.78,0.58-2.62c0.04-0.63-0.1-1.24-0.38-1.81c-0.4-0.99-1.1-1.86-1.96-2.53c0.24-0.33,0.41-0.69,0.56-1.08
						c0.35-1.1,0.21-2.19,0.11-2.7c-0.5-1.78-2.07-3.12-3.97-3.24c0.01-0.01,0.01-0.02,0.01-0.02s-3.06-0.05-3.11-1.74
						c-0.04,0-2.4,3.1-1.64,6.56c0.07,0.83,0.37,1.58,0.82,2.22c-0.47,0.43-0.84,1.04-1.07,1.91c-1.27,4.78-5.41,9.52-10.73,9.76
						c-0.33,0.02-0.41,0.4-0.16,0.59c0.3,0.22,0.63,0.42,0.97,0.6C16.72,110.12,16.71,111.67,16.71,111.67z M34.7,91.87
						c0-0.48,0.39-0.87,0.87-0.87s0.87,0.38,0.87,0.87c0,0.48-0.39,0.87-0.87,0.87S34.7,92.36,34.7,91.87z"/>
					<path d="M39.31,92.76c2.64,0.06,5.28,0.41,8.32,0.33c-3.12,0.62-5.61,1.35-8.46,1.73C39.37,94.05,39.37,93.32,39.31,92.76z"/>
				</g>
			</g>
			<g>
				<g>
					<path d="M82.89,87.31v17.91h-9.01C73.88,105.22,78.48,95.21,82.89,87.31z"/>
					<path d="M86.31,106.08l-0.01,0.01H73.34l-0.44,0.87h14.07c0,0,0.11-0.33,0.24-0.88H86.31z"/>
				</g>
				<path d="M83.86,92.18c5.15,2.4,4.29,9.6,3.56,12.98h-3.56V92.18z"/>
			</g>
			<g>
				<g>
					<g>
						<path d="M134.51,83.1c-0.37,0.01-0.69,0.24-0.87,0.59c-0.18-0.34-0.51-0.57-0.88-0.57c-0.56,0.01-1.02,0.55-1.01,1.21
							c0,0.13,0.02,0.25,0.05,0.37c0.08,0.38,0.65,1,1.18,1.5c0.26,0.24,0.69,0.58,0.69,0.58c0.18-0.13,0.42-0.35,0.67-0.6
							c0.52-0.51,1.08-1.15,1.15-1.53c0.03-0.12,0.05-0.24,0.05-0.37C135.54,83.63,135.08,83.1,134.51,83.1z"/>
					</g>
				</g>
			</g>
			<path d="M69.84,61.28c0,1.46-1.18,2.63-2.64,2.63s-2.63-1.18-2.63-2.63s1.18-2.64,2.63-2.64C68.66,58.65,69.84,59.83,69.84,61.28
				z"/>
			<path d="M100.29,42.11c0,0.96-0.78,1.73-1.74,1.73s-1.73-0.78-1.73-1.73c0-0.96,0.78-1.73,1.73-1.73
				C99.52,40.38,100.29,41.15,100.29,42.11z"/>
			<g>
				<g>
					<g>
						<path d="M47.69,80.37c-0.74,0.02-1.39,0.48-1.73,1.18c-0.37-0.69-1.02-1.15-1.76-1.13c-1.13,0.02-2.03,1.09-2.01,2.41
							c0,0.26,0.04,0.51,0.11,0.74c0.16,0.76,1.31,2,2.37,2.99c0.51,0.48,1.37,1.16,1.37,1.16c0.37-0.26,0.85-0.7,1.35-1.19
							c1.03-1.02,2.15-2.29,2.29-3.05c0.07-0.23,0.1-0.48,0.09-0.74C49.74,81.42,48.81,80.36,47.69,80.37z"/>
					</g>
				</g>
			</g>
			<g>
				<g>
					<g>
						<path d="M104.4,25.15"/>
					</g>
					<g>
						<path d="M92.65,30.74c-0.09-0.03-0.09,0.06,0,0.27c0.33,0.85,0.46,1.9-0.16,3.69c-0.16,0.45-0.12,1.01,0.48,0.71
							c1.34-0.64,4-3.31,4.65-4.65c0.31-0.6-0.26-0.63-0.7-0.48c-1.8,0.62-2.86,0.49-3.7,0.16c-0.21-0.09-0.3-0.08-0.27,0.01
							C93,30.66,92.87,30.81,92.65,30.74z"/>
					</g>
					<g>
						<path d="M89.23,16.96c-0.75-3.29-0.61-5.54-0.46-5.57c3.34-1.07,5.7-0.49,6.91,0.02C92.87,12.26,90.55,14.29,89.23,16.96z"/>
					</g>
					<g>
						<path d="M88.8,22.65c0,3.54,1.62,6.66,4.1,8.67c1.23,0.64,0.23-1.28,0.23-1.28h0.01c-0.51-1.02-0.81-2.19-0.81-3.44
							c0-3.95,2.88-7.14,6.43-7.14c1.26,0,2.44,0.41,3.43,1.11c-0.11-0.23-0.2-0.48-0.26-0.73c-0.54-2.03,0.36-4.03,2-4.46
							c0.54-0.15,1.09-0.1,1.6,0.09c-0.3-0.03-0.61-0.01-0.92,0.07c-1.65,0.43-2.54,2.43-2.01,4.47c0.15,0.55,0.38,1.04,0.69,1.46
							c0.7,0.53,2.71,1.81,5.55,1.63c-1.59-0.44-2.16-1.34-2.12-1.36c1.04,0.38,2.6,0.72,3.27,0.7
							c-0.11-5.99-4.81-10.81-10.59-10.81C93.54,11.63,88.8,16.57,88.8,22.65z M106.26,17.14c0.47,0,0.85,0.38,0.85,0.85
							s-0.38,0.85-0.85,0.85s-0.85-0.38-0.85-0.85C105.41,17.52,105.79,17.14,106.26,17.14z"/>
					</g>
				</g>
			</g>
			<g>
				<g>
					<g>
						<path d="M37.77,23.82c-1.18,0.02-2.19,0.76-2.74,1.86c-0.58-1.09-1.62-1.81-2.79-1.8c-1.78,0.03-3.21,1.74-3.18,3.82
							c0.01,0.41,0.07,0.8,0.17,1.17c0.26,1.19,2.07,3.16,3.74,4.73c0.81,0.77,2.17,1.84,2.17,1.84c0.58-0.42,1.34-1.11,2.13-1.89
							c1.63-1.62,3.4-3.62,3.62-4.83c0.1-0.37,0.15-0.76,0.14-1.17C41.02,25.47,39.56,23.79,37.77,23.82z"/>
					</g>
				</g>
			</g>
			<g>
				<g>
					<path d="M128.37,44.29c-1.1-0.4-4.97-1.67-6.96-0.63c0,0.03-1.69,0.74,1.63,2.4c0.05,0.04,0.25,0.19,0.74,0.8
						c0.01,0.01,0.9,1.09,2.42,0.14l0.02,0.02c0,0-1.12,3.17,1.88,3.77c0.03,0.02,1.72-0.07,1.72-0.07s1.23-0.23,0.81-1.99
						c0,0.01-0.07-0.8-0.29-1.66C129.5,46.17,128.66,44.8,128.37,44.29z"/>
					<path d="M130.94,36.55c-1.56,1.62-1.43,5.69-1.35,6.86c0.41,0.44,1.48,1.62,2.09,2.68c0.76,0.46,1.53,0.75,1.51,0.75
						c1.57,0.9,2.14-0.22,2.14-0.22s0.57-1.59,0.56-1.63c0.27-3.05-3.09-2.87-3.09-2.87l-0.02-0.02l0,0
						c1.34-1.18,0.56-2.35,0.55-2.37c-0.45-0.64-0.53-0.87-0.55-0.94C132.13,35.13,130.97,36.56,130.94,36.55z"/>
				</g>
				<g>
					<path d="M131.55,46.89c0.05,0.18,0.04,0.36-0.01,0.4l0,0c-0.06,0.04-0.23,0.01-0.39-0.1c-0.76-0.56-2.32-2.65-2.65-3.54
						c-0.05-0.18-0.04-0.36,0.02-0.4l0,0c0.06-0.04,0.23,0,0.39,0.11C129.67,43.92,131.23,46.01,131.55,46.89z"/>
					<path d="M129.08,43.29c0.14,0.19,0.1,0.46-0.09,0.6c-0.19,0.15-0.46,0.1-0.6-0.08c-0.14-0.19-0.11-0.46,0.09-0.61
						C128.67,43.06,128.94,43.1,129.08,43.29z"/>
					<g>
						<path d="M128.33,42.06c-0.05,0.01-0.08,0.07-0.07,0.12l0.36,1.19c0.01,0.03,0.03,0.05,0.05,0.06s0.05,0.02,0.07,0.01
							c0.01,0,0.02-0.01,0.03-0.01c0.03-0.03,0.05-0.08,0.03-0.11l-0.36-1.19C128.44,42.07,128.38,42.04,128.33,42.06z"/>
						<path d="M128.59,41.83c-0.04-0.03-0.11-0.02-0.14,0.03l-0.17,0.23c-0.03,0.04-0.02,0.1,0.02,0.13
							c0.02,0.01,0.05,0.02,0.07,0.02c0.03,0,0.05-0.02,0.07-0.04l0.17-0.23l0,0C128.64,41.92,128.63,41.86,128.59,41.83z"/>
					</g>
					<g>
						<path d="M127.44,42.73c0.02-0.04,0.09-0.05,0.13-0.02l1.04,0.68c0.02,0.01,0.04,0.04,0.04,0.06c0.01,0.02,0,0.05-0.02,0.07
							c-0.01,0.01-0.01,0.02-0.02,0.02c-0.03,0.03-0.08,0.03-0.11,0.01l-1.04-0.68C127.42,42.83,127.41,42.77,127.44,42.73z"/>
						<path d="M127.15,42.91c-0.02-0.05,0.01-0.11,0.06-0.12l0.27-0.1c0.05-0.02,0.11,0.01,0.12,0.06c0.01,0.02,0.01,0.05,0,0.07
							c-0.01,0.03-0.03,0.04-0.06,0.05l-0.27,0.1l0,0C127.22,42.98,127.17,42.96,127.15,42.91z"/>
					</g>
				</g>
			</g>
			<g>
				<g>
					<g>
						<path d="M85.18,113.78c-1.29,0.02-2.41,0.84-3.02,2.05c-0.64-1.19-1.78-1.98-3.06-1.97c-1.96,0.03-3.53,1.91-3.5,4.2
							c0.01,0.45,0.07,0.88,0.19,1.28c0.28,1.32,2.28,3.48,4.12,5.21c0.89,0.84,2.39,2.02,2.39,2.02c0.64-0.46,1.48-1.21,2.34-2.08
							c1.8-1.78,3.74-3.98,3.98-5.3c0.11-0.41,0.17-0.84,0.16-1.29C88.75,115.6,87.14,113.76,85.18,113.78z"/>
					</g>
				</g>
			</g>
			<g>
				<g>
					<g>
						<path d="M42.18,116.21c-1.85,0.03-3.44,1.19-4.31,2.93c-0.91-1.71-2.54-2.83-4.38-2.81c-2.8,0.04-5.04,2.72-5,6
							c0.01,0.65,0.1,1.26,0.27,1.83c0.4,1.88,3.25,4.97,5.88,7.44c1.28,1.2,3.42,2.89,3.42,2.89c0.9-0.66,2.1-1.74,3.35-2.97
							c2.56-2.54,5.34-5.7,5.69-7.59c0.15-0.58,0.24-1.2,0.23-1.84C47.29,118.81,44.98,116.18,42.18,116.21z"/>
					</g>
				</g>
			</g>
			<g>
				<g>
					<g>
						<g>
							<rect x="12.78" y="67.93" transform="matrix(0.8244 -0.5661 0.5661 0.8244 -38.0181 19.9025)" width="0.56" height="6.56"/>
						</g>
						<g>
							<path d="M11.94,67.96c0.11,0.55-0.25,1.09-0.81,1.2c-0.55,0.11-1.09-0.26-1.2-0.81s0.25-1.08,0.81-1.19
								S11.83,67.4,11.94,67.96z"/>
						</g>
					</g>
					<g>
						<g>
							<rect x="13.9" y="70.14" transform="matrix(0.2172 -0.9761 0.9761 0.2172 -55.2973 71.8935)" width="6.56" height="0.56"/>
						</g>
						<g>
							<path d="M17,66.98c0.1,0.56,0.64,0.92,1.19,0.81c0.55-0.11,0.92-0.64,0.81-1.2c-0.11-0.55-0.64-0.91-1.2-0.8
								C17.25,65.9,16.89,66.43,17,66.98z"/>
						</g>
					</g>
					<g>
						<g>
							<path d="M20.18,78.06c-0.69-3.1-2.63-5.3-4.42-4.96c-1.79,0.35-2.77,3.12-2.25,6.26L20.18,78.06z"/>
						</g>
						<g>
							<g>
								<path d="M15.29,83.51c0.82,0.99,1.81,1.54,2.76,1.36c0.95-0.18,1.66-1.06,2.05-2.29L15.29,83.51z"/>
							</g>
							<g>
								<path d="M20.34,81.5c0.1-0.7,0.12-1.46,0.04-2.27l-6.61,1.28c0.22,0.78,0.52,1.48,0.88,2.09L20.34,81.5z"/>
							</g>
						</g>
					</g>
					<g>
						<path d="M23.84,77.62c-1.15-0.19-2.23-0.11-3.09,0.16c0.03,0.15,0.07,0.29,0.1,0.44c0.27,1.38,0.29,2.7,0.1,3.85
							c0.59,0.3,1.28,0.53,2.04,0.65c2.48,0.41,4.68-0.39,4.91-1.8C28.15,79.51,26.32,78.03,23.84,77.62z"/>
					</g>
					<g>
						<path d="M25.99,71.67c-0.83-1.16-3.16-0.92-5.21,0.54c-0.72,0.51-1.29,1.11-1.72,1.72c0.73,0.98,1.32,2.27,1.68,3.75
							c0.94-0.11,2.03-0.52,3.05-1.25C25.84,74.96,26.82,72.83,25.99,71.67z"/>
					</g>
					<g>
						<path d="M13.01,75.1c-0.62-0.41-1.38-0.74-2.23-0.95c-2.44-0.59-4.7,0.05-5.04,1.44s1.37,3,3.82,3.59
							c1.22,0.29,2.39,0.28,3.3,0.02C12.63,77.7,12.7,76.28,13.01,75.1z"/>
					</g>
					<g>
						<path d="M12.95,79.76c-0.03-0.15-0.05-0.3-0.08-0.45c-0.89,0.07-1.92,0.4-2.92,1c-2.15,1.31-3.28,3.36-2.54,4.58
							s3.09,1.15,5.23-0.16c0.66-0.4,1.2-0.87,1.64-1.36C13.69,82.37,13.21,81.13,12.95,79.76z"/>
					</g>
				</g>
			</g>
			<path d="M102.09,121.49c0,1.65-1.34,2.99-3,2.99c-1.65,0-2.99-1.34-2.99-2.99s1.34-3,2.99-3
				C100.75,118.49,102.09,119.84,102.09,121.49z"/>
			<path d="M78.28,142.71c0,1.16-0.94,2.1-2.09,2.1c-1.16,0-2.1-0.94-2.1-2.1c0-1.15,0.94-2.09,2.1-2.09
				C77.34,140.62,78.28,141.56,78.28,142.71z"/>
			<g>
				<g>
					<g>
						<path d="M65.03,15.52c0,2.23,1.81,4.04,4.04,4.04c2.05,0,3.75-1.54,4.01-3.52h0.48c0.21,0.41,0.63,0.69,1.13,0.69
							c0.71,0,1.27-0.57,1.27-1.27c0-0.31-0.11-0.59-0.29-0.81l2.07-4.43l1.1,2.05c-0.99,0.74-1.64,1.92-1.64,3.25
							c0,2.23,1.81,4.04,4.04,4.04c2.22,0,4.04-1.82,4.04-4.04c0-2.23-1.81-4.04-4.04-4.04c-0.52,0-1.03,0.11-1.49,0.29L77.4,7.41
							c0.04-0.08,0.07-0.17,0.07-0.27c0-0.32-0.26-0.59-0.58-0.59h-1.74c-0.32,0-0.58,0.26-0.58,0.59c0,0.32,0.26,0.58,0.58,0.58
							h1.23l0.71,1.33h-5.41c-0.2,0-0.39,0.12-0.47,0.31l-1.07,2.28c-0.34-0.09-0.7-0.15-1.07-0.15
							C66.84,11.48,65.03,13.29,65.03,15.52z M79.37,13.29l1.33,2.48c0.1,0.18,0.28,0.28,0.46,0.28c0.08,0,0.17-0.02,0.25-0.06
							c0.25-0.14,0.35-0.45,0.21-0.71l-1.34-2.49c0.3-0.1,0.61-0.16,0.95-0.16c1.6,0,2.9,1.3,2.9,2.9c0,1.6-1.31,2.9-2.9,2.9
							c-1.6,0-2.91-1.31-2.91-2.9C78.31,14.62,78.72,13.82,79.37,13.29z M71.69,10.76l1.99,3.93c-0.07,0.1-0.13,0.2-0.18,0.31h-0.43
							c-0.16-1.27-0.92-2.35-1.98-2.97L71.69,10.76z M70.61,13.07c0.67,0.42,1.16,1.12,1.31,1.93h-2.21L70.61,13.07z M76.64,10.08
							l-1.92,4.11c-0.02,0-0.03,0-0.05,0c-0.03,0-0.05,0-0.08,0.01l-2.08-4.12H76.64z M66.16,15.52c0-1.6,1.3-2.9,2.9-2.9
							c0.2,0,0.39,0.02,0.58,0.06l-1.22,2.63c-0.08,0.16-0.06,0.35,0.03,0.5c0.1,0.15,0.26,0.24,0.44,0.24h3.03
							c-0.24,1.35-1.43,2.38-2.86,2.38C67.47,18.43,66.16,17.12,66.16,15.52z"/>
					</g>
					<g>
						<path d="M72.85,8.73h-1.74c-0.32,0-0.58-0.26-0.58-0.59c0-0.32,0.26-0.57,0.58-0.57h1.74c0.32,0,0.58,0.26,0.58,0.57
							C73.43,8.47,73.17,8.73,72.85,8.73z"/>
					</g>
				</g>
			</g>
			<g>
				<path d="M120.76,33.92c-1.02,0-2-0.07-2.92-0.2c-0.22,0.99-0.39,2.02-0.39,2.86c0.07,0.79,0.62,0.62,1.38,0.72
					c1.35,0.1,2.25,0.09,3.62,0c0.75-0.11,1.39-0.02,1.38-0.72c0-0.83-0.15-1.84-0.36-2.83C122.61,33.86,121.7,33.92,120.76,33.92z"
					/>
				<path d="M120.64,25.12c-3.64,0-6.58,2.5-6.58,5.59c0,0.65,0.59,1.16,1.51,1.53c1.48,0.46,3.28,0.74,5.19,0.74
					c1.37,0,2.67-0.14,3.85-0.39c1.54-0.38,2.61-1,2.61-1.88C127.22,27.62,124.28,25.12,120.64,25.12z M120.87,26.04
					c0.25,0,0.45,0.2,0.45,0.45c0,0.24-0.2,0.44-0.45,0.44s-0.44-0.2-0.44-0.44C120.42,26.24,120.62,26.04,120.87,26.04z
					 M116.64,31.24c-0.45,0-0.81-0.37-0.81-0.81c0-0.46,0.36-0.81,0.81-0.81s0.81,0.36,0.81,0.81S117.09,31.24,116.64,31.24z
					 M118.72,28.8c-0.45,0-0.81-0.36-0.81-0.81s0.37-0.81,0.81-0.81c0.45,0,0.81,0.37,0.81,0.81
					C119.53,28.44,119.17,28.8,118.72,28.8z M120.86,30.88c-0.45,0-0.81-0.36-0.81-0.81s0.37-0.81,0.81-0.81
					c0.45,0,0.81,0.36,0.81,0.81C121.67,30.51,121.3,30.88,120.86,30.88z M122.66,28.8c-0.45,0-0.81-0.36-0.81-0.81
					s0.37-0.81,0.81-0.81s0.81,0.36,0.81,0.81S123.11,28.8,122.66,28.8z M124.63,31.24c-0.45,0-0.81-0.37-0.81-0.81
					c0-0.46,0.36-0.81,0.81-0.81s0.81,0.36,0.81,0.81S125.08,31.24,124.63,31.24z"/>
			</g>
			<g>
				<path d="M83.69,81.29l-4.19-4.21h1.33c1.16,0,1.46-0.69,0.66-1.54l-3.28-3.48h0.77c1.15,0,1.48-0.71,0.72-1.59l-2.83-3.27
					c-0.76-0.88-2-0.88-2.76,0l-2.83,3.27c-0.76,0.88-0.43,1.59,0.72,1.59h0.76l-3.27,3.48c-0.8,0.85-0.5,1.54,0.66,1.54h1.33
					l-4.19,4.21c-0.82,0.82-0.54,1.49,0.62,1.49h15.14C84.23,82.78,84.51,82.11,83.69,81.29z"/>
				<path d="M74.32,87.98c0,0.65,0.53,1.18,1.18,1.18s1.18-0.53,1.18-1.18v-3.89h-2.36L74.32,87.98L74.32,87.98z"/>
			</g>
			<path d="M88.7,40.27c0,1.46-1.18,2.63-2.64,2.63s-2.64-1.18-2.64-2.63s1.18-2.64,2.64-2.64C87.52,37.64,88.7,38.82,88.7,40.27z"
				/>
			<path d="M54.19,93.43c0,0.91-0.74,1.65-1.65,1.65c-0.91,0-1.65-0.74-1.65-1.65s0.74-1.65,1.65-1.65
				C53.45,91.79,54.19,92.53,54.19,93.43z"/>
			<g>
				<g>
					<path d="M142.5,69.63h-0.08c2.24,3.17-1.21,8.22,1.8,11.07c0.28-0.84-0.08-2.16,0.04-3.09c0.16-1.08,0.36-2.12,0.36-3.17
						c0-1.08,0.08-2.16-0.4-3.17C143.79,70.4,143.26,70.2,142.5,69.63z"/>
					<path d="M142,82.29l-0.05-4.18c0,0-0.11-1.1-0.24-1.69c0,0.05-0.01-1.34-0.01-1.34c0.18-1.87,1.34-4.32-0.24-5.83
						c-1.79-1.63-4.6-1.22-6.8-1.18c-1.35,0.04-2.85,0.37-4.2,0.12c-1.59-0.33-2.97-1.55-4.32-2.44c-1.59-1.02-3.38-1.47-5.17-2.04
						c-1.02-0.33-1.34-1.26-2.16-1.79c-0.52,0.68,0.34,2.03-0.33,2.66c-0.94,1.33-4.42,4.79-1.74,5.86
						c0.69,0.29,0.89,0.08,1.22-0.45s0.37-0.61,1.1-0.73c1.1-0.2,2.04-0.41,2.48-1.47c0.16,1.26,1.02,2.32,1.63,3.42
						c0.61,1.14,0.41,2.08,0.69,3.3c0,0,0.08,1.65,2.89,2.15l0.76,7.45c0,0-0.05,0.87-0.24,1.14l-0.22,0.52c0,0-0.16,0.46,0.35,0.46
						c0.05,0,0.87,0,0.87,0s0.6,0.05,0.46-0.6c0.03,0-0.3-0.68-0.27-1.71c0.03-0.03,0.35-7.14,0.35-7.14l0.29,0.01
						c0.65-0.03,1.38-0.1,2.2-0.22c0,0,2.92-0.05,5.04-1.29c0.06,0.06,0.33,1.5,3.57,3.02l0.41,0.27c0,0.05,0.47,4.13,0.47,4.13
						l0.12,0.64 M119.15,66.78c-0.31,0-0.56-0.25-0.56-0.56s0.25-0.56,0.56-0.56s0.56,0.25,0.56,0.56S119.46,66.78,119.15,66.78z"/>
				</g>
				<path d="M138.01,80.09"/>
				<path d="M139.22,79.47l0.04,3.63l0.13,0.87c0.32,0.65-0.35,0.84-0.35,0.84s-0.84,0.03-0.89,0c-0.54-0.03-0.22-0.68-0.22-0.68
					c0.35-0.54,0.27-1.11,0.27-1.11l-0.16-3.76c-0.06-0.44-0.41-0.61-0.41-0.61l-2.87-2.39l1.3-0.46c1.71,1.99,2.86,2.61,2.86,2.61
					S139.22,78.75,139.22,79.47z"/>
				<path d="M126.14,84.03l-0.21-7.13c-0.6-0.15-1.05-0.37-1.39-0.6l0.54,7.65c0,0,0.08,0.57-0.27,1.11c0,0-0.33,0.65,0.22,0.68
					c0.05,0.03,0.9,0,0.9,0s0.68-0.19,0.35-0.84L126.14,84.03z"/>
				<g>
					<path d="M140.92,83.34c0,0,0.11,0.78-0.08,1.05l-0.22,0.52c0,0-0.16,0.46,0.36,0.46c0.05,0,0.87,0,0.87,0s0.6,0.06,0.46-0.6
						c0.03,0-0.33-0.78-0.34-1.83l0.04-0.65"/>
				</g>
			</g>
			<g>
				<g>
					<path d="M49.32,101.12h0.07c-2,2.82,1.07,7.32-1.61,9.86c-0.25-0.75,0.07-1.93-0.04-2.75c-0.14-0.96-0.32-1.89-0.32-2.82
						c0-0.96-0.07-1.93,0.36-2.82C48.18,101.8,48.64,101.62,49.32,101.12z"/>
					<path d="M50.73,113.32l0.11-0.57c0,0,0.42-3.62,0.42-3.67l0.36-0.24c2.89-1.35,3.12-2.64,3.18-2.69
						c1.89,1.11,4.49,1.15,4.49,1.15c0.73,0.11,1.38,0.17,1.96,0.2h0.26c0,0,0.29,6.33,0.31,6.36c0.03,0.92-0.27,1.52-0.24,1.52
						c-0.12,0.58,0.41,0.53,0.41,0.53s0.72,0,0.77,0c0.46,0,0.31-0.41,0.31-0.41l-0.19-0.46c-0.17-0.24-0.22-1.02-0.22-1.02
						l0.68-6.64c2.5-0.44,2.57-1.91,2.57-1.91c0.25-1.09,0.07-1.92,0.62-2.94c0.54-0.98,1.31-1.92,1.45-3.05
						c0.4,0.94,1.23,1.12,2.21,1.31c0.65,0.11,0.69,0.18,0.98,0.65s0.47,0.65,1.09,0.4c2.38-0.94-0.72-4.03-1.55-5.21
						c-0.6-0.55,0.17-1.76-0.3-2.37c-0.72,0.47-1.01,1.31-1.92,1.6c-1.6,0.51-3.19,0.91-4.61,1.81c-1.2,0.8-2.43,1.88-3.84,2.17
						c-1.2,0.22-2.54-0.07-3.74-0.11c-1.96-0.04-4.46-0.4-6.06,1.05c-1.41,1.34-0.38,3.53-0.22,5.18c0,0-0.01,1.24-0.01,1.2
						c-0.12,0.52-0.22,1.5-0.22,1.5l-0.05,3.72 M69.61,98.08c0-0.28,0.22-0.5,0.5-0.5s0.5,0.22,0.5,0.5s-0.22,0.5-0.5,0.5
						C69.84,98.58,69.61,98.36,69.61,98.08z"/>
				</g>
				<path d="M53.32,110.43"/>
				<path d="M52.24,109.88l-0.04,3.23l-0.12,0.77c-0.29,0.58,0.31,0.75,0.31,0.75s0.75,0.03,0.8,0c0.48-0.02,0.19-0.6,0.19-0.6
					c-0.31-0.48-0.24-0.99-0.24-0.99l0.14-3.35c0.05-0.39,0.37-0.55,0.37-0.55l2.56-2.12l-1.16-0.41c-1.53,1.77-2.55,2.32-2.55,2.32
					S52.24,109.23,52.24,109.88z"/>
				<path d="M63.89,113.94l0.18-6.35c0.54-0.14,0.94-0.33,1.24-0.53l-0.48,6.81c0,0-0.07,0.51,0.24,0.99c0,0,0.29,0.58-0.19,0.61
					c-0.05,0.02-0.8,0-0.8,0s-0.61-0.17-0.31-0.75L63.89,113.94z"/>
				<g>
					<path d="M50.73,113.32c0,0-0.1,0.7,0.07,0.94l0.2,0.46c0,0,0.14,0.41-0.32,0.41c-0.05,0-0.77,0-0.77,0s-0.53,0.05-0.41-0.53
						c-0.02,0,0.29-0.7,0.3-1.62l-0.04-0.58"/>
				</g>
			</g>
			<path d="M17.76,58.37c-0.5,0.75,1.24,2.22,2.05,1.12c0.82-1.14,5.11-7.61,5.11-7.61c-0.62-0.59-1.25-1.17-1.87-1.76
				C23.05,50.11,18.28,57.61,17.76,58.37L17.76,58.37z M27.68,47.92c0,0,0.67,0.56,1.88,1.51c1.2,0.94,2.55-0.64,1.37-1.61
				c-1.2-0.99-3.19-2.71-3.19-2.71C27.72,46.04,27.7,46.98,27.68,47.92L27.68,47.92z M26.05,40.13c1.28,0.01,2.29-0.96,2.25-2.18
				c-0.03-1.19-1.07-2.17-2.31-2.18c-1.25-0.02-2.27,0.93-2.27,2.12C23.73,39.12,24.77,40.12,26.05,40.13L26.05,40.13z M32.48,58.68
				c-0.29-1.3-2.16-6.18-2.16-6.18c-1.07-1.08-2.17-2.17-3.27-3.27c0,0,0.12-5.21,0.14-6.83c0.01-1.59-3.12-2.15-3.12-2.15
				c-1.72,1.05-3.45,2.14-5.17,3.24c0,0-0.35,3.59-0.45,4.96c-0.1,1.37,1.84,2.12,1.99,0c0.14-2.12,0.26-3.66,0.26-3.66
				c0.94-0.6,1.88-1.2,2.82-1.79c-0.05,2.06-0.1,4.14-0.14,6.23c1.54,1.49,3.06,2.96,4.56,4.4c0,0,1.41,3.59,2.33,5.84
				C31.16,61.1,32.76,59.94,32.48,58.68L32.48,58.68z"/>
		</g>
	</g>
</g>
</svg>
