<?xml version="1.0" encoding="utf-8"?>
<!-- Generator: Adobe Illustrator 25.0.0, SVG Export Plug-In . SVG Version: 6.00 Build 0)  -->
<svg version="1.1" id="Layer_1" xmlns="http://www.w3.org/2000/svg" xmlns:xlink="http://www.w3.org/1999/xlink" x="0px" y="0px"
	 viewBox="0 0 374.47 120.52" style="enable-background:new 0 0 374.47 120.52;" xml:space="preserve">
<g>
	<path d="M49.15,2.77c-0.97,0-1.95,0.07-2.94,0.22c-2.57,0.38-3.94,0.79-5.38,1.91c-6.88,5.37-6.09,24.13,0,28.9
		c2.15,1.68,4.8,2.35,7.41,2.35c2.47,0,4.92-0.6,6.87-1.54c6.21-2.96,9.67-12.65,9.41-19.09C64.2,7.79,57.25,2.77,49.15,2.77"/>
	<path d="M42.32,38.96c-13.58,0-26.84,3.75-34.09,11.75C-0.2,60.03-0.44,78.5,7.42,87.53c0.77,0.88,2.22,2.56,3.14,2.56
		c0.14,0,0.26-0.04,0.37-0.13c2.34-11.53,4.37-23.38,7-34.62c7.99,2.92,12.97,8.87,19.4,13.36c6.13-3.25,13.89-4.84,21.83-6.27
		c-1.63,9.37-3.07,18.93-4.6,28.36c-7.43,3.48-15.36,6.44-23.44,9.26v16.35c13.53-3.65,24.8-8.74,35.56-15.54
		c9.61-6.05,21.11-15.09,21.54-29.7c0.22-7.48-2.72-14.14-6.72-18.55C73.47,43.76,57.68,38.96,42.32,38.96 M39.15,61.89
		c-0.91,0-1.89-0.17-2.9-0.54c-6.26-2.26-5.75-16.9,1.34-18.26c0.75-0.15,1.48-0.22,2.19-0.22c1.8,0,3.42,0.43,4.54,1.03
		C51.45,47.71,47.59,61.89,39.15,61.89"/>
	<path d="M123.08,38.95c-7.66,0-14.76,1.81-21.3,5.42C95.26,48.01,92,54.79,92,64.74v53.01h8.12c2.24,0,4.14-0.72,5.75-2.14
		c1.57-1.42,2.4-3.14,2.4-5.11V89.41c1.89,3,4.46,5.2,7.65,6.62c3.02,1.26,6.54,1.91,10.51,1.91c7.51,0,13.63-2.69,18.42-8.09
		c4.78-5.55,7.17-12.78,7.17-21.73c0-8.66-2.39-15.76-7.17-21.29c-2.4-2.55-5.62-4.51-9.69-5.85
		C131.08,39.63,127.05,38.95,123.08,38.95 M122.11,85.39c-4.44,0-7.88-1.51-10.25-4.48c-2.41-2.7-3.59-6.73-3.59-12.13
		c0-5.83,1.1-10.09,3.34-12.79c2.39-2.98,5.75-4.48,10.05-4.48c4.46,0,7.87,1.5,10.28,4.48c2.38,2.97,3.57,7.25,3.57,12.79
		c0,5.1-1.2,9.15-3.57,12.13C129.53,83.88,126.27,85.39,122.11,85.39"/>
	<path d="M193.2,40.22H192h-1.21c-4.3,0-8.48,0.5-12.56,1.51c-4.05,1-7.59,2.55-10.62,4.69c-3.22,2.27-5.7,5.29-7.53,9.03
		c-1.84,3.77-2.76,8.42-2.76,13.96v27.47h16.74V67.7c0-4.26,1.12-7.38,3.36-9.37c2.22-1.98,5.64-2.98,10.28-2.98h5.5V40.22z"/>
	<path d="M222.8,38.9c-1.92,0-3.9,0.12-5.93,0.36c-6.55,0.78-11.88,3.32-16.02,7.56c-2.55,2.56-4.43,5.75-5.63,9.58
		c-1.18,3.84-1.79,7.68-1.79,11.51c0,4.68,0.74,9.18,2.16,13.52c1.42,4.33,3.83,7.77,7.16,10.33c3.2,2.55,7.46,4.36,12.8,5.43
		c2.43,0.48,4.84,0.73,7.25,0.73c2.89,0,5.78-0.35,8.66-1.05c5.87-1.14,10.74-4.05,14.58-8.73c1.76-2.28,3.17-5.04,4.3-8.32
		c1.11-3.24,1.67-7.15,1.67-11.71c0-6.24-1.35-11.71-4.07-16.39c-2.85-5.26-7.32-8.95-13.39-11.08
		C230.93,39.49,227.01,38.9,222.8,38.9 M222.74,85.91c-1.33,0-2.65-0.2-3.96-0.63c-2.4-0.78-4.08-1.74-5.03-2.88
		c-2.38-2.57-3.76-7.05-4.06-13.53c-0.31-6.44,1.2-11.32,4.56-14.58c1.11-0.99,2.86-1.82,5.25-2.45c1.13-0.31,2.26-0.45,3.4-0.45
		c1.26,0,2.52,0.18,3.78,0.55c2.38,0.72,4.5,2.35,6.34,4.9c1.82,2.55,2.74,6.4,2.74,11.5c-0.16,5.68-1.21,9.79-3.11,12.35
		c-1.92,2.56-4.11,4.14-6.57,4.79C224.96,85.76,223.85,85.91,222.74,85.91"/>
	<path d="M281.9,38.96c-9.09,0-16.19,2.62-21.26,7.87c-4.96,5.11-7.43,12.21-7.43,21.29c0,9.52,2.55,16.83,7.64,21.94
		c5.12,5.25,12.2,7.88,21.3,7.88c7.47,0,13.71-1.63,18.64-4.9c4.94-3.11,8.29-7.65,10.03-13.63h-11.93c-1.92,0-3.4,0.37-4.44,1.07
		c-1.04,0.71-1.64,1.29-1.8,1.7c-0.46,0.43-0.91,0.82-1.3,1.17c-0.39,0.36-0.83,0.61-1.32,0.74c-1.9,1.01-4.22,1.5-6.92,1.5
		c-4.16,0-7.28-1.13-9.34-3.41c-2.23-2.11-3.44-5.38-3.57-9.79h41.37c0.15-0.28,0.25-0.76,0.25-1.49v-0.85v-1.5
		c0-9.37-2.56-16.69-7.66-21.92C298.89,41.52,291.48,38.96,281.9,38.96 M270.19,62.8c0.13-3.7,1.35-6.53,3.57-8.52
		c2.23-1.99,5.12-2.97,8.61-2.97c3.83,0,6.78,0.98,8.86,2.97c1.91,1.84,3.02,4.68,3.33,8.52H270.19z"/>
	<path d="M364.63,23.42h-8.13V47.7c-1.91-2.71-4.46-4.91-7.66-6.61c-3.03-1.42-6.53-2.13-10.51-2.13c-7.49,0-13.63,2.77-18.41,8.3
		c-4.63,5.41-6.93,12.58-6.93,21.52c0,9.07,2.3,16.24,6.93,21.49c2.39,2.71,5.57,4.66,9.58,5.85c3.97,1.21,8.03,1.81,12.19,1.81
		c7.65,0,14.74-1.77,21.27-5.33c6.55-3.54,9.81-10.35,9.81-20.44V30.65c0-1.85-0.79-3.51-2.39-5
		C368.77,24.15,366.85,23.42,364.63,23.42 M343.11,85.58c-4.48,0-7.89-1.5-10.28-4.46c-2.4-2.99-3.59-7.3-3.59-13
		c0-5.11,1.18-9.08,3.59-11.92c2.39-2.99,5.64-4.47,9.79-4.47c4.32,0,7.73,1.42,10.29,4.25c2.4,2.97,3.58,7.02,3.58,12.13
		c0,5.7-1.11,10.01-3.34,13C350.76,84.09,347.41,85.58,343.11,85.58"/>
</g>
</svg>
