<?xml version="1.0" encoding="utf-8"?>
<!-- Generator: Adobe Illustrator 25.0.0, SVG Export Plug-In . SVG Version: 6.00 Build 0)  -->
<svg version="1.1" id="Capa_1" xmlns="http://www.w3.org/2000/svg" xmlns:xlink="http://www.w3.org/1999/xlink" x="0px" y="0px"
	 viewBox="0 0 393 197.87" style="enable-background:new 0 0 393 197.87;" xml:space="preserve">
<g>
	<g>
		<path d="M132.52,149.8c-2.96,0-5.77-0.17-8.42-0.52c-2.65-0.35-5.19-0.83-7.61-1.46c-2.43-0.63-4.76-1.36-7.01-2.2
			s-4.44-1.74-6.56-2.72v-21.66h8.06c4.04,3.49,7.79,5.91,11.25,7.27h-0.05c1.95,0.77,3.78,1.33,5.49,1.67
			c1.71,0.35,3.4,0.52,5.07,0.52c0.31,0,0.71-0.02,1.18-0.05c0.47-0.03,1.11-0.11,1.91-0.21c1.19-0.14,2.09-0.4,2.72-0.79
			c0.56-0.24,1.04-0.63,1.44-1.18c0.4-0.54,0.6-1.33,0.6-2.38c0-1.11-0.39-2-1.15-2.64c-0.77-0.65-1.67-1.13-2.72-1.44l0.05,0.05
			c-0.87-0.21-1.75-0.43-2.64-0.65c-0.89-0.23-1.8-0.44-2.75-0.65h0.05c-0.28-0.07-0.58-0.13-0.92-0.18
			c-0.33-0.05-0.6-0.11-0.81-0.18c-0.18-0.07-0.34-0.11-0.5-0.13c-0.16-0.02-0.33-0.06-0.5-0.13c-1.33-0.31-2.68-0.66-4.05-1.05
			c-1.38-0.38-2.54-0.77-3.48-1.15l0.05,0.05c-3.17-1.15-5.89-2.47-8.16-3.97c-2.27-1.5-4.11-3.2-5.54-5.1
			c-1.43-1.9-2.48-4.02-3.16-6.36c-0.68-2.33-1.02-4.9-1.02-7.69c0-3.69,0.83-7.12,2.48-10.28c1.66-3.16,4.09-5.95,7.3-8.4
			c3.03-2.23,6.52-3.94,10.46-5.13c3.94-1.19,8.3-1.78,13.08-1.78c2.3,0,4.65,0.15,7.06,0.45c2.41,0.3,4.79,0.71,7.17,1.25
			c2.37,0.54,4.7,1.19,6.98,1.94c2.29,0.75,4.47,1.59,6.57,2.54v20.98h-8.11c-1.67-1.47-3.26-2.68-4.76-3.64
			c-1.5-0.96-2.98-1.77-4.45-2.43l0.05,0.05c-1.64-0.74-3.26-1.26-4.87-1.6c-1.6-0.33-3.19-0.5-4.76-0.5
			c-1.12,0-2.13,0.08-3.03,0.24c-0.91,0.16-1.86,0.5-2.88,1.02c-0.49,0.21-0.89,0.59-1.2,1.15c-0.32,0.56-0.47,1.2-0.47,1.94
			c0,0.63,0.05,1.14,0.15,1.52c0.11,0.38,0.25,0.68,0.42,0.89l-0.11-0.16c1.01,0.84,2.84,1.59,5.49,2.25
			c0.17,0.07,0.4,0.12,0.68,0.16c0.28,0.04,0.54,0.09,0.79,0.16c0.1,0.04,0.15,0.04,0.13,0c-0.02-0.04,0.01-0.04,0.08,0
			c0.17,0,0.31,0.02,0.42,0.05c0.1,0.03,0.21,0.09,0.31,0.16c1.99,0.49,3.94,0.97,5.86,1.44c1.92,0.47,3.9,1.11,5.96,1.91
			c2.86,1.08,5.36,2.31,7.51,3.69c2.14,1.38,3.92,2.96,5.33,4.73c1.41,1.78,2.47,3.79,3.16,6.02c0.7,2.23,1.05,4.76,1.05,7.58
			c0,7.78-3.21,14.26-9.63,19.46c-3.14,2.44-6.77,4.26-10.88,5.47C142.58,149.2,137.85,149.8,132.52,149.8z"/>
		<path d="M163.9,148.5l25.53-77.89h26.05l25.37,77.89h-26.83l-4.39-14.7h-14.8c-0.87,2.44-1.64,4.89-2.31,7.35
			c-0.66,2.46-1.39,4.91-2.2,7.35H163.9z M204.76,115.54l-2.77-11.4l-3.29,11.4H204.76z"/>
		<path d="M315.96,148.5H285.1l-15.22-23.44v23.44h-26.15V70.61h26.15v21.81c1.19-1.67,2.41-3.44,3.69-5.31
			c1.27-1.86,2.49-3.64,3.64-5.31c0.59-0.84,1.23-1.74,1.91-2.69c0.68-0.96,1.37-1.93,2.07-2.9c0.7-0.98,1.38-1.94,2.04-2.9
			c0.66-0.96,1.29-1.86,1.88-2.7h30.08l-27.15,36.46L315.96,148.5z"/>
	</g>
	<g>
		<g>
			<polygon points="91.97,75.21 33.51,75.15 62.69,125.79 			"/>
			<polygon points="4.26,125.71 62.72,125.76 33.53,75.11 			"/>
		</g>
		<polygon points="135.35,0 117.65,0 126.51,15.33 		"/>
		<polygon points="88.38,55.24 126.81,55.24 107.59,21.96 		"/>
	</g>
	<g>
		<path d="M104.43,164.87h13.52v4.65h-8.41v9.06h6.6v4.65h-6.6v14.17h-5.11V164.87z"/>
		<path d="M136.49,189.69v-24.81h5.11v25.19c0,2.33,0.97,3.16,2.6,3.16c1.63,0,2.6-0.84,2.6-3.16v-25.19h4.93v24.81
			c0,5.21-2.6,8.18-7.62,8.18C139.09,197.87,136.49,194.89,136.49,189.69z"/>
		<path d="M171.62,164.87h6.41l4.97,19.47h0.09v-19.47h4.55v32.53h-5.25l-6.13-23.75h-0.09v23.75h-4.55V164.87z"/>
		<path d="M207.72,164.87h7.81c5.11,0,7.62,2.83,7.62,8.04v16.45c0,5.2-2.51,8.04-7.62,8.04h-7.81V164.87z M215.44,192.75
			c1.63,0,2.6-0.83,2.6-3.16v-16.92c0-2.32-0.97-3.16-2.6-3.16h-2.6v23.23H215.44z"/>
		<path d="M246.71,164.87h6.92l5.3,32.53h-5.11l-0.93-6.46v0.09h-5.81l-0.93,6.37h-4.74L246.71,164.87z M252.28,186.62l-2.27-16.08
			h-0.09l-2.23,16.08H252.28z"/>
		<path d="M277.23,189.87V172.4c0-5.02,2.6-7.99,7.53-7.99c4.93,0,7.53,2.97,7.53,7.99v3.44h-4.83v-3.76c0-2.14-1.02-3.02-2.56-3.02
			c-1.53,0-2.55,0.88-2.55,3.02v18.17c0,2.14,1.02,2.98,2.55,2.98c1.53,0,2.56-0.84,2.56-2.98v-4.97h4.83v4.6c0,5.02-2.6,8-7.53,8
			C279.83,197.87,277.23,194.89,277.23,189.87z"/>
		<path d="M311.62,164.87h5.11v32.53h-5.11V164.87z"/>
		<path d="M336.43,189.69v-17.1c0-5.21,2.74-8.18,7.76-8.18c5.02,0,7.76,2.97,7.76,8.18v17.1c0,5.21-2.74,8.18-7.76,8.18
			C339.17,197.87,336.43,194.89,336.43,189.69z M344.66,157.34h5.58l-4.97,5.34h-3.86L344.66,157.34z M346.84,190.01v-17.75
			c0-2.32-1.02-3.21-2.65-3.21c-1.63,0-2.65,0.88-2.65,3.21v17.75c0,2.32,1.02,3.21,2.65,3.21
			C345.82,193.22,346.84,192.33,346.84,190.01z"/>
		<path d="M371.65,164.87h6.41l4.97,19.47h0.09v-19.47h4.56v32.53h-5.25l-6.13-23.75h-0.09v23.75h-4.55V164.87z"/>
	</g>
</g>
</svg>
