<?xml version="1.0" encoding="utf-8"?>
<!-- Generator: Adobe Illustrator 25.0.0, SVG Export Plug-In . SVG Version: 6.00 Build 0)  -->
<svg version="1.1" id="Layer_1" xmlns="http://www.w3.org/2000/svg" xmlns:xlink="http://www.w3.org/1999/xlink" x="0px" y="0px"
	 viewBox="0 0 623.01 608.08" style="enable-background:new 0 0 623.01 608.08;" xml:space="preserve">
<style type="text/css">
	.st0{fill:none;}
</style>
<g>
	<g>
		<path class="st0" d="M195.91,533.83c-0.8,0-1.84,0.06-3.07,0.19v15.56c0.85,0.09,2.05,0.19,3.07,0.19c7.36,0,7.36-3.17,7.36-7.97
			C203.27,537,203.27,533.83,195.91,533.83z"/>
		<path class="st0" d="M240.15,569.29c-5.34,0-5.59,2.73-5.59,7.95c0,5.08,0.26,7.96,5.59,7.96c5.33,0,5.59-2.87,5.59-7.96
			C245.74,572.16,245.48,569.29,240.15,569.29z"/>
		<polygon class="st0" points="181.45,579.15 187.79,579.15 184.62,571.12 		"/>
		<path class="st0" d="M319.45,533.85c-5.34,0-5.59,2.73-5.59,7.96c0,5.08,0.26,7.96,5.59,7.96c5.33,0,5.59-2.87,5.59-7.96
			C325.04,536.72,324.78,533.85,319.45,533.85z"/>
		<path class="st0" d="M400.34,569.27c-0.8,0-1.85,0.07-3.08,0.19v15.56c0.85,0.09,2.05,0.19,3.08,0.19c7.36,0,7.36-3.17,7.36-7.97
			C407.7,572.44,407.7,569.27,400.34,569.27z"/>
		<path class="st0" d="M411.33,533.83c-0.8,0-1.84,0.06-3.08,0.19v15.56c0.85,0.09,2.05,0.19,3.08,0.19c7.36,0,7.36-3.17,7.36-7.97
			C418.68,537,418.68,533.83,411.33,533.83z"/>
		<path class="st0" d="M141.85,533.85c-5.34,0-5.59,2.73-5.59,7.96c0,5.08,0.26,7.96,5.59,7.96c5.33,0,5.59-2.87,5.59-7.96
			C147.44,536.72,147.18,533.85,141.85,533.85z"/>
		<path class="st0" d="M352.3,569.27c-0.8,0-1.85,0.07-3.07,0.19v15.56c0.85,0.09,2.05,0.19,3.07,0.19c7.36,0,7.36-3.17,7.36-7.97
			C359.66,572.44,359.66,569.27,352.3,569.27z"/>
		<polygon class="st0" points="375.01,579.15 381.35,579.15 378.19,571.12 		"/>
		<polygon class="st0" points="453.09,579.15 459.43,579.15 456.26,571.12 		"/>
		<polygon class="st0" points="262.41,543.72 268.75,543.72 265.58,535.68 		"/>
		<path class="st0" d="M54,533.78c-1.22,0-2.61,0.07-3.89,0.21V541c1.43,0.12,2.53,0.13,3.78,0.13c4.19,0,5.68-0.98,5.68-3.74
			C59.56,535.05,58.67,533.78,54,533.78z"/>
		<polygon class="st0" points="126.21,579.15 132.55,579.15 129.38,571.12 		"/>
		<path class="st0" d="M500.3,533.78c-1.22,0-2.61,0.07-3.89,0.21V541c1.43,0.12,2.53,0.13,3.78,0.13c4.19,0,5.68-0.98,5.68-3.74
			C505.86,535.05,504.98,533.78,500.3,533.78z"/>
		<path class="st0" d="M607.92,533.85c-5.34,0-5.59,2.73-5.59,7.96c0,5.08,0.26,7.96,5.59,7.96c5.33,0,5.59-2.87,5.59-7.96
			C613.51,536.72,613.25,533.85,607.92,533.85z"/>
		<polygon class="st0" points="474.16,543.72 480.5,543.72 477.34,535.68 		"/>
		<path class="st0" d="M487.13,569.23c-1.23,0-2.62,0.07-3.89,0.21v7.19c1.44,0.12,2.57,0.13,3.78,0.13c4.25,0,5.68-0.97,5.68-3.83
			C492.69,570.53,491.81,569.23,487.13,569.23z"/>
		<path class="st0" d="M547.26,533.85c-5.34,0-5.59,2.73-5.59,7.96c0,5.08,0.26,7.96,5.59,7.96c5.33,0,5.59-2.87,5.59-7.96
			C552.85,536.72,552.59,533.85,547.26,533.85z"/>
		<path class="st0" d="M523.13,533.78c-1.22,0-2.61,0.07-3.9,0.21V541c1.43,0.12,2.53,0.13,3.78,0.13c4.19,0,5.68-0.98,5.68-3.74
			C528.69,535.05,527.8,533.78,523.13,533.78z"/>
		<path d="M14.19,539.94c-4.01-1.04-4.72-1.4-4.72-3.57c0-1.8,1.56-2.5,5.58-2.5c1.24,0,2.69,0.11,4.44,0.35
			c0.18,0.02,0.35-0.02,0.49-0.13c0.14-0.11,0.23-0.27,0.25-0.44l0.22-1.83c0.04-0.35-0.2-0.68-0.55-0.73
			c-1.13-0.18-3.39-0.48-5.85-0.48c-3.92,0-8.41,0.7-8.41,6.17c0,4.18,2.86,5.28,6.89,6.38c3.16,0.87,4.55,1.46,4.55,3.49
			c0,2.25-1.33,3.09-4.9,3.09c-1.59,0-3.55-0.14-5.38-0.39c-0.18-0.02-0.35,0.02-0.49,0.13c-0.14,0.11-0.23,0.26-0.25,0.44
			l-0.24,1.86c-0.05,0.35,0.19,0.67,0.54,0.74c1.66,0.3,3.31,0.5,5.93,0.5c3.75,0,8.72-0.67,8.72-6.47
			C21.01,542.3,17.73,540.86,14.19,539.94z"/>
		<path d="M40,530.89c-1.87-0.07-4.16-0.13-5.62-0.13c-3.43,0-8.13,0-8.13,5.23v11.63c0,5.22,4.7,5.22,8.13,5.22
			c1.16,0,3.44-0.01,5.62-0.1c0.35-0.01,0.63-0.3,0.63-0.66v-1.81c0-0.36-0.29-0.66-0.66-0.66h-5.69c-4.06,0-4.21-0.57-4.21-3.27
			v-3.15h9.43c0.36,0,0.66-0.3,0.66-0.66v-1.85c0-0.36-0.3-0.66-0.66-0.66h-9.43v-2.74c0-2.72,0.14-3.29,4.21-3.29h5.69
			c0.37,0,0.66-0.3,0.66-0.66v-1.78C40.64,531.2,40.36,530.9,40,530.89z"/>
		<path d="M63.38,537.39c0-5.98-4.8-6.79-9.5-6.79c-2.38,0-4.94,0.18-7.03,0.5c-0.32,0.05-0.56,0.33-0.56,0.65v20.38
			c0,0.37,0.3,0.66,0.66,0.66h2.5c0.36,0,0.66-0.3,0.66-0.66v-7.93c1.27,0.05,3.02,0.11,4.03,0.11l5.08,8.16
			c0.12,0.19,0.33,0.31,0.56,0.31h2.93c0.24,0,0.46-0.13,0.58-0.34c0.12-0.21,0.11-0.47-0.02-0.67l-5.04-7.83
			C61.69,543.15,63.38,541,63.38,537.39z M59.56,537.39c0,2.76-1.49,3.74-5.68,3.74c-1.25,0-2.35-0.01-3.78-0.13v-7.02
			c1.28-0.13,2.67-0.21,3.89-0.21C58.67,533.78,59.56,535.05,59.56,537.39z"/>
		<path d="M86.6,530.82h-2.55c-0.27,0-0.52,0.17-0.62,0.43l-6.11,16.27l-6.03-16.27c-0.1-0.26-0.34-0.43-0.62-0.43h-2.66
			c-0.22,0-0.42,0.11-0.54,0.29c-0.12,0.18-0.15,0.41-0.07,0.61l7.36,19.31c0.51,1.33,1.34,1.98,2.54,1.98
			c1.57,0,2.18-1.13,2.51-1.98l7.41-19.31c0.08-0.2,0.05-0.43-0.07-0.61C87.02,530.93,86.81,530.82,86.6,530.82z"/>
		<path d="M95.56,530.82h-2.51c-0.36,0-0.66,0.3-0.66,0.66v20.65c0,0.36,0.3,0.66,0.66,0.66h2.51c0.36,0,0.66-0.3,0.66-0.66v-20.65
			C96.22,531.12,95.93,530.82,95.56,530.82z"/>
		<path d="M112.95,533.87c1.34,0,2.78,0.17,3.88,0.32c0.18,0.02,0.35-0.02,0.49-0.13c0.14-0.11,0.23-0.26,0.25-0.44l0.23-1.82
			c0.05-0.35-0.19-0.67-0.53-0.73c-1.14-0.21-2.99-0.46-5.3-0.46c-8.18,0-9.78,4.11-9.78,11.2c0,7.09,1.6,11.2,9.78,11.2
			c1.85,0,3.63-0.16,5.3-0.48c0.34-0.07,0.57-0.38,0.53-0.73l-0.22-1.79c-0.02-0.17-0.11-0.33-0.25-0.44
			c-0.14-0.11-0.31-0.16-0.49-0.13c-1.08,0.15-2.49,0.31-3.89,0.31c-6.23,0-6.88-2.42-6.88-7.94
			C106.08,536.16,106.7,533.87,112.95,533.87z"/>
		<path d="M123.14,530.82c-0.36,0-0.66,0.3-0.66,0.66v20.65c0,0.36,0.29,0.66,0.66,0.66h2.51c0.36,0,0.66-0.3,0.66-0.66v-20.65
			c0-0.36-0.3-0.66-0.66-0.66H123.14z"/>
		<path d="M141.85,530.61c-7.87,0-9.46,4.29-9.46,11.2c0,6.91,1.58,11.2,9.46,11.2c7.87,0,9.45-4.28,9.45-11.2
			C151.3,534.89,149.72,530.61,141.85,530.61z M147.44,541.81c0,5.08-0.26,7.96-5.59,7.96c-5.33,0-5.59-2.87-5.59-7.96
			c0-5.23,0.25-7.96,5.59-7.96C147.18,533.85,147.44,536.72,147.44,541.81z"/>
		<path d="M177,533.99h5.7c0.36,0,0.66-0.3,0.66-0.66v-1.78c0-0.35-0.28-0.65-0.64-0.66c-1.87-0.07-4.16-0.13-5.62-0.13
			c-3.43,0-8.13,0-8.13,5.23v11.63c0,5.22,4.7,5.22,8.13,5.22c1.16,0,3.44-0.01,5.62-0.1c0.35-0.01,0.63-0.3,0.63-0.66v-1.81
			c0-0.36-0.3-0.66-0.66-0.66H177c-4.06,0-4.21-0.57-4.21-3.27v-3.15h9.43c0.36,0,0.66-0.3,0.66-0.66v-1.85
			c0-0.36-0.3-0.66-0.66-0.66h-9.43v-2.74C172.8,534.57,172.94,533.99,177,533.99z"/>
		<path d="M196.59,530.61c-2.37,0-4.92,0.17-7,0.48c-0.32,0.05-0.56,0.33-0.56,0.65v20.12c0,0.33,0.24,0.6,0.56,0.65
			c2.09,0.31,4.64,0.49,7,0.49c8.84,0,10.52-3.94,10.52-11.2C207.1,534.54,205.43,530.61,196.59,530.61z M203.27,541.81
			c0,4.8,0,7.97-7.36,7.97c-1.03,0-2.22-0.1-3.07-0.19v-15.56c1.24-0.13,2.27-0.19,3.07-0.19
			C203.27,533.83,203.27,537,203.27,541.81z"/>
		<path d="M230.81,531.48c0-0.36-0.3-0.66-0.66-0.66h-2.49c-0.36,0-0.66,0.3-0.66,0.66v14.21c0,2.43-0.86,4.05-5.06,4.05
			c-4.2,0-5.06-1.62-5.06-4.05v-14.21c0-0.36-0.3-0.66-0.66-0.66h-2.48c-0.36,0-0.66,0.3-0.66,0.66v13.98
			c0,6.69,4.73,7.55,8.85,7.55c4.13,0,8.86-0.86,8.86-7.55V531.48z"/>
		<path d="M247.49,533.87c1.33,0,2.77,0.17,3.88,0.32c0.18,0.02,0.35-0.02,0.49-0.13c0.14-0.11,0.23-0.26,0.25-0.44l0.23-1.82
			c0.05-0.35-0.19-0.67-0.53-0.73c-1.14-0.21-2.99-0.46-5.3-0.46c-8.18,0-9.78,4.11-9.78,11.2c0,7.09,1.6,11.2,9.78,11.2
			c1.85,0,3.64-0.16,5.3-0.48c0.34-0.07,0.57-0.38,0.53-0.73l-0.22-1.79c-0.02-0.17-0.11-0.33-0.25-0.44
			c-0.14-0.11-0.31-0.16-0.49-0.13c-1.08,0.15-2.49,0.31-3.89,0.31c-6.23,0-6.88-2.42-6.88-7.94
			C240.61,536.16,241.24,533.87,247.49,533.87z"/>
		<path d="M265.67,530.61c-1.2,0-2.07,0.66-2.6,1.96l-7.87,19.31c-0.08,0.2-0.06,0.43,0.06,0.62c0.12,0.18,0.33,0.29,0.55,0.29h2.56
			c0.27,0,0.51-0.17,0.61-0.42l2.18-5.52h8.81l2.18,5.52c0.1,0.25,0.34,0.42,0.61,0.42h2.67c0.22,0,0.42-0.11,0.55-0.29
			c0.12-0.18,0.15-0.41,0.07-0.62l-7.76-19.31C267.64,530.95,266.5,530.61,265.67,530.61z M268.75,543.72h-6.34l3.17-8.04
			L268.75,543.72z"/>
		<path d="M294.88,552.52c0.34-0.07,0.57-0.38,0.53-0.73l-0.22-1.79c-0.02-0.17-0.11-0.33-0.25-0.44c-0.14-0.11-0.31-0.16-0.49-0.13
			c-1.08,0.15-2.49,0.31-3.89,0.31c-6.23,0-6.88-2.42-6.88-7.94c0-5.64,0.62-7.94,6.88-7.94c1.34,0,2.78,0.17,3.88,0.32
			c0.18,0.02,0.35-0.02,0.49-0.13c0.14-0.11,0.23-0.26,0.25-0.44l0.23-1.82c0.04-0.35-0.19-0.67-0.53-0.73
			c-1.14-0.21-2.99-0.46-5.3-0.46c-8.18,0-9.78,4.11-9.78,11.2c0,7.09,1.6,11.2,9.78,11.2C291.43,553,293.21,552.84,294.88,552.52z"
			/>
		<path d="M303.25,530.82h-2.51c-0.36,0-0.66,0.3-0.66,0.66v20.65c0,0.36,0.3,0.66,0.66,0.66h2.51c0.36,0,0.66-0.3,0.66-0.66v-20.65
			C303.91,531.12,303.61,530.82,303.25,530.82z"/>
		<path d="M319.45,530.61c-7.87,0-9.46,4.29-9.46,11.2c0,6.91,1.58,11.2,9.46,11.2c7.87,0,9.45-4.28,9.45-11.2
			C328.9,534.89,327.32,530.61,319.45,530.61z M319.45,549.76c-5.33,0-5.59-2.87-5.59-7.96c0-5.23,0.25-7.96,5.59-7.96
			c5.33,0,5.59,2.87,5.59,7.96C325.04,546.89,324.78,549.76,319.45,549.76z"/>
		<path d="M350.63,530.82c-0.36,0-0.66,0.3-0.66,0.66v15.51l-9.99-14.62c-0.56-0.82-1.39-1.77-2.76-1.77c-1.36,0-2.2,0.87-2.2,2.28
			v19.24c0,0.36,0.3,0.66,0.66,0.66h2.3c0.36,0,0.66-0.3,0.66-0.66V536.6l9.98,14.62c0.6,0.88,1.4,1.78,2.77,1.78
			c1.36,0,2.2-0.87,2.2-2.28v-19.24c0-0.36-0.29-0.66-0.66-0.66H350.63z"/>
		<path d="M377.73,552.79h2.53c0.36,0,0.66-0.3,0.66-0.66v-7.85l7.22-12.47c0.12-0.21,0.12-0.46,0-0.66
			c-0.12-0.2-0.34-0.33-0.57-0.33h-2.61c-0.24,0-0.45,0.13-0.57,0.33l-5.35,9.3l-5.25-9.3c-0.12-0.21-0.34-0.34-0.57-0.34h-2.72
			c-0.24,0-0.45,0.13-0.57,0.33c-0.12,0.2-0.12,0.45,0,0.66l7.16,12.47v7.86C377.07,552.5,377.37,552.79,377.73,552.79z"/>
		<path d="M412,530.61c-2.37,0-4.92,0.17-7,0.48c-0.32,0.05-0.56,0.33-0.56,0.65v20.12c0,0.33,0.24,0.6,0.56,0.65
			c2.09,0.31,4.64,0.49,7,0.49c8.84,0,10.52-3.94,10.52-11.2C422.52,534.54,420.84,530.61,412,530.61z M418.68,541.81
			c0,4.8,0,7.97-7.36,7.97c-1.03,0-2.22-0.1-3.08-0.19v-15.56c1.24-0.13,2.27-0.19,3.08-0.19
			C418.68,533.83,418.68,537,418.68,541.81z"/>
		<path d="M442.29,530.89c-1.87-0.07-4.16-0.13-5.62-0.13c-3.43,0-8.13,0-8.13,5.23v11.63c0,5.22,4.7,5.22,8.13,5.22
			c1.16,0,3.44-0.01,5.62-0.1c0.35-0.01,0.63-0.3,0.63-0.66v-1.81c0-0.36-0.3-0.66-0.66-0.66h-5.7c-4.06,0-4.21-0.57-4.21-3.27
			v-3.15h9.43c0.36,0,0.66-0.3,0.66-0.66v-1.85c0-0.36-0.3-0.66-0.66-0.66h-9.43v-2.74c0-2.72,0.14-3.29,4.21-3.29h5.7
			c0.36,0,0.66-0.3,0.66-0.66v-1.78C442.93,531.2,442.64,530.9,442.29,530.89z"/>
		<path d="M454.34,549.73c-1.59,0-3.55-0.14-5.38-0.39c-0.18-0.02-0.35,0.02-0.49,0.13c-0.14,0.11-0.23,0.26-0.25,0.44l-0.24,1.86
			c-0.05,0.35,0.19,0.67,0.54,0.74c1.66,0.3,3.31,0.5,5.93,0.5c3.75,0,8.72-0.67,8.72-6.47c0-4.23-3.27-5.67-6.81-6.59
			c-4.01-1.04-4.72-1.4-4.72-3.57c0-1.8,1.56-2.5,5.58-2.5c1.24,0,2.69,0.11,4.44,0.35c0.17,0.02,0.35-0.02,0.49-0.13
			c0.14-0.11,0.23-0.27,0.25-0.44l0.22-1.83c0.04-0.35-0.2-0.68-0.55-0.73c-1.13-0.18-3.39-0.48-5.85-0.48
			c-3.92,0-8.41,0.7-8.41,6.17c0,4.18,2.86,5.28,6.89,6.38c3.16,0.87,4.55,1.46,4.55,3.49
			C459.23,548.89,457.91,549.73,454.34,549.73z"/>
		<path d="M470.75,552.37l2.18-5.52h8.81l2.18,5.52c0.1,0.25,0.34,0.42,0.61,0.42h2.67c0.22,0,0.42-0.11,0.55-0.29
			c0.12-0.18,0.15-0.41,0.07-0.62l-7.76-19.31c-0.65-1.63-1.79-1.97-2.62-1.97c-1.2,0-2.07,0.66-2.6,1.96l-7.87,19.31
			c-0.08,0.2-0.06,0.43,0.06,0.62c0.12,0.18,0.33,0.29,0.55,0.29h2.56C470.4,552.79,470.65,552.63,470.75,552.37z M474.16,543.72
			l3.17-8.04l3.17,8.04H474.16z"/>
		<path d="M509.68,537.39c0-5.98-4.8-6.79-9.5-6.79c-2.38,0-4.94,0.18-7.03,0.5c-0.32,0.05-0.56,0.33-0.56,0.65v20.38
			c0,0.37,0.29,0.66,0.66,0.66h2.5c0.36,0,0.66-0.3,0.66-0.66v-7.93c1.27,0.05,3.02,0.11,4.03,0.11l5.08,8.16
			c0.12,0.19,0.33,0.31,0.56,0.31H509c0.24,0,0.46-0.13,0.58-0.34c0.12-0.21,0.11-0.47-0.02-0.67l-5.04-7.83
			C507.99,543.15,509.68,541,509.68,537.39z M505.86,537.39c0,2.76-1.49,3.74-5.68,3.74c-1.25,0-2.35-0.01-3.78-0.13v-7.02
			c1.28-0.13,2.67-0.21,3.89-0.21C504.98,533.78,505.86,535.05,505.86,537.39z"/>
		<path d="M532.51,537.39c0-5.98-4.8-6.79-9.5-6.79c-2.38,0-4.94,0.18-7.03,0.5c-0.32,0.05-0.56,0.33-0.56,0.65v20.38
			c0,0.37,0.3,0.66,0.66,0.66h2.5c0.36,0,0.66-0.3,0.66-0.66v-7.93c1.27,0.05,3.02,0.11,4.03,0.11l5.08,8.16
			c0.12,0.19,0.33,0.31,0.56,0.31h2.93c0.24,0,0.46-0.13,0.58-0.34c0.12-0.21,0.11-0.47-0.02-0.67l-5.04-7.83
			C530.81,543.15,532.51,541,532.51,537.39z M528.69,537.39c0,2.76-1.49,3.74-5.68,3.74c-1.25,0-2.35-0.01-3.78-0.13v-7.02
			c1.28-0.13,2.67-0.21,3.9-0.21C527.8,533.78,528.69,535.05,528.69,537.39z"/>
		<path d="M547.26,530.61c-7.87,0-9.46,4.29-9.46,11.2c0,6.91,1.58,11.2,9.46,11.2c7.87,0,9.45-4.28,9.45-11.2
			C556.71,534.89,555.13,530.61,547.26,530.61z M552.85,541.81c0,5.08-0.26,7.96-5.59,7.96c-5.33,0-5.59-2.87-5.59-7.96
			c0-5.23,0.25-7.96,5.59-7.96C552.59,533.85,552.85,536.72,552.85,541.81z"/>
		<path d="M576.04,549.62h-5.27c-4.07,0-4.22-0.57-4.22-3.27v-14.87c0-0.36-0.3-0.66-0.66-0.66h-2.51c-0.36,0-0.66,0.3-0.66,0.66
			v16.15c0,5.22,4.7,5.22,8.13,5.22c1.6,0,3.37-0.02,5.2-0.08c0.35-0.01,0.64-0.3,0.64-0.66v-1.83
			C576.7,549.91,576.41,549.62,576.04,549.62z"/>
		<path d="M594.21,549.62h-5.27c-4.07,0-4.22-0.57-4.22-3.27v-14.87c0-0.36-0.29-0.66-0.66-0.66h-2.51c-0.36,0-0.66,0.3-0.66,0.66
			v16.15c0,5.22,4.7,5.22,8.13,5.22c1.6,0,3.37-0.02,5.2-0.08c0.36-0.01,0.64-0.3,0.64-0.66v-1.83
			C594.87,549.91,594.58,549.62,594.21,549.62z"/>
		<path d="M607.92,530.61c-7.87,0-9.46,4.29-9.46,11.2c0,6.91,1.58,11.2,9.46,11.2c7.87,0,9.45-4.28,9.45-11.2
			C617.37,534.89,615.79,530.61,607.92,530.61z M613.51,541.81c0,5.08-0.26,7.96-5.59,7.96c-5.33,0-5.59-2.87-5.59-7.96
			c0-5.23,0.25-7.96,5.59-7.96C613.25,533.85,613.51,536.72,613.51,541.81z"/>
		<path d="M132.09,568.01c-0.65-1.62-1.79-1.97-2.62-1.97c-1.2,0-2.07,0.66-2.6,1.96L119,587.32c-0.08,0.21-0.06,0.43,0.06,0.62
			c0.12,0.18,0.33,0.29,0.55,0.29h2.56c0.27,0,0.51-0.17,0.61-0.42l2.18-5.52h8.81l2.18,5.52c0.1,0.25,0.34,0.42,0.61,0.42h2.67
			c0.22,0,0.42-0.11,0.55-0.29c0.12-0.18,0.15-0.41,0.07-0.61L132.09,568.01z M132.55,579.15h-6.34l3.17-8.04L132.55,579.15z"/>
		<path d="M169.59,585.06h-5.27c-4.07,0-4.22-0.57-4.22-3.27v-14.87c0-0.36-0.29-0.66-0.66-0.66h-2.51c-0.37,0-0.66,0.3-0.66,0.66
			v16.15c0,5.22,4.7,5.22,8.13,5.22c1.6,0,3.37-0.02,5.2-0.08c0.35-0.01,0.64-0.3,0.64-0.66v-1.83
			C170.25,585.35,169.95,585.06,169.59,585.06z"/>
		<path d="M187.33,568.01c-0.65-1.62-1.78-1.97-2.62-1.97c-1.2,0-2.07,0.66-2.6,1.96l-7.87,19.31c-0.08,0.21-0.06,0.43,0.06,0.62
			c0.12,0.18,0.33,0.29,0.55,0.29h2.56c0.27,0,0.51-0.17,0.61-0.42l2.18-5.52h8.81l2.18,5.52c0.1,0.25,0.34,0.42,0.61,0.42h2.67
			c0.22,0,0.42-0.11,0.55-0.29c0.12-0.18,0.15-0.41,0.07-0.61L187.33,568.01z M187.79,579.15h-6.34l3.17-8.04L187.79,579.15z"/>
		<path d="M221.7,569.31c1.33,0,2.77,0.17,3.88,0.32c0.18,0.03,0.35-0.02,0.49-0.13c0.14-0.11,0.23-0.26,0.25-0.44l0.23-1.82
			c0.04-0.35-0.19-0.67-0.53-0.73c-1.14-0.21-2.98-0.46-5.3-0.46c-8.18,0-9.78,4.11-9.78,11.2c0,7.09,1.6,11.2,9.78,11.2
			c1.86,0,3.64-0.16,5.3-0.48c0.34-0.07,0.57-0.39,0.53-0.73l-0.22-1.79c-0.02-0.18-0.11-0.34-0.25-0.44
			c-0.14-0.11-0.32-0.16-0.49-0.13c-1.07,0.15-2.48,0.31-3.89,0.31c-6.23,0-6.88-2.42-6.88-7.94
			C214.82,571.6,215.44,569.31,221.7,569.31z"/>
		<path d="M240.15,566.05c-7.87,0-9.46,4.28-9.46,11.2c0,6.91,1.58,11.2,9.46,11.2c7.87,0,9.45-4.28,9.45-11.2
			C249.6,570.33,248.02,566.05,240.15,566.05z M245.74,577.24c0,5.08-0.26,7.96-5.59,7.96c-5.33,0-5.59-2.87-5.59-7.96
			c0-5.23,0.25-7.95,5.59-7.95C245.48,569.29,245.74,572.16,245.74,577.24z"/>
		<path d="M275.94,566.05c-0.71,0-1.72,0.32-2.48,1.83l-6.22,12.43l-6.16-12.45c-0.59-1.2-1.42-1.8-2.46-1.8
			c-0.96,0-2.13,0.38-2.26,2.2l-1.29,19.28c-0.01,0.18,0.05,0.36,0.18,0.5c0.12,0.13,0.3,0.21,0.48,0.21h2.37
			c0.35,0,0.64-0.27,0.66-0.62l0.95-14.81l5.45,11.13c0.32,0.65,0.87,1.5,2.07,1.5c1.18,0,1.74-0.86,2.05-1.5l5.46-11.13l0.93,14.81
			c0.02,0.35,0.31,0.62,0.66,0.62h2.47c0.18,0,0.36-0.08,0.48-0.21c0.13-0.13,0.19-0.31,0.18-0.49l-1.23-19.27
			C278.12,566.83,277.32,566.05,275.94,566.05z"/>
		<path d="M302.49,566.26h-2.49c-0.36,0-0.66,0.3-0.66,0.66v14.21c0,2.43-0.86,4.05-5.06,4.05c-4.19,0-5.05-1.62-5.05-4.05v-14.21
			c0-0.36-0.29-0.66-0.66-0.66h-2.48c-0.36,0-0.66,0.3-0.66,0.66v13.98c0,6.69,4.73,7.55,8.85,7.55c4.13,0,8.86-0.86,8.86-7.55
			v-13.98C303.15,566.55,302.86,566.26,302.49,566.26z"/>
		<path d="M327.67,566.26h-2.3c-0.36,0-0.66,0.3-0.66,0.66v15.51l-9.99-14.62c-0.56-0.82-1.39-1.77-2.76-1.77
			c-1.36,0-2.2,0.87-2.2,2.28v19.24c0,0.36,0.3,0.66,0.66,0.66h2.3c0.36,0,0.66-0.3,0.66-0.66v-15.53l9.98,14.62
			c0.6,0.88,1.4,1.78,2.77,1.78c1.36,0,2.2-0.87,2.2-2.28v-19.24C328.33,566.55,328.03,566.26,327.67,566.26z"/>
		<path d="M338.14,566.26h-2.51c-0.36,0-0.66,0.3-0.66,0.66v20.65c0,0.36,0.3,0.66,0.66,0.66h2.51c0.36,0,0.66-0.3,0.66-0.66v-20.65
			C338.8,566.55,338.5,566.26,338.14,566.26z"/>
		<path d="M352.97,566.05c-2.38,0-4.93,0.17-7,0.48c-0.32,0.05-0.56,0.33-0.56,0.65v20.12c0,0.33,0.24,0.6,0.56,0.65
			c2.08,0.31,4.63,0.49,7,0.49c8.84,0,10.52-3.94,10.52-11.2C363.49,569.98,361.82,566.05,352.97,566.05z M359.66,577.24
			c0,4.8,0,7.97-7.36,7.97c-1.03,0-2.22-0.1-3.07-0.19v-15.56c1.22-0.12,2.28-0.19,3.07-0.19
			C359.66,569.27,359.66,572.44,359.66,577.24z"/>
		<path d="M380.9,568.01c-0.65-1.62-1.79-1.97-2.62-1.97c-1.2,0-2.07,0.66-2.6,1.96l-7.87,19.31c-0.08,0.21-0.06,0.43,0.06,0.62
			c0.12,0.18,0.33,0.29,0.55,0.29h2.56c0.27,0,0.52-0.17,0.61-0.42l2.18-5.52h8.81l2.18,5.52c0.1,0.25,0.34,0.42,0.61,0.42h2.67
			c0.22,0,0.42-0.11,0.55-0.29c0.12-0.18,0.15-0.41,0.07-0.61L380.9,568.01z M381.35,579.15h-6.34l3.17-8.04L381.35,579.15z"/>
		<path d="M401.01,566.05c-2.38,0-4.93,0.17-7,0.48c-0.32,0.05-0.56,0.33-0.56,0.65v20.12c0,0.33,0.24,0.6,0.56,0.65
			c2.08,0.31,4.63,0.49,7,0.49c8.84,0,10.52-3.94,10.52-11.2C411.53,569.98,409.86,566.05,401.01,566.05z M407.7,577.24
			c0,4.8,0,7.97-7.36,7.97c-1.03,0-2.22-0.1-3.08-0.19v-15.56c1.22-0.12,2.28-0.19,3.08-0.19
			C407.7,569.27,407.7,572.44,407.7,577.24z"/>
		<path d="M432.53,566.26h-2.51c-0.36,0-0.66,0.3-0.66,0.66v20.65c0,0.36,0.3,0.66,0.66,0.66h2.51c0.36,0,0.66-0.3,0.66-0.66v-20.65
			C433.19,566.55,432.9,566.26,432.53,566.26z"/>
		<path d="M441.61,584.22h-2.83c-0.36,0-0.66,0.29-0.66,0.66v2.57c0,0.36,0.3,0.66,0.66,0.66h2.83c0.36,0,0.66-0.3,0.66-0.66v-2.57
			C442.27,584.52,441.97,584.22,441.61,584.22z"/>
		<path d="M458.97,568.01c-0.65-1.62-1.78-1.97-2.62-1.97c-1.2,0-2.07,0.66-2.6,1.96l-7.87,19.31c-0.08,0.21-0.06,0.43,0.06,0.62
			c0.12,0.18,0.33,0.29,0.55,0.29h2.56c0.27,0,0.51-0.17,0.61-0.42l2.18-5.52h8.81l2.18,5.52c0.1,0.25,0.34,0.42,0.61,0.42h2.67
			c0.22,0,0.42-0.11,0.55-0.29c0.12-0.18,0.15-0.41,0.07-0.61L458.97,568.01z M459.43,579.15h-6.34l3.17-8.04L459.43,579.15z"/>
		<path d="M473.33,584.22h-2.83c-0.36,0-0.66,0.29-0.66,0.66v2.57c0,0.36,0.3,0.66,0.66,0.66h2.83c0.36,0,0.66-0.3,0.66-0.66v-2.57
			C473.99,584.52,473.7,584.22,473.33,584.22z"/>
		<path d="M487.01,566.05c-2.38,0-4.94,0.18-7.04,0.49c-0.32,0.05-0.56,0.33-0.56,0.65v20.38c0,0.36,0.3,0.66,0.66,0.66h2.51
			c0.36,0,0.66-0.3,0.66-0.66v-7.75c1.24,0.05,3.01,0.11,4.04,0.11c4.57,0,9.23-0.83,9.23-7.01
			C496.51,566.86,491.71,566.05,487.01,566.05z M492.69,572.93c0,2.86-1.43,3.83-5.68,3.83c-1.21,0-2.34-0.01-3.78-0.13v-7.19
			c1.28-0.13,2.67-0.21,3.89-0.21C491.81,569.23,492.69,570.53,492.69,572.93z"/>
		<path d="M503.46,584.22h-2.83c-0.36,0-0.66,0.29-0.66,0.66v2.57c0,0.36,0.3,0.66,0.66,0.66h2.83c0.36,0,0.66-0.3,0.66-0.66v-2.57
			C504.12,584.52,503.82,584.22,503.46,584.22z"/>
		<path d="M321.92,522.3l-3.82,3.82c-0.27,0.27-0.27,0.71,0,0.98l1.64,1.64c0.27,0.27,0.71,0.27,0.98,0l3.82-3.82
			c0.27-0.27,0.27-0.71,0-0.98l-1.64-1.64C322.63,522.03,322.19,522.03,321.92,522.3z"/>
	</g>
	<g>
		<path d="M66.02,416.63c-24.73-6.14-32.73-9.1-32.73-20.69c0-10.76,8.83-15.98,26.98-15.98c5.76,0,11.6,0.61,17.25,1.2
			c5.56,0.58,11.54,1.3,18.28,2.19c1.39,0.19,2.77,0.37,4.16,0.57l1.5,0.21c0.09,0.01,0.37,0.05,0.78,0.05
			c2.41,0,6.65-1.14,8.02-8.76c0.58-3.21-0.16-6.49-1.97-8.77c-1.6-2.02-3.61-2.47-5.88-2.83c-1.03-0.16-2.06-0.32-3.08-0.47
			c-6.6-0.99-12.62-1.79-18.42-2.43c-6.62-0.73-13.69-1.4-20.63-1.4c-33.14,0-51.39,13.07-51.39,36.8
			c0,21.63,11.04,31.08,45.43,38.89c22.64,4.99,28.85,9.19,28.85,19.55c0,12.66-7.81,18.06-26.11,18.06
			c-0.23-0.01-26.8-1.82-31.2-2.99l-0.65-0.08l-0.01,0.06l-0.42-0.07c-1.71-0.27-3.42-0.54-5.14-0.79c-1.03-0.15-2.06-0.3-3.09-0.44
			c-0.55-0.07-1.08-0.14-1.59-0.17c-0.23-0.02-0.46-0.02-0.7-0.03c-1.69,0-2.91,0.37-4.09,1.22c-2.32,1.67-3.83,4.63-4.06,7.9
			c-0.56,8.15,3.8,10.25,5.7,10.77c0.32,0.09,0.55,0.13,0.63,0.15l1.5,0.24c0.67,0.1,2.92,0.47,5.03,0.82l0.52,0.09
			c1.92,0.32,3.62,0.59,3.77,0.62c10.16,1.44,24.3,3.15,34,3.15c43.97,0,50.53-24.48,50.53-39.07
			C107.78,431.34,96.84,424.48,66.02,416.63z"/>
		<path d="M158.94,381.8l69.23-0.03c0.7,0,5.64-1.99,5.64-10.01c0-7.59-4.4-9.98-5.64-9.98h-67.29c-18.85,0-28.08,8.16-28.2,24.94
			v79.88c0,16.54,9.22,24.58,28.2,24.58h67.29c0.7,0,5.64-1.97,5.64-9.94c0-7.53-4.4-9.91-5.64-9.91h-69.23
			c-2,0-3.06-1.64-3.06-4.74V440h56.31c0.7,0,5.64-1.97,5.64-9.94c0-7.53-4.4-9.91-5.64-9.91h-56.31v-33.43
			C155.88,383.5,156.94,381.8,158.94,381.8z"/>
		<g>
			<path class="st0" d="M312.05,381.85h-31.96v89.28h31.96c27.3,0,32.89-18.75,32.89-46.9C344.94,388.6,333.38,381.85,312.05,381.85
				z"/>
			<path d="M312.05,361.78h-54.57v129.41h54.57c46.62,0,55.99-25.62,55.99-66.97C368.03,384.68,358.87,361.78,312.05,361.78z
				 M312.05,471.13h-31.96v-89.28h31.96c21.33,0,32.89,6.75,32.89,42.38C344.94,452.38,339.34,471.13,312.05,471.13z"/>
		</g>
		<g>
			<polygon class="st0" points="435.09,381.93 416.05,441.03 466.78,441.03 448.04,381.93 			"/>
			<path d="M467.51,371.63c-2.33-6.63-6.64-9.85-13.16-9.85h-26.12c-6.53,0-10.84,3.23-13.17,9.88l-40.04,119.53h24.88l9.77-30.32
				h63.41l9.61,30.32h24.87L467.51,371.63z M416.05,441.03l19.04-59.09h12.95l18.73,59.09H416.05z"/>
		</g>
		<path d="M565.74,491.19h45.57c0.7,0,5.65-1.99,5.65-10.01c0-7.59-4.4-9.97-5.65-9.97l-41.65,0.02c-21.85,0-30.99-6.19-30.99-44.56
			c0-34.85,6.78-44.92,30.21-44.92h42.43c0.7,0,5.65-1.99,5.65-10c0-7.58-4.4-9.97-5.65-9.97h-45.57
			c-36.87,0-49.93,16.98-49.93,64.89C515.81,468.52,523.77,491.19,565.74,491.19z"/>
	</g>
	<g>
		<path d="M244.94,191.81c1.28-0.94,2.6-1.84,3.96-2.7c-2.62-19.8-14.05-33.41-30.46-41.35c-12.29,7.83-26.87,12.37-42.5,12.37
			s-30.21-4.54-42.5-12.37c-18.77,9.09-31.03,25.6-31.03,50.3v50.2c0,20.17,36.76,22.36,73.53,22.36c14.11,0,28.22-0.32,40.25-1.86
			v-17.47C216.19,226.13,226.13,205.56,244.94,191.81z"/>
		<path d="M134.65,128.53c11.08,9.64,25.56,15.47,41.4,15.47c34.87,0,63.13-28.26,63.13-63.13c0-6.54-0.99-12.84-2.84-18.77
			c-0.92-2.97-2.06-5.84-3.39-8.6c-3.68-7.63-8.85-14.41-15.13-19.96c-11.14-9.89-25.81-15.89-41.88-15.89
			c-25.06,0-46.71,14.6-56.9,35.76c-1.33,2.76-2.46,5.63-3.39,8.6c-1.84,5.93-2.84,12.24-2.84,18.77
			C112.82,99.86,121.28,116.96,134.65,128.53z"/>
		<path d="M404.57,147.75c-16.4,7.94-27.84,21.56-30.46,41.35c1.36,0.87,2.68,1.77,3.96,2.7c18.81,13.75,28.75,34.32,28.75,59.47
			v17.47c12.03,1.54,26.14,1.86,40.25,1.86c36.76,0,73.53-2.19,73.53-22.36v-50.2c0-24.7-12.26-41.21-31.03-50.3
			c-12.29,7.83-26.88,12.37-42.5,12.37C431.44,160.12,416.86,155.58,404.57,147.75z"/>
		<path d="M384.1,83.6c0.49,11.56,4.09,22.31,9.98,31.44c0,0.03,0.01,0.05,0.01,0.08c3.25,5,7.19,9.52,11.68,13.41
			c11.08,9.64,25.56,15.47,41.4,15.47c34.87,0,63.13-28.26,63.13-63.13c0-6.54-0.99-12.84-2.84-18.77c-0.92-2.97-2.06-5.84-3.39-8.6
			c-3.68-7.63-8.85-14.41-15.13-19.96c-11.14-9.89-25.81-15.89-41.88-15.89c-25.06,0-46.71,14.6-56.9,35.76
			c-1.33,2.76-2.46,5.63-3.39,8.6c-1.84,5.93-2.84,12.24-2.84,18.77c0,0.88,0.02,1.75,0.06,2.62
			C384.03,83.47,384.07,83.54,384.1,83.6z"/>
		<path d="M311.51,206.93c-14.37,0-27.89-3.67-39.69-10.12c-6.25,2.33-11.87,5.28-16.74,8.85c-14.41,10.54-21.72,25.88-21.72,45.61
			v59.21c0,17.79,56.77,17.79,78.15,17.79c21.37,0,78.15,0,78.15-17.79v-59.21c0-19.73-7.31-35.07-21.72-45.61
			c-4.87-3.56-10.49-6.52-16.74-8.85C339.4,203.26,325.87,206.93,311.51,206.93z"/>
		<ellipse transform="matrix(0.9956 -0.094 0.094 0.9956 -10.2692 29.8413)" cx="311.51" cy="123.89" rx="65.88" ry="65.88"/>
	</g>
</g>
</svg>
