<?xml version="1.0" encoding="utf-8"?>
<!-- Generator: Adobe Illustrator 25.0.0, SVG Export Plug-In . SVG Version: 6.00 Build 0)  -->
<svg version="1.1" id="Layer_1" xmlns="http://www.w3.org/2000/svg" xmlns:xlink="http://www.w3.org/1999/xlink" x="0px" y="0px"
	 viewBox="0 0 580.9 281.06" style="enable-background:new 0 0 580.9 281.06;" xml:space="preserve">
<style type="text/css">
	.st0{fill:#898A8D;}
	.st1{fill:#A2D45E;}
	.st2{fill:#00A7E1;}
	.st3{fill:#E6427A;}
	.st4{fill:#FFCD00;}
	.st5{fill:#FFFFFF;}
	.st6{fill:#A074B3;}
</style>
<path class="st0" d="M-885.79,446.56c1.08,0,2.1,0.1,3.05,0.31c0.96,0.21,1.79,0.48,2.5,0.81c0.71,0.33,1.27,0.7,1.69,1.1
	c0.4,0.4,0.6,0.82,0.57,1.19c0,0.34-0.1,0.65-0.27,0.98c-0.18,0.32-0.59,0.48-1.23,0.48c-0.3,0-0.63-0.12-0.97-0.38
	c-0.35-0.26-0.74-0.51-1.19-0.81c-0.44-0.29-0.96-0.57-1.54-0.82c-0.58-0.24-1.25-0.38-1.99-0.38c-0.53,0-1.05,0.06-1.56,0.19
	c-0.51,0.13-0.98,0.32-1.39,0.57c-0.42,0.27-0.75,0.6-0.99,0.98c-0.26,0.4-0.38,0.85-0.38,1.39c0,0.48,0.15,0.98,0.45,1.45
	c0.31,0.46,0.84,0.85,1.59,1.17l4.52,1.82c0.75,0.31,1.46,0.65,2.13,0.98c0.66,0.36,1.24,0.77,1.76,1.26
	c0.51,0.49,0.91,1.04,1.21,1.68c0.29,0.63,0.44,1.39,0.44,2.25c0,0.96-0.21,1.85-0.63,2.64c-0.42,0.79-0.99,1.45-1.71,2.02
	c-0.71,0.55-1.58,0.97-2.57,1.29c-1,0.31-2.07,0.46-3.25,0.46c-1.22,0-2.31-0.15-3.28-0.46c-0.97-0.32-1.81-0.68-2.51-1.11
	c-0.71-0.41-1.25-0.88-1.63-1.37c-0.38-0.49-0.55-0.9-0.55-1.27c0-0.11,0.03-0.24,0.12-0.4c0.08-0.17,0.19-0.34,0.31-0.49
	c0.12-0.15,0.26-0.29,0.44-0.39c0.16-0.11,0.35-0.17,0.53-0.17c0.37,0,0.73,0.17,1.11,0.5c0.37,0.34,0.81,0.7,1.31,1.07
	c0.5,0.4,1.09,0.76,1.79,1.09c0.69,0.32,1.51,0.49,2.49,0.49c1.44,0,2.6-0.36,3.47-1.1c0.87-0.74,1.31-1.63,1.31-2.68
	c0-0.5-0.08-0.93-0.25-1.27c-0.17-0.35-0.4-0.65-0.68-0.91c-0.3-0.27-0.61-0.5-0.98-0.7c-0.36-0.18-0.75-0.37-1.17-0.54l-5.15-2.12
	c-1.13-0.46-2.06-1.07-2.79-1.81c-0.72-0.73-1.08-1.79-1.08-3.18c0-0.9,0.2-1.73,0.6-2.45c0.4-0.73,0.93-1.34,1.6-1.83
	c0.67-0.51,1.42-0.89,2.24-1.15C-887.45,446.69-886.62,446.56-885.79,446.56"/>
<path class="st0" d="M-873.91,441.12c0-0.56,0.21-1.05,0.61-1.45c0.4-0.4,0.88-0.6,1.43-0.6c0.56,0,1.04,0.21,1.43,0.6
	c0.41,0.4,0.61,0.88,0.61,1.45c0,0.54-0.2,1.02-0.61,1.42c-0.39,0.41-0.88,0.6-1.43,0.6c-0.55,0-1.04-0.19-1.43-0.6
	C-873.69,442.14-873.91,441.66-873.91,441.12 M-870.37,467.25c0,1.28-0.49,1.93-1.5,1.93c-1,0-1.5-0.65-1.5-1.93v-18.79
	c0-1.27,0.5-1.91,1.5-1.91c1,0,1.5,0.64,1.5,1.91V467.25z"/>
<path class="st0" d="M-862.76,459.19c0.03,0.97,0.21,1.9,0.54,2.8c0.33,0.9,0.78,1.71,1.35,2.4c0.57,0.69,1.25,1.25,2.04,1.67
	c0.79,0.41,1.66,0.61,2.63,0.61c1.19,0,2.18-0.18,2.96-0.54c0.77-0.36,1.43-0.74,1.97-1.17c0.54-0.4,1.01-0.79,1.38-1.15
	c0.38-0.36,0.73-0.54,1.1-0.54c0.41,0,0.75,0.1,1.01,0.29c0.27,0.18,0.39,0.58,0.39,1.17c0,0.32-0.21,0.75-0.62,1.24
	c-0.41,0.5-1,0.99-1.75,1.47c-0.74,0.49-1.65,0.9-2.72,1.23c-1.07,0.33-2.23,0.5-3.52,0.5c-1.77,0-3.29-0.34-4.55-0.98
	c-1.26-0.65-2.3-1.51-3.11-2.58c-0.82-1.07-1.42-2.27-1.79-3.64c-0.39-1.35-0.57-2.73-0.57-4.11c0-1.4,0.2-2.76,0.6-4.12
	c0.4-1.35,1-2.57,1.81-3.63c0.8-1.08,1.8-1.93,3-2.58c1.19-0.67,2.55-0.98,4.11-0.98c1.55,0,2.91,0.29,4.1,0.92
	c1.17,0.61,2.16,1.41,2.94,2.4c0.8,1,1.39,2.16,1.8,3.46c0.39,1.3,0.6,2.64,0.6,4.02c0,0.21-0.02,0.41-0.07,0.63
	c-0.04,0.21-0.14,0.42-0.28,0.6c-0.16,0.18-0.37,0.33-0.63,0.43c-0.26,0.12-0.62,0.17-1.06,0.17H-862.76z M-850.29,456.7
	c-0.02-0.91-0.17-1.83-0.46-2.73c-0.28-0.93-0.67-1.74-1.2-2.48c-0.53-0.74-1.18-1.32-1.94-1.78c-0.76-0.44-1.64-0.66-2.65-0.66
	c-0.98,0-1.87,0.22-2.65,0.66c-0.77,0.46-1.41,1.04-1.93,1.78c-0.51,0.73-0.91,1.55-1.18,2.48c-0.27,0.9-0.43,1.82-0.46,2.73
	H-850.29z"/>
<path class="st0" d="M-840.31,467.25c0,1.28-0.5,1.93-1.5,1.93c-1,0-1.5-0.65-1.5-1.93v-18.79c0-1.27,0.5-1.91,1.5-1.91
	c1,0,1.5,0.64,1.5,1.91v1.09h0.09c0.55-0.81,1.3-1.51,2.25-2.1c0.94-0.6,2.11-0.9,3.53-0.9c0.97,0,1.94,0.17,2.9,0.49
	c0.94,0.33,1.8,0.83,2.55,1.49c0.74,0.64,1.35,1.45,1.81,2.44c0.46,0.99,0.69,2.15,0.69,3.48v12.79c0,1.28-0.51,1.93-1.51,1.93
	c-0.99,0-1.49-0.65-1.49-1.93v-12.88c0-1.54-0.48-2.78-1.46-3.7c-0.96-0.9-2.29-1.38-3.95-1.38c-0.68,0-1.36,0.12-2.01,0.38
	c-0.65,0.26-1.23,0.62-1.72,1.1c-0.5,0.48-0.9,1.09-1.21,1.81c-0.32,0.72-0.46,1.56-0.46,2.49V467.25z"/>
<path class="st0" d="M-817.27,467.25c0,1.28-0.51,1.93-1.49,1.93c-1.01,0-1.5-0.65-1.5-1.93V449.3h-1.95
	c-0.51,0-0.84-0.15-1.02-0.44c-0.18-0.28-0.27-0.56-0.27-0.8c0-0.25,0.1-0.51,0.27-0.81c0.18-0.29,0.51-0.43,1.02-0.43h1.95v-4.86
	c0-1.32,0.5-1.96,1.5-1.96c0.98,0,1.49,0.64,1.49,1.96v4.86h1.95c0.5,0,0.83,0.15,1.02,0.43c0.18,0.3,0.26,0.56,0.26,0.81
	c0,0.24-0.08,0.52-0.26,0.8c-0.19,0.29-0.52,0.44-1.02,0.44h-1.95V467.25z"/>
<path class="st0" d="M-808.92,459.19c0.02,0.97,0.21,1.9,0.54,2.8c0.33,0.9,0.79,1.71,1.35,2.4c0.57,0.69,1.24,1.25,2.04,1.67
	c0.79,0.41,1.67,0.61,2.64,0.61c1.19,0,2.18-0.18,2.94-0.54c0.78-0.36,1.45-0.74,1.98-1.17c0.54-0.4,0.99-0.79,1.37-1.15
	c0.38-0.36,0.74-0.54,1.11-0.54c0.41,0,0.75,0.1,1.01,0.29c0.27,0.18,0.39,0.58,0.39,1.17c0,0.32-0.2,0.75-0.61,1.24
	c-0.43,0.5-1,0.99-1.75,1.47c-0.74,0.49-1.65,0.9-2.72,1.23c-1.07,0.33-2.24,0.5-3.52,0.5c-1.77,0-3.29-0.34-4.55-0.98
	c-1.26-0.65-2.3-1.51-3.12-2.58c-0.82-1.07-1.42-2.27-1.79-3.64c-0.37-1.35-0.57-2.73-0.57-4.11c0-1.4,0.2-2.76,0.6-4.12
	c0.4-1.35,1.01-2.57,1.81-3.63c0.8-1.08,1.8-1.93,3-2.58c1.19-0.67,2.56-0.98,4.12-0.98c1.55,0,2.9,0.29,4.09,0.92
	c1.18,0.61,2.17,1.41,2.95,2.4c0.79,1,1.4,2.16,1.79,3.46c0.4,1.3,0.6,2.64,0.6,4.02c0,0.21-0.03,0.41-0.06,0.63
	c-0.04,0.21-0.15,0.42-0.3,0.6c-0.16,0.18-0.35,0.33-0.62,0.43c-0.26,0.12-0.62,0.17-1.06,0.17H-808.92z M-796.44,456.7
	c-0.03-0.91-0.19-1.83-0.46-2.73c-0.28-0.93-0.68-1.74-1.21-2.48c-0.53-0.74-1.17-1.32-1.94-1.78c-0.76-0.44-1.64-0.66-2.64-0.66
	c-0.99,0-1.88,0.22-2.66,0.66c-0.78,0.46-1.43,1.04-1.94,1.78c-0.51,0.73-0.91,1.55-1.18,2.48c-0.28,0.9-0.43,1.82-0.46,2.73
	H-796.44z"/>
<path class="st0" d="M-789.14,467.25c0-0.52,0.19-0.97,0.57-1.35c0.38-0.37,0.82-0.55,1.35-0.55c0.53,0,0.98,0.19,1.35,0.55
	c0.38,0.38,0.56,0.83,0.56,1.35c0,0.53-0.18,0.98-0.56,1.35c-0.37,0.38-0.82,0.57-1.35,0.57c-0.53,0-0.98-0.2-1.35-0.57
	C-788.95,468.24-789.14,467.78-789.14,467.25"/>
<path class="st0" d="M-770.05,441.12c0-0.56,0.2-1.05,0.61-1.45c0.4-0.4,0.88-0.6,1.43-0.6c0.56,0,1.04,0.21,1.43,0.6
	c0.4,0.4,0.61,0.88,0.61,1.45c0,0.54-0.21,1.02-0.61,1.42c-0.4,0.41-0.87,0.6-1.43,0.6c-0.55,0-1.03-0.19-1.43-0.6
	C-769.85,442.14-770.05,441.66-770.05,441.12 M-766.51,467.25c0,1.28-0.5,1.93-1.5,1.93c-1,0-1.5-0.65-1.5-1.93v-18.79
	c0-1.27,0.5-1.91,1.5-1.91c1,0,1.5,0.64,1.5,1.91V467.25z"/>
<path class="st0" d="M-744.98,467.25c0,1.28-0.5,1.93-1.49,1.93c-1,0-1.5-0.65-1.5-1.93v-12.18c0-1.22-0.15-2.2-0.46-2.94
	c-0.3-0.75-0.69-1.35-1.16-1.76c-0.48-0.41-1.01-0.7-1.6-0.85c-0.6-0.15-1.18-0.24-1.76-0.24c-0.61,0-1.22,0.12-1.82,0.38
	c-0.59,0.26-1.13,0.62-1.62,1.1c-0.48,0.48-0.88,1.09-1.18,1.81c-0.31,0.72-0.46,1.56-0.46,2.49v12.18c0,1.28-0.5,1.93-1.5,1.93
	s-1.5-0.65-1.5-1.93v-18.79c0-1.27,0.5-1.91,1.5-1.91s1.5,0.64,1.5,1.91v1.09h0.08c0.55-0.81,1.31-1.51,2.24-2.1
	c0.95-0.6,2.12-0.9,3.53-0.9c1.31,0,2.48,0.34,3.52,1.01c1.04,0.68,1.82,1.63,2.31,2.86c0.74-1.29,1.72-2.24,2.91-2.89
	c1.18-0.67,2.39-0.98,3.57-0.98c0.98,0,1.93,0.17,2.89,0.49c0.96,0.33,1.82,0.83,2.57,1.49c0.74,0.64,1.34,1.45,1.8,2.44
	c0.46,0.99,0.68,2.15,0.68,3.48v12.79c0,1.28-0.49,1.93-1.49,1.93c-0.99,0-1.5-0.65-1.5-1.93v-12.18c0-1.22-0.15-2.2-0.47-2.94
	c-0.3-0.75-0.68-1.35-1.15-1.76c-0.47-0.41-1.01-0.7-1.6-0.85c-0.6-0.15-1.18-0.24-1.76-0.24c-0.61,0-1.22,0.12-1.81,0.38
	c-0.61,0.26-1.14,0.62-1.63,1.1c-0.49,0.48-0.88,1.09-1.18,1.81c-0.3,0.72-0.46,1.56-0.46,2.49V467.25z"/>
<path class="st0" d="M-711.8,448.47c0-1.27,0.49-1.91,1.49-1.91s1.5,0.64,1.5,1.91v18.79c0,1.28-0.5,1.93-1.5,1.93
	s-1.49-0.65-1.49-1.93v-1.37h-0.12c-0.66,1.09-1.52,1.9-2.57,2.45c-1.06,0.56-2.23,0.84-3.54,0.84c-1.58,0-2.97-0.29-4.15-0.89
	c-1.2-0.6-2.19-1.43-2.98-2.44c-0.79-1.03-1.39-2.22-1.78-3.6c-0.41-1.37-0.61-2.84-0.61-4.38c0-1.4,0.2-2.76,0.58-4.12
	c0.39-1.35,0.97-2.57,1.75-3.63c0.77-1.08,1.75-1.93,2.93-2.58c1.18-0.67,2.56-0.98,4.17-0.98c1.3,0,2.45,0.26,3.44,0.81
	c0.98,0.54,1.9,1.36,2.76,2.48h0.12V448.47z M-724.31,457.87c0,1,0.11,2.02,0.33,3.07c0.22,1.05,0.57,2,1.06,2.85
	c0.49,0.84,1.13,1.54,1.93,2.08c0.8,0.54,1.79,0.8,2.95,0.8c1.16,0,2.14-0.26,2.93-0.8c0.79-0.54,1.44-1.24,1.93-2.08
	c0.5-0.85,0.85-1.8,1.06-2.85c0.21-1.05,0.32-2.07,0.32-3.07c0-1-0.1-2.02-0.32-3.07c-0.21-1.06-0.56-2.02-1.06-2.85
	c-0.49-0.85-1.14-1.54-1.93-2.09c-0.79-0.54-1.77-0.81-2.93-0.81c-1.14,0-2.09,0.27-2.89,0.81c-0.79,0.54-1.43,1.24-1.93,2.09
	c-0.5,0.83-0.87,1.79-1.1,2.85C-724.2,455.85-724.31,456.87-724.31,457.87"/>
<path class="st0" d="M-688.69,448.47c0-1.27,0.5-1.91,1.5-1.91c1,0,1.5,0.64,1.5,1.91v19.42c0,1.7-0.27,3.21-0.83,4.48
	c-0.56,1.25-1.29,2.3-2.18,3.1c-0.9,0.82-1.93,1.43-3.08,1.84c-1.14,0.4-2.34,0.6-3.55,0.6c-1.11,0-2.17-0.14-3.18-0.41
	c-1.01-0.28-1.9-0.62-2.7-1.02c-0.79-0.4-1.42-0.84-1.9-1.29c-0.47-0.46-0.7-0.88-0.7-1.26c0-0.46,0.11-0.82,0.35-1.11
	c0.23-0.29,0.61-0.43,1.14-0.43c0.3,0,0.65,0.14,1.06,0.43c0.39,0.29,0.87,0.6,1.41,0.96c0.55,0.34,1.16,0.66,1.86,0.96
	c0.68,0.29,1.48,0.44,2.36,0.44c0.9,0,1.76-0.13,2.58-0.4c0.83-0.27,1.57-0.67,2.23-1.24c0.65-0.57,1.17-1.29,1.56-2.18
	c0.39-0.89,0.58-1.96,0.58-3.2v-2.34h-0.08c-0.64,1.14-1.5,1.98-2.57,2.54c-1.06,0.56-2.26,0.84-3.59,0.84
	c-1.57,0-2.96-0.29-4.16-0.89c-1.19-0.6-2.17-1.43-2.96-2.44c-0.8-1.03-1.39-2.22-1.8-3.6c-0.4-1.37-0.6-2.84-0.6-4.38
	c0-1.4,0.2-2.76,0.58-4.12c0.39-1.35,0.98-2.57,1.76-3.63c0.77-1.08,1.74-1.93,2.93-2.58c1.18-0.67,2.57-0.98,4.18-0.98
	c1.33,0,2.54,0.31,3.63,0.96c1.1,0.62,1.97,1.39,2.6,2.27h0.08V448.47z M-701.19,457.87c0,1,0.1,2.02,0.32,3.07
	c0.23,1.05,0.58,2,1.07,2.85c0.49,0.84,1.13,1.54,1.93,2.08c0.81,0.54,1.79,0.8,2.95,0.8c1.01,0,1.9-0.2,2.68-0.6
	c0.79-0.41,1.45-0.93,1.98-1.58c0.53-0.66,0.93-1.38,1.2-2.16c0.28-0.79,0.42-1.57,0.42-2.36v-4.23c0-0.77-0.15-1.56-0.42-2.35
	c-0.27-0.79-0.67-1.51-1.2-2.16c-0.53-0.65-1.18-1.18-1.98-1.58c-0.79-0.4-1.68-0.6-2.68-0.6c-1.16,0-2.14,0.27-2.95,0.81
	c-0.8,0.54-1.44,1.24-1.93,2.09c-0.49,0.83-0.84,1.79-1.07,2.85C-701.09,455.85-701.19,456.87-701.19,457.87"/>
<path class="st0" d="M-680.75,441.12c0-0.56,0.2-1.05,0.6-1.45c0.4-0.4,0.88-0.6,1.44-0.6c0.56,0,1.03,0.21,1.44,0.6
	c0.4,0.4,0.6,0.88,0.6,1.45c0,0.54-0.2,1.02-0.6,1.42c-0.41,0.41-0.87,0.6-1.44,0.6c-0.55,0-1.03-0.19-1.44-0.6
	C-680.55,442.14-680.75,441.66-680.75,441.12 M-677.21,467.25c0,1.28-0.5,1.93-1.5,1.93c-1.01,0-1.5-0.65-1.5-1.93v-18.79
	c0-1.27,0.49-1.91,1.5-1.91c1,0,1.5,0.64,1.5,1.91V467.25z"/>
<path class="st0" d="M-668.73,467.25c0,1.28-0.5,1.93-1.5,1.93c-1,0-1.5-0.65-1.5-1.93v-18.79c0-1.27,0.5-1.91,1.5-1.91
	c1,0,1.5,0.64,1.5,1.91v1.09h0.09c0.55-0.81,1.29-1.51,2.24-2.1c0.93-0.6,2.12-0.9,3.53-0.9c0.97,0,1.94,0.17,2.89,0.49
	c0.95,0.33,1.81,0.83,2.56,1.49c0.74,0.64,1.34,1.45,1.8,2.44c0.46,0.99,0.69,2.15,0.69,3.48v12.79c0,1.28-0.5,1.93-1.5,1.93
	c-0.99,0-1.5-0.65-1.5-1.93v-12.88c0-1.54-0.49-2.78-1.46-3.7c-0.97-0.9-2.29-1.38-3.95-1.38c-0.69,0-1.35,0.12-2.01,0.38
	c-0.65,0.26-1.23,0.62-1.73,1.1c-0.5,0.48-0.9,1.09-1.2,1.81c-0.31,0.72-0.46,1.56-0.46,2.49V467.25z"/>
<path class="st0" d="M-634.8,448.47c0-1.27,0.49-1.91,1.48-1.91c1,0,1.5,0.64,1.5,1.91v18.79c0,1.28-0.5,1.93-1.5,1.93
	c-0.99,0-1.48-0.65-1.48-1.93v-1.37h-0.13c-0.66,1.09-1.52,1.9-2.58,2.45s-2.23,0.84-3.53,0.84c-1.58,0-2.96-0.29-4.15-0.89
	c-1.2-0.6-2.18-1.43-2.98-2.44c-0.79-1.03-1.39-2.22-1.79-3.6c-0.4-1.37-0.59-2.84-0.59-4.38c0-1.4,0.19-2.76,0.58-4.12
	c0.39-1.35,0.96-2.57,1.75-3.63c0.78-1.08,1.75-1.93,2.94-2.58c1.18-0.67,2.57-0.98,4.17-0.98c1.3,0,2.44,0.26,3.43,0.81
	c0.98,0.54,1.91,1.36,2.76,2.48h0.13V448.47z M-647.32,457.87c0,1,0.11,2.02,0.34,3.07c0.22,1.05,0.57,2,1.05,2.85
	c0.48,0.84,1.13,1.54,1.93,2.08c0.8,0.54,1.78,0.8,2.95,0.8c1.16,0,2.14-0.26,2.93-0.8c0.79-0.54,1.44-1.24,1.93-2.08
	c0.5-0.85,0.85-1.8,1.07-2.85c0.21-1.05,0.32-2.07,0.32-3.07c0-1-0.11-2.02-0.32-3.07c-0.21-1.06-0.56-2.02-1.07-2.85
	c-0.49-0.85-1.15-1.54-1.93-2.09c-0.78-0.54-1.76-0.81-2.93-0.81c-1.14,0-2.1,0.27-2.89,0.81c-0.79,0.54-1.43,1.24-1.93,2.09
	c-0.5,0.83-0.86,1.79-1.09,2.85C-647.2,455.85-647.32,456.87-647.32,457.87"/>
<path class="st0" d="M-626,467.25c0-0.52,0.19-0.97,0.56-1.35c0.38-0.37,0.83-0.55,1.35-0.55c0.54,0,0.98,0.19,1.35,0.55
	c0.38,0.38,0.57,0.83,0.57,1.35c0,0.53-0.18,0.98-0.57,1.35c-0.37,0.38-0.82,0.57-1.35,0.57c-0.52,0-0.97-0.2-1.35-0.57
	C-625.81,468.24-626,467.78-626,467.25"/>
<path class="st0" d="M-603.38,467.25c0,1.28-0.49,1.93-1.5,1.93c-0.99,0-1.49-0.65-1.49-1.93v-28.52c0-1.28,0.5-1.9,1.49-1.9
	c1.01,0,1.5,0.62,1.5,1.9v10.82h0.09c0.55-0.81,1.3-1.51,2.24-2.1c0.95-0.6,2.11-0.9,3.54-0.9c0.96,0,1.93,0.17,2.89,0.49
	c0.95,0.33,1.81,0.83,2.56,1.49c0.74,0.64,1.34,1.45,1.81,2.44c0.46,0.99,0.68,2.15,0.68,3.48v12.79c0,1.28-0.49,1.93-1.5,1.93
	c-0.98,0-1.48-0.65-1.48-1.93v-12.88c0-1.54-0.49-2.78-1.46-3.7c-0.98-0.9-2.29-1.38-3.95-1.38c-0.7,0-1.37,0.12-2.03,0.38
	c-0.65,0.26-1.22,0.62-1.72,1.1c-0.49,0.48-0.9,1.09-1.2,1.81c-0.31,0.72-0.46,1.56-0.46,2.49V467.25z"/>
<path class="st0" d="M-569.45,448.47c0-1.27,0.49-1.91,1.49-1.91c1,0,1.5,0.64,1.5,1.91v18.79c0,1.28-0.5,1.93-1.5,1.93
	c-1,0-1.49-0.65-1.49-1.93v-1.37h-0.12c-0.67,1.09-1.53,1.9-2.58,2.45c-1.05,0.56-2.23,0.84-3.53,0.84c-1.59,0-2.97-0.29-4.17-0.89
	c-1.19-0.6-2.18-1.43-2.97-2.44c-0.79-1.03-1.39-2.22-1.79-3.6c-0.4-1.37-0.6-2.84-0.6-4.38c0-1.4,0.19-2.76,0.57-4.12
	c0.39-1.35,0.98-2.57,1.75-3.63c0.77-1.08,1.76-1.93,2.94-2.58c1.18-0.67,2.56-0.98,4.17-0.98c1.3,0,2.45,0.26,3.42,0.81
	c1,0.54,1.91,1.36,2.78,2.48h0.12V448.47z M-581.97,457.87c0,1,0.12,2.02,0.33,3.07c0.22,1.05,0.57,2,1.06,2.85
	c0.49,0.84,1.13,1.54,1.94,2.08c0.79,0.54,1.79,0.8,2.96,0.8c1.15,0,2.13-0.26,2.93-0.8c0.78-0.54,1.43-1.24,1.93-2.08
	c0.5-0.85,0.85-1.8,1.06-2.85c0.21-1.05,0.32-2.07,0.32-3.07c0-1-0.11-2.02-0.32-3.07c-0.21-1.06-0.56-2.02-1.06-2.85
	c-0.51-0.85-1.15-1.54-1.93-2.09c-0.79-0.54-1.77-0.81-2.93-0.81c-1.14,0-2.11,0.27-2.9,0.81c-0.79,0.54-1.44,1.24-1.94,2.09
	c-0.48,0.83-0.87,1.79-1.09,2.85C-581.84,455.85-581.97,456.87-581.97,457.87"/>
<path class="st0" d="M-558.69,466.18h10.73c0.48,0,0.84,0.13,1.14,0.4c0.29,0.26,0.44,0.59,0.44,0.97c0,0.4-0.15,0.71-0.44,0.98
	c-0.29,0.27-0.66,0.4-1.14,0.4h-12.86c-0.74,0-1.21-0.15-1.43-0.44c-0.2-0.29-0.29-0.54-0.29-0.76c0-0.35,0.04-0.67,0.15-0.9
	c0.11-0.23,0.28-0.51,0.49-0.85l11.11-16.42h-9.72c-0.47,0-0.86-0.14-1.15-0.4c-0.29-0.26-0.43-0.59-0.43-0.97
	c0-0.4,0.14-0.71,0.43-0.98c0.29-0.27,0.68-0.39,1.15-0.39h11.93c0.61,0,1.04,0.09,1.29,0.31c0.25,0.22,0.38,0.48,0.38,0.8
	c0,0.38-0.06,0.68-0.18,0.94c-0.1,0.27-0.26,0.57-0.48,0.91L-558.69,466.18z"/>
<path class="st0" d="M-542.19,467.25c0-0.52,0.2-0.97,0.57-1.35c0.38-0.37,0.82-0.55,1.36-0.55c0.52,0,0.97,0.19,1.34,0.55
	c0.38,0.38,0.57,0.83,0.57,1.35c0,0.53-0.19,0.98-0.57,1.35c-0.37,0.38-0.82,0.57-1.34,0.57c-0.54,0-0.98-0.2-1.36-0.57
	C-541.99,468.24-542.19,467.78-542.19,467.25"/>
<path class="st0" d="M-356.72,467.25c0-0.52,0.18-0.97,0.56-1.35c0.38-0.37,0.83-0.55,1.35-0.55c0.52,0,0.98,0.19,1.35,0.55
	c0.38,0.38,0.57,0.83,0.57,1.35c0,0.53-0.19,0.98-0.57,1.35c-0.38,0.38-0.83,0.57-1.35,0.57c-0.52,0-0.97-0.2-1.35-0.57
	C-356.53,468.24-356.72,467.78-356.72,467.25"/>
<path class="st0" d="M-514.16,466.45c0.66,0,1.23-0.08,1.73-0.21c0.49-0.12,0.9-0.26,1.23-0.39c0.32-0.15,0.61-0.27,0.85-0.4
	c0.24-0.12,0.46-0.18,0.68-0.18c0.29,0,0.57,0.11,0.84,0.32c0.27,0.23,0.4,0.52,0.4,0.89c0,0.46-0.15,0.88-0.47,1.2
	c-0.32,0.34-0.75,0.62-1.29,0.83c-0.54,0.22-1.15,0.4-1.82,0.51c-0.69,0.1-1.4,0.17-2.15,0.17c-1.56,0-2.92-0.34-4.12-0.98
	c-1.19-0.65-2.18-1.51-2.99-2.58c-0.79-1.07-1.4-2.27-1.81-3.64c-0.4-1.35-0.6-2.73-0.6-4.11c0-1.4,0.22-2.76,0.66-4.12
	c0.46-1.35,1.1-2.57,1.94-3.63c0.84-1.08,1.87-1.93,3.1-2.58c1.22-0.67,2.62-0.98,4.2-0.98c0.7,0,1.37,0.06,2.04,0.19
	c0.67,0.12,1.24,0.28,1.76,0.49c0.51,0.21,0.92,0.47,1.23,0.75c0.3,0.29,0.46,0.6,0.46,0.9c0,0.46-0.14,0.87-0.4,1.18
	c-0.25,0.32-0.68,0.49-1.26,0.49c-0.19,0-0.4-0.07-0.61-0.21c-0.21-0.11-0.46-0.26-0.77-0.42c-0.29-0.16-0.68-0.32-1.14-0.45
	c-0.45-0.11-1.02-0.18-1.68-0.18c-1.04,0-1.96,0.28-2.77,0.82c-0.79,0.53-1.45,1.21-1.96,2.03c-0.53,0.82-0.92,1.71-1.17,2.68
	c-0.25,0.96-0.38,1.9-0.38,2.78c0,1.18,0.15,2.3,0.43,3.34c0.29,1.07,0.71,2.01,1.24,2.81c0.55,0.82,1.21,1.46,1.98,1.94
	C-516.01,466.18-515.13,466.45-514.16,466.45"/>
<path class="st0" d="M-486.18,457.87c0,1.54-0.21,3.01-0.6,4.38c-0.4,1.38-1,2.57-1.79,3.6c-0.78,1.02-1.78,1.84-2.97,2.44
	c-1.19,0.6-2.58,0.89-4.16,0.89c-1.57,0-2.96-0.29-4.17-0.89c-1.18-0.6-2.17-1.43-2.96-2.44c-0.79-1.03-1.39-2.22-1.78-3.6
	c-0.41-1.37-0.61-2.84-0.61-4.38c0-1.4,0.2-2.76,0.59-4.12c0.38-1.35,0.96-2.57,1.74-3.63c0.77-1.08,1.76-1.93,2.95-2.58
	c1.2-0.67,2.62-0.98,4.24-0.98c1.64,0,3.06,0.31,4.24,0.98c1.19,0.65,2.19,1.5,2.98,2.58c0.78,1.06,1.36,2.28,1.73,3.63
	C-486.37,455.1-486.18,456.47-486.18,457.87 M-501.98,457.87c0,1,0.11,2.02,0.34,3.07c0.21,1.05,0.57,2,1.05,2.85
	c0.49,0.84,1.13,1.54,1.94,2.08c0.81,0.54,1.79,0.8,2.95,0.8c1.17,0,2.15-0.26,2.96-0.8c0.8-0.54,1.45-1.24,1.93-2.08
	c0.48-0.85,0.84-1.8,1.06-2.85c0.21-1.05,0.33-2.07,0.33-3.07c0-1-0.12-2.02-0.33-3.07c-0.22-1.06-0.58-2.02-1.06-2.85
	c-0.48-0.85-1.13-1.54-1.93-2.09c-0.8-0.54-1.79-0.81-2.96-0.81c-1.16,0-2.14,0.27-2.95,0.81c-0.81,0.54-1.45,1.24-1.94,2.09
	c-0.48,0.83-0.84,1.79-1.05,2.85C-501.87,455.85-501.98,456.87-501.98,457.87"/>
<path class="st0" d="M-465.77,467.25c0,1.28-0.49,1.93-1.49,1.93c-0.99,0-1.49-0.65-1.49-1.93v-12.18c0-1.22-0.16-2.2-0.46-2.94
	c-0.3-0.75-0.7-1.35-1.16-1.76c-0.47-0.41-1.01-0.7-1.6-0.85c-0.6-0.15-1.18-0.24-1.76-0.24c-0.62,0-1.21,0.12-1.81,0.38
	c-0.6,0.26-1.15,0.62-1.62,1.1c-0.49,0.48-0.89,1.09-1.19,1.81c-0.31,0.72-0.46,1.56-0.46,2.49v12.18c0,1.28-0.5,1.93-1.5,1.93
	c-1,0-1.5-0.65-1.5-1.93v-18.79c0-1.27,0.5-1.91,1.5-1.91c1,0,1.5,0.64,1.5,1.91v1.09h0.08c0.56-0.81,1.29-1.51,2.25-2.1
	c0.94-0.6,2.12-0.9,3.53-0.9c1.3,0,2.47,0.34,3.51,1.01c1.04,0.68,1.81,1.63,2.31,2.86c0.75-1.29,1.71-2.24,2.92-2.89
	c1.19-0.67,2.38-0.98,3.57-0.98c0.97,0,1.93,0.17,2.89,0.49c0.96,0.33,1.82,0.83,2.57,1.49c0.74,0.64,1.35,1.45,1.81,2.44
	c0.45,0.99,0.68,2.15,0.68,3.48v12.79c0,1.28-0.49,1.93-1.49,1.93c-0.99,0-1.49-0.65-1.49-1.93v-12.18c0-1.22-0.16-2.2-0.46-2.94
	c-0.32-0.75-0.7-1.35-1.17-1.76c-0.48-0.41-1.01-0.7-1.59-0.85c-0.6-0.15-1.19-0.24-1.78-0.24c-0.6,0-1.21,0.12-1.8,0.38
	c-0.59,0.26-1.13,0.62-1.62,1.1c-0.49,0.48-0.88,1.09-1.18,1.81c-0.32,0.72-0.46,1.56-0.46,2.49V467.25z"/>
<path class="st0" d="M-447.22,448.47c0-1.27,0.5-1.91,1.48-1.91c1,0,1.5,0.64,1.5,1.91v1.38h0.13c0.66-1.08,1.53-1.91,2.57-2.46
	c1.05-0.56,2.24-0.82,3.54-0.82c1.57,0,2.96,0.29,4.15,0.9c1.19,0.59,2.18,1.4,2.97,2.43c0.79,1.04,1.4,2.23,1.79,3.59
	c0.4,1.39,0.6,2.84,0.6,4.39c0,1.38-0.18,2.76-0.59,4.11c-0.38,1.37-0.96,2.57-1.74,3.64c-0.77,1.07-1.75,1.93-2.93,2.58
	c-1.17,0.65-2.57,0.98-4.18,0.98c-1.3,0-2.46-0.28-3.42-0.81c-0.99-0.55-1.9-1.38-2.76-2.48h-0.13v10.1c0,1.28-0.5,1.91-1.5,1.91
	c-0.99,0-1.48-0.63-1.48-1.91V448.47z M-444.28,457.87c0,1,0.12,2.02,0.34,3.07c0.22,1.05,0.57,2,1.06,2.85
	c0.49,0.84,1.13,1.54,1.94,2.08c0.8,0.54,1.78,0.8,2.95,0.8c1.15,0,2.13-0.26,2.95-0.8c0.81-0.54,1.44-1.24,1.93-2.08
	c0.49-0.85,0.84-1.8,1.05-2.85c0.23-1.05,0.34-2.07,0.34-3.07c0-1-0.11-2.02-0.34-3.07c-0.21-1.06-0.57-2.02-1.05-2.85
	c-0.49-0.85-1.12-1.54-1.93-2.09c-0.82-0.54-1.79-0.81-2.95-0.81c-1.18,0-2.15,0.27-2.95,0.81c-0.81,0.54-1.46,1.24-1.94,2.09
	c-0.49,0.83-0.84,1.79-1.06,2.85C-444.16,455.85-444.28,456.87-444.28,457.87"/>
<path class="st0" d="M-409.48,448.47c0-1.27,0.5-1.91,1.5-1.91c0.99,0,1.49,0.64,1.49,1.91v18.79c0,1.28-0.5,1.93-1.49,1.93
	c-1,0-1.5-0.65-1.5-1.93v-1.37h-0.12c-0.66,1.09-1.52,1.9-2.58,2.45c-1.05,0.56-2.23,0.84-3.54,0.84c-1.57,0-2.97-0.29-4.16-0.89
	c-1.19-0.6-2.17-1.43-2.96-2.44c-0.8-1.03-1.39-2.22-1.79-3.6c-0.4-1.37-0.61-2.84-0.61-4.38c0-1.4,0.19-2.76,0.58-4.12
	c0.39-1.35,0.97-2.57,1.76-3.63c0.76-1.08,1.74-1.93,2.92-2.58c1.18-0.67,2.57-0.98,4.18-0.98c1.3,0,2.44,0.26,3.42,0.81
	c0.98,0.54,1.91,1.36,2.76,2.48h0.12V448.47z M-422,457.87c0,1,0.12,2.02,0.34,3.07c0.21,1.05,0.58,2,1.06,2.85
	c0.49,0.84,1.13,1.54,1.93,2.08c0.8,0.54,1.78,0.8,2.95,0.8c1.17,0,2.14-0.26,2.93-0.8c0.79-0.54,1.43-1.24,1.93-2.08
	c0.5-0.85,0.86-1.8,1.07-2.85c0.21-1.05,0.31-2.07,0.31-3.07c0-1-0.1-2.02-0.31-3.07c-0.21-1.06-0.57-2.02-1.07-2.85
	c-0.51-0.85-1.15-1.54-1.93-2.09c-0.79-0.54-1.76-0.81-2.93-0.81c-1.13,0-2.1,0.27-2.88,0.81c-0.79,0.54-1.44,1.24-1.94,2.09
	c-0.5,0.83-0.87,1.79-1.1,2.85C-421.87,455.85-422,456.87-422,457.87"/>
<path class="st0" d="M-398,467.25c0,1.28-0.49,1.93-1.51,1.93c-1,0-1.48-0.65-1.48-1.93v-18.79c0-1.27,0.48-1.91,1.48-1.91
	c1.01,0,1.51,0.64,1.51,1.91v2.09h0.07c0.56-1.26,1.27-2.23,2.14-2.94c0.87-0.71,1.78-1.06,2.73-1.06c0.73,0,1.22,0.17,1.54,0.49
	c0.31,0.33,0.46,0.7,0.46,1.13c0,0.41-0.15,0.74-0.48,1c-0.32,0.24-0.83,0.45-1.57,0.61c-0.4,0.09-0.9,0.26-1.47,0.52
	c-0.56,0.25-1.1,0.62-1.59,1.14c-0.5,0.5-0.93,1.18-1.29,1.99c-0.36,0.83-0.54,1.84-0.54,3.06V467.25z"/>
<path class="st0" d="M-384.16,467.25c0,1.28-0.5,1.93-1.5,1.93c-1.01,0-1.49-0.65-1.49-1.93V449.3h-1.96c-0.5,0-0.84-0.15-1.02-0.44
	c-0.18-0.28-0.27-0.56-0.27-0.8c0-0.25,0.09-0.51,0.27-0.81c0.18-0.29,0.52-0.43,1.02-0.43h1.96v-4.86c0-1.32,0.49-1.96,1.49-1.96
	c1,0,1.5,0.64,1.5,1.96v4.86h1.96c0.49,0,0.84,0.15,1.01,0.43c0.18,0.3,0.26,0.56,0.26,0.81c0,0.24-0.08,0.52-0.26,0.8
	c-0.18,0.29-0.52,0.44-1.01,0.44h-1.96V467.25z"/>
<path class="st0" d="M-375.81,459.19c0.03,0.97,0.21,1.9,0.54,2.8c0.33,0.9,0.78,1.71,1.35,2.4c0.56,0.69,1.25,1.25,2.03,1.67
	c0.8,0.41,1.67,0.61,2.65,0.61c1.19,0,2.18-0.18,2.96-0.54c0.77-0.36,1.43-0.74,1.97-1.17c0.54-0.4,1-0.79,1.37-1.15
	c0.38-0.36,0.74-0.54,1.1-0.54c0.43,0,0.76,0.1,1.02,0.29c0.26,0.18,0.39,0.58,0.39,1.17c0,0.32-0.2,0.75-0.62,1.24
	c-0.42,0.5-0.99,0.99-1.74,1.47c-0.76,0.49-1.65,0.9-2.72,1.23c-1.07,0.33-2.24,0.5-3.51,0.5c-1.78,0-3.3-0.34-4.56-0.98
	c-1.26-0.65-2.31-1.51-3.12-2.58c-0.82-1.07-1.41-2.27-1.78-3.64c-0.38-1.35-0.57-2.73-0.57-4.11c0-1.4,0.21-2.76,0.61-4.12
	c0.4-1.35,1-2.57,1.81-3.63c0.79-1.08,1.8-1.93,2.98-2.58c1.19-0.67,2.57-0.98,4.12-0.98c1.55,0,2.92,0.29,4.09,0.92
	c1.18,0.61,2.16,1.41,2.96,2.4c0.79,1,1.37,2.16,1.79,3.46c0.4,1.3,0.59,2.64,0.59,4.02c0,0.21-0.01,0.41-0.06,0.63
	c-0.04,0.21-0.13,0.42-0.29,0.6c-0.16,0.18-0.37,0.33-0.63,0.43c-0.26,0.12-0.61,0.17-1.06,0.17H-375.81z M-363.33,456.7
	c-0.03-0.91-0.18-1.83-0.46-2.73c-0.28-0.93-0.68-1.74-1.2-2.48c-0.53-0.74-1.18-1.32-1.94-1.78c-0.76-0.44-1.65-0.66-2.65-0.66
	c-0.99,0-1.88,0.22-2.65,0.66c-0.78,0.46-1.43,1.04-1.93,1.78c-0.51,0.73-0.91,1.55-1.18,2.48c-0.28,0.9-0.43,1.82-0.46,2.73
	H-363.33z"/>
<path class="st0" d="M-884.4,363.11c0.34,2.31,1.33,3.99,2.97,5.05c1.65,1.07,3.55,1.6,5.73,1.6c1.18,0,2.28-0.19,3.29-0.58
	c1.01-0.38,1.93-0.81,2.78-1.28c0.85-0.47,1.64-0.88,2.37-1.27c0.72-0.39,1.37-0.57,1.97-0.57c0.98,0,1.86,0.41,2.63,1.24
	c0.76,0.84,1.15,1.74,1.15,2.72c0,0.97-0.46,1.93-1.37,2.87c-0.92,0.94-2.1,1.78-3.55,2.5c-1.45,0.72-3.07,1.31-4.87,1.76
	c-1.78,0.44-3.53,0.67-5.23,0.67c-2.6,0-4.95-0.45-7.06-1.35c-2.1-0.89-3.91-2.13-5.42-3.7c-1.52-1.59-2.68-3.45-3.52-5.59
	c-0.83-2.16-1.24-4.51-1.24-7.06c0-2.34,0.41-4.59,1.21-6.74c0.81-2.15,1.94-4.05,3.39-5.69c1.45-1.63,3.18-2.95,5.21-3.93
	c2.02-0.98,4.24-1.47,6.68-1.47c2.47,0,4.73,0.51,6.77,1.53c2.04,1.02,3.8,2.33,5.24,3.95c1.45,1.63,2.58,3.43,3.36,5.41
	c0.79,1.98,1.19,3.93,1.19,5.84c0,1.37-0.33,2.4-0.97,3.07c-0.64,0.68-1.65,1.01-3.05,1.01H-884.4z M-869.96,356.99
	c-0.25-2.05-1-3.73-2.23-5.05c-1.24-1.32-2.94-1.98-5.11-1.98c-2.05,0-3.72,0.68-5.01,2.04c-1.3,1.37-2.05,3.03-2.27,4.99H-869.96z"
	/>
<path class="st0" d="M-857.63,332.96c0-1.53,0.43-2.78,1.28-3.71c0.85-0.94,1.96-1.4,3.32-1.4c1.36,0,2.47,0.46,3.33,1.4
	c0.84,0.93,1.28,2.18,1.28,3.71v39.35c0,1.53-0.44,2.77-1.28,3.71c-0.86,0.94-1.97,1.4-3.33,1.4c-1.36,0-2.47-0.46-3.32-1.4
	c-0.85-0.94-1.28-2.18-1.28-3.71V332.96z"/>
<path class="st1" d="M-836.18,376.1c0-6.88,1.11-13.28,3.31-19.19c2.21-5.93,5.33-11.06,9.34-15.43c4.02-4.37,8.81-7.81,14.37-10.32
	c5.56-2.52,11.75-3.78,18.54-3.78c2.38,0,5.2,0.22,8.47,0.66c3.26,0.45,6.38,1.24,9.33,2.39c2.96,1.15,5.48,2.67,7.56,4.57
	c2.07,1.9,3.11,4.3,3.11,7.21c0,2.38-0.75,4.46-2.25,6.23c-1.5,1.77-3.49,2.65-5.96,2.65c-1.32,0-2.61-0.24-3.84-0.72
	c-1.23-0.49-2.6-1.02-4.1-1.59c-1.51-0.58-3.25-1.11-5.23-1.59c-1.99-0.49-4.35-0.72-7.08-0.72c-4.16,0-7.78,0.81-10.87,2.44
	c-3.08,1.63-5.67,3.83-7.75,6.56c-2.07,2.73-3.64,5.92-4.7,9.54c-1.06,3.62-1.59,7.46-1.59,11.53c0,3.97,0.53,7.72,1.59,11.25
	c1.06,3.54,2.65,6.62,4.77,9.27c2.12,2.65,4.72,4.77,7.81,6.36c3.08,1.59,6.66,2.38,10.73,2.38c2.73,0,5.13-0.28,7.21-0.87
	c2.07-0.56,3.9-1.21,5.5-1.91c1.59-0.71,3.04-1.34,4.37-1.92c1.33-0.57,2.65-0.87,3.97-0.87c1.5,0,2.8,0.34,3.9,0.99
	c1.11,0.67,2.01,1.46,2.72,2.39c0.7,0.93,1.24,1.9,1.6,2.92c0.35,1.01,0.53,1.91,0.53,2.71c0,3.17-1.11,5.77-3.31,7.81
	c-2.21,2.03-4.85,3.62-7.94,4.76c-3.09,1.16-6.34,1.95-9.73,2.39c-3.41,0.43-6.34,0.66-8.81,0.66c-6.71,0-12.87-1.26-18.48-3.78
	c-5.6-2.51-10.41-5.96-14.43-10.33c-4.01-4.37-7.13-9.52-9.34-15.43C-835.08,389.38-836.18,382.99-836.18,376.1"/>
<path class="st1" d="M-657.36,338.36c0.19-1.14,0.65-2.35,1.4-3.58c0.75-1.24,1.67-2.34,2.78-3.31c1.1-0.97,2.4-1.76,3.9-2.39
	c1.5-0.61,3.15-0.93,4.9-0.93c3.35,0,6.23,0.99,8.61,2.98c2.39,1.98,3.93,4.17,4.64,6.55l15.62,52.45h0.27l15.62-52.45
	c0.7-2.38,2.25-4.56,4.63-6.55c2.39-1.99,5.25-2.98,8.61-2.98c1.76,0,3.4,0.31,4.91,0.93c1.51,0.62,2.8,1.42,3.9,2.39
	c1.1,0.97,2.02,2.07,2.78,3.31c0.75,1.23,1.21,2.43,1.39,3.58l12.31,73.88c0.1,0.45,0.13,0.85,0.13,1.19v1.07
	c0,2.92-0.93,5.22-2.77,6.96c-1.86,1.72-4.11,2.58-6.75,2.58c-3.35,0-5.81-0.78-7.35-2.32c-1.55-1.54-2.54-3.86-2.98-6.95
	l-7.82-53.9h-0.26l-15.88,55.49c-0.27,0.79-0.63,1.63-1.06,2.51c-0.45,0.88-1.09,1.72-1.93,2.52s-1.87,1.44-3.12,1.92
	c-1.23,0.48-2.73,0.73-4.5,0.73c-1.76,0-3.26-0.25-4.5-0.73c-1.24-0.48-2.28-1.12-3.11-1.92c-0.85-0.8-1.48-1.64-1.93-2.52
	c-0.44-0.88-0.79-1.71-1.07-2.51l-15.88-55.49h-0.26l-7.82,53.9c-0.43,3.09-1.43,5.4-2.98,6.95c-1.54,1.54-3.99,2.32-7.34,2.32
	c-2.65,0-4.92-0.86-6.76-2.58c-1.86-1.73-2.78-4.04-2.78-6.96v-1.07c0-0.34,0.04-0.74,0.14-1.19L-657.36,338.36z"/>
<path class="st2" d="M-505.08,372.63c-0.88-0.24-2.07-0.49-4.25-0.71v-0.27c4.33-2.07,7.51-4.71,9.53-7.92
	c2.03-3.19,3.04-7.17,3.04-11.95c0-3.61-0.68-6.87-2.02-9.79c-1.36-2.94-3.18-5.44-5.48-7.5c-2.29-2.08-4.98-3.67-8.04-4.8
	c-3.07-1.13-6.35-1.71-9.87-1.71h-22.6c-3.17,0-5.73,0.89-7.71,2.64c-1.98,1.76-2.98,4.26-2.98,7.51v75.83
	c0,3.14,1.02,5.66,3.05,7.5c2.02,1.85,4.61,2.76,7.76,2.76h24.49c4.69,0,8.95-0.62,12.79-1.88c3.82-1.27,7.11-3.13,9.86-5.62
	c2.75-2.48,4.89-5.53,6.42-9.2c1.52-3.65,2.29-7.85,2.29-12.63c0-2.98-0.59-5.75-1.61-8.37c-1.37-3.52-3.37-7.07-5.62-9.03
	C-496.07,377.45-499.8,374.01-505.08,372.63 M-535.16,345.83h7.2c2.96,0,5.54,0.8,7.7,2.43c2.17,1.62,3.26,4.01,3.26,7.16
	c0,3.42-1,6.06-2.98,7.9c-1.98,1.85-4.65,2.77-7.97,2.77h-7.2V345.83z M-513.44,403.34c-2.39,2.02-5.42,3.04-9.11,3.04h-12.61
	v-22.43h10.98c4.77,0,8.35,0.99,10.74,2.96c2.39,2,3.58,4.57,3.58,7.71C-509.86,398.4-511.05,401.3-513.44,403.34"/>
<path class="st2" d="M-479.83,338.64c0-3.35,0.94-5.91,2.84-7.67c1.9-1.76,4.26-2.65,7.09-2.65s5.2,0.89,7.09,2.65
	c1.9,1.77,2.86,4.33,2.86,7.67v75.22c0,3.35-0.96,5.91-2.86,7.67c-1.89,1.77-4.26,2.66-7.09,2.66s-5.19-0.89-7.09-2.66
	c-1.9-1.76-2.84-4.32-2.84-7.67V338.64z"/>
<g>
	<g>
		<path class="st3" d="M-863.55,216.77c1.9,0,4.34,0.2,7.32,0.61c2.98,0.41,5.9,1.13,8.75,2.17c2.85,1.04,5.31,2.42,7.39,4.14
			c2.08,1.72,3.12,3.93,3.12,6.64c0,2.62-0.81,4.95-2.44,6.98c-1.63,2.03-3.84,3.05-6.64,3.05c-1.36,0-2.69-0.2-4-0.61
			c-1.31-0.41-2.67-0.88-4.07-1.42c-1.4-0.54-2.91-1.02-4.54-1.42c-1.63-0.41-3.44-0.61-5.42-0.61c-2.89,0-5.47,0.75-7.73,2.24
			c-2.26,1.49-3.39,3.68-3.39,6.58c0,2.35,1.11,4.16,3.32,5.42c2.21,1.27,5.02,2.4,8.41,3.39c3.39,1,7.03,2.1,10.91,3.32
			c3.89,1.22,7.52,2.92,10.92,5.09c3.39,2.17,6.19,5.06,8.41,8.68c2.21,3.62,3.32,8.32,3.32,14.1c0,4.88-0.93,9.27-2.78,13.15
			c-1.85,3.89-4.36,7.19-7.53,9.9c-3.17,2.71-6.85,4.79-11.05,6.24c-4.2,1.45-8.66,2.17-13.36,2.17c-2.62,0-5.81-0.2-9.56-0.61
			c-3.75-0.41-7.37-1.15-10.85-2.24c-3.48-1.09-6.44-2.62-8.88-4.61c-2.44-1.99-3.66-4.56-3.66-7.73c0-2.62,0.81-4.88,2.44-6.78
			c1.63-1.9,3.84-2.85,6.64-2.85c1.63,0,3.3,0.27,5.02,0.81c1.72,0.54,3.53,1.15,5.42,1.83c1.9,0.68,3.89,1.29,5.97,1.83
			c2.08,0.54,4.2,0.81,6.37,0.81c4.52,0,7.95-1.11,10.3-3.32c2.35-2.21,3.53-4.99,3.53-8.34c0-2.62-1.11-4.68-3.32-6.17
			c-2.22-1.49-5.02-2.76-8.41-3.8c-3.39-1.04-7.03-2.1-10.91-3.19c-3.89-1.09-7.53-2.58-10.92-4.48c-3.39-1.9-6.19-4.43-8.41-7.59
			c-2.22-3.16-3.32-7.37-3.32-12.61c0-4.7,0.9-8.97,2.71-12.81c1.81-3.84,4.25-7.07,7.32-9.69c3.07-2.62,6.64-4.65,10.71-6.1
			C-872.36,217.49-868.07,216.77-863.55,216.77z"/>
		<path class="st3" d="M-780.16,316.56c-6.87,0-13.18-1.29-18.91-3.87c-5.74-2.58-10.67-6.1-14.78-10.58
			c-4.11-4.47-7.3-9.74-9.56-15.79c-2.26-6.06-3.39-12.61-3.39-19.66c0-7.05,1.13-13.6,3.39-19.66c2.26-6.06,5.44-11.32,9.56-15.8
			c4.11-4.47,9.02-8,14.71-10.58c5.69-2.58,12.02-3.86,18.98-3.86c6.78,0,13.04,1.31,18.78,3.93c5.74,2.62,10.66,6.19,14.78,10.71
			c4.11,4.52,7.32,9.81,9.63,15.86c2.31,6.06,3.46,12.52,3.46,19.39c0,7.05-1.13,13.61-3.39,19.66c-2.26,6.06-5.42,11.32-9.49,15.79
			c-4.07,4.47-8.97,8-14.71,10.58C-766.85,315.27-773.2,316.56-780.16,316.56z"/>
		<path class="st4" d="M-716.98,228.02c0.18-1.17,0.65-2.39,1.42-3.66c0.77-1.26,1.72-2.39,2.85-3.39c1.13-0.99,2.46-1.81,4-2.44
			c1.54-0.63,3.21-0.95,5.02-0.95c3.43,0,6.37,1.02,8.81,3.05c2.44,2.03,4.02,4.27,4.75,6.71l16,53.69h0.27l16-53.69
			c0.72-2.44,2.3-4.68,4.75-6.71c2.44-2.03,5.38-3.05,8.81-3.05c1.81,0,3.48,0.32,5.02,0.95c1.54,0.63,2.87,1.45,4,2.44
			c1.13,1,2.08,2.12,2.85,3.39c0.77,1.27,1.24,2.49,1.42,3.66l12.61,75.66c0.09,0.45,0.14,0.86,0.14,1.22c0,0.36,0,0.72,0,1.09
			c0,2.98-0.95,5.36-2.85,7.12c-1.9,1.76-4.2,2.64-6.92,2.64c-3.44,0-5.94-0.79-7.53-2.37c-1.58-1.58-2.6-3.95-3.05-7.12l-8-55.19
			h-0.27l-16.27,56.81c-0.27,0.81-0.63,1.67-1.08,2.58c-0.45,0.9-1.11,1.76-1.97,2.58c-0.86,0.81-1.92,1.47-3.19,1.96
			c-1.27,0.5-2.8,0.75-4.61,0.75c-1.81,0-3.35-0.25-4.61-0.75c-1.27-0.49-2.33-1.15-3.19-1.96c-0.86-0.81-1.51-1.67-1.97-2.58
			c-0.45-0.9-0.81-1.76-1.09-2.58l-16.27-56.81h-0.27l-8,55.19c-0.45,3.16-1.47,5.54-3.05,7.12c-1.58,1.58-4.09,2.37-7.53,2.37
			c-2.71,0-5.02-0.88-6.91-2.64c-1.9-1.76-2.85-4.13-2.85-7.12c0-0.36,0-0.72,0-1.09c0-0.36,0.04-0.77,0.14-1.22L-716.98,228.02z"/>
		<path class="st4" d="M-567.83,316.56c-6.87,0-13.18-1.29-18.92-3.87c-5.74-2.58-10.67-6.1-14.78-10.58
			c-4.11-4.47-7.3-9.74-9.56-15.79c-2.26-6.06-3.39-12.61-3.39-19.66c0-7.05,1.13-13.6,3.39-19.66c2.26-6.06,5.45-11.32,9.56-15.8
			c4.11-4.47,9.02-8,14.71-10.58c5.69-2.58,12.02-3.86,18.98-3.86c6.78,0,13.04,1.31,18.78,3.93c5.74,2.62,10.66,6.19,14.78,10.71
			c4.11,4.52,7.32,9.81,9.63,15.86c2.3,6.06,3.46,12.52,3.46,19.39c0,7.05-1.13,13.61-3.39,19.66c-2.26,6.06-5.42,11.32-9.49,15.79
			c-4.07,4.47-8.97,8-14.71,10.58C-554.52,315.27-560.87,316.56-567.83,316.56z"/>
		<path class="st4" d="M-484.04,216.77c1.9,0,4.34,0.2,7.32,0.61c2.98,0.41,5.9,1.13,8.75,2.17c2.85,1.04,5.31,2.42,7.39,4.14
			c2.08,1.72,3.12,3.93,3.12,6.64c0,2.62-0.81,4.95-2.44,6.98c-1.63,2.03-3.84,3.05-6.64,3.05c-1.36,0-2.69-0.2-4-0.61
			c-1.31-0.41-2.67-0.88-4.07-1.42c-1.4-0.54-2.92-1.02-4.54-1.42c-1.63-0.41-3.44-0.61-5.42-0.61c-2.89,0-5.47,0.75-7.73,2.24
			c-2.26,1.49-3.39,3.68-3.39,6.58c0,2.35,1.11,4.16,3.32,5.42c2.21,1.27,5.02,2.4,8.41,3.39c3.39,1,7.03,2.1,10.92,3.32
			c3.89,1.22,7.53,2.92,10.92,5.09c3.39,2.17,6.19,5.06,8.41,8.68c2.21,3.62,3.32,8.32,3.32,14.1c0,4.88-0.93,9.27-2.78,13.15
			c-1.85,3.89-4.36,7.19-7.53,9.9c-3.17,2.71-6.85,4.79-11.05,6.24c-4.2,1.45-8.66,2.17-13.36,2.17c-2.62,0-5.81-0.2-9.56-0.61
			c-3.75-0.41-7.37-1.15-10.85-2.24c-3.48-1.09-6.44-2.62-8.88-4.61c-2.44-1.99-3.66-4.56-3.66-7.73c0-2.62,0.81-4.88,2.44-6.78
			c1.63-1.9,3.84-2.85,6.64-2.85c1.63,0,3.3,0.27,5.02,0.81c1.72,0.54,3.53,1.15,5.42,1.83c1.9,0.68,3.88,1.29,5.97,1.83
			c2.08,0.54,4.2,0.81,6.37,0.81c4.52,0,7.95-1.11,10.31-3.32c2.35-2.21,3.53-4.99,3.53-8.34c0-2.62-1.11-4.68-3.32-6.17
			c-2.22-1.49-5.02-2.76-8.41-3.8c-3.39-1.04-7.03-2.1-10.92-3.19c-3.89-1.09-7.53-2.58-10.91-4.48c-3.39-1.9-6.19-4.43-8.41-7.59
			c-2.22-3.16-3.32-7.37-3.32-12.61c0-4.7,0.9-8.97,2.71-12.81c1.81-3.84,4.25-7.07,7.32-9.69c3.07-2.62,6.64-4.65,10.71-6.1
			C-492.85,217.49-488.56,216.77-484.04,216.77z"/>
	</g>
</g>
<path class="st2" d="M-401.8,328.35c-27.12,0-49.11,22-49.11,49.12c0,27.12,21.99,49.11,49.11,49.11
	c27.13,0,49.11-21.98,49.11-49.11C-352.69,350.35-374.67,328.35-401.8,328.35z M-360.24,380.21c-1.71-0.79-6.21-5.94-6.06-5.08
	c0.1,2.15,0.41,20.47,0.41,20.47c0,0.66-2.71,0.64-2.73-0.01c-0.08-1.57-0.02-8.29-0.02-10.44c-1.54-0.64-3.63-0.9-5.83,0.02
	c0,1.39-0.2,9.81-0.2,10.42c0,0.64-2.69,0.62-2.69,0c0-1.93,0.52-19.81,0.46-20.49c-0.08-0.66-4.27,4.1-6.15,5.04
	c-0.27,0.12-0.71-0.1-1.05-0.44c-2.97-1.82-9.45-9.16-9.21-7.84c0.16,3.43,0.65,32.64,0.65,32.64c0,1.05-4.32,1.01-4.37-0.02
	c-0.12-2.51-0.02-13.22-0.02-16.66c-2.45-1.01-5.8-1.43-9.29,0.04c0,2.23-0.33,15.65-0.33,16.63c0,1.01-4.26,0.98-4.26,0
	c0-3.09,0.83-31.6,0.71-32.67c-0.12-1.04-6.46,6.15-9.57,7.88c-0.27,0.22-0.57,0.34-0.77,0.25c-0.18-0.1-0.42-0.24-0.66-0.42
	c-0.01-0.01-0.03-0.01-0.04-0.03c-1.99-1.47-5.5-5.4-5.36-4.63c0.1,2.15,0.41,20.46,0.41,20.46c0,0.67-2.7,0.64-2.73-0.01
	c-0.08-1.57-0.01-8.3-0.01-10.44c-1.54-0.63-3.64-0.9-5.83,0.03c0,1.39-0.21,9.81-0.21,10.41c0,0.64-2.67,0.62-2.67,0
	c0-1.93,0.52-19.82,0.44-20.49c-0.07-0.67-4.26,4.1-6.15,5.02c-0.54,0.28-1.72-0.87-1.55-1.59c0.15-0.7,6.49-6.92,7.61-7.45
	c0.93-0.47,1.8-0.59,3.48-0.59v-0.3c-1.67-0.73-2.84-2.38-2.84-4.31c0-2.6,2.09-4.71,4.7-4.71c2.59,0,4.69,2.11,4.69,4.71
	c0,1.93-1.16,3.58-2.82,4.31v0.31c1.84,0.01,2.82,0.18,3.45,0.55c0.51,0.38,3.32,2.82,5.4,4.87c2.78-3.14,9.48-9.58,10.9-10.25
	c1.48-0.76,2.87-0.94,5.55-0.94V364c-2.65-1.15-4.51-3.79-4.51-6.86c0-4.13,3.35-7.49,7.48-7.49c4.13,0,7.48,3.37,7.48,7.49
	c0,3.07-1.86,5.71-4.51,6.86v0.5c2.93,0.01,4.51,0.28,5.49,0.89c1.08,0.77,8.35,7.16,11.16,10.43c1.97-2.01,4.54-4.41,5.22-4.72
	c0.93-0.47,1.8-0.59,3.49-0.59v-0.3c-1.67-0.72-2.83-2.39-2.83-4.3c0-2.59,2.09-4.7,4.69-4.7c2.59,0,4.7,2.11,4.7,4.7
	c0,1.92-1.17,3.59-2.83,4.3v0.32c1.84,0.01,2.83,0.18,3.45,0.56c0.83,0.59,7.56,6.55,7.7,7.57
	C-358.58,379.21-359.69,380.47-360.24,380.21z"/>
<g>
	<path class="st1" d="M-743.42,417.02l-2.28-1.63c-2.69-1.93-3.3-5.67-1.38-8.37l0.25-0.35c0.46-0.72,1.04-1.46,1.64-2.31
		c0.58-0.82,2.28-3.19,4.49-6.25l17.61-24.59c1.36-1.9,1.1-4.07,0.95-4.84c-0.02-0.1-0.04-0.2-0.07-0.31v-0.01l0,0
		c-1.04-4.82-4.41-23.18,17.99-21.83c0.63,0.06,1.9,0.17,0.42,2.51l-9.03,12.59c-0.56,0.78-0.42,1.87,0.33,2.47l-0.01,0.01
		l0.09,0.08c0.01,0,0.01,0,0.01,0l0,0l7.15,5.11c0,0,0,0,0,0.01c0.82,0.59,1.97,0.4,2.56-0.42l8.06-11.25l-6.74-18.72
		c-1.16-3.18-2.93-5.81-5.31-7.89c-2.38-2.07-5.34-3.11-8.87-3.11c-3.36,0-6.27,1.06-8.75,3.19c-2.46,2.11-4.28,4.71-5.42,7.81
		l-26.63,72.04c-0.17,0.33-0.36,0.9-0.59,1.65c-0.22,0.75-0.33,1.65-0.33,2.72c0,2.64,0.97,4.85,2.91,6.62
		c1.94,1.76,4.24,2.65,6.89,2.65c2.73,0,4.84-0.66,6.29-1.99c1.4-1.27,2.43-2.88,3.14-4.79
		C-739.79,418.4-741.79,418.19-743.42,417.02z"/>
	<path class="st1" d="M-674.56,413.86c-0.14-0.88-0.43-1.85-0.87-2.9l-14.83-41.2c-1.65,4.91-6.04,9.38-16.39,10.11
		c-1.61,0.39-2.58,0.18-4.5,2.36l-9.9,13.85c-2.21,3.08-4.51,6.31-6.56,9.17h30.47l3.98,12.46c0.7,2.02,1.79,3.68,3.24,4.96
		c1.47,1.29,3.6,1.93,6.43,1.93c2.47,0,4.6-0.82,6.42-2.46c1.82-1.63,2.71-3.73,2.71-6.29
		C-674.36,415.4-674.43,414.74-674.56,413.86z"/>
	<path class="st1" d="M-737.45,406.63c-1.68-1.2-4.02-0.82-5.23,0.87c-1.21,1.69-0.82,4.04,0.87,5.24c1.68,1.21,4.02,0.82,5.23-0.87
		c0.04-0.06,0.46-0.73,0.48-0.81c0.06-0.26,0.11-0.35,0.2-1.2C-735.74,408.63-736.37,407.41-737.45,406.63z"/>
</g>
<path class="st5" d="M-757.87,247.03c-2.62-2.64-5.8-4.1-8.97-4.1c-0.11,0-0.21,0-0.32,0c-0.85,0.03-1.6,0.09-2.31,0.19
	c-4.5,0.64-6.96,2.75-10.44,7.16l-0.04,0.06l-0.04-0.06c-3.48-4.41-5.94-6.52-10.44-7.16c-0.7-0.1-1.46-0.16-2.31-0.19
	c-0.11,0-0.21,0-0.32,0c-3.17,0-6.35,1.46-8.97,4.1c-3.29,3.32-5.3,8.21-5.12,12.46c0.03,1.19,0.17,2.32,0.4,3.39l0.01,0
	c1.63,7.66,8.12,12.33,14.42,16.87c4.34,3.12,8.82,6.36,11.49,10.49l0.88,1.43l0.88-1.43c2.67-4.13,7.15-7.37,11.49-10.49
	c6.3-4.54,12.78-9.21,14.42-16.87l0.01,0c0.23-1.07,0.37-2.2,0.4-3.39C-752.58,255.25-754.59,250.36-757.87,247.03z"/>
<g>
	<path class="st5" d="M-562.05,286.47c0.82-0.08,1.46-0.69,1.46-1.43c0-0.77-0.69-1.4-1.56-1.44l0,0h-6.1h-6.02
		c-0.91,0-1.63,0.64-1.63,1.44c0,0.74,0.63,1.35,1.45,1.43c-0.72,0.15-1.25,0.72-1.25,1.4c0,0.8,0.73,1.45,1.63,1.45
		c0.01,0,0.03-0.01,0.03-0.01c-0.63,0.19-1.1,0.73-1.1,1.36c0,0.71,0.59,1.31,1.37,1.42c0.77,1.63,2.98,2.81,5.6,2.81
		c2.62,0,4.84-1.19,5.6-2.83c0.71-0.16,1.24-0.72,1.24-1.4c0-0.63-0.46-1.16-1.1-1.36h0.01c0.92,0,1.64-0.65,1.64-1.45
		C-560.8,287.2-561.33,286.62-562.05,286.47"/>
	<path class="st5" d="M-568.31,238.36c-8.6,0-15.57,6.98-15.57,15.57c0,2.37,0.54,4.6,1.49,6.6c0.56,1.48,1.35,3.15,2.45,4.95
		c1.65,2.51,3.19,7.09,3.29,11.82c0-0.01,0.3,5.01,4.09,5.01h4.25h4.26c3.79,0,4.09-5.01,4.09-5.01c0.1-4.73,1.64-9.31,3.29-11.82
		c1.16-1.9,1.97-3.64,2.54-5.18c0.87-1.94,1.37-4.1,1.37-6.37C-552.74,245.33-559.71,238.36-568.31,238.36"/>
</g>
<path class="st2" d="M-437.66,393.81c0,0-0.25,1.86,1.21,1.99c0.89-0.08,1.43-0.18,1.47-1.99c0.04-1.81,2.17,1.56,2.17,1.56
	l-1.92,3.06l-3.79-0.47l-1.61-2.6L-437.66,393.81z"/>
<g>
	<g>
		<path d="M14.92,245.32c1.14,0,2.21,0.11,3.22,0.33c1.01,0.22,1.89,0.51,2.63,0.86c0.75,0.35,1.34,0.74,1.79,1.16
			c0.43,0.43,0.63,0.86,0.6,1.26c0,0.36-0.1,0.69-0.29,1.03c-0.19,0.33-0.62,0.5-1.3,0.5c-0.32,0-0.67-0.12-1.02-0.4
			c-0.37-0.27-0.78-0.54-1.25-0.85c-0.47-0.31-1.01-0.6-1.63-0.86c-0.62-0.25-1.32-0.4-2.1-0.4c-0.56,0-1.11,0.06-1.65,0.2
			c-0.54,0.14-1.03,0.33-1.47,0.61c-0.44,0.29-0.79,0.63-1.05,1.03c-0.27,0.42-0.4,0.9-0.4,1.47c0,0.51,0.15,1.03,0.47,1.53
			c0.32,0.49,0.88,0.9,1.68,1.23l4.77,1.92c0.79,0.33,1.54,0.68,2.25,1.03c0.7,0.38,1.31,0.82,1.86,1.33
			c0.54,0.52,0.96,1.1,1.27,1.78c0.31,0.67,0.46,1.47,0.46,2.37c0,1.01-0.22,1.95-0.66,2.79c-0.44,0.83-1.04,1.53-1.8,2.13
			c-0.75,0.58-1.67,1.02-2.72,1.36c-1.05,0.33-2.19,0.49-3.43,0.49c-1.29,0-2.44-0.16-3.46-0.49c-1.02-0.33-1.91-0.71-2.65-1.17
			c-0.75-0.43-1.32-0.93-1.72-1.44c-0.4-0.51-0.59-0.96-0.59-1.34c0-0.12,0.04-0.25,0.13-0.43c0.08-0.18,0.2-0.36,0.33-0.51
			c0.13-0.16,0.28-0.3,0.46-0.41c0.17-0.12,0.37-0.18,0.56-0.18c0.39,0,0.78,0.18,1.17,0.53c0.39,0.36,0.86,0.74,1.38,1.13
			c0.52,0.42,1.15,0.8,1.89,1.15c0.73,0.34,1.6,0.52,2.63,0.52c1.52,0,2.74-0.38,3.67-1.16c0.92-0.78,1.38-1.72,1.38-2.83
			c0-0.53-0.09-0.98-0.26-1.34c-0.18-0.37-0.42-0.69-0.72-0.96c-0.32-0.28-0.65-0.53-1.03-0.74c-0.38-0.19-0.79-0.39-1.23-0.57
			l-5.44-2.24c-1.2-0.49-2.17-1.13-2.94-1.91c-0.76-0.77-1.14-1.89-1.14-3.35c0-0.96,0.21-1.83,0.64-2.58
			c0.43-0.77,0.99-1.41,1.69-1.93c0.71-0.54,1.5-0.94,2.37-1.21C13.17,245.46,14.04,245.32,14.92,245.32"/>
		<path d="M27.47,239.58c0-0.6,0.23-1.11,0.65-1.53c0.42-0.42,0.93-0.64,1.51-0.64c0.59,0,1.1,0.22,1.51,0.64
			c0.43,0.42,0.64,0.93,0.64,1.53c0,0.57-0.21,1.07-0.64,1.5c-0.42,0.43-0.93,0.63-1.51,0.63c-0.58,0-1.09-0.2-1.51-0.63
			C27.69,240.65,27.47,240.15,27.47,239.58 M31.2,267.18c0,1.35-0.52,2.03-1.58,2.03c-1.05,0-1.58-0.68-1.58-2.03v-19.84
			c0-1.34,0.53-2.02,1.58-2.02c1.06,0,1.58,0.67,1.58,2.02V267.18z"/>
		<path d="M39.24,258.66c0.03,1.03,0.22,2.01,0.58,2.96c0.35,0.96,0.82,1.8,1.42,2.54c0.6,0.73,1.32,1.32,2.16,1.76
			c0.83,0.43,1.75,0.64,2.78,0.64c1.26,0,2.3-0.19,3.12-0.57c0.82-0.38,1.51-0.78,2.08-1.23c0.57-0.43,1.07-0.84,1.46-1.22
			c0.4-0.38,0.78-0.58,1.16-0.58c0.43,0,0.79,0.1,1.07,0.31c0.28,0.19,0.42,0.61,0.42,1.23c0,0.34-0.22,0.79-0.66,1.31
			c-0.44,0.53-1.05,1.04-1.84,1.55c-0.78,0.52-1.74,0.95-2.87,1.3c-1.13,0.35-2.36,0.53-3.71,0.53c-1.87,0-3.47-0.36-4.8-1.04
			c-1.33-0.68-2.42-1.6-3.29-2.72c-0.87-1.13-1.5-2.4-1.89-3.84c-0.41-1.43-0.6-2.88-0.6-4.34c0-1.47,0.21-2.92,0.63-4.35
			c0.42-1.43,1.06-2.72,1.91-3.83c0.85-1.14,1.9-2.04,3.16-2.73c1.25-0.71,2.7-1.04,4.34-1.04c1.64,0,3.08,0.31,4.33,0.97
			c1.24,0.64,2.28,1.49,3.11,2.54c0.84,1.05,1.46,2.28,1.9,3.65c0.41,1.37,0.63,2.79,0.63,4.25c0,0.22-0.02,0.43-0.07,0.67
			c-0.05,0.23-0.15,0.44-0.3,0.64c-0.17,0.19-0.39,0.35-0.66,0.45c-0.28,0.13-0.65,0.18-1.12,0.18H39.24z M52.41,256.03
			c-0.02-0.96-0.18-1.93-0.48-2.89c-0.29-0.98-0.71-1.84-1.27-2.62c-0.56-0.78-1.24-1.4-2.05-1.88c-0.81-0.47-1.73-0.7-2.79-0.7
			c-1.04,0-1.98,0.23-2.8,0.7c-0.81,0.48-1.49,1.09-2.04,1.88c-0.54,0.78-0.96,1.64-1.25,2.62c-0.29,0.96-0.45,1.92-0.48,2.89H52.41
			z"/>
		<path d="M62.95,267.18c0,1.35-0.52,2.03-1.58,2.03c-1.05,0-1.58-0.68-1.58-2.03v-19.84c0-1.34,0.53-2.02,1.58-2.02
			c1.06,0,1.58,0.67,1.58,2.02v1.15h0.09c0.58-0.85,1.37-1.6,2.37-2.22c0.99-0.64,2.23-0.95,3.73-0.95c1.02,0,2.04,0.18,3.06,0.52
			c1,0.35,1.9,0.88,2.69,1.58c0.78,0.67,1.43,1.54,1.91,2.58c0.49,1.05,0.73,2.27,0.73,3.68v13.51c0,1.35-0.54,2.03-1.59,2.03
			c-1.05,0-1.58-0.68-1.58-2.03v-13.61c0-1.63-0.51-2.93-1.54-3.9c-1.02-0.96-2.42-1.45-4.17-1.45c-0.72,0-1.43,0.13-2.13,0.4
			c-0.69,0.27-1.3,0.66-1.82,1.17c-0.53,0.51-0.96,1.15-1.27,1.91c-0.33,0.76-0.49,1.64-0.49,2.63V267.18z"/>
		<path d="M87.27,267.18c0,1.35-0.54,2.03-1.58,2.03c-1.06,0-1.59-0.68-1.59-2.03v-18.96h-2.06c-0.53,0-0.89-0.15-1.08-0.47
			c-0.19-0.29-0.29-0.59-0.29-0.85c0-0.26,0.1-0.54,0.29-0.86c0.19-0.3,0.54-0.46,1.08-0.46h2.06v-5.13c0-1.39,0.52-2.06,1.59-2.06
			c1.04,0,1.58,0.67,1.58,2.06v5.13h2.06c0.53,0,0.88,0.16,1.08,0.46c0.19,0.32,0.28,0.6,0.28,0.86c0,0.26-0.09,0.55-0.28,0.85
			c-0.2,0.31-0.55,0.47-1.08,0.47h-2.06V267.18z"/>
		<path d="M96.1,258.66c0.02,1.03,0.22,2.01,0.57,2.96c0.34,0.96,0.83,1.8,1.43,2.54c0.6,0.73,1.31,1.32,2.15,1.76
			c0.83,0.43,1.76,0.64,2.79,0.64c1.25,0,2.3-0.19,3.11-0.57c0.83-0.38,1.53-0.78,2.1-1.23c0.57-0.43,1.05-0.84,1.44-1.22
			c0.4-0.38,0.78-0.58,1.17-0.58c0.44,0,0.79,0.1,1.07,0.31c0.28,0.19,0.41,0.61,0.41,1.23c0,0.34-0.21,0.79-0.65,1.31
			c-0.45,0.53-1.06,1.04-1.85,1.55c-0.78,0.52-1.74,0.95-2.87,1.3c-1.13,0.35-2.36,0.53-3.71,0.53c-1.87,0-3.47-0.36-4.8-1.04
			c-1.34-0.68-2.43-1.6-3.29-2.72c-0.87-1.13-1.5-2.4-1.89-3.84c-0.39-1.43-0.6-2.88-0.6-4.34c0-1.47,0.21-2.92,0.64-4.35
			c0.43-1.43,1.06-2.72,1.91-3.83c0.85-1.14,1.9-2.04,3.17-2.73c1.26-0.71,2.7-1.04,4.36-1.04c1.63,0,3.06,0.31,4.32,0.97
			c1.24,0.64,2.29,1.49,3.11,2.54c0.84,1.05,1.47,2.28,1.89,3.65c0.42,1.37,0.64,2.79,0.64,4.25c0,0.22-0.03,0.43-0.06,0.67
			c-0.05,0.23-0.15,0.44-0.31,0.64c-0.17,0.19-0.37,0.35-0.66,0.45c-0.28,0.13-0.65,0.18-1.12,0.18H96.1z M109.27,256.03
			c-0.03-0.96-0.2-1.93-0.48-2.89c-0.29-0.98-0.72-1.84-1.27-2.62c-0.56-0.78-1.23-1.4-2.05-1.88c-0.8-0.47-1.74-0.7-2.79-0.7
			c-1.05,0-1.99,0.23-2.8,0.7c-0.82,0.48-1.51,1.09-2.05,1.88c-0.54,0.78-0.96,1.64-1.25,2.62c-0.3,0.96-0.46,1.92-0.48,2.89H109.27
			z"/>
		<path d="M116.99,267.18c0-0.55,0.2-1.03,0.6-1.43c0.4-0.39,0.87-0.58,1.43-0.58c0.56,0,1.03,0.2,1.42,0.58
			c0.4,0.4,0.59,0.88,0.59,1.43c0,0.56-0.19,1.04-0.59,1.43c-0.39,0.4-0.86,0.6-1.42,0.6c-0.56,0-1.03-0.21-1.43-0.6
			C117.19,268.22,116.99,267.74,116.99,267.18"/>
		<path d="M137.14,239.58c0-0.6,0.21-1.11,0.64-1.53c0.43-0.42,0.93-0.64,1.51-0.64c0.59,0,1.1,0.22,1.51,0.64
			c0.42,0.42,0.64,0.93,0.64,1.53c0,0.57-0.22,1.07-0.64,1.5c-0.42,0.43-0.92,0.63-1.51,0.63c-0.58,0-1.09-0.2-1.51-0.63
			C137.36,240.65,137.14,240.15,137.14,239.58 M140.88,267.18c0,1.35-0.53,2.03-1.58,2.03c-1.06,0-1.58-0.68-1.58-2.03v-19.84
			c0-1.34,0.53-2.02,1.58-2.02c1.06,0,1.58,0.67,1.58,2.02V267.18z"/>
		<path d="M163.62,267.18c0,1.35-0.53,2.03-1.58,2.03c-1.06,0-1.59-0.68-1.59-2.03v-12.86c0-1.29-0.16-2.32-0.48-3.1
			c-0.32-0.79-0.73-1.42-1.23-1.85c-0.5-0.43-1.06-0.74-1.69-0.89c-0.63-0.16-1.25-0.25-1.86-0.25c-0.64,0-1.29,0.13-1.92,0.4
			c-0.62,0.27-1.2,0.66-1.71,1.17c-0.51,0.51-0.93,1.15-1.25,1.91c-0.33,0.76-0.48,1.64-0.48,2.63v12.86c0,1.35-0.53,2.03-1.58,2.03
			c-1.06,0-1.58-0.68-1.58-2.03v-19.84c0-1.34,0.53-2.02,1.58-2.02c1.06,0,1.58,0.67,1.58,2.02v1.15h0.09
			c0.59-0.85,1.38-1.6,2.37-2.22c1-0.64,2.24-0.95,3.72-0.95c1.39,0,2.62,0.36,3.72,1.07c1.1,0.72,1.92,1.72,2.44,3.02
			c0.78-1.36,1.81-2.37,3.07-3.05c1.25-0.71,2.52-1.04,3.77-1.04c1.03,0,2.04,0.18,3.05,0.52c1.01,0.35,1.92,0.88,2.71,1.58
			c0.78,0.67,1.41,1.54,1.9,2.58c0.49,1.05,0.72,2.27,0.72,3.68v13.51c0,1.35-0.52,2.03-1.58,2.03c-1.04,0-1.58-0.68-1.58-2.03
			v-12.86c0-1.29-0.16-2.32-0.49-3.1c-0.32-0.79-0.72-1.42-1.22-1.85c-0.5-0.43-1.06-0.74-1.69-0.89c-0.63-0.16-1.25-0.25-1.86-0.25
			c-0.64,0-1.29,0.13-1.91,0.4c-0.64,0.27-1.2,0.66-1.72,1.17c-0.52,0.51-0.93,1.15-1.25,1.91c-0.32,0.76-0.49,1.64-0.49,2.63
			V267.18z"/>
		<path d="M198.66,247.34c0-1.34,0.52-2.02,1.58-2.02c1.06,0,1.58,0.67,1.58,2.02v19.84c0,1.35-0.53,2.03-1.58,2.03
			c-1.05,0-1.58-0.68-1.58-2.03v-1.44h-0.13c-0.7,1.15-1.61,2-2.72,2.59c-1.12,0.59-2.36,0.89-3.74,0.89
			c-1.67,0-3.13-0.31-4.38-0.94c-1.27-0.64-2.31-1.5-3.15-2.58c-0.84-1.08-1.47-2.34-1.88-3.8c-0.43-1.45-0.64-3-0.64-4.63
			c0-1.47,0.21-2.92,0.62-4.35c0.41-1.43,1.02-2.72,1.84-3.83c0.81-1.14,1.85-2.04,3.1-2.73c1.25-0.71,2.71-1.04,4.41-1.04
			c1.38,0,2.59,0.28,3.63,0.85c1.04,0.57,2.01,1.44,2.92,2.62h0.13V247.34z M185.44,257.26c0,1.06,0.12,2.13,0.35,3.24
			c0.24,1.11,0.6,2.11,1.12,3.01c0.51,0.89,1.19,1.63,2.04,2.2c0.85,0.57,1.89,0.85,3.12,0.85c1.22,0,2.26-0.27,3.09-0.85
			c0.83-0.57,1.52-1.31,2.04-2.2c0.53-0.9,0.9-1.9,1.12-3.01c0.22-1.11,0.33-2.19,0.33-3.24c0-1.05-0.11-2.13-0.33-3.24
			c-0.22-1.12-0.59-2.13-1.12-3.01c-0.52-0.89-1.21-1.63-2.04-2.21c-0.83-0.56-1.87-0.85-3.09-0.85c-1.2,0-2.21,0.29-3.05,0.85
			c-0.83,0.58-1.51,1.31-2.04,2.21c-0.53,0.88-0.92,1.89-1.16,3.01C185.57,255.13,185.44,256.21,185.44,257.26"/>
		<path d="M223.07,247.34c0-1.34,0.53-2.02,1.58-2.02c1.06,0,1.58,0.67,1.58,2.02v20.51c0,1.8-0.29,3.39-0.88,4.73
			c-0.59,1.32-1.36,2.43-2.31,3.28c-0.96,0.87-2.03,1.51-3.25,1.94c-1.21,0.43-2.47,0.63-3.75,0.63c-1.18,0-2.29-0.15-3.36-0.44
			c-1.06-0.29-2.01-0.65-2.85-1.07c-0.84-0.43-1.5-0.88-2-1.37c-0.5-0.48-0.74-0.92-0.74-1.33c0-0.48,0.12-0.87,0.37-1.17
			c0.25-0.31,0.64-0.46,1.2-0.46c0.32,0,0.69,0.15,1.12,0.46c0.42,0.3,0.92,0.63,1.49,1.01c0.58,0.36,1.22,0.7,1.96,1.01
			c0.72,0.31,1.56,0.47,2.49,0.47c0.95,0,1.85-0.14,2.72-0.43c0.88-0.28,1.66-0.71,2.35-1.31c0.68-0.6,1.23-1.37,1.65-2.31
			c0.41-0.94,0.61-2.06,0.61-3.38v-2.47h-0.08c-0.67,1.2-1.58,2.1-2.71,2.69c-1.12,0.59-2.38,0.89-3.8,0.89
			c-1.66,0-3.12-0.31-4.39-0.94c-1.25-0.64-2.29-1.5-3.12-2.58c-0.84-1.08-1.47-2.34-1.9-3.8c-0.42-1.45-0.63-3-0.63-4.63
			c0-1.47,0.21-2.92,0.61-4.35c0.41-1.43,1.03-2.72,1.85-3.83c0.82-1.14,1.84-2.04,3.09-2.73c1.25-0.71,2.71-1.04,4.42-1.04
			c1.4,0,2.68,0.33,3.84,1.02c1.16,0.66,2.07,1.47,2.75,2.4h0.08V247.34z M209.86,257.26c0,1.06,0.1,2.13,0.34,3.24
			c0.24,1.11,0.61,2.11,1.12,3.01c0.52,0.89,1.2,1.63,2.04,2.2c0.86,0.57,1.89,0.85,3.12,0.85c1.06,0,2-0.21,2.83-0.63
			c0.84-0.44,1.53-0.99,2.09-1.67c0.56-0.7,0.99-1.45,1.27-2.28c0.29-0.83,0.45-1.66,0.45-2.49v-4.47c0-0.81-0.15-1.65-0.45-2.49
			c-0.28-0.83-0.71-1.59-1.27-2.28c-0.55-0.69-1.25-1.24-2.09-1.67c-0.83-0.42-1.77-0.64-2.83-0.64c-1.22,0-2.26,0.29-3.12,0.85
			c-0.84,0.58-1.52,1.31-2.04,2.21c-0.52,0.88-0.88,1.89-1.12,3.01C209.97,255.13,209.86,256.21,209.86,257.26"/>
		<path d="M231.45,239.58c0-0.6,0.21-1.11,0.64-1.53c0.43-0.42,0.93-0.64,1.52-0.64c0.59,0,1.09,0.22,1.52,0.64
			c0.42,0.42,0.63,0.93,0.63,1.53c0,0.57-0.21,1.07-0.63,1.5c-0.43,0.43-0.92,0.63-1.52,0.63c-0.58,0-1.09-0.2-1.52-0.63
			C231.67,240.65,231.45,240.15,231.45,239.58 M235.19,267.18c0,1.35-0.53,2.03-1.59,2.03c-1.06,0-1.58-0.68-1.58-2.03v-19.84
			c0-1.34,0.52-2.02,1.58-2.02c1.06,0,1.59,0.67,1.59,2.02V267.18z"/>
		<path d="M244.14,267.18c0,1.35-0.53,2.03-1.58,2.03c-1.06,0-1.59-0.68-1.59-2.03v-19.84c0-1.34,0.53-2.02,1.59-2.02
			c1.05,0,1.58,0.67,1.58,2.02v1.15h0.09c0.58-0.85,1.37-1.6,2.37-2.22c0.99-0.64,2.24-0.95,3.72-0.95c1.03,0,2.05,0.18,3.05,0.52
			c1,0.35,1.91,0.88,2.71,1.58c0.78,0.67,1.41,1.54,1.9,2.58c0.48,1.05,0.73,2.27,0.73,3.68v13.51c0,1.35-0.53,2.03-1.58,2.03
			c-1.05,0-1.58-0.68-1.58-2.03v-13.61c0-1.63-0.51-2.93-1.54-3.9c-1.03-0.96-2.42-1.45-4.17-1.45c-0.73,0-1.43,0.13-2.12,0.4
			c-0.68,0.27-1.3,0.66-1.83,1.17c-0.52,0.51-0.95,1.15-1.27,1.91c-0.33,0.76-0.48,1.64-0.48,2.63V267.18z"/>
		<path d="M279.97,247.34c0-1.34,0.52-2.02,1.57-2.02c1.05,0,1.59,0.67,1.59,2.02v19.84c0,1.35-0.53,2.03-1.59,2.03
			c-1.05,0-1.57-0.68-1.57-2.03v-1.44h-0.14c-0.7,1.15-1.61,2-2.72,2.59c-1.11,0.59-2.35,0.89-3.73,0.89
			c-1.67,0-3.13-0.31-4.39-0.94c-1.26-0.64-2.3-1.5-3.14-2.58c-0.83-1.08-1.46-2.34-1.89-3.8c-0.42-1.45-0.62-3-0.62-4.63
			c0-1.47,0.2-2.92,0.61-4.35c0.41-1.43,1.02-2.72,1.84-3.83c0.83-1.14,1.84-2.04,3.1-2.73c1.25-0.71,2.71-1.04,4.4-1.04
			c1.37,0,2.58,0.28,3.62,0.85c1.04,0.57,2.02,1.44,2.92,2.62h0.14V247.34z M266.75,257.26c0,1.06,0.11,2.13,0.36,3.24
			c0.24,1.11,0.6,2.11,1.11,3.01c0.51,0.89,1.19,1.63,2.04,2.2c0.85,0.57,1.88,0.85,3.12,0.85c1.23,0,2.26-0.27,3.09-0.85
			c0.83-0.57,1.52-1.31,2.04-2.2c0.53-0.9,0.9-1.9,1.13-3.01c0.22-1.11,0.33-2.19,0.33-3.24c0-1.05-0.12-2.13-0.33-3.24
			c-0.23-1.12-0.59-2.13-1.13-3.01c-0.52-0.89-1.21-1.63-2.04-2.21c-0.83-0.56-1.86-0.85-3.09-0.85c-1.2,0-2.22,0.29-3.05,0.85
			c-0.83,0.58-1.51,1.31-2.04,2.21c-0.52,0.88-0.91,1.89-1.15,3.01C266.88,255.13,266.75,256.21,266.75,257.26"/>
		<path d="M289.27,267.18c0-0.55,0.2-1.03,0.59-1.43c0.4-0.39,0.88-0.58,1.43-0.58c0.57,0,1.04,0.2,1.43,0.58
			c0.4,0.4,0.6,0.88,0.6,1.43c0,0.56-0.19,1.04-0.6,1.43c-0.39,0.4-0.86,0.6-1.43,0.6c-0.55,0-1.02-0.21-1.43-0.6
			C289.48,268.22,289.27,267.74,289.27,267.18"/>
		<path d="M313.16,267.18c0,1.35-0.52,2.03-1.58,2.03c-1.05,0-1.58-0.68-1.58-2.03v-30.12c0-1.35,0.53-2.01,1.58-2.01
			c1.06,0,1.58,0.66,1.58,2.01v11.43h0.09c0.59-0.85,1.37-1.6,2.37-2.22c1-0.64,2.23-0.95,3.73-0.95c1.02,0,2.04,0.18,3.05,0.52
			c1,0.35,1.91,0.88,2.7,1.58c0.78,0.67,1.42,1.54,1.91,2.58c0.49,1.05,0.71,2.27,0.71,3.68v13.51c0,1.35-0.52,2.03-1.58,2.03
			c-1.04,0-1.57-0.68-1.57-2.03v-13.61c0-1.63-0.51-2.93-1.54-3.9c-1.03-0.96-2.42-1.45-4.17-1.45c-0.74,0-1.44,0.13-2.14,0.4
			c-0.69,0.27-1.29,0.66-1.82,1.17c-0.52,0.51-0.95,1.15-1.26,1.91c-0.33,0.76-0.49,1.64-0.49,2.63V267.18z"/>
		<path d="M348.99,247.34c0-1.34,0.52-2.02,1.58-2.02c1.05,0,1.58,0.67,1.58,2.02v19.84c0,1.35-0.53,2.03-1.58,2.03
			c-1.06,0-1.58-0.68-1.58-2.03v-1.44h-0.13c-0.71,1.15-1.62,2-2.72,2.59c-1.11,0.59-2.35,0.89-3.73,0.89
			c-1.68,0-3.13-0.31-4.4-0.94c-1.26-0.64-2.3-1.5-3.14-2.58c-0.83-1.08-1.47-2.34-1.88-3.8c-0.42-1.45-0.64-3-0.64-4.63
			c0-1.47,0.2-2.92,0.6-4.35c0.41-1.43,1.03-2.72,1.85-3.83c0.81-1.14,1.86-2.04,3.11-2.73c1.24-0.71,2.7-1.04,4.41-1.04
			c1.37,0,2.58,0.28,3.61,0.85c1.06,0.57,2.02,1.44,2.94,2.62h0.13V247.34z M335.77,257.26c0,1.06,0.12,2.13,0.35,3.24
			c0.23,1.11,0.6,2.11,1.12,3.01c0.51,0.89,1.19,1.63,2.05,2.2c0.84,0.57,1.89,0.85,3.12,0.85c1.22,0,2.25-0.27,3.09-0.85
			c0.82-0.57,1.51-1.31,2.04-2.2c0.53-0.9,0.9-1.9,1.12-3.01c0.22-1.11,0.33-2.19,0.33-3.24c0-1.05-0.12-2.13-0.33-3.24
			c-0.22-1.12-0.59-2.13-1.12-3.01c-0.54-0.89-1.22-1.63-2.04-2.21c-0.84-0.56-1.87-0.85-3.09-0.85c-1.2,0-2.23,0.29-3.06,0.85
			c-0.84,0.58-1.52,1.31-2.05,2.21c-0.51,0.88-0.91,1.89-1.15,3.01C335.9,255.13,335.77,256.21,335.77,257.26"/>
		<path d="M360.35,266.04h11.33c0.5,0,0.89,0.14,1.2,0.42c0.31,0.27,0.47,0.62,0.47,1.03c0,0.42-0.15,0.75-0.47,1.03
			c-0.31,0.28-0.7,0.42-1.2,0.42h-13.58c-0.79,0-1.28-0.16-1.51-0.46c-0.21-0.3-0.31-0.57-0.31-0.8c0-0.37,0.05-0.71,0.16-0.96
			c0.12-0.25,0.29-0.54,0.52-0.89l11.73-17.34h-10.27c-0.5,0-0.91-0.15-1.21-0.43c-0.31-0.28-0.46-0.62-0.46-1.03
			c0-0.42,0.15-0.74,0.46-1.04c0.3-0.28,0.71-0.41,1.21-0.41h12.6c0.64,0,1.09,0.1,1.36,0.33c0.26,0.23,0.4,0.5,0.4,0.85
			c0,0.4-0.06,0.72-0.19,0.99c-0.1,0.29-0.28,0.6-0.51,0.96L360.35,266.04z"/>
		<path d="M377.78,267.18c0-0.55,0.21-1.03,0.6-1.43c0.4-0.39,0.87-0.58,1.44-0.58c0.55,0,1.03,0.2,1.41,0.58
			c0.4,0.4,0.6,0.88,0.6,1.43c0,0.56-0.2,1.04-0.6,1.43c-0.39,0.4-0.86,0.6-1.41,0.6c-0.57,0-1.03-0.21-1.44-0.6
			C377.99,268.22,377.78,267.74,377.78,267.18"/>
		<path d="M407.38,266.32c0.7,0,1.3-0.08,1.82-0.22c0.51-0.13,0.96-0.27,1.29-0.41c0.34-0.15,0.65-0.29,0.89-0.42
			c0.26-0.12,0.49-0.19,0.72-0.19c0.3,0,0.6,0.12,0.89,0.33c0.28,0.25,0.43,0.55,0.43,0.94c0,0.49-0.16,0.92-0.5,1.27
			c-0.33,0.36-0.79,0.66-1.37,0.88c-0.57,0.23-1.22,0.42-1.92,0.54c-0.73,0.1-1.48,0.18-2.27,0.18c-1.65,0-3.08-0.36-4.36-1.04
			c-1.26-0.68-2.3-1.6-3.16-2.72c-0.84-1.13-1.47-2.4-1.91-3.84c-0.42-1.43-0.64-2.88-0.64-4.34c0-1.47,0.23-2.92,0.7-4.35
			c0.48-1.43,1.16-2.72,2.05-3.83c0.89-1.14,1.98-2.04,3.28-2.73c1.29-0.71,2.76-1.04,4.43-1.04c0.74,0,1.45,0.06,2.16,0.2
			c0.71,0.13,1.31,0.29,1.86,0.52c0.54,0.22,0.97,0.5,1.3,0.79c0.32,0.31,0.48,0.63,0.48,0.95c0,0.49-0.15,0.92-0.43,1.25
			c-0.26,0.34-0.72,0.51-1.33,0.51c-0.2,0-0.43-0.07-0.64-0.22c-0.22-0.12-0.49-0.27-0.82-0.44c-0.31-0.17-0.71-0.34-1.2-0.47
			c-0.47-0.12-1.08-0.19-1.78-0.19c-1.1,0-2.07,0.29-2.93,0.87c-0.83,0.56-1.53,1.28-2.07,2.14c-0.56,0.86-0.97,1.8-1.23,2.83
			c-0.26,1.02-0.4,2-0.4,2.94c0,1.24,0.16,2.43,0.46,3.53c0.3,1.13,0.75,2.12,1.31,2.97c0.58,0.87,1.27,1.54,2.1,2.05
			C405.43,266.04,406.35,266.32,407.38,266.32"/>
		<path d="M436.93,257.26c0,1.63-0.22,3.18-0.64,4.63c-0.43,1.46-1.06,2.72-1.89,3.8c-0.82,1.07-1.88,1.94-3.14,2.58
			c-1.26,0.63-2.72,0.94-4.39,0.94c-1.66,0-3.13-0.31-4.4-0.94c-1.25-0.64-2.29-1.5-3.13-2.58c-0.83-1.08-1.47-2.34-1.88-3.8
			c-0.43-1.45-0.64-3-0.64-4.63c0-1.47,0.21-2.92,0.62-4.35c0.4-1.43,1.02-2.72,1.83-3.83c0.81-1.14,1.86-2.04,3.12-2.73
			c1.26-0.71,2.76-1.04,4.48-1.04c1.73,0,3.23,0.33,4.48,1.04c1.26,0.68,2.31,1.58,3.15,2.73c0.82,1.12,1.44,2.4,1.83,3.83
			C436.73,254.35,436.93,255.79,436.93,257.26 M420.24,257.26c0,1.06,0.12,2.13,0.36,3.24c0.22,1.11,0.6,2.11,1.11,3.01
			c0.52,0.89,1.19,1.63,2.05,2.2c0.85,0.57,1.89,0.85,3.11,0.85c1.24,0,2.28-0.27,3.12-0.85c0.85-0.57,1.53-1.31,2.04-2.2
			c0.51-0.9,0.88-1.9,1.12-3.01c0.22-1.11,0.35-2.19,0.35-3.24c0-1.05-0.12-2.13-0.35-3.24c-0.23-1.12-0.61-2.13-1.12-3.01
			c-0.51-0.89-1.2-1.63-2.04-2.21c-0.84-0.56-1.88-0.85-3.12-0.85c-1.23,0-2.26,0.29-3.11,0.85c-0.85,0.58-1.53,1.31-2.05,2.21
			c-0.5,0.88-0.88,1.89-1.11,3.01C420.36,255.13,420.24,256.21,420.24,257.26"/>
		<path d="M458.48,267.18c0,1.35-0.52,2.03-1.58,2.03c-1.05,0-1.58-0.68-1.58-2.03v-12.86c0-1.29-0.17-2.32-0.49-3.1
			c-0.32-0.79-0.74-1.42-1.23-1.85c-0.5-0.43-1.06-0.74-1.69-0.89c-0.63-0.16-1.24-0.25-1.86-0.25c-0.65,0-1.28,0.13-1.91,0.4
			c-0.63,0.27-1.21,0.66-1.71,1.17c-0.51,0.51-0.94,1.15-1.26,1.91c-0.33,0.76-0.48,1.64-0.48,2.63v12.86
			c0,1.35-0.53,2.03-1.58,2.03s-1.58-0.68-1.58-2.03v-19.84c0-1.34,0.53-2.02,1.58-2.02s1.58,0.67,1.58,2.02v1.15h0.08
			c0.59-0.85,1.37-1.6,2.38-2.22c0.99-0.64,2.24-0.95,3.72-0.95c1.37,0,2.61,0.36,3.71,1.07c1.09,0.72,1.91,1.72,2.44,3.02
			c0.79-1.36,1.81-2.37,3.08-3.05c1.26-0.71,2.51-1.04,3.76-1.04c1.02,0,2.04,0.18,3.05,0.52c1.01,0.35,1.92,0.88,2.71,1.58
			c0.78,0.67,1.43,1.54,1.91,2.58c0.47,1.05,0.72,2.27,0.72,3.68v13.51c0,1.35-0.52,2.03-1.58,2.03c-1.05,0-1.58-0.68-1.58-2.03
			v-12.86c0-1.29-0.17-2.32-0.48-3.1c-0.33-0.79-0.74-1.42-1.23-1.85c-0.51-0.43-1.06-0.74-1.69-0.89
			c-0.64-0.16-1.26-0.25-1.88-0.25c-0.64,0-1.27,0.13-1.9,0.4c-0.62,0.27-1.2,0.66-1.72,1.17c-0.52,0.51-0.92,1.15-1.25,1.91
			c-0.33,0.76-0.49,1.64-0.49,2.63V267.18z"/>
		<path d="M478.07,247.34c0-1.34,0.53-2.02,1.57-2.02c1.06,0,1.58,0.67,1.58,2.02v1.45h0.14c0.7-1.14,1.61-2.02,2.72-2.6
			c1.11-0.59,2.37-0.87,3.74-0.87c1.65,0,3.12,0.31,4.39,0.95c1.26,0.62,2.3,1.48,3.14,2.56c0.83,1.09,1.47,2.35,1.89,3.79
			c0.42,1.47,0.64,3,0.64,4.64c0,1.46-0.19,2.91-0.62,4.34c-0.4,1.44-1.01,2.72-1.84,3.84c-0.81,1.13-1.85,2.04-3.1,2.72
			c-1.24,0.68-2.71,1.04-4.41,1.04c-1.37,0-2.59-0.29-3.62-0.85c-1.05-0.58-2.01-1.45-2.92-2.62h-0.14v10.67
			c0,1.35-0.53,2.02-1.58,2.02c-1.04,0-1.57-0.67-1.57-2.02V247.34z M481.18,257.26c0,1.06,0.13,2.13,0.36,3.24
			c0.23,1.11,0.6,2.11,1.12,3.01c0.51,0.89,1.19,1.63,2.05,2.2c0.85,0.57,1.88,0.85,3.12,0.85c1.22,0,2.25-0.27,3.11-0.85
			c0.85-0.57,1.52-1.31,2.04-2.2c0.51-0.9,0.89-1.9,1.11-3.01c0.24-1.11,0.36-2.19,0.36-3.24c0-1.05-0.12-2.13-0.36-3.24
			c-0.22-1.12-0.6-2.13-1.11-3.01c-0.52-0.89-1.19-1.63-2.04-2.21c-0.86-0.56-1.89-0.85-3.11-0.85c-1.24,0-2.27,0.29-3.12,0.85
			c-0.85,0.58-1.54,1.31-2.05,2.21c-0.52,0.88-0.88,1.89-1.12,3.01C481.31,255.13,481.18,256.21,481.18,257.26"/>
		<path d="M517.93,247.34c0-1.34,0.53-2.02,1.58-2.02c1.05,0,1.58,0.67,1.58,2.02v19.84c0,1.35-0.53,2.03-1.58,2.03
			c-1.06,0-1.58-0.68-1.58-2.03v-1.44h-0.13c-0.7,1.15-1.61,2-2.72,2.59c-1.11,0.59-2.36,0.89-3.73,0.89
			c-1.66,0-3.13-0.31-4.39-0.94c-1.26-0.64-2.29-1.5-3.13-2.58c-0.85-1.08-1.47-2.34-1.89-3.8c-0.43-1.45-0.64-3-0.64-4.63
			c0-1.47,0.2-2.92,0.61-4.35c0.41-1.43,1.03-2.72,1.86-3.83c0.81-1.14,1.84-2.04,3.09-2.73c1.24-0.71,2.72-1.04,4.42-1.04
			c1.37,0,2.58,0.28,3.62,0.85c1.03,0.57,2.02,1.44,2.92,2.62h0.13V247.34z M504.71,257.26c0,1.06,0.13,2.13,0.36,3.24
			c0.22,1.11,0.61,2.11,1.12,3.01c0.52,0.89,1.2,1.63,2.04,2.2c0.85,0.57,1.88,0.85,3.11,0.85c1.24,0,2.26-0.27,3.1-0.85
			c0.83-0.57,1.5-1.31,2.04-2.2c0.53-0.9,0.91-1.9,1.12-3.01c0.22-1.11,0.33-2.19,0.33-3.24c0-1.05-0.11-2.13-0.33-3.24
			c-0.22-1.12-0.6-2.13-1.12-3.01c-0.54-0.89-1.21-1.63-2.04-2.21c-0.84-0.56-1.86-0.85-3.1-0.85c-1.19,0-2.22,0.29-3.04,0.85
			c-0.84,0.58-1.52,1.31-2.05,2.21c-0.53,0.88-0.92,1.89-1.16,3.01C504.84,255.13,504.71,256.21,504.71,257.26"/>
		<path d="M530.05,267.18c0,1.35-0.52,2.03-1.59,2.03c-1.06,0-1.57-0.68-1.57-2.03v-19.84c0-1.34,0.51-2.02,1.57-2.02
			c1.07,0,1.59,0.67,1.59,2.02v2.2h0.08c0.59-1.33,1.34-2.36,2.26-3.11c0.92-0.75,1.88-1.12,2.88-1.12c0.77,0,1.29,0.18,1.62,0.52
			c0.33,0.35,0.48,0.74,0.48,1.19c0,0.44-0.16,0.78-0.5,1.06c-0.33,0.25-0.88,0.47-1.65,0.64c-0.43,0.1-0.95,0.27-1.55,0.54
			c-0.59,0.26-1.16,0.65-1.68,1.2c-0.53,0.53-0.99,1.24-1.36,2.1c-0.38,0.88-0.57,1.94-0.57,3.23V267.18z"/>
		<path d="M544.67,267.18c0,1.35-0.53,2.03-1.58,2.03c-1.06,0-1.58-0.68-1.58-2.03v-18.96h-2.06c-0.53,0-0.89-0.15-1.08-0.47
			c-0.19-0.29-0.29-0.59-0.29-0.85c0-0.26,0.09-0.54,0.29-0.86c0.19-0.3,0.55-0.46,1.08-0.46h2.06v-5.13c0-1.39,0.51-2.06,1.58-2.06
			c1.06,0,1.58,0.67,1.58,2.06v5.13h2.06c0.52,0,0.88,0.16,1.07,0.46c0.19,0.32,0.28,0.6,0.28,0.86c0,0.26-0.08,0.55-0.28,0.85
			c-0.19,0.31-0.55,0.47-1.07,0.47h-2.06V267.18z"/>
		<path d="M553.49,258.66c0.03,1.03,0.22,2.01,0.58,2.96c0.35,0.96,0.82,1.8,1.43,2.54c0.59,0.73,1.32,1.32,2.14,1.76
			c0.85,0.43,1.76,0.64,2.79,0.64c1.26,0,2.3-0.19,3.12-0.57c0.81-0.38,1.51-0.78,2.08-1.23c0.58-0.43,1.06-0.84,1.45-1.22
			c0.4-0.38,0.78-0.58,1.16-0.58c0.45,0,0.8,0.1,1.08,0.31c0.27,0.19,0.41,0.61,0.41,1.23c0,0.34-0.21,0.79-0.65,1.31
			c-0.44,0.53-1.05,1.04-1.84,1.55c-0.8,0.52-1.75,0.95-2.87,1.3c-1.13,0.35-2.37,0.53-3.71,0.53c-1.88,0-3.49-0.36-4.81-1.04
			c-1.34-0.68-2.44-1.6-3.3-2.72c-0.87-1.13-1.49-2.4-1.88-3.84c-0.4-1.43-0.6-2.88-0.6-4.34c0-1.47,0.22-2.92,0.64-4.35
			c0.42-1.43,1.06-2.72,1.91-3.83c0.84-1.14,1.9-2.04,3.15-2.73c1.26-0.71,2.71-1.04,4.35-1.04c1.64,0,3.08,0.31,4.31,0.97
			c1.25,0.64,2.28,1.49,3.13,2.54c0.84,1.05,1.45,2.28,1.89,3.65c0.43,1.37,0.63,2.79,0.63,4.25c0,0.22-0.01,0.43-0.06,0.67
			c-0.05,0.23-0.14,0.44-0.3,0.64c-0.17,0.19-0.39,0.35-0.67,0.45c-0.28,0.13-0.64,0.18-1.12,0.18H553.49z M566.66,256.03
			c-0.03-0.96-0.19-1.93-0.48-2.89c-0.29-0.98-0.72-1.84-1.26-2.62c-0.56-0.78-1.25-1.4-2.05-1.88c-0.8-0.47-1.74-0.7-2.79-0.7
			c-1.05,0-1.99,0.23-2.8,0.7c-0.82,0.48-1.51,1.09-2.04,1.88c-0.53,0.78-0.96,1.64-1.25,2.62c-0.29,0.96-0.46,1.92-0.49,2.89
			H566.66z"/>
	</g>
	<path d="M16.39,157.2c0.36,2.44,1.41,4.22,3.14,5.34c1.74,1.13,3.75,1.69,6.05,1.69c1.25,0,2.41-0.2,3.47-0.61
		c1.06-0.41,2.03-0.86,2.94-1.35c0.9-0.49,1.73-0.93,2.5-1.34c0.76-0.41,1.45-0.6,2.08-0.6c1.04,0,1.96,0.44,2.78,1.31
		c0.81,0.89,1.21,1.83,1.21,2.88c0,1.03-0.48,2.04-1.45,3.03c-0.97,0.99-2.22,1.88-3.75,2.64c-1.53,0.76-3.25,1.38-5.14,1.86
		c-1.88,0.46-3.73,0.71-5.53,0.71c-2.75,0-5.22-0.47-7.46-1.42c-2.22-0.94-4.13-2.25-5.73-3.9c-1.6-1.68-2.83-3.64-3.71-5.91
		c-0.87-2.28-1.31-4.76-1.31-7.46c0-2.47,0.43-4.85,1.28-7.11c0.85-2.27,2.04-4.28,3.58-6.01c1.53-1.73,3.36-3.11,5.5-4.15
		c2.14-1.04,4.48-1.55,7.05-1.55c2.61,0,2.83-0.55,4.99,0.54c2.16,1.08,6.17,3.55,7.69,5.26c1.53,1.72,2.72,3.62,3.55,5.71
		c0.83,2.09,1.25,4.15,1.25,6.17c0,1.44-0.35,2.53-1.03,3.24c-0.67,0.72-1.74,1.07-3.22,1.07H16.39z M31.64,150.73
		c-0.27-2.16-1.05-3.94-2.36-5.34c-1.31-1.4-3.11-2.09-5.4-2.09c-2.16,0-3.93,0.72-5.3,2.16c-1.37,1.45-2.17,3.2-2.39,5.27H31.64z"
		/>
	<path d="M44.66,125.36c0-1.61,0.45-2.93,1.35-3.92c0.9-0.99,2.07-1.48,3.51-1.48c1.44,0,2.61,0.49,3.52,1.48
		c0.89,0.99,1.35,2.31,1.35,3.92v41.56c0,1.62-0.46,2.93-1.35,3.92c-0.9,0.99-2.08,1.47-3.52,1.47c-1.44,0-2.61-0.48-3.51-1.47
		c-0.89-0.99-1.35-2.3-1.35-3.92V125.36z"/>
	<path d="M67.31,170.91c0-7.27,1.17-14.03,3.49-20.27c2.33-6.26,5.62-11.68,9.86-16.3c4.25-4.62,9.3-8.24,15.17-10.9
		c5.88-2.66,12.4-3.99,19.58-3.99c2.52,0,5.49,0.23,8.95,0.69c3.45,0.47,6.74,1.31,9.86,2.52c3.13,1.22,5.79,2.82,7.98,4.83
		c2.18,2.01,3.28,4.55,3.28,7.62c0,2.52-0.8,4.71-2.38,6.58c-1.59,1.87-3.69,2.79-6.29,2.79c-1.4,0-2.76-0.25-4.05-0.76
		c-1.3-0.52-2.75-1.08-4.33-1.68c-1.59-0.61-3.43-1.18-5.53-1.68c-2.1-0.52-4.6-0.77-7.48-0.77c-4.39,0-8.21,0.86-11.48,2.58
		c-3.25,1.73-5.99,4.04-8.18,6.92c-2.18,2.89-3.84,6.25-4.96,10.08c-1.12,3.82-1.68,7.88-1.68,12.17c0,4.19,0.56,8.15,1.68,11.88
		c1.12,3.73,2.8,6.99,5.04,9.79c2.24,2.8,4.99,5.04,8.25,6.72c3.25,1.67,7.03,2.51,11.33,2.51c2.88,0,5.42-0.29,7.62-0.92
		c2.19-0.59,4.12-1.27,5.81-2.02c1.68-0.75,3.21-1.42,4.61-2.03c1.41-0.6,2.8-0.92,4.2-0.92c1.59,0,2.96,0.36,4.12,1.05
		c1.17,0.71,2.13,1.54,2.87,2.52c0.74,0.98,1.31,2.01,1.68,3.08c0.37,1.06,0.56,2.02,0.56,2.87c0,3.35-1.17,6.09-3.5,8.25
		c-2.33,2.14-5.12,3.83-8.39,5.03c-3.27,1.23-6.69,2.06-10.28,2.52c-3.6,0.46-6.7,0.7-9.3,0.7c-7.09,0-13.59-1.33-19.52-3.99
		c-5.92-2.65-10.99-6.29-15.24-10.91c-4.24-4.61-7.53-10.05-9.86-16.29C68.47,184.94,67.31,178.19,67.31,170.91"/>
	<path d="M256.15,131.06c0.2-1.21,0.68-2.48,1.48-3.78c0.79-1.31,1.77-2.47,2.93-3.49c1.17-1.02,2.54-1.86,4.11-2.52
		c1.58-0.65,3.32-0.98,5.18-0.98c3.54,0,6.58,1.05,9.1,3.15c2.52,2.1,4.15,4.4,4.9,6.92l16.5,55.39h0.29l16.49-55.39
		c0.74-2.51,2.37-4.82,4.89-6.92c2.52-2.1,5.55-3.15,9.09-3.15c1.86,0,3.58,0.33,5.18,0.98c1.59,0.66,2.96,1.5,4.12,2.52
		c1.16,1.03,2.13,2.18,2.93,3.49c0.79,1.3,1.28,2.57,1.47,3.78l13,78.02c0.1,0.47,0.14,0.9,0.14,1.26v1.13
		c0,3.08-0.98,5.52-2.93,7.35c-1.96,1.82-4.34,2.72-7.13,2.72c-3.54,0-6.13-0.82-7.76-2.45c-1.64-1.63-2.69-4.08-3.14-7.33
		l-8.26-56.93h-0.28l-16.77,58.6c-0.28,0.84-0.67,1.72-1.12,2.65c-0.47,0.93-1.15,1.82-2.03,2.66s-1.98,1.52-3.29,2.03
		c-1.3,0.51-2.89,0.78-4.75,0.78c-1.86,0-3.45-0.26-4.75-0.78c-1.31-0.5-2.41-1.18-3.28-2.03c-0.9-0.85-1.56-1.73-2.03-2.66
		c-0.47-0.92-0.84-1.81-1.13-2.65l-16.77-58.6h-0.28l-8.26,56.93c-0.46,3.26-1.51,5.71-3.14,7.33c-1.62,1.63-4.22,2.45-7.75,2.45
		c-2.8,0-5.19-0.91-7.14-2.72c-1.97-1.83-2.94-4.27-2.94-7.35v-1.13c0-0.36,0.04-0.78,0.14-1.26L256.15,131.06z"/>
	<path d="M416.97,167.24c-0.92-0.25-2.18-0.52-4.49-0.75v-0.29c4.57-2.19,7.93-4.97,10.07-8.36c2.14-3.37,3.21-7.58,3.21-12.62
		c0-3.81-0.71-7.25-2.13-10.34c-1.44-3.1-3.36-5.75-5.78-7.92c-2.42-2.19-5.25-3.88-8.49-5.07c-3.24-1.19-6.71-1.8-10.42-1.8h-23.86
		c-3.35,0-6.04,0.94-8.14,2.79c-2.1,1.86-3.14,4.49-3.14,7.93v80.08c0,3.31,1.08,5.98,3.22,7.92c2.13,1.96,4.87,2.92,8.2,2.92h25.86
		c4.95,0,9.46-0.66,13.51-1.99c4.04-1.34,7.51-3.31,10.41-5.93c2.9-2.62,5.16-5.84,6.78-9.71c1.61-3.86,2.41-8.29,2.41-13.33
		c0-3.14-0.62-6.07-1.7-8.84c-1.44-3.72-3.56-7.47-5.93-9.53C426.49,172.34,422.55,168.71,416.97,167.24 M385.2,138.95h7.6
		c3.13,0,5.85,0.85,8.13,2.57c2.29,1.71,3.44,4.23,3.44,7.56c0,3.61-1.05,6.4-3.15,8.34c-2.09,1.96-4.9,2.93-8.41,2.93h-7.6V138.95z
		 M408.14,199.68c-2.52,2.13-5.73,3.21-9.62,3.21H385.2v-23.69h11.6c5.04,0,8.82,1.05,11.34,3.13c2.52,2.11,3.78,4.83,3.78,8.14
		C411.92,194.46,410.66,197.53,408.14,199.68"/>
	<path d="M443.64,131.35c0-3.53,0.99-6.24,3-8.1c2-1.86,4.5-2.8,7.48-2.8s5.49,0.94,7.48,2.8c2,1.87,3.02,4.57,3.02,8.1v79.44
		c0,3.54-1.02,6.24-3.02,8.1c-2,1.87-4.5,2.81-7.48,2.81s-5.48-0.94-7.48-2.81c-2-1.86-3-4.56-3-8.1V131.35z"/>
	<g>
		<g>
			<path d="M38.41,2.65c2,0,4.58,0.21,7.73,0.64c3.15,0.43,6.23,1.19,9.24,2.29c3.01,1.1,5.61,2.55,7.8,4.37
				c2.2,1.81,3.29,4.15,3.29,7.02c0,2.77-0.86,5.23-2.58,7.37c-1.72,2.15-4.06,3.22-7.02,3.22c-1.43,0-2.84-0.21-4.22-0.64
				c-1.39-0.43-2.82-0.93-4.3-1.5c-1.48-0.57-3.08-1.07-4.8-1.5c-1.72-0.43-3.63-0.64-5.73-0.64c-3.06,0-5.78,0.79-8.16,2.36
				c-2.39,1.58-3.58,3.89-3.58,6.94c0,2.48,1.17,4.39,3.51,5.73c2.34,1.34,5.3,2.53,8.88,3.58c3.58,1.05,7.42,2.22,11.53,3.51
				c4.1,1.29,7.95,3.08,11.53,5.37c3.58,2.29,6.54,5.35,8.88,9.16c2.34,3.82,3.51,8.78,3.51,14.89c0,5.16-0.98,9.79-2.94,13.89
				c-1.96,4.11-4.61,7.59-7.95,10.45c-3.34,2.86-7.23,5.06-11.67,6.59s-9.14,2.29-14.1,2.29c-2.77,0-6.13-0.21-10.09-0.65
				c-3.96-0.43-7.78-1.22-11.46-2.36c-3.68-1.15-6.8-2.77-9.38-4.87c-2.58-2.1-3.87-4.82-3.87-8.16c0-2.77,0.86-5.15,2.58-7.16
				c1.72-2,4.06-3.01,7.02-3.01c1.72,0,3.48,0.29,5.3,0.86c1.81,0.57,3.72,1.22,5.73,1.93c2,0.71,4.1,1.36,6.3,1.93
				c2.19,0.57,4.44,0.86,6.73,0.86c4.77,0,8.4-1.17,10.88-3.51c2.48-2.34,3.72-5.27,3.72-8.81c0-2.77-1.17-4.94-3.51-6.52
				c-2.34-1.58-5.3-2.91-8.88-4.01c-3.58-1.1-7.42-2.22-11.53-3.36c-4.11-1.15-7.95-2.72-11.53-4.73c-3.58-2-6.54-4.68-8.88-8.02
				C4.06,45.13,2.9,40.69,2.9,35.15c0-4.96,0.95-9.47,2.86-13.53c1.91-4.06,4.49-7.47,7.73-10.24c3.25-2.77,7.02-4.91,11.31-6.44
				C29.1,3.41,33.63,2.65,38.41,2.65z"/>
			<path d="M126.58,108.04c-7.26,0-13.91-1.36-19.98-4.08c-6.06-2.72-11.26-6.44-15.61-11.17c-4.34-4.73-7.71-10.28-10.1-16.68
				c-2.39-6.4-3.58-13.32-3.58-20.76c0-7.45,1.19-14.37,3.58-20.76c2.39-6.39,5.75-11.96,10.1-16.68
				c4.34-4.73,9.52-8.45,15.54-11.17c6.01-2.72,12.69-4.08,20.05-4.08c7.16,0,13.77,1.38,19.83,4.15
				c6.06,2.77,11.26,6.54,15.61,11.31c4.34,4.77,7.73,10.36,10.17,16.75c2.43,6.4,3.65,13.22,3.65,20.48
				c0,7.45-1.19,14.37-3.58,20.76c-2.39,6.4-5.73,11.95-10.02,16.68c-4.3,4.73-9.48,8.45-15.54,11.17
				C140.64,106.67,133.93,108.04,126.58,108.04z"/>
			<path d="M193.19,14.53c0.19-1.24,0.69-2.53,1.5-3.87c0.81-1.34,1.81-2.53,3.01-3.58c1.19-1.05,2.6-1.91,4.22-2.58
				c1.62-0.67,3.39-1,5.3-1c3.63,0,6.73,1.07,9.31,3.22c2.58,2.15,4.25,4.51,5.01,7.09l16.9,56.7h0.29l16.9-56.7
				c0.76-2.58,2.43-4.94,5.01-7.09c2.58-2.15,5.68-3.22,9.31-3.22c1.91,0,3.67,0.34,5.3,1c1.62,0.67,3.03,1.53,4.22,2.58
				c1.19,1.05,2.19,2.24,3.01,3.58c0.81,1.34,1.31,2.63,1.5,3.87l13.32,79.9c0.09,0.48,0.14,0.91,0.14,1.29c0,0.38,0,0.76,0,1.15
				c0,3.15-1,5.66-3.01,7.52c-2,1.86-4.44,2.79-7.3,2.79c-3.63,0-6.28-0.84-7.95-2.51c-1.67-1.67-2.74-4.17-3.22-7.52l-8.45-58.28
				h-0.29l-17.18,60c-0.29,0.86-0.67,1.77-1.14,2.72c-0.48,0.96-1.17,1.86-2.08,2.72c-0.91,0.86-2.03,1.55-3.36,2.08
				c-1.34,0.52-2.96,0.79-4.87,0.79c-1.91,0-3.53-0.26-4.87-0.79c-1.34-0.52-2.46-1.22-3.37-2.08c-0.91-0.86-1.6-1.77-2.08-2.72
				c-0.48-0.95-0.86-1.86-1.15-2.72l-17.18-60h-0.29l-8.45,58.28c-0.48,3.34-1.55,5.85-3.22,7.52c-1.67,1.67-4.32,2.51-7.95,2.51
				c-2.86,0-5.3-0.93-7.3-2.79c-2-1.86-3.01-4.37-3.01-7.52c0-0.38,0-0.76,0-1.15c0-0.38,0.05-0.81,0.14-1.29L193.19,14.53z"/>
			<path d="M350.7,108.04c-7.26,0-13.91-1.36-19.98-4.08c-6.06-2.72-11.26-6.44-15.61-11.17c-4.34-4.73-7.71-10.28-10.09-16.68
				c-2.39-6.4-3.58-13.32-3.58-20.76c0-7.45,1.19-14.37,3.58-20.76c2.38-6.39,5.75-11.96,10.09-16.68
				c4.34-4.73,9.52-8.45,15.54-11.17c6.01-2.72,12.69-4.08,20.05-4.08c7.16,0,13.77,1.38,19.83,4.15
				c6.06,2.77,11.26,6.54,15.61,11.31c4.34,4.77,7.73,10.36,10.17,16.75c2.43,6.4,3.65,13.22,3.65,20.48
				c0,7.45-1.19,14.37-3.58,20.76c-2.39,6.4-5.73,11.95-10.02,16.68c-4.3,4.73-9.48,8.45-15.54,11.17
				C364.76,106.67,358.05,108.04,350.7,108.04z"/>
			<path d="M439.19,2.65c2,0,4.58,0.21,7.73,0.64c3.15,0.43,6.23,1.19,9.23,2.29c3.01,1.1,5.61,2.55,7.8,4.37
				c2.19,1.81,3.29,4.15,3.29,7.02c0,2.77-0.86,5.23-2.58,7.37c-1.72,2.15-4.06,3.22-7.02,3.22c-1.43,0-2.84-0.21-4.22-0.64
				c-1.38-0.43-2.82-0.93-4.29-1.5c-1.48-0.57-3.08-1.07-4.8-1.5c-1.72-0.43-3.63-0.64-5.73-0.64c-3.06,0-5.78,0.79-8.16,2.36
				c-2.39,1.58-3.58,3.89-3.58,6.94c0,2.48,1.17,4.39,3.51,5.73c2.34,1.34,5.3,2.53,8.88,3.58c3.58,1.05,7.42,2.22,11.53,3.51
				c4.1,1.29,7.95,3.08,11.53,5.37c3.58,2.29,6.54,5.35,8.88,9.16c2.34,3.82,3.51,8.78,3.51,14.89c0,5.16-0.98,9.79-2.94,13.89
				c-1.96,4.11-4.61,7.59-7.95,10.45c-3.34,2.86-7.23,5.06-11.67,6.59c-4.44,1.53-9.14,2.29-14.1,2.29c-2.77,0-6.13-0.21-10.09-0.65
				c-3.96-0.43-7.78-1.22-11.46-2.36c-3.68-1.15-6.8-2.77-9.38-4.87c-2.58-2.1-3.87-4.82-3.87-8.16c0-2.77,0.86-5.15,2.58-7.16
				c1.72-2,4.06-3.01,7.02-3.01c1.72,0,3.48,0.29,5.3,0.86c1.81,0.57,3.72,1.22,5.73,1.93c2,0.71,4.1,1.36,6.3,1.93
				c2.2,0.57,4.44,0.86,6.73,0.86c4.77,0,8.4-1.17,10.88-3.51c2.48-2.34,3.72-5.27,3.72-8.81c0-2.77-1.17-4.94-3.51-6.52
				c-2.34-1.58-5.3-2.91-8.88-4.01c-3.58-1.1-7.42-2.22-11.53-3.36c-4.11-1.15-7.95-2.72-11.53-4.73c-3.58-2-6.54-4.68-8.88-8.02
				c-2.34-3.34-3.51-7.78-3.51-13.32c0-4.96,0.95-9.47,2.86-13.53c1.91-4.06,4.49-7.47,7.73-10.24c3.25-2.77,7.02-4.91,11.31-6.44
				C429.88,3.41,434.42,2.65,439.19,2.65z"/>
		</g>
	</g>
	<path d="M526.04,120.48c-28.63,0-51.86,23.23-51.86,51.87c0,28.64,23.23,51.86,51.86,51.86c28.65,0,51.86-23.22,51.86-51.86
		C577.9,143.72,554.69,120.48,526.04,120.48z M569.93,175.25c-1.8-0.84-6.56-6.27-6.4-5.36c0.11,2.27,0.44,21.62,0.44,21.62
		c0,0.7-2.87,0.67-2.89-0.01c-0.08-1.66-0.02-8.76-0.02-11.02c-1.63-0.67-3.84-0.95-6.16,0.02c0,1.47-0.21,10.36-0.21,11.01
		c0,0.67-2.84,0.65-2.84,0c0-2.04,0.55-20.92,0.48-21.64c-0.09-0.7-4.51,4.33-6.5,5.32c-0.29,0.13-0.75-0.11-1.11-0.47
		c-3.14-1.92-9.98-9.67-9.73-8.28c0.16,3.62,0.69,34.47,0.69,34.47c0,1.11-4.57,1.06-4.61-0.02c-0.13-2.65-0.02-13.96-0.02-17.59
		c-2.59-1.06-6.12-1.51-9.81,0.05c0,2.35-0.35,16.53-0.35,17.56c0,1.06-4.5,1.03-4.5,0c0-3.26,0.88-33.37,0.75-34.51
		c-0.12-1.09-6.82,6.5-10.11,8.32c-0.29,0.23-0.6,0.36-0.82,0.26c-0.19-0.1-0.44-0.26-0.7-0.44c-0.02-0.01-0.03-0.01-0.05-0.03
		c-2.1-1.55-5.81-5.71-5.66-4.89c0.11,2.27,0.43,21.61,0.43,21.61c0,0.71-2.85,0.68-2.89-0.01c-0.08-1.65-0.01-8.76-0.01-11.02
		c-1.63-0.67-3.84-0.95-6.15,0.03c0,1.47-0.23,10.36-0.23,11c0,0.68-2.82,0.66-2.82,0c0-2.04,0.55-20.93,0.47-21.64
		c-0.08-0.71-4.5,4.33-6.49,5.3c-0.57,0.29-1.82-0.92-1.64-1.68c0.16-0.74,6.85-7.31,8.03-7.87c0.98-0.5,1.9-0.62,3.68-0.62v-0.32
		c-1.76-0.77-3-2.51-3-4.55c0-2.74,2.21-4.97,4.96-4.97c2.74,0,4.95,2.23,4.95,4.97c0,2.03-1.23,3.78-2.98,4.55v0.33
		c1.95,0.01,2.98,0.19,3.64,0.59c0.54,0.4,3.51,2.98,5.7,5.14c2.94-3.32,10.01-10.12,11.51-10.82c1.57-0.8,3.03-0.99,5.86-0.99
		v-0.51c-2.8-1.22-4.76-4-4.76-7.25c0-4.36,3.54-7.91,7.9-7.91s7.9,3.56,7.9,7.91c0,3.24-1.96,6.03-4.77,7.25v0.53
		c3.1,0.01,4.77,0.3,5.8,0.94c1.14,0.81,8.82,7.57,11.79,11.01c2.08-2.12,4.8-4.66,5.51-4.99c0.99-0.5,1.9-0.62,3.69-0.62v-0.32
		c-1.76-0.76-2.99-2.52-2.99-4.55c0-2.73,2.21-4.96,4.95-4.96c2.73,0,4.96,2.23,4.96,4.96c0,2.03-1.23,3.79-2.99,4.55v0.34
		c1.94,0.01,2.99,0.19,3.64,0.59c0.88,0.62,7.99,6.91,8.13,7.99C571.68,174.2,570.51,175.53,569.93,175.25z"/>
	<g>
		<path d="M165.26,214.13l-2.41-1.72c-2.84-2.03-3.49-5.99-1.46-8.83l0.26-0.37c0.48-0.76,1.09-1.54,1.74-2.44
			c0.62-0.86,2.41-3.37,4.75-6.6l18.6-25.97c1.43-2.01,1.16-4.3,1-5.11c-0.02-0.1-0.05-0.21-0.07-0.33v-0.01l0,0
			c-1.1-5.09-4.65-24.48,19-23.06c0.66,0.07,2.01,0.18,0.44,2.65l-9.53,13.3c-0.59,0.83-0.44,1.98,0.35,2.61l-0.01,0.01l0.1,0.08
			c0.01,0,0.01,0,0.01,0l0,0l7.55,5.4c0,0,0,0,0,0.01c0.87,0.62,2.08,0.42,2.71-0.45l8.51-11.88l-7.12-19.77
			c-1.22-3.36-3.09-6.13-5.61-8.33c-2.51-2.19-5.64-3.29-9.37-3.29c-3.55,0-6.62,1.12-9.24,3.37c-2.6,2.22-4.52,4.98-5.72,8.24
			l-28.12,76.08c-0.18,0.35-0.38,0.95-0.62,1.74c-0.23,0.79-0.34,1.75-0.34,2.87c0,2.79,1.03,5.12,3.07,6.99
			c2.05,1.85,4.48,2.79,7.27,2.79c2.89,0,5.11-0.7,6.64-2.1c1.47-1.34,2.57-3.04,3.31-5.06
			C169.1,215.59,166.99,215.36,165.26,214.13z"/>
		<path d="M237.99,210.79c-0.14-0.92-0.45-1.96-0.92-3.06l-15.66-43.5c-1.74,5.18-6.38,9.91-17.31,10.68
			c-1.7,0.41-2.73,0.19-4.75,2.49l-10.46,14.63c-2.34,3.25-4.76,6.67-6.93,9.69h32.18l4.2,13.16c0.74,2.13,1.89,3.88,3.42,5.23
			c1.55,1.36,3.8,2.03,6.79,2.03c2.6,0,4.86-0.86,6.78-2.59c1.92-1.72,2.86-3.94,2.86-6.64
			C238.2,212.42,238.13,211.72,237.99,210.79z"/>
		<path d="M171.57,203.15c-1.77-1.26-4.25-0.87-5.53,0.92c-1.27,1.79-0.86,4.26,0.92,5.53c1.78,1.27,4.25,0.87,5.53-0.92
			c0.05-0.06,0.49-0.78,0.51-0.85c0.06-0.27,0.12-0.37,0.21-1.26C173.37,205.27,172.71,203.98,171.57,203.15z"/>
	</g>
	<path class="st5" d="M149.89,34.27c-2.76-2.79-6.12-4.33-9.47-4.33c-0.11,0-0.22,0-0.33,0c-0.89,0.03-1.69,0.09-2.44,0.2
		c-4.75,0.68-7.34,2.91-11.02,7.56l-0.05,0.06l-0.04-0.06c-3.68-4.66-6.27-6.88-11.02-7.56c-0.74-0.11-1.54-0.17-2.44-0.2
		c-0.11,0-0.22,0-0.33,0c-3.34,0-6.71,1.54-9.47,4.33c-3.47,3.51-5.6,8.67-5.41,13.16c0.03,1.26,0.18,2.45,0.42,3.58l0.01,0
		c1.73,8.09,8.57,13.02,15.23,17.82c4.58,3.3,9.31,6.71,12.13,11.08l0.92,1.51l0.93-1.51c2.81-4.37,7.55-7.78,12.13-11.08
		c6.65-4.79,13.5-9.73,15.23-17.82l0.01,0c0.25-1.13,0.39-2.32,0.42-3.58C155.48,42.95,153.36,37.78,149.89,34.27z"/>
	<g>
		<path class="st5" d="M357.06,76.45c0.86-0.08,1.54-0.73,1.54-1.51c0-0.81-0.73-1.48-1.65-1.52l0,0h-6.44h-6.36
			c-0.96,0-1.72,0.68-1.72,1.52c0,0.78,0.67,1.43,1.53,1.51c-0.76,0.16-1.32,0.76-1.32,1.48c0,0.85,0.77,1.53,1.72,1.53
			c0.01,0,0.03-0.01,0.03-0.01c-0.67,0.2-1.16,0.77-1.16,1.44c0,0.75,0.63,1.38,1.44,1.5c0.81,1.72,3.15,2.97,5.91,2.97
			c2.77,0,5.11-1.25,5.91-2.99c0.75-0.17,1.31-0.76,1.31-1.47c0-0.67-0.49-1.23-1.16-1.43h0.01c0.97,0,1.73-0.68,1.73-1.53
			C358.37,77.21,357.82,76.61,357.06,76.45"/>
		<path class="st5" d="M350.45,25.64c-9.08,0-16.44,7.37-16.44,16.44c0,2.5,0.57,4.85,1.57,6.97c0.59,1.56,1.42,3.32,2.59,5.22
			c1.75,2.65,3.37,7.49,3.48,12.48c0-0.01,0.32,5.29,4.32,5.29h4.49h4.5c4,0,4.32-5.29,4.32-5.29c0.11-4.99,1.73-9.83,3.48-12.48
			c1.23-2.01,2.08-3.85,2.68-5.47c0.92-2.05,1.45-4.33,1.45-6.73C366.89,33,359.53,25.64,350.45,25.64"/>
	</g>
	<path d="M488.17,189.62c0,0-0.26,1.96,1.27,2.11c0.94-0.08,1.51-0.19,1.55-2.11c0.04-1.92,2.29,1.65,2.29,1.65l-2.03,3.24l-4-0.49
		l-1.7-2.74L488.17,189.62z"/>
</g>
<line class="st6" x1="25.3" y1="-233.67" x2="25.3" y2="-233.67"/>
</svg>
