<?xml version="1.0" encoding="utf-8"?>
<!-- Generator: Adobe Illustrator 25.0.0, SVG Export Plug-In . SVG Version: 6.00 Build 0)  -->
<svg version="1.1" id="Capa_1" xmlns="http://www.w3.org/2000/svg" xmlns:xlink="http://www.w3.org/1999/xlink" x="0px" y="0px"
	 viewBox="0 0 321.1 365.1" style="enable-background:new 0 0 321.1 365.1;" xml:space="preserve">
<g>
	<g>
		<g>
			<g>
				<path d="M296,64.9c0-0.3-0.1-0.7-0.1-1c-0.2-2-0.5-3.9-0.9-5.9c-0.1-0.4-0.2-0.7-0.3-1.1c-0.4-2-1-3.9-1.6-5.8
					c-0.1-0.2-0.1-0.5-0.2-0.7c-3.9-10.9-11.2-20.6-20.7-28c-68,20.9-150.4,73.7-117.2,206.4c0.1,0,0.2,0.1,0.2,0.1
					c0.1,0.1,0.2,0.1,0.3,0.2c40.6-19.7,69.3-40.4,89.7-59.8c-6.8-2.8-14.6-5.8-20.4-5.9c-5.9,0-15.3,0.6-20.1,0.4
					c-4.6-0.1-12.3,0-15.6-0.8c-2.8-0.6-5-2.2-4.8-5.1c0,0,0,0,0,0c0,0,0-0.1,0-0.1c0.2-2.2,1.9-3.7,4.2-3.8
					c2.4-0.2,20.7-1.1,32.1-3.1c1.6-0.3,2-0.5,2.1-1.2c0-0.7-0.6-1.1-2.6-1.5c-11.8-2.2-26.8-5.1-46.3-10.6c-3-0.8-4.2-3.2-4.2-5.5
					c0-0.8,0.1-1.5,0.3-2.2c1-2.7,3.9-4.4,9.4-3.1c11.3,2.8,20.2,4.5,37.5,6.8c2.9,0.4,3.8,0,4.1-1c0.1-0.9-0.7-1.6-2.7-2.5
					c-21.8-10.3-40.2-20.5-44.2-23.5c-1.6-1.2-2.5-3.5-2.2-5.6c0.1-0.7,0.3-1.5,0.8-2.1c1.6-2.6,4.5-4.1,7.4-2.6
					c17.5,9.1,26.1,13.1,43.7,21c3.5,1.5,5.3,2,5.7,1.1c0.1-0.2,0.1-0.3,0.1-0.5c-0.1-0.6-0.9-1.3-2.6-2.6c-2.2-1.8-6.2-4.9-8.7-6.7
					c-4.2-3.1-16.9-13.1-21.8-20.4c-1.2-1.7-1.5-3.2-1.3-4.3c0.1-1.2,0.7-2.1,1.3-2.8c1.6-1.7,4.3-2.7,7.7-0.2
					c12.4,9.3,28.3,21.4,42.9,29c9.4,4.9,13.8,2.6,14.5-1.4c0.2-1.3,0-2.7-0.6-4.2c-2-5-3.1-8.1-4.9-14.3c-1.4-4.8-2-8.4-2-11.2
					c-0.1-4.6,1.2-6.8,2.5-7.7c3.8-2.7,8.1-1,10.3,6.4c2.7,8.8,7.4,20.6,18.5,38.5c3.8-8.2,10-24,11-43.8
					C296.3,69.5,296.2,67.2,296,64.9z"/>
			</g>
			<g>
				<g>
					<path d="M118.7,331.8H137l-0.9,4.9h-12.5l-1.8,9.4h11.7l-0.9,4.8h-11.6l-2.7,14.2h-5.8L118.7,331.8z"/>
					<path d="M157.4,341l-3.2,16.6c-0.5,2.9-0.9,5.4-1.2,7.5h-5.1l0.5-4.2h-0.1c-2.3,3.1-5.3,4.7-8.3,4.7c-3.5,0-6.3-1.9-6.3-6.8
						c0-1.3,0.1-2.7,0.5-4.3l2.6-13.5h5.7l-2.5,13.1c-0.2,1.2-0.4,2.4-0.4,3.3c0,2,0.8,3.4,3.1,3.4c2.7,0,5.7-3.2,6.7-8.2l2.2-11.7
						H157.4z"/>
					<path d="M156.7,365.1l3.1-16.6c0.6-2.9,0.9-5.4,1.2-7.5h5.1l-0.5,4.3h0.1c2.2-3.2,5.3-4.8,8.6-4.8c3.5,0,6.1,2.1,6.1,6.6
						c0,1.1-0.2,2.8-0.4,4l-2.6,14h-5.8l2.6-13.6c0.1-0.9,0.3-1.9,0.3-2.9c0-2-0.7-3.5-3-3.5c-2.6,0-6,3.2-7,8.8l-2.1,11.1H156.7z"
						/>
					<path d="M208.2,330l-5,26.5c-0.5,2.8-0.9,6-1.1,8.6h-5.3l0.5-4.2h-0.1c-2.1,3.3-5.1,4.8-8.2,4.8c-4.3,0-7.3-3.5-7.3-8.9
						c0-8.5,6.2-16.3,15-16.3c1.2,0,2.7,0.2,3.7,0.7l2.1-11.2H208.2z M199.5,345.9c-0.7-0.5-1.9-0.9-3.3-0.9
						c-4.9,0-8.6,5.5-8.6,10.9c0,2.9,1.1,5.2,3.9,5.2c2.6,0,5.7-2.8,6.6-7.8L199.5,345.9z"/>
					<path d="M221.2,365.1c0-1.4,0.2-3.4,0.4-5.4h-0.1c-2.4,4.4-5.6,5.9-8.6,5.9c-4.3,0-7.1-3.4-7.1-8.2c0-8.2,5.7-16.9,16.9-16.9
						c2.6,0,5.4,0.5,7.3,1.1l-2.5,12.6c-0.7,3.6-1.1,8.1-1,11H221.2z M223.5,345.2c-0.6-0.1-1.3-0.2-2.4-0.2c-5.3,0-9.4,6-9.4,11.5
						c0,2.5,0.9,4.6,3.5,4.6c2.7,0,6-3.4,7.1-9.5L223.5,345.2z"/>
					<path d="M246.5,364.2c-1.4,0.7-3.8,1.4-6.9,1.4c-6,0-9.7-3.9-9.7-9.6c0-8.4,6.4-15.5,15.3-15.5c2.1,0,4,0.5,4.9,0.9l-1.5,4.5
						c-0.9-0.4-2-0.7-3.7-0.7c-5.5,0-9,5.1-9,10.1c0,3.6,2.1,5.6,5.3,5.6c2.2,0,3.9-0.6,5.1-1.1L246.5,364.2z"/>
					<path d="M247.8,365.1l4.6-24.1h5.7l-4.6,24.1H247.8z M253.3,334.5c0-2,1.6-3.5,3.5-3.5c1.8,0,3.1,1.2,3.1,3.1
						c0,2.1-1.6,3.5-3.6,3.5C254.5,337.6,253.3,336.3,253.3,334.5z"/>
					<path d="M258,355.7c0-8.2,5.7-15.2,13.9-15.2c6.5,0,9.8,4.6,9.8,9.9c0,8.2-5.7,15.2-13.9,15.2C261.7,365.6,258,361.4,258,355.7
						z M275.7,350.5c0-2.5-1.1-5.5-4.6-5.5c-4.6,0-7.3,6.1-7.3,10.6c0,3.3,1.7,5.6,4.7,5.6C272.9,361.2,275.7,355.3,275.7,350.5z
						 M280.3,330.8l-6.5,7.3h-4.4l4.7-7.3H280.3z"/>
					<path d="M281.5,365.1l3.1-16.6c0.6-2.9,0.9-5.4,1.2-7.5h5.1l-0.5,4.3h0.1c2.2-3.2,5.3-4.8,8.6-4.8c3.5,0,6.1,2.1,6.1,6.6
						c0,1.1-0.2,2.8-0.4,4l-2.6,14h-5.8l2.6-13.6c0.1-0.9,0.3-1.9,0.3-2.9c0-2-0.7-3.5-3-3.5c-2.6,0-6,3.2-7,8.8l-2.1,11.1H281.5z"
						/>
				</g>
			</g>
			<g>
				<path d="M22.3,254.8H0l2.4-12.2h58.8l-2.4,12.2H36.3l-12.9,68.5h-14L22.3,254.8z"/>
				<path d="M80.6,319.9c-5.7,3-13.5,4.7-20.6,4.7c-16.2,0-23.9-9.9-23.9-24.2c0-17.6,12.9-36.7,33-36.7c11.5,0,18.8,6.6,18.8,16.4
					c0,15-15.7,19.7-38.2,19.3c-0.2,2,0.2,6,1.6,8.3c2.3,3.9,6.5,6,12,6c6.6,0,11.8-1.7,16-3.8L80.6,319.9z M67.3,274
					c-8.7,0-14.5,7.8-16.2,14.8c14.4,0.1,23.6-1.8,23.6-8.9C74.7,276.3,71.7,274,67.3,274z"/>
				<path d="M87.2,323.2l15.1-80.7h14l-15.2,80.7H87.2z"/>
				<path d="M156.8,319.9c-5.7,3-13.5,4.7-20.6,4.7c-16.2,0-23.9-9.9-23.9-24.2c0-17.6,12.9-36.7,33-36.7c11.5,0,18.8,6.6,18.8,16.4
					c0,15-15.7,19.7-38.2,19.3c-0.2,2,0.2,6,1.6,8.3c2.3,3.9,6.5,6,12,6c6.6,0,11.9-1.7,16-3.8L156.8,319.9z M143.5,274
					c-8.7,0-14.5,7.8-16.2,14.8c14.4,0.1,23.6-1.8,23.6-8.9C150.9,276.3,147.9,274,143.5,274z"/>
				<path d="M194.1,250l-2.8,15h13l-2.2,10.8h-13l-4.6,23.5c-0.6,2.8-1.1,5.7-1.1,8.3c0,3.2,1.4,5.3,5.1,5.3c1.7,0,3.4-0.1,4.8-0.4
					l-1.3,10.9c-2,0.8-5.7,1.2-9.1,1.2c-9.6,0-13.8-5.3-13.8-12c0-3.2,0.4-6.5,1.2-10.8l5-26h-7.8l2-10.8h7.8l2.2-10.9L194.1,250z"
					/>
				<path d="M199.2,300.5c0-19.7,13.8-36.9,33.6-36.9c15.7,0,23.8,11.2,23.8,24.1c0,19.9-13.8,36.9-33.6,36.9
					C208.3,324.5,199.2,314.4,199.2,300.5z M242.3,287.8c0-6-2.8-13.4-11.1-13.4c-11.1,0-17.6,14.8-17.6,25.7
					c0,8,4.2,13.6,11.4,13.6C235.4,313.8,242.3,299.4,242.3,287.8z M253.5,242.5l-15.7,17.7h-10.5l11.5-17.7H253.5z"/>
				<path d="M254.7,323.2l7.5-40.2c1.4-6.9,2.3-13,3-18.1h12.5l-1.3,10.4h0.2c5.4-7.8,12.8-11.7,20.9-11.7c8.4,0,14.8,5,14.8,16
					c0,2.6-0.5,6.7-1.1,9.6l-6.3,34h-14l6.2-32.9c0.4-2.2,0.7-4.7,0.7-6.9c0-4.9-1.8-8.4-7.3-8.4c-6.3,0-14.5,7.7-17,21.3l-5,26.9
					H254.7z"/>
			</g>
		</g>
		<path d="M261.8,17C250.4,9.3,235.4,4.1,220,4.1c-30.2,0.1-55.7,17.7-64.6,42.1c-9-24.3-34.6-41.8-64.8-41.7
			c-34.9,0.1-63.5,23.7-67.4,54c0,0.1,0,0.2,0,0.3c0,0.2-0.1,0.4-0.1,0.6c0,0,0,0,0,0.1c-0.1,1-0.2,2-0.3,3.1c0,0,0,0,0,0.1
			c0,0.4,0,0.8,0,1.3c0,0.2,0,0.4,0,0.6c0,0.2,0,0.3,0,0.5c0,0.2,0,0.5,0,0.7c0.1,19.8,5.5,36,8.9,44.3c0,0,0,0,0,0c0,0,0,0.1,0,0.1
			c12-17.3,17.1-28.9,20.3-37.6c1.8-4.9,4.4-7.2,7-7.2c1.2,0,2.4,0.5,3.5,1.4c1.5,1.2,2.9,4.3,1.7,11.1c-0.1,0.6-0.3,1.3-0.5,2
			c-0.1,0.5-0.2,0.9-0.3,1.4c-0.4,1.4-0.8,2.9-1.4,4.6c-0.8,2.3-1.5,4.1-2.1,5.8c-0.2,0.5-0.4,1-0.6,1.5c-0.1,0.4-0.3,0.7-0.4,1.1
			c-0.3,0.7-0.6,1.4-0.9,2.1c-0.2,0.4-0.4,0.8-0.5,1.2c-0.3,0.7-0.6,1.3-0.9,2c-1.9,4.2-0.7,8.6,5,8.6c2.2,0,5.1-0.7,8.7-2.3
			c15-6.9,31.5-18.3,44.2-27c1.5-1,2.9-1.4,4-1.3c1.5,0.1,2.7,0.9,3.6,1.9c0.8,0.9,1.4,2.3,1.1,4.1c0,0.2,0,0.4-0.1,0.6
			c-0.2,0.7-0.6,1.5-1.3,2.4c-5.3,7.1-18.4,16.5-22.8,19.4c-2.6,1.7-6.7,4.6-9,6.3c-1.8,1.3-2.6,2-2.7,2.6c0,0,0,0,0,0
			c0,0.2,0,0.3,0,0.5c0.2,0.4,0.5,0.5,1.1,0.5c0.9,0,2.5-0.5,4.7-1.3c18-7.1,26.7-10.7,44.6-18.9c0.9-0.4,1.8-0.5,2.6-0.4
			c1.9,0.2,3.5,1.6,4.6,3.4c0.8,1.4,0.8,3.1,0.3,4.5c-0.1,0.3-0.1,0.5-0.2,0.8c-0.4,0.9-1.1,1.7-1.9,2.2c-4.1,2.7-23,12.1-45.3,21.4
			c-1.7,0.7-2.6,1.3-2.8,2c0,0,0,0,0,0c0,0.2-0.1,0.3-0.1,0.5c0.1,0.8,0.7,1.2,2.2,1.3c0.5,0,1.1,0,1.9,0c17.4-1.4,26.3-2.7,37.8-5
			c1-0.2,2-0.3,2.8-0.3c3.7-0.1,5.7,1.6,6.4,3.8c0.5,1.5,0.3,3.2-0.5,4.6c-0.1,0.2-0.2,0.4-0.3,0.6c-0.7,1-1.9,1.9-3.5,2.2
			c-19.7,4.6-34.9,6.9-46.7,8.5c-1.8,0.3-2.5,0.5-2.6,1.1c0,0,0,0,0,0c0,0.1-0.1,0.2-0.1,0.3c0,0.8,0.4,1,2,1.4
			c11.2,2.6,29.5,4.4,31.9,4.6c2.3,0.3,4,1.8,4.1,4c0,1-0.3,1.7-0.7,2.4c-0.1,0.2-0.2,0.4-0.3,0.6c-0.9,1-2.3,1.6-4,1.9
			c-3.3,0.6-11,0.1-15.6,0c-4.9-0.1-14.2-1.2-20-1.4c-5.9-0.2-13.9,2.5-20.8,4.9c0.1,0.1,0.1,0.1,0.2,0.2c0,0,0,0,0,0
			c19.3,20.2,46.9,42.1,86.2,63.6c0,0,0,0,0,0c0,0,0,0,0,0c-8.1-26.5-11.3-50-10.7-70.8c0-0.1,0-0.2,0-0.3c0-1.3,0.1-2.5,0.2-3.7
			c0-0.4,0-0.8,0.1-1.2c0-0.6,0.1-1.1,0.1-1.7c0.1-0.9,0.1-1.8,0.2-2.7c0-0.3,0.1-0.7,0.1-1c0.1-0.8,0.2-1.6,0.3-2.5
			c0-0.2,0-0.4,0.1-0.7c0.1-1.1,0.3-2.2,0.4-3.2c0-0.1,0-0.2,0-0.3c1.8-12.9,5.2-24.7,9.9-35.3c0,0,0,0,0,0
			C176.6,58.2,221.5,31.7,261.8,17z"/>
		<g>
			<path d="M48.6,17.8c39.1,0,87.2,31.9,107.5,87.9c20.5-47.4,65.4-73.9,105.7-88.6C250.4,9.3,235.4,4.1,220,4.1
				c-30.2,0.1-55.7,17.7-64.6,42.1c-9-24.3-34.6-41.8-64.8-41.7c0,0-8.2-0.8-22.7,3.6C55.2,11.9,48.6,17.8,48.6,17.8z"/>
		</g>
	</g>
	<g>
		<g>
			<path d="M321.1,316.9c0,3.6-2.7,6.3-6.3,6.3c-3.6,0-6.4-2.7-6.4-6.3c0-3.5,2.8-6.2,6.4-6.2C318.3,310.7,321.1,313.5,321.1,316.9z
				 M309.3,316.9c0,3,2.4,5.4,5.5,5.4c3,0,5.4-2.4,5.4-5.4c0-3-2.3-5.4-5.4-5.4C311.6,311.6,309.3,314,309.3,316.9z M313.6,320.4
				h-1.2v-6.5c0.7-0.1,1.4-0.2,2.3-0.2c1.1,0,1.6,0.2,2,0.5c0.4,0.3,0.7,0.8,0.7,1.4c0,0.8-0.6,1.3-1.2,1.5v0.1
				c0.5,0.2,0.9,0.7,1.1,1.6c0.2,1,0.4,1.4,0.5,1.6h-1.3c-0.2-0.2-0.4-0.8-0.5-1.7c-0.2-0.7-0.6-1.1-1.5-1.1h-0.8V320.4z
				 M313.6,316.7h0.8c0.9,0,1.7-0.3,1.7-1c0-0.6-0.4-1.1-1.6-1.1c-0.5,0-0.7,0-0.9,0.1V316.7z"/>
		</g>
	</g>
</g>
</svg>
