<?xml version="1.0" encoding="utf-8"?>
<!-- Generator: Adobe Illustrator 25.0.0, SVG Export Plug-In . SVG Version: 6.00 Build 0)  -->
<svg version="1.1" id="Capa_1" xmlns="http://www.w3.org/2000/svg" xmlns:xlink="http://www.w3.org/1999/xlink" x="0px" y="0px"
	 viewBox="0 0 530.6 276.41" style="enable-background:new 0 0 530.6 276.41;" xml:space="preserve">
<style type="text/css">
	.st0{fill-rule:evenodd;clip-rule:evenodd;}
</style>
<g>
	<g>
		<path d="M135.53,28.88c-0.07-0.3-0.31-0.52-0.59-0.49c-0.29,0.01-0.53,0.24-0.56,0.55c-1.59,13.23-9.17,24.37-15.37,26.39
			C103.65,60.35,75.83,25.41,75.6,25.1c-0.22-0.27-0.57-0.31-0.82-0.09c-0.25,0.21-0.3,0.59-0.09,0.88
			c52.42,83.65,40.89,164.21,13.3,193.07c-13.86,14.47-29.61,17.84-40.17,8.5c-9.48-8.38-14.4-20.29-14.35-41.68
			c0.13-59.07,40.1-104.58,40.6-105.22c0.2-0.26,0.17-0.69-0.07-0.91c-0.24-0.22-0.62-0.18-0.84,0.07
			c-18.38,22.97-28.92,22.89-32.84,20.74c-9.69-5.32-4.34-44.25-4.27-44.6c0.06-0.31-0.09-0.63-0.38-0.75
			c-0.25-0.1-0.58,0.03-0.73,0.31C-22.98,177.9,1.07,253.74,35.61,270.7c36.4,17.83,79.58-6.74,100.43-64.65
			C157.47,146.56,135.83,30.15,135.53,28.88z"/>
		<path d="M108.89,38.6c7.86-0.15,14.16-8.93,14.05-19.6C122.82,8.34,116.32-0.16,108.45,0c-7.87,0.16-14.17,8.93-14.06,19.6
			C94.5,30.27,101,38.77,108.89,38.6z"/>
		<path d="M46.64,86.88c6.3,2.81,14.2-1.82,17.69-10.37c3.49-8.55,1.2-17.76-5.1-20.59c-6.29-2.83-14.22,1.81-17.69,10.35
			C38.07,74.82,40.34,84.03,46.64,86.88z"/>
	</g>
	<g>
		<path class="st0" d="M171.39,80.81l26.36,0.06L187.77,144c0.13,0-5.93,26.45,15.63,26.49c16.18,0.03,19.24-15.83,20.61-21.91
			l10.71-67.64L261.85,81c0,0-9.29,62.85-9.87,66.87c-6.87,46.27-40.56,48.63-49.85,48.61c-37.42-0.08-44.57-23.71-41.46-45.59
			L171.39,80.81z"/>
		<polygon class="st0" points="331.96,101.91 354.02,101.96 340.14,189.66 316.39,189.61 284.97,133.43 276.1,189.52 254.05,189.48 
			267.26,101.78 267.92,101.78 290.93,101.83 322.91,158.99 		"/>
		<polygon class="st0" points="530.6,102.34 527.41,122.75 501.05,122.7 498.91,136.27 525.28,136.33 522.08,156.74 495.67,156.67 
			493.62,169.58 520.07,169.63 516.81,190.03 468.33,189.93 479,122.65 452.58,122.59 441.94,189.87 419.88,189.83 430.53,122.55 
			382.1,122.44 379.95,136.01 405.99,136.07 402.75,156.47 376.72,156.42 374.67,169.33 400.18,169.38 396.96,189.78 349.41,189.68 
			363.28,101.99 363.78,101.98 		"/>
	</g>
	<g>
		<path d="M173.93,209.47l-0.48,3.8c-1.98-2.07-4.34-3.12-7.09-3.13c-2.41,0-4.38,0.81-5.87,2.49c-1.5,1.62-2.26,3.76-2.27,6.42
			c0,2.46,0.73,4.39,2.17,5.77c1.42,1.38,3.44,2.07,6.06,2.08c2.19,0.01,4.12-0.68,5.78-2.05l-0.49,4.17
			c-2.11,0.83-4.09,1.23-5.9,1.23c-3.34-0.01-5.99-1.05-8.01-3.12c-1.93-2.06-2.9-4.8-2.88-8.2c0.01-3.49,1.04-6.39,3.12-8.68
			c2.16-2.3,4.87-3.46,8.13-3.45C168.8,206.8,171.37,207.68,173.93,209.47z"/>
		<path d="M190.45,223.01c-0.01,2.07-0.75,3.79-2.23,5.19c-1.45,1.41-3.27,2.09-5.44,2.08c-2.24,0-4.07-0.66-5.5-1.98
			c-1.44-1.34-2.16-3.02-2.15-5.07c0-2.08,0.75-3.83,2.24-5.21c1.5-1.38,3.38-2.04,5.61-2.05c2.21,0.01,3.99,0.65,5.39,1.97
			C189.75,219.24,190.45,220.94,190.45,223.01z M187.2,222.85c0-1.32-0.4-2.4-1.18-3.18c-0.79-0.79-1.8-1.18-3.05-1.18
			c-1.34-0.01-2.42,0.41-3.28,1.31c-0.85,0.9-1.29,2.01-1.28,3.38c-0.01,1.37,0.41,2.46,1.2,3.28c0.82,0.86,1.86,1.29,3.14,1.29
			c1.28,0,2.34-0.47,3.17-1.38C186.75,225.47,187.2,224.29,187.2,222.85z"/>
		<path d="M198.46,216.01l-0.14,1.32c1.08-0.88,2.37-1.31,3.82-1.31c0.89,0,1.57,0.15,2.03,0.47c0.47,0.32,0.9,0.91,1.27,1.79
			c1.39-1.5,2.89-2.23,4.49-2.23c2.76,0.01,4.14,1.25,4.14,3.81c0,0.27-0.01,0.6-0.06,1.07c-0.03,0.46-0.1,1.05-0.21,1.73l-0.95,7.7
			l-3.28-0.01l1.02-8.24c0.09-0.76,0.14-1.31,0.14-1.69c-0.01-1.23-0.6-1.86-1.82-1.85c-0.49,0-0.92,0.06-1.28,0.21
			c-0.35,0.16-0.66,0.37-0.91,0.68c-0.26,0.32-0.45,0.7-0.62,1.19c-0.17,0.5-0.28,1.07-0.39,1.74l-0.96,7.97l-3.28-0.01l1.04-8.46
			c0.1-0.77,0.13-1.28,0.14-1.59c0-1.16-0.63-1.74-1.88-1.75c-1.82,0-2.87,1.25-3.19,3.83l-0.97,7.96l-3.27,0l1.74-14.3
			L198.46,216.01z"/>
		<path d="M222.5,216.06l-0.21,1.48c1.42-0.99,2.92-1.47,4.46-1.47c1.86,0,3.42,0.61,4.65,1.89c1.23,1.27,1.83,2.87,1.83,4.81
			c0,2.14-0.7,3.96-2.12,5.44c-1.41,1.45-3.16,2.17-5.22,2.16c-1.09,0-1.95-0.17-2.63-0.51c-0.71-0.35-1.48-0.98-2.28-1.88
			l-1.25,10.57l-3.27,0l2.75-22.49L222.5,216.06z M229.95,222.86c0.01-1.25-0.33-2.24-1.04-3.06c-0.72-0.82-1.62-1.22-2.74-1.22
			c-1.31,0-2.43,0.49-3.3,1.44c-0.91,1.01-1.34,2.21-1.35,3.62c0,1.26,0.35,2.28,1.12,3.04c0.74,0.78,1.71,1.16,2.9,1.16
			c1.24,0.01,2.3-0.47,3.15-1.44C229.54,225.43,229.96,224.26,229.95,222.86z"/>
		<path d="M241.09,216.1l-0.12,1.21c1.1-0.8,2.22-1.2,3.34-1.2c0.99,0,1.88,0.29,2.69,0.9l-2.1,2.38c-0.58-0.52-1.19-0.78-1.8-0.78
			c-0.41,0-0.77,0.08-1.09,0.25c-0.33,0.15-0.59,0.43-0.83,0.8c-0.23,0.37-0.42,0.84-0.58,1.4c-0.16,0.57-0.27,1.28-0.36,2.08
			l-0.89,7.25l-3.25-0.01l1.75-14.3L241.09,216.1z"/>
		<path d="M262.86,223.16c-0.01,2.07-0.74,3.79-2.23,5.19c-1.46,1.4-3.27,2.09-5.44,2.08c-2.24,0-4.07-0.66-5.51-1.98
			c-1.43-1.34-2.13-3.03-2.14-5.08c0.01-2.08,0.75-3.82,2.25-5.21c1.49-1.38,3.37-2.05,5.6-2.04c2.21,0.01,4,0.64,5.38,1.96
			C262.16,219.39,262.87,221.1,262.86,223.16z M259.59,223c0-1.33-0.38-2.4-1.16-3.17c-0.8-0.79-1.8-1.19-3.06-1.19
			c-1.31,0.01-2.4,0.42-3.28,1.33c-0.85,0.89-1.29,2.01-1.28,3.37c-0.01,1.37,0.38,2.47,1.2,3.3c0.82,0.86,1.86,1.29,3.14,1.29
			c1.28,0,2.34-0.47,3.17-1.38C259.16,225.63,259.59,224.44,259.59,223z"/>
		<path d="M270.87,216.16l-0.13,1.32c1.11-0.88,2.37-1.32,3.82-1.31c0.9,0,1.55,0.15,2.03,0.47c0.48,0.32,0.9,0.91,1.29,1.78
			c1.37-1.51,2.86-2.24,4.49-2.23c2.75,0,4.13,1.25,4.13,3.8c0,0.27-0.03,0.61-0.08,1.08c-0.03,0.46-0.11,1.04-0.19,1.73l-0.96,7.7
			l-3.28-0.01l1.03-8.24c0.09-0.77,0.14-1.32,0.14-1.69c0.01-1.23-0.61-1.85-1.84-1.86c-0.49,0-0.9,0.07-1.26,0.22
			c-0.35,0.15-0.64,0.37-0.89,0.68c-0.27,0.32-0.48,0.71-0.64,1.19c-0.16,0.49-0.3,1.06-0.39,1.74l-0.96,7.97l-3.27-0.01l1.03-8.45
			c0.1-0.77,0.15-1.28,0.15-1.59c0.01-1.16-0.65-1.74-1.9-1.75c-1.82,0-2.87,1.25-3.19,3.83l-0.99,7.95h-3.26l1.76-14.3H270.87z"/>
		<path d="M294.87,216.21l-1.76,14.3l-3.28-0.01l1.76-14.29L294.87,216.21z M295.91,209.38c0,0.5-0.2,0.91-0.51,1.29
			c-0.36,0.34-0.79,0.5-1.25,0.5c-0.5,0.01-0.91-0.17-1.28-0.54c-0.35-0.37-0.52-0.81-0.52-1.31c0-0.51,0.17-0.95,0.52-1.27
			c0.35-0.36,0.73-0.52,1.22-0.53c0.5,0,0.93,0.19,1.28,0.55C295.71,208.46,295.91,208.89,295.91,209.38z"/>
		<path d="M307.75,218.09l-1.86,1.84c-0.86-0.79-1.68-1.19-2.4-1.18c-0.5-0.01-0.94,0.13-1.25,0.4c-0.33,0.27-0.49,0.6-0.49,1.01
			c0,0.38,0.13,0.72,0.4,0.98c0.28,0.28,0.84,0.64,1.74,1.14c1.25,0.67,2.09,1.29,2.51,1.86c0.47,0.56,0.7,1.29,0.69,2.18
			c0,1.28-0.47,2.3-1.41,3.07c-0.92,0.78-2.15,1.15-3.64,1.15c-2.05-0.01-3.75-0.89-5.09-2.64l2.15-1.52
			c0.88,1.09,1.81,1.63,2.81,1.63c0.55,0,1.01-0.14,1.35-0.43c0.34-0.29,0.5-0.65,0.5-1.13c0.01-0.41-0.12-0.72-0.42-0.97
			c-0.13-0.13-0.36-0.29-0.72-0.53c-0.35-0.22-0.81-0.48-1.41-0.79c-1.06-0.58-1.78-1.13-2.19-1.67c-0.39-0.56-0.6-1.24-0.59-2.04
			c0-1.24,0.46-2.26,1.4-3.06c0.93-0.78,2.12-1.17,3.53-1.17C304.96,216.24,306.43,216.84,307.75,218.09z"/>
		<path d="M325.32,223.29c0,2.08-0.74,3.8-2.22,5.2c-1.47,1.39-3.29,2.09-5.43,2.07c-2.25,0-4.09-0.66-5.52-1.97
			c-1.42-1.35-2.15-3.03-2.14-5.08c0.01-2.09,0.75-3.83,2.25-5.21c1.5-1.37,3.36-2.04,5.6-2.04c2.2,0,3.99,0.64,5.39,1.96
			C324.65,219.53,325.33,221.23,325.32,223.29z M322.05,223.13c0-1.33-0.38-2.4-1.15-3.17c-0.79-0.79-1.8-1.18-3.08-1.18
			c-1.32,0-2.4,0.42-3.26,1.31c-0.85,0.9-1.28,2.01-1.28,3.38c0,1.37,0.4,2.45,1.2,3.29c0.81,0.86,1.86,1.28,3.15,1.29
			c1.28,0,2.32-0.47,3.16-1.39C321.62,225.76,322.04,224.58,322.05,223.13z"/>
		<path d="M352.73,216.34l-12.68,22.48l-3.73-0.01l5.63-9.97l-4.97-12.54l3.51,0.02l3.45,9.13l5.05-9.11L352.73,216.34z"/>
		<path d="M372.18,210.58l-2.47,20.1l-3.28-0.01l2.38-20.1l-5.37-0.02l0.38-3.35l13.97,0.03l-0.4,3.35L372.18,210.58z"/>
		<path d="M379.41,224.56c0,1.05,0.35,1.92,1.07,2.59c0.72,0.69,1.63,1.04,2.74,1.04c1.54,0,2.72-0.58,3.54-1.75l2.46,1.31
			c-0.86,1.11-1.74,1.86-2.64,2.32c-0.91,0.42-2.06,0.65-3.42,0.65c-2.17-0.01-3.88-0.62-5.12-1.87c-1.28-1.22-1.9-2.86-1.9-4.94
			c0.01-2.14,0.71-3.95,2.14-5.39c1.41-1.43,3.18-2.12,5.32-2.11c2.07,0,3.73,0.62,4.91,1.89c1.21,1.32,1.83,3.03,1.83,5.19
			c0,0.23-0.03,0.58-0.06,1.11L379.41,224.56z M387.03,222.04c-0.36-2.1-1.54-3.13-3.56-3.13c-1.94-0.01-3.2,1.01-3.79,3.11
			L387.03,222.04z"/>
		<path d="M405.2,218.09l-0.42,3.33c-0.68-0.9-1.3-1.53-1.92-1.93c-0.58-0.36-1.31-0.54-2.12-0.54c-1.24-0.01-2.28,0.43-3.08,1.35
			c-0.8,0.91-1.2,2.07-1.21,3.5c0,1.33,0.38,2.41,1.13,3.2c0.76,0.82,1.74,1.22,2.95,1.23c1.14,0,2.35-0.5,3.59-1.53l-0.45,3.37
			c-1.28,0.45-2.46,0.69-3.62,0.68c-2.03-0.01-3.71-0.65-4.98-1.94c-1.26-1.29-1.87-2.96-1.87-5c0-2.11,0.68-3.86,2.05-5.26
			c1.38-1.44,3.11-2.11,5.16-2.1C402.06,216.45,403.67,216.98,405.2,218.09z"/>
		<path d="M412.11,216.46l-0.15,1.29c1.29-0.86,2.6-1.29,3.93-1.29c1.35,0,2.45,0.36,3.28,1.12c0.79,0.77,1.19,1.81,1.18,3.13
			c0.01,0.74-0.06,1.57-0.16,2.55l-0.96,7.52l-3.27-0.01l1.04-8.37c0.03-0.32,0.06-0.6,0.06-0.84c0.03-0.25,0.03-0.46,0.03-0.64
			c-0.01-1.32-0.66-1.94-2.04-1.95c-0.84,0-1.55,0.25-2.16,0.77c-0.5,0.42-0.89,0.93-1.11,1.53c-0.14,0.3-0.24,0.65-0.32,1.11
			c-0.11,0.43-0.18,0.95-0.25,1.52l-0.86,6.87l-3.27-0.01l1.76-14.3L412.11,216.46z"/>
		<path d="M439.17,223.54c-0.01,2.06-0.74,3.79-2.2,5.19c-1.49,1.4-3.3,2.08-5.46,2.08c-2.25-0.01-4.07-0.66-5.5-1.98
			c-1.43-1.35-2.14-3.03-2.14-5.08c0.01-2.09,0.75-3.83,2.23-5.21c1.5-1.37,3.38-2.04,5.62-2.04c2.21,0.01,3.99,0.64,5.37,1.95
			C438.48,219.77,439.17,221.47,439.17,223.54z M435.91,223.38c0.01-1.33-0.39-2.4-1.16-3.17c-0.79-0.79-1.81-1.18-3.07-1.19
			c-1.31,0.01-2.4,0.42-3.25,1.33c-0.88,0.9-1.32,2.01-1.32,3.37c0,1.37,0.41,2.46,1.21,3.29c0.8,0.86,1.85,1.29,3.13,1.29
			c1.3,0,2.34-0.47,3.19-1.39C435.48,226.01,435.91,224.82,435.91,223.38z"/>
		<path d="M448.45,205.16l-3.13,25.68l-3.26,0l3.14-25.68L448.45,205.16z"/>
		<path d="M465.28,223.59c0,2.07-0.74,3.79-2.23,5.19c-1.45,1.4-3.26,2.09-5.41,2.08c-2.26,0-4.08-0.67-5.52-1.98
			c-1.43-1.34-2.15-3.03-2.16-5.08c0.02-2.08,0.76-3.82,2.24-5.21c1.51-1.36,3.39-2.04,5.63-2.03c2.21,0,4.01,0.63,5.38,1.96
			C464.61,219.83,465.29,221.53,465.28,223.59z M462.04,223.43c0-1.32-0.39-2.4-1.16-3.16c-0.8-0.8-1.81-1.19-3.08-1.19
			c-1.31,0-2.39,0.41-3.27,1.31c-0.87,0.9-1.27,2.01-1.27,3.39c-0.01,1.37,0.38,2.45,1.19,3.29c0.81,0.86,1.85,1.28,3.14,1.29
			c1.29,0,2.33-0.47,3.17-1.38C461.6,226.06,462.04,224.87,462.04,223.43z"/>
		<path d="M483.97,216.62l-1.75,14.21c-0.12,0.85-0.24,1.58-0.37,2.24c-0.12,0.61-0.29,1.13-0.46,1.56
			c-0.35,0.88-0.87,1.63-1.53,2.26c-1.34,1.21-3.05,1.79-5.17,1.79c-2.18-0.02-3.95-0.54-5.3-1.6c-0.69-0.53-1.17-1.16-1.45-1.9
			c-0.28-0.68-0.42-1.66-0.42-2.9l3.2,0.01c0.06,1.34,0.42,2.31,0.99,2.94c0.6,0.61,1.52,0.91,2.75,0.91
			c1.36,0.01,2.37-0.38,3.08-1.16c0.68-0.79,1.13-2.04,1.34-3.73l0.24-1.99c-1.42,1.09-2.85,1.62-4.37,1.62
			c-1.91-0.01-3.45-0.64-4.7-1.9c-1.23-1.31-1.85-2.93-1.85-4.86c0.01-2.18,0.73-3.99,2.17-5.41c1.44-1.45,3.25-2.13,5.42-2.12
			c1.03,0,1.85,0.02,2.51,0.12c0.71,0.28,1.45,0.84,2.16,1.63l0.24-1.74L483.97,216.62z M480.15,223.39
			c0.01-1.28-0.37-2.33-1.14-3.11c-0.76-0.77-1.79-1.17-3.01-1.17c-1.3,0-2.38,0.45-3.25,1.42c-0.85,0.95-1.28,2.16-1.27,3.57
			c0,1.28,0.36,2.3,1.08,3.12c0.75,0.77,1.72,1.15,2.94,1.15c1.35,0.01,2.46-0.46,3.34-1.38
			C479.72,226.04,480.15,224.82,480.15,223.39z"/>
		<path d="M491.81,216.64l-1.75,14.3l-3.27-0.01l1.74-14.3L491.81,216.64z M494.89,209.92l-4.4,4.43l-1.66-1.01l3.63-5.03
			L494.89,209.92z"/>
		<path d="M510.09,216.68l-1.76,14.3l-3.27-0.01l0.22-1.54c-1.41,1.03-2.88,1.53-4.39,1.53c-1.83,0-3.34-0.62-4.5-1.86
			c-1.17-1.21-1.74-2.81-1.74-4.77c0-2.26,0.67-4.12,2.02-5.54c1.35-1.44,3.1-2.14,5.21-2.13c1.01,0,1.84,0.03,2.53,0.14
			c0.72,0.34,1.43,0.92,2.2,1.73l0.21-1.86L510.09,216.68z M506.08,223.42c0-1.29-0.36-2.29-1.06-3.08
			c-0.74-0.78-1.64-1.16-2.76-1.17c-1.22,0-2.26,0.49-3.07,1.43c-0.86,1-1.28,2.19-1.29,3.61c0,1.24,0.37,2.25,1.05,3.03
			c0.69,0.79,1.58,1.2,2.68,1.2c1.19,0,2.25-0.49,3.12-1.48C505.61,225.95,506.08,224.77,506.08,223.42z"/>
	</g>
	<g>
		<path d="M138.49,247.92l-0.17,1.52c1.41-1.01,2.9-1.51,4.46-1.51c1.87,0,3.41,0.65,4.65,1.9c1.21,1.29,1.82,2.89,1.83,4.82
			c-0.01,2.16-0.71,3.97-2.13,5.44c-1.41,1.46-3.16,2.18-5.25,2.18c-1.05,0-1.93-0.16-2.61-0.53c-0.7-0.34-1.48-0.98-2.28-1.86
			l-1.25,10.54l-3.26-0.01l2.75-22.5L138.49,247.92z M145.98,254.76c0.01-1.25-0.34-2.26-1.04-3.06c-0.71-0.81-1.62-1.25-2.72-1.24
			c-1.33,0-2.43,0.51-3.33,1.48c-0.91,0.97-1.34,2.18-1.34,3.61c-0.01,1.25,0.38,2.27,1.13,3.02c0.74,0.78,1.71,1.16,2.89,1.16
			c1.26,0,2.31-0.46,3.16-1.42C145.57,257.34,145.98,256.15,145.98,254.76z"/>
		<path d="M167.56,247.98l-1.74,14.33l-3.28-0.01l0.19-1.53c-1.4,1.02-2.84,1.53-4.36,1.53c-1.84-0.01-3.35-0.62-4.52-1.84
			c-1.15-1.24-1.74-2.84-1.74-4.78c0.01-2.26,0.69-4.12,2.02-5.56c1.36-1.43,3.09-2.17,5.2-2.16c1.01,0,1.86,0.06,2.56,0.16
			c0.72,0.33,1.44,0.92,2.19,1.74l0.21-1.9L167.56,247.98z M163.53,254.73c0.01-1.25-0.35-2.25-1.08-3.02
			c-0.71-0.81-1.61-1.21-2.73-1.21c-1.23-0.01-2.26,0.49-3.09,1.47c-0.85,0.96-1.25,2.15-1.25,3.59c-0.01,1.23,0.32,2.25,1.04,3.03
			c0.67,0.81,1.57,1.19,2.65,1.19c1.21,0,2.25-0.49,3.12-1.47C163.1,257.31,163.53,256.11,163.53,254.73z"/>
		<path d="M175.39,248.01l-0.13,1.24c1.11-0.8,2.22-1.23,3.35-1.23c0.99,0,1.89,0.32,2.7,0.92l-2.09,2.4
			c-0.61-0.52-1.22-0.81-1.84-0.81c-0.4,0.01-0.78,0.09-1.09,0.26c-0.32,0.17-0.59,0.44-0.81,0.8c-0.24,0.39-0.41,0.84-0.59,1.43
			c-0.14,0.57-0.29,1.27-0.37,2.06l-0.87,7.25l-3.28-0.01l1.75-14.32L175.39,248.01z"/>
		<path d="M197.23,248.05l-1.75,14.33l-3.28-0.01l0.2-1.54c-1.41,1.02-2.86,1.54-4.36,1.53c-1.86-0.01-3.36-0.61-4.51-1.84
			c-1.17-1.24-1.73-2.83-1.74-4.77c0.01-2.26,0.66-4.12,2.01-5.56c1.35-1.43,3.08-2.16,5.22-2.16c0.99,0.01,1.83,0.07,2.53,0.17
			c0.71,0.32,1.44,0.91,2.18,1.75l0.23-1.9L197.23,248.05z M193.21,254.78c0-1.24-0.35-2.25-1.07-3.02
			c-0.71-0.81-1.61-1.21-2.75-1.22c-1.23,0.01-2.26,0.49-3.08,1.47c-0.84,0.97-1.26,2.16-1.25,3.59c-0.01,1.24,0.34,2.25,1.03,3.03
			c0.69,0.81,1.6,1.2,2.69,1.2c1.17,0,2.23-0.49,3.12-1.47C192.76,257.37,193.21,256.18,193.21,254.78z"/>
		<path d="M223.2,248.11l-1.01,8.17c-0.07,0.68-0.19,1.3-0.29,1.79c-0.13,0.54-0.26,0.96-0.4,1.31c-0.28,0.65-0.75,1.23-1.41,1.76
			c-1.1,0.87-2.54,1.29-4.37,1.29c-1.7,0-3.1-0.43-4.13-1.3c-1.01-0.92-1.52-2.1-1.52-3.61c-0.01-0.23,0-0.49,0.03-0.8
			c0.03-0.29,0.06-0.67,0.11-1.05l0.94-7.58l3.29,0.01l-0.99,8.02c-0.04,0.34-0.07,0.63-0.1,0.89c-0.01,0.27-0.02,0.49-0.01,0.64
			c-0.01,1.51,0.86,2.26,2.58,2.26c0.92,0,1.62-0.22,2.07-0.73c0.45-0.48,0.75-1.37,0.9-2.61l1.04-8.46L223.2,248.11z"/>
		<path d="M231.04,248.12l-0.14,1.33c1.29-0.87,2.62-1.33,3.93-1.33c1.36,0.01,2.45,0.42,3.27,1.17c0.8,0.78,1.21,1.8,1.21,3.11
			c0,0.72-0.05,1.56-0.18,2.56l-0.96,7.5l-3.25-0.01l1.02-8.38c0.03-0.31,0.06-0.59,0.08-0.83c0.02-0.25,0.03-0.45,0.03-0.65
			c0.01-1.28-0.7-1.94-2.04-1.95c-0.85,0-1.58,0.28-2.18,0.8c-0.49,0.41-0.86,0.9-1.09,1.5c-0.12,0.31-0.25,0.68-0.35,1.12
			c-0.09,0.44-0.15,0.95-0.22,1.53l-0.83,6.86l-3.28,0l1.74-14.33L231.04,248.12z"/>
		<path d="M258.2,248.18l-1.74,14.33l-3.29,0l0.21-1.55c-1.41,1.03-2.87,1.54-4.37,1.53c-1.86,0-3.37-0.61-4.52-1.83
			c-1.16-1.24-1.74-2.83-1.74-4.78c0-2.25,0.68-4.11,2.02-5.55c1.34-1.42,3.09-2.18,5.2-2.16c1,0.01,1.83,0.07,2.56,0.17
			c0.7,0.33,1.42,0.92,2.16,1.75l0.24-1.91L258.2,248.18z M254.16,254.92c0.01-1.24-0.35-2.25-1.05-3.03
			c-0.7-0.81-1.62-1.21-2.74-1.21c-1.25,0-2.25,0.49-3.1,1.47c-0.83,0.97-1.24,2.15-1.24,3.59c0,1.23,0.33,2.25,1.01,3.03
			c0.7,0.81,1.6,1.19,2.7,1.2c1.2-0.01,2.24-0.49,3.13-1.47C253.73,257.5,254.17,256.31,254.16,254.92z"/>
		<path d="M275.52,248.22l-0.16,1.34c1.12-0.88,2.4-1.34,3.84-1.33c0.88,0,1.55,0.17,2.05,0.49c0.47,0.32,0.88,0.92,1.25,1.79
			c1.39-1.49,2.89-2.27,4.5-2.27c2.76,0.01,4.13,1.29,4.13,3.84c0,0.25-0.03,0.62-0.05,1.08c-0.06,0.47-0.12,1.02-0.22,1.73
			l-0.96,7.69l-3.28-0.01l1.04-8.24c0.07-0.76,0.11-1.34,0.11-1.69c0.01-1.25-0.6-1.87-1.81-1.88c-0.49,0.01-0.93,0.09-1.26,0.23
			c-0.36,0.15-0.67,0.38-0.91,0.69c-0.25,0.28-0.48,0.7-0.64,1.18c-0.17,0.48-0.27,1.08-0.36,1.75l-0.98,7.95l-3.28-0.01l1.05-8.44
			c0.08-0.76,0.13-1.3,0.13-1.59c0-1.16-0.63-1.77-1.88-1.78c-1.81,0-2.89,1.31-3.18,3.88l-0.99,7.92l-3.28-0.01l1.75-14.33
			L275.52,248.22z"/>
		<path d="M297.76,256.45c0,1.07,0.37,1.93,1.07,2.6c0.72,0.68,1.62,1.02,2.74,1.03c1.53,0,2.72-0.56,3.53-1.73l2.45,1.31
			c-0.85,1.09-1.72,1.85-2.62,2.3c-0.91,0.44-2.07,0.66-3.42,0.65c-2.16-0.01-3.87-0.61-5.13-1.83c-1.24-1.24-1.89-2.88-1.88-4.95
			c0-2.15,0.73-3.95,2.13-5.39c1.4-1.44,3.19-2.16,5.33-2.16c2.07,0,3.72,0.65,4.91,1.93c1.21,1.28,1.81,2.99,1.81,5.17
			c0,0.22-0.03,0.59-0.05,1.09L297.76,256.45z M305.36,253.95c-0.34-2.08-1.52-3.15-3.57-3.15c-1.92,0-3.16,1.05-3.75,3.14
			L305.36,253.95z"/>
		<path d="M316.5,248.3l-2.74,22.51l-3.28-0.01l2.75-22.51L316.5,248.3z M317.49,241.53c0,0.47-0.16,0.89-0.52,1.25
			c-0.34,0.35-0.75,0.52-1.24,0.52c-0.5,0-0.92-0.17-1.27-0.54c-0.35-0.37-0.55-0.82-0.54-1.34c0-0.47,0.19-0.9,0.52-1.24
			c0.35-0.36,0.76-0.52,1.25-0.53c0.48,0,0.92,0.18,1.27,0.58C317.31,240.57,317.49,241,317.49,241.53z"/>
		<path d="M334.89,255.39c-0.01,2.07-0.74,3.78-2.22,5.19c-1.46,1.4-3.27,2.09-5.43,2.08c-2.27,0-4.09-0.65-5.51-1.99
			c-1.45-1.33-2.15-3.03-2.14-5.06c0-2.09,0.74-3.81,2.23-5.19c1.48-1.4,3.36-2.1,5.6-2.09c2.21,0,3.99,0.67,5.38,1.98
			C334.22,251.61,334.9,253.32,334.89,255.39z M331.64,255.22c0-1.34-0.39-2.37-1.17-3.16c-0.78-0.8-1.78-1.2-3.05-1.21
			c-1.31,0-2.42,0.46-3.25,1.34c-0.88,0.88-1.3,2.01-1.31,3.39c0,1.36,0.41,2.45,1.22,3.28c0.81,0.85,1.85,1.27,3.15,1.27
			c1.28,0.01,2.32-0.45,3.15-1.37C331.22,257.84,331.63,256.67,331.64,255.22z"/>
		<path d="M342.8,248.36l-0.13,1.23c1.09-0.8,2.21-1.23,3.32-1.23c1,0.01,1.91,0.33,2.73,0.93l-2.11,2.4
			c-0.61-0.52-1.19-0.81-1.81-0.8c-0.42-0.01-0.77,0.08-1.09,0.26c-0.32,0.17-0.6,0.44-0.82,0.8c-0.23,0.39-0.42,0.84-0.59,1.43
			c-0.13,0.56-0.26,1.26-0.35,2.06l-0.88,7.25l-3.27-0.01l1.74-14.32L342.8,248.36z"/>
		<path d="M373.85,239.32l-0.38,3.33l-8.4-0.01l-0.74,5.88l8.41,0.02l-0.36,3.08l-8.41-0.01l-0.97,7.78l8.4,0.02l-0.39,3.34
			l-11.28-0.02l2.48-23.44L373.85,239.32z"/>
		<path d="M392.13,237.11l-3.16,25.67l-3.26,0l0.18-1.54c-0.79,0.74-1.52,1.24-2.12,1.51c-0.57,0.02-1.3,0.02-2.14,0.01
			c-1.97-0.01-3.55-0.64-4.81-1.91c-1.24-1.27-1.86-2.9-1.86-4.92c0.01-2.18,0.7-3.95,2.07-5.37c1.36-1.42,3.08-2.14,5.14-2.14
			c1.07,0.01,1.95,0.21,2.67,0.58c0.75,0.4,1.53,1.04,2.35,1.95l1.64-13.87L392.13,237.11z M386.64,255.02
			c0.01-1.2-0.36-2.17-1.08-2.92c-0.72-0.73-1.69-1.13-2.87-1.13c-1.28,0-2.33,0.48-3.19,1.46c-0.83,0.98-1.28,2.2-1.27,3.68
			c-0.01,1.23,0.36,2.25,1.07,3.03c0.72,0.73,1.69,1.1,2.89,1.11c1.23,0,2.29-0.51,3.16-1.53
			C386.22,257.73,386.64,256.5,386.64,255.02z"/>
		<path d="M407.57,248.5l-1.02,8.17c-0.07,0.68-0.19,1.29-0.3,1.79c-0.11,0.53-0.24,0.95-0.4,1.31c-0.26,0.65-0.74,1.23-1.38,1.76
			c-1.12,0.87-2.57,1.29-4.37,1.29c-1.74,0-3.1-0.43-4.11-1.3c-1.03-0.92-1.54-2.1-1.55-3.6c0-0.23,0.03-0.5,0.03-0.8
			c0.03-0.3,0.07-0.67,0.13-1.05l0.93-7.59l3.28,0.01l-1,8.03c-0.03,0.33-0.06,0.63-0.06,0.88c-0.04,0.27-0.04,0.49-0.03,0.65
			c-0.01,1.5,0.87,2.25,2.59,2.25c0.94,0,1.62-0.22,2.06-0.73c0.45-0.48,0.75-1.37,0.9-2.61l1.03-8.45L407.57,248.5z"/>
		<path d="M422.43,250.21l-0.41,3.32c-0.69-0.87-1.32-1.51-1.93-1.9c-0.6-0.38-1.31-0.58-2.11-0.59c-1.27,0-2.29,0.46-3.08,1.38
			c-0.81,0.91-1.22,2.06-1.22,3.48c0,1.33,0.36,2.42,1.12,3.21c0.77,0.81,1.76,1.21,2.97,1.21c1.12,0,2.33-0.52,3.56-1.52
			l-0.43,3.35c-1.26,0.48-2.45,0.71-3.61,0.69c-2.03,0-3.71-0.63-4.97-1.92c-1.26-1.3-1.9-2.95-1.89-5c0.01-2.11,0.7-3.88,2.05-5.27
			c1.39-1.42,3.1-2.14,5.15-2.13C419.31,248.52,420.92,249.1,422.43,250.21z"/>
		<path d="M439.8,248.57l-1.76,14.33l-3.29,0l0.21-1.55c-1.41,1.02-2.86,1.54-4.38,1.53c-1.83,0-3.33-0.62-4.5-1.84
			c-1.17-1.24-1.72-2.83-1.73-4.77c0.01-2.26,0.67-4.12,2-5.55c1.35-1.43,3.09-2.18,5.19-2.16c1.01,0,1.87,0.06,2.55,0.17
			c0.71,0.32,1.44,0.91,2.18,1.75l0.23-1.91L439.8,248.57z M435.75,255.3c0.01-1.24-0.35-2.25-1.05-3.02
			c-0.71-0.81-1.64-1.21-2.76-1.22c-1.23,0-2.26,0.49-3.09,1.47c-0.83,0.97-1.24,2.16-1.25,3.59c-0.01,1.24,0.34,2.25,1.03,3.04
			c0.68,0.8,1.57,1.19,2.68,1.19c1.19,0,2.23-0.49,3.12-1.46C435.32,257.88,435.75,256.69,435.75,255.3z"/>
		<path d="M454.64,250.28l-0.43,3.32c-0.68-0.88-1.32-1.52-1.91-1.9c-0.62-0.38-1.33-0.57-2.15-0.58c-1.25-0.01-2.27,0.45-3.07,1.36
			c-0.81,0.91-1.22,2.07-1.22,3.49c0,1.32,0.38,2.42,1.13,3.22c0.76,0.8,1.75,1.2,2.93,1.2c1.18,0,2.37-0.51,3.62-1.52l-0.46,3.36
			c-1.26,0.47-2.47,0.69-3.61,0.68c-2.04,0-3.69-0.63-4.98-1.92c-1.27-1.3-1.88-2.96-1.88-4.99c0-2.12,0.69-3.89,2.05-5.28
			c1.39-1.41,3.1-2.14,5.15-2.13C451.51,248.6,453.12,249.18,454.64,250.28z"/>
		<path d="M461.55,248.61l-1.76,14.33l-3.27-0.01l1.75-14.33L461.55,248.61z M462.59,241.8c0,0.51-0.18,0.92-0.53,1.28
			c-0.34,0.35-0.76,0.53-1.22,0.53c-0.51,0-0.92-0.18-1.28-0.55c-0.34-0.38-0.52-0.83-0.53-1.33c0-0.5,0.19-0.91,0.52-1.26
			c0.34-0.36,0.75-0.52,1.23-0.52c0.47,0,0.89,0.19,1.26,0.57C462.39,240.89,462.58,241.32,462.59,241.8z"/>
		<path d="M479.74,255.71c-0.01,2.06-0.75,3.78-2.23,5.17c-1.46,1.4-3.27,2.09-5.42,2.09c-2.26,0-4.1-0.65-5.52-1.99
			c-1.44-1.34-2.14-3.02-2.14-5.07c0.01-2.08,0.76-3.8,2.24-5.17c1.49-1.4,3.36-2.1,5.62-2.1c2.18,0.01,3.98,0.66,5.36,1.98
			C479.05,251.92,479.75,253.63,479.74,255.71z M476.47,255.54c0-1.36-0.38-2.37-1.16-3.16c-0.77-0.81-1.8-1.21-3.08-1.21
			c-1.29,0-2.38,0.46-3.24,1.34c-0.86,0.88-1.29,2.02-1.3,3.38c0,1.37,0.4,2.46,1.22,3.29c0.8,0.84,1.84,1.27,3.15,1.27
			c1.27,0,2.34-0.45,3.15-1.38C476.04,258.15,476.47,256.99,476.47,255.54z M477.74,241.97l-4.77,4.42l-1.67-1l3.98-5.03
			L477.74,241.97z"/>
		<path d="M487.63,248.68l-0.17,1.33c1.3-0.86,2.62-1.33,3.94-1.33c1.37,0.01,2.45,0.42,3.28,1.17c0.79,0.77,1.19,1.8,1.19,3.11
			c0,0.72-0.07,1.56-0.16,2.56l-0.97,7.5l-3.26-0.01l1.03-8.38c0.02-0.31,0.07-0.58,0.08-0.83c0.01-0.25,0.02-0.45,0.02-0.66
			c0.01-1.28-0.68-1.94-2.04-1.94c-0.84,0-1.58,0.28-2.18,0.8c-0.5,0.39-0.85,0.89-1.08,1.5c-0.14,0.31-0.24,0.68-0.34,1.11
			c-0.08,0.44-0.17,0.95-0.23,1.53l-0.86,6.87l-3.27,0l1.76-14.33L487.63,248.68z"/>
	</g>
</g>
</svg>
