<?xml version="1.0" encoding="utf-8"?>
<!-- Generator: Adobe Illustrator 25.0.0, SVG Export Plug-In . SVG Version: 6.00 Build 0)  -->
<svg version="1.1" id="Layer_1" xmlns="http://www.w3.org/2000/svg" xmlns:xlink="http://www.w3.org/1999/xlink" x="0px" y="0px"
	 viewBox="0 0 1052.9 272.2" style="enable-background:new 0 0 1052.9 272.2;" xml:space="preserve">
<style type="text/css">
	.st0{fill-rule:evenodd;clip-rule:evenodd;}
</style>
<g>
	<g>
		<path class="st0" d="M542.5,7.3c0.6,0.6,1.4,0.4,2.1,0.6c8.7,2.1,14,8.4,14.4,17.4c0.1,1,0.1,2,0.1,3c0,37.8-0.1,75.7,0.1,113.5
			c0,7,0,14.1,1,21.1c2.6,17,16.8,25.6,33.3,20.4c3.2-1,3.2-1,1.9-4.1c-6-13.9-7.8-28.5-7.1-43.5c0.6-12.5,3.4-24.4,9.3-35.5
			c8.4-15.6,21.1-26.3,37.9-31.8c18.6-6,37.4-6.2,56.1-0.2c23.6,7.6,38.1,24.1,44.9,47.7c0.5,1.5,0.9,3.1,1.2,4.7
			c0.2,1.3,0.6,1.2,1.6,0.7c3.2-1.6,6.1-3.6,8.7-6.1c1.7-1.6,2.5-3.5,2.5-5.9c0.2-18.5,9.9-30.6,26.1-38.2
			c9.3-4.4,19.2-6.4,29.4-6.9c15.7-0.8,31,1.2,45.6,6.9c6.4,2.5,12.4,5.8,17.2,10.9c4.9,5.2,6.9,11.2,5.1,18.1
			c-3.3,13.3-17.4,15.9-26,10.3c-3-1.9-5.5-4.3-8.1-6.7c-8.8-8.2-19.3-10.3-30.8-9.2c-3.7,0.3-7.3,1-10.7,2.6
			c-5.4,2.5-7.7,6.8-6.6,12.4c0.8,3.7,3.3,5.8,6.5,7.4c4.2,2,8.7,3,13.2,4.1c13,3.1,26.2,5.3,38.7,10.1c8,3.1,15.5,7,21.6,13.3
			c7.2,7.4,10.2,16.4,9.6,26.6c-1.1,21.3-13.6,33.9-32.4,41.4c-13,5.2-26.7,6.3-40.6,5.1c-12-1-23.6-3.5-34.6-8.7
			c-6.5-3-12.5-6.8-17.2-12.3c-4.4-5.1-7-10.8-6.2-17.7c1.5-12.9,14.7-19.1,25.7-12.1c3.4,2.2,6.2,5.1,9,8
			c5.5,5.7,11.5,10.8,19.4,12.9c8.8,2.3,17.5,2.5,26.1-1c4.9-2,8.9-5.2,9.6-10.9c0.6-4.6-0.9-8.3-4.9-10.9
			c-3.6-2.3-7.7-3.3-11.8-4.4c-12.8-3.4-25.7-6-38.4-9.7c-8.2-2.4-16-5.7-22.6-11.5c-1.1-0.9-2.1-1.9-3-3c-0.8-1-1.2-1.1-2.1,0
			c-4.9,5.8-10.5,10.8-17.1,14.5c-1.3,0.7-1.2,1.8-1.3,2.9c-1,9.2-3.1,18.1-7,26.5c-7.7,16.5-20.1,27.8-37.4,33.2
			c-22.4,6.9-44.8,6.6-66.9-2.1c-5.3-2.1-10.2-5.1-14.6-8.8c-0.9-0.8-1.4-0.8-2.3,0c-13.1,12.4-28.8,16.8-46.5,15.4
			c-9.7-0.8-18.7-3.5-26.7-9.2c-4.9-3.6-8.9-8-11.8-13.3c-0.9-1.7-2.5-2.1-4-2.8c-1-0.4-0.9,0.7-1.1,1.2c-3.8,8.6-10,15-18.5,19.2
			c-6.9,3.4-14.2,4.9-21.8,5.2c-15.7,0.5-29.9-3.5-42.2-13.6c-0.9-0.8-1.5-0.7-2.3,0.1c-12.9,11-27.9,14.7-44.5,13.2
			c-11-1-20.9-4.4-29.4-11.7c-1.1-0.9-2.5-0.9-3.9,0c-17.1,12.2-35.9,14-55.4,8c-16.5-5.1-26.1-17-30.1-33.6
			c-1.5-6.3-1.9-12.7-1.9-19.2c-0.1-11.3,0-22.6-0.1-33.8c0-5.4-0.4-10.7-2.5-15.8c-3.5-8.8-10.1-13.3-19.3-14.6
			c-17-2.4-35.8,11.3-35.6,32.5c0.2,22.6,0,45.2,0,67.8c0,2.4-0.2,4.8-0.8,7.2c-1.5,6.5-5.4,10.9-11.9,12.6
			c-5.6,1.5-11.3,1.4-16.9-0.2c-1.5-0.4-3.2-0.9-4.1-2c-2.4-2.9-4.8-1.8-7.7-0.8c-17.2,6.1-34.1,5.7-50.6-2.6
			c-7.6-3.8-13.2-9.8-17.3-17.3c-1.4-2.6-2.3-2.7-4.1-0.4c-8.3,10.4-18.2,18.4-31.3,21.9c-12.6,3.4-25.1,3.3-37.5-0.8
			c-16.9-5.6-26.6-17.6-30.4-34.7c-0.6-2.7-0.6-5.5-1.6-8.2c0-31.2,0-62.4,0-93.6c0.7-0.8,0.6-1.9,0.8-2.8c1.7-6.2,5.6-10.3,11.8-12
			c4.8-1.3,9.6-1.3,14.4-0.4c7.2,1.5,11.8,5.8,13.5,13c0.6,2.5,0.7,5.1,0.7,7.6c0,23.7,0,47.5,0,71.2c0,2.8,0.2,5.5,0.7,8.2
			c1.7,10.3,8.3,17.7,17.8,19.9c7.5,1.7,14.7,0.9,21.5-2.8c10.8-6,17-14.9,17-27.6c0-23,0-46,0-69c0-1.4,0.1-2.9,0.2-4.4
			c0.8-8.8,5.9-14.5,14.3-16.1c3.8-0.7,7.7-0.7,11.6-0.2c8.2,1.2,13.3,5.8,15,13.8c0.4,1.8,0.6,3.7,0.6,5.6c0,25.7,0,51.3,0,77
			c0,0.7,0,1.5,0.1,2.2c2.7,19.1,17.5,23.9,30.5,21.8c1.9-0.3,2.1-1.1,2.1-2.8c0-32.1,0-64.2,0-96.4c0-1.1,0-2.3,0.1-3.4
			c0.5-5.8,1.9-11.3,7-15c4.1-3,8.9-3.5,13.8-3.2c8.5,0.5,14,5.3,15.8,13.5c0.8,3.4,0.7,6.8,0.7,10.2c0,0.7-0.3,1.4,0.3,2.1
			c0.8-0.4,1.1-1.1,1.5-1.6c6.6-8.3,14.3-15.2,24.1-19.4c12.6-5.4,25.6-6.1,38.9-3.4c9.8,2,18.5,6.4,25.3,14
			c8.6,9.7,11.9,21.4,12.3,33.9c0.4,11.1,0.2,22.2,0.1,33.3c0,5.1,0.1,10.2,0.8,15.3c2.4,18.7,16.4,23.9,29.9,22.1
			c1.9-0.2,2.5-0.9,2.4-2.9c-0.1-31.9-0.1-63.9-0.1-95.8c0-2,0.1-4,0.4-6c1.1-7.7,5.7-12.8,13.3-14.6c4.9-1.1,9.9-1.1,14.8,0.2
			c6.1,1.6,10.1,5.5,11.9,11.6c0.9,3,1.1,6.1,1.1,9.2c0.2,23.4-0.4,46.9,0.8,70.3c0.3,6,0.7,11.9,3.5,17.4c6.3,12.3,20.5,13.7,30,11
			c1.1-0.3,0.9-0.8,0.5-1.6c-5.5-11.9-7.7-24.5-8.1-37.5c-0.5-14,1.1-27.6,6.1-40.7c5.6-14.5,14.3-26.4,28.3-33.8
			c11.9-6.3,24.7-8,37.9-6.2c13.3,1.8,24,8.1,31.5,19.5c0.2,0.3,0.3,0.6,1,0.5c0-0.6,0-1.3,0-2c0-11.3,0-22.6,0-33.9
			c0-7.4-0.1-14.8,0.1-22.2c0.3-9.2,5.7-15.5,14.4-17.6c0.8-0.2,1.7-0.4,2.5-0.6C537.4,7.3,540,7.3,542.5,7.3z M518.7,141.1
			c0-2,0-3.9,0-5.9c0-4.8,0.2-9.5-1.2-14.2c-2.4-7.8-5.8-15.1-12.5-20.2c-14.7-11.2-36.2-5.8-44.7,11c-5.1,10.2-6.4,21.2-6,32.5
			c0.3,8.9,2.1,17.4,6.4,25.3c9.7,17.5,29.1,19.6,41.5,12.3c10.6-6.2,15-16.4,16.3-28.1C519.1,149.7,518.7,145.4,518.7,141.1z
			 M629.8,130.6c-0.7,4.5-0.7,8.9-0.6,13.4c0.3,8.5,1.8,16.8,5.4,24.6c7.9,17.3,27.7,24.2,44.4,15.5c8.2-4.3,12.9-11.5,16-19.9
			c0.8-2.2,0.8-2.2-1.4-2.2c-7.7-0.1-15.3-0.8-22.8-2.6c-16.9-4.1-30.6-12.8-40-27.7C630.6,131.2,630.6,130.7,629.8,130.6z
			 M664.8,94.4c-1,0-2,0-3,0c-0.9-0.1-1.1,0.3-1,1.2c1,6.6,2.6,13,5.8,18.9c6.5,11.8,16.5,17.4,29.9,17c1.3,0,1.7-0.4,1.5-1.8
			c-0.7-4.6-1.7-9.2-3.4-13.6C689.3,102.2,678.9,94.6,664.8,94.4z"/>
		<path class="st0" d="M1002.7,265c-0.2-0.1-0.3-0.3-0.5-0.4c-8.5-2.4-11.9-8.1-9.8-16.8c2-8.4,5.2-16.5,8-24.7
			c5.3-15.8,9.8-31.8,12.5-48.2c1.6-9.5,2.5-19.2,2.9-28.8c1.1-30.8-5.1-60.4-14.9-89.4c-2.9-8.6-6.2-17.1-8.5-26
			c-1.3-5.3-0.8-10.1,3.6-13.8c4.7-3.9,10.1-4.4,15.7-2.4c2.6,0.9,4.3,2.9,5.9,5c4.3,5.8,7.1,12.2,10.1,18.7
			c8.4,18.3,15.7,36.9,20.3,56.5c5.2,21.9,7,44.1,4.1,66.6c-3,23.5-9.9,45.9-19.4,67.7c-3.5,8.1-6.9,16.1-11.2,23.8
			c-0.8,1.5-1.8,3-2.7,4.5c-2.2,3.6-5.2,6.4-9.3,7.7C1007.3,265,1005,265,1002.7,265z"/>
		<path class="st0" d="M367.9,7.3c0.8,0.8,1.9,0.5,2.8,0.8c10.7,2.5,18.1,12.9,16.9,23.8c-1.2,11.2-10.9,19.8-22,19.8
			c-11-0.1-20.7-8.7-21.8-19.3c-1.2-11.4,5.9-21.7,16.9-24.3c0.8-0.2,1.7,0,2.4-0.7C364.7,7.3,366.3,7.3,367.9,7.3z"/>
		<path class="st0" d="M919.2,191c0-12.1,9.7-22,21.5-22.1c12.6,0,22.5,9.6,22.5,21.9c0,12.1-9.8,22.1-22,22.1
			C929,213.1,919.2,203.2,919.2,191z"/>
		<path class="st0" d="M919.2,92.7c0-12.1,9.8-21.9,21.9-21.9c12.3,0,22.2,9.9,22.2,22.1c0,12.1-10.1,22.1-22.1,22
			C928.9,114.8,919.1,104.9,919.2,92.7z"/>
	</g>
</g>
</svg>
