<?xml version="1.0" encoding="utf-8"?>
<!-- Generator: Adobe Illustrator 25.0.0, SVG Export Plug-In . SVG Version: 6.00 Build 0)  -->
<svg version="1.1" id="Layer_1" xmlns="http://www.w3.org/2000/svg" xmlns:xlink="http://www.w3.org/1999/xlink" x="0px" y="0px"
	 viewBox="0 0 1312.2 1308.86" style="enable-background:new 0 0 1312.2 1308.86;" xml:space="preserve">
<style type="text/css">
	.st0{fill:#FFFFFF;}
</style>
<g>
	<g>
		<path d="M1163.98,314.44c187.76,187.76,187.76,492.2,0,679.98l-167.89,167.89c-187.77,187.75-492.21,187.75-679.99,0
			L148.23,994.42c-187.79-187.79-187.79-492.22,0-679.98L316.1,146.56c187.79-187.76,492.22-187.76,679.99,0L1163.98,314.44z"/>
	</g>
	<g>
		<path class="st0" d="M213.55,858.59v21.8h25.96v5.66h-25.96v26.13h-6.32v-59.25h36.78v5.66H213.55z"/>
		<path class="st0" d="M293.49,912.68c-11.98,0-20.64-8.24-20.64-20.05v-39.69h6.32v39.19c0,8.99,5.66,14.89,14.31,14.89
			c8.65,0,14.4-5.91,14.4-14.89v-39.19h6.32v39.69C314.21,904.44,305.48,912.68,293.49,912.68z"/>
		<path class="st0" d="M386.51,912.18l-31.45-47.51v47.51h-6.32v-59.25h5.99l31.45,47.35v-47.35h6.32v59.25H386.51z"/>
		<path class="st0" d="M463.12,906.68c-3.58,3.58-8.82,5.49-14.98,5.49h-20.3v-59.25h20.3c6.16,0,11.4,1.91,14.98,5.49
			c6.16,6.16,5.82,15.23,5.82,23.47C468.95,890.13,469.28,900.53,463.12,906.68z M458.71,862.92c-3.08-3.16-7.07-4.33-11.65-4.33
			h-12.9v47.93h12.9c4.58,0,8.57-1.16,11.65-4.33c4.08-4.24,3.91-13.06,3.91-20.3C462.62,874.65,462.79,867.16,458.71,862.92z"/>
		<path class="st0" d="M535.75,912.18l-4.74-13.4h-25.88l-4.74,13.4h-6.74l21.8-59.25h5.33l21.72,59.25H535.75z M518.19,862
			l-11.15,31.29h22.13L518.19,862z"/>
		<path class="st0" d="M587.9,912.68c-5.83,0-11.15-2.16-15.14-6.16c-5.58-5.57-5.58-11.4-5.58-23.96c0-12.56,0-18.39,5.58-23.96
			c3.99-3.99,9.32-6.16,15.14-6.16c10.65,0,18.55,6.49,20.55,17.64h-6.49c-1.58-7.24-6.66-11.98-14.06-11.98
			c-3.91,0-7.66,1.5-10.23,4.16c-3.75,3.83-4.16,7.9-4.16,20.3s0.42,16.48,4.16,20.3c2.58,2.66,6.32,4.16,10.23,4.16
			c7.41,0,12.65-4.74,14.23-11.98h6.32C606.54,906.18,598.47,912.68,587.9,912.68z"/>
		<path class="st0" d="M640.64,912.18v-59.25h6.32v59.25H640.64z"/>
		<path class="st0" d="M715.93,906.52c-3.99,3.99-9.24,6.16-15.14,6.16c-5.91,0-11.15-2.16-15.14-6.16
			c-5.58-5.57-5.58-11.4-5.58-23.96c0-12.56,0-18.39,5.58-23.96c3.99-3.99,9.24-6.16,15.14-6.16c5.91,0,11.15,2.16,15.14,6.16
			c5.58,5.58,5.58,11.4,5.58,23.96C721.51,895.12,721.51,900.94,715.93,906.52z M711.02,862.33c-2.58-2.66-6.32-4.24-10.23-4.24
			c-3.91,0-7.66,1.58-10.23,4.24c-3.75,3.83-4.16,7.82-4.16,20.22s0.42,16.39,4.16,20.22c2.58,2.66,6.32,4.24,10.23,4.24
			c3.91,0,7.66-1.58,10.23-4.24c3.75-3.83,4.16-7.82,4.16-20.22S714.77,866.16,711.02,862.33z M702.2,847.19h-5.49l7.32-12.73h7.16
			L702.2,847.19z"/>
		<path class="st0" d="M792.38,912.18l-31.45-47.51v47.51h-6.32v-59.25h5.99l31.45,47.35v-47.35h6.32v59.25H792.38z"/>
	</g>
	<g>
		<g>
			<path class="st0" d="M438.18,621.62c0-7.29-4.68-13.99-11.53-16.48c-6.88-2.51-14.79-0.37-19.48,5.24
				c-2.62,3.14-4.07,7.15-4.07,11.24v120.22c-0.84,12.12-8.85,22.96-20.16,27.37c-11.59,4.53-25.08,1.68-33.9-7.08
				c-4.86-4.83-8.08-11.19-9.06-17.98c0.04-0.46,0.07-0.92,0.07-1.38V621.62c0-9.69-7.85-17.54-17.54-17.54h0
				c-9.69,0-17.54,7.85-17.54,17.54v117.86h-0.18c-0.02,13.16,3.89,26.15,11.21,37.09c7.14,10.68,17.36,19.21,29.17,24.28
				c12.4,5.33,26.35,6.74,39.58,4.05c12.87-2.63,24.82-9.15,34.04-18.49c9.24-9.36,15.61-21.39,18.07-34.31
				c0.31-1.65,0.57-3.31,0.75-4.99c0.35-1.39,0.56-2.84,0.56-4.34V621.62z"/>
		</g>
		<g>
			<path class="st0" d="M269.95,604.35L269.95,604.35c-8.43,0-15.64,6.06-17.08,14.36L227.1,767.1c-0.02,0.09-0.02,0.18-0.03,0.27
				c-0.18,0.58-0.34,1.17-0.46,1.78c-0.62,3.01-5.11,3.05-5.77,0.04c-0.08-0.38-0.2-0.74-0.3-1.11c-0.04-0.42-0.07-0.84-0.15-1.26
				l-25.77-148.39c-1.44-8.3-8.65-14.36-17.07-14.36h-0.01c-10.75,0-18.91,9.69-17.07,20.29l25.77,148.39
				c0.12,0.68,0.29,1.33,0.48,1.97c0.72,6.81,4.35,13.55,8.84,18.62c4.43,5,10.17,8.79,16.51,10.89c13.05,4.31,27.7,0.9,37.62-8.58
				c5.49-5.25,9.32-12.12,10.85-19.57c0.04-0.21,0.06-0.42,0.1-0.64c0.26-0.79,0.48-1.59,0.62-2.43l25.77-148.39
				C288.86,614.04,280.7,604.35,269.95,604.35z"/>
		</g>
		<g>
			<g>
				<path class="st0" d="M878.47,780.43c-0.39-2.38-1.57-4.48-3.27-6.03c2.16-1.98,3.42-4.8,3.42-7.73h-0.01v-2.6h0.01
					c0-5.64-4.65-10.39-10.3-10.47c-5.75-0.08-10.61,4.7-10.61,10.45v1.19c0,0.06-0.02,0.12-0.02,0.19v21.29c0,3.55,5.5,3.55,5.5,0
					v-4.76c0.08-2.64,2.21-4.76,4.85-4.82c0.08,0.01,0.15,0.01,0.23,0c2.59,0.06,4.67,2.09,4.84,4.65v5.33c0,3.55,5.5,3.55,5.5,0
					v-5.83C878.62,780.99,878.56,780.7,878.47,780.43z M868.16,759.07c2.73,0,4.98,2.28,4.98,5h0v2.6h0c0,2.68-2.19,4.93-4.87,4.99
					c-0.08-0.01-0.15-0.01-0.23,0c-2.64-0.06-4.77-2.18-4.85-4.82v-1.42c0-0.07-0.02-0.14-0.02-0.22v-1.14h0.01
					C863.15,761.35,865.45,759.07,868.16,759.07z"/>
			</g>
			<g>
				<g>
					<g>
						<path class="st0" d="M869.11,803.25l-0.52-0.01c-6.13-0.13-11.94-2.56-16.41-6.88c-4.65-4.49-7.21-10.44-7.21-16.73v-13.31
							c0-9.86,6.38-18.91,15.66-22.24c9.3-3.34,19.93-0.36,26.2,7.25c3.46,4.2,5.38,9.54,5.38,14.99v13.31
							C892.21,792.48,881.89,802.97,869.11,803.25L869.11,803.25z M868.59,748.04c-10.08,0-18.28,8.2-18.28,18.28v13.31
							c0,9.98,8.71,18.15,18.54,18.28c9.96-0.14,18.03-8.29,18.03-18.28v-13.31C886.88,756.24,878.68,748.04,868.59,748.04z"/>
					</g>
				</g>
			</g>
		</g>
		<g>
			<path class="st0" d="M685.31,771.27h-32.87c-9-0.05-16.39-6.89-17.3-15.66V621.74c0-7.31-4.69-14.02-11.56-16.53
				c-6.9-2.51-14.83-0.37-19.53,5.26c-2.63,3.15-4.09,7.17-4.09,11.27v166.49c-0.01,0.18-0.03,0.36-0.03,0.54v0
				c0,4.84,1.96,9.22,5.14,12.38c3.7,3.73,8.95,5.61,14.18,5.11h66.06c9.66,0,17.49-7.83,17.49-17.49v0
				C702.81,779.1,694.97,771.27,685.31,771.27z"/>
		</g>
		<g>
			<path class="st0" d="M834.01,666.27c-2.11-19.78-12.93-38.03-29.17-49.49c-17.19-12.13-39.42-15.81-59.62-9.89
				c-12.44,3.65-23.76,10.79-32.39,20.47c-4.73,5.3-5.68,13.2-2.33,19.47c3.39,6.34,10.6,9.94,17.69,8.86
				c3.92-0.6,7.55-2.57,10.19-5.53c7.74-8.67,19.53-13.05,31.05-11.53c9.94,1.31,19.02,6.96,24.64,15.26
				c3.19,4.7,5.22,10.16,5.86,15.8v11.02c-9.95-3.14-20.54-4.06-30.94-3.79c-8.2,0.22-16.41,1.25-24.34,3.39
				c-13.91,3.76-27.45,11.29-34.99,23.99c-4.39,7.4-6.3,15.95-6.29,24.51h0.03v11.96h-0.03c-0.02,13.39,4.11,26.59,11.78,37.57
				c7.48,10.69,18.13,19.05,30.32,23.72c12.74,4.88,26.96,5.62,40.15,2.12c12.69-3.37,24.21-10.65,32.78-20.6
				c8.66-10.06,14.14-22.68,15.5-35.88C834.08,745.96,834.25,667.36,834.01,666.27z M768.82,772.1c-13,0-24.94-8.4-29.36-20.63
				c-1.24-3.43-1.86-7.06-1.84-10.7h-0.01v-11.96h0.01c-0.02-5.34,1.84-10.38,6.13-13.71c4.31-3.35,9.93-4.68,15.24-5.39
				c6.2-0.83,12.57-0.91,18.81-0.62c5.03,0.23,10.49,0.75,14.91,3.37c4.88,2.89,6.83,8.16,7.22,13.6c0,0,0.03,15.3,0.07,15.78
				C799.5,758.61,785.71,772.1,768.82,772.1z"/>
		</g>
		<g>
			<path class="st0" d="M456.28,744.16c2.11,19.78,12.93,38.03,29.17,49.49c17.19,12.13,39.42,15.81,59.62,9.89
				c12.44-3.65,23.76-10.79,32.39-20.47c4.73-5.3,5.68-13.2,2.33-19.47c-3.39-6.34-10.6-9.94-17.69-8.86
				c-3.92,0.6-7.55,2.57-10.19,5.53c-7.74,8.67-19.53,13.05-31.05,11.53c-9.94-1.31-19.02-6.96-24.64-15.26
				c-3.19-4.7-5.22-10.16-5.86-15.8v-11.02c9.95,3.14,20.54,4.06,30.94,3.79c8.2-0.22,16.41-1.25,24.34-3.39
				c13.91-3.76,27.45-11.29,34.99-23.99c4.39-7.4,6.3-15.95,6.29-24.51h-0.03v-11.96h0.03c0.02-13.39-4.11-26.59-11.78-37.57
				c-7.48-10.69-18.13-19.05-30.32-23.72c-12.74-4.88-26.96-5.62-40.15-2.12c-12.69,3.37-24.21,10.65-32.78,20.6
				c-8.66,10.06-14.14,22.68-15.5,35.88C456.21,664.47,456.04,743.07,456.28,744.16z M521.47,638.33c13,0,24.94,8.4,29.36,20.63
				c1.24,3.43,1.86,7.06,1.84,10.7h0.01v11.96h-0.01c0.02,5.34-1.84,10.38-6.13,13.71c-4.31,3.35-9.93,4.68-15.24,5.39
				c-6.2,0.83-12.57,0.91-18.81,0.62c-5.03-0.23-10.49-0.75-14.91-3.37c-4.88-2.89-6.83-8.16-7.22-13.6c0,0-0.03-15.3-0.07-15.78
				C490.78,651.83,504.58,638.33,521.47,638.33z"/>
		</g>
	</g>
	<path class="st0" d="M717.29,450.67c-0.28-0.23-0.58-0.44-0.9-0.63c-3.52-2.09-7.08-4.29-10.73-6.54
		c-18.99-11.73-38.62-23.87-61.02-26.17c-25.76-2.67-48.13,11.52-70.3,44.46c-1.49,1.57-2.31,3.63-2.31,5.8
		c0,4.65,3.78,8.43,8.43,8.43c3.09,0,5.92-1.68,7.34-4.28c9.85-14.59,18.55-23.46,28.21-28.78c7.68-4.21,16.62-5.56,26.59-4.02
		c10.26,1.58,20.22,6.29,29.46,11.15c8.19,4.31,16.31,9.2,24.3,14.02c2.92,1.76,5.84,3.53,8.77,5.26c0.41,0.24,0.83,0.44,1.17,0.56
		c1.43,0.64,2.96,0.97,4.54,0.97c6.15,0,11.15-5,11.15-11.15C721.97,456.16,720.22,452.77,717.29,450.67z"/>
	<path class="st0" d="M915.86,276.2c6.5-6.69,12.27-12.84,17.19-20.37c6.34-9.74,9.86-22.95,0.75-30.85
		c-11.01-6.72-22.32-6.69-33.94,0.1c-11.15,4.57-22.03,10.81-32.33,18.54c-22.06,16.56-40.47,38.86-56.71,58.54
		c-14.35,17.41-28.14,36.62-40.98,57.1c-6.05,9.65-12.06,20.06-17.87,30.94c-0.71,1.34-8.81,17.35-10.62,20.82
		c-1,1.55-1.58,3.39-1.58,5.37c0,5.48,4.44,9.92,9.92,9.92c3.45,0,6.49-1.77,8.27-4.44c0.02-0.01,0.03-0.02,0.05-0.04
		c1.92-2.88,3.87-8.61,6.23-13.17l0.91-1.76c3.13-6.12,6.57-12.51,10.23-18.97c6.55-11.61,13.97-23.54,22.07-35.47
		c13.47-19.89,29.39-39.68,51.62-64.15c20.29-22.33,37.95-35.35,57.27-42.22c3.65-1.28,7.35-1.84,11.09-1.7
		c-2.02,4.13-6.09,8.2-9.71,11.84c-0.74,0.74-1.46,1.46-2.15,2.17c-14.36,14.74-26.9,28.33-34.87,45.51
		c-1.78,3.86-3.12,8.11-3.98,12.64c-1.22,6.21-2.13,14.87,4.04,18.01c6.76,2.56,13.66,3.34,20.7,2.32c0.91-0.07,1.82-0.14,2.7-0.2
		c-0.6,0.6-1.26,1.13-1.8,1.77c-26.85,32.18-24.29,65.5-24.29,65.77c0,5.83,4.73,10.56,10.56,10.56c5.83,0,10.56-4.73,10.56-10.56
		c0-0.23-0.01-0.45-0.02-0.67c0.01-0.1,1.94-30.36,24.44-58.4c4.6-5.73,9.02-14.87,6.56-22.54c-1.55-4.84-5.48-8.2-11.05-9.45
		c-4.6-0.82-9.21-0.82-13.83,0c-2.3,0.26-4.49,0.51-6.52,0.53c1.59-4.41,4.19-10.59,6.83-14.27
		C901.53,291.16,908.57,283.72,915.86,276.2z"/>
	<path class="st0" d="M1034.34,686.35c-9.51-10.94-19.24-17.2-28.4-22.67c-12.99-7.79-23.73-13.05-33.91-16.59
		c-13.07-3.62-26.36-7.2-39.43-10.62c-11.2-3.65-20.55-9.71-28.58-18.52c-5.29-5.83-10.06-12.41-14.68-18.78
		c-2.15-2.96-4.3-5.93-6.5-8.84c-32.83-43.24-84-65.43-136.89-59.38c-5.31,0.61-10.49,1.71-15.51,2.77
		c-6.82,1.45-13.26,2.81-19.9,3.02c-8.76,0.27-16.67-1.22-23.57-4.44c-13.3-6.21-21.64-20.3-22.88-38.65
		c-0.16-2.34-0.19-4.94-0.1-8.06c0.04-0.34,0.06-0.69,0.06-1.04c0-5.18-4.21-9.39-9.39-9.39c-5.18,0-9.39,4.21-9.39,9.39l0,0.59
		c-0.82,24.3,6.93,47.57,19.73,59.28c15.71,14.39,37.67,14.67,53.33,12.37c3.63-0.53,7.17-1.34,10.59-2.13
		c2.36-0.54,4.71-1.08,7.1-1.52c7.06-1.34,14.46-2.05,22.6-2.17c14.58-0.24,29.21,2.08,42.25,6.66c22.96,8.11,39.11,18.4,54.01,34.4
		c5.87,6.33,11.27,12.72,17,19.48c7.97,9.41,16.2,19.15,25.93,28.89c14.24,13.47,37.19,19.71,43.89,21.3
		c12.67,3.01,24.99,6.24,36.59,12.46c30.45,16.36,61.98,37.51,50.62,81.64c-0.03,0.11-0.37,1.72-0.37,2.59
		c0,4.47,3.64,8.11,8.11,8.11c2.9,0,5.6-1.57,6.99-4.01c0.13-0.2,0.25-0.41,0.36-0.65C1056.34,734.53,1052.9,707.71,1034.34,686.35z
		"/>
	<path class="st0" d="M1077.54,442.1c-0.35-3.76-2.53-8.87-10.97-11.87c-3.73-1.32-8.89-2.37-15.78-3.2
		c-35.98-4.34-71.63-4.6-105.96-0.78c-27.52,3.07-54.25,8.75-79.47,16.9c-43.24,13.97-66.98,30.29-67.97,30.98
		c-4.43,3.08-5.52,9.16-2.44,13.58c3.08,4.42,9.16,5.52,13.58,2.44c0.22-0.15,22.33-15.34,62.83-28.43
		c23.97-7.75,49.41-13.16,75.63-16.08c31.6-3.52,64.4-3.42,97.57,0.3c-1.4,0.54-2.94,1.1-4.61,1.71
		c-11.26,4.06-25.82,8.64-41.23,13.49c-24,7.55-51.19,16.1-73.4,25.07c-28.15,11.37-43.15,21.24-48.62,31.99
		c-2.62,5.15-3.08,10.59-1.35,15.74c2.23,6.63,7.38,11.58,15.3,14.71c5.56,2.2,12.62,3.54,21.57,4.11
		c15.33,0.98,33.99-0.45,52.04-1.83c12.81-0.98,24.92-1.9,34.88-1.9c0.24,0,0.48,0,0.72,0c8.31,0.04,12.69,0.78,14.93,1.4
		c-0.62,0.97-1.57,2.31-3.02,4.1c-2.93,3.62-6.87,7.88-11.44,12.81c-14.24,15.38-33.73,36.44-45.5,63.22
		c-6.58,14.98-10.04,30.3-10.27,45.52c-0.27,17.66,3.79,35.69,12.05,53.6c5,10.84,12.08,19.03,18.93,26.96
		c8.03,9.29,16.33,18.9,22.77,34.06c7.55,17.75,11.4,40.55,11.79,69.72c0.35,26.05,12.77,45.54,16.09,50.29
		c1.7,2.86,4.82,4.77,8.39,4.77c5.39,0,9.76-4.37,9.76-9.76c0-2.14-0.69-4.13-1.87-5.74c0,0-12.55-17.04-12.85-39.82
		c-0.96-71.87-22.22-96.49-39.31-116.27c-6.51-7.53-12.13-14.04-15.97-22.38c-13.15-28.49-13.69-55.67-1.64-83.08
		c10.45-23.78,28.66-43.45,41.96-57.82c13.45-14.53,21.57-23.3,20.69-33.12c-0.34-3.77-2.3-10.68-11.66-14.58
		c-4.25-1.77-9.84-2.82-17.09-3.21c-12.07-0.65-27.49,0.53-43.81,1.78c-17.38,1.33-35.35,2.7-49.31,1.81
		c-17.92-1.14-19.55-5.4-19.62-5.58c0,0,0,0,0-0.01c0.07-0.29,0.88-3.01,7.62-7.76c5.92-4.18,14.78-8.77,26.31-13.64
		c22.26-9.4,51.24-18.51,76.8-26.56c18.06-5.68,35.13-11.05,47.49-15.79c6.96-2.67,12.12-5.02,15.76-7.18
		C1070.42,455.25,1078.32,450.56,1077.54,442.1z"/>
</g>
</svg>
