<?xml version="1.0" encoding="utf-8"?>
<!-- Generator: Adobe Illustrator 25.0.0, SVG Export Plug-In . SVG Version: 6.00 Build 0)  -->
<svg version="1.1" id="Capa_1" xmlns="http://www.w3.org/2000/svg" xmlns:xlink="http://www.w3.org/1999/xlink" x="0px" y="0px"
	 viewBox="0 0 354.3 357.9" style="enable-background:new 0 0 354.3 357.9;" xml:space="preserve">
<style type="text/css">
	.st0{fill:none;stroke:#000000;stroke-width:1.5386;stroke-miterlimit:10;}
	.st1{fill:#FFFFFF;stroke:#000000;stroke-width:1.5386;stroke-miterlimit:10;}
	.st2{fill:#FFFFFF;}
</style>
<g>
	<g>
		<path class="st0" d="M320.9,137.6"/>
		<g>
			<g>
				<path d="M114.1,198.5C114.1,198.5,114.1,198.5,114.1,198.5c-51.5,0-70.3-59.1-71.3-68c-0.9-7.8,0.4-14,3.6-17.7
					c2-2.3,4.7-3.4,8-3.5c-2.9-9.7-4-17-3.1-21.9c2.3-12.5,9.4-13.5,12.1-13.4c-1.6-9.1-1.8-17.6-0.6-25.2
					c2.6-16.6,11.6-18.4,15.3-18.4c0.6,0,1.1,0,1.4,0.1c0.4-3.4,1.1-6.4,2.2-9.1c2.8-7.1,7.3-11.2,12.4-11.2c4.9,0,9.2,3.9,9.6,8.9
					c5.7,64.2,33.7,81.2,56.2,84.1c1,0.1,2.1,0.2,3.1,0.2c8.1,0,17.7-5.5,20.4-20.9c0.1-0.7,0.2-1.4,0.3-2.1
					c0.8-5.6,1.9-13.3,9-13.3c0.7,0,1.4,0.1,2.2,0.2c9.1,1.8,7,18.4,6,26.5c-0.1,0.9-0.2,1.7-0.3,2.4l-0.1,0.6
					c-6.1,58.1-32.6,93.9-74.6,100.8C121.9,198.1,117.9,198.5,114.1,198.5z M54.7,110.5c-3.1,0-5.6,1-7.4,3.1
					c-3,3.3-4.2,9.4-3.3,16.7c1,8.8,19.5,66.9,70.1,66.9c0,0,0,0,0,0c3.8,0,7.7-0.3,11.6-1c41.4-6.8,67.6-42.2,73.6-99.7l0.1-0.6
					c0.1-0.7,0.2-1.5,0.3-2.4c1-7.7,3-23.6-5-25.1c-0.7-0.1-1.3-0.2-2-0.2c-6,0-7,6.8-7.8,12.2c-0.1,0.8-0.2,1.5-0.3,2.2
					c-1.8,10.6-8.4,22-21.6,22c-1,0-2.1-0.1-3.2-0.2c-32.9-4.3-52.6-33.8-57.2-85.2c-0.4-4.4-4.1-7.8-8.4-7.8
					c-4.6,0-8.7,3.8-11.3,10.4c-1.1,2.8-1.8,5.9-2.2,9.5l-0.1,0.7L80,31.8c-0.2,0-0.9-0.2-1.8-0.2c-4.2,0-11.7,2.3-14.1,17.3
					c-1.2,7.7-1,16.2,0.8,25.5l0.2,0.9l-0.9-0.1c-0.1,0-0.4-0.1-0.9-0.1c-2.5,0-8.5,1.2-10.6,12.4c-0.9,4.8,0.2,12.1,3.2,21.9
					l0.2,0.6L54.7,110.5z"/>
			</g>
			<g>
				<path d="M140.4,164.9c-0.1,0,0.5,0.1,1.1,0.5c0.7,0.3,1.7,0.9,2.8,2c0.3,0.3,0.6,0.6,0.8,1c0.3,0.4,0.5,0.8,0.7,1.3
					c0.2,0.5,0.4,1,0.5,1.5c0.1,0.5,0.2,1.2,0.2,1.7c0,0.6,0,1.2-0.2,1.8c-0.1,0.3-0.1,0.6-0.2,0.9c-0.1,0.3-0.2,0.6-0.3,0.8
					c-0.1,0.3-0.2,0.6-0.3,0.9c-0.1,0.3-0.3,0.5-0.4,0.8c-0.1,0.3-0.3,0.5-0.4,0.8c-0.2,0.3-0.4,0.5-0.5,0.8c-1,1.3-2.1,2.2-3.3,3
					c-1.2,0.8-2.6,1.3-4.1,1.8c-2.9,0.8-6.1,1.1-9.6,0.6c-3.4-0.5-7-2-10-4.8c-3-2.7-5-6.8-5.7-10.9c-0.1-0.5-0.1-1-0.2-1.6
					c-0.1-0.5-0.1-1.1-0.1-1.6l0-0.8l0-0.4l0-0.1c0,0.1,0-0.2,0-0.2l0-0.2c0-0.5,0-1,0.1-1.5c0-0.3,0-0.5,0-0.7l0.1-0.9
					c0.1-0.6,0.1-1.2,0.2-1.7c0.2-1.1,0.5-2.2,0.9-3.3c1.4-4.4,4.5-8.5,8.5-11.3c2-1.4,4.2-2.5,6.5-3.3c0.6-0.2,1.2-0.4,1.7-0.6
					c0.6-0.2,1.2-0.3,1.8-0.5l0.9-0.2l0.2-0.1c0,0,0.5-0.1,0.3-0.1l0.1,0l0.4-0.1l1.7-0.2c0.3,0,0.6,0,1-0.1l1,0c0.7,0,1.4,0,2,0.1
					c1.3,0.2,2.6,0.3,3.8,0.6c2.6,0.5,5,1.6,7.3,2.8c4.6,2.6,8.5,6.6,10.9,11.5c2.5,4.9,3.3,10.5,2.9,15.9l-0.2,2l-0.1,1l-0.1,0.5
					l0,0.3c0,0-0.1,0.3,0,0.2l0,0.1l-0.4,1.8l-0.6,2.1c-0.9,2.7-2.2,5.1-3.7,7.4c-3.1,4.6-7.4,8.3-12.2,11c-4.8,2.6-10,4.3-15.4,5
					c-2.7,0.4-5.3,0.5-8,0.3c-2.7-0.1-5.3-0.4-7.9-0.9c-5.2-1-10.1-2.8-14.7-5.1c-1.2-0.6-2.2-1.2-3.4-1.8c-1-0.7-2.1-1.3-3.1-2
					c-2-1.2-4-2.8-6-4.3c-7.8-6-14.1-12.9-19.4-20c-5.3-7.1-9.6-14.3-12.9-21.3c-3.3-7-5.6-13.8-6.8-20.2c-0.2-1.6-0.5-3.2-0.7-4.7
					c0-0.8-0.1-1.5-0.1-2.3c0-0.4,0-0.7-0.1-1.1l0-0.5l0-0.3l0-0.1l0-0.1c0,0.1,0-0.2,0-0.2c0-0.7,0.1-1.3,0.1-1.9
					c0-0.3,0-0.6,0-0.9c0-0.4,0.1-0.7,0.1-1.1c0.1-0.7,0.2-1.4,0.3-2.1c0.2-0.7,0.3-1.3,0.5-1.9c0.7-2.5,1.8-4.9,3.4-6.6
					c1.6-1.7,3.6-2.7,5.2-3c3.2-0.7,4.8,0.2,5,0.2c1.3,0.2,2.1,1.4,1.9,2.6c-0.2,1.3-1.4,2.1-2.6,1.9c0.2,0-0.8,0.3-2.1,1.2
					c-0.6,0.4-1.2,1-1.8,1.9c-0.6,0.9-1.3,2.1-1.7,3.8c-0.1,0.4-0.2,0.9-0.3,1.3c-0.1,0.5-0.1,0.9-0.2,1.4c0,0.2-0.1,0.5-0.1,0.7
					c0,0.3,0,0.6,0,0.9c0,0.6-0.1,1.3-0.1,1.9c0,0.1,0-0.3,0-0.1l0,0.1l0,0.1l0,0.2l0,0.5c0,0.3,0,0.6,0,0.9c0,0.6,0.1,1.2,0.1,1.9
					c0.2,1.3,0.4,2.7,0.6,4c1,5.6,3.1,11.9,6.2,18.4c3,6.5,7,13.4,12,20c5,6.6,11,13.2,18,18.6c1.8,1.3,3.4,2.7,5.5,3.9
					c1,0.6,1.9,1.2,2.9,1.9c1,0.5,2,1.1,3,1.6c4,2,8.3,3.6,12.8,4.5c8.9,1.8,18.6,0.9,26.5-3.4c4-2.1,7.4-5.1,9.9-8.7
					c1.2-1.8,2.3-3.8,3-5.8l0.5-1.4l0.4-1.8c0.1-1.1,0.3-2.1,0.4-3.2c0.4-4.4-0.2-8.8-2.1-12.5c-1.9-3.7-4.8-6.8-8.3-8.9
					c-1.8-0.9-3.6-1.8-5.6-2.3c-1-0.3-1.9-0.4-2.9-0.5c-0.5-0.1-0.9,0-1.4-0.1l-0.7,0c-0.2,0-0.4,0-0.7,0l-1.7,0.2l-0.4,0l-0.1,0
					c-0.2,0,0.2,0,0.1,0l-0.2,0l-0.7,0.2c-0.5,0.1-1,0.2-1.4,0.4c-0.5,0.1-1,0.3-1.4,0.4c-1.9,0.6-3.6,1.5-5.1,2.5
					c-3.1,2.1-5.3,4.9-6.4,8.2c-0.3,0.8-0.5,1.7-0.7,2.5c-0.1,0.4-0.1,0.8-0.2,1.2l-0.1,0.6c0,0.2,0,0.5,0,0.7c0,0.5-0.1,1-0.1,1.5
					l0,0.2c0,0.1,0-0.2,0,0l0,0.1l0,0.3l0,0.6c0,0.4,0,0.8,0.1,1.3c0.1,0.4,0.1,0.8,0.1,1.2c0.5,3.2,1.9,6,3.9,7.9
					c2,1.9,4.6,3.1,7.2,3.5c2.6,0.5,5.1,0.3,7.3-0.3c1.1-0.3,2.1-0.7,2.9-1.2c0.8-0.5,1.5-1.1,1.9-1.5l0.2-0.3l0.1-0.2l0.1-0.1l0,0
					c0,0,0.1-0.2-0.1,0.1c0.1-0.2,0.2-0.4,0.3-0.6c0.1-0.2,0.2-0.4,0.3-0.5c0.1-0.2,0.1-0.4,0.2-0.5c0.1-0.2,0.1-0.3,0.2-0.5
					c0-0.2,0.1-0.3,0.1-0.5c0.1-0.3,0.1-0.6,0.1-0.8c0.1-1-0.4-1.7-0.9-2.2c-0.5-0.6-1.1-0.9-1.5-1.1c-0.4-0.2-0.5-0.2-0.6-0.3
					c-1.2-0.4-1.8-1.7-1.4-2.9C137.8,165.1,139.2,164.5,140.4,164.9z"/>
				<path d="M74.8,141.9c0,0-2.2-4.8-5.3-12.1c-1.6-3.6-3.3-7.9-5.1-12.5c-0.9-2.3-1.8-4.7-2.7-7.1c-0.9-2.4-1.8-4.9-2.6-7.5
					c-0.4-1.3-0.8-2.5-1.2-3.8c-0.4-1.3-0.7-2.6-1.1-3.8c-0.4-1.3-0.7-2.5-1-3.8c-0.2-0.6-0.3-1.3-0.4-1.9c-0.1-0.6-0.2-1.3-0.3-1.9
					c-0.1-0.6-0.2-1.3-0.3-1.9c-0.1-0.7-0.1-1.3-0.2-2c0-0.3-0.1-0.6-0.1-1l0-0.5l0-0.1l0-0.1c0,0.1,0-0.2,0-0.2l0,0l0-0.2
					c0-0.6,0-1.1,0.1-1.7c0-0.3,0-0.5,0-0.9c0-0.3,0.1-0.7,0.1-1c0.1-0.6,0.2-1.3,0.3-1.9c0.2-0.6,0.3-1.2,0.5-1.8
					c0.1-0.6,0.5-1.1,0.7-1.7c1-2.2,2.5-4,4.1-5.2c1.6-1.2,3.3-1.8,4.6-2.1c1.3-0.3,2.4-0.4,3.2-0.4c0.7,0,1.2,0.1,1.2,0.1
					c1.3,0.1,2.2,1.2,2.1,2.5c-0.1,1.3-1.2,2.2-2.5,2.1c0,0-0.1,0-0.6,0.1c-0.5,0.1-1.2,0.2-2.1,0.5c-0.9,0.3-1.8,0.8-2.8,1.5
					c-0.9,0.7-1.8,1.7-2.5,3.1c-0.1,0.4-0.4,0.7-0.5,1.1c-0.1,0.4-0.2,0.8-0.4,1.2c-0.1,0.4-0.1,0.8-0.2,1.3l-0.1,0.7
					c0,0.2,0,0.5,0,0.8c0,0.6,0,1.1-0.1,1.7l0,0.2l0,0c0,0,0-0.3,0-0.1l0,0l0,0.1l0,0.4l0.1,0.8c0,0.5,0.1,1.1,0.1,1.6
					c0.1,0.6,0.2,1.1,0.3,1.7c0.1,0.6,0.2,1.2,0.3,1.7c0.1,0.6,0.3,1.2,0.4,1.8c0.3,1.2,0.5,2.4,0.9,3.6c0.3,1.2,0.7,2.4,1,3.7
					c0.4,1.2,0.8,2.5,1.2,3.7c3.2,9.9,7,19.6,9.9,26.9c2.9,7.3,5,12,5,12c0.5,1.2,0,2.5-1.2,3C76.7,143.5,75.3,143,74.8,141.9
					L74.8,141.9z"/>
				<path d="M84,117.7c0,0-0.2-0.4-0.5-1.1c-0.3-0.7-0.8-1.8-1.4-3.1c-1.2-2.7-2.8-6.5-4.6-11.1c-0.9-2.3-1.8-4.8-2.8-7.5
					c-1-2.7-1.8-5.6-2.8-8.5c-0.9-3-1.8-6.1-2.6-9.3c-0.9-3.2-1.5-6.5-2.2-9.7c-0.3-1.7-0.6-3.3-0.8-5c-0.3-1.6-0.4-3.3-0.6-5
					c-0.1-0.8-0.2-1.6-0.3-2.5c-0.1-0.8-0.1-1.6-0.2-2.5c-0.1-1.6-0.2-3.2-0.2-4.8c0.1-3.2,0-6.3,0.4-9.3c0.4-3.1,1-5.9,2.3-8.6
					c1.2-2.6,3.2-5.1,5.7-6.4c2.5-1.3,5-1.4,6.8-1.2c1.8,0.3,3.1,0.9,3.9,1.4c0.8,0.5,1.2,0.9,1.2,0.9c1.1,0.6,1.5,2,0.9,3.1
					c-0.6,1.1-2,1.5-3.1,0.9c0.1,0-0.3,0-0.9-0.1c-0.6-0.1-1.5-0.2-2.6-0.3c-1-0.1-2.2,0-3.3,0.6c-1.1,0.6-2.2,1.7-3,3.6
					c-0.9,1.8-1.4,4.2-1.8,6.7c-0.4,2.7-0.3,5.5-0.4,8.5c0,1.5,0.1,3,0.2,4.5c0,0.8,0.1,1.5,0.1,2.3c0.1,0.8,0.2,1.6,0.3,2.3
					c0.2,1.6,0.3,3.2,0.6,4.7c0.2,1.6,0.5,3.2,0.7,4.8c0.6,3.2,1.2,6.3,2,9.4c0.7,3.1,1.6,6.1,2.3,9.1c0.9,2.9,1.7,5.7,2.6,8.4
					c0.8,2.7,1.7,5.2,2.5,7.5c0.8,2.3,1.6,4.4,2.3,6.2c0.7,1.9,1.4,3.4,1.9,4.8c0.5,1.3,1,2.3,1.3,3c0.3,0.7,0.5,1.1,0.5,1.1l0,0
					c0.5,1.2,0,2.5-1.2,3C85.8,119.3,84.5,118.8,84,117.7z"/>
				<path d="M97.2,89.9c0,0-0.7-1.4-1.8-4.1c-1.1-2.7-2.7-6.6-4.5-11.7c-1.8-5.1-3.8-11.4-5.7-18.7c-1.8-7.3-3.6-15.8-3.8-25.4
					c-0.1-4.8,0.2-9.9,1.9-15.2c0.2-0.7,0.5-1.3,0.7-2c0.3-0.7,0.5-1.3,0.9-2l0.5-1l0.3-0.5l0.1-0.2c0-0.1,0,0,0.1-0.2L86,8.9
					c0.4-0.5,0.7-1,1.1-1.6C88,6,88.8,4.9,89.9,3.7c1.1-1.1,2.4-2.2,4.3-3c0.9-0.4,2-0.7,3.2-0.7c1.2,0,2.4,0.2,3.4,0.7
					c2,0.9,3.3,2.4,4.4,3.7c2,2.8,3,5.6,3.8,8.5c0.4,1.5,0.7,2.9,1,4.4c0.1,0.7,0.2,1.5,0.3,2.2l0.1,1.1c0,0.3,0.1,0.7,0.1,1
					c0.1,0.6,0.2,1.2,0.3,1.9l0.4,2c0.3,1.4,0.6,2.7,0.8,4.1c2.4,11,5.7,22.2,10.2,33.1c2.3,5.4,4.8,10.7,7.9,15.7
					c3.1,4.9,6.7,9.5,11.1,12.8c2.2,1.6,4.6,2.8,7.1,3.4l0.9,0.2l0.5,0.1l0.2,0l0.1,0c0,0,0.2,0,0,0l2.3,0.2l2.3,0.2l0.6,0l0.5,0
					l1,0c1.4-0.1,2.7,0,4.1-0.2c1.4-0.2,2.8-0.3,4.1-0.7l2-0.5c0.7-0.2,1.3-0.5,1.9-0.7c0.6-0.3,1.3-0.4,1.9-0.7l1.8-0.9
					c0.6-0.3,1.2-0.7,1.8-1c0.6-0.4,1.2-0.7,1.7-1.1c1.1-0.9,2.2-1.6,3.1-2.6c2-1.8,3.8-4,5.3-6.2c1.6-2.3,2.9-4.7,4.1-7.2l0.9-2
					c0.3-0.6,0.7-1.4,1.1-2.1c0.8-1.4,1.8-2.9,3.3-4.1c0.8-0.6,1.7-1.2,2.7-1.5c0.5-0.2,1.1-0.3,1.6-0.4c0.5,0,1.1-0.1,1.6,0
					c1.1,0,2,0.3,2.8,0.6c0.4,0.1,0.8,0.3,1.2,0.5l0.6,0.3l0.3,0.1c0.1,0.1-0.1-0.1,0.4,0.2l0.1,0.1c0.3,0.2,0.6,0.4,0.9,0.6
					c0.4,0.3,0.8,0.7,1.2,1c0.2,0.2,0.4,0.3,0.5,0.5l0.4,0.5c0.3,0.3,0.6,0.6,0.8,0.9c1,1.3,1.8,2.6,2.5,4c1.4,2.7,2.3,5.5,2.9,8.4
					c0.7,2.8,0.9,5.7,1,8.5c0.1,5.6-0.9,11-2.4,15.9c-0.3,1.3-0.8,2.4-1.2,3.6c-0.2,0.6-0.4,1.2-0.7,1.8c-0.2,0.6-0.5,1.1-0.7,1.7
					c-0.5,1.1-1,2.3-1.5,3.3c-0.5,1.1-1,2.1-1.6,3.2c-4.3,8.3-8.9,15.4-13.2,21.6c-4.3,6.2-8.2,11.4-11.6,15.6
					c-3.4,4.2-6.1,7.4-8.2,9.6c-1,1.1-1.8,1.9-2.4,2.5c-0.1,0.1-0.3,0.3-0.5,0.4c-0.1,0.1-0.2,0.2-0.4,0.3c-0.4,0.2-0.5,0.3-0.5,0.3
					c-1.2,0.5-2.5,0-3.1-1.1c-0.5-1.2,0-2.5,1.1-3.1c0,0,0,0-0.1,0c0,0,0,0,0.1-0.1c0.1-0.1,0.1-0.1,0.3-0.2
					c0.5-0.4,1.2-1.1,2.1-2.2c1.9-2,4.6-5.2,7.8-9.4c3.3-4.2,7.1-9.3,11.3-15.4c4.1-6.1,8.6-13.1,12.7-21.2c4-7.9,7.5-17.1,7.2-27
					c-0.1-2.4-0.3-4.9-0.9-7.4c-0.6-2.4-1.3-4.8-2.5-7c-0.6-1.1-1.2-2.1-1.9-3.1c-0.2-0.3-0.4-0.4-0.6-0.7l-0.3-0.3
					c-0.1-0.1-0.2-0.2-0.3-0.3c-0.1-0.1-0.3-0.2-0.4-0.4c-0.2-0.2-0.6-0.4-0.8-0.6l-0.1-0.1c0.4,0.2,0.1,0,0.1,0.1l-0.2-0.1
					l-0.4-0.2c-0.3-0.1-0.5-0.2-0.8-0.3c-0.5-0.1-0.9-0.3-1.3-0.3c-0.4,0-0.7,0-1,0.1c-0.3,0.1-0.6,0.3-1,0.6
					c-0.7,0.6-1.4,1.5-2,2.6c-0.3,0.5-0.6,1-0.9,1.7l-0.9,2c-1.2,2.8-2.7,5.5-4.5,8.1c-1.7,2.6-3.7,5.1-6.1,7.3
					c-1.1,1.2-2.5,2.1-3.7,3.1c-0.7,0.5-1.4,0.9-2,1.4c-0.7,0.4-1.4,0.9-2.1,1.2l-2.2,1.1c-0.7,0.4-1.5,0.6-2.3,0.9
					c-0.8,0.3-1.5,0.6-2.3,0.8l-2.4,0.6c-1.6,0.5-3.2,0.6-4.8,0.8c-1.6,0.3-3.3,0.2-5,0.3l-1.3,0l-0.6,0l-0.6,0l-2.3-0.2l-2.3-0.2
					c-0.4,0-0.2,0-0.3,0l-0.2,0l-0.3-0.1l-0.7-0.1l-1.3-0.3c-3.4-0.9-6.6-2.4-9.3-4.4c-5.5-4-9.5-9.2-12.9-14.5
					c-3.4-5.4-6.1-11-8.5-16.6c-4.7-11.4-8.1-22.9-10.7-34.2c-0.3-1.4-0.6-2.8-0.9-4.3l-0.4-2.1c-0.1-0.7-0.3-1.4-0.4-2.2
					c-0.1-0.4-0.1-0.7-0.1-1.1l-0.1-1c-0.1-0.6-0.2-1.3-0.3-1.9c-0.2-1.3-0.5-2.5-0.8-3.7c-0.7-2.4-1.6-4.7-2.8-6.3
					C99,7.7,98.4,7.2,98,7c-0.4-0.1-0.5-0.2-1.1,0.1c-0.6,0.2-1.3,0.8-2,1.5c-0.7,0.7-1.4,1.6-2,2.5c-0.3,0.4-0.7,1-1,1.6
					c-0.2,0.4-0.5,0.9-0.7,1.3c-0.3,0.4-0.4,1-0.7,1.5c-0.2,0.5-0.4,1-0.6,1.5c-1.3,4.1-1.7,8.7-1.6,13c0,4.4,0.5,8.6,1,12.6
					c0.6,4,1.3,7.8,2.1,11.4c1.6,7.2,3.4,13.3,4.9,18.4c1.5,5.1,2.9,9,3.8,11.7c0.9,2.7,1.4,4.1,1.4,4.1c0.5,1.2-0.1,2.5-1.3,3
					C99,91.5,97.7,91,97.2,89.9L97.2,89.9z"/>
				<path d="M166.5,89.8c-0.7,0-1.5-0.4-1.9-1c-1.8-2.8-4.9-12.4,1.9-17c7.5-5,15.2,3.5,15.6,3.8c0.9,0.9,0.8,2.4-0.2,3.3
					c-0.9,0.9-2.4,0.8-3.3-0.2c0-0.1-5.4-5.9-9.6-3.1c-4.6,3.1-0.7,10.6-0.6,10.7c0.7,1.1,0.4,2.5-0.7,3.2
					C167.4,89.6,166.9,89.8,166.5,89.8z"/>
				<path d="M219,86.7c0,0,0.1,0,0.2,0c0.1,0,0.1,0,0.2,0c0.1,0,0.2,0,0.4,0c0.5,0,1.4-0.1,2.4-0.3c1-0.2,2.3-0.6,3.7-1.1
					c1.4-0.5,2.9-1.3,4.5-2.3c1.5-1,3.2-2.2,4.7-3.8c0.8-0.7,1.5-1.6,2.3-2.4c0.7-0.8,1.4-1.9,2.1-2.7c1.4-2.1,2.9-4.3,4.4-6.5
					c0.7-1.1,1.5-2.2,2.3-3.4c0.7-1.1,1.5-2.3,2.2-3.4c1.4-2.3,2.9-4.5,4.3-6.8c1.4-2.3,2.8-4.5,4.1-6.7c0.7-1.1,1.4-2.2,2.1-3.2
					l0.5-0.8l0.2-0.4l0,0l0.2-0.2l0.1-0.1l0.1-0.2c0.4-0.5,0.6-0.9,1.3-1.5c0.3-0.3,0.6-0.6,0.9-0.8c0.3-0.2,0.6-0.4,0.9-0.6
					c0.6-0.4,1.3-0.7,2-1c0.7-0.3,1.4-0.4,2.1-0.6c0.7-0.1,1.4-0.2,2.1-0.1c2.8,0.1,5.3,1.4,6.8,3.1c1.5,1.7,2.3,3.4,2.6,4.9
					c0.3,1.4,0.4,2.6,0.3,3.3c0,0.8,0,1.2,0,1.2c0,1.3-1.1,2.3-2.4,2.2c-1.1,0-2.1-0.9-2.2-2l0-0.4c0,0,0-0.3-0.1-0.8
					c0-0.5-0.2-1.3-0.4-2.1c-0.3-0.8-0.8-1.8-1.6-2.5c-0.8-0.7-1.9-1.3-3.2-1.3c-0.3-0.1-0.6,0.1-1,0.1c-0.3,0.1-0.7,0.2-1,0.3
					c-0.3,0.2-0.7,0.3-1,0.5l-0.5,0.3c-0.1,0.1-0.2,0.2-0.4,0.3c-0.2,0.1-0.6,0.7-1,1.1l-0.1,0.2l-0.1,0.1l0,0c0,0,0.2-0.3,0.1-0.1
					l0,0l-0.2,0.4l-0.5,0.8c-0.6,1-1.3,2-2,3.1c-1.4,2.2-2.7,4.4-4.2,6.7c-1.4,2.3-2.9,4.6-4.4,6.9c-0.8,1.2-1.5,2.3-2.2,3.5
					c-0.8,1.1-1.5,2.2-2.3,3.3c-1.5,2.2-3,4.4-4.5,6.5c-0.4,0.5-0.8,1.1-1.3,1.6c-0.4,0.5-0.8,1.1-1.3,1.5c-0.9,1-1.7,1.9-2.7,2.8
					c-1.8,1.8-3.8,3.1-5.6,4.3c-1.9,1.1-3.8,2-5.5,2.6c-1.7,0.6-3.2,1-4.6,1.2c-1.3,0.2-2.3,0.3-3.1,0.3c-0.2,0-0.3,0-0.5,0
					c-0.2,0-0.3,0-0.4,0c-0.2,0-0.3,0-0.3,0c-1.3-0.1-2.3-1.2-2.2-2.4C216.6,87.6,217.7,86.6,219,86.7z"/>
				<path d="M240.3,98.5c0,0,0.1-0.1,0.4-0.3c0.2-0.2,0.6-0.4,1-0.8c0.9-0.7,2.2-1.8,3.8-3.2c1.6-1.4,3.5-3.2,5.6-5.3
					c1.1-1,2.1-2.2,3.3-3.4c1.1-1.2,2.3-2.5,3.4-3.9c1.1-1.4,2.4-2.9,3.5-4.5c0.6-0.8,1.2-1.6,1.8-2.4c0.6-0.8,1.1-1.7,1.7-2.6
					c0.6-0.8,1.1-1.8,1.6-2.7c0.5-0.9,1.1-1.8,1.6-2.8c0.9-1.9,2-3.9,2.7-6c0.9-2,1.4-4.2,2.1-6.4c0.2-0.6,0.3-1.2,0.5-1.8l0.2-0.9
					c0.1-0.3,0.2-0.7,0.4-1c0.5-1.4,1.1-2.6,1.8-3.9c0.8-1.2,1.7-2.5,3-3.5c0.6-0.5,1.4-1,2.2-1.4c0.9-0.3,1.7-0.6,2.7-0.7
					c1.9-0.2,3.9,0.5,5.4,1.6c1.5,1.1,2.5,2.7,3.1,4.2c0.1,0.4,0.3,0.7,0.4,1.2l0.2,0.9l0.2,0.9l0.2,1l0.2,1l0.1,1
					c0.1,0.7,0.2,1.3,0.2,2c0.2,2.7,0.1,5.3-0.1,7.9c-0.5,5.2-1.9,10.1-3.5,14.6c-1.6,4.5-3.6,8.7-5.6,12.6c-1,2-2,3.8-3,5.6
					l-0.4,0.7l-0.5,0.7c-0.3,0.4-0.5,0.8-0.8,1.2c-0.5,0.8-1,1.6-1.5,2.4c-0.2,0.4-0.5,0.8-0.7,1.2l-0.4,0.6l-0.4,0.6
					c-0.6,0.7-1.1,1.5-1.7,2.2c-0.6,0.7-1.1,1.4-1.6,2.1c-0.5,0.6-1.1,1.2-1.7,1.8c-1.1,1.1-2.1,2.3-3.1,3.2c-0.5,0.5-1,0.9-1.5,1.3
					c-0.5,0.4-0.9,0.8-1.4,1.2c-0.9,0.7-1.7,1.3-2.5,1.8c-0.8,0.5-1.4,0.9-2,1.2c-0.6,0.3-1.1,0.5-1.4,0.7c-0.4,0.2-0.6,0.2-0.6,0.2
					c-1.2,0.5-2.5-0.1-3-1.3c-0.5-1.1,0.1-2.5,1.2-3l0.3-0.1c0,0,0.1,0,0.3-0.1c0.2-0.1,0.6-0.3,1-0.5c0.4-0.3,1-0.6,1.7-1
					c0.6-0.4,1.3-1,2.2-1.6c0.4-0.3,0.8-0.7,1.2-1.1c0.4-0.4,0.9-0.8,1.3-1.2c0.9-0.8,1.8-1.9,2.8-2.9c0.5-0.5,1-1.1,1.5-1.7
					c0.5-0.6,0.9-1.2,1.4-1.9c0.9-1.3,2-2.6,2.9-4.2c0.5-0.8,1-1.6,1.5-2.4c0.3-0.4,0.5-0.8,0.8-1.3l0.3-0.5l0.3-0.7
					c0.9-1.7,1.9-3.5,2.8-5.4c1.9-3.8,3.7-7.8,5.1-12.1c1.5-4.3,2.7-8.8,3.1-13.3c0.2-2.3,0.3-4.6,0.1-6.9c0-0.6-0.1-1.1-0.2-1.7
					c-0.1-0.6-0.2-1.1-0.3-1.6l-0.2-0.8l-0.2-0.9l-0.2-0.9l-0.2-0.5c-0.3-0.7-0.7-1.4-1.2-1.7c-0.5-0.4-1-0.5-1.6-0.5
					c-0.3,0-0.6,0.1-0.9,0.2c-0.3,0.2-0.6,0.3-0.9,0.6c-0.6,0.5-1.2,1.3-1.8,2.1c-0.5,0.9-1,1.8-1.3,2.7c-0.1,0.2-0.2,0.4-0.3,0.7
					l-0.3,0.9l-0.5,1.6c-0.7,2.4-1.4,4.9-2.4,7.1c-0.8,2.3-2,4.4-3,6.5c-0.5,1-1.2,2-1.7,3c-0.6,1-1.1,2-1.8,2.8
					c-0.6,0.9-1.2,1.8-1.8,2.7c-0.6,0.9-1.3,1.7-1.9,2.5c-1.2,1.7-2.5,3.2-3.8,4.6c-1.2,1.5-2.5,2.8-3.7,4.1
					c-1.2,1.2-2.4,2.4-3.5,3.5c-2.2,2.1-4.3,3.9-6,5.3c-1.7,1.4-3.1,2.5-4,3.2c-0.5,0.4-0.9,0.6-1.1,0.8c-0.2,0.2-0.4,0.3-0.4,0.3
					c-1,0.7-2.5,0.5-3.2-0.5C239.1,100.7,239.3,99.3,240.3,98.5L240.3,98.5z"/>
				<path d="M274,126.1c0,0,0.2-0.2,0.6-0.6c0.4-0.4,0.9-0.9,1.6-1.6c0.7-0.7,1.6-1.6,2.5-2.7c1-1,2-2.3,3.1-3.6
					c1.1-1.4,2.3-2.8,3.4-4.4c0.6-0.8,1.2-1.6,1.8-2.5c0.6-0.8,1.2-1.7,1.8-2.7c0.6-0.9,1.2-1.8,1.7-2.8c0.5-1,1.2-1.9,1.7-2.9
					c0.5-1,1.1-2,1.5-3c0.5-1,0.9-2.1,1.4-3.1c0.8-2.1,1.7-4.3,2.3-6.4c0.2-0.5,0.3-1,0.5-1.5c0.1-0.6,0.3-1.1,0.4-1.7
					c0.3-1.2,0.4-2.1,0.6-3.1c0.2-1,0.2-2,0.3-3c0-1,0.1-1.9,0-2.8c0-1.8-0.4-3.5-0.9-4.9c-0.4-1.4-1.2-2.5-1.8-3.3
					c-0.3-0.4-0.7-0.7-1-1c-0.2-0.1-0.4-0.2-0.5-0.3c-0.2-0.1-0.3-0.2-0.5-0.2c-0.3-0.1-0.6-0.3-0.8-0.3c-0.2-0.1-0.4-0.2-0.6-0.2
					c-0.3-0.2-0.6-0.4-0.6-0.4l-0.7-0.9c-0.9-1.1-0.7-2.7,0.4-3.5c0.1-0.1,0.2-0.1,0.3-0.2c0,0,0.4-0.2,1.2-0.3
					c0.4-0.1,0.9,0,1.4,0.1c0.5,0.1,1.1,0.3,1.8,0.6c0.3,0.1,0.7,0.3,1,0.5c0.3,0.2,0.7,0.4,1,0.6c0.6,0.5,1.3,1.1,1.9,1.8
					c1.2,1.4,2.3,3.2,2.9,5.2c0.7,2,1.1,4.2,1.1,6.4c0.1,1.1,0,2.3,0,3.4c-0.1,1.2-0.2,2.3-0.4,3.5c-0.2,1.2-0.4,2.5-0.7,3.5
					c-0.1,0.6-0.3,1.1-0.4,1.7l0,0.1l0,0.1l0,0.1L303,90l-0.1,0.4l-0.3,0.9c-0.2,0.6-0.4,1.2-0.6,1.8c-0.2,0.6-0.4,1.2-0.6,1.7
					c-0.5,1.1-0.9,2.3-1.4,3.4c-0.5,1.1-1,2.2-1.6,3.3c-0.5,1.1-1.1,2.2-1.7,3.2c-0.5,1.1-1.2,2.1-1.8,3.1c-0.6,1-1.2,2-1.9,2.9
					c-0.6,1-1.3,1.9-1.9,2.8c-0.6,0.9-1.3,1.8-1.9,2.6c-1.3,1.7-2.5,3.2-3.7,4.6c-1.2,1.4-2.3,2.6-3.4,3.7c-1,1.1-1.9,2-2.7,2.7
					c-0.8,0.8-1.4,1.3-1.8,1.7c-0.4,0.4-0.7,0.6-0.7,0.6c-1,0.8-2.4,0.8-3.3-0.2C273,128.4,273,127,274,126.1L274,126.1z"/>
				<path d="M297.5,100.8c0,0,0.2,0.1,0.7,0.4c0.2,0.1,0.3,0.3,0.5,0.4c0.1,0.1,0.2,0.2,0.3,0.3c0.1,0.1,0.2,0.2,0.2,0.3
					c0.2,0.2,0.3,0.4,0.5,0.6c0.2,0.2,0.3,0.5,0.5,0.7c1.3,2,2.3,5,2.5,8.9c0.3,3.8-0.2,8.4-1.8,13.3c-1.6,4.9-4.3,10.2-8.2,15.1
					c-2,2.5-4.2,4.8-6.7,7.1c-0.6,0.5-1.3,1.1-1.9,1.7c-0.7,0.6-1.3,1-2,1.6c-1.3,1-2.8,2.1-4.2,3.1c-5.8,4-12.2,7.8-19.2,10.9
					c-7,3.1-14.6,5.8-22.6,7.1c-4,0.7-8.2,1-12.4,0.7c-4.2-0.3-8.5-1.1-12.5-2.9c-2-0.9-3.9-2-5.7-3.3c-0.8-0.7-1.7-1.4-2.5-2.2
					l-1.2-1.2c-0.5-0.6-0.6-0.7-1.1-1.3c-2.9-4-3.8-8.5-3.9-12.7c-0.1-4.3,0.7-8.5,2.2-12.4c1.4-3.9,3.5-7.6,6.4-10.6
					c0.7-0.8,1.5-1.5,2.4-2.1l0.7-0.5l0.7-0.4l1.2-0.7c1.9-1,3.6-1.9,5.5-2.5c1.9-0.6,3.8-1.1,5.8-1.3c1-0.1,2-0.1,2.9-0.2
					c0.5,0,1,0.1,1.5,0.1c0.5,0,1,0.1,1.5,0.2c2,0.2,3.8,0.9,5.6,1.6c1.7,0.9,3.4,1.9,4.7,3.2c0.3,0.3,0.7,0.6,1,1l0.9,1l0.4,0.5
					l0.1,0.1l0.2,0.2l0.2,0.2c0.2,0.3,0.4,0.6,0.7,1c1.1,1.8,1.6,3.3,2.1,5c0.9,3.3,1,6.6,0.3,9.8c-0.7,3.1-2.4,6.1-4.7,8
					c-1.1,1-2.4,1.8-3.6,2.3l-0.5,0.2l-0.1,0.1c-0.1,0,0.2-0.1-0.3,0.1l-0.1,0l-0.2,0.1c-0.3,0.1-0.5,0.2-0.8,0.2l-0.2,0.1l-0.3,0.1
					l-0.6,0.1c-0.4,0-0.9,0.1-1.2,0.1c-2.9-0.1-5.3-1.3-7-2.7c-1.7-1.4-2.8-3-3.5-4.5c-0.7-1.5-1.1-3-1.1-4.2c0-0.3,0-0.6,0-0.9
					c0-0.3,0-0.5,0.1-0.8c0-0.2,0.1-0.5,0.1-0.7c0.1-0.2,0.1-0.4,0.1-0.5c0.2-0.6,0.3-1,0.3-1c0.1-0.4,0.6-0.5,0.9-0.4
					c0,0,0,0,0.1,0l3.4,1.7c0,0-0.1,0.6,0.1,1.9c0.1,0.6,0.4,1.5,0.8,2.4c0.4,0.9,1.2,2,2.2,2.8c1,0.8,2.3,1.4,3.6,1.5
					c0.2,0,0.2,0,0.4,0c0.1,0,0.1,0,0.2,0l0.1,0l0.2-0.1c0.3-0.1,0.5-0.2,0.8-0.2l0.2-0.1l0.1,0c-0.4,0.1-0.1,0-0.2,0.1l0.1,0
					l0.3-0.1c0.8-0.4,1.6-0.8,2.3-1.4c1.4-1.2,2.5-3,3-5.2c0.5-2.2,0.4-4.8-0.2-7.3c-0.3-1.2-0.9-2.5-1.4-3.5
					c-0.2-0.3-0.4-0.6-0.6-0.9l-0.2-0.2l0-0.1c0,0-0.1-0.2,0,0.1l-0.1-0.1l-0.3-0.4l-0.7-0.8c-0.2-0.3-0.5-0.5-0.7-0.7
					c-1-1-2.2-1.7-3.4-2.3c-1.3-0.5-2.7-1-4.1-1.2c-0.4-0.1-0.7-0.1-1.1-0.1c-0.4,0-0.7-0.1-1.1-0.1c-0.8,0-1.5,0-2.3,0.1
					c-1.6,0.1-3.1,0.5-4.7,1c-1.5,0.5-3.1,1.3-4.4,2l-1.2,0.7l-0.5,0.3l-0.5,0.3c-0.6,0.5-1.2,1-1.8,1.6c-2.3,2.4-4.1,5.5-5.3,8.8
					c-1.2,3.3-1.9,7-1.9,10.5c0,1.8,0.3,3.6,0.7,5.2c0.2,0.8,0.5,1.6,0.9,2.4c0.3,0.7,0.8,1.5,1.2,2.1c0.1,0.2,0.7,0.8,0.8,1l0.9,1
					c0.6,0.7,1.3,1.2,2,1.8c1.4,1.1,3,2,4.6,2.8c3.3,1.5,7,2.3,10.7,2.5c3.7,0.2,7.5,0,11.3-0.6c7.5-1.2,14.7-3.7,21.4-6.7
					c6.7-3,12.9-6.6,18.4-10.4c1.4-1,2.7-1.9,4-2.9c0.6-0.5,1.4-1,1.9-1.5c0.6-0.5,1.2-1,1.8-1.5c2.3-2.1,4.4-4.2,6.2-6.5
					c3.6-4.5,6-9.2,7.5-13.5c1.4-4.4,1.8-8.4,1.6-11.6c-0.2-3.2-1-5.5-1.7-6.7c-0.1-0.1-0.2-0.3-0.3-0.4c-0.1-0.1-0.2-0.2-0.2-0.3
					c0,0-0.1-0.1-0.1-0.1c0,0,0,0-0.1,0c0,0-0.1-0.1-0.1-0.1c-0.3-0.2-0.6-0.4-0.6-0.4c-1.1-0.7-1.4-2.1-0.7-3.2
					C295,100.5,296.5,100.2,297.5,100.8z"/>
			</g>
		</g>
	</g>
	<g>
		<path d="M160.5,315.4c-9.3-1.7-12.9-10.6-13.7-21.2c-0.8-11.9-3.4-16.4-3.4-16.4l0,0c-0.3-0.5-0.5-1-0.9-1.3c-0.5-0.5-1-1-1.5-1.3
			c-0.5-0.3-1-0.6-1.4-0.8c-0.4-0.2-0.7-0.3-0.9-0.4c-0.2,0-0.2-0.1-0.2-0.2c0-0.1,0.1-0.2,0.3-0.2c1.9-0.3,3.6-0.8,5-1.6
			c1.4-0.8,2.7-2.1,3.7-3.7c0.6-0.9,1.1-2,1.3-3.2c0.3-1.2,0.4-2.3,0.3-3.5c-0.1-1.2-0.3-2.3-0.7-3.4c-0.4-1.1-1-2.1-1.7-2.9
			c-0.9-1-1.9-1.9-2.9-2.5c-1.1-0.6-2.2-1.1-3.3-1.5c-1.2-0.4-2.4-0.6-3.6-0.8c-1.2-0.2-2.5-0.4-3.8-0.5l-20.8-2.8
			c-0.2,0-0.4,0-0.5,0.1c-0.1,0.1-0.2,0.2-0.2,0.3c0,0.1,0,0.3,0.1,0.4c0.1,0.1,0.2,0.2,0.4,0.3c0.3,0.1,0.7,0.2,1.2,0.5
			c0.6,0.2,1.1,0.6,1.7,1c0.5,0.5,1,1,1.4,1.8c0.4,0.7,0.5,1.6,0.3,2.6l-4.5,33.1c-0.1,1.1-0.5,1.9-1,2.5c-0.5,0.6-1.1,1-1.8,1.3
			c-0.6,0.3-1.3,0.5-1.9,0.6c-0.6,0.1-1,0.1-1.3,0.1c-0.2,0-0.4,0.1-0.5,0.2c-0.1,0.1-0.2,0.2-0.2,0.3c0,0.1,0,0.2,0.1,0.4
			c0.1,0.1,0.3,0.2,0.5,0.2l21.6,2.9c0.2,0,0.4,0,0.5-0.1c0.1-0.1,0.2-0.2,0.2-0.3c0-0.1,0-0.2-0.1-0.4c-0.1-0.1-0.2-0.2-0.4-0.3
			c-0.3-0.1-0.7-0.2-1.2-0.5c-0.6-0.2-1.1-0.6-1.7-1c-0.5-0.5-1-1.1-1.4-1.8c-0.4-0.7-0.5-1.6-0.3-2.7l1.8-13.6
			c0.1-0.7,0.3-1.2,0.6-1.5c0.3-0.3,0.9-0.3,1.6-0.2c0.6,0.1,1.2,0.3,1.9,0.6c0.6,0.3,1.2,0.9,1.6,1.7c0.5,0.9,0.8,2.1,1.1,3.7
			c0.5,2.2,1.2,8.5,2.9,22.8c1.8,14.3,18.2,14.9,21.9,14.7C161.3,316.8,161.6,315.6,160.5,315.4z M132.8,270.7
			c-0.7,0.4-1.5,0.6-2.2,0.7c-0.7,0.1-1.5,0.2-2.2,0.1c-0.7-0.1-1.4-0.1-2-0.2c-0.5-0.1-0.7-0.4-0.7-0.8l1.9-14
			c0.1-0.9,0.4-1.7,0.7-2.4c0.3-0.6,0.7-1.1,1.2-1.5c0.5-0.4,1.1-0.6,1.7-0.7c0.6-0.1,1.3-0.1,2.1,0c0.8,0.1,1.6,0.4,2.2,0.7
			c0.6,0.4,1.1,0.9,1.5,1.7c0.4,0.7,0.6,1.7,0.7,2.8c0.1,1.1,0,2.5-0.2,4.1c-0.3,1.9-0.6,3.4-1.1,4.7c-0.5,1.2-1,2.3-1.6,3
			C134.2,269.7,133.6,270.3,132.8,270.7z"/>
		<g>
			<path d="M193.5,264.8c0,0-0.1,0-0.1,0l0,0c0,0-8.8,1-7.8,8.4c0.7,5.1,1.9,14.6,2.6,20c0.5,4.1,0.2,10.8-3.1,14.2
				c-4,4.1-10,5.6-11.5,5.9c-1.5,0.3-2.7,0.4-2.7,0.4s-0.5,0.5,0.1,0.9c0.6,0.3,6.5,1.9,12.5,1c6.3-1,11.6-3,13.6-8.4
				c1.8-4.7,1.1-7.6,1-9.1c0-0.1-4.3-32.8-4.3-32.8C193.8,264.9,193.7,264.8,193.5,264.8z"/>
			<path d="M192.5,252.7c-0.4-0.6-0.8-1.1-1.4-1.6c-0.5-0.4-1.2-0.7-1.9-0.9c-0.7-0.2-1.5-0.2-2.3-0.1c-0.8,0.1-1.5,0.3-2.2,0.7
				c-0.7,0.4-1.2,0.9-1.7,1.4c-0.4,0.6-0.8,1.2-1,1.9c-0.2,0.7-0.3,1.4-0.2,2.2c0.1,0.7,0.3,1.4,0.7,2c0.4,0.6,0.8,1.1,1.4,1.5
				c0.5,0.4,1.2,0.7,1.9,0.9c0.7,0.2,1.4,0.2,2.2,0.1c0.8-0.1,1.5-0.4,2.2-0.7c0.6-0.4,1.2-0.9,1.7-1.4c0.5-0.6,0.8-1.2,1-1.9
				c0.2-0.7,0.3-1.4,0.2-2.2C193.1,254,192.9,253.4,192.5,252.7z"/>
		</g>
		<path d="M20,258.8c0.1-0.1,0.1-0.2,0.1-0.4c0-0.1-0.1-0.3-0.3-0.4c-0.2-0.2-0.5-0.5-1-0.9c-0.4-0.4-0.8-0.9-1.2-1.6
			c-0.3-0.6-0.5-1.3-0.6-2.1c-0.1-0.8,0.1-1.7,0.7-2.6l7.7-13.8c0.4-1.9,20.9-11.7,20.9-11.7c2.2-1,8.8-3.4,11.2-1l1.1-0.7
			c0,0-2.2-7.9-16-0.8c0,0-0.1,0-0.1,0c-0.3,0.2-0.5,0.3-0.7,0.4c-0.6,0.3-1.2,0.7-1.8,1c-0.6,0.3-1.2,0.6-2,1
			c-1.1,0.6-2.3,1.2-3.5,1.8c-1.2,0.6-2.4,1.2-3.4,1.7c-1,0.5-1.9,0.9-2.7,1.3c-0.3,0.1-0.5,0.2-0.7,0.3l-0.9,0.3
			c-0.3,0-0.5-0.2-0.6-0.6c0-0.2-0.1-0.6-0.2-1.3c-0.1-0.7,0-0.3,0-1.4c-0.1-1.1-0.1-2.2-0.2-3.5c-0.1-1.3-0.1-2.5-0.2-3.7
			c0-0.6,0-1.1,0-1.6c0,0,0-0.1,0-0.1c0-0.5,0-1,0-1.5c0-0.2,0-0.4,0-0.6c-0.3-6.7-1.8-11.6-7.1-17.6c-4.3-4.9-8.5-4.2-8.5-4.2
			s2.2,6.6,3.1,10.9c0.1,0.5,0.2,1,0.3,1.5c0.1,0.3,0.1,0.7,0.1,0.9l0,0c0.1,0.5,0.1,0.8,0.2,1.1c0,0.3,0.1,0.9,0.1,1.6
			c0.1,0.7,0.1,1.6,0.2,2.6c0.1,1,0.2,2.1,0.3,3.3c0.1,1.2,0.2,2.4,0.3,3.7c0.1,1.2,0.2,2.5,0.3,3.7c0.1,1.2,0.2,2.3,0.2,3.3
			c0.1,1,0.1,1.8,0.2,2.5c0,0.7,0.1,1.2,0.1,1.4c0,0.4,0,0.8-0.1,1.1c0,0.3-0.1,0.6-0.2,0.9c-0.1,0.3-0.2,0.5-0.4,0.8
			c-0.1,0.3-0.3,0.5-0.4,0.8l-6,10.9c-0.5,0.9-1.1,1.6-1.9,1.9c-0.7,0.4-1.4,0.6-2.1,0.6c-0.7,0-1.4,0-2-0.2c-0.6-0.2-1-0.3-1.3-0.4
			c-0.2-0.1-0.4-0.1-0.5,0c-0.1,0.1-0.2,0.1-0.3,0.2C0,247.9,0,248,0,248.1c0,0.1,0.2,0.3,0.4,0.4l18.7,10.4
			c0.2,0.1,0.4,0.1,0.5,0.1C19.8,259,19.9,258.9,20,258.8z"/>
		<path d="M85.1,288.1c0-0.1-0.1-0.2-0.3-0.3c-0.2-0.1-0.4-0.3-0.8-0.5c-0.4-0.3-0.7-0.6-1.1-1.1c-0.3-0.5-0.6-1-0.7-1.6
			c-0.1-0.6-0.1-1.4,0.3-2.3l8.9-23.2c0,0,2.1-4.9,2.8-6.8c2.2-5.7-0.8-10.5-3.9-12c-6.1-3-7.4-1.6-7.4-1.6s-0.5,0.4-0.1,0.7
			c1.2,1.2,4,4,2.7,7.8c-1.1,3.4-3.5,9.1-3.5,9.1c-0.1,0-0.2-0.1-0.3-0.2c0,0-0.2-0.2-0.4-0.5c-0.3-0.3-0.7-0.7-1.2-1.1
			c-0.6-0.4-1.3-0.9-2.2-1.4c-0.9-0.5-2.1-1-3.4-1.5c-2.4-0.9-4.6-1.3-6.7-1.2c-2.1,0.1-3.9,0.6-5.6,1.5c-1.7,0.9-3.2,2.3-4.5,4
			c-1.3,1.7-2.4,3.8-3.3,6.2c-0.4,1-0.7,2-0.9,3.1c-0.3,1.1-0.4,2.3-0.5,3.5c-0.1,1.2,0,2.4,0.3,3.6c0.2,1.2,0.7,2.4,1.3,3.5
			c0.6,1.1,1.5,2.1,2.6,3.1c1.1,0.9,2.5,1.7,4.2,2.3c1.5,0.6,2.9,0.9,4.2,0.9c1.3,0.1,2.4,0,3.4-0.2c1-0.2,1.8-0.5,2.4-0.8
			c0.6-0.3,1.1-0.6,1.4-0.7c0.1-0.1,0.2-0.1,0.3,0c0.1,0.1,0.1,0.2,0.1,0.3c0,0-0.1,1.7,2.3,4c3.5,3.4,8.7,4,8.7,4
			c0.2,0.1,0.3,0.1,0.4,0c0.1,0,0.2-0.1,0.3-0.2C85.2,288.3,85.2,288.2,85.1,288.1z M73,278c-0.8,0.6-1.7,1-2.7,1.2
			c-1.1,0.2-2.3,0-3.8-0.5c-1.1-0.4-2-1-2.6-1.8c-0.6-0.8-1-1.6-1.2-2.5c-0.2-0.9-0.3-1.9-0.2-2.9c0.1-1,0.3-2,0.5-3
			c0.2-1,0.5-1.8,0.8-2.6c0.3-0.8,0.5-1.4,0.7-1.9c0.7-1.8,1.4-3.4,2.2-4.8c0.8-1.4,1.7-2.6,2.7-3.5c1-0.9,2-1.5,3.2-1.8
			c1.1-0.3,2.3-0.2,3.6,0.2c0.8,0.3,1.5,0.7,2,1.3c0.5,0.5,0.9,1.1,1.2,1.8c0.3,0.6,0.5,1.3,0.6,2c0.1,0.7,0.1,1.4,0,2.1
			c-0.1,0.7-0.2,1.4-0.3,2.1c-0.2,0.7-0.3,1.3-0.5,1.8l-3.2,8.6c-0.2,0.7-0.6,1.4-1.1,2.2C74.3,276.7,73.7,277.4,73,278z"/>
		<path d="M290.1,270.2c-0.1-0.1-0.3-0.1-0.4-0.1c-0.2,0-0.5,0.1-0.9,0.1c-0.4,0-0.8,0-1.3-0.1c-0.5-0.1-0.9-0.4-1.4-0.8
			c-0.5-0.4-0.8-1-1.1-1.9l-4.5-12.7l-0.1-0.2c-0.3-0.8-0.6-1.6-0.9-2.5c-0.3-0.9-0.7-1.7-1.2-2.6c-0.5-0.8-1.1-1.6-1.8-2.3
			c-0.7-0.7-1.5-1.2-2.5-1.6c-1-0.4-2.1-0.6-3.4-0.5c-1.3,0-2.8,0.3-4.6,1c-1.2,0.4-2.2,0.9-3.1,1.5c-0.9,0.6-1.7,1.2-2.3,1.8
			c-0.7,0.7-1.2,1.3-1.7,2c-0.5,0.7-0.8,1.4-1.1,2c-0.5-0.5-1.1-0.9-1.8-1.2c-0.7-0.3-1.4-0.5-2.2-0.6c-0.8-0.1-1.7-0.1-2.7,0
			c-1,0.1-2.1,0.4-3.4,0.9c-1.9,0.7-3.4,1.5-4.5,2.5c-1.2,1-2.1,2-2.8,3.1c0,0-0.3,0.3-0.7,0.7c-3.1-2.4-7.4,0.1-8.3,0.5
			c-1.2,0.6-1.9,2-0.9,2.1c1.1,0.1,2.7,3.9,2.7,3.9s4.1,12.5,6.1,17.7c1.4,3.7,4.3,5.6,7.6,4.6c2.7-0.8,5.4-2.9,6.3-3.6
			c0.1-0.1,0.2-0.1,0.3-0.2c0.1-0.1,0.1-0.2,0.1-0.4c0-0.1-0.1-0.2-0.2-0.3c-0.1-0.1-0.3-0.1-0.4-0.1c-0.2,0-0.5,0.1-0.9,0.1
			c-0.4,0-0.8,0-1.3-0.1c-0.5-0.1-0.9-0.4-1.4-0.8c-0.3-0.3-0.6-0.6-0.8-1.1c-0.1-0.3-0.3-0.7-0.5-1.2l-3.7-10.5
			c-0.8-2.4-1.6-4.8-2.4-7c-0.1-0.3-0.1-0.6-0.2-0.9c-0.1-0.7-0.1-1.3,0.1-1.9c0.2-0.6,0.5-1.2,0.9-1.7c0.5-0.5,1.2-1,2.1-1.3
			c1.1-0.4,2-0.5,2.8-0.3c0.8,0.2,1.5,0.6,2.1,1.2c0.6,0.6,1.1,1.3,1.6,2.1c0.4,0.8,0.8,1.6,1.1,2.5l3.8,10.8l0,0
			c0,0,1.6,4.8,1.8,5.4c0.2,0.6,1.5,3,4.8,3.3c2.7,0.2,7.7-3.1,8.7-4.1c0.1,0,0.1-0.1,0.2-0.2c0.1-0.1,0.1-0.2,0.1-0.4
			c0-0.1-0.1-0.2-0.2-0.3c-0.1-0.1-0.3-0.1-0.4-0.1c-0.2,0-0.5,0.1-0.9,0.1c-0.4,0-0.8,0-1.3-0.1c-0.5-0.1-0.9-0.4-1.4-0.8
			c-0.5-0.4-0.8-1-1.1-1.9l-6-16.9c-0.2-0.6-0.3-1.3-0.4-1.9c-0.1-0.7-0.1-1.3,0.1-1.9c0.1-0.6,0.5-1.2,0.9-1.7
			c0.5-0.5,1.2-1,2.1-1.3c1.1-0.4,2-0.5,2.9-0.3c0.8,0.2,1.5,0.6,2.1,1.2c0.6,0.6,1.1,1.3,1.6,2.1c0.4,0.8,0.8,1.7,1.1,2.5l5.2,14.9
			c0,0,0,0,0,0l0.3,0.8c0,0,1.5,4.1,5.1,4.3c4,0.2,8.6-3.9,8.5-4.8c0-0.1,0.1-0.2,0-0.3C290.2,270.4,290.2,270.3,290.1,270.2z"/>
		<path d="M354,232.6c-0.1,0-0.3,0-0.4,0c-0.2,0.1-0.4,0.2-0.8,0.3c-0.4,0.1-0.8,0.2-1.3,0.2c-0.5,0-1-0.1-1.5-0.4
			c-0.5-0.3-1.1-0.8-1.6-1.5l-7.4-11.2l-0.1-0.1c-0.4-0.7-0.9-1.4-1.5-2.2c-0.5-0.8-1.1-1.5-1.8-2.2c-0.7-0.7-1.4-1.3-2.3-1.8
			c-0.8-0.5-1.8-0.8-2.8-1c-1-0.1-2.2,0-3.4,0.3c-1.3,0.3-2.7,1-4.2,2c-1,0.7-1.9,1.4-2.7,2.2c-0.7,0.8-1.3,1.5-1.8,2.3
			c-0.5,0.8-0.9,1.6-1.1,2.4c-0.3,0.8-0.5,1.5-0.6,2.2c-0.6-0.3-1.3-0.6-2-0.7c-0.7-0.1-1.5-0.2-2.3-0.1c-0.8,0.1-1.7,0.3-2.7,0.7
			c-0.9,0.4-2,0.9-3,1.6c-1.7,1.1-2.9,2.3-3.8,3.5c-0.9,1.2-1.5,2.5-2,3.7c0,0-0.2,0.3-0.5,0.9c-3.6-1.6-7.1,1.8-7.9,2.5
			c-1,0.8-1.4,2.4-0.4,2.2c1.1-0.1,3.5,3.2,3.5,3.2s7,11.1,10.2,15.7c2.2,3.2,5.5,4.4,8.4,2.6c2.4-1.5,4.6-4.1,5.3-5
			c0.1-0.1,0.2-0.2,0.2-0.3c0-0.1,0-0.3,0-0.4c0-0.1-0.1-0.2-0.2-0.2c-0.1,0-0.3,0-0.4,0c-0.2,0.1-0.4,0.2-0.8,0.3
			c-0.4,0.1-0.8,0.2-1.3,0.2c-0.5,0-1-0.1-1.5-0.4c-0.4-0.2-0.7-0.5-1.1-0.9c-0.2-0.3-0.5-0.6-0.8-1.1l-6.1-9.3
			c-1.4-2.1-2.7-4.3-4-6.2c-0.1-0.3-0.3-0.6-0.4-0.8c-0.3-0.6-0.4-1.3-0.4-1.9c0-0.6,0.2-1.3,0.5-1.9c0.3-0.6,0.9-1.2,1.8-1.8
			c1-0.6,1.8-0.9,2.7-0.9c0.8,0,1.6,0.2,2.4,0.6c0.7,0.4,1.4,1,2,1.6c0.6,0.7,1.2,1.4,1.7,2.2l6.3,9.6l0,0c0,0,2.7,4.3,3,4.8
			c0.4,0.6,2.2,2.6,5.4,2c2.7-0.5,6.7-4.8,7.4-6c0.1-0.1,0.1-0.1,0.1-0.2c0-0.1,0-0.3,0-0.4c0-0.1-0.1-0.2-0.2-0.2
			c-0.1,0-0.3,0-0.5,0c-0.2,0.1-0.4,0.2-0.8,0.3c-0.4,0.1-0.8,0.2-1.3,0.2c-0.5,0-1-0.1-1.5-0.4c-0.5-0.3-1.1-0.8-1.6-1.5l-9.8-15
			c-0.3-0.6-0.6-1.2-0.9-1.8c-0.2-0.6-0.4-1.3-0.4-1.9c0-0.6,0.2-1.3,0.5-1.9c0.3-0.6,0.9-1.2,1.8-1.8c1-0.6,1.9-1,2.7-0.9
			c0.8,0,1.6,0.2,2.3,0.6c0.7,0.4,1.4,1,2,1.7c0.6,0.7,1.2,1.4,1.7,2.2l8.7,13.2c0,0,0,0,0,0l0.4,0.7c0,0,2.5,3.7,6,2.9
			c3.9-0.8,7.4-5.8,7.1-6.8c0-0.1,0-0.2,0-0.3C354.2,232.7,354.1,232.6,354,232.6z"/>
		<g>
			<path d="M281.8,239.6c0,0,7.9-4.8,10.7,2.9c2.8,7.7,6.4,18.9,7.8,19.7s3.8,1.7,3.8,1.7s-2.9,2.6-6.2,3.7c-3.2,1.1-6.2-0.8-8.2-6
				c-2-5.2-6-16-6-16s-2.2-4-3.3-4.1C279.4,241.4,279.9,239.9,281.8,239.6z"/>
			<path d="M284.8,223.6c-0.5-0.5-1.1-0.9-1.7-1.2c-0.6-0.3-1.3-0.4-2-0.4c-0.7,0-1.5,0.1-2.2,0.5c-0.7,0.3-1.4,0.7-1.9,1.3
				c-0.5,0.5-1,1.1-1.2,1.8c-0.3,0.7-0.4,1.4-0.5,2.1c0,0.7,0.1,1.4,0.4,2.1c0.3,0.7,0.7,1.3,1.2,1.8c0.5,0.5,1.1,0.9,1.7,1.1
				c0.6,0.3,1.3,0.4,2,0.4c0.7,0,1.5-0.1,2.2-0.4c0.8-0.3,1.4-0.7,1.9-1.3c0.5-0.5,0.9-1.1,1.2-1.8c0.3-0.6,0.5-1.3,0.5-2.1
				s-0.1-1.4-0.4-2.1C285.7,224.7,285.3,224.1,284.8,223.6z"/>
		</g>
		<path d="M48.5,270.3c-0.9-0.6-1.5-1.5-1.2-2.4c0.4-1.1,5-10.3,6.2-12.5c0.8-1.5,3.8-6.1,0.7-10.8c-3.1-4.8-8.6-8.1-13.9-8.3
			c-4.3-0.2-6.9,2.2-7.8,3.7c-1,1.6-0.3,2.7,2.4,4.1c2.7,1.4,3.2-1.5,6.4-2.8c3.2-1.3,5.9,1,6.5,2.6c0.7,1.8-3.4,9-3.4,9
			s-2.7-1.3-8.1-3.3c-5.9-2.2-11.3,0.8-12.8,5.2c-1.6,4.9,0.5,8.5,5.5,11.3s9.7,0.8,9.7,0.8s0,0,0.4,0.9c0.7,1.6,1.3,2.8,4.1,4.3
			c2.9,1.4,5.9,0.5,6.7-0.2C50.5,271.3,49.5,271.1,48.5,270.3z M31.7,263.2c-3.5-2.5-0.9-7.9,2.2-10c3.1-2.1,9.7,1.3,9.7,1.3
			l-4.1,9.6C39.5,264.1,35.2,265.7,31.7,263.2z"/>
		<path d="M181.5,292.3c-1.1-0.1-2.1-0.6-2.2-1.5c-0.2-1.2-0.6-11.4-0.7-14c0-1.7,0.4-7.1-4.6-9.8c-5-2.7-11.5-3-16.2-0.6
			c-3.9,1.9-5,5.3-5.1,7c-0.1,1.9,1.1,2.5,4.1,2.4c3-0.1,2.1-2.9,4.3-5.6c2.2-2.7,5.6-1.9,6.9-0.8c1.4,1.3,1.4,9.5,1.4,9.5
			s-3,0.2-8.7,1c-6.2,1-9.5,6.1-8.7,10.7c1,5.1,4.6,7.2,10.2,7.3c5.7,0.1,8.9-3.9,8.9-3.9s0,0,0.8,0.6c1.4,1,2.5,1.9,5.7,1.8
			c3.2-0.1,5.4-2.4,5.7-3.4C183.7,292.1,182.8,292.4,181.5,292.3z M163.4,294.1c-4.3-0.5-4.6-6.5-2.9-9.8c1.7-3.4,9.2-3.5,9.2-3.5
			l1,10.4C170.6,291.1,167.7,294.6,163.4,294.1z"/>
		<path d="M233.1,286c-1.1,0-2.1-0.4-2.4-1.2c-0.3-1.2-1.8-11.3-2.1-13.8c-0.2-1.7-0.4-7.2-5.6-9.3c-5.2-2.1-11.7-1.7-16.1,1.1
			c-3.6,2.3-4.4,5.8-4.3,7.5c0.1,1.9,1.3,2.4,4.3,2c3-0.4,1.8-3.1,3.7-6c1.9-2.9,5.4-2.5,6.8-1.5c1.6,1.1,2.4,9.3,2.4,9.3
			s-3,0.5-8.5,2c-6.1,1.6-8.8,7.1-7.5,11.6c1.5,5,5.3,6.6,11,6.2c5.7-0.5,8.4-4.9,8.4-4.9s0,0,0.9,0.5c1.5,0.9,2.7,1.6,5.9,1.1
			c3.2-0.5,5.1-3,5.3-4C235.3,285.6,234.4,286,233.1,286z M215.3,289.8c-4.3,0-5.3-5.9-4-9.5c1.3-3.5,8.7-4.5,8.7-4.5l2.1,10.2
			C222.2,286,219.6,289.8,215.3,289.8z"/>
	</g>
	<g>
		<path d="M41.3,318.7l-7.5-2.7l-7,19.1l-2.1-0.8l7-19.1l-7.5-2.7l0.7-1.8l17,6.2L41.3,318.7z"/>
		<path d="M39.7,339.7c-1.6-0.5-2.7-1.4-3.2-2.8c-0.5-1.4-0.4-3.2,0.3-5.4l2.8-9.2l2,0.6l-2.7,8.8c-1.1,3.5-0.4,5.7,2,6.4
			c0.6,0.2,1.2,0.3,1.9,0.2c0.6,0,1.3-0.2,1.9-0.4c0.6-0.2,1.2-0.5,1.7-1c0.5-0.4,1-0.9,1.5-1.5l3-9.9l2,0.6l-4,13
			c-0.2,0.6,0,0.9,0.5,1.1l-0.5,1.8c-0.4-0.1-0.7-0.1-0.9-0.2c-0.5-0.1-0.8-0.4-1.1-0.8c-0.2-0.4-0.3-0.8-0.2-1.2l0.7-2.2
			c-1.1,1-2.3,1.7-3.7,2C42.4,340.1,41.1,340.1,39.7,339.7z"/>
		<path d="M85.6,350.5l-2.1-0.4l1.9-8.9c0.4-1.9,0.4-3.3,0-4.3c-0.4-1-1.2-1.6-2.4-1.9c-0.6-0.1-1.2-0.1-1.8,0
			c-0.6,0.1-1.2,0.3-1.7,0.6c-0.5,0.3-1.1,0.7-1.5,1.2c-0.5,0.5-0.9,1.1-1.2,1.7l-2,9.8l-2.1-0.4l1.9-8.9c0.4-1.9,0.4-3.4,0-4.3
			c-0.4-1-1.2-1.6-2.4-1.8c-1.2-0.3-2.4-0.1-3.5,0.6c-1.1,0.6-2,1.6-2.7,2.9l-2,9.8l-2.1-0.4l3.3-16L67,330l-0.8,3.6
			c0.9-1.1,2-1.9,3.2-2.3c1.2-0.5,2.5-0.6,3.8-0.3c1.4,0.3,2.4,0.9,3,1.8c0.7,0.9,0.9,2,0.9,3.3c2.1-2.4,4.4-3.4,7.1-2.8
			c0.9,0.2,1.6,0.5,2.2,1c0.6,0.5,1,1,1.2,1.7c0.3,0.7,0.4,1.5,0.4,2.4c0,0.9-0.1,1.9-0.3,2.9L85.6,350.5z"/>
		<path d="M95,352.3c-0.8-0.1-1.6-0.4-2.2-0.7c-0.6-0.4-1.2-0.8-1.6-1.3c-0.4-0.5-0.7-1.1-0.9-1.8c-0.2-0.6-0.2-1.3-0.1-2
			c0.1-0.7,0.4-1.4,0.8-2c0.4-0.6,1-1,1.6-1.4c0.7-0.3,1.4-0.6,2.3-0.7c0.9-0.1,1.8-0.1,2.8,0.1c0.8,0.1,1.6,0.3,2.5,0.6
			c0.8,0.3,1.5,0.6,2.2,1l0.2-1.5c0.2-1.4,0-2.6-0.7-3.6c-0.7-1-1.7-1.5-3.1-1.8c-0.9-0.1-1.8-0.1-2.7,0.1c-0.9,0.2-1.9,0.5-2.8,1
			l-0.5-1.5c1.2-0.5,2.3-0.9,3.3-1.1c1-0.2,2.1-0.2,3.2-0.1c2,0.3,3.4,1.1,4.4,2.4c1,1.3,1.3,3,1,5l-1.1,7.3c-0.1,0.6,0.1,0.9,0.6,1
			l-0.3,1.9c-0.2,0-0.3,0-0.5,0c-0.1,0-0.3,0-0.4,0c-0.4-0.1-0.8-0.2-1.1-0.5c-0.3-0.3-0.4-0.7-0.4-1.2l0.1-1.3
			c-0.8,0.8-1.9,1.4-3.1,1.8C97.4,352.3,96.1,352.4,95,352.3z M95.7,350.7c0.9,0.1,1.9,0.1,2.9-0.2s1.8-0.7,2.4-1.3
			c0.2-0.2,0.3-0.3,0.5-0.5c0.1-0.2,0.2-0.4,0.2-0.6l0.4-2.6c-0.7-0.4-1.4-0.7-2.1-1c-0.7-0.3-1.5-0.4-2.2-0.6
			c-1.5-0.2-2.8-0.1-3.8,0.4c-1,0.5-1.6,1.2-1.8,2.3c-0.1,0.4,0,0.9,0.1,1.3c0.1,0.4,0.3,0.9,0.6,1.2c0.3,0.4,0.7,0.7,1.1,1
			C94.5,350.4,95.1,350.6,95.7,350.7z"/>
		<path d="M122,355.4l-2.1-0.2l1-9.1c0.2-1.9,0.1-3.4-0.4-4.3c-0.5-0.9-1.3-1.5-2.5-1.6c-0.6-0.1-1.3,0-1.9,0.1
			c-0.7,0.2-1.3,0.4-1.9,0.8c-0.6,0.4-1.1,0.8-1.6,1.3c-0.5,0.5-0.8,1.1-1.1,1.8l-1.1,10l-2.1-0.2l1.9-16.3l1.9,0.2l-0.4,3.7
			c0.4-0.5,0.9-1,1.4-1.5c0.5-0.4,1.1-0.8,1.8-1.1c0.6-0.3,1.3-0.5,2-0.6c0.7-0.1,1.4-0.1,2.1,0c0.9,0.1,1.7,0.4,2.2,0.8
			c0.6,0.4,1,0.9,1.3,1.6c0.3,0.6,0.5,1.4,0.6,2.3c0.1,0.9,0,1.9-0.1,2.9L122,355.4z"/>
		<path d="M133.9,356.8c-1.2-0.1-2.3-0.4-3.2-0.9c-1-0.5-1.8-1.2-2.4-2c-0.7-0.8-1.2-1.8-1.5-2.8c-0.3-1.1-0.4-2.1-0.3-3.3
			c0.1-1.1,0.4-2.2,0.9-3.2c0.5-1,1.1-1.8,1.9-2.6c0.8-0.7,1.7-1.3,2.7-1.6c1-0.4,2.1-0.5,3.3-0.4c1.2,0.1,2.2,0.4,3.2,0.9
			c1,0.5,1.8,1.2,2.4,2c0.7,0.8,1.2,1.8,1.5,2.8c0.3,1.1,0.4,2.2,0.4,3.3c-0.1,1.1-0.4,2.2-0.9,3.2c-0.5,1-1.1,1.8-1.9,2.6
			c-0.8,0.7-1.7,1.3-2.7,1.6C136.1,356.7,135.1,356.9,133.9,356.8z M128.6,347.9c-0.1,0.9,0,1.8,0.3,2.6c0.2,0.8,0.6,1.5,1.1,2.2
			s1.1,1.1,1.8,1.5c0.7,0.4,1.4,0.6,2.3,0.7c0.8,0.1,1.6-0.1,2.3-0.3c0.7-0.3,1.4-0.7,2-1.3c0.6-0.6,1.1-1.2,1.4-2
			c0.4-0.8,0.6-1.6,0.7-2.5c0.1-0.9,0-1.8-0.3-2.6c-0.3-0.8-0.6-1.6-1.1-2.2c-0.5-0.6-1.1-1.2-1.8-1.6c-0.7-0.4-1.4-0.6-2.2-0.7
			c-0.8-0.1-1.6,0.1-2.3,0.3s-1.4,0.7-2,1.3c-0.6,0.6-1.1,1.2-1.4,2C128.9,346.1,128.7,347,128.6,347.9z"/>
		<path d="M159.3,358.1c-1.3,0-2.5-0.3-3.7-0.7c-1.2-0.5-2.2-1.1-3.1-1.9l1-1.4c0.9,0.8,1.8,1.4,2.8,1.8c0.9,0.4,2,0.6,3,0.7
			c1.3,0,2.4-0.2,3.2-0.7c0.8-0.5,1.2-1.3,1.2-2.2c0-0.5-0.1-0.8-0.3-1.2c-0.2-0.3-0.5-0.6-0.9-0.8c-0.4-0.2-0.9-0.5-1.5-0.7
			c-0.6-0.2-1.3-0.4-2.1-0.6c-0.9-0.3-1.7-0.5-2.4-0.8c-0.7-0.3-1.2-0.5-1.7-0.8c-0.4-0.3-0.8-0.7-1-1.1c-0.2-0.4-0.3-1-0.3-1.6
			c0-0.8,0.2-1.5,0.6-2.2c0.3-0.6,0.8-1.1,1.4-1.5c0.6-0.4,1.2-0.7,2-0.9c0.7-0.2,1.5-0.3,2.4-0.2c1.3,0,2.4,0.3,3.4,0.7
			c1,0.4,1.8,1,2.4,1.7l-1.1,1.2c-0.6-0.6-1.3-1.1-2.2-1.5c-0.9-0.3-1.8-0.5-2.7-0.6c-0.6,0-1.1,0-1.6,0.1c-0.5,0.1-0.9,0.3-1.3,0.5
			c-0.4,0.2-0.7,0.6-0.9,0.9c-0.2,0.4-0.3,0.8-0.4,1.4c0,0.4,0,0.8,0.2,1.1c0.1,0.3,0.4,0.5,0.7,0.7c0.3,0.2,0.7,0.4,1.3,0.6
			c0.5,0.2,1.1,0.4,1.9,0.5c1,0.3,2,0.6,2.7,0.8c0.8,0.3,1.4,0.6,2,0.9c0.5,0.4,0.9,0.8,1.2,1.3c0.3,0.5,0.4,1.1,0.4,1.8
			c0,1.5-0.7,2.7-1.8,3.5C162.8,357.8,161.2,358.2,159.3,358.1z"/>
		<path d="M176,358.4c-1.2,0-2.3-0.2-3.3-0.7c-1-0.5-1.9-1.1-2.6-1.8c-0.7-0.8-1.3-1.7-1.7-2.7c-0.4-1-0.6-2.1-0.6-3.2
			c0-1.2,0.2-2.2,0.6-3.3c0.4-1,1-1.9,1.7-2.7c0.7-0.8,1.6-1.4,2.6-1.9c1-0.5,2.1-0.7,3.3-0.7c1.2,0,2.3,0.2,3.3,0.7
			c1,0.5,1.9,1.1,2.6,1.9c0.7,0.8,1.3,1.7,1.7,2.7c0.4,1,0.6,2.1,0.6,3.3c0,1.1-0.2,2.2-0.6,3.2c-0.4,1-1,1.9-1.7,2.7
			c-0.7,0.8-1.6,1.4-2.6,1.8C178.2,358.1,177.1,358.4,176,358.4z M170,350c0,0.9,0.2,1.8,0.5,2.6c0.3,0.8,0.7,1.5,1.3,2.1
			c0.5,0.6,1.2,1.1,1.9,1.4c0.7,0.3,1.5,0.5,2.3,0.5c0.8,0,1.6-0.2,2.3-0.5c0.7-0.3,1.4-0.8,1.9-1.4c0.5-0.6,1-1.3,1.3-2.1
			c0.3-0.8,0.5-1.7,0.5-2.6c0-0.9-0.2-1.8-0.5-2.6c-0.3-0.8-0.7-1.5-1.3-2.1c-0.5-0.6-1.2-1.1-1.9-1.4c-0.7-0.3-1.5-0.5-2.3-0.5
			c-0.8,0-1.6,0.2-2.3,0.5c-0.7,0.3-1.3,0.8-1.9,1.4c-0.5,0.6-1,1.3-1.3,2.1C170.2,348.2,170,349,170,350z"/>
		<path d="M201.2,357.5l-2.1,0.1l-0.3-9.1c-0.1-1.9-0.4-3.4-1-4.2c-0.6-0.9-1.5-1.3-2.7-1.2c-0.6,0-1.3,0.2-1.9,0.4
			c-0.6,0.3-1.2,0.6-1.7,1c-0.5,0.4-1,0.9-1.4,1.5c-0.4,0.6-0.7,1.2-0.9,1.9l0.3,10l-2.1,0.1l-0.5-16.4l1.9-0.1l0.1,3.7
			c0.3-0.6,0.7-1.1,1.2-1.7c0.5-0.5,1-0.9,1.6-1.3c0.6-0.4,1.2-0.7,1.9-0.9c0.7-0.2,1.4-0.3,2.1-0.4c0.9,0,1.7,0.1,2.3,0.4
			c0.6,0.3,1.1,0.8,1.5,1.4c0.4,0.6,0.7,1.3,0.9,2.2c0.2,0.9,0.3,1.8,0.3,2.9L201.2,357.5z"/>
		<path d="M238.3,354.6l-2.1,0.2l-0.8-9.1c-0.2-1.9-0.6-3.3-1.3-4.1c-0.7-0.8-1.6-1.2-2.8-1.1c-0.6,0.1-1.2,0.2-1.7,0.5
			c-0.5,0.3-1,0.6-1.4,1.1c-0.4,0.5-0.8,1-1.1,1.6c-0.3,0.6-0.5,1.3-0.6,2l0.9,9.9l-2.1,0.2l-0.8-9.1c-0.2-1.9-0.6-3.3-1.3-4.1
			c-0.7-0.8-1.6-1.2-2.8-1.1c-1.2,0.1-2.3,0.6-3.2,1.6c-0.9,0.9-1.5,2.1-1.8,3.6l0.9,10l-2.1,0.2l-1.5-16.3l1.9-0.2l0.3,3.7
			c0.6-1.3,1.3-2.4,2.4-3.2c1-0.8,2.2-1.3,3.5-1.4c1.4-0.1,2.5,0.2,3.4,0.9c0.9,0.7,1.5,1.7,1.8,2.9c1.3-2.9,3.2-4.5,5.9-4.8
			c0.9-0.1,1.7,0,2.3,0.3c0.7,0.3,1.2,0.7,1.7,1.3c0.4,0.6,0.8,1.3,1,2.1c0.3,0.8,0.4,1.8,0.5,2.9L238.3,354.6z"/>
		<path d="M240.7,334.3l-0.4-3.1l2.1-0.3l0.4,3.1L240.7,334.3z M243.2,353.9l-2.1-16.2l2.1-0.3l2.1,16.2L243.2,353.9z"/>
		<path d="M255.7,352.5c-1.3,0.2-2.5,0.2-3.8-0.1c-1.3-0.2-2.4-0.7-3.4-1.3l0.7-1.6c1,0.6,2,1,3,1.3c1,0.2,2,0.3,3.1,0.1
			c1.3-0.2,2.3-0.6,3-1.3c0.7-0.6,1-1.5,0.8-2.4c-0.1-0.5-0.2-0.8-0.5-1.1c-0.3-0.3-0.6-0.5-1-0.7c-0.4-0.2-1-0.3-1.6-0.4
			c-0.6-0.1-1.4-0.2-2.2-0.2c-1-0.1-1.8-0.2-2.5-0.3c-0.7-0.1-1.3-0.3-1.8-0.5c-0.5-0.2-0.9-0.5-1.2-0.9c-0.3-0.4-0.5-0.9-0.6-1.5
			c-0.1-0.8-0.1-1.5,0.2-2.2c0.2-0.7,0.6-1.2,1.1-1.7c0.5-0.5,1.1-0.9,1.8-1.2c0.7-0.3,1.5-0.5,2.3-0.7c1.2-0.2,2.4-0.2,3.5,0.1
			c1.1,0.2,2,0.7,2.7,1.2l-0.8,1.4c-0.7-0.5-1.5-0.9-2.4-1.1c-0.9-0.2-1.8-0.2-2.8-0.1c-0.6,0.1-1.1,0.2-1.5,0.4
			c-0.5,0.2-0.9,0.4-1.2,0.7c-0.3,0.3-0.6,0.7-0.7,1.1c-0.1,0.4-0.2,0.9-0.1,1.4c0.1,0.4,0.2,0.8,0.4,1c0.2,0.2,0.5,0.4,0.8,0.6
			c0.4,0.1,0.8,0.3,1.3,0.3c0.5,0.1,1.2,0.1,1.9,0.2c1.1,0.1,2,0.2,2.8,0.3c0.8,0.1,1.5,0.3,2.1,0.6c0.6,0.3,1,0.6,1.4,1
			c0.3,0.4,0.6,1,0.7,1.7c0.2,1.5-0.2,2.8-1.2,3.8C259,351.5,257.6,352.2,255.7,352.5z"/>
		<path d="M271.3,349.6l4.4-23.8l1.7-0.4l13.8,19.8l-2.3,0.5l-4.3-6.2l-9.8,2.1l-1.3,7.4L271.3,349.6z M277.1,328.2l-2.2,11.7
			l8.8-1.9L277.1,328.2z"/>
		<path d="M288.7,322.2l2.1-0.5l4.8,18.6c0.2,0.6,0.4,1,0.8,1.3c0.4,0.3,0.9,0.3,1.5,0.2c0.2-0.1,0.5-0.2,0.8-0.3
			c0.3-0.1,0.6-0.3,0.8-0.5l0.8,1.6c-0.3,0.3-0.8,0.5-1.3,0.8c-0.5,0.2-1,0.4-1.4,0.5c-1,0.2-1.8,0.2-2.5-0.2
			c-0.7-0.4-1.2-1.1-1.4-2.1L288.7,322.2z"/>
		<path d="M307.1,341.3c-0.8,0.2-1.6,0.3-2.3,0.3c-0.7-0.1-1.4-0.2-2-0.5c-0.6-0.3-1.1-0.7-1.6-1.2c-0.4-0.5-0.7-1.1-0.9-1.7
			c-0.2-0.7-0.2-1.4-0.1-2.1c0.1-0.7,0.4-1.3,0.9-1.9c0.5-0.6,1.1-1.1,1.8-1.6c0.7-0.5,1.6-0.9,2.6-1.1c0.8-0.2,1.6-0.4,2.5-0.5
			c0.9-0.1,1.7-0.1,2.4-0.1l-0.4-1.4c-0.4-1.4-1.1-2.4-2.2-2.9c-1-0.6-2.2-0.7-3.6-0.3c-0.8,0.3-1.6,0.7-2.4,1.2
			c-0.7,0.6-1.4,1.3-2.1,2.1l-1.1-1.1c0.8-1,1.7-1.8,2.5-2.4c0.9-0.6,1.8-1.1,2.9-1.4c1.9-0.6,3.6-0.5,5,0.3c1.5,0.8,2.5,2.1,3,4.1
			l2.1,7.1c0.2,0.6,0.5,0.8,1,0.6l0.5,1.8c-0.2,0.1-0.3,0.1-0.4,0.2c-0.1,0.1-0.3,0.1-0.4,0.1c-0.4,0.1-0.8,0.1-1.2,0
			c-0.4-0.1-0.7-0.4-0.9-0.9l-0.4-1.2c-0.4,1.1-1.1,2.1-2.1,3C309.3,340.4,308.2,341,307.1,341.3z M307.1,339.6
			c0.9-0.3,1.7-0.7,2.5-1.4c0.8-0.7,1.3-1.4,1.6-2.2c0.1-0.2,0.1-0.5,0.2-0.7c0-0.2,0-0.5,0-0.6l-0.8-2.6c-0.8-0.1-1.5,0-2.3,0
			c-0.8,0.1-1.5,0.2-2.2,0.4c-1.5,0.4-2.6,1.1-3.3,1.9c-0.7,0.9-1,1.8-0.6,2.9c0.1,0.4,0.3,0.8,0.6,1.2c0.3,0.4,0.6,0.6,1.1,0.9
			c0.4,0.2,0.9,0.4,1.5,0.4C305.9,339.9,306.5,339.8,307.1,339.6z"/>
		<path d="M325.3,335.4c-1.2,0.4-2.4,0.7-3.7,0.7c-1.3,0-2.5-0.2-3.6-0.7l0.4-1.7c1.1,0.4,2.2,0.6,3.2,0.6c1,0,2-0.1,3.1-0.5
			c1.2-0.4,2.1-1,2.7-1.8c0.6-0.8,0.7-1.6,0.3-2.5c-0.2-0.4-0.4-0.8-0.7-1c-0.3-0.2-0.7-0.4-1.1-0.4c-0.5-0.1-1-0.1-1.7-0.1
			c-0.6,0-1.4,0.1-2.2,0.2c-1,0.1-1.8,0.2-2.5,0.2c-0.7,0-1.4,0-1.9-0.2c-0.5-0.1-1-0.4-1.3-0.7c-0.4-0.3-0.6-0.8-0.9-1.4
			c-0.3-0.8-0.4-1.5-0.3-2.2c0.1-0.7,0.3-1.3,0.7-1.9c0.4-0.6,0.9-1.1,1.5-1.5c0.6-0.4,1.3-0.8,2.1-1.1c1.2-0.4,2.3-0.6,3.4-0.6
			c1.1,0,2.1,0.3,2.9,0.7l-0.6,1.5c-0.8-0.4-1.6-0.6-2.6-0.6c-0.9,0-1.8,0.2-2.7,0.5c-0.5,0.2-1,0.4-1.4,0.7c-0.4,0.3-0.8,0.6-1,0.9
			c-0.3,0.4-0.4,0.8-0.5,1.2c-0.1,0.4,0,0.9,0.2,1.4c0.1,0.4,0.3,0.7,0.6,0.9c0.2,0.2,0.5,0.3,0.9,0.4c0.4,0.1,0.8,0.1,1.4,0.1
			c0.5,0,1.2-0.1,1.9-0.2c1.1-0.1,2-0.2,2.9-0.2c0.8,0,1.6,0,2.2,0.2c0.6,0.1,1.1,0.4,1.6,0.7c0.4,0.4,0.7,0.9,1,1.5
			c0.5,1.4,0.4,2.7-0.4,4C328.4,333.8,327.1,334.8,325.3,335.4z"/>
	</g>
</g>
<g>
	<g>
		<path class="st1" d="M1034.4,143.2"/>
		<g>
			<g>
				<path class="st2" d="M853.8,170.5c-0.1,0,0.5,0.1,1.1,0.5c0.7,0.3,1.7,0.9,2.8,2c0.3,0.3,0.6,0.6,0.8,1c0.3,0.4,0.5,0.8,0.7,1.3
					c0.2,0.5,0.4,1,0.5,1.5c0.1,0.5,0.2,1.2,0.2,1.7c0,0.6,0,1.2-0.2,1.8c-0.1,0.3-0.1,0.6-0.2,0.9c-0.1,0.3-0.2,0.6-0.3,0.8
					c-0.1,0.3-0.2,0.6-0.3,0.9c-0.1,0.3-0.3,0.5-0.4,0.8c-0.1,0.3-0.3,0.5-0.4,0.8c-0.2,0.3-0.4,0.5-0.5,0.8c-1,1.3-2.1,2.2-3.3,3
					c-1.2,0.8-2.6,1.3-4.1,1.8c-2.9,0.8-6.1,1.1-9.6,0.6c-3.4-0.5-7-2-10-4.8c-3-2.7-5-6.8-5.7-10.9c-0.1-0.5-0.1-1-0.2-1.6
					c-0.1-0.5-0.1-1.1-0.1-1.6l0-0.8l0-0.4l0-0.1c0,0.1,0-0.2,0-0.2l0-0.2c0-0.5,0-1,0.1-1.5c0-0.3,0-0.5,0-0.7l0.1-0.9
					c0.1-0.6,0.1-1.2,0.2-1.7c0.2-1.1,0.5-2.2,0.9-3.3c1.4-4.4,4.5-8.5,8.5-11.3c2-1.4,4.2-2.5,6.5-3.3c0.6-0.2,1.2-0.4,1.7-0.6
					c0.6-0.2,1.2-0.3,1.8-0.5l0.9-0.2l0.2-0.1c0,0,0.5-0.1,0.3-0.1l0.1,0l0.4-0.1l1.7-0.2c0.3,0,0.6,0,1-0.1l1,0c0.7,0,1.4,0,2,0.1
					c1.3,0.2,2.6,0.3,3.8,0.6c2.6,0.5,5,1.6,7.3,2.8c4.6,2.6,8.5,6.6,10.9,11.5c2.5,4.9,3.3,10.5,2.9,15.9l-0.2,2l-0.1,1l-0.1,0.5
					l0,0.3c0,0-0.1,0.3,0,0.2l0,0.1l-0.4,1.8l-0.6,2.1c-0.9,2.7-2.2,5.1-3.7,7.4c-3.1,4.6-7.4,8.3-12.2,11c-4.8,2.6-10,4.3-15.4,5
					c-2.7,0.4-5.3,0.5-8,0.3c-2.7-0.1-5.3-0.4-7.9-0.9c-5.2-1-10.1-2.8-14.7-5.1c-1.2-0.6-2.2-1.2-3.4-1.8c-1-0.7-2.1-1.3-3.1-2
					c-2-1.2-4-2.8-6-4.3c-7.8-6-14.1-12.9-19.4-20c-5.3-7.1-9.6-14.3-12.9-21.3c-3.3-7-5.6-13.8-6.8-20.2c-0.2-1.6-0.5-3.2-0.7-4.7
					c0-0.8-0.1-1.5-0.1-2.3c0-0.4,0-0.7-0.1-1.1l0-0.5l0-0.3l0-0.1l0-0.1c0,0.1,0-0.2,0-0.2c0-0.7,0.1-1.3,0.1-1.9
					c0-0.3,0-0.6,0-0.9c0-0.4,0.1-0.7,0.1-1.1c0.1-0.7,0.2-1.4,0.3-2.1c0.2-0.7,0.3-1.3,0.5-1.9c0.7-2.5,1.8-4.9,3.4-6.6
					c1.6-1.7,3.6-2.7,5.2-3c3.2-0.7,4.8,0.2,5,0.2c1.3,0.2,2.1,1.4,1.9,2.6c-0.2,1.3-1.4,2.1-2.6,1.9c0.2,0-0.8,0.3-2.1,1.2
					c-0.6,0.4-1.2,1-1.8,1.9c-0.6,0.9-1.3,2.1-1.7,3.8c-0.1,0.4-0.2,0.9-0.3,1.3c-0.1,0.5-0.1,0.9-0.2,1.4c0,0.2-0.1,0.5-0.1,0.7
					c0,0.3,0,0.6,0,0.9c0,0.6-0.1,1.3-0.1,1.9c0,0.1,0-0.3,0-0.1l0,0.1l0,0.1l0,0.2l0,0.5c0,0.3,0,0.6,0,0.9c0,0.6,0.1,1.2,0.1,1.9
					c0.2,1.3,0.4,2.7,0.6,4c1,5.6,3.1,11.9,6.2,18.4c3,6.5,7,13.4,12,20c5,6.6,11,13.2,18,18.6c1.8,1.3,3.4,2.7,5.5,3.9
					c1,0.6,1.9,1.2,2.9,1.9c1,0.5,2,1.1,3,1.6c4,2,8.3,3.6,12.8,4.5c8.9,1.8,18.6,0.9,26.5-3.4c4-2.1,7.4-5.1,9.9-8.7
					c1.2-1.8,2.3-3.8,3-5.8l0.5-1.4l0.4-1.8c0.1-1.1,0.3-2.1,0.4-3.2c0.4-4.4-0.2-8.8-2.1-12.5c-1.9-3.7-4.8-6.8-8.3-8.9
					c-1.8-0.9-3.6-1.8-5.6-2.3c-1-0.3-1.9-0.4-2.9-0.5c-0.5-0.1-0.9,0-1.4-0.1l-0.7,0c-0.2,0-0.4,0-0.7,0l-1.7,0.2l-0.4,0l-0.1,0
					c-0.2,0,0.2,0,0.1,0l-0.2,0l-0.7,0.2c-0.5,0.1-1,0.2-1.4,0.4c-0.5,0.1-1,0.3-1.4,0.4c-1.9,0.6-3.6,1.5-5.1,2.5
					c-3.1,2.1-5.3,4.9-6.4,8.2c-0.3,0.8-0.5,1.7-0.7,2.5c-0.1,0.4-0.1,0.8-0.2,1.2l-0.1,0.6c0,0.2,0,0.5,0,0.7c0,0.5-0.1,1-0.1,1.5
					l0,0.2c0,0.1,0-0.2,0,0l0,0.1l0,0.3l0,0.6c0,0.4,0,0.8,0.1,1.3c0.1,0.4,0.1,0.8,0.1,1.2c0.5,3.2,1.9,6,3.9,7.9
					c2,1.9,4.6,3.1,7.2,3.5c2.6,0.5,5.1,0.3,7.3-0.3c1.1-0.3,2.1-0.7,2.9-1.2c0.8-0.5,1.5-1.1,1.9-1.5l0.2-0.3l0.1-0.2l0.1-0.1l0,0
					c0,0,0.1-0.2-0.1,0.1c0.1-0.2,0.2-0.4,0.3-0.6c0.1-0.2,0.2-0.4,0.3-0.5c0.1-0.2,0.1-0.4,0.2-0.5c0.1-0.2,0.1-0.3,0.2-0.5
					c0-0.2,0.1-0.3,0.1-0.5c0.1-0.3,0.1-0.6,0.1-0.8c0.1-1-0.4-1.7-0.9-2.2c-0.5-0.6-1.1-0.9-1.5-1.1c-0.4-0.2-0.5-0.2-0.6-0.3
					c-1.2-0.4-1.8-1.7-1.4-2.9C851.3,170.7,852.6,170.1,853.8,170.5z"/>
				<path class="st2" d="M788.3,147.5c0,0-2.2-4.8-5.3-12.1c-1.6-3.6-3.3-7.9-5.1-12.5c-0.9-2.3-1.8-4.7-2.7-7.1
					c-0.9-2.4-1.8-4.9-2.6-7.5c-0.4-1.3-0.8-2.5-1.2-3.8c-0.4-1.3-0.7-2.6-1.1-3.8c-0.4-1.3-0.7-2.5-1-3.8c-0.2-0.6-0.3-1.3-0.4-1.9
					c-0.1-0.6-0.2-1.3-0.3-1.9c-0.1-0.6-0.2-1.3-0.3-1.9c-0.1-0.7-0.1-1.3-0.2-2c0-0.3-0.1-0.6-0.1-1l0-0.5l0-0.1l0-0.1
					c0,0.1,0-0.2,0-0.2l0,0l0-0.2c0-0.6,0-1.1,0.1-1.7c0-0.3,0-0.5,0-0.9c0-0.3,0.1-0.7,0.1-1c0.1-0.6,0.2-1.3,0.3-1.9
					c0.2-0.6,0.3-1.2,0.5-1.8c0.1-0.6,0.5-1.1,0.7-1.7c1-2.2,2.5-4,4.1-5.2c1.6-1.2,3.3-1.8,4.6-2.1c1.3-0.3,2.4-0.4,3.2-0.4
					c0.7,0,1.2,0.1,1.2,0.1c1.3,0.1,2.2,1.2,2.1,2.5c-0.1,1.3-1.2,2.2-2.5,2.1c0,0-0.1,0-0.6,0.1c-0.5,0.1-1.2,0.2-2.1,0.5
					c-0.9,0.3-1.8,0.8-2.8,1.5c-0.9,0.7-1.8,1.7-2.5,3.1c-0.1,0.4-0.4,0.7-0.5,1.1c-0.1,0.4-0.2,0.8-0.4,1.2
					c-0.1,0.4-0.1,0.8-0.2,1.3l-0.1,0.7c0,0.2,0,0.5,0,0.8c0,0.6,0,1.1-0.1,1.7l0,0.2l0,0c0,0,0-0.3,0-0.1l0,0l0,0.1l0,0.4l0.1,0.8
					c0,0.5,0.1,1.1,0.1,1.6c0.1,0.6,0.2,1.1,0.3,1.7c0.1,0.6,0.2,1.2,0.3,1.7c0.1,0.6,0.3,1.2,0.4,1.8c0.3,1.2,0.5,2.4,0.9,3.6
					c0.3,1.2,0.7,2.4,1,3.7c0.4,1.2,0.8,2.5,1.2,3.7c3.2,9.9,7,19.6,9.9,26.9c2.9,7.3,5,12,5,12c0.5,1.2,0,2.5-1.2,3
					C790.2,149.1,788.8,148.6,788.3,147.5L788.3,147.5z"/>
				<path class="st2" d="M797.5,123.3c0,0-0.2-0.4-0.5-1.1c-0.3-0.7-0.8-1.8-1.4-3.1c-1.2-2.7-2.8-6.5-4.6-11.1
					c-0.9-2.3-1.8-4.8-2.8-7.5c-1-2.7-1.8-5.6-2.8-8.5c-0.9-3-1.8-6.1-2.6-9.3c-0.9-3.2-1.5-6.5-2.2-9.7c-0.3-1.7-0.6-3.3-0.8-5
					c-0.3-1.6-0.4-3.3-0.6-5c-0.1-0.8-0.2-1.6-0.3-2.5c-0.1-0.8-0.1-1.6-0.2-2.5c-0.1-1.6-0.2-3.2-0.2-4.8c0.1-3.2,0-6.3,0.4-9.3
					c0.4-3.1,1-5.9,2.3-8.6c1.2-2.6,3.2-5.1,5.7-6.4c2.5-1.3,5-1.4,6.8-1.2c1.8,0.3,3.1,0.9,3.9,1.4c0.8,0.5,1.2,0.9,1.2,0.9
					c1.1,0.6,1.5,2,0.9,3.1c-0.6,1.1-2,1.5-3.1,0.9c0.1,0-0.3,0-0.9-0.1c-0.6-0.1-1.5-0.2-2.6-0.3c-1-0.1-2.2,0-3.3,0.6
					c-1.1,0.6-2.2,1.7-3,3.6c-0.9,1.8-1.4,4.2-1.8,6.7c-0.4,2.7-0.3,5.5-0.4,8.5c0,1.5,0.1,3,0.2,4.5c0,0.8,0.1,1.5,0.1,2.3
					c0.1,0.8,0.2,1.6,0.3,2.3c0.2,1.6,0.3,3.2,0.6,4.7c0.2,1.6,0.5,3.2,0.7,4.8c0.6,3.2,1.2,6.3,2,9.4c0.7,3.1,1.6,6.1,2.3,9.1
					c0.9,2.9,1.7,5.7,2.6,8.4c0.8,2.7,1.7,5.2,2.5,7.5c0.8,2.3,1.6,4.4,2.3,6.2c0.7,1.9,1.4,3.4,1.9,4.8c0.5,1.3,1,2.3,1.3,3
					c0.3,0.7,0.5,1.1,0.5,1.1l0,0c0.5,1.2,0,2.5-1.2,3C799.3,124.9,798,124.4,797.5,123.3z"/>
				<path class="st2" d="M810.7,95.5c0,0-0.7-1.4-1.8-4.1c-1.1-2.7-2.7-6.6-4.5-11.7c-1.8-5.1-3.8-11.4-5.7-18.7
					c-1.8-7.3-3.6-15.8-3.8-25.4c-0.1-4.8,0.2-9.9,1.9-15.2c0.2-0.7,0.5-1.3,0.7-2c0.3-0.7,0.5-1.3,0.9-2l0.5-1l0.3-0.5l0.1-0.2
					c0-0.1,0,0,0.1-0.2l0.1-0.1c0.4-0.5,0.7-1,1.1-1.6c0.9-1.2,1.7-2.4,2.8-3.5c1.1-1.1,2.4-2.2,4.3-3c0.9-0.4,2-0.7,3.2-0.7
					c1.2,0,2.4,0.2,3.4,0.7c2,0.9,3.3,2.4,4.4,3.7c2,2.8,3,5.6,3.8,8.5c0.4,1.5,0.7,2.9,1,4.4c0.1,0.7,0.2,1.5,0.3,2.2l0.1,1.1
					c0,0.3,0.1,0.7,0.1,1c0.1,0.6,0.2,1.2,0.3,1.9l0.4,2c0.3,1.4,0.6,2.7,0.8,4.1c2.4,11,5.7,22.2,10.2,33.1
					c2.3,5.4,4.8,10.7,7.9,15.7c3.1,4.9,6.7,9.5,11.1,12.8c2.2,1.6,4.6,2.8,7.1,3.4l0.9,0.2l0.5,0.1l0.2,0l0.1,0c0,0,0.2,0,0,0
					l2.3,0.2l2.3,0.2l0.6,0l0.5,0l1,0c1.4-0.1,2.7,0,4.1-0.2c1.4-0.2,2.8-0.3,4.1-0.7l2-0.5c0.7-0.2,1.3-0.5,1.9-0.7
					c0.6-0.3,1.3-0.4,1.9-0.7l1.8-0.9c0.6-0.3,1.2-0.7,1.8-1c0.6-0.4,1.2-0.7,1.7-1.1c1.1-0.9,2.2-1.6,3.1-2.6c2-1.8,3.8-4,5.3-6.2
					c1.6-2.3,2.9-4.7,4.1-7.2l0.9-2c0.3-0.6,0.7-1.4,1.1-2.1c0.8-1.4,1.8-2.9,3.3-4.1c0.8-0.6,1.7-1.2,2.7-1.5
					c0.5-0.2,1.1-0.3,1.6-0.4c0.5,0,1.1-0.1,1.6,0c1.1,0,2,0.3,2.8,0.6c0.4,0.1,0.8,0.3,1.2,0.5l0.6,0.3l0.3,0.1
					c0.1,0.1-0.1-0.1,0.4,0.2l0.1,0.1c0.3,0.2,0.6,0.4,0.9,0.6c0.4,0.3,0.8,0.7,1.2,1c0.2,0.2,0.4,0.3,0.5,0.5l0.4,0.5
					c0.3,0.3,0.6,0.6,0.8,0.9c1,1.3,1.8,2.6,2.5,4c1.4,2.7,2.3,5.5,2.9,8.4c0.7,2.8,0.9,5.7,1,8.5c0.1,5.6-0.9,11-2.4,15.9
					c-0.3,1.3-0.8,2.4-1.2,3.6c-0.2,0.6-0.4,1.2-0.7,1.8c-0.2,0.6-0.5,1.1-0.7,1.7c-0.5,1.1-1,2.3-1.5,3.3c-0.5,1.1-1,2.1-1.6,3.2
					c-4.3,8.3-8.9,15.4-13.2,21.6c-4.3,6.2-8.2,11.4-11.6,15.6c-3.4,4.2-6.1,7.4-8.2,9.6c-1,1.1-1.8,1.9-2.4,2.5
					c-0.1,0.1-0.3,0.3-0.5,0.4c-0.1,0.1-0.2,0.2-0.4,0.3c-0.4,0.2-0.5,0.3-0.5,0.3c-1.2,0.5-2.5,0-3.1-1.1c-0.5-1.2,0-2.5,1.1-3.1
					c0,0,0,0-0.1,0c0,0,0,0,0.1-0.1c0.1-0.1,0.1-0.1,0.3-0.2c0.5-0.4,1.2-1.1,2.1-2.2c1.9-2,4.6-5.2,7.8-9.4
					c3.3-4.2,7.1-9.3,11.3-15.4c4.1-6.1,8.6-13.1,12.7-21.2c4-7.9,7.5-17.1,7.2-27c-0.1-2.4-0.3-4.9-0.9-7.4c-0.6-2.4-1.3-4.8-2.5-7
					c-0.6-1.1-1.2-2.1-1.9-3.1c-0.2-0.3-0.4-0.4-0.6-0.7l-0.3-0.3c-0.1-0.1-0.2-0.2-0.3-0.3c-0.1-0.1-0.3-0.2-0.4-0.4
					c-0.2-0.2-0.6-0.4-0.8-0.6l-0.1-0.1c0.4,0.2,0.1,0,0.1,0.1l-0.2-0.1l-0.4-0.2c-0.3-0.1-0.5-0.2-0.8-0.3
					c-0.5-0.1-0.9-0.3-1.3-0.3c-0.4,0-0.7,0-1,0.1c-0.3,0.1-0.6,0.3-1,0.6c-0.7,0.6-1.4,1.5-2,2.6c-0.3,0.5-0.6,1-0.9,1.7l-0.9,2
					c-1.2,2.8-2.7,5.5-4.5,8.1c-1.7,2.6-3.7,5.1-6.1,7.3c-1.1,1.2-2.5,2.1-3.7,3.1c-0.7,0.5-1.4,0.9-2,1.4c-0.7,0.4-1.4,0.9-2.1,1.2
					l-2.2,1.1c-0.7,0.4-1.5,0.6-2.3,0.9c-0.8,0.3-1.5,0.6-2.3,0.8l-2.4,0.6c-1.6,0.5-3.2,0.6-4.8,0.8c-1.6,0.3-3.3,0.2-5,0.3l-1.3,0
					l-0.6,0l-0.6,0l-2.3-0.2l-2.3-0.2c-0.4,0-0.2,0-0.3,0l-0.2,0l-0.3-0.1l-0.7-0.1l-1.3-0.3c-3.4-0.9-6.6-2.4-9.3-4.4
					c-5.5-4-9.5-9.2-12.9-14.5c-3.4-5.4-6.1-11-8.5-16.6c-4.7-11.4-8.1-22.9-10.7-34.2c-0.3-1.4-0.6-2.8-0.9-4.3l-0.4-2.1
					c-0.1-0.7-0.3-1.4-0.4-2.2c-0.1-0.4-0.1-0.7-0.1-1.1l-0.1-1c-0.1-0.6-0.2-1.3-0.3-1.9c-0.2-1.3-0.5-2.5-0.8-3.7
					c-0.7-2.4-1.6-4.7-2.8-6.3c-0.6-0.8-1.2-1.3-1.6-1.5c-0.4-0.1-0.5-0.2-1.1,0.1c-0.6,0.2-1.3,0.8-2,1.5c-0.7,0.7-1.4,1.6-2,2.5
					c-0.3,0.4-0.7,1-1,1.6c-0.2,0.4-0.5,0.9-0.7,1.3c-0.3,0.4-0.4,1-0.7,1.5c-0.2,0.5-0.4,1-0.6,1.5c-1.3,4.1-1.7,8.7-1.6,13
					c0,4.4,0.5,8.6,1,12.6c0.6,4,1.3,7.8,2.1,11.4c1.6,7.2,3.4,13.3,4.9,18.4c1.5,5.1,2.9,9,3.8,11.7c0.9,2.7,1.4,4.1,1.4,4.1
					c0.5,1.2-0.1,2.5-1.3,3C812.5,97.1,811.2,96.6,810.7,95.5L810.7,95.5z"/>
				<path class="st2" d="M880,95.4c-0.7,0-1.5-0.4-1.9-1c-1.8-2.8-4.9-12.4,1.9-17c7.5-5,15.2,3.5,15.6,3.8c0.9,0.9,0.8,2.4-0.2,3.3
					c-0.9,0.9-2.4,0.8-3.3-0.2c0-0.1-5.4-5.9-9.6-3.1c-4.6,3.1-0.7,10.6-0.6,10.7c0.7,1.1,0.4,2.5-0.7,3.2
					C880.9,95.2,880.4,95.4,880,95.4z"/>
				<path class="st2" d="M932.4,92.3c0,0,0.1,0,0.2,0c0.1,0,0.1,0,0.2,0c0.1,0,0.2,0,0.4,0c0.5,0,1.4-0.1,2.4-0.3
					c1-0.2,2.3-0.6,3.7-1.1c1.4-0.5,2.9-1.3,4.5-2.3c1.5-1,3.2-2.2,4.7-3.8c0.8-0.7,1.5-1.6,2.3-2.4c0.7-0.8,1.4-1.9,2.1-2.7
					c1.4-2.1,2.9-4.3,4.4-6.5c0.7-1.1,1.5-2.2,2.3-3.4c0.7-1.1,1.5-2.3,2.2-3.4c1.4-2.3,2.9-4.5,4.3-6.8c1.4-2.3,2.8-4.5,4.1-6.7
					c0.7-1.1,1.4-2.2,2.1-3.2l0.5-0.8l0.2-0.4l0,0l0.2-0.2l0.1-0.1l0.1-0.2c0.4-0.5,0.6-0.9,1.3-1.5c0.3-0.3,0.6-0.6,0.9-0.8
					c0.3-0.2,0.6-0.4,0.9-0.6c0.6-0.4,1.3-0.7,2-1c0.7-0.3,1.4-0.4,2.1-0.6c0.7-0.1,1.4-0.2,2.1-0.1c2.8,0.1,5.3,1.4,6.8,3.1
					c1.5,1.7,2.3,3.4,2.6,4.9c0.3,1.4,0.4,2.6,0.3,3.3c0,0.8,0,1.2,0,1.2c0,1.3-1.1,2.3-2.4,2.2c-1.1,0-2.1-0.9-2.2-2l0-0.4
					c0,0,0-0.3-0.1-0.8c0-0.5-0.2-1.3-0.4-2.1c-0.3-0.8-0.8-1.8-1.6-2.5c-0.8-0.7-1.9-1.3-3.2-1.3c-0.3-0.1-0.6,0.1-1,0.1
					c-0.3,0.1-0.7,0.2-1,0.3c-0.3,0.2-0.7,0.3-1,0.5l-0.5,0.3c-0.1,0.1-0.2,0.2-0.4,0.3c-0.2,0.1-0.6,0.7-1,1.1l-0.1,0.2l-0.1,0.1
					l0,0c0,0,0.2-0.3,0.1-0.1l0,0l-0.2,0.4l-0.5,0.8c-0.6,1-1.3,2-2,3.1c-1.4,2.2-2.7,4.4-4.2,6.7c-1.4,2.3-2.9,4.6-4.4,6.9
					c-0.8,1.2-1.5,2.3-2.2,3.5c-0.8,1.1-1.5,2.2-2.3,3.3c-1.5,2.2-3,4.4-4.5,6.5c-0.4,0.5-0.8,1.1-1.3,1.6c-0.4,0.5-0.8,1.1-1.3,1.5
					c-0.9,1-1.7,1.9-2.7,2.8c-1.8,1.8-3.8,3.1-5.6,4.3c-1.9,1.1-3.8,2-5.5,2.6c-1.7,0.6-3.2,1-4.6,1.2c-1.3,0.2-2.3,0.3-3.1,0.3
					c-0.2,0-0.3,0-0.5,0c-0.2,0-0.3,0-0.4,0c-0.2,0-0.3,0-0.3,0c-1.3-0.1-2.3-1.2-2.2-2.4C930.1,93.2,931.2,92.2,932.4,92.3z"/>
				<path class="st2" d="M953.8,104.1c0,0,0.1-0.1,0.4-0.3c0.2-0.2,0.6-0.4,1-0.8c0.9-0.7,2.2-1.8,3.8-3.2c1.6-1.4,3.5-3.2,5.6-5.3
					c1.1-1,2.1-2.2,3.3-3.4c1.1-1.2,2.3-2.5,3.4-3.9c1.1-1.4,2.4-2.9,3.5-4.5c0.6-0.8,1.2-1.6,1.8-2.4c0.6-0.8,1.1-1.7,1.7-2.6
					c0.6-0.8,1.1-1.8,1.6-2.7c0.5-0.9,1.1-1.8,1.6-2.8c0.9-1.9,2-3.9,2.7-6c0.9-2,1.4-4.2,2.1-6.4c0.2-0.6,0.3-1.2,0.5-1.8l0.2-0.9
					c0.1-0.3,0.2-0.7,0.4-1c0.5-1.4,1.1-2.6,1.8-3.9c0.8-1.2,1.7-2.5,3-3.5c0.6-0.5,1.4-1,2.2-1.4c0.9-0.3,1.7-0.6,2.7-0.7
					c1.9-0.2,3.9,0.5,5.4,1.6c1.5,1.1,2.5,2.7,3.1,4.2c0.1,0.4,0.3,0.7,0.4,1.2l0.2,0.9l0.2,0.9l0.2,1l0.2,1l0.1,1
					c0.1,0.7,0.2,1.3,0.2,2c0.2,2.7,0.1,5.3-0.1,7.9c-0.5,5.2-1.9,10.1-3.5,14.6c-1.6,4.5-3.6,8.7-5.6,12.6c-1,2-2,3.8-3,5.6
					l-0.4,0.7l-0.5,0.7c-0.3,0.4-0.5,0.8-0.8,1.2c-0.5,0.8-1,1.6-1.5,2.4c-0.2,0.4-0.5,0.8-0.7,1.2l-0.4,0.6l-0.4,0.6
					c-0.6,0.7-1.1,1.5-1.7,2.2c-0.6,0.7-1.1,1.4-1.6,2.1c-0.5,0.6-1.1,1.2-1.7,1.8c-1.1,1.1-2.1,2.3-3.1,3.2c-0.5,0.5-1,0.9-1.5,1.3
					c-0.5,0.4-0.9,0.8-1.4,1.2c-0.9,0.7-1.7,1.3-2.5,1.8c-0.8,0.5-1.4,0.9-2,1.2c-0.6,0.3-1.1,0.5-1.4,0.7c-0.4,0.2-0.6,0.2-0.6,0.2
					c-1.2,0.5-2.5-0.1-3-1.3c-0.5-1.1,0.1-2.5,1.2-3l0.3-0.1c0,0,0.1,0,0.3-0.1c0.2-0.1,0.6-0.3,1-0.5c0.4-0.3,1-0.6,1.7-1
					c0.6-0.4,1.3-1,2.2-1.6c0.4-0.3,0.8-0.7,1.2-1.1c0.4-0.4,0.9-0.8,1.3-1.2c0.9-0.8,1.8-1.9,2.8-2.9c0.5-0.5,1-1.1,1.5-1.7
					c0.5-0.6,0.9-1.2,1.4-1.9c0.9-1.3,2-2.6,2.9-4.2c0.5-0.8,1-1.6,1.5-2.4c0.3-0.4,0.5-0.8,0.8-1.3l0.3-0.5l0.3-0.7
					c0.9-1.7,1.9-3.5,2.8-5.4c1.9-3.8,3.7-7.8,5.1-12.1c1.5-4.3,2.7-8.8,3.1-13.3c0.2-2.3,0.3-4.6,0.1-6.9c0-0.6-0.1-1.1-0.2-1.7
					c-0.1-0.6-0.2-1.1-0.3-1.6l-0.2-0.8l-0.2-0.9l-0.2-0.9l-0.2-0.5c-0.3-0.7-0.7-1.4-1.2-1.7c-0.5-0.4-1-0.5-1.6-0.5
					c-0.3,0-0.6,0.1-0.9,0.2c-0.3,0.2-0.6,0.3-0.9,0.6c-0.6,0.5-1.2,1.3-1.8,2.1c-0.5,0.9-1,1.8-1.3,2.7c-0.1,0.2-0.2,0.4-0.3,0.7
					l-0.3,0.9l-0.5,1.6c-0.7,2.4-1.4,4.9-2.4,7.1c-0.8,2.3-2,4.4-3,6.5c-0.5,1-1.2,2-1.7,3c-0.6,1-1.1,2-1.8,2.8
					c-0.6,0.9-1.2,1.8-1.8,2.7c-0.6,0.9-1.3,1.7-1.9,2.5c-1.2,1.7-2.5,3.2-3.8,4.6c-1.2,1.5-2.5,2.8-3.7,4.1
					c-1.2,1.2-2.4,2.4-3.5,3.5c-2.2,2.1-4.3,3.9-6,5.3c-1.7,1.4-3.1,2.5-4,3.2c-0.5,0.4-0.9,0.6-1.1,0.8c-0.2,0.2-0.4,0.3-0.4,0.3
					c-1,0.7-2.5,0.5-3.2-0.5C952.6,106.3,952.8,104.9,953.8,104.1L953.8,104.1z"/>
				<path class="st2" d="M987.5,131.7c0,0,0.2-0.2,0.6-0.6c0.4-0.4,0.9-0.9,1.6-1.6c0.7-0.7,1.6-1.6,2.5-2.7c1-1,2-2.3,3.1-3.6
					c1.1-1.4,2.3-2.8,3.4-4.4c0.6-0.8,1.2-1.6,1.8-2.5c0.6-0.8,1.2-1.7,1.8-2.7c0.6-0.9,1.2-1.8,1.7-2.8c0.5-1,1.2-1.9,1.7-2.9
					c0.5-1,1.1-2,1.5-3c0.5-1,0.9-2.1,1.4-3.1c0.8-2.1,1.7-4.3,2.3-6.4c0.2-0.5,0.3-1,0.5-1.5c0.1-0.6,0.3-1.1,0.4-1.7
					c0.3-1.2,0.4-2.1,0.6-3.1c0.2-1,0.2-2,0.3-3c0-1,0.1-1.9,0-2.8c0-1.8-0.4-3.5-0.9-4.9c-0.4-1.4-1.2-2.5-1.8-3.3
					c-0.3-0.4-0.7-0.7-1-1c-0.2-0.1-0.4-0.2-0.5-0.3c-0.2-0.1-0.3-0.2-0.5-0.2c-0.3-0.1-0.6-0.3-0.8-0.3c-0.2-0.1-0.4-0.2-0.6-0.2
					c-0.3-0.2-0.6-0.4-0.6-0.4l-0.7-0.9c-0.9-1.1-0.7-2.7,0.4-3.5c0.1-0.1,0.2-0.1,0.3-0.2c0,0,0.4-0.2,1.2-0.3
					c0.4-0.1,0.9,0,1.4,0.1c0.5,0.1,1.1,0.3,1.8,0.6c0.3,0.1,0.7,0.3,1,0.5c0.3,0.2,0.7,0.4,1,0.6c0.6,0.5,1.3,1.1,1.9,1.8
					c1.2,1.4,2.3,3.2,2.9,5.2c0.7,2,1.1,4.2,1.1,6.4c0.1,1.1,0,2.3,0,3.4c-0.1,1.2-0.2,2.3-0.4,3.5c-0.2,1.2-0.4,2.5-0.7,3.5
					c-0.1,0.6-0.3,1.1-0.4,1.7l0,0.1l0,0.1l0,0.1l-0.1,0.2l-0.1,0.4l-0.3,0.9c-0.2,0.6-0.4,1.2-0.6,1.8c-0.2,0.6-0.4,1.2-0.6,1.7
					c-0.5,1.1-0.9,2.3-1.4,3.4c-0.5,1.1-1,2.2-1.6,3.3c-0.5,1.1-1.1,2.2-1.7,3.2c-0.5,1.1-1.2,2.1-1.8,3.1c-0.6,1-1.2,2-1.9,2.9
					c-0.6,1-1.3,1.9-1.9,2.8c-0.6,0.9-1.3,1.8-1.9,2.6c-1.3,1.7-2.5,3.2-3.7,4.6c-1.2,1.4-2.3,2.6-3.4,3.7c-1,1.1-1.9,2-2.7,2.7
					c-0.8,0.8-1.4,1.3-1.8,1.7c-0.4,0.4-0.7,0.6-0.7,0.6c-1,0.8-2.4,0.8-3.3-0.2C986.4,134,986.5,132.6,987.5,131.7L987.5,131.7z"/>
				<path class="st2" d="M1011,106.4c0,0,0.2,0.1,0.7,0.4c0.2,0.1,0.3,0.3,0.5,0.4c0.1,0.1,0.2,0.2,0.3,0.3c0.1,0.1,0.2,0.2,0.2,0.3
					c0.2,0.2,0.3,0.4,0.5,0.6c0.2,0.2,0.3,0.5,0.5,0.7c1.3,2,2.3,5,2.5,8.9c0.3,3.8-0.2,8.4-1.8,13.3c-1.6,4.9-4.3,10.2-8.2,15.1
					c-2,2.5-4.2,4.8-6.7,7.1c-0.6,0.5-1.3,1.1-1.9,1.7c-0.7,0.6-1.3,1-2,1.6c-1.3,1-2.8,2.1-4.2,3.1c-5.8,4-12.2,7.8-19.2,10.9
					c-7,3.1-14.6,5.8-22.6,7.1c-4,0.7-8.2,1-12.4,0.7c-4.2-0.3-8.5-1.1-12.5-2.9c-2-0.9-3.9-2-5.7-3.3c-0.8-0.7-1.7-1.4-2.5-2.2
					l-1.2-1.2c-0.5-0.6-0.6-0.7-1.1-1.3c-2.9-4-3.8-8.5-3.9-12.7c-0.1-4.3,0.7-8.5,2.2-12.4c1.4-3.9,3.5-7.6,6.4-10.6
					c0.7-0.8,1.5-1.5,2.4-2.1l0.7-0.5l0.7-0.4l1.2-0.7c1.9-1,3.6-1.9,5.5-2.5c1.9-0.6,3.8-1.1,5.8-1.3c1-0.1,2-0.1,2.9-0.2
					c0.5,0,1,0.1,1.5,0.1c0.5,0,1,0.1,1.5,0.2c2,0.2,3.8,0.9,5.6,1.6c1.7,0.9,3.4,1.9,4.7,3.2c0.3,0.3,0.7,0.6,1,1l0.9,1l0.4,0.5
					l0.1,0.1l0.2,0.2l0.2,0.2c0.2,0.3,0.4,0.6,0.7,1c1.1,1.8,1.6,3.3,2.1,5c0.9,3.3,1,6.6,0.3,9.8c-0.7,3.1-2.4,6.1-4.7,8
					c-1.1,1-2.4,1.8-3.6,2.3l-0.5,0.2l-0.1,0.1c-0.1,0,0.2-0.1-0.3,0.1l-0.1,0l-0.2,0.1c-0.3,0.1-0.5,0.2-0.8,0.2l-0.2,0.1l-0.3,0.1
					l-0.6,0.1c-0.4,0-0.9,0.1-1.2,0.1c-2.9-0.1-5.3-1.3-7-2.7c-1.7-1.4-2.8-3-3.5-4.5c-0.7-1.5-1.1-3-1.1-4.2c0-0.3,0-0.6,0-0.9
					c0-0.3,0-0.5,0.1-0.8c0-0.2,0.1-0.5,0.1-0.7c0.1-0.2,0.1-0.4,0.1-0.5c0.2-0.6,0.3-1,0.3-1c0.1-0.4,0.6-0.5,0.9-0.4
					c0,0,0,0,0.1,0l3.4,1.7c0,0-0.1,0.6,0.1,1.9c0.1,0.6,0.4,1.5,0.8,2.4c0.4,0.9,1.2,2,2.2,2.8c1,0.8,2.3,1.4,3.6,1.5
					c0.2,0,0.2,0,0.4,0c0.1,0,0.1,0,0.2,0l0.1,0l0.2-0.1c0.3-0.1,0.5-0.2,0.8-0.2l0.2-0.1l0.1,0c-0.4,0.1-0.1,0-0.2,0.1l0.1,0
					l0.3-0.1c0.8-0.4,1.6-0.8,2.3-1.4c1.4-1.2,2.5-3,3-5.2c0.5-2.2,0.4-4.8-0.2-7.3c-0.3-1.2-0.9-2.5-1.4-3.5
					c-0.2-0.3-0.4-0.6-0.6-0.9l-0.2-0.2l0-0.1c0,0-0.1-0.2,0,0.1l-0.1-0.1l-0.3-0.4l-0.7-0.8c-0.2-0.3-0.5-0.5-0.7-0.7
					c-1-1-2.2-1.7-3.4-2.3c-1.3-0.5-2.7-1-4.1-1.2c-0.4-0.1-0.7-0.1-1.1-0.1c-0.4,0-0.7-0.1-1.1-0.1c-0.8,0-1.5,0-2.3,0.1
					c-1.6,0.1-3.1,0.5-4.7,1c-1.5,0.5-3.1,1.3-4.4,2l-1.2,0.7l-0.5,0.3l-0.5,0.3c-0.6,0.5-1.2,1-1.8,1.6c-2.3,2.4-4.1,5.5-5.3,8.8
					c-1.2,3.3-1.9,7-1.9,10.5c0,1.8,0.3,3.6,0.7,5.2c0.2,0.8,0.5,1.6,0.9,2.4c0.3,0.7,0.8,1.5,1.2,2.1c0.1,0.2,0.7,0.8,0.8,1l0.9,1
					c0.6,0.7,1.3,1.2,2,1.8c1.4,1.1,3,2,4.6,2.8c3.3,1.5,7,2.3,10.7,2.5c3.7,0.2,7.5,0,11.3-0.6c7.5-1.2,14.7-3.7,21.4-6.7
					c6.7-3,12.9-6.6,18.4-10.4c1.4-1,2.7-1.9,4-2.9c0.6-0.5,1.4-1,1.9-1.5c0.6-0.5,1.2-1,1.8-1.5c2.3-2.1,4.4-4.2,6.2-6.5
					c3.6-4.5,6-9.2,7.5-13.5c1.4-4.4,1.8-8.4,1.6-11.6c-0.2-3.2-1-5.5-1.7-6.7c-0.1-0.1-0.2-0.3-0.3-0.4c-0.1-0.1-0.2-0.2-0.2-0.3
					c0,0-0.1-0.1-0.1-0.1c0,0,0,0-0.1,0c0,0-0.1-0.1-0.1-0.1c-0.3-0.2-0.6-0.4-0.6-0.4c-1.1-0.7-1.4-2.1-0.7-3.2
					C1008.5,106.1,1009.9,105.8,1011,106.4z"/>
			</g>
		</g>
	</g>
	<g>
		<path class="st2" d="M874,321c-9.3-1.7-12.9-10.6-13.7-21.2c-0.8-11.9-3.4-16.4-3.4-16.4l0,0c-0.3-0.5-0.5-1-0.9-1.3
			c-0.5-0.5-1-1-1.5-1.3c-0.5-0.3-1-0.6-1.4-0.8c-0.4-0.2-0.7-0.3-0.9-0.4c-0.2,0-0.2-0.1-0.2-0.2c0-0.1,0.1-0.2,0.3-0.2
			c1.9-0.3,3.6-0.8,5-1.6c1.4-0.8,2.7-2.1,3.7-3.7c0.6-0.9,1.1-2,1.3-3.2c0.3-1.2,0.4-2.3,0.3-3.5c-0.1-1.2-0.3-2.3-0.7-3.4
			c-0.4-1.1-1-2.1-1.7-2.9c-0.9-1-1.9-1.9-2.9-2.5c-1.1-0.6-2.2-1.1-3.3-1.5c-1.2-0.4-2.4-0.6-3.6-0.8c-1.2-0.2-2.5-0.4-3.8-0.5
			l-20.8-2.8c-0.2,0-0.4,0-0.5,0.1c-0.1,0.1-0.2,0.2-0.2,0.3c0,0.1,0,0.3,0.1,0.4c0.1,0.1,0.2,0.2,0.4,0.3c0.3,0.1,0.7,0.2,1.2,0.5
			c0.6,0.2,1.1,0.6,1.7,1c0.5,0.5,1,1,1.4,1.8c0.4,0.7,0.5,1.6,0.3,2.6l-4.5,33.1c-0.1,1.1-0.5,1.9-1,2.5c-0.5,0.6-1.1,1-1.8,1.3
			c-0.6,0.3-1.3,0.5-1.9,0.6c-0.6,0.1-1,0.1-1.3,0.1c-0.2,0-0.4,0.1-0.5,0.2c-0.1,0.1-0.2,0.2-0.2,0.3c0,0.1,0,0.2,0.1,0.4
			c0.1,0.1,0.3,0.2,0.5,0.2l21.6,2.9c0.2,0,0.4,0,0.5-0.1c0.1-0.1,0.2-0.2,0.2-0.3c0-0.1,0-0.2-0.1-0.4c-0.1-0.1-0.2-0.2-0.4-0.3
			c-0.3-0.1-0.7-0.2-1.2-0.5c-0.6-0.2-1.1-0.6-1.7-1c-0.5-0.5-1-1.1-1.4-1.8c-0.4-0.7-0.5-1.6-0.3-2.7l1.8-13.6
			c0.1-0.7,0.3-1.2,0.6-1.5c0.3-0.3,0.9-0.3,1.6-0.2c0.6,0.1,1.2,0.3,1.9,0.6c0.6,0.3,1.2,0.9,1.6,1.7c0.5,0.9,0.8,2.1,1.1,3.7
			c0.5,2.2,1.2,8.5,2.9,22.8c1.8,14.3,18.2,14.9,21.9,14.7C874.8,322.4,875,321.2,874,321z M846.3,276.3c-0.7,0.4-1.5,0.6-2.2,0.7
			c-0.7,0.1-1.5,0.2-2.2,0.1c-0.7-0.1-1.4-0.1-2-0.2c-0.5-0.1-0.7-0.4-0.7-0.8l1.9-14c0.1-0.9,0.4-1.7,0.7-2.4
			c0.3-0.6,0.7-1.1,1.2-1.5c0.5-0.4,1.1-0.6,1.7-0.7c0.6-0.1,1.3-0.1,2.1,0c0.8,0.1,1.6,0.4,2.2,0.7c0.6,0.4,1.1,0.9,1.5,1.7
			c0.4,0.7,0.6,1.7,0.7,2.8c0.1,1.1,0,2.5-0.2,4.1c-0.3,1.9-0.6,3.4-1.1,4.7c-0.5,1.2-1,2.3-1.6,3
			C847.7,275.3,847,275.9,846.3,276.3z"/>
		<g>
			<path class="st2" d="M907,270.4c0,0-0.1,0-0.1,0l0,0c0,0-8.8,1-7.8,8.4c0.7,5.1,1.9,14.6,2.6,20c0.5,4.1,0.2,10.8-3.1,14.2
				c-4,4.1-10,5.6-11.5,5.9c-1.5,0.3-2.7,0.4-2.7,0.4s-0.5,0.5,0.1,0.9c0.6,0.3,6.5,1.9,12.5,1c6.3-1,11.6-3,13.6-8.4
				c1.8-4.7,1.1-7.6,1-9.1c0-0.1-4.3-32.8-4.3-32.8C907.3,270.5,907.2,270.4,907,270.4z"/>
			<path class="st2" d="M906,258.3c-0.4-0.6-0.8-1.1-1.4-1.6c-0.5-0.4-1.2-0.7-1.9-0.9c-0.7-0.2-1.5-0.2-2.3-0.1
				c-0.8,0.1-1.5,0.3-2.2,0.7c-0.7,0.4-1.2,0.9-1.7,1.4c-0.4,0.6-0.8,1.2-1,1.9c-0.2,0.7-0.3,1.4-0.2,2.2c0.1,0.7,0.3,1.4,0.7,2
				c0.4,0.6,0.8,1.1,1.4,1.5c0.5,0.4,1.2,0.7,1.9,0.9c0.7,0.2,1.4,0.2,2.2,0.1c0.8-0.1,1.5-0.4,2.2-0.7c0.6-0.4,1.2-0.9,1.7-1.4
				c0.5-0.6,0.8-1.2,1-1.9c0.2-0.7,0.3-1.4,0.2-2.2C906.6,259.6,906.4,259,906,258.3z"/>
		</g>
		<path class="st2" d="M733.5,264.4c0.1-0.1,0.1-0.2,0.1-0.4c0-0.1-0.1-0.3-0.3-0.4c-0.2-0.2-0.5-0.5-1-0.9
			c-0.4-0.4-0.8-0.9-1.2-1.6c-0.3-0.6-0.5-1.3-0.6-2.1c-0.1-0.8,0.1-1.7,0.7-2.6l7.7-13.8c0.4-1.9,20.9-11.7,20.9-11.7
			c2.2-1,8.8-3.4,11.2-1l1.1-0.7c0,0-2.2-7.9-16-0.8c0,0-0.1,0-0.1,0c-0.3,0.2-0.5,0.3-0.7,0.4c-0.6,0.3-1.2,0.7-1.8,1
			c-0.6,0.3-1.2,0.6-2,1c-1.1,0.6-2.3,1.2-3.5,1.8c-1.2,0.6-2.4,1.2-3.4,1.7s-1.9,0.9-2.7,1.3c-0.3,0.1-0.5,0.2-0.7,0.3l-0.9,0.3
			c-0.3,0-0.5-0.2-0.6-0.6c0-0.2-0.1-0.6-0.2-1.3c-0.1-0.7,0-0.3,0-1.4c-0.1-1.1-0.1-2.2-0.2-3.5c-0.1-1.3-0.1-2.5-0.2-3.7
			c0-0.6,0-1.1,0-1.6c0,0,0-0.1,0-0.1c0-0.5,0-1,0-1.5c0-0.2,0-0.4,0-0.6c-0.3-6.7-1.8-11.6-7.1-17.6c-4.3-4.9-8.5-4.2-8.5-4.2
			s2.2,6.6,3.2,10.9c0.1,0.5,0.2,1,0.3,1.5c0.1,0.3,0.1,0.7,0.1,0.9l0,0c0.1,0.5,0.1,0.8,0.2,1.1c0,0.3,0.1,0.9,0.1,1.6
			c0.1,0.7,0.1,1.6,0.2,2.6c0.1,1,0.2,2.1,0.3,3.3c0.1,1.2,0.2,2.4,0.3,3.7c0.1,1.2,0.2,2.5,0.3,3.7c0.1,1.2,0.2,2.3,0.2,3.3
			s0.1,1.8,0.2,2.5c0,0.7,0.1,1.2,0.1,1.4c0,0.4,0,0.8-0.1,1.1c0,0.3-0.1,0.6-0.2,0.9c-0.1,0.3-0.2,0.5-0.4,0.8
			c-0.1,0.3-0.3,0.5-0.4,0.8l-6,10.9c-0.5,0.9-1.1,1.6-1.9,1.9c-0.7,0.4-1.4,0.6-2.1,0.6c-0.7,0-1.4,0-2-0.2c-0.6-0.2-1-0.3-1.3-0.4
			c-0.2-0.1-0.4-0.1-0.5,0c-0.1,0.1-0.2,0.1-0.3,0.2c-0.1,0.1-0.1,0.2,0,0.4c0,0.1,0.2,0.3,0.4,0.4l18.7,10.4
			c0.2,0.1,0.4,0.1,0.5,0.1C733.3,264.6,733.4,264.5,733.5,264.4z"/>
		<path class="st2" d="M798.6,293.7c0-0.1-0.1-0.2-0.3-0.3c-0.2-0.1-0.4-0.3-0.8-0.5c-0.4-0.3-0.7-0.6-1.1-1.1
			c-0.3-0.5-0.6-1-0.7-1.6c-0.1-0.6-0.1-1.4,0.3-2.3l8.9-23.2c0,0,2.1-4.9,2.8-6.8c2.2-5.7-0.8-10.5-3.9-12c-6.1-3-7.4-1.6-7.4-1.6
			s-0.5,0.4-0.1,0.7c1.2,1.2,4,4,2.7,7.8c-1.1,3.4-3.5,9.1-3.5,9.1c-0.1,0-0.2-0.1-0.3-0.2c0,0-0.2-0.2-0.4-0.5
			c-0.3-0.3-0.7-0.7-1.2-1.1c-0.6-0.4-1.3-0.9-2.2-1.4c-0.9-0.5-2.1-1-3.4-1.5c-2.4-0.9-4.6-1.3-6.7-1.2c-2.1,0.1-3.9,0.6-5.6,1.5
			c-1.7,0.9-3.2,2.3-4.5,4c-1.3,1.7-2.4,3.8-3.3,6.2c-0.4,1-0.7,2-0.9,3.1c-0.3,1.1-0.4,2.3-0.5,3.5c-0.1,1.2,0,2.4,0.3,3.6
			c0.2,1.2,0.7,2.4,1.3,3.5c0.6,1.1,1.5,2.1,2.6,3.1c1.1,0.9,2.5,1.7,4.2,2.3c1.5,0.6,2.9,0.9,4.2,0.9c1.3,0.1,2.4,0,3.4-0.2
			c1-0.2,1.8-0.5,2.4-0.8c0.6-0.3,1.1-0.6,1.4-0.7c0.1-0.1,0.2-0.1,0.3,0c0.1,0.1,0.1,0.2,0.1,0.3c0,0-0.1,1.7,2.3,4
			c3.5,3.4,8.7,4,8.7,4c0.2,0.1,0.3,0.1,0.4,0c0.1,0,0.2-0.1,0.3-0.2C798.6,293.9,798.7,293.8,798.6,293.7z M786.4,283.6
			c-0.8,0.6-1.7,1-2.7,1.2c-1.1,0.2-2.3,0-3.8-0.5c-1.1-0.4-2-1-2.6-1.8c-0.6-0.8-1-1.6-1.2-2.5c-0.2-0.9-0.3-1.9-0.2-2.9
			c0.1-1,0.3-2,0.5-3c0.2-1,0.5-1.8,0.8-2.6c0.3-0.8,0.5-1.4,0.7-1.9c0.7-1.8,1.4-3.4,2.2-4.8c0.8-1.4,1.7-2.6,2.7-3.5
			c1-0.9,2-1.5,3.2-1.8c1.1-0.3,2.3-0.2,3.6,0.2c0.8,0.3,1.5,0.7,2,1.3c0.5,0.5,0.9,1.1,1.2,1.8c0.3,0.6,0.5,1.3,0.6,2
			c0.1,0.7,0.1,1.4,0,2.1c-0.1,0.7-0.2,1.4-0.3,2.1c-0.2,0.7-0.3,1.3-0.5,1.8l-3.2,8.6c-0.2,0.7-0.6,1.4-1.1,2.2
			C787.8,282.3,787.2,283,786.4,283.6z"/>
		<path class="st2" d="M1003.6,275.8c-0.1-0.1-0.3-0.1-0.4-0.1c-0.2,0-0.5,0.1-0.9,0.1c-0.4,0-0.8,0-1.3-0.1
			c-0.5-0.1-0.9-0.4-1.4-0.8c-0.5-0.4-0.8-1-1.1-1.9l-4.5-12.7l-0.1-0.2c-0.3-0.8-0.6-1.6-0.9-2.5c-0.3-0.9-0.7-1.7-1.2-2.6
			c-0.5-0.8-1.1-1.6-1.8-2.3c-0.7-0.7-1.5-1.2-2.5-1.6c-1-0.4-2.1-0.6-3.4-0.5c-1.3,0-2.8,0.3-4.6,1c-1.2,0.4-2.2,0.9-3.1,1.5
			c-0.9,0.6-1.7,1.2-2.3,1.8c-0.7,0.7-1.2,1.3-1.7,2c-0.5,0.7-0.8,1.4-1.1,2c-0.5-0.5-1.1-0.9-1.8-1.2c-0.7-0.3-1.4-0.5-2.2-0.6
			c-0.8-0.1-1.7-0.1-2.7,0c-1,0.1-2.1,0.4-3.4,0.9c-1.9,0.7-3.4,1.5-4.5,2.5c-1.2,1-2.1,2-2.8,3.1c0,0-0.3,0.3-0.7,0.7
			c-3.1-2.4-7.4,0.1-8.3,0.5c-1.2,0.6-1.9,2-0.9,2.1c1.1,0.1,2.7,3.9,2.7,3.9s4.1,12.5,6.1,17.7c1.4,3.7,4.3,5.6,7.6,4.6
			c2.7-0.8,5.4-2.9,6.3-3.6c0.1-0.1,0.2-0.1,0.3-0.2c0.1-0.1,0.1-0.2,0.1-0.4c0-0.1-0.1-0.2-0.2-0.3c-0.1-0.1-0.3-0.1-0.4-0.1
			c-0.2,0-0.5,0.1-0.9,0.1c-0.4,0-0.8,0-1.3-0.1c-0.5-0.1-0.9-0.4-1.4-0.8c-0.3-0.3-0.6-0.6-0.8-1.1c-0.1-0.3-0.3-0.7-0.5-1.2
			l-3.7-10.5c-0.8-2.4-1.6-4.8-2.4-7c-0.1-0.3-0.1-0.6-0.2-0.9c-0.1-0.7-0.1-1.3,0.1-1.9c0.2-0.6,0.5-1.2,0.9-1.7
			c0.5-0.5,1.2-1,2.1-1.3c1.1-0.4,2-0.5,2.8-0.3c0.8,0.2,1.5,0.6,2.1,1.2c0.6,0.6,1.1,1.3,1.6,2.1c0.4,0.8,0.8,1.6,1.1,2.5l3.8,10.8
			l0,0c0,0,1.6,4.8,1.8,5.4c0.2,0.6,1.5,3,4.8,3.3c2.7,0.2,7.7-3.1,8.7-4.1c0.1,0,0.1-0.1,0.2-0.2c0.1-0.1,0.1-0.2,0.1-0.4
			c0-0.1-0.1-0.2-0.2-0.3c-0.1-0.1-0.3-0.1-0.4-0.1c-0.2,0-0.5,0.1-0.9,0.1c-0.4,0-0.8,0-1.3-0.1c-0.5-0.1-0.9-0.4-1.4-0.8
			c-0.5-0.4-0.8-1-1.1-1.9l-6-16.9c-0.2-0.6-0.3-1.3-0.4-1.9c-0.1-0.7-0.1-1.3,0.1-1.9c0.1-0.6,0.5-1.2,0.9-1.7
			c0.5-0.5,1.2-1,2.1-1.3c1.1-0.4,2-0.5,2.9-0.3c0.8,0.2,1.5,0.6,2.1,1.2c0.6,0.6,1.1,1.3,1.6,2.1c0.4,0.8,0.8,1.7,1.1,2.5l5.2,14.9
			c0,0,0,0,0,0l0.3,0.8c0,0,1.5,4.1,5.1,4.3c4,0.2,8.6-3.9,8.5-4.8c0-0.1,0.1-0.2,0-0.3C1003.7,276,1003.7,275.9,1003.6,275.8z"/>
		<path class="st2" d="M1067.5,238.2c-0.1,0-0.3,0-0.4,0c-0.2,0.1-0.4,0.2-0.8,0.3c-0.4,0.1-0.8,0.2-1.3,0.2c-0.5,0-1-0.1-1.5-0.4
			c-0.5-0.3-1.1-0.8-1.6-1.5l-7.4-11.2l-0.1-0.1c-0.4-0.7-0.9-1.4-1.5-2.2c-0.5-0.8-1.1-1.5-1.8-2.2c-0.7-0.7-1.4-1.3-2.3-1.8
			c-0.8-0.5-1.8-0.8-2.8-1c-1-0.1-2.2,0-3.4,0.3c-1.3,0.3-2.7,1-4.2,2c-1,0.7-1.9,1.4-2.7,2.2c-0.7,0.8-1.3,1.5-1.8,2.3
			c-0.5,0.8-0.9,1.6-1.1,2.4c-0.3,0.8-0.5,1.5-0.6,2.2c-0.6-0.3-1.3-0.6-2-0.7c-0.7-0.1-1.5-0.2-2.3-0.1c-0.8,0.1-1.7,0.3-2.7,0.7
			c-0.9,0.4-2,0.9-3,1.6c-1.7,1.1-2.9,2.3-3.8,3.5c-0.9,1.2-1.5,2.5-2,3.7c0,0-0.2,0.3-0.5,0.9c-3.6-1.6-7.1,1.8-7.9,2.5
			c-1,0.8-1.4,2.4-0.4,2.2c1.1-0.1,3.5,3.2,3.5,3.2s7,11.1,10.2,15.7c2.2,3.2,5.5,4.4,8.4,2.6c2.4-1.5,4.6-4.1,5.3-5
			c0.1-0.1,0.2-0.2,0.2-0.3c0-0.1,0-0.3,0-0.4c0-0.1-0.1-0.2-0.2-0.2c-0.1,0-0.3,0-0.4,0c-0.2,0.1-0.4,0.2-0.8,0.3
			c-0.4,0.1-0.8,0.2-1.3,0.2c-0.5,0-1-0.1-1.5-0.4c-0.4-0.2-0.7-0.5-1.1-0.9c-0.2-0.3-0.5-0.6-0.8-1.1l-6.1-9.3
			c-1.4-2.1-2.7-4.3-4-6.2c-0.1-0.3-0.3-0.6-0.4-0.8c-0.3-0.6-0.4-1.3-0.4-1.9c0-0.6,0.2-1.3,0.5-1.9c0.3-0.6,0.9-1.2,1.8-1.8
			c1-0.6,1.8-0.9,2.7-0.9c0.8,0,1.6,0.2,2.4,0.6c0.7,0.4,1.4,1,2,1.6c0.6,0.7,1.2,1.4,1.7,2.2l6.3,9.6l0,0c0,0,2.7,4.3,3,4.8
			c0.4,0.6,2.2,2.6,5.4,2c2.7-0.5,6.7-4.8,7.4-6c0.1-0.1,0.1-0.1,0.1-0.2c0-0.1,0-0.3,0-0.4c0-0.1-0.1-0.2-0.2-0.2
			c-0.1,0-0.3,0-0.5,0c-0.2,0.1-0.4,0.2-0.8,0.3c-0.4,0.1-0.8,0.2-1.3,0.2c-0.5,0-1-0.1-1.5-0.4c-0.5-0.3-1.1-0.8-1.6-1.5l-9.8-15
			c-0.3-0.6-0.6-1.2-0.9-1.8c-0.2-0.6-0.4-1.3-0.4-1.9c0-0.6,0.2-1.3,0.5-1.9c0.3-0.6,0.9-1.2,1.8-1.8c1-0.6,1.9-1,2.7-0.9
			c0.8,0,1.6,0.2,2.3,0.6c0.7,0.4,1.4,1,2,1.7c0.6,0.7,1.2,1.4,1.7,2.2l8.7,13.2c0,0,0,0,0,0l0.4,0.7c0,0,2.5,3.7,6,2.9
			c3.9-0.8,7.4-5.8,7.1-6.8c0-0.1,0-0.2,0-0.3C1067.7,238.3,1067.6,238.2,1067.5,238.2z"/>
		<g>
			<path class="st2" d="M995.3,245.2c0,0,7.9-4.8,10.7,2.9c2.8,7.7,6.4,18.9,7.8,19.7s3.8,1.7,3.8,1.7s-2.9,2.6-6.2,3.7
				c-3.2,1.1-6.2-0.8-8.2-6c-2-5.2-6-16-6-16s-2.2-4-3.3-4.1C992.9,247,993.4,245.5,995.3,245.2z"/>
			<path class="st2" d="M998.2,229.2c-0.5-0.5-1.1-0.9-1.7-1.2c-0.6-0.3-1.3-0.4-2-0.4c-0.7,0-1.5,0.1-2.2,0.5
				c-0.7,0.3-1.4,0.7-1.9,1.3c-0.5,0.5-1,1.1-1.2,1.8c-0.3,0.7-0.4,1.4-0.5,2.1c0,0.7,0.1,1.4,0.4,2.1c0.3,0.7,0.7,1.3,1.2,1.8
				c0.5,0.5,1.1,0.9,1.7,1.1c0.6,0.3,1.3,0.4,2,0.4c0.7,0,1.5-0.1,2.2-0.4c0.8-0.3,1.4-0.7,1.9-1.3c0.5-0.5,0.9-1.1,1.2-1.8
				c0.3-0.6,0.5-1.3,0.5-2.1c0-0.7-0.1-1.4-0.4-2.1C999.1,230.3,998.7,229.7,998.2,229.2z"/>
		</g>
		<path class="st2" d="M761.9,275.9c-0.9-0.6-1.5-1.5-1.2-2.4c0.4-1.1,5-10.3,6.2-12.5c0.8-1.5,3.8-6.1,0.7-10.8
			c-3.1-4.8-8.6-8.1-13.9-8.3c-4.3-0.2-6.9,2.2-7.8,3.7c-1,1.6-0.3,2.7,2.4,4.1c2.7,1.4,3.2-1.5,6.4-2.8c3.2-1.3,5.9,1,6.5,2.6
			c0.7,1.8-3.4,9-3.4,9s-2.7-1.3-8.1-3.3c-5.9-2.2-11.3,0.8-12.8,5.2c-1.6,4.9,0.5,8.5,5.5,11.3s9.7,0.8,9.7,0.8s0,0,0.4,0.9
			c0.7,1.6,1.3,2.8,4.1,4.3c2.9,1.4,5.9,0.5,6.7-0.2C764,276.9,763,276.7,761.9,275.9z M745.2,268.8c-3.5-2.5-0.9-7.9,2.2-10
			c3.1-2.1,9.7,1.3,9.7,1.3l-4.1,9.6C753,269.7,748.7,271.3,745.2,268.8z"/>
		<path class="st2" d="M895,297.9c-1.1-0.1-2.1-0.6-2.2-1.5c-0.2-1.2-0.6-11.4-0.7-14c0-1.7,0.4-7.1-4.6-9.8c-5-2.7-11.5-3-16.2-0.6
			c-3.9,1.9-5,5.3-5.1,7c-0.1,1.9,1.1,2.5,4.1,2.4c3-0.1,2.1-2.9,4.3-5.6c2.2-2.7,5.6-1.9,6.9-0.8c1.4,1.3,1.4,9.5,1.4,9.5
			s-3,0.2-8.7,1c-6.2,1-9.5,6.1-8.7,10.7c1,5.1,4.6,7.2,10.2,7.3c5.7,0.1,8.9-3.9,8.9-3.9s0,0,0.8,0.6c1.4,1,2.5,1.9,5.7,1.8
			c3.2-0.1,5.4-2.4,5.7-3.4C897.2,297.7,896.3,298,895,297.9z M876.9,299.7c-4.3-0.5-4.6-6.5-2.9-9.8c1.7-3.4,9.2-3.5,9.2-3.5
			l1,10.4C884.1,296.7,881.2,300.2,876.9,299.7z"/>
		<path class="st2" d="M946.6,291.6c-1.1,0-2.1-0.4-2.4-1.2c-0.3-1.2-1.8-11.3-2.1-13.8c-0.2-1.7-0.4-7.2-5.6-9.3
			c-5.2-2.1-11.7-1.7-16.1,1.1c-3.6,2.3-4.4,5.8-4.3,7.5c0.1,1.9,1.3,2.4,4.3,2c3-0.4,1.8-3.1,3.7-6c1.9-2.9,5.4-2.5,6.8-1.5
			c1.6,1.1,2.4,9.3,2.4,9.3s-3,0.5-8.5,2c-6.1,1.6-8.8,7.1-7.5,11.6c1.5,5,5.3,6.6,11,6.2c5.7-0.5,8.4-4.9,8.4-4.9s0,0,0.9,0.5
			c1.5,0.9,2.7,1.6,5.9,1.1c3.2-0.5,5.1-3,5.3-4C948.8,291.2,947.9,291.6,946.6,291.6z M928.8,295.4c-4.3,0-5.3-5.9-4-9.5
			c1.3-3.5,8.7-4.5,8.7-4.5l2.1,10.2C935.7,291.6,933.1,295.4,928.8,295.4z"/>
	</g>
	<g>
		<path class="st2" d="M754.8,324.3l-7.5-2.7l-7,19.1l-2.1-0.8l7-19.1l-7.5-2.7l0.7-1.8l17,6.2L754.8,324.3z"/>
		<path class="st2" d="M753.2,345.3c-1.6-0.5-2.7-1.4-3.2-2.8c-0.5-1.4-0.4-3.2,0.3-5.4l2.8-9.2l2,0.6l-2.7,8.8
			c-1.1,3.5-0.4,5.7,2,6.4c0.6,0.2,1.2,0.3,1.9,0.2c0.6,0,1.3-0.2,1.9-0.4c0.6-0.2,1.2-0.5,1.7-1c0.5-0.4,1-0.9,1.5-1.5l3-9.9l2,0.6
			l-4,13c-0.2,0.6,0,0.9,0.5,1.1l-0.5,1.8c-0.4-0.1-0.7-0.1-0.9-0.2c-0.5-0.1-0.8-0.4-1.1-0.8c-0.2-0.4-0.3-0.8-0.2-1.2l0.7-2.2
			c-1.1,1-2.3,1.7-3.7,2C755.9,345.7,754.6,345.7,753.2,345.3z"/>
		<path class="st2" d="M799.1,356.1l-2.1-0.4l1.9-8.9c0.4-1.9,0.4-3.3,0-4.3c-0.4-1-1.2-1.6-2.4-1.9c-0.6-0.1-1.2-0.1-1.8,0
			c-0.6,0.1-1.2,0.3-1.7,0.6c-0.5,0.3-1.1,0.7-1.5,1.2c-0.5,0.5-0.9,1.1-1.2,1.7l-2,9.8l-2.1-0.4l1.9-8.9c0.4-1.9,0.4-3.4,0-4.3
			c-0.4-1-1.2-1.6-2.4-1.8c-1.2-0.3-2.4-0.1-3.5,0.6c-1.1,0.6-2,1.6-2.7,2.9l-2,9.8l-2.1-0.4l3.3-16l1.9,0.4l-0.8,3.6
			c0.9-1.1,2-1.9,3.2-2.3c1.2-0.5,2.5-0.6,3.8-0.3c1.4,0.3,2.4,0.9,3,1.8c0.7,0.9,0.9,2,0.9,3.3c2.1-2.4,4.4-3.4,7.1-2.8
			c0.9,0.2,1.6,0.5,2.2,1c0.6,0.5,1,1,1.2,1.7c0.3,0.7,0.4,1.5,0.4,2.4c0,0.9-0.1,1.9-0.3,2.9L799.1,356.1z"/>
		<path class="st2" d="M808.5,357.9c-0.8-0.1-1.6-0.4-2.2-0.7c-0.6-0.4-1.2-0.8-1.6-1.3c-0.4-0.5-0.7-1.1-0.9-1.8
			c-0.2-0.6-0.2-1.3-0.1-2c0.1-0.7,0.4-1.4,0.8-2c0.4-0.6,1-1,1.6-1.4c0.7-0.3,1.4-0.6,2.3-0.7c0.9-0.1,1.8-0.1,2.8,0.1
			c0.8,0.1,1.6,0.3,2.5,0.6c0.8,0.3,1.5,0.6,2.2,1l0.2-1.5c0.2-1.4,0-2.6-0.7-3.6c-0.7-1-1.7-1.5-3.1-1.8c-0.9-0.1-1.8-0.1-2.7,0.1
			s-1.9,0.5-2.8,1l-0.5-1.5c1.2-0.5,2.3-0.9,3.3-1.1c1-0.2,2.1-0.2,3.2-0.1c2,0.3,3.4,1.1,4.4,2.4c1,1.3,1.3,3,1,5l-1.1,7.3
			c-0.1,0.6,0.1,0.9,0.6,1l-0.3,1.9c-0.2,0-0.3,0-0.5,0c-0.1,0-0.3,0-0.4,0c-0.4-0.1-0.8-0.2-1.1-0.5c-0.3-0.3-0.4-0.7-0.4-1.2
			l0.1-1.3c-0.8,0.8-1.9,1.4-3.1,1.8C810.8,357.9,809.6,358,808.5,357.9z M809.2,356.3c0.9,0.1,1.9,0.1,2.9-0.2
			c1-0.3,1.8-0.7,2.4-1.3c0.2-0.2,0.3-0.3,0.5-0.5c0.1-0.2,0.2-0.4,0.2-0.6l0.4-2.6c-0.7-0.4-1.4-0.7-2.1-1
			c-0.7-0.3-1.5-0.4-2.2-0.6c-1.5-0.2-2.8-0.1-3.8,0.4c-1,0.5-1.6,1.2-1.8,2.3c-0.1,0.4,0,0.9,0.1,1.3c0.1,0.4,0.3,0.9,0.6,1.2
			c0.3,0.4,0.7,0.7,1.1,1C808,356,808.5,356.2,809.2,356.3z"/>
		<path class="st2" d="M835.4,361l-2.1-0.2l1-9.1c0.2-1.9,0.1-3.4-0.4-4.3c-0.5-0.9-1.3-1.5-2.5-1.6c-0.6-0.1-1.3,0-1.9,0.1
			c-0.7,0.2-1.3,0.4-1.9,0.8c-0.6,0.4-1.1,0.8-1.6,1.3c-0.5,0.5-0.8,1.1-1.1,1.8l-1.1,10l-2.1-0.2l1.9-16.3l1.9,0.2l-0.4,3.7
			c0.4-0.5,0.9-1,1.4-1.5c0.5-0.4,1.1-0.8,1.8-1.1c0.6-0.3,1.3-0.5,2-0.6c0.7-0.1,1.4-0.1,2.1,0c0.9,0.1,1.7,0.4,2.2,0.8
			c0.6,0.4,1,0.9,1.3,1.6c0.3,0.6,0.5,1.4,0.6,2.3c0.1,0.9,0,1.9-0.1,2.9L835.4,361z"/>
		<path class="st2" d="M847.4,362.4c-1.2-0.1-2.3-0.4-3.2-0.9c-1-0.5-1.8-1.2-2.4-2c-0.7-0.8-1.2-1.8-1.5-2.8
			c-0.3-1.1-0.4-2.1-0.3-3.3c0.1-1.1,0.4-2.2,0.9-3.2c0.5-1,1.1-1.8,1.9-2.6c0.8-0.7,1.7-1.3,2.7-1.6c1-0.4,2.1-0.5,3.3-0.4
			c1.2,0.1,2.2,0.4,3.2,0.9c1,0.5,1.8,1.2,2.4,2c0.7,0.8,1.2,1.8,1.5,2.8c0.3,1.1,0.4,2.2,0.4,3.3c-0.1,1.1-0.4,2.2-0.9,3.2
			c-0.5,1-1.1,1.8-1.9,2.6c-0.8,0.7-1.7,1.3-2.7,1.6C849.6,362.3,848.5,362.5,847.4,362.4z M842.1,353.5c-0.1,0.9,0,1.8,0.3,2.6
			c0.2,0.8,0.6,1.5,1.1,2.2s1.1,1.1,1.8,1.5c0.7,0.4,1.4,0.6,2.3,0.7c0.8,0.1,1.6-0.1,2.3-0.3c0.7-0.3,1.4-0.7,2-1.3
			c0.6-0.6,1.1-1.2,1.4-2c0.4-0.8,0.6-1.6,0.7-2.5c0.1-0.9,0-1.8-0.3-2.6c-0.3-0.8-0.6-1.6-1.1-2.2c-0.5-0.6-1.1-1.2-1.8-1.6
			c-0.7-0.4-1.4-0.6-2.2-0.7c-0.8-0.1-1.6,0.1-2.3,0.3s-1.4,0.7-2,1.3c-0.6,0.6-1.1,1.2-1.4,2C842.4,351.7,842.2,352.6,842.1,353.5z
			"/>
		<path class="st2" d="M872.8,363.7c-1.3,0-2.5-0.3-3.7-0.7c-1.2-0.5-2.2-1.1-3.1-1.9l1-1.4c0.9,0.8,1.8,1.4,2.8,1.8
			c0.9,0.4,2,0.6,3,0.7c1.3,0,2.4-0.2,3.2-0.7c0.8-0.5,1.2-1.3,1.2-2.2c0-0.5-0.1-0.8-0.3-1.2c-0.2-0.3-0.5-0.6-0.9-0.8
			c-0.4-0.2-0.9-0.5-1.5-0.7c-0.6-0.2-1.3-0.4-2.1-0.6c-0.9-0.3-1.7-0.5-2.4-0.8c-0.7-0.3-1.2-0.5-1.7-0.8c-0.4-0.3-0.8-0.7-1-1.1
			c-0.2-0.4-0.3-1-0.3-1.6c0-0.8,0.2-1.5,0.6-2.2c0.3-0.6,0.8-1.1,1.4-1.5c0.6-0.4,1.2-0.7,2-0.9c0.7-0.2,1.5-0.3,2.4-0.2
			c1.3,0,2.4,0.3,3.4,0.7c1,0.4,1.8,1,2.4,1.7l-1.1,1.2c-0.6-0.6-1.3-1.1-2.2-1.5c-0.9-0.3-1.8-0.5-2.7-0.6c-0.6,0-1.1,0-1.6,0.1
			c-0.5,0.1-0.9,0.3-1.3,0.5c-0.4,0.2-0.7,0.6-0.9,0.9c-0.2,0.4-0.3,0.8-0.4,1.4c0,0.4,0,0.8,0.2,1.1c0.1,0.3,0.4,0.5,0.7,0.7
			c0.3,0.2,0.7,0.4,1.3,0.6c0.5,0.2,1.1,0.4,1.9,0.5c1,0.3,2,0.6,2.7,0.8c0.8,0.3,1.4,0.6,2,0.9c0.5,0.4,0.9,0.8,1.2,1.3
			c0.3,0.5,0.4,1.1,0.4,1.8c0,1.5-0.7,2.7-1.8,3.5C876.3,363.4,874.7,363.8,872.8,363.7z"/>
		<path class="st2" d="M889.4,364c-1.2,0-2.3-0.2-3.3-0.7c-1-0.5-1.9-1.1-2.6-1.8c-0.7-0.8-1.3-1.7-1.7-2.7c-0.4-1-0.6-2.1-0.6-3.2
			c0-1.2,0.2-2.2,0.6-3.3c0.4-1,1-1.9,1.7-2.7c0.7-0.8,1.6-1.4,2.6-1.9c1-0.5,2.1-0.7,3.3-0.7c1.2,0,2.3,0.2,3.3,0.7
			c1,0.5,1.9,1.1,2.6,1.9c0.7,0.8,1.3,1.7,1.7,2.7c0.4,1,0.6,2.1,0.6,3.3c0,1.1-0.2,2.2-0.6,3.2c-0.4,1-1,1.9-1.7,2.7
			c-0.7,0.8-1.6,1.4-2.6,1.8C891.7,363.7,890.6,364,889.4,364z M883.5,355.6c0,0.9,0.2,1.8,0.5,2.6c0.3,0.8,0.7,1.5,1.3,2.1
			c0.5,0.6,1.2,1.1,1.9,1.4c0.7,0.3,1.5,0.5,2.3,0.5c0.8,0,1.6-0.2,2.3-0.5c0.7-0.3,1.4-0.8,1.9-1.4c0.5-0.6,1-1.3,1.3-2.1
			c0.3-0.8,0.5-1.7,0.5-2.6c0-0.9-0.2-1.8-0.5-2.6c-0.3-0.8-0.7-1.5-1.3-2.1c-0.5-0.6-1.2-1.1-1.9-1.4c-0.7-0.3-1.5-0.5-2.3-0.5
			c-0.8,0-1.6,0.2-2.3,0.5c-0.7,0.3-1.3,0.8-1.9,1.4c-0.5,0.6-1,1.3-1.3,2.1C883.7,353.8,883.5,354.6,883.5,355.6z"/>
		<path class="st2" d="M914.6,363.1l-2.1,0.1l-0.3-9.1c-0.1-1.9-0.4-3.4-1-4.2c-0.6-0.9-1.5-1.3-2.7-1.2c-0.6,0-1.3,0.2-1.9,0.4
			c-0.6,0.3-1.2,0.6-1.7,1c-0.5,0.4-1,0.9-1.4,1.5s-0.7,1.2-0.9,1.9l0.3,10l-2.1,0.1l-0.5-16.4l1.9-0.1l0.1,3.7
			c0.3-0.6,0.7-1.1,1.2-1.7c0.5-0.5,1-0.9,1.6-1.3c0.6-0.4,1.2-0.7,1.9-0.9c0.7-0.2,1.4-0.3,2.1-0.4c0.9,0,1.7,0.1,2.3,0.4
			c0.6,0.3,1.1,0.8,1.5,1.4c0.4,0.6,0.7,1.3,0.9,2.2c0.2,0.9,0.3,1.8,0.3,2.9L914.6,363.1z"/>
		<path class="st2" d="M951.8,360.2l-2.1,0.2l-0.8-9.1c-0.2-1.9-0.6-3.3-1.3-4.1c-0.7-0.8-1.6-1.2-2.8-1.1c-0.6,0.1-1.2,0.2-1.7,0.5
			c-0.5,0.3-1,0.6-1.4,1.1c-0.4,0.5-0.8,1-1.1,1.6c-0.3,0.6-0.5,1.3-0.6,2l0.9,9.9l-2.1,0.2l-0.8-9.1c-0.2-1.9-0.6-3.3-1.3-4.1
			c-0.7-0.8-1.6-1.2-2.8-1.1c-1.2,0.1-2.3,0.6-3.2,1.6c-0.9,0.9-1.5,2.1-1.8,3.6l0.9,10l-2.1,0.2l-1.5-16.3l1.9-0.2l0.3,3.7
			c0.6-1.3,1.3-2.4,2.4-3.2c1-0.8,2.2-1.3,3.5-1.4c1.4-0.1,2.5,0.2,3.4,0.9c0.9,0.7,1.5,1.7,1.8,2.9c1.3-2.9,3.2-4.5,5.9-4.8
			c0.9-0.1,1.7,0,2.3,0.3c0.7,0.3,1.2,0.7,1.7,1.3c0.4,0.6,0.8,1.3,1,2.1c0.3,0.8,0.4,1.8,0.5,2.9L951.8,360.2z"/>
		<path class="st2" d="M954.1,339.9l-0.4-3.1l2.1-0.3l0.4,3.1L954.1,339.9z M956.7,359.5l-2.1-16.2l2.1-0.3l2.1,16.2L956.7,359.5z"
			/>
		<path class="st2" d="M969.1,358.1c-1.3,0.2-2.5,0.2-3.8-0.1c-1.3-0.2-2.4-0.7-3.4-1.3l0.7-1.6c1,0.6,2,1,3,1.3
			c1,0.2,2,0.3,3.1,0.1c1.3-0.2,2.3-0.6,3-1.3c0.7-0.6,1-1.5,0.8-2.4c-0.1-0.5-0.2-0.8-0.5-1.1c-0.3-0.3-0.6-0.5-1-0.7
			c-0.4-0.2-1-0.3-1.6-0.4c-0.6-0.1-1.4-0.2-2.2-0.2c-1-0.1-1.8-0.2-2.5-0.3c-0.7-0.1-1.3-0.3-1.8-0.5c-0.5-0.2-0.9-0.5-1.2-0.9
			c-0.3-0.4-0.5-0.9-0.6-1.5c-0.1-0.8-0.1-1.5,0.2-2.2c0.2-0.7,0.6-1.2,1.1-1.7c0.5-0.5,1.1-0.9,1.8-1.2c0.7-0.3,1.5-0.5,2.3-0.7
			c1.2-0.2,2.4-0.2,3.5,0.1c1.1,0.2,2,0.7,2.7,1.2l-0.8,1.4c-0.7-0.5-1.5-0.9-2.4-1.1c-0.9-0.2-1.8-0.2-2.8-0.1
			c-0.6,0.1-1.1,0.2-1.5,0.4c-0.5,0.2-0.9,0.4-1.2,0.7c-0.3,0.3-0.6,0.7-0.7,1.1c-0.1,0.4-0.2,0.9-0.1,1.4c0.1,0.4,0.2,0.8,0.4,1
			c0.2,0.2,0.5,0.4,0.8,0.6c0.4,0.1,0.8,0.3,1.3,0.3c0.5,0.1,1.2,0.1,1.9,0.2c1.1,0.1,2,0.2,2.8,0.3c0.8,0.1,1.5,0.3,2.1,0.6
			c0.6,0.3,1,0.6,1.4,1c0.3,0.4,0.6,1,0.7,1.7c0.2,1.5-0.2,2.8-1.2,3.8C972.5,357.1,971.1,357.8,969.1,358.1z"/>
		<path class="st2" d="M984.7,355.2l4.4-23.8l1.7-0.4l13.8,19.8l-2.3,0.5l-4.3-6.2l-9.8,2.1l-1.3,7.4L984.7,355.2z M990.6,333.8
			l-2.2,11.7l8.8-1.9L990.6,333.8z"/>
		<path class="st2" d="M1002.2,327.8l2.1-0.5l4.8,18.6c0.2,0.6,0.4,1,0.8,1.3c0.4,0.3,0.9,0.3,1.5,0.2c0.2-0.1,0.5-0.2,0.8-0.3
			c0.3-0.1,0.6-0.3,0.8-0.5l0.8,1.6c-0.3,0.3-0.8,0.5-1.3,0.8c-0.5,0.2-1,0.4-1.4,0.5c-1,0.2-1.8,0.2-2.5-0.2
			c-0.7-0.4-1.2-1.1-1.4-2.1L1002.2,327.8z"/>
		<path class="st2" d="M1020.6,346.9c-0.8,0.2-1.6,0.3-2.3,0.3c-0.7-0.1-1.4-0.2-2-0.5c-0.6-0.3-1.1-0.7-1.6-1.2
			c-0.4-0.5-0.7-1.1-0.9-1.7c-0.2-0.7-0.2-1.4-0.1-2.1c0.1-0.7,0.4-1.3,0.9-1.9c0.5-0.6,1.1-1.1,1.8-1.6c0.7-0.5,1.6-0.9,2.6-1.1
			c0.8-0.2,1.6-0.4,2.5-0.5c0.9-0.1,1.7-0.1,2.4-0.1l-0.4-1.4c-0.4-1.4-1.1-2.4-2.2-2.9c-1-0.6-2.2-0.7-3.6-0.3
			c-0.8,0.3-1.6,0.7-2.4,1.2c-0.7,0.6-1.4,1.3-2.1,2.1l-1.1-1.1c0.8-1,1.7-1.8,2.5-2.4c0.9-0.6,1.8-1.1,2.9-1.4
			c1.9-0.6,3.6-0.5,5,0.3c1.5,0.8,2.5,2.1,3,4.1l2.1,7.1c0.2,0.6,0.5,0.8,1,0.6l0.5,1.8c-0.2,0.1-0.3,0.1-0.4,0.2
			c-0.1,0.1-0.3,0.1-0.4,0.1c-0.4,0.1-0.8,0.1-1.2,0c-0.4-0.1-0.7-0.4-0.9-0.9l-0.4-1.2c-0.4,1.1-1.1,2.1-2.1,3
			C1022.8,346,1021.7,346.6,1020.6,346.9z M1020.6,345.2c0.9-0.3,1.7-0.7,2.5-1.4c0.8-0.7,1.3-1.4,1.6-2.2c0.1-0.2,0.1-0.5,0.2-0.7
			c0-0.2,0-0.5,0-0.6l-0.8-2.6c-0.8-0.1-1.5,0-2.3,0c-0.8,0.1-1.5,0.2-2.2,0.4c-1.5,0.4-2.6,1.1-3.3,1.9c-0.7,0.9-1,1.8-0.6,2.9
			c0.1,0.4,0.3,0.8,0.6,1.2c0.3,0.4,0.6,0.6,1.1,0.9c0.4,0.2,0.9,0.4,1.5,0.4C1019.3,345.5,1020,345.4,1020.6,345.2z"/>
		<path class="st2" d="M1038.8,341c-1.2,0.4-2.4,0.7-3.7,0.7c-1.3,0-2.5-0.2-3.6-0.7l0.4-1.7c1.1,0.4,2.2,0.6,3.2,0.6
			c1,0,2-0.1,3.1-0.5c1.2-0.4,2.1-1,2.7-1.8c0.6-0.8,0.7-1.6,0.3-2.5c-0.2-0.4-0.4-0.8-0.7-1c-0.3-0.2-0.7-0.4-1.1-0.4
			c-0.5-0.1-1-0.1-1.7-0.1c-0.6,0-1.4,0.1-2.2,0.2c-1,0.1-1.8,0.2-2.5,0.2c-0.7,0-1.4,0-1.9-0.2c-0.5-0.1-1-0.4-1.3-0.7
			c-0.4-0.3-0.6-0.8-0.9-1.4c-0.3-0.8-0.4-1.5-0.3-2.2c0.1-0.7,0.3-1.3,0.7-1.9c0.4-0.6,0.9-1.1,1.5-1.5c0.6-0.4,1.3-0.8,2.1-1.1
			c1.2-0.4,2.3-0.6,3.4-0.6c1.1,0,2.1,0.3,2.9,0.7l-0.6,1.5c-0.8-0.4-1.6-0.6-2.6-0.6c-0.9,0-1.8,0.2-2.7,0.5
			c-0.5,0.2-1,0.4-1.4,0.7c-0.4,0.3-0.8,0.6-1,0.9s-0.4,0.8-0.5,1.2c-0.1,0.4,0,0.9,0.2,1.4c0.1,0.4,0.3,0.7,0.6,0.9
			c0.2,0.2,0.5,0.3,0.9,0.4c0.4,0.1,0.8,0.1,1.4,0.1c0.5,0,1.2-0.1,1.9-0.2c1.1-0.1,2-0.2,2.9-0.2c0.8,0,1.6,0,2.2,0.2
			c0.6,0.1,1.1,0.4,1.6,0.7c0.4,0.4,0.7,0.9,1,1.5c0.5,1.4,0.4,2.7-0.4,4C1041.9,339.4,1040.6,340.4,1038.8,341z"/>
	</g>
</g>
</svg>
