<?xml version="1.0" encoding="utf-8"?>
<!-- Generator: Adobe Illustrator 25.0.0, SVG Export Plug-In . SVG Version: 6.00 Build 0)  -->
<svg version="1.1" id="Capa_1" xmlns="http://www.w3.org/2000/svg" xmlns:xlink="http://www.w3.org/1999/xlink" x="0px" y="0px"
	 viewBox="0 0 134.43 178.39" style="enable-background:new 0 0 134.43 178.39;" xml:space="preserve">
<style type="text/css">
	.st0{stroke:#E73137;stroke-width:1.6959;}
</style>
<g>
	<g>
		<g>
			<g>
				<polygon points="1.46,0.35 51.66,0.35 94.46,73.53 94.46,139.97 43.81,139.97 43.81,73.52 				"/>
				<path d="M55.7,0.37h77.23L94.18,66.68L55.7,0.37z M94.22,40.14l15.5-26.53H78.83L94.22,40.14z"/>
			</g>
			<g>
				<path d="M6.01,152.61h3.26l6.67,15.98l6.92-15.98h3.3l4.07,24.89h-4.8l-2.2-15.07l-6.7,15.39H15.2l-6.48-15.39L6.27,177.5h-4.8
					L6.01,152.61z"/>
				<path d="M39.34,157.19v5.43h8.43v4.14h-8.43v6.6h8.76v4.14H34.58v-24.45H48.1v4.14H39.34z M40.95,150.82l-1.94-1.79l5.02-4.88
					l3.04,2.49L40.95,150.82z"/>
				<path d="M51.5,153.05h5.72l4.32,7.58l4.51-7.58h5.72l-7.51,11.51l8.32,12.94h-5.61l-5.49-8.94l-5.68,8.94h-5.64l8.65-12.94
					L51.5,153.05z"/>
				<path d="M80.38,177.5h-4.76v-24.45h4.76V177.5z"/>
				<path d="M103.62,159.61c-1.98-1.94-3.7-2.75-5.97-2.75c-4.47,0-7.99,3.7-7.99,8.39c0,4.95,3.41,8.43,8.21,8.43
					c2.16,0,3.85-0.76,5.75-2.68v5.61c-2.16,1.03-3.92,1.43-5.97,1.43c-7.26,0-12.9-5.57-12.9-12.75c0-7.11,5.79-12.79,13.01-12.79
					c2.05,0,3.77,0.44,5.86,1.5V159.61z"/>
				<path d="M132.97,165.25c0,7.18-5.75,12.79-13.04,12.79c-7.4,0-13.08-5.53-13.08-12.72c0-7.18,5.75-12.82,13.08-12.82
					C127.25,152.51,132.97,158.11,132.97,165.25z M111.75,165.25c0,4.66,3.67,8.43,8.18,8.43c4.47,0,8.13-3.77,8.13-8.43
					c0-4.62-3.63-8.39-8.13-8.39C115.41,156.87,111.75,160.64,111.75,165.25z"/>
			</g>
		</g>
		<path class="st0" d="M92.25,107.64"/>
	</g>
	<g>
		<path d="M98.4,137.42c-1.03-1.04-1.54-2.29-1.54-3.76c0-1.49,0.52-2.75,1.54-3.79c1.03-1.04,2.29-1.56,3.78-1.56
			c1.48,0,2.74,0.52,3.77,1.56c1.04,1.04,1.55,2.3,1.55,3.79c0,1.47-0.52,2.72-1.55,3.76c-1.04,1.03-2.29,1.55-3.77,1.55
			C100.69,138.97,99.43,138.45,98.4,137.42z M105.07,136.58c0.78-0.76,1.17-1.74,1.17-2.92c0-1.2-0.39-2.19-1.17-2.95
			c-0.78-0.77-1.75-1.15-2.9-1.15c-1.16,0-2.13,0.38-2.9,1.14c-0.78,0.76-1.15,1.74-1.15,2.94c0,1.18,0.38,2.15,1.15,2.92
			c0.77,0.76,1.74,1.14,2.9,1.14C103.33,137.71,104.3,137.33,105.07,136.58z M104.74,136.35h-1.34l-1.24-2.34h-0.87v2.34h-1.23
			v-5.54h2.69c0.63,0.01,1.15,0.11,1.55,0.31c0.4,0.19,0.6,0.66,0.6,1.39c0,0.51-0.13,0.88-0.39,1.1c-0.25,0.23-0.63,0.36-1.12,0.4
			L104.74,136.35z M102.77,133.17c0.32,0.01,0.56-0.04,0.72-0.14c0.17-0.1,0.25-0.32,0.25-0.67c0-0.22-0.1-0.37-0.29-0.44
			c-0.2-0.07-0.4-0.11-0.63-0.12c-0.06,0-0.12,0-0.17,0c-0.06,0-0.11,0-0.16,0l-1.2-0.01v1.39H102.77z"/>
	</g>
</g>
</svg>
