<?xml version="1.0" encoding="utf-8"?>
<!-- Generator: Adobe Illustrator 25.0.0, SVG Export Plug-In . SVG Version: 6.00 Build 0)  -->
<svg version="1.1" id="Layer_1" xmlns="http://www.w3.org/2000/svg" xmlns:xlink="http://www.w3.org/1999/xlink" x="0px" y="0px"
	 viewBox="0 0 638.9 79.7" style="enable-background:new 0 0 638.9 79.7;" xml:space="preserve">
<g>
	<g>
		<defs>
			<path id="SVGID_1_" d="M61.4,31.6c2.2-3.3,3.4-7.2,3.4-11.2C64.7,9.2,55.6,0,44.3,0C33.1,0,23.9,9.2,23.9,20.4
				c0,4,1.2,7.9,3.3,11.1L0,47.9v1.8c0,8.7,7.1,15.8,15.8,15.8c3.1,0,6.1-0.9,8.6-2.6c2,9.1,10.2,16,19.9,16
				c9.7,0,17.8-6.8,19.9-15.9c2.5,1.6,5.4,2.5,8.4,2.5c8.7,0,15.8-7.1,15.8-15.8v-1.8L61.4,31.6z M44.3,6.3c4.4,0,8.3,2,10.8,5.1
				H33.5C36.1,8.3,40,6.3,44.3,6.3z M30.5,17.7h27.7c0.2,0.9,0.3,1.8,0.3,2.7c0,0.8-0.1,1.6-0.2,2.4H30.5c-0.1-0.8-0.2-1.6-0.2-2.4
				C30.2,19.5,30.3,18.6,30.5,17.7z M24.6,53.1c-1.4,3.6-4.9,6-8.8,6c-4.7,0-8.5-3.4-9.3-7.8l25-15l0,0c1.6-0.9,2.6-2.6,2.6-4.6
				c0-0.9-0.2-1.8-0.6-2.5c0,0-0.1-0.1-0.1-0.1h0.1l0,0l0,0h22.1c-1.1,1.4-2.5,2.6-4.1,3.5l-16.8,7.9l-0.2,0.1
				C29.5,43.4,26,47.9,24.6,53.1z M44.3,72.5c-4.4,0-8.3-2-10.9-5.1h21.7C52.6,70.5,48.7,72.5,44.3,72.5z M58.2,61.1H30.5
				c-0.2-0.9-0.3-1.8-0.3-2.7c0-0.8,0.1-1.6,0.2-2.4h27.8c0.1,0.8,0.2,1.6,0.2,2.4C58.4,59.4,58.3,60.2,58.2,61.1z M72.7,59.1
				c-3.6,0-6.8-2-8.4-5.1c-0.7-3.2-2.2-6.2-4.3-8.8c-2.5,0-4.5,2-4.5,4.5l0,0H33.2c1.1-1.4,2.5-2.6,4-3.5l16.8-7.9l0.2-0.1
				c1-0.5,1.9-1.2,2.7-1.8l25,15C81.2,55.8,77.3,59.1,72.7,59.1z"/>
		</defs>
		<use xlink:href="#SVGID_1_"  style="overflow:visible;"/>
		<clipPath id="SVGID_2_">
			<use xlink:href="#SVGID_1_"  style="overflow:visible;"/>
		</clipPath>
	</g>
	<path d="M625.3,30.5c4.6,0,13.6,1.5,13.6,16.3c0,12.3-6.4,18-14.6,18c-8.4,0-13.5-5.5-13.5-17.2C610.8,34.2,618.9,30.5,625.3,30.5
		 M631.3,47.8c0-7.2-1.6-11.6-6.4-11.6c-4.6,0-6.6,4.4-6.6,10.5c0,6,0.9,12.4,6.5,12.4C629.4,59.1,631.3,54.5,631.3,47.8"/>
	<path d="M189,20.6c-2.1,0-3.7,1.7-3.7,3.8c0,2.3,1.5,3.9,3.6,3.9c2.1,0,3.8-1.7,3.8-3.9C192.7,22.3,191.1,20.6,189,20.6"/>
	<path d="M347.1,31.5c-9,0-14.3,5.9-14.3,15.8c0,9.7,5.2,12.7,9.2,13.5c-3.1,2-6.4,5.2-6.4,10.4c0,5.4,3.6,8.5,9.9,8.5
		c7.8,0,12.3-5.1,12.9-14.4c0.1-2.5,0.2-5.6,0.2-8.3V33.9l-0.4-0.2C354.5,32.1,349.9,31.5,347.1,31.5 M345.9,74.7
		c-3.1,0-4.6-1.3-4.6-4.1c0-4,3.1-7.1,11.3-11.2V63C352.6,70.9,350.4,74.7,345.9,74.7 M345.9,56.9c-6.5,0-7.3-5.1-7.3-10.1
		c0-6.6,2.9-10.4,8-10.4c2.2,0,4.2,0.3,6.2,0.9v13C352.7,54.4,350.1,56.9,345.9,56.9"/>
	<path d="M424.3,20.6c-2.1,0-3.7,1.7-3.7,3.8c0,2.3,1.5,3.9,3.6,3.9c2.2,0,3.8-1.7,3.8-3.9C428,22.3,426.4,20.6,424.3,20.6"/>
	<path d="M123.1,39.9c-5.3-1.7-8.6-3-8.6-7.1c0-5.4,5.3-5.9,6.9-5.9c3.2,0,6.5,1.4,9.7,4.3l0.5,0.4l0.6-0.7c0.3-0.4,0.4-0.8,0.6-1.1
		c1.5-3.5-1.7-5.6-2.7-6.2c-2.7-1.4-5.6-2.2-8.6-2.2c-7.8,0-13,4.7-13,11.8c0,7.9,6,10.3,11.6,11.8c4.6,1.3,8.3,2.7,8.3,7.1
		c0,4.6-2.5,6.8-7.6,6.8c-3,0-6-1-8.3-2.1h0c-2.1-1-3.6,0.7-4.5,2.1l-0.6,1.3c0,0,0,0,0,0l0,0l0.4,0.3c1.8,1.5,7.2,3.8,12.9,3.8
		c8.6,0,13.8-4.7,13.8-12.5C134.5,43.6,127.9,41.5,123.1,39.9"/>
	<path d="M231.6,31.5c-3.2,0-6.1,1.2-8.4,3.5v-11c-0.1-3-3.4-3.6-4.9-3.7h-0.9v43.4h1.5c1.7-0.2,4.3-0.9,4.3-3.6h0V43.4
		c0-3.1,3.1-6.8,7.2-6.8c4.4,0,5.3,2.9,5.3,7.2v19.9h1.6c1.6-0.2,4-0.8,4.2-3.2v-18C241.6,35.3,238.1,31.5,231.6,31.5"/>
	<path d="M187.2,32.4H186v31.4h1.5c1.7-0.2,4.4-0.9,4.4-3.7v-24C191.9,33.1,188.9,32.5,187.2,32.4"/>
	<path d="M327.4,33.5c-4-1.6-8.2-2-9.9-2c-9.8,0-15.4,6.5-15.4,17.8c0,9.8,4.4,15.2,12.3,15.2c3.4,0,6.2-1.2,8.2-3.6v2.8h0.5
		c1.4-0.1,4.3-0.5,4.6-3.4v-2.6V33.7L327.4,33.5z M322,53.5c0,3-2.4,6.2-7,6.2c-5.8,0-7-5.6-7-10.2c0-8.6,3-13,8.8-13
		c2.2,0,4.2,0.4,5.2,0.8V53.5z"/>
	<path d="M422.5,32.4h-1.1v31.4h1.5c1.7-0.2,4.4-0.9,4.4-3.7v-24C427.2,33.1,424.2,32.5,422.5,32.4"/>
	<path d="M575.8,20.6c-2.1,0-3.7,1.7-3.7,3.8c0,2.3,1.5,3.9,3.6,3.9c2.1,0,3.8-1.7,3.8-3.9C579.5,22.3,577.9,20.6,575.8,20.6"/>
	<path d="M574,32.4h-1.1v31.4h1.5c1.7-0.2,4.4-0.9,4.4-3.7v-24C578.7,33.1,575.7,32.5,574,32.4"/>
	<path d="M170,31.5c-3.7,0-7,1.8-9,4.9c-1.7-3.2-4.5-4.9-8.5-4.9c-3.4,0-6.4,1.5-8.5,4.1v-0.3c-0.2-2.4-2.9-2.8-4.2-2.9H139v5.2
		v26.2h1.6c1.7-0.2,4.1-0.9,4.3-3.4V43.4c0-3.3,2.5-6.8,6.5-6.8c4.5,0,5.4,3,5.4,7.5v19.6h1.6c1.6-0.2,4-0.9,4.3-3.3V43.1
		c0-3.2,2.6-6.5,6.4-6.5c3.8,0,5.4,2.2,5.4,7.5v19.7h1.6c1.6-0.2,4-0.9,4.3-3.3V42.8C180.1,35.6,176.4,31.5,170,31.5"/>
	<path d="M405.9,31.5c-3.6,0-6.7,1.5-9,4.2v-0.1l0,0c0-2.7-2.9-3.1-4.3-3.2h-1v5.2v26.2h1.5c1.7-0.2,4.3-0.9,4.4-3.7V43.4
		c0-3.2,3.1-6.8,7.3-6.8c3.8,0,5.2,2.1,5.2,7.4v19.7h1.5c1.7-0.2,4.4-0.9,4.4-3.7V42.6C415.9,35.5,412.3,31.5,405.9,31.5"/>
	<path d="M387.2,60.1L387.2,60.1C387.1,60.1,387.1,60.1,387.2,60.1l-0.2-0.4c-1.9-3.1-4.5-1.5-4.5-1.5l0,0c-1.3,0.7-3,1.3-5.1,1.3
		c-6.5,0-7.8-6-8.1-8.8c0.3,0,0.5,0,0.8,0c3.9,0,16.8-0.8,16.8-11.1c0-5-3.5-8.2-9.2-8.2c-8.5,0-14.3,6.8-14.3,17
		c0,10.4,4.9,16.1,13.7,16.1c5.4,0,9-2.8,10-3.6l0.4-0.4L387.2,60.1z M377.4,36.4c2.4,0,3.9,1.5,3.9,3.9c0,5.6-10.4,5.7-11.6,5.7
		c-0.2,0-0.3,0-0.5,0C369.5,42.1,371.5,36.4,377.4,36.4"/>
	<path d="M533,60.1L533,60.1C533,60.1,533,60.1,533,60.1l-0.2-0.4c-1.9-3.1-4.5-1.5-4.5-1.5l0,0c-1.3,0.7-3,1.3-5.1,1.3
		c-6.5,0-7.8-6-8.1-8.8c0.3,0,0.5,0,0.8,0c3.9,0,16.8-0.8,16.8-11.1c0-5-3.5-8.2-9.2-8.2c-8.5,0-14.3,6.8-14.3,17
		c0,10.4,4.9,16.1,13.7,16.1c5.4,0,9-2.8,10-3.6l0.4-0.4L533,60.1z M523.2,36.4c2.4,0,3.9,1.5,3.9,3.9c0,5.6-10.4,5.7-11.6,5.7
		c-0.2,0-0.3,0-0.5,0C515.4,42.1,517.4,36.4,523.2,36.4"/>
	<path d="M431.8,61.2L431.8,61.2C431.8,61.2,431.8,61.2,431.8,61.2L431.8,61.2z"/>
	<path d="M444,45.2l-0.1,0c-3.6-1.1-5.7-1.9-5.7-4.8c0-2.9,2.5-4,4.7-4c2.5,0,4.7,1,6.8,3.1l0.5,0.4l0.2-0.2
		c0.5-0.6,0.8-1.2,1.1-1.7c0,0,0-0.1,0.1-0.1l-0.3,0.6c0.7-1.6,0.3-2.9-0.4-3.9c0,0,0,0,0,0c-1.1-1.5-2.8-2.2-3.7-2.5
		c-1.2-0.3-2.5-0.6-4-0.6c-5.2,0-10.5,3-10.5,9.6c0,6.5,4.6,8.1,9.4,9.3c3.6,0.9,5.5,1.9,5.5,4.8c0,3.9-3.2,4.5-5.2,4.5
		c-2.5,0-4.7-0.9-6.1-1.6c-1.6-0.7-2.9,0.5-3.6,1.6l-0.8,1.6l0,0l0.4,0.3c1.3,1.2,5.3,3.1,10.2,3.1c6.6,0,10.9-3.9,10.9-9.9
		C453.3,48.2,448.1,46.5,444,45.2"/>
	<path d="M297.9,63.8l-2.2-41.6h-3.1h0c0,0,0.1,0,0.1,0l-0.1,0c0,0,0,0,0,0h-0.4c-1,0.1-3.1,0.6-4.4,3.6v0l-10.1,29.8l-9.8-29.8
		c-1.2-3-3.4-3.5-4.3-3.6h-0.4c0,0,0,0,0,0l0,0c0,0,0,0,0,0h0h-3.2l-2.4,41.6h0.3l-0.2,0c0,0,5.6,0.4,5.9-3.4v0c0-0.1,0-0.2,0-0.3
		l0,0l1.4-27.3l9.7,29.6v0v0l0.1,0.1c0.1,0.4,0.7,1.3,2.2,1.3l0,0h1.3l0,0c1.5,0,2.1-0.9,2.2-1.3l0.1-0.2l0,0l10-29.7l1.4,27.5
		c0,0,0,0,0,0.1l0,0.3c0.3,2.9,3.7,3.3,5.2,3.4h0.5C297.8,63.8,297.9,63.8,297.9,63.8h-0.1H297.9z"/>
	<path d="M505.3,63.8l-2.2-41.6H500h0c0,0,0,0,0,0l0,0c0,0,0,0,0,0h-0.4c-1,0.1-3.1,0.6-4.3,3.6l0,0l-10.1,29.8l-9.8-29.8
		c-1.2-3-3.4-3.5-4.3-3.6h-0.4c0,0,0,0,0,0l0,0c0,0,0,0,0,0h0h-3.2L465,63.8h0.3l-0.2,0c0,0,5.6,0.4,5.9-3.4v0c0-0.1,0-0.2,0-0.3
		l0,0l1.4-27.3l9.7,29.6v0v0l0.1,0.1c0.1,0.4,0.7,1.3,2.2,1.3l0,0h1.3l0,0c1.5,0,2.1-0.9,2.2-1.3l0.1-0.2v0l10-29.7l1.5,27.5v0.1
		l0,0.3c0.3,2.9,3.7,3.3,5.2,3.4h0.5C505.3,63.8,505.3,63.8,505.3,63.8h-0.1H505.3z"/>
	<path d="M213.4,60.6l0,0.1c-1-2.5-2.9-1.9-3.2-1.8c-0.8,0.3-1.7,0.6-2.8,0.6c-2.2,0-3.6-0.8-3.6-4.6V37.8h8.3v-2.6c0,0,0,0.1,0,0.1
		c0-2.9-2.7-2.9-2.7-2.9h0h-5.7v-8.2c0-3.1-3.3-3.7-4.9-3.8h-1v34.5c0,4.1,0,9.7,8.7,9.7c2.5,0,5.2-0.8,7-2.1l0.4-0.3L213.4,60.6z"
		/>
	<path d="M603.3,64c5.3-2.9,2.9-8.1,2.9-8.1c-2.6,1.9-4.7,2.8-7.2,2.8c-5.6,0-7.9-4.4-7.9-11.1c0-7.3,2.9-10.9,7.1-10.9
		c2.8,0,5.1,1.9,6.7,4c0,0,3.9-3.5,0.8-7.9c-2.4-1.6-5.1-2.2-7.7-2.2c-6.6,0-14.4,4.4-14.4,17.3c0,10.9,5.3,16.9,14.5,16.9
		C599.9,64.7,601.7,64.5,603.3,64"/>
	<path d="M565.9,64.2l0.4,0C566.3,64.1,566.1,64.2,565.9,64.2l-0.5,0.1h1.2l-10.7-16.8L566,31.9h-3c-2.3,0.3-5.2,1.2-7,3.9l-4,6.4
		l-3.6-6.1c-1.8-3-4.8-3.9-7.2-4.2H538l9.8,15.6l-11,16.7h1.1l-0.5-0.1c-0.2,0-0.4,0-0.4,0l0.4,0c1.5,0.1,7,0.3,9.8-3.9l4.5-7.2
		l4.5,7.4C559.1,64.5,564.5,64.3,565.9,64.2"/>
	<path d="M523.9,15.9c1.8,0.5,4.4,1.5,4.4,3.6c0,0.8-0.5,1.8-1.6,2.9c-1.8,2-4.8,4.6-7.4,7l-2.3-2L523.9,15.9z"/>
</g>
</svg>
