<?xml version="1.0" encoding="utf-8"?>
<!-- Generator: Adobe Illustrator 25.0.0, SVG Export Plug-In . SVG Version: 6.00 Build 0)  -->
<svg version="1.1" id="Capa_1" xmlns="http://www.w3.org/2000/svg" xmlns:xlink="http://www.w3.org/1999/xlink" x="0px" y="0px"
	 viewBox="0 0 655 355.56" style="enable-background:new 0 0 655 355.56;" xml:space="preserve">
<g>
	<g>
		<path d="M384.45,44.93L384.45,44.93c-1.16-1.56-6.2-5.92-6.2-5.92c-13.53-11.65-31.15-18.7-50.41-18.7
			c-42.69,0-77.29,34.61-77.29,77.29c0,42.69,34.61,77.3,77.29,77.3c42.69,0,77.29-34.61,77.29-77.3h-76.37v7.5h69.21
			c-3.74,35.28-33.6,63.43-69.87,63.43c-38.81,0-72.26-32.12-72.26-70.93c0-38.81,33.45-74.25,72.26-74.25
			c17.81,0,35.85,4.81,55.28,22.64L384.45,44.93z"/>
		<path d="M393,36.39c-18.36-20.86-44.8-27-65.15-27c-46.53,0-86.24,41.7-86.24,88.23s39.71,84.92,86.24,84.92
			c46.53,0,84.25-38.38,84.25-84.92c0-2.39-0.1-4.75-0.29-7.08h-83.04v-7.3h89.27c0,0,0.62,1.79,0.85,4.04
			c0.34,3.4,0.58,6.85,0.58,10.34c0,50.6-41.02,91.62-91.61,91.62c-50.6,0-91.62-41.02-91.62-91.62S277.25,6,327.85,6
			c22.62,0,43.32,8.2,59.3,21.78c0,0,4.27,3.81,7.12,7.33"/>
		<path d="M373.27,56.04c-12.6-13.31-29.38-17.42-44.5-17.42c-30.38,0-57.01,28.61-57.01,59c0,30.39,26.62,55.68,57.01,55.68
			c22.63,0,42.07-14.33,50.52-33.86h-50.52v-7.53h60.66c-6.77,27.21-31.36,48.22-60.66,48.22c-34.52,0-62.5-27.98-62.5-62.51
			c0-34.52,27.98-62.51,62.5-62.51c16.56,0,31.62,6.44,42.81,16.96c0,0,1.51,1.27,2.72,2.68L373.27,56.04z"/>
		<line x1="393" y1="36.39" x2="394.28" y2="35.11"/>
		<path d="M54.3,259.31v25.13c-1.25,0.77-2.66,1.44-4.25,2.02c-1.58,0.58-3.23,1.07-4.93,1.48c-1.7,0.41-3.43,0.71-5.18,0.9
			c-1.75,0.19-3.4,0.29-4.93,0.29c-4.32,0-8.17-0.72-11.56-2.16c-3.38-1.44-6.24-3.38-8.57-5.83c-2.33-2.45-4.1-5.29-5.33-8.53
			c-1.22-3.24-1.84-6.66-1.84-10.26c0-3.79,0.66-7.32,1.98-10.58c1.32-3.26,3.14-6.09,5.47-8.5c2.33-2.4,5.12-4.28,8.39-5.65
			s6.84-2.05,10.73-2.05c4.7,0,8.54,0.59,11.52,1.76c2.98,1.18,5.47,2.8,7.49,4.86l-4.9,5.26c-2.11-2.02-4.34-3.42-6.7-4.21
			c-2.35-0.79-4.82-1.19-7.42-1.19c-2.93,0-5.57,0.54-7.92,1.62c-2.35,1.08-4.37,2.53-6.05,4.35c-1.68,1.83-2.98,3.97-3.89,6.45
			c-0.91,2.47-1.37,5.1-1.37,7.88c0,2.88,0.5,5.56,1.51,8.03c1.01,2.47,2.4,4.62,4.18,6.44s3.86,3.25,6.26,4.28
			c2.4,1.03,5.02,1.55,7.85,1.55c2.45,0,4.76-0.23,6.95-0.68c2.18-0.46,4.04-1.12,5.58-1.98v-14.18h-11.3v-6.48H54.3z"/>
		<rect x="81.3" y="236.84" width="6.91" height="50.98"/>
		<polygon points="115.72,236.84 122.63,236.84 122.63,281.34 146.03,281.34 146.03,287.82 115.72,287.82 		"/>
		<path d="M167.49,236.84h17.71c2.21,0,4.26,0.26,6.16,0.79c1.9,0.53,3.53,1.31,4.9,2.34c1.37,1.03,2.45,2.35,3.24,3.96
			c0.79,1.61,1.19,3.49,1.19,5.65c0,2.93-0.82,5.32-2.45,7.16c-1.63,1.85-3.74,3.2-6.34,4.07v0.14c1.54,0.1,2.98,0.49,4.32,1.19
			c1.34,0.7,2.51,1.61,3.49,2.74s1.76,2.44,2.34,3.92c0.58,1.49,0.86,3.1,0.86,4.82c0,2.3-0.47,4.33-1.4,6.08
			c-0.94,1.75-2.22,3.23-3.85,4.43c-1.63,1.2-3.53,2.11-5.69,2.74c-2.16,0.62-4.49,0.94-6.98,0.94h-17.5V236.84z M174.4,258.01h9.43
			c1.3,0,2.52-0.13,3.67-0.4c1.15-0.26,2.16-0.71,3.02-1.33c0.86-0.62,1.55-1.41,2.05-2.38c0.5-0.96,0.76-2.13,0.76-3.53
			c0-2.01-0.65-3.77-1.94-5.26c-1.3-1.49-3.34-2.23-6.12-2.23H174.4V258.01z M174.4,281.77h10.15c1.06,0,2.22-0.11,3.49-0.32
			c1.27-0.22,2.46-0.65,3.56-1.3c1.1-0.65,2.04-1.52,2.81-2.63c0.77-1.1,1.15-2.57,1.15-4.39c0-3.02-0.98-5.29-2.95-6.8
			c-1.97-1.51-4.63-2.27-7.99-2.27H174.4V281.77z"/>
		<polygon points="227.25,236.84 260.15,236.84 260.15,243.32 234.16,243.32 234.16,258.52 258.35,258.52 258.35,265 234.16,265 
			234.16,281.34 261.45,281.34 261.45,287.82 227.25,287.82 		"/>
		<path d="M285.64,236.84h17.93c3.26,0,5.95,0.44,8.06,1.33c2.11,0.89,3.78,2.02,5,3.38c1.23,1.37,2.08,2.9,2.56,4.61
			c0.48,1.71,0.72,3.35,0.72,4.93c0,1.63-0.29,3.2-0.86,4.72c-0.58,1.51-1.4,2.88-2.48,4.1c-1.08,1.22-2.4,2.26-3.96,3.1
			c-1.56,0.84-3.3,1.36-5.22,1.55l14.47,23.26h-8.64l-12.96-22.46h-7.7v22.46h-6.91V236.84z M292.55,259.31h9.07
			c1.34,0,2.68-0.11,4-0.32c1.32-0.22,2.49-0.61,3.53-1.19c1.03-0.58,1.86-1.4,2.48-2.48s0.94-2.48,0.94-4.21
			c0-1.73-0.31-3.13-0.94-4.21s-1.45-1.91-2.48-2.48c-1.03-0.58-2.21-0.97-3.53-1.19c-1.32-0.22-2.65-0.32-4-0.32h-9.07V259.31z"/>
		<polygon points="353.39,243.32 336.98,243.32 336.98,236.84 376.72,236.84 376.72,243.32 360.3,243.32 360.3,287.82 
			353.39,287.82 		"/>
		<path d="M421.86,289.12c-3.89,0-7.46-0.68-10.73-2.05c-3.26-1.37-6.06-3.25-8.39-5.65c-2.33-2.4-4.15-5.23-5.47-8.5
			c-1.32-3.26-1.98-6.79-1.98-10.58c0-3.79,0.66-7.32,1.98-10.58c1.32-3.26,3.14-6.09,5.47-8.5c2.33-2.4,5.12-4.28,8.39-5.65
			c3.26-1.37,6.84-2.05,10.73-2.05c3.89,0,7.46,0.68,10.73,2.05c3.26,1.37,6.06,3.25,8.39,5.65c2.33,2.4,4.15,5.23,5.47,8.5
			c1.32,3.26,1.98,6.79,1.98,10.58c0,3.79-0.66,7.32-1.98,10.58c-1.32,3.27-3.14,6.1-5.47,8.5c-2.33,2.4-5.12,4.28-8.39,5.65
			C429.33,288.43,425.75,289.12,421.86,289.12 M421.86,282.64c2.93,0,5.57-0.54,7.92-1.62c2.35-1.08,4.37-2.53,6.05-4.36
			c1.68-1.82,2.98-3.97,3.89-6.44c0.91-2.47,1.37-5.1,1.37-7.89c0-2.78-0.46-5.41-1.37-7.88c-0.91-2.47-2.21-4.62-3.89-6.45
			c-1.68-1.82-3.7-3.27-6.05-4.35c-2.35-1.08-4.99-1.62-7.92-1.62c-2.93,0-5.57,0.54-7.92,1.62s-4.37,2.53-6.05,4.35
			c-1.68,1.82-2.98,3.97-3.89,6.45c-0.91,2.47-1.37,5.1-1.37,7.88c0,2.78,0.46,5.41,1.37,7.89c0.91,2.47,2.21,4.62,3.89,6.44
			c1.68,1.83,3.7,3.28,6.05,4.36S418.93,282.64,421.86,282.64"/>
		<path d="M523.17,236.84h6.26l21.82,50.97h-8.06l-5.11-12.6h-24.27l-5.04,12.6h-8.06L523.17,236.84z M535.55,269.17l-9.5-23.4
			h-0.14l-9.65,23.4H535.55z"/>
		<path d="M561.73,288.25c-1.3,0-2.41-0.47-3.35-1.4c-0.94-0.94-1.4-2.05-1.4-3.35c0-1.3,0.47-2.41,1.4-3.35
			c0.94-0.93,2.05-1.4,3.35-1.4c1.3,0,2.41,0.47,3.35,1.4c0.93,0.94,1.4,2.05,1.4,3.35c0,1.3-0.47,2.41-1.4,3.35
			C564.14,287.78,563.02,288.25,561.73,288.25"/>
		<path d="M624.18,247.86c-1.44-1.87-3.27-3.31-5.47-4.32c-2.21-1.01-4.49-1.51-6.84-1.51c-2.88,0-5.48,0.54-7.81,1.62
			s-4.32,2.56-5.98,4.43c-1.66,1.87-2.94,4.07-3.85,6.59c-0.91,2.52-1.37,5.22-1.37,8.1c0,2.69,0.43,5.23,1.3,7.63
			c0.86,2.4,2.11,4.51,3.74,6.34s3.62,3.26,5.98,4.32c2.35,1.06,5.02,1.58,7.99,1.58c2.93,0,5.5-0.6,7.7-1.8
			c2.21-1.2,4.08-2.88,5.62-5.04l5.83,4.39c-0.39,0.53-1.06,1.28-2.02,2.27c-0.96,0.98-2.23,1.97-3.82,2.95
			c-1.58,0.98-3.49,1.85-5.72,2.59c-2.23,0.74-4.81,1.12-7.74,1.12c-4.03,0-7.67-0.77-10.91-2.3c-3.24-1.54-6-3.55-8.28-6.05
			c-2.28-2.49-4.02-5.32-5.22-8.46c-1.2-3.14-1.8-6.32-1.8-9.54c0-3.93,0.65-7.57,1.94-10.91c1.3-3.34,3.11-6.22,5.44-8.64
			c2.33-2.42,5.12-4.31,8.39-5.65c3.26-1.34,6.86-2.02,10.8-2.02c3.36,0,6.66,0.65,9.9,1.94c3.24,1.3,5.89,3.29,7.96,5.98
			L624.18,247.86z"/>
		<path d="M643.23,288.25c-1.3,0-2.41-0.47-3.35-1.4c-0.94-0.94-1.4-2.05-1.4-3.35c0-1.3,0.47-2.41,1.4-3.35
			c0.94-0.93,2.05-1.4,3.35-1.4c1.3,0,2.41,0.47,3.35,1.4c0.93,0.94,1.4,2.05,1.4,3.35c0,1.3-0.47,2.41-1.4,3.35
			C645.64,287.78,644.52,288.25,643.23,288.25"/>
		<path d="M188.77,337.26c0,1.37-0.16,2.68-0.47,3.92c-0.31,1.25-0.83,2.35-1.57,3.31c-0.73,0.96-1.69,1.73-2.88,2.3
			c-1.19,0.58-2.65,0.86-4.37,0.86s-3.19-0.29-4.37-0.86c-1.19-0.58-2.15-1.34-2.88-2.3s-1.25-2.06-1.57-3.31
			c-0.31-1.25-0.47-2.56-0.47-3.92v-15.73h2.38v15.12c0,0.91,0.08,1.88,0.25,2.92s0.5,1.99,0.99,2.88s1.19,1.62,2.09,2.2
			c0.9,0.58,2.09,0.86,3.58,0.86c1.49,0,2.68-0.29,3.58-0.86c0.9-0.58,1.6-1.31,2.09-2.2c0.49-0.89,0.82-1.85,0.99-2.88
			s0.25-2,0.25-2.92v-15.12h2.38V337.26z"/>
		<path d="M194.67,335.07c0-0.31-0.01-0.69-0.04-1.13c-0.02-0.44-0.04-0.89-0.05-1.35c-0.01-0.46-0.03-0.88-0.05-1.28
			c-0.02-0.4-0.04-0.7-0.04-0.92h2.16c0.02,0.62,0.04,1.22,0.05,1.8c0.01,0.58,0.04,0.95,0.09,1.12h0.11
			c0.43-0.91,1.15-1.7,2.16-2.36c1.01-0.66,2.18-0.99,3.53-0.99c1.3,0,2.35,0.2,3.17,0.61c0.82,0.41,1.46,0.94,1.93,1.6
			c0.47,0.66,0.79,1.42,0.97,2.29c0.18,0.86,0.27,1.75,0.27,2.66v9.9h-2.16v-9.79c0-0.67-0.06-1.33-0.18-1.96
			c-0.12-0.64-0.33-1.21-0.63-1.71c-0.3-0.5-0.72-0.9-1.26-1.21c-0.54-0.3-1.24-0.45-2.11-0.45c-0.79,0-1.54,0.14-2.25,0.41
			c-0.71,0.28-1.32,0.7-1.84,1.26c-0.52,0.56-0.92,1.27-1.22,2.12c-0.3,0.85-0.45,1.85-0.45,3.01v8.32h-2.16V335.07z"/>
		<polygon points="224.66,321.53 227.03,321.53 227.03,344.86 238.91,344.86 238.91,347.02 224.66,347.02 		"/>
		<rect x="242.41" y="319.8" width="2.16" height="27.22"/>
		<path d="M263.61,340.04c0,0.82,0.01,1.55,0.02,2.2c0.01,0.65,0.03,1.25,0.05,1.8c0.02,0.55,0.05,1.07,0.09,1.55
			c0.04,0.48,0.09,0.96,0.16,1.44h-2.02c-0.14-0.82-0.22-1.72-0.22-2.7h-0.07c-0.62,1.08-1.4,1.87-2.32,2.38
			c-0.92,0.5-2.09,0.76-3.51,0.76c-0.72,0-1.43-0.09-2.12-0.27c-0.7-0.18-1.32-0.47-1.87-0.86c-0.55-0.39-1-0.9-1.35-1.53
			c-0.35-0.62-0.52-1.38-0.52-2.27c0-1.27,0.32-2.28,0.97-3.02c0.65-0.74,1.45-1.3,2.39-1.67c0.95-0.37,1.96-0.61,3.02-0.72
			c1.07-0.11,2.01-0.16,2.83-0.16h2.52v-1.01c0-1.44-0.44-2.47-1.33-3.1s-2-0.94-3.35-0.94c-1.92,0-3.61,0.62-5.08,1.87l-1.26-1.48
			c0.79-0.77,1.78-1.35,2.95-1.75c1.18-0.4,2.3-0.6,3.38-0.6c2.02,0,3.62,0.48,4.82,1.42c1.2,0.95,1.8,2.48,1.8,4.59V340.04z
			 M259.29,338.67c-0.91,0-1.79,0.06-2.65,0.18c-0.85,0.12-1.62,0.32-2.3,0.61c-0.68,0.29-1.23,0.67-1.64,1.15
			c-0.41,0.48-0.61,1.08-0.61,1.8c0,0.51,0.11,0.95,0.34,1.35c0.23,0.4,0.52,0.72,0.88,0.97c0.36,0.25,0.76,0.45,1.21,0.58
			c0.44,0.13,0.89,0.2,1.35,0.2c1.15,0,2.1-0.17,2.84-0.5c0.74-0.34,1.34-0.77,1.78-1.32c0.44-0.54,0.75-1.15,0.92-1.84
			c0.17-0.68,0.25-1.37,0.25-2.07v-1.11H259.29z"/>
		<path d="M269.37,335.07c0-0.31-0.01-0.69-0.04-1.13c-0.02-0.44-0.04-0.89-0.05-1.35c-0.01-0.46-0.03-0.88-0.05-1.28
			c-0.02-0.4-0.04-0.7-0.04-0.92h2.16c0.02,0.62,0.04,1.22,0.05,1.8c0.01,0.58,0.04,0.95,0.09,1.12h0.11
			c0.43-0.91,1.15-1.7,2.16-2.36c1.01-0.66,2.18-0.99,3.53-0.99c1.1,0,2.11,0.28,3.02,0.85c0.91,0.56,1.57,1.48,1.98,2.75
			c0.53-1.25,1.31-2.16,2.36-2.74c1.04-0.58,2.14-0.86,3.29-0.86c1.3,0,2.35,0.2,3.17,0.61c0.82,0.41,1.46,0.94,1.93,1.6
			c0.47,0.66,0.79,1.42,0.97,2.29c0.18,0.86,0.27,1.75,0.27,2.66v9.9h-2.16v-9.79c0-0.67-0.06-1.33-0.18-1.96
			c-0.12-0.64-0.33-1.21-0.63-1.71s-0.72-0.9-1.26-1.21c-0.54-0.3-1.24-0.45-2.11-0.45c-1.01,0-1.84,0.19-2.48,0.56
			c-0.65,0.37-1.16,0.84-1.53,1.42c-0.37,0.57-0.64,1.2-0.79,1.87c-0.16,0.67-0.23,1.31-0.23,1.91v9.36h-2.16v-10.01
			c0-1.54-0.28-2.77-0.85-3.71c-0.56-0.94-1.43-1.4-2.61-1.4c-0.79,0-1.54,0.14-2.25,0.41c-0.71,0.28-1.32,0.7-1.84,1.26
			c-0.52,0.56-0.92,1.27-1.22,2.12c-0.3,0.85-0.45,1.85-0.45,3.01v8.32h-2.16V335.07z"/>
		<path d="M312.96,340.04c0,0.82,0.01,1.55,0.02,2.2c0.01,0.65,0.03,1.25,0.05,1.8c0.02,0.55,0.05,1.07,0.09,1.55
			c0.04,0.48,0.09,0.96,0.16,1.44h-2.02c-0.14-0.82-0.22-1.72-0.22-2.7h-0.07c-0.62,1.08-1.4,1.87-2.32,2.38
			c-0.92,0.5-2.1,0.76-3.51,0.76c-0.72,0-1.43-0.09-2.12-0.27c-0.7-0.18-1.32-0.47-1.87-0.86c-0.55-0.39-1-0.9-1.35-1.53
			c-0.35-0.62-0.52-1.38-0.52-2.27c0-1.27,0.32-2.28,0.97-3.02c0.65-0.74,1.45-1.3,2.39-1.67c0.95-0.37,1.95-0.61,3.02-0.72
			c1.07-0.11,2.01-0.16,2.83-0.16h2.52v-1.01c0-1.44-0.44-2.47-1.33-3.1s-2-0.94-3.35-0.94c-1.92,0-3.61,0.62-5.08,1.87L300,332.3
			c0.79-0.77,1.78-1.35,2.95-1.75c1.17-0.4,2.3-0.6,3.38-0.6c2.02,0,3.62,0.48,4.83,1.42c1.2,0.95,1.8,2.48,1.8,4.59V340.04z
			 M308.64,338.67c-0.91,0-1.79,0.06-2.65,0.18c-0.85,0.12-1.62,0.32-2.3,0.61c-0.68,0.29-1.23,0.67-1.64,1.15
			c-0.41,0.48-0.61,1.08-0.61,1.8c0,0.51,0.11,0.95,0.34,1.35c0.23,0.4,0.52,0.72,0.88,0.97c0.36,0.25,0.76,0.45,1.21,0.58
			c0.44,0.13,0.89,0.2,1.35,0.2c1.15,0,2.1-0.17,2.85-0.5c0.74-0.34,1.34-0.77,1.78-1.32c0.44-0.54,0.75-1.15,0.92-1.84
			c0.17-0.68,0.25-1.37,0.25-2.07v-1.11H308.64z"/>
		<path d="M333.27,344.1h-0.07c-0.34,0.58-0.76,1.07-1.26,1.49c-0.5,0.42-1.05,0.77-1.64,1.04c-0.59,0.28-1.21,0.48-1.85,0.61
			c-0.65,0.13-1.28,0.2-1.91,0.2c-1.27,0-2.45-0.22-3.53-0.65c-1.08-0.43-2-1.04-2.77-1.82c-0.77-0.78-1.37-1.7-1.8-2.77
			c-0.43-1.07-0.65-2.24-0.65-3.51c0-1.27,0.22-2.44,0.65-3.51c0.43-1.07,1.03-1.99,1.8-2.77c0.77-0.78,1.69-1.39,2.77-1.82
			c1.08-0.43,2.26-0.65,3.53-0.65c0.62,0,1.26,0.07,1.91,0.2c0.65,0.13,1.27,0.34,1.85,0.61c0.59,0.28,1.13,0.62,1.64,1.04
			c0.51,0.42,0.92,0.92,1.26,1.5h0.07v-13.5h2.16v27.21h-2.16V344.1z M333.49,338.7c0-0.94-0.18-1.82-0.54-2.65
			c-0.36-0.83-0.85-1.55-1.48-2.16c-0.62-0.61-1.36-1.1-2.19-1.46c-0.84-0.36-1.75-0.54-2.74-0.54c-1.01,0-1.92,0.18-2.74,0.54
			c-0.82,0.36-1.51,0.85-2.09,1.46c-0.58,0.61-1.01,1.33-1.31,2.16c-0.3,0.83-0.45,1.71-0.45,2.65c0,0.94,0.15,1.82,0.45,2.65
			c0.3,0.83,0.74,1.55,1.31,2.16c0.58,0.61,1.27,1.1,2.09,1.46c0.82,0.36,1.73,0.54,2.74,0.54c0.98,0,1.9-0.18,2.74-0.54
			c0.84-0.36,1.57-0.85,2.19-1.46c0.62-0.61,1.12-1.33,1.48-2.16C333.3,340.52,333.49,339.64,333.49,338.7"/>
		<path d="M339.78,338.7c0-1.27,0.22-2.44,0.65-3.51c0.43-1.07,1.03-1.99,1.8-2.77c0.77-0.78,1.69-1.39,2.77-1.82
			c1.08-0.43,2.25-0.65,3.53-0.65c1.27,0,2.44,0.22,3.51,0.65c1.07,0.43,1.99,1.04,2.77,1.82c0.78,0.78,1.39,1.7,1.82,2.77
			c0.43,1.07,0.65,2.24,0.65,3.51c0,1.27-0.22,2.44-0.65,3.51c-0.43,1.07-1.04,1.99-1.82,2.77c-0.78,0.78-1.7,1.39-2.77,1.82
			c-1.07,0.43-2.24,0.65-3.51,0.65c-1.27,0-2.45-0.22-3.53-0.65c-1.08-0.43-2-1.04-2.77-1.82c-0.77-0.78-1.37-1.7-1.8-2.77
			C340,341.15,339.78,339.98,339.78,338.7 M341.94,338.7c0,0.94,0.15,1.82,0.45,2.65c0.3,0.83,0.74,1.55,1.32,2.16
			c0.58,0.61,1.27,1.1,2.09,1.46c0.82,0.36,1.73,0.54,2.73,0.54c1.01,0,1.92-0.18,2.74-0.54c0.82-0.36,1.51-0.85,2.09-1.46
			c0.58-0.61,1.01-1.33,1.32-2.16c0.3-0.83,0.45-1.71,0.45-2.65c0-0.94-0.15-1.82-0.45-2.65c-0.3-0.83-0.74-1.55-1.32-2.16
			c-0.58-0.61-1.27-1.1-2.09-1.46c-0.82-0.36-1.73-0.54-2.74-0.54c-1.01,0-1.92,0.18-2.73,0.54c-0.82,0.36-1.51,0.85-2.09,1.46
			c-0.58,0.61-1.01,1.33-1.32,2.16C342.09,336.89,341.94,337.77,341.94,338.7"/>
		<path d="M384.39,340.04c0,0.82,0.01,1.55,0.02,2.2c0.01,0.65,0.03,1.25,0.05,1.8c0.02,0.55,0.05,1.07,0.09,1.55
			c0.04,0.48,0.09,0.96,0.16,1.44h-2.02c-0.15-0.82-0.22-1.72-0.22-2.7h-0.07c-0.62,1.08-1.4,1.87-2.32,2.38
			c-0.92,0.5-2.09,0.76-3.51,0.76c-0.72,0-1.43-0.09-2.12-0.27c-0.7-0.18-1.32-0.47-1.87-0.86c-0.55-0.39-1-0.9-1.35-1.53
			c-0.35-0.62-0.52-1.38-0.52-2.27c0-1.27,0.32-2.28,0.97-3.02c0.65-0.74,1.45-1.3,2.39-1.67c0.95-0.37,1.96-0.61,3.02-0.72
			c1.07-0.11,2.01-0.16,2.82-0.16h2.52v-1.01c0-1.44-0.44-2.47-1.33-3.1c-0.89-0.62-2-0.94-3.35-0.94c-1.92,0-3.61,0.62-5.08,1.87
			l-1.26-1.48c0.79-0.77,1.78-1.35,2.95-1.75c1.18-0.4,2.3-0.6,3.38-0.6c2.02,0,3.62,0.48,4.82,1.42c1.2,0.95,1.8,2.48,1.8,4.59
			V340.04z M380.07,338.67c-0.91,0-1.8,0.06-2.65,0.18c-0.85,0.12-1.62,0.32-2.3,0.61c-0.68,0.29-1.23,0.67-1.64,1.15
			c-0.41,0.48-0.61,1.08-0.61,1.8c0,0.51,0.11,0.95,0.34,1.35c0.23,0.4,0.52,0.72,0.88,0.97c0.36,0.25,0.76,0.45,1.21,0.58
			c0.45,0.13,0.9,0.2,1.35,0.2c1.15,0,2.1-0.17,2.84-0.5c0.74-0.34,1.34-0.77,1.78-1.32c0.44-0.54,0.75-1.15,0.92-1.84
			c0.17-0.68,0.25-1.37,0.25-2.07v-1.11H380.07z"/>
		<path d="M400.8,342.3c0.62,1.08,1.43,1.88,2.43,2.41c1,0.53,2.13,0.79,3.4,0.79c0.79,0,1.54-0.12,2.23-0.36
			c0.7-0.24,1.3-0.58,1.82-1.01c0.51-0.43,0.92-0.95,1.22-1.57s0.45-1.3,0.45-2.07c0-0.89-0.19-1.62-0.56-2.2
			c-0.37-0.58-0.87-1.05-1.49-1.42c-0.62-0.37-1.33-0.69-2.11-0.95c-0.78-0.26-1.58-0.53-2.41-0.79c-0.83-0.26-1.63-0.56-2.41-0.9
			s-1.48-0.77-2.11-1.31c-0.62-0.54-1.12-1.22-1.49-2.03c-0.37-0.82-0.56-1.82-0.56-3.03c0-1.13,0.22-2.13,0.67-3
			c0.44-0.88,1.04-1.61,1.8-2.2c0.76-0.59,1.63-1.03,2.61-1.33c0.98-0.3,2.02-0.45,3.1-0.45c1.39,0,2.68,0.25,3.87,0.74
			c1.19,0.49,2.21,1.32,3.08,2.47l-2.05,1.48c-0.6-0.84-1.3-1.47-2.11-1.89c-0.8-0.42-1.76-0.63-2.86-0.63c-0.77,0-1.5,0.1-2.2,0.31
			c-0.7,0.2-1.3,0.5-1.82,0.9c-0.52,0.4-0.93,0.89-1.24,1.49c-0.31,0.6-0.47,1.31-0.47,2.12c0,1.27,0.32,2.25,0.97,2.93
			c0.65,0.68,1.46,1.22,2.43,1.62c0.97,0.4,2.03,0.74,3.17,1.04c1.14,0.3,2.2,0.7,3.17,1.21c0.97,0.5,1.78,1.21,2.43,2.11
			c0.65,0.9,0.97,2.14,0.97,3.73c0,1.15-0.22,2.17-0.65,3.06c-0.43,0.89-1.01,1.64-1.75,2.25c-0.73,0.61-1.58,1.07-2.54,1.39
			c-0.96,0.31-1.96,0.47-2.99,0.47c-1.68,0-3.23-0.3-4.64-0.88c-1.42-0.59-2.63-1.58-3.64-2.97L400.8,342.3z"/>
		<path d="M434.21,343.89c-0.84,1.27-1.88,2.18-3.11,2.73c-1.24,0.55-2.6,0.83-4.09,0.83c-1.27,0-2.42-0.21-3.46-0.65
			c-1.03-0.43-1.92-1.04-2.66-1.82c-0.74-0.78-1.31-1.7-1.71-2.77c-0.4-1.07-0.59-2.25-0.59-3.55c0-1.25,0.2-2.4,0.61-3.46
			c0.41-1.06,0.98-1.97,1.73-2.75c0.74-0.78,1.62-1.39,2.63-1.84c1.01-0.44,2.12-0.67,3.35-0.67c1.27,0,2.39,0.22,3.37,0.67
			c0.97,0.44,1.79,1.03,2.45,1.76s1.16,1.57,1.49,2.5c0.34,0.93,0.5,1.88,0.5,2.84v1.51h-13.97c0,0.46,0.09,1.04,0.27,1.75
			c0.18,0.71,0.51,1.4,0.99,2.07c0.48,0.67,1.12,1.25,1.93,1.73c0.8,0.48,1.84,0.72,3.11,0.72c1.1,0,2.17-0.26,3.2-0.79
			c1.03-0.53,1.82-1.25,2.38-2.16L434.21,343.89z M432.56,337.3c0-0.74-0.15-1.44-0.45-2.09c-0.3-0.65-0.71-1.22-1.22-1.71
			c-0.52-0.49-1.13-0.88-1.84-1.17c-0.71-0.29-1.46-0.43-2.25-0.43c-1.18,0-2.15,0.24-2.93,0.72c-0.78,0.48-1.4,1.03-1.85,1.66
			c-0.46,0.62-0.78,1.23-0.97,1.82c-0.19,0.59-0.29,0.99-0.29,1.21H432.56z"/>
		<path d="M439.54,335.07c0-0.31-0.01-0.69-0.04-1.13c-0.02-0.44-0.04-0.89-0.05-1.35c-0.01-0.46-0.03-0.88-0.05-1.28
			c-0.02-0.4-0.04-0.7-0.04-0.92h2.16c0.03,0.62,0.04,1.22,0.06,1.8c0.01,0.58,0.04,0.95,0.09,1.12c0.55-0.98,1.26-1.79,2.12-2.41
			c0.86-0.62,1.92-0.94,3.17-0.94c0.22,0,0.43,0.02,0.63,0.05c0.2,0.04,0.41,0.08,0.63,0.13l-0.25,2.12
			c-0.29-0.09-0.57-0.14-0.83-0.14c-0.94,0-1.75,0.15-2.43,0.45c-0.68,0.3-1.25,0.71-1.69,1.24c-0.44,0.53-0.77,1.15-0.99,1.85
			c-0.21,0.71-0.32,1.47-0.32,2.29v9.07h-2.16V335.07z"/>
		<polygon points="449.19,330.39 451.64,330.39 457.18,344.68 462.58,330.39 464.78,330.39 458.22,347.02 455.99,347.02 		"/>
		<path d="M468.02,323.8c0-0.46,0.16-0.84,0.47-1.15c0.31-0.31,0.7-0.47,1.15-0.47s0.84,0.16,1.15,0.47
			c0.31,0.31,0.47,0.7,0.47,1.15c0,0.46-0.16,0.84-0.47,1.15s-0.7,0.47-1.15,0.47s-0.84-0.16-1.15-0.47
			C468.17,324.64,468.02,324.26,468.02,323.8 M468.56,330.39h2.16v16.63h-2.16V330.39z"/>
		<path d="M476.84,335.07c0-0.31-0.01-0.69-0.04-1.13c-0.03-0.44-0.04-0.89-0.05-1.35c-0.01-0.46-0.03-0.88-0.05-1.28
			c-0.02-0.4-0.04-0.7-0.04-0.92h2.16c0.03,0.62,0.04,1.22,0.06,1.8c0.01,0.58,0.04,0.95,0.09,1.12c0.55-0.98,1.26-1.79,2.12-2.41
			c0.86-0.62,1.92-0.94,3.17-0.94c0.22,0,0.43,0.02,0.63,0.05c0.2,0.04,0.41,0.08,0.63,0.13l-0.25,2.12
			c-0.29-0.09-0.57-0.14-0.83-0.14c-0.94,0-1.75,0.15-2.43,0.45c-0.68,0.3-1.25,0.71-1.69,1.24c-0.45,0.53-0.77,1.15-0.99,1.85
			c-0.22,0.71-0.32,1.47-0.32,2.29v9.07h-2.16V335.07z"/>
	</g>
</g>
</svg>
