<?xml version="1.0" encoding="utf-8"?>
<!-- Generator: Adobe Illustrator 25.0.0, SVG Export Plug-In . SVG Version: 6.00 Build 0)  -->
<svg version="1.1" id="Layer_1" xmlns="http://www.w3.org/2000/svg" xmlns:xlink="http://www.w3.org/1999/xlink" x="0px" y="0px"
	 viewBox="0 0 326.98 443.48" style="enable-background:new 0 0 326.98 443.48;" xml:space="preserve">
<style type="text/css">
	.st0{stroke:#5A4B42;}
</style>
<g>
	<g>
		<path d="M311.63,281.36l-14.6-10.28c0,0-7.72-6.2,2.2-1.49c9.76,4.64,11.99,6.27,11.99,6.27s2.33,1.53,3.7-0.1
			c1.37-1.64-1.94-3.16-7.83-7.25c-5.85-4.06-22.46-16.68-32.12-19.58c-3.5-16.15,3.75-33.35,3.75-33.35
			c22.76-47.39,10.45-93.65,1.86-117.16c-8.58-23.51,2.99-44.4,2.99-44.4h-20.52c0,0-11.57,20.89-2.98,44.4
			c8.58,23.51,20.89,69.77-1.87,117.16c0,0-4.13,9.81-4.65,21.57c-0.26,6.02,0.58,11.8,2.09,18.82l0.02,0.08l0.47,2.12l9.68,43.9
			c0,0,6.59,0.1,5.44-9.49c-1.16-9.58-1.94-12.47,4.47-8.5c6.41,3.97,23.27,16.55,23.27,16.55s2.8,2.63,4.69,0.87
			c1.89-1.76-2.9-5.34-2.9-5.34l-13.85-11.19c0,0-3.91-3.83,1.5-0.8c5.41,3.02,18.27,12.05,18.27,12.05s4.11,3.06,5.93,0.56
			c1.82-2.51-1.04-4.9-5.99-7.79c-4.95-2.89-15.32-10.5-15.32-10.5s-5.68-4.96,1.7-1.31c7.7,3.81,17.59,10.54,17.59,10.54
			s4.02,2.67,5.61,0.11C317.81,285.27,311.63,281.36,311.63,281.36z"/>
		<g>
			<path d="M255.47,49.86l10.51,17.49l43.45-18.24c0,0-1.09-6.5-10.31-3.65c-9.22,2.86-11.92,4.15-9.16-2.87
				c2.76-7.02,12.1-25.86,12.1-25.86s2.08-3.23,0.01-4.77c-2.07-1.54-4.74,3.81-4.74,3.81l-8.52,15.63c0,0-3.07,4.53-1.06-1.33
				c2-5.87,8.57-20.14,8.57-20.14s2.28-4.6-0.52-5.94c-2.79-1.34-4.64,1.91-6.59,7.29c-1.95,5.39-7.58,16.95-7.58,16.95
				s-3.86,6.47-1.6-1.44c2.37-8.26,7.22-19.2,7.22-19.2s1.91-4.44-0.9-5.54c-2.81-1.1-5.55,5.68-5.55,5.68l-7.49,16.2
				c0,0-4.71,8.7-1.86-1.9c2.82-10.44,4.02-12.92,4.02-12.92s1.09-2.57-0.76-3.62c-1.85-1.05-2.76,2.48-5.73,9.01
				C266.03,21.05,256.47,39.89,255.47,49.86z"/>
			<path d="M266.29,46.5c-17.91,9.33-41.79-0.75-41.79-0.75C177.12,23,130.85,35.31,107.34,43.89c-23.51,8.58-44.4-2.98-44.4-2.98
				v20.52c0,0,20.89,11.57,44.4,2.99c23.51-8.58,69.77-20.89,117.16,1.86c0,0,23.88,10.07,41.79,0.75"/>
		</g>
		<path d="M58.42,57.36l17.49-10.51L57.67,3.4c0,0-6.5,1.09-3.64,10.31c2.86,9.22,4.15,11.92-2.87,9.16
			c-7.02-2.76-25.86-12.1-25.86-12.1s-3.23-2.08-4.77-0.01c-1.54,2.07,3.81,4.74,3.81,4.74l15.63,8.52c0,0,4.53,3.06-1.33,1.06
			c-5.87-2-20.14-8.57-20.14-8.57s-4.59-2.28-5.94,0.52c-1.34,2.79,1.91,4.64,7.29,6.59c5.39,1.96,16.95,7.58,16.95,7.58
			s6.47,3.86-1.44,1.6c-8.26-2.37-19.2-7.22-19.2-7.22s-4.43-1.9-5.54,0.9c-1.1,2.81,5.68,5.55,5.68,5.55l16.21,7.49
			c0,0,8.7,4.71-1.9,1.86c-10.44-2.81-12.92-4.02-12.92-4.02s-2.57-1.09-3.62,0.76c-1.05,1.85,2.48,2.76,9.01,5.73
			C29.61,46.8,48.45,56.36,58.42,57.36z"/>
		<path d="M55.06,46.54c9.33,17.91-0.74,41.79-0.74,41.79c-22.76,47.38-10.45,93.65-1.87,117.16c8.58,23.51-2.98,44.4-2.98,44.4
			h20.52c0,0,11.57-20.89,2.99-44.4c-8.58-23.51-20.89-69.77,1.87-117.16c0,0,10.07-23.88,0.75-41.79"/>
		<path d="M77.55,254.06l-10.51-17.49l-43.45,18.24c0,0,1.09,6.5,10.31,3.65c9.22-2.86,11.92-4.15,9.16,2.87
			c-2.76,7.01-12.1,25.86-12.1,25.86s-2.08,3.23-0.01,4.77c2.07,1.54,4.74-3.81,4.74-3.81l8.52-15.63c0,0,3.06-4.53,1.06,1.33
			c-2,5.86-8.57,20.14-8.57,20.14s-2.28,4.6,0.52,5.94c2.79,1.34,4.63-1.91,6.59-7.29c1.95-5.39,7.58-16.95,7.58-16.95
			s3.86-6.47,1.6,1.44c-2.37,8.26-7.22,19.19-7.22,19.19s-1.91,4.44,0.9,5.54c2.81,1.1,5.55-5.68,5.55-5.68l7.49-16.21
			c0,0,4.71-8.7,1.86,1.9c-2.81,10.44-4.02,12.92-4.02,12.92s-1.09,2.57,0.76,3.62c1.86,1.05,2.76-2.48,5.73-9.01
			C66.99,282.88,76.55,264.04,77.55,254.06z"/>
		<path d="M256.62,255.7c-2.67-5.99-3.35-12.51-3.09-18.53c-7.76-1.31-17.56-1.42-27.86,2.34c-23.51,8.58-69.77,20.89-117.16-1.87
			c0,0-23.88-10.07-41.79-0.75v20.52c17.91-9.33,41.79,0.75,41.79,0.75c47.39,22.76,93.65,10.45,117.16,1.86
			c11.48-4.19,22.33-3.57,30.43-1.85l-0.47-2.12L256.62,255.7z"/>
	</g>
	<g>
		<g>
			<path d="M23.99,385.75h23.19v2.75H36.96v43.54h-2.75v-43.54H23.99V385.75z"/>
			<path d="M60.38,388.51c-2.61,0-4.84,0.94-6.7,2.82c-1.86,1.88-2.79,4.13-2.79,6.74v33.98h-2.76v-33.98c0-3.38,1.2-6.28,3.59-8.69
				c2.39-2.41,5.28-3.62,8.66-3.62h8.19c3.38,0,6.28,1.2,8.69,3.59c2.41,2.39,3.62,5.28,3.62,8.66c0,2.32-0.56,4.49-1.67,6.52
				c-1.26,2.32-2.92,3.79-5,4.42c1.11,0.43,2.47,1.55,4.06,3.33c1.74,1.93,2.61,4.44,2.61,7.53v12.24h-2.75v-12.24
				c0-2.51-0.95-4.72-2.86-6.63c-1.91-1.91-4.14-2.86-6.7-2.86H53.64v-2.75h14.92c2.56,0,4.79-0.95,6.7-2.86
				c1.91-1.91,2.86-4.14,2.86-6.7c0-2.51-0.95-4.72-2.86-6.63c-1.91-1.91-4.14-2.86-6.7-2.86H60.38z"/>
			<path d="M83.93,402.15c0-4.55,1.59-8.42,4.78-11.61c3.19-3.19,7.05-4.79,11.59-4.79c4.49,0,8.34,1.61,11.56,4.82
				c3.21,3.21,4.82,7.06,4.82,11.56v29.99h-2.75v-19.05H89.43v-2.76h24.49v-8.19c0-3.72-1.34-6.92-4.02-9.6
				c-2.68-2.68-5.88-4.02-9.6-4.02c-3.77,0-6.98,1.33-9.64,3.99c-2.66,2.66-3.98,5.88-3.98,9.65v29.97h-2.75V402.15z"/>
			<path d="M119.79,402.13c0-4.54,1.59-8.41,4.78-11.59c3.19-3.19,7.05-4.78,11.59-4.78c4.49,0,8.34,1.61,11.56,4.82
				c3.21,3.21,4.82,7.06,4.82,11.56v29.92h-2.75v-29.92c0-3.72-1.34-6.92-4.02-9.6c-2.68-2.68-5.88-4.02-9.6-4.02
				c-3.77,0-6.98,1.33-9.64,3.98c-2.66,2.66-3.98,5.87-3.98,9.64v29.92h-2.75V402.13z"/>
			<path d="M197.09,425.17c-4.35,4.83-9.47,7.19-15.36,7.1v5.58h11.16v3.7h-13.84v-11.96h2.67c5.2,0,9.68-2.1,13.43-6.3
				c3.71-4.06,5.56-8.72,5.56-13.98c0-5.6-1.99-10.41-5.98-14.42c-3.98-4.01-8.78-6.01-14.38-6.01c-5.65,0-10.47,1.99-14.46,5.98
				c-3.98,3.99-5.95,8.8-5.9,14.46c0.05,4.73,1.62,9.05,4.71,12.97c3.09,3.91,6.96,6.26,11.59,7.03v2.75
				c-5.41-0.72-9.95-3.35-13.62-7.9c-3.57-4.4-5.39-9.35-5.43-14.85c-0.05-6.23,2.21-11.65,6.77-16.27
				c4.56-4.61,10.01-6.92,16.34-6.92c6.33,0,11.76,2.28,16.3,6.85c4.54,4.56,6.81,10.01,6.81,16.34
				C203.47,415.24,201.34,420.53,197.09,425.17z"/>
			<path d="M206.58,415.67v-29.92h2.75v29.92c0,3.77,1.33,6.98,3.98,9.64c2.66,2.66,5.87,3.98,9.64,3.98c3.72,0,6.92-1.34,9.6-4.02
				c2.68-2.68,4.02-5.88,4.02-9.6v-29.92h2.75v29.92c0,4.49-1.61,8.35-4.82,11.56c-3.21,3.21-7.06,4.82-11.56,4.82
				c-4.54,0-8.41-1.59-11.59-4.78C208.18,424.08,206.58,420.22,206.58,415.67z"/>
			<path d="M242.16,432.05v-46.22h2.75v46.22H242.16z"/>
			<path d="M274.11,432.05h-7.46c-4.49,0-8.34-1.61-11.56-4.82c-3.21-3.21-4.82-7.06-4.82-11.56v-29.92h2.75v29.92
				c0,3.72,1.34,6.92,4.02,9.6c2.68,2.68,5.88,4.02,9.6,4.02h7.46V432.05z"/>
			<path d="M274.29,425.27c-4.52-4.51-6.77-9.96-6.77-16.34c0-6.33,2.28-11.77,6.85-16.34c4.56-4.57,9.98-6.85,16.26-6.85
				c6.33,0,11.76,2.28,16.3,6.85c4.54,4.56,6.81,10.01,6.81,16.34c0,6.37-2.26,11.82-6.77,16.34c-4.52,4.52-9.96,6.77-16.34,6.77
				C284.25,432.05,278.8,429.79,274.29,425.27z M276.21,394.48c-3.96,3.98-5.94,8.8-5.94,14.45c0,5.65,1.98,10.46,5.94,14.42
				c3.96,3.96,8.77,5.94,14.42,5.94c5.6,0,10.4-1.99,14.38-5.98c3.99-3.98,5.98-8.78,5.98-14.38c0-5.6-1.99-10.41-5.98-14.42
				c-3.98-4.01-8.78-6.01-14.38-6.01C284.98,388.51,280.17,390.5,276.21,394.48z"/>
		</g>
	</g>
	<g>
		<path class="st0" d="M42.91,368.87c5.6,0,10.41-1.99,14.42-5.98c4.01-3.99,6.01-8.78,6.01-14.38c0-5.65-1.99-10.47-5.98-14.45
			c-3.99-3.98-8.8-5.98-14.46-5.98H30.66v43.54h-2.75v-46.3h15c6.33,0,11.77,2.28,16.34,6.85c4.57,4.57,6.85,10.01,6.85,16.34
			c0,6.33-2.28,11.76-6.85,16.3c-4.56,4.54-10.01,6.81-16.34,6.81h-9.49v-2.75H42.91z"/>
		<path class="st0" d="M75.12,355.25v-29.92h2.75v29.92c0,3.77,1.33,6.98,3.99,9.64c2.66,2.66,5.87,3.99,9.64,3.99
			c3.72,0,6.92-1.34,9.6-4.02c2.68-2.68,4.02-5.88,4.02-9.6v-29.92h2.75v29.92c0,4.49-1.61,8.34-4.82,11.56
			c-3.21,3.21-7.06,4.82-11.56,4.82c-4.54,0-8.4-1.6-11.59-4.78C76.72,363.65,75.12,359.79,75.12,355.25z"/>
		<path class="st0" d="M119.97,348.51c0-6.38,2.27-11.83,6.81-16.37c4.54-4.54,10-6.81,16.37-6.81h9.49v2.75h-9.49
			c-5.22,0-9.88,1.86-13.98,5.58c-4.3,3.82-6.45,8.31-6.45,13.48h29.92v2.75h-29.92c0,5.17,2.1,9.63,6.3,13.37
			c4.2,3.74,8.91,5.62,14.13,5.62h9.49v2.75h-9.49c-6.38,0-11.83-2.26-16.37-6.77C122.24,360.33,119.97,354.88,119.97,348.51z"/>
		<path class="st0" d="M175.9,328.08c-2.61,0-4.84,0.94-6.7,2.83c-1.86,1.88-2.79,4.13-2.79,6.74v33.98h-2.75v-33.98
			c0-3.38,1.2-6.28,3.59-8.69c2.39-2.41,5.28-3.62,8.66-3.62h8.19c3.38,0,6.28,1.2,8.69,3.59c2.42,2.39,3.62,5.28,3.62,8.66
			c0,2.32-0.56,4.49-1.67,6.52c-1.26,2.32-2.92,3.79-5,4.42c1.11,0.43,2.46,1.55,4.06,3.33c1.74,1.93,2.61,4.44,2.61,7.54v12.24
			h-2.75v-12.24c0-2.51-0.95-4.72-2.86-6.63c-1.91-1.91-4.14-2.86-6.7-2.86h-14.93v-2.75h14.93c2.56,0,4.79-0.95,6.7-2.86
			c1.91-1.91,2.86-4.14,2.86-6.7c0-2.51-0.95-4.72-2.86-6.63c-1.91-1.91-4.14-2.86-6.7-2.86H175.9z"/>
		<path class="st0" d="M239.44,371.62h-2.75v-29.85c0-3.77-1.4-7.03-4.2-9.78c-2.66-2.61-5.8-3.91-9.42-3.91
			c-3.77,0-6.98,1.33-9.64,3.99c-2.66,2.66-3.98,5.87-3.98,9.64v29.92h-2.75V341.7c0-4.49,1.61-8.37,4.82-11.63
			c3.21-3.26,7.04-4.84,11.48-4.75c4.25,0.05,7.64,1.23,10.18,3.55c2.53,2.32,4.14,4.4,4.82,6.23c1.11-2.9,3.09-5.24,5.94-7.03
			c2.85-1.79,5.87-2.7,9.06-2.75c4.44-0.1,8.27,1.49,11.48,4.75c3.21,3.26,4.82,7.14,4.82,11.63v29.92h-2.75V341.7
			c0-3.72-1.33-6.92-3.99-9.6s-5.84-4.02-9.56-4.02c-3.62,0-6.79,1.3-9.49,3.91c-2.71,2.61-4.06,5.87-4.06,9.78V371.62z"/>
		<path class="st0" d="M277.33,348.51c0-6.38,2.27-11.83,6.81-16.37c4.54-4.54,10-6.81,16.37-6.81h9.49v2.75h-9.49
			c-5.22,0-9.88,1.86-13.98,5.58c-4.3,3.82-6.45,8.31-6.45,13.48h29.92v2.75h-29.92c0,5.17,2.1,9.63,6.3,13.37
			c4.2,3.74,8.91,5.62,14.13,5.62h9.49v2.75h-9.49c-6.38,0-11.83-2.26-16.37-6.77C279.6,360.33,277.33,354.88,277.33,348.51z"/>
	</g>
</g>
</svg>
