<?xml version="1.0" encoding="utf-8"?>
<!-- Generator: Adobe Illustrator 25.0.0, SVG Export Plug-In . SVG Version: 6.00 Build 0)  -->
<svg version="1.1" id="Capa_1" xmlns="http://www.w3.org/2000/svg" xmlns:xlink="http://www.w3.org/1999/xlink" x="0px" y="0px"
	 viewBox="0 0 2350.74 948" style="enable-background:new 0 0 2350.74 948;" xml:space="preserve">
<style type="text/css">
	.st0{clip-path:url(#SVGID_2_);}
</style>
<g>
	<g>
		<path d="M618.37,954.46c-32.74-3.8-53.69-18.83-69.24-49.68c-21.01-41.67-11.36-95.4,22.86-127.29
			c9.74-9.07,21.21-15.05,36.21-18.86c6.41-1.63,10.4-1.97,23.21-1.98c13.4-0.02,16.51,0.25,23.21,2.1
			c20.61,5.63,35.76,16.68,48.26,35.21c20.78,30.79,26.03,65.84,14.81,98.71c-5.37,15.72-15.05,31.17-25.96,41.44
			C674.66,950.17,647.15,957.8,618.37,954.46L618.37,954.46z M639.7,905.89c6.4-1.9,11.5-6.63,15.26-14.15
			c5.17-10.34,6.48-17.88,6.48-37.29c0-19.97-1.42-26.21-8.02-35.16c-7.27-9.86-14.62-13.66-24.8-12.85
			c-12,0.96-21.99,10.61-26.28,25.38c-3.82,13.16-3.42,38.04,0.83,51.5C609.08,902.03,623.24,910.78,639.7,905.89L639.7,905.89z
			 M1670.72,951.41c-29.02-5.27-49.26-20-60.97-44.36c-6.88-14.31-9.52-28.21-9.52-50.1c0-48.51,14.57-76.43,48.3-92.56
			c11.71-5.6,20.02-7.46,35.43-7.96c21.66-0.71,40.19,3.17,52.2,10.92c7.87,5.09,19.18,16.29,24.33,24.11
			c5.66,8.59,9.68,19.12,12.02,31.48c1.85,9.77,1.85,9.93,0.12,11.19c-0.97,0.71-2.57,1.07-3.57,0.8c-1-0.25-12.58-0.5-25.73-0.5
			l-23.91-0.02l-1.02-2.5c-6.28-15.41-11-21.88-18.51-25.39c-6.02-2.81-16.17-2.99-21.31-0.35c-7.45,3.8-13.89,14.26-18.05,29.34
			c-2.3,8.34-2.2,31.64,0.17,39.87c5.92,20.48,14.92,29.59,29.18,29.5c13.82-0.1,23.59-8.35,27.38-23.15
			c0.83-3.24,1.97-6.2,2.54-6.56c0.57-0.35,13.42-0.68,28.56-0.68c25.59-0.01,27.54,0.1,27.62,1.58c0.41,7.38-2.12,18.58-6.28,27.74
			c-8.16,18-26.1,35.36-44.21,42.79c-11.04,4.53-20.3,6.12-35.15,6.05C1683.07,952.6,1674.25,952.04,1670.72,951.41L1670.72,951.41z
			 M234.32,948.01c-1.58-1.59-1.58-183.72,0-185.3c1.56-1.57,56.32-1.57,57.88,0c1.59,1.58,1.59,183.72,0,185.3
			c-0.8,0.8-8.49,1.09-28.94,1.09C242.82,949.1,235.13,948.79,234.32,948.01L234.32,948.01z M340.65,947.32
			c-1.5-2.81-1.25-182.2,0.25-184.27c1.06-1.45,4.72-1.54,51.17-1.22c47.75,0.36,50.37,0.46,57.51,2.32
			c15.53,4.08,25.96,10.66,35.21,22.21c19.3,24.11,21.13,52.97,4.91,77.81c-6.33,9.7-13.45,16.41-22.3,21.01
			c-12.14,6.32-19.07,7.59-44.88,8.27l-22.3,0.59l-0.46,27.3l-0.46,27.3l-28.85,0.25c-27.93,0.25-28.89,0.2-29.82-1.55
			L340.65,947.32z M434.99,842.1c6.78-4.95,8.65-16.18,4.16-25.03c-4.02-7.92-5.9-8.6-23.89-8.6h-15.02l-0.25,16.81
			c-0.14,9.25-0.03,17.37,0.23,18.07c0.39,1.02,3.47,1.2,16.34,0.94C430.84,843.99,432.68,843.78,434.99,842.1L434.99,842.1z
			 M779.97,948.55c-0.36-0.36-0.66-42.33-0.66-93.25c0-83.59,0.14-92.64,1.44-93.14c2.56-0.99,71.47-0.59,80.02,0.46
			c27.24,3.34,48.21,14.53,66.25,35.35c5.64,6.51,11.92,19.35,14.26,29.17c7.17,30.03,2.61,68.02-10.56,88
			c-9.23,14-26.63,25.37-47.46,31.02l-8.83,2.4l-46.89,0.31c-25.79,0.2-47.19,0.03-47.55-0.35V948.55z M854.06,902.28
			c11.64-2.47,20.67-8.65,24.99-17.1c6.65-12.99,7.7-42.66,2.04-57.77c-4.5-12.02-17.15-18.68-35.8-18.85l-8.19-0.05l-0.24,46.31
			c-0.17,33.44,0.05,46.66,0.79,47.56c1.34,1.61,8.6,1.58,16.4-0.05V902.28z M1002.47,948c-1.59-1.59-1.59-181.9,0-183.48
			c1.29-1.29,136.88-1.59,138.89-0.3c0.94,0.59,1.18,5.45,1.11,22.41c-0.04,11.91-0.3,22.01-0.57,22.44
			c-0.26,0.41-18.49,0.78-40.5,0.78h-40.02l0.25,11.15l0.26,11.15l33.67,0.46l33.68,0.46v44.6l-33.68,0.46l-33.67,0.46l-0.51,24.12
			h41.37c36.4,0,41.54,0.15,42.8,1.43c1.21,1.22,1.43,4.47,1.43,21.45c0,12.06-0.38,20.72-0.94,21.78
			c-0.92,1.71-2.68,1.76-71.72,1.76c-53.84,0-71.04-0.25-71.87-1.09V948z M1199.96,948c-0.84-0.83-1.09-22.67-1.09-92.72
			c0-78.62,0.19-91.78,1.31-92.72c1-0.83,14.01-1,53.92-0.71c49.62,0.36,53.11,0.51,61.26,2.31c17.15,3.85,29.62,12.41,37.58,25.81
			c5.67,9.53,7.32,16.41,6.79,28.37c-0.35,8.06-0.96,11.58-2.94,16.99c-4.3,11.75-10.55,20.32-18.61,25.55l-2.2,1.43l5.43,3.81
			c5.5,3.86,11.32,10.54,12.97,14.9c2.54,6.67,3.92,17.88,4.54,36.56l0.64,19.91l3.38,2.71c3.55,2.85,4.41,6.01,2.13,7.9
			c-0.89,0.74-9.61,0.96-30.25,0.79l-29-0.25l-1.21-2.51c-0.77-1.6-1.65-10.59-2.43-24.79c-1.42-25.73-1.96-27.67-8.68-31.4
			c-3.91-2.17-4.79-2.27-19.11-2.27h-15.02l-0.24,29.5c-0.16,19.92-0.57,29.9-1.25,30.72c-1.39,1.68-56.27,1.79-57.94,0.1V948z
			 M1297,838.32c4.13-3.09,5.91-6.32,6.34-11.56c0.35-4.2,0.04-5.65-1.94-9.02c-3.91-6.66-6.33-7.36-26.76-7.74l-17.52-0.31v30.1
			l3.87,0.35c2.12,0.2,10.57,0.25,18.77,0.15c13.06-0.2,15.2-0.41,17.24-1.95V838.32z M1392.42,948.49c-0.33-0.35-0.61-1.23-0.61-2
			c0-2.52,59.45-181.65,60.83-183.28c1.23-1.46,3.84-1.6,30.29-1.6c21.99,0,29.2,0.25,30,1.14c0.58,0.62,14.67,42.3,31.31,92.6
			c21.12,63.84,29.98,91.81,29.36,92.6c-0.68,0.87-7.58,1.14-28.89,1.14c-21.3,0-28.21-0.25-28.91-1.14
			c-0.5-0.62-2.03-5.95-3.38-11.83l-2.47-10.69h-54.25l-2.59,10.63c-1.42,5.84-3.13,11.17-3.8,11.83c-0.94,0.94-7.12,1.2-28.74,1.2
			C1405.43,949.1,1392.76,948.84,1392.42,948.49L1392.42,948.49z M1497.39,884.07c0-1.62-13.9-51.18-14.53-51.81
			c-0.47-0.46-1.25,0.86-1.86,3.18c-0.58,2.19-3.68,13.55-6.89,25.23c-3.21,11.69-5.84,21.83-5.84,22.53c0,1.03,2.7,1.27,14.56,1.27
			C1490.84,884.48,1497.39,884.28,1497.39,884.07L1497.39,884.07z M1821.17,840.72c-1.47-0.86-1.59-3.5-1.59-34.83
			c0-25.16,0.28-34.19,1.09-35c0.82-0.82,11.57-1.09,42.78-1.09h41.68v-56.41l-477.36-0.51l-70.99-39.48
			c-39.04-21.71-107.03-59.44-151.08-83.84c-169.41-93.84-326.89-181.06-351.76-194.82c-14.27-7.89-51.47-28.49-82.68-45.77
			c-46.21-25.59-57.11-31.28-58.7-30.67c-1.08,0.41-17.53,7.51-36.55,15.77c-19.02,8.26-107.9,46.85-197.5,85.75
			c-151.43,65.75-187.34,81.34-259.39,112.6c-15.02,6.51-27.82,12.26-28.44,12.76c-0.9,0.72-1.14,21.54-1.14,98.55
			c0,88.18-0.14,97.68-1.44,98.18c-0.79,0.3-20.78,0.55-44.41,0.55c-32.21,0-43.25-0.25-44.07-1.09
			c-0.83-0.84-1.09-19.46-1.09-78.27c0-42.45-0.14-77.17-0.31-77.17c-0.17,0-21.5,8.6-47.41,19.11
			c-25.91,10.52-47.89,19.11-48.84,19.11c-1.68,0-1.74-1.29-1.74-42.75v-42.75l2.05-1.33c1.12-0.73,19.66-8.88,41.18-18.12
			c67.64-29.01,518.62-222.55,561.96-241.17l41.37-17.77l153.3-130C884.42,58.76,953.88,0.14,954.44,0
			c0.57-0.15,45.43,42.76,99.68,95.34l98.64,95.59h333.65l156.79-68.37c86.23-37.6,157.9-68.76,159.26-69.25
			c2.24-0.8,6.39,1.37,45.05,23.65c52.63,30.31,260.22,149.8,400.26,230.39c57.57,33.12,105.18,60.9,105.8,61.72
			c0.88,1.15,1.14,11.27,1.12,43.41c-0.01,23.06-0.37,42.48-0.81,43.17c-0.61,0.97-15.26-7.23-65.27-36.55
			c-35.46-20.79-64.79-37.61-65.18-37.38c-0.9,0.56-0.89,143.32,0.02,144.74c0.38,0.6,29.24,17.44,64.15,37.43
			c34.91,20,64.08,36.86,64.83,37.49c1.18,0.98,1.37,6.97,1.37,43.91v42.77l-2.17-0.41c-1.19-0.2-29.76-16.43-63.49-36
			c-33.73-19.57-62.03-35.86-62.9-36.19c-1.48-0.57-1.59,2.35-1.81,47.95l-0.23,48.56l-104.66,0.46
			c-57.57,0.25-104.77,0.57-104.89,0.69c-0.13,0.1-0.23,28.67-0.23,63.44c0,61.57-0.04,63.25-1.76,64.16
			c-2.43,1.29-188.28,1.26-190.5-0.04V840.72z M1889.95,629.87c0.23-0.36,0.71-46.96,1.07-103.53
			c0.65-99.76,0.61-102.89-1.04-104.34c-5.54-4.86-78.17-45.79-99.99-56.36c-57.02-27.6-88.6-32.6-125.09-19.78
			c-29.71,10.43-59.36,26.6-114.73,62.57c-11.27,7.32-23.17,15.03-26.46,17.14l-5.98,3.84l-49.99,0.02
			c-29.31,0.01-50.55,0.36-51.34,0.86c-1.14,0.73-1.06,1.16,0.56,2.95c5.98,6.62,50.39,60.12,50.39,60.71
			c0,1.33-3.14,3.38-37.77,24.7c-19.02,11.71-35.47,21.3-36.55,21.32c-1.38,0.02-22.84-19.66-71.43-65.5
			c-38.2-36.04-135.12-127.5-215.37-203.24c-80.25-75.74-146.43-137.59-147.07-137.43c-1.87,0.46-148.06,123.91-147.77,124.78
			c0.15,0.46,81.55,47.3,180.9,104.12c99.35,56.83,244.73,140.04,323.07,184.91l142.43,81.58l145.62,0.46
			c80.09,0.25,177.23,0.56,215.87,0.68C1857.93,630.43,1889.73,630.23,1889.95,629.87L1889.95,629.87z M2150.65,600.78l0.24-28.41
			l-2.06-1.29c-4.32-2.7-125.54-72.49-125.9-72.49c-0.22,0-0.39,29.49-0.39,65.53v65.53l63.93-0.25l63.94-0.25L2150.65,600.78z
			 M2150.41,399.38V342.5l-17.75-11.18c-9.76-6.15-24.3-15.2-32.31-20.13c-8.01-4.93-19.07-11.74-24.57-15.15
			c-121.04-74.78-231.73-134.88-275.76-149.71c-19.85-6.69-27.64-6.75-49.77-0.36c-47.02,13.54-148.21,61.3-266.21,125.66l-25.66,14
			h-92.89c-61.62,0-92.88,0.3-92.88,0.91c0,0.51,6.17,9.92,13.72,20.93l13.71,20.02h230.2l8.38-5.31
			c31.95-20.25,85.24-48.77,112.46-60.2c24-10.07,44.52-15.37,54.71-14.12c25.71,3.15,105.38,42.12,231.66,113.32
			c39.25,22.13,112.03,64.23,151.53,87.66l13.2,7.82l48.23-0.41L2150.41,399.38L2150.41,399.38z M2150.41,399.38"/>
	</g>
	<g>
		<defs>
			<path id="SVGID_1_" d="M662.31,125.25"/>
		</defs>
		<use xlink:href="#SVGID_1_"  style="overflow:visible;"/>
		<clipPath id="SVGID_2_">
			<use xlink:href="#SVGID_1_"  style="overflow:visible;"/>
		</clipPath>
		<path class="st0" d="M618.37,954.46c-32.74-3.8-53.69-18.83-69.24-49.68c-21.01-41.67-11.36-95.4,22.86-127.29
			c9.74-9.07,21.21-15.05,36.21-18.86c6.41-1.63,10.4-1.97,23.21-1.98c13.4-0.02,16.51,0.25,23.21,2.1
			c20.61,5.63,35.76,16.68,48.26,35.21c20.78,30.79,26.03,65.84,14.81,98.71c-5.37,15.72-15.05,31.17-25.96,41.44
			C674.66,950.17,647.15,957.8,618.37,954.46L618.37,954.46z M639.7,905.89c6.4-1.9,11.5-6.63,15.26-14.15
			c5.17-10.34,6.48-17.88,6.48-37.29c0-19.97-1.42-26.21-8.02-35.16c-7.27-9.86-14.62-13.66-24.8-12.85
			c-12,0.96-21.99,10.61-26.28,25.38c-3.82,13.16-3.42,38.04,0.83,51.5C609.08,902.03,623.24,910.78,639.7,905.89L639.7,905.89z
			 M1670.72,951.41c-29.02-5.27-49.26-20-60.97-44.36c-6.88-14.31-9.52-28.21-9.52-50.1c0-48.51,14.57-76.43,48.3-92.56
			c11.71-5.6,20.02-7.46,35.43-7.96c21.66-0.71,40.19,3.17,52.2,10.92c7.87,5.09,19.18,16.29,24.33,24.11
			c5.66,8.59,9.68,19.12,12.02,31.48c1.85,9.77,1.85,9.93,0.12,11.19c-0.97,0.71-2.57,1.07-3.57,0.8c-1-0.25-12.58-0.5-25.73-0.5
			l-23.91-0.02l-1.02-2.5c-6.28-15.41-11-21.88-18.51-25.39c-6.02-2.81-16.17-2.99-21.31-0.35c-7.45,3.8-13.89,14.26-18.05,29.34
			c-2.3,8.34-2.2,31.64,0.17,39.87c5.92,20.48,14.92,29.59,29.18,29.5c13.82-0.1,23.59-8.35,27.38-23.15
			c0.83-3.24,1.97-6.2,2.54-6.56c0.57-0.35,13.42-0.68,28.56-0.68c25.59-0.01,27.54,0.1,27.62,1.58c0.41,7.38-2.12,18.58-6.28,27.74
			c-8.16,18-26.1,35.36-44.21,42.79c-11.05,4.53-20.3,6.12-35.15,6.05C1683.07,952.6,1674.25,952.04,1670.72,951.41L1670.72,951.41z
			 M234.32,948.01c-1.58-1.59-1.58-183.72,0-185.3c1.56-1.57,56.32-1.57,57.88,0c1.59,1.58,1.59,183.72,0,185.3
			c-0.8,0.8-8.49,1.09-28.94,1.09C242.82,949.1,235.13,948.79,234.32,948.01L234.32,948.01z M340.65,947.32
			c-1.5-2.81-1.25-182.2,0.25-184.27c1.06-1.45,4.72-1.54,51.17-1.22c47.75,0.36,50.37,0.46,57.51,2.32
			c15.53,4.08,25.96,10.66,35.21,22.21c19.3,24.11,21.13,52.97,4.91,77.81c-6.33,9.7-13.45,16.41-22.3,21.01
			c-12.14,6.32-19.07,7.59-44.88,8.27l-22.3,0.59l-0.46,27.3l-0.46,27.3l-28.85,0.25c-27.93,0.25-28.89,0.2-29.82-1.55
			L340.65,947.32z M434.99,842.1c6.78-4.95,8.65-16.18,4.16-25.03c-4.03-7.92-5.9-8.6-23.89-8.6h-15.02l-0.25,16.81
			c-0.14,9.25-0.03,17.37,0.23,18.07c0.39,1.02,3.48,1.2,16.34,0.94C430.84,843.99,432.68,843.78,434.99,842.1L434.99,842.1z
			 M779.97,948.55c-0.36-0.36-0.66-42.33-0.66-93.25c0-83.59,0.14-92.64,1.44-93.14c2.56-0.99,71.47-0.59,80.02,0.46
			c27.24,3.34,48.21,14.53,66.25,35.35c5.64,6.51,11.92,19.35,14.26,29.17c7.17,30.03,2.61,68.02-10.56,88
			c-9.23,14-26.63,25.37-47.46,31.02l-8.83,2.4l-46.89,0.31c-25.79,0.2-47.19,0.03-47.55-0.35V948.55z M854.06,902.28
			c11.64-2.47,20.67-8.65,24.99-17.1c6.65-12.99,7.7-42.66,2.04-57.77c-4.5-12.02-17.15-18.68-35.8-18.85l-8.19-0.05l-0.24,46.31
			c-0.17,33.44,0.05,46.66,0.79,47.56c1.34,1.61,8.6,1.58,16.4-0.05V902.28z M1002.47,948c-1.59-1.59-1.59-181.9,0-183.48
			c1.29-1.29,136.88-1.59,138.89-0.3c0.94,0.59,1.18,5.45,1.11,22.41c-0.04,11.91-0.3,22.01-0.57,22.44
			c-0.26,0.41-18.49,0.78-40.5,0.78h-40.02l0.25,11.15l0.26,11.15l33.67,0.46l33.68,0.46v44.6l-33.68,0.46l-33.67,0.46l-0.51,24.12
			h41.37c36.4,0,41.54,0.15,42.8,1.43c1.21,1.22,1.43,4.47,1.43,21.45c0,12.06-0.38,20.72-0.94,21.78
			c-0.92,1.71-2.68,1.76-71.72,1.76c-53.84,0-71.04-0.25-71.87-1.09V948z M1199.96,948c-0.84-0.83-1.09-22.67-1.09-92.72
			c0-78.62,0.19-91.78,1.31-92.72c1-0.83,14.01-1,53.92-0.71c49.62,0.36,53.11,0.51,61.26,2.31c17.15,3.85,29.62,12.41,37.58,25.81
			c5.67,9.53,7.32,16.41,6.79,28.37c-0.35,8.06-0.96,11.58-2.94,16.99c-4.3,11.75-10.55,20.32-18.61,25.55l-2.2,1.43l5.43,3.81
			c5.5,3.86,11.32,10.54,12.97,14.9c2.54,6.67,3.92,17.88,4.54,36.56l0.64,19.91l3.38,2.71c3.55,2.85,4.41,6.01,2.13,7.9
			c-0.89,0.74-9.61,0.96-30.25,0.79l-29-0.25l-1.21-2.51c-0.77-1.6-1.65-10.59-2.43-24.79c-1.42-25.73-1.96-27.67-8.68-31.4
			c-3.91-2.17-4.79-2.27-19.11-2.27h-15.02l-0.24,29.5c-0.16,19.92-0.57,29.9-1.25,30.72c-1.39,1.68-56.27,1.79-57.94,0.1V948z
			 M1297,838.32c4.13-3.09,5.91-6.32,6.34-11.56c0.35-4.2,0.04-5.65-1.94-9.02c-3.91-6.66-6.33-7.36-26.76-7.74l-17.52-0.31v30.1
			l3.87,0.35c2.12,0.2,10.57,0.25,18.77,0.15c13.06-0.2,15.2-0.41,17.24-1.95V838.32z M1392.42,948.49c-0.33-0.35-0.61-1.23-0.61-2
			c0-2.52,59.45-181.65,60.83-183.28c1.23-1.46,3.84-1.6,30.29-1.6c21.99,0,29.2,0.25,30,1.14c0.58,0.62,14.67,42.3,31.31,92.6
			c21.12,63.84,29.98,91.81,29.36,92.6c-0.68,0.87-7.58,1.14-28.89,1.14c-21.3,0-28.21-0.25-28.91-1.14
			c-0.5-0.62-2.03-5.95-3.38-11.83l-2.47-10.69h-54.25l-2.59,10.63c-1.42,5.84-3.13,11.17-3.8,11.83c-0.94,0.94-7.12,1.2-28.74,1.2
			C1405.43,949.1,1392.76,948.84,1392.42,948.49L1392.42,948.49z M1497.39,884.07c0-1.62-13.9-51.18-14.53-51.81
			c-0.47-0.46-1.25,0.86-1.86,3.18c-0.58,2.19-3.68,13.55-6.89,25.23c-3.21,11.69-5.84,21.83-5.84,22.53c0,1.03,2.7,1.27,14.56,1.27
			C1490.84,884.48,1497.39,884.28,1497.39,884.07L1497.39,884.07z M1821.17,840.72c-1.47-0.86-1.59-3.5-1.59-34.83
			c0-25.16,0.28-34.19,1.09-35c0.82-0.82,11.57-1.09,42.78-1.09h41.68v-56.41l-477.36-0.51l-70.99-39.48
			c-39.04-21.71-107.03-59.44-151.08-83.84c-169.41-93.84-326.89-181.06-351.76-194.82c-14.27-7.89-51.47-28.49-82.68-45.77
			c-46.21-25.59-57.11-31.28-58.7-30.67c-1.08,0.41-17.53,7.51-36.55,15.77c-19.02,8.26-107.9,46.85-197.5,85.75
			c-151.43,65.75-187.34,81.34-259.39,112.6c-15.02,6.51-27.82,12.26-28.44,12.76c-0.9,0.72-1.14,21.54-1.14,98.55
			c0,88.18-0.14,97.68-1.44,98.18c-0.79,0.3-20.78,0.55-44.41,0.55c-32.21,0-43.25-0.25-44.07-1.09
			c-0.83-0.84-1.09-19.46-1.09-78.27c0-42.45-0.14-77.17-0.31-77.17c-0.17,0-21.5,8.6-47.41,19.11
			c-25.91,10.51-47.89,19.11-48.84,19.11c-1.68,0-1.74-1.29-1.74-42.75v-42.75l2.05-1.33c1.12-0.73,19.66-8.88,41.18-18.12
			c67.64-29.01,518.62-222.55,561.96-241.17l41.37-17.77l153.3-130C884.42,58.76,953.88,0.14,954.44,0
			c0.57-0.15,45.43,42.76,99.68,95.34l98.64,95.59h333.65l156.79-68.37c86.23-37.6,157.9-68.76,159.26-69.25
			c2.24-0.8,6.39,1.37,45.05,23.65c52.63,30.31,260.22,149.8,400.26,230.39c57.57,33.12,105.18,60.9,105.8,61.72
			c0.88,1.15,1.14,11.27,1.12,43.41c-0.01,23.06-0.37,42.48-0.81,43.17c-0.61,0.97-15.26-7.23-65.27-36.55
			c-35.46-20.79-64.79-37.61-65.18-37.38c-0.9,0.56-0.89,143.32,0.02,144.74c0.38,0.6,29.24,17.44,64.15,37.43
			c34.91,20,64.08,36.86,64.83,37.49c1.18,0.98,1.37,6.97,1.37,43.91v42.77l-2.17-0.41c-1.19-0.2-29.76-16.43-63.49-36
			c-33.73-19.57-62.03-35.86-62.9-36.19c-1.48-0.57-1.59,2.35-1.81,47.95l-0.23,48.56l-104.66,0.46
			c-57.57,0.25-104.77,0.57-104.89,0.69c-0.13,0.1-0.23,28.67-0.23,63.44c0,61.57-0.04,63.25-1.76,64.16
			c-2.43,1.29-188.28,1.26-190.5-0.04V840.72z M1889.95,629.87c0.23-0.36,0.71-46.96,1.07-103.53
			c0.65-99.76,0.61-102.89-1.04-104.34c-5.54-4.86-78.17-45.79-99.99-56.36c-57.02-27.6-88.6-32.6-125.09-19.78
			c-29.71,10.43-59.36,26.6-114.73,62.57c-11.27,7.32-23.17,15.03-26.46,17.14l-5.98,3.84l-49.99,0.02
			c-29.31,0.01-50.55,0.36-51.34,0.86c-1.14,0.73-1.06,1.16,0.56,2.95c5.98,6.62,50.39,60.12,50.39,60.71
			c0,1.33-3.14,3.38-37.77,24.7c-19.02,11.71-35.47,21.3-36.55,21.32c-1.38,0.02-22.84-19.66-71.43-65.5
			c-38.2-36.04-135.12-127.5-215.37-203.24c-80.25-75.74-146.43-137.59-147.07-137.43c-1.87,0.46-148.06,123.91-147.77,124.78
			c0.15,0.46,81.55,47.3,180.9,104.12c99.35,56.83,244.73,140.04,323.07,184.91l142.43,81.58l145.62,0.46
			c80.09,0.25,177.23,0.56,215.87,0.68C1857.93,630.43,1889.73,630.23,1889.95,629.87L1889.95,629.87z M2150.65,600.78l0.24-28.41
			l-2.06-1.29c-4.32-2.7-125.54-72.49-125.9-72.49c-0.22,0-0.39,29.49-0.39,65.53v65.53l63.93-0.25l63.94-0.25L2150.65,600.78z
			 M2150.41,399.38V342.5l-17.75-11.18c-9.76-6.15-24.3-15.2-32.31-20.13c-8.01-4.93-19.07-11.74-24.57-15.15
			c-121.04-74.78-231.73-134.88-275.76-149.71c-19.85-6.69-27.64-6.75-49.77-0.36c-47.02,13.54-148.21,61.3-266.21,125.66l-25.66,14
			h-92.89c-61.62,0-92.88,0.3-92.88,0.91c0,0.51,6.17,9.92,13.72,20.93l13.71,20.02h230.2l8.39-5.31
			c31.95-20.25,85.24-48.77,112.46-60.2c24-10.07,44.52-15.37,54.71-14.12c25.71,3.15,105.38,42.12,231.66,113.32
			c39.25,22.13,112.03,64.23,151.53,87.66l13.2,7.82l48.23-0.41L2150.41,399.38L2150.41,399.38z M2150.41,399.38"/>
	</g>
</g>
</svg>
