<?xml version="1.0" encoding="utf-8"?>
<!-- Generator: Adobe Illustrator 22.0.1, SVG Export Plug-In . SVG Version: 6.00 Build 0)  -->
<svg version="1.1" id="Capa_1" xmlns="http://www.w3.org/2000/svg" xmlns:xlink="http://www.w3.org/1999/xlink" x="0px" y="0px"
	 viewBox="0 0 253.2 60" style="enable-background:new 0 0 253.2 60;" xml:space="preserve">
<style type="text/css">
	.st0{fill:#A8A8A8;}
	.st1{opacity:0.4;fill:url(#SVGID_1_);enable-background:new    ;}
	.st2{display:none;}
	.st3{display:inline;}
	.st4{fill:#FFFFFF;}
	.st5{font-family:'aBigDeal';}
	.st6{font-size:35px;}
</style>
<g>
	<g>
		<path class="st0" d="M221.6,56.1H31.4c-14.2,0-25.6-11.5-25.6-25.6v-1.1c0-14.2,11.5-25.6,25.6-25.6h190.3
			c14.2,0,25.6,11.5,25.6,25.6v1.1C247.3,44.6,235.8,56.1,221.6,56.1z"/>
		
			<linearGradient id="SVGID_1_" gradientUnits="userSpaceOnUse" x1="6" y1="-2695.075" x2="245.5" y2="-2695.075" gradientTransform="matrix(1 0 0 -1 0 -2676.6772)">
			<stop  offset="0" style="stop-color:#FFFFFF"/>
			<stop  offset="1" style="stop-color:#000000"/>
		</linearGradient>
		<path class="st1" d="M41.9,24.8c21.2-4.2,32.8-5,54.4-4.6c22.4,0.4,101,1.5,123.4,1.1c4.2-0.1,21.6-0.2,25.8-0.9
			c0,0-3.9-15.7-23.2-16.5c-0.1,0-190,0-190,0C21.2,3.1,8,11.1,6,26.4c0,0,0.3,8.8,9.2,6C23.8,29,32.8,26.6,41.9,24.8z"/>
	</g>
	<g class="st2">
		<g class="st3">
			<path class="st4" d="M65.8,36.8c-0.4,0.6-0.9,1.2-1.5,1.7s-1.2,1-2,1.4s-1.6,0.7-2.5,1c-0.9,0.2-1.9,0.4-3,0.4
				c-1.8,0-3.5-0.3-5-1c-1.5-0.6-2.9-1.5-4-2.6s-2-2.4-2.6-4c-0.6-1.5-0.9-3.2-0.9-5.1s0.3-3.5,1-5.1c0.6-1.5,1.5-2.9,2.6-4
				s2.4-2,4-2.6c1.5-0.6,3.2-1,5-1c0.9,0,1.7,0.1,2.6,0.3s1.6,0.4,2.4,0.8c0.7,0.3,1.4,0.7,2,1.2s1.1,1,1.5,1.6l-2,1.5
				c-0.2-0.4-0.6-0.8-1-1.2c-0.4-0.4-0.9-0.7-1.5-1s-1.2-0.5-1.9-0.7s-1.4-0.3-2.2-0.3c-1.6,0-3,0.3-4.2,0.8
				c-1.2,0.6-2.3,1.3-3.1,2.3c-0.9,1-1.5,2.1-2,3.3c-0.5,1.3-0.7,2.6-0.7,4s0.2,2.7,0.7,4s1.1,2.4,2,3.3c0.9,1,1.9,1.7,3.1,2.3
				c1.2,0.6,2.6,0.8,4.2,0.8c1.4,0,2.7-0.3,3.9-0.8c1.2-0.6,2.3-1.5,3.1-2.7L65.8,36.8z"/>
			<path class="st4" d="M90.7,32.7c0,1.2-0.2,2.3-0.6,3.3s-1,1.9-1.7,2.6c-0.7,0.7-1.6,1.3-2.7,1.7c-1,0.4-2.2,0.6-3.4,0.6
				c-1.2,0-2.4-0.2-3.4-0.6c-1-0.4-1.9-1-2.7-1.7c-0.7-0.7-1.3-1.6-1.7-2.6c-0.4-1-0.6-2.1-0.6-3.3s0.2-2.3,0.6-3.3s1-1.9,1.7-2.6
				s1.6-1.3,2.7-1.7c1-0.4,2.2-0.6,3.4-0.6c1.2,0,2.4,0.2,3.4,0.6s1.9,1,2.7,1.7c0.7,0.7,1.3,1.6,1.7,2.6
				C90.4,30.4,90.7,31.5,90.7,32.7z M88.2,32.7c0-0.9-0.1-1.7-0.4-2.5s-0.7-1.5-1.2-2c-0.5-0.6-1.2-1-1.9-1.4
				c-0.7-0.3-1.6-0.5-2.5-0.5s-1.8,0.2-2.5,0.5s-1.4,0.8-1.9,1.4s-0.9,1.3-1.2,2c-0.3,0.8-0.4,1.6-0.4,2.5c0,0.9,0.1,1.7,0.4,2.5
				s0.7,1.5,1.2,2c0.5,0.6,1.1,1,1.9,1.4c0.7,0.3,1.6,0.5,2.5,0.5s1.8-0.2,2.5-0.5s1.4-0.8,1.9-1.4c0.5-0.6,0.9-1.3,1.2-2
				C88.1,34.5,88.2,33.6,88.2,32.7z"/>
			<path class="st4" d="M105.4,25.3c0.9-0.6,2-0.9,3.1-0.9c0.4,0,0.9,0,1.3,0.1c0.5,0.1,0.9,0.3,1.4,0.5c0.4,0.3,0.8,0.6,1.2,1
				c0.4,0.4,0.7,1,1,1.7c0.5-1.1,1.3-1.9,2.2-2.5c0.9-0.6,2.1-0.9,3.3-0.9c2,0,3.5,0.6,4.5,1.8c1,1.2,1.5,2.8,1.5,4.8v9.7h-2.3v-8.8
				c0-1.7-0.3-3-0.9-4s-1.7-1.5-3.2-1.5c-0.8,0-1.5,0.2-2.1,0.5s-1,0.8-1.4,1.3c-0.4,0.6-0.6,1.2-0.8,1.9c-0.2,0.7-0.2,1.4-0.2,2.2
				v8.5h-2.3v-9.3c0-0.8-0.1-1.5-0.2-2.1s-0.3-1.2-0.6-1.6c-0.3-0.4-0.7-0.8-1.2-1s-1.1-0.4-1.9-0.4c-0.5,0-1.1,0.1-1.6,0.4
				c-0.6,0.2-1.1,0.6-1.5,1.1s-0.8,1.2-1.1,1.9c-0.3,0.8-0.4,1.7-0.4,2.8v8.1H101V28.3c0-0.4,0-1,0-1.7s-0.1-1.3-0.1-1.8h2.2
				c0,0.4,0.1,0.9,0.1,1.4s0,1,0,1.3h0.1C103.8,26.6,104.5,25.8,105.4,25.3z"/>
			<path class="st4" d="M138.8,48.8h-2.3v-24h2.3v2.7h0.1c0.7-1,1.5-1.8,2.6-2.4c1.1-0.5,2.2-0.8,3.3-0.8c1.2,0,2.4,0.2,3.4,0.6
				s1.9,1,2.6,1.8c0.7,0.7,1.3,1.6,1.7,2.6s0.6,2.1,0.6,3.3s-0.2,2.3-0.6,3.3c-0.4,1-0.9,1.9-1.7,2.6c-0.7,0.7-1.6,1.3-2.6,1.8
				c-1,0.4-2.1,0.6-3.4,0.6c-1.1,0-2.2-0.3-3.3-0.8s-2-1.3-2.6-2.3h-0.1V48.8z M150.6,32.7c0-0.9-0.1-1.7-0.4-2.5
				c-0.3-0.8-0.7-1.5-1.2-2c-0.5-0.6-1.1-1-1.9-1.4s-1.6-0.5-2.5-0.5s-1.7,0.2-2.4,0.5s-1.4,0.8-1.9,1.4s-1,1.3-1.3,2
				c-0.3,0.8-0.5,1.6-0.5,2.5c0,0.9,0.2,1.7,0.5,2.5s0.7,1.5,1.3,2c0.5,0.6,1.2,1,1.9,1.3s1.6,0.5,2.4,0.5c1,0,1.8-0.2,2.5-0.5
				s1.4-0.8,1.9-1.4c0.5-0.6,0.9-1.3,1.2-2C150.5,34.5,150.6,33.6,150.6,32.7z"/>
			<path class="st4" d="M163.4,26.6c0-0.7-0.1-1.3-0.1-1.8h2.2c0,0.4,0.1,0.9,0.1,1.4s0,1,0,1.3h0.1c0.5-0.9,1.1-1.7,2-2.3
				c0.9-0.6,1.9-0.9,3.1-0.9c0.3,0,0.6,0,0.8,0s0.5,0.1,0.7,0.1l-0.3,2.2c-0.1,0-0.4-0.1-0.7-0.1s-0.6-0.1-1-0.1
				c-0.6,0-1.2,0.1-1.8,0.3c-0.6,0.2-1.1,0.6-1.5,1.1s-0.8,1.1-1,1.9c-0.3,0.8-0.4,1.7-0.4,2.7v8.1h-2.3V28.3
				C163.4,27.9,163.4,27.3,163.4,26.6z"/>
			<path class="st4" d="M190.7,30.4c0-1.4-0.4-2.4-1.1-3.1c-0.7-0.7-1.8-1-3.2-1c-1,0-1.8,0.2-2.6,0.5s-1.5,0.8-2.1,1.4l-1.3-1.5
				c0.7-0.7,1.5-1.2,2.6-1.6s2.3-0.6,3.6-0.6c0.9,0,1.7,0.1,2.4,0.4c0.7,0.2,1.4,0.6,2,1.1s1,1.1,1.3,1.8c0.3,0.7,0.5,1.6,0.5,2.5v7
				c0,0.6,0,1.2,0.1,1.9c0,0.7,0.1,1.2,0.2,1.7H191c-0.1-0.4-0.1-0.8-0.2-1.3c0-0.5-0.1-0.9-0.1-1.3h-0.1c-0.7,1.1-1.5,1.8-2.5,2.3
				c-0.9,0.5-2,0.7-3.3,0.7c-0.6,0-1.2-0.1-1.9-0.3c-0.6-0.2-1.2-0.4-1.8-0.8c-0.5-0.4-1-0.9-1.3-1.5c-0.4-0.6-0.5-1.4-0.5-2.2
				c0-1.2,0.3-2.2,0.9-2.9c0.6-0.7,1.5-1.2,2.5-1.6s2.2-0.6,3.6-0.7c1.3-0.1,2.7-0.2,4.2-0.2v-0.7H190.7z M190,32.7
				c-0.9,0-1.9,0-2.9,0.1s-1.8,0.2-2.6,0.5c-0.8,0.2-1.4,0.6-1.9,1c-0.5,0.5-0.7,1.1-0.7,1.8c0,0.6,0.1,1,0.3,1.4s0.5,0.7,0.9,0.9
				s0.8,0.4,1.2,0.5s0.9,0.2,1.3,0.2c0.8,0,1.5-0.1,2.2-0.4c0.6-0.3,1.2-0.7,1.6-1.2c0.4-0.5,0.8-1,1-1.7c0.2-0.6,0.3-1.3,0.3-2
				v-1.2H190V32.7z"/>
			<path class="st4" d="M204.2,26.6c0-0.7-0.1-1.3-0.1-1.8h2.2c0,0.4,0.1,0.9,0.1,1.4s0,1,0,1.3h0.1c0.5-0.9,1.1-1.7,2-2.3
				c0.9-0.6,1.9-0.9,3.1-0.9c0.3,0,0.6,0,0.8,0s0.5,0.1,0.7,0.1l-0.3,2.2c-0.1,0-0.4-0.1-0.7-0.1s-0.6-0.1-1-0.1
				c-0.6,0-1.2,0.1-1.8,0.3c-0.6,0.2-1.1,0.6-1.5,1.1s-0.8,1.1-1,1.9c-0.3,0.8-0.4,1.7-0.4,2.7v8.1h-2.3V28.3
				C204.2,27.9,204.2,27.3,204.2,26.6z"/>
		</g>
	</g>
</g>
<text transform="matrix(1 0 0 1 61 43)" class="st4 st5 st6">$5000</text>
</svg>
