<?xml version="1.0" encoding="utf-8"?>
<!-- Generator: Adobe Illustrator 25.0.0, SVG Export Plug-In . SVG Version: 6.00 Build 0)  -->
<svg version="1.1" id="Capa_1" xmlns="http://www.w3.org/2000/svg" xmlns:xlink="http://www.w3.org/1999/xlink" x="0px" y="0px"
	 viewBox="0 0 293.1 60" style="enable-background:new 0 0 293.1 60;" xml:space="preserve">
<style type="text/css">
	.st0{fill:#A8A8A8;}
	.st1{opacity:0.4;fill:url(#SVGID_1_);enable-background:new    ;}
	.st2{enable-background:new    ;}
	.st3{fill:#FFFFFF;}
</style>
<g>
	<path class="st0" d="M259.5,56.1H39.3c-14.2,0-25.6-11.5-25.6-25.6v-1.1c0-14.2,11.5-25.6,25.6-25.6h220.3
		c14.2,0,25.6,11.5,25.6,25.6v1.1C285.2,44.6,273.7,56.1,259.5,56.1z"/>
	
		<linearGradient id="SVGID_1_" gradientUnits="userSpaceOnUse" x1="13.8978" y1="42.9183" x2="283.375" y2="42.9183" gradientTransform="matrix(1 0 0 -1 0 61.3228)">
		<stop  offset="0" style="stop-color:#FFFFFF"/>
		<stop  offset="1" style="stop-color:#000000"/>
	</linearGradient>
	<path class="st1" d="M49.8,24.8c21.2-4.2,42.8-5,64.4-4.6c22.4,0.4,121,1.5,143.4,1.1c4.2-0.1,21.6-0.2,25.8-0.9
		c0,0-3.9-15.7-23.2-16.5c-0.1,0-220,0-220,0c-11.1-0.8-24.3,7.2-26.3,22.5c0,0,0.3,8.8,9.2,6C31.7,29,40.7,26.6,49.8,24.8z"/>
	<g class="st2">
		<path class="st3" d="M67.3,36.1c-0.4,0.6-0.9,1.2-1.5,1.7c-0.6,0.5-1.2,1-2,1.4c-0.8,0.4-1.6,0.7-2.5,1s-1.9,0.4-3,0.4
			c-1.8,0-3.5-0.3-5-0.9c-1.5-0.6-2.8-1.5-3.9-2.6c-1.1-1.1-2-2.4-2.6-4c-0.6-1.5-0.9-3.2-0.9-5s0.3-3.5,0.9-5s1.5-2.8,2.6-4
			c1.1-1.1,2.4-2,3.9-2.6c1.5-0.6,3.2-0.9,4.9-0.9c0.9,0,1.7,0.1,2.6,0.3s1.6,0.4,2.4,0.8s1.4,0.7,2,1.2c0.6,0.5,1.1,1,1.5,1.6
			l-2,1.5c-0.2-0.4-0.6-0.8-1-1.1c-0.4-0.4-0.9-0.7-1.5-1c-0.6-0.3-1.2-0.5-1.8-0.7s-1.4-0.3-2.1-0.3c-1.6,0-2.9,0.3-4.2,0.8
			C53,19,52,19.8,51.1,20.7c-0.9,1-1.5,2.1-2,3.3c-0.4,1.3-0.7,2.6-0.7,4c0,1.4,0.2,2.7,0.7,4c0.5,1.3,1.1,2.4,2,3.3
			c0.9,1,1.9,1.7,3.1,2.3c1.2,0.6,2.6,0.8,4.1,0.8c1.4,0,2.7-0.3,3.9-0.8c1.2-0.6,2.3-1.5,3.1-2.7L67.3,36.1z"/>
		<path class="st3" d="M91.6,32.1c0,1.2-0.2,2.3-0.6,3.3s-1,1.9-1.7,2.6s-1.6,1.3-2.7,1.7c-1,0.4-2.2,0.6-3.4,0.6
			c-1.2,0-2.3-0.2-3.4-0.6c-1-0.4-1.9-1-2.7-1.7c-0.7-0.7-1.3-1.6-1.7-2.6c-0.4-1-0.6-2.1-0.6-3.3s0.2-2.3,0.6-3.3
			c0.4-1,1-1.9,1.7-2.6c0.7-0.7,1.6-1.3,2.7-1.7c1-0.4,2.2-0.6,3.4-0.6c1.2,0,2.4,0.2,3.4,0.6c1,0.4,1.9,1,2.7,1.7s1.3,1.6,1.7,2.6
			S91.6,30.9,91.6,32.1z M89.2,32.1c0-0.9-0.1-1.7-0.4-2.5c-0.3-0.8-0.7-1.4-1.2-2c-0.5-0.6-1.1-1-1.9-1.4s-1.6-0.5-2.5-0.5
			c-0.9,0-1.7,0.2-2.5,0.5s-1.4,0.8-1.9,1.4c-0.5,0.6-0.9,1.2-1.2,2c-0.3,0.8-0.4,1.6-0.4,2.5s0.1,1.7,0.4,2.5
			c0.3,0.8,0.7,1.4,1.2,2c0.5,0.6,1.1,1,1.9,1.3c0.7,0.3,1.6,0.5,2.5,0.5c0.9,0,1.8-0.2,2.5-0.5c0.7-0.3,1.4-0.8,1.9-1.3
			c0.5-0.6,0.9-1.2,1.2-2C89,33.8,89.2,32.9,89.2,32.1z"/>
		<path class="st3" d="M103.5,24.2c0,0.4,0.1,0.9,0.1,1.4c0,0.5,0,0.9,0,1.3h0.1c0.4-0.9,1.2-1.7,2.2-2.2c1-0.6,2.1-0.9,3.2-0.9
			c2,0,3.5,0.6,4.5,1.8s1.5,2.8,1.5,4.7v9.7h-2.3v-8.7c0-0.8-0.1-1.6-0.2-2.3s-0.4-1.3-0.7-1.7c-0.3-0.5-0.8-0.9-1.3-1.1
			c-0.6-0.3-1.2-0.4-2.1-0.4c-0.6,0-1.2,0.1-1.8,0.4c-0.6,0.2-1.1,0.6-1.5,1.1c-0.4,0.5-0.8,1.1-1.1,1.9c-0.3,0.8-0.4,1.7-0.4,2.7
			v8.1h-2.3V27.6c0-0.4,0-1,0-1.7s-0.1-1.3-0.1-1.8H103.5z"/>
		<path class="st3" d="M141.7,32.1c0,1.2-0.2,2.3-0.6,3.3s-1,1.9-1.7,2.6s-1.6,1.3-2.7,1.7c-1,0.4-2.2,0.6-3.4,0.6
			c-1.2,0-2.3-0.2-3.4-0.6c-1-0.4-1.9-1-2.7-1.7c-0.7-0.7-1.3-1.6-1.7-2.6c-0.4-1-0.6-2.1-0.6-3.3s0.2-2.3,0.6-3.3
			c0.4-1,1-1.9,1.7-2.6c0.7-0.7,1.6-1.3,2.7-1.7c1-0.4,2.2-0.6,3.4-0.6c1.2,0,2.4,0.2,3.4,0.6c1,0.4,1.9,1,2.7,1.7s1.3,1.6,1.7,2.6
			S141.7,30.9,141.7,32.1z M139.3,32.1c0-0.9-0.1-1.7-0.4-2.5c-0.3-0.8-0.7-1.4-1.2-2c-0.5-0.6-1.1-1-1.9-1.4s-1.6-0.5-2.5-0.5
			c-0.9,0-1.7,0.2-2.5,0.5s-1.4,0.8-1.9,1.4c-0.5,0.6-0.9,1.2-1.2,2c-0.3,0.8-0.4,1.6-0.4,2.5s0.1,1.7,0.4,2.5
			c0.3,0.8,0.7,1.4,1.2,2c0.5,0.6,1.1,1,1.9,1.3c0.7,0.3,1.6,0.5,2.5,0.5c0.9,0,1.8-0.2,2.5-0.5c0.7-0.3,1.4-0.8,1.9-1.3
			c0.5-0.6,0.9-1.2,1.2-2C139.1,33.8,139.3,32.9,139.3,32.1z M133.9,20.9h-2l3.4-4.9h3.1L133.9,20.9z"/>
		<path class="st3" d="M163,27.8c-0.4-0.6-0.9-1.1-1.7-1.5c-0.7-0.4-1.5-0.6-2.4-0.6c-0.9,0-1.8,0.2-2.5,0.5
			c-0.7,0.3-1.4,0.8-1.9,1.3c-0.5,0.6-0.9,1.2-1.2,2c-0.3,0.8-0.4,1.6-0.4,2.5s0.1,1.7,0.4,2.5s0.7,1.4,1.2,2c0.5,0.6,1.1,1,1.9,1.3
			c0.7,0.3,1.6,0.5,2.5,0.5c1,0,1.9-0.2,2.6-0.6c0.7-0.4,1.3-0.9,1.7-1.5l1.7,1.3c-0.7,0.8-1.5,1.5-2.5,2c-1,0.5-2.2,0.7-3.5,0.7
			c-1.3,0-2.4-0.2-3.5-0.6c-1-0.4-1.9-1-2.6-1.7s-1.3-1.6-1.7-2.6s-0.6-2.1-0.6-3.3s0.2-2.3,0.6-3.3s1-1.9,1.7-2.6s1.6-1.3,2.6-1.7
			c1-0.4,2.2-0.6,3.5-0.6c1.1,0,2.1,0.2,3.2,0.7c1.1,0.5,2,1.1,2.6,2L163,27.8z"/>
		<path class="st3" d="M187.8,31.6c0,0.2,0,0.3,0,0.5s0,0.4,0,0.6h-13.1c0,0.8,0.2,1.5,0.5,2.2s0.7,1.3,1.2,1.8s1.1,0.9,1.8,1.2
			c0.7,0.3,1.4,0.5,2.3,0.5c1.2,0,2.2-0.3,3.1-0.8c0.9-0.6,1.5-1.2,2-1.9l1.7,1.3c-0.9,1.2-2,2-3.1,2.6c-1.1,0.5-2.4,0.8-3.7,0.8
			c-1.2,0-2.3-0.2-3.3-0.6c-1-0.4-1.9-1-2.6-1.7s-1.3-1.6-1.7-2.6c-0.4-1-0.6-2.1-0.6-3.3s0.2-2.3,0.6-3.3s1-1.9,1.7-2.6
			s1.6-1.3,2.5-1.7c1-0.4,2-0.6,3.1-0.6c1.2,0,2.3,0.2,3.3,0.6c0.9,0.4,1.7,1,2.4,1.7c0.6,0.7,1.1,1.5,1.4,2.5
			C187.6,29.5,187.8,30.5,187.8,31.6z M185.5,30.8c-0.1-1.5-0.5-2.7-1.4-3.7c-0.9-1-2.2-1.5-3.8-1.5c-0.8,0-1.5,0.1-2.1,0.4
			c-0.7,0.3-1.2,0.7-1.7,1.1c-0.5,0.5-0.9,1-1.2,1.7s-0.5,1.3-0.5,1.9H185.5z"/>
		<path class="st3" d="M200.1,39.9h-2.3V14.5h2.3V39.9z"/>
		<path class="st3" d="M226.9,32.1c0,1.2-0.2,2.3-0.6,3.3c-0.4,1-1,1.9-1.7,2.6s-1.6,1.3-2.7,1.7c-1,0.4-2.2,0.6-3.4,0.6
			c-1.2,0-2.3-0.2-3.4-0.6c-1-0.4-1.9-1-2.7-1.7s-1.3-1.6-1.7-2.6c-0.4-1-0.6-2.1-0.6-3.3s0.2-2.3,0.6-3.3c0.4-1,1-1.9,1.7-2.6
			s1.6-1.3,2.7-1.7c1-0.4,2.2-0.6,3.4-0.6c1.2,0,2.4,0.2,3.4,0.6c1,0.4,1.9,1,2.7,1.7s1.3,1.6,1.7,2.6
			C226.6,29.8,226.9,30.9,226.9,32.1z M224.4,32.1c0-0.9-0.1-1.7-0.4-2.5c-0.3-0.8-0.7-1.4-1.2-2c-0.5-0.6-1.1-1-1.9-1.4
			s-1.6-0.5-2.5-0.5c-0.9,0-1.7,0.2-2.5,0.5c-0.7,0.3-1.4,0.8-1.9,1.4c-0.5,0.6-0.9,1.2-1.2,2c-0.3,0.8-0.4,1.6-0.4,2.5
			s0.1,1.7,0.4,2.5c0.3,0.8,0.7,1.4,1.2,2c0.5,0.6,1.1,1,1.9,1.3c0.7,0.3,1.6,0.5,2.5,0.5c0.9,0,1.8-0.2,2.5-0.5
			c0.7-0.3,1.4-0.8,1.9-1.3c0.5-0.6,0.9-1.2,1.2-2C224.3,33.8,224.4,32.9,224.4,32.1z"/>
		<path class="st3" d="M245.2,27.9c-0.3-0.7-0.8-1.2-1.5-1.6c-0.7-0.4-1.5-0.6-2.3-0.6c-0.4,0-0.8,0-1.2,0.1s-0.8,0.2-1.1,0.4
			c-0.3,0.2-0.6,0.5-0.8,0.8s-0.3,0.7-0.3,1.1c0,0.7,0.3,1.3,0.9,1.7c0.6,0.4,1.6,0.7,2.9,1c1.9,0.4,3.2,0.9,4.1,1.7
			c0.9,0.7,1.3,1.7,1.3,2.9c0,0.9-0.2,1.7-0.5,2.3c-0.3,0.6-0.8,1.1-1.4,1.5s-1.2,0.7-1.9,0.8c-0.7,0.2-1.4,0.3-2.1,0.3
			c-1.2,0-2.3-0.2-3.5-0.7s-2-1.3-2.8-2.3l1.8-1.3c0.4,0.7,1,1.3,1.8,1.8s1.7,0.7,2.6,0.7c0.5,0,1,0,1.4-0.1
			c0.4-0.1,0.8-0.2,1.2-0.5s0.6-0.5,0.8-0.9c0.2-0.3,0.3-0.8,0.3-1.3c0-0.8-0.4-1.5-1.2-1.9c-0.8-0.4-1.9-0.8-3.5-1.2
			c-0.5-0.1-1-0.3-1.5-0.4c-0.5-0.2-1-0.4-1.5-0.7c-0.4-0.3-0.8-0.7-1.1-1.2s-0.4-1.1-0.4-1.9c0-0.8,0.2-1.5,0.5-2.1
			c0.3-0.6,0.7-1,1.3-1.4c0.5-0.4,1.1-0.6,1.8-0.8c0.7-0.2,1.4-0.3,2.1-0.3c1.1,0,2.2,0.2,3.2,0.7s1.8,1.2,2.3,2.1L245.2,27.9z"/>
	</g>
</g>
</svg>
