<?xml version="1.0" encoding="utf-8"?>
<!-- Generator: Adobe Illustrator 25.0.0, SVG Export Plug-In . SVG Version: 6.00 Build 0)  -->
<svg version="1.1" id="Capa_1" xmlns="http://www.w3.org/2000/svg" xmlns:xlink="http://www.w3.org/1999/xlink" x="0px" y="0px"
	 viewBox="0 0 220 60" style="enable-background:new 0 0 220 60;" xml:space="preserve">
<style type="text/css">
	.st0{fill:#474747;}
	.st1{opacity:0.4;}
	.st2{clip-path:url(#SVGID_2_);fill:#FFFFFF;}
	.st3{clip-path:url(#SVGID_2_);fill:#FEFEFE;}
	.st4{clip-path:url(#SVGID_2_);fill:#FDFDFD;}
	.st5{clip-path:url(#SVGID_2_);fill:#FCFCFC;}
	.st6{clip-path:url(#SVGID_2_);fill:#FBFBFB;}
	.st7{clip-path:url(#SVGID_2_);fill:#FAFAFA;}
	.st8{clip-path:url(#SVGID_2_);fill:#F9F9F9;}
	.st9{clip-path:url(#SVGID_2_);fill:#F8F8F8;}
	.st10{clip-path:url(#SVGID_2_);fill:#F7F7F7;}
	.st11{clip-path:url(#SVGID_2_);fill:#F6F6F6;}
	.st12{clip-path:url(#SVGID_2_);fill:#F5F5F5;}
	.st13{clip-path:url(#SVGID_2_);fill:#F4F4F4;}
	.st14{clip-path:url(#SVGID_2_);fill:#F3F3F3;}
	.st15{clip-path:url(#SVGID_2_);fill:#F2F2F2;}
	.st16{clip-path:url(#SVGID_2_);fill:#F1F1F1;}
	.st17{clip-path:url(#SVGID_2_);fill:#F0F0F0;}
	.st18{clip-path:url(#SVGID_2_);fill:#EFEFEF;}
	.st19{clip-path:url(#SVGID_2_);fill:#EEEEEE;}
	.st20{clip-path:url(#SVGID_2_);fill:#EDEDED;}
	.st21{clip-path:url(#SVGID_2_);fill:#ECECEC;}
	.st22{clip-path:url(#SVGID_2_);fill:#EBEBEB;}
	.st23{clip-path:url(#SVGID_2_);fill:#EAEAEA;}
	.st24{clip-path:url(#SVGID_2_);fill:#E9E9E9;}
	.st25{clip-path:url(#SVGID_2_);fill:#E8E8E8;}
	.st26{clip-path:url(#SVGID_2_);fill:#E7E7E7;}
	.st27{clip-path:url(#SVGID_2_);fill:#E6E6E6;}
	.st28{clip-path:url(#SVGID_2_);fill:#E5E5E5;}
	.st29{clip-path:url(#SVGID_2_);fill:#E4E4E4;}
	.st30{clip-path:url(#SVGID_2_);fill:#E3E3E3;}
	.st31{clip-path:url(#SVGID_2_);fill:#E2E2E2;}
	.st32{clip-path:url(#SVGID_2_);fill:#E1E1E1;}
	.st33{clip-path:url(#SVGID_2_);fill:#E0E0E0;}
	.st34{clip-path:url(#SVGID_2_);fill:#DFDFDF;}
	.st35{clip-path:url(#SVGID_2_);fill:#DEDEDE;}
	.st36{clip-path:url(#SVGID_2_);fill:#DDDDDD;}
	.st37{clip-path:url(#SVGID_2_);fill:#DCDCDC;}
	.st38{clip-path:url(#SVGID_2_);fill:#DBDBDB;}
	.st39{clip-path:url(#SVGID_2_);fill:#DADADA;}
	.st40{clip-path:url(#SVGID_2_);fill:#D9D9D9;}
	.st41{clip-path:url(#SVGID_2_);fill:#D8D8D8;}
	.st42{clip-path:url(#SVGID_2_);fill:#D7D7D7;}
	.st43{clip-path:url(#SVGID_2_);fill:#D6D6D6;}
	.st44{clip-path:url(#SVGID_2_);fill:#D5D5D5;}
	.st45{clip-path:url(#SVGID_2_);fill:#D4D4D4;}
	.st46{clip-path:url(#SVGID_2_);fill:#D3D3D3;}
	.st47{clip-path:url(#SVGID_2_);fill:#D2D2D2;}
	.st48{clip-path:url(#SVGID_2_);fill:#D1D1D1;}
	.st49{clip-path:url(#SVGID_2_);fill:#D0D0D0;}
	.st50{clip-path:url(#SVGID_2_);fill:#CFCFCF;}
	.st51{clip-path:url(#SVGID_2_);fill:#CECECE;}
	.st52{clip-path:url(#SVGID_2_);fill:#CDCDCD;}
	.st53{clip-path:url(#SVGID_2_);fill:#CCCCCC;}
	.st54{clip-path:url(#SVGID_2_);fill:#CBCBCB;}
	.st55{clip-path:url(#SVGID_2_);fill:#CACACA;}
	.st56{clip-path:url(#SVGID_2_);fill:#C9C9C9;}
	.st57{clip-path:url(#SVGID_2_);fill:#C8C8C8;}
	.st58{clip-path:url(#SVGID_2_);fill:#C7C7C7;}
	.st59{clip-path:url(#SVGID_2_);fill:#C6C6C6;}
	.st60{clip-path:url(#SVGID_2_);fill:#C5C5C5;}
	.st61{clip-path:url(#SVGID_2_);fill:#C4C4C4;}
	.st62{clip-path:url(#SVGID_2_);fill:#C3C3C3;}
	.st63{clip-path:url(#SVGID_2_);fill:#C2C2C2;}
	.st64{clip-path:url(#SVGID_2_);fill:#C1C1C1;}
	.st65{clip-path:url(#SVGID_2_);fill:#C0C0C0;}
	.st66{clip-path:url(#SVGID_2_);fill:#BFBFBF;}
	.st67{clip-path:url(#SVGID_2_);fill:#BEBEBE;}
	.st68{clip-path:url(#SVGID_2_);fill:#BDBDBD;}
	.st69{clip-path:url(#SVGID_2_);fill:#BCBCBC;}
	.st70{clip-path:url(#SVGID_2_);fill:#BBBBBB;}
	.st71{clip-path:url(#SVGID_2_);fill:#BABABA;}
	.st72{clip-path:url(#SVGID_2_);fill:#B9B9B9;}
	.st73{clip-path:url(#SVGID_2_);fill:#B8B8B8;}
	.st74{clip-path:url(#SVGID_2_);fill:#B7B7B7;}
	.st75{clip-path:url(#SVGID_2_);fill:#B6B6B6;}
	.st76{clip-path:url(#SVGID_2_);fill:#B5B5B5;}
	.st77{clip-path:url(#SVGID_2_);fill:#B4B4B4;}
	.st78{clip-path:url(#SVGID_2_);fill:#B3B3B3;}
	.st79{clip-path:url(#SVGID_2_);fill:#B2B2B2;}
	.st80{clip-path:url(#SVGID_2_);fill:#B1B1B1;}
	.st81{clip-path:url(#SVGID_2_);fill:#B0B0B0;}
	.st82{clip-path:url(#SVGID_2_);fill:#AFAFAF;}
	.st83{clip-path:url(#SVGID_2_);fill:#AEAEAE;}
	.st84{clip-path:url(#SVGID_2_);fill:#ADADAD;}
	.st85{clip-path:url(#SVGID_2_);fill:#ACACAC;}
	.st86{clip-path:url(#SVGID_2_);fill:#ABABAB;}
	.st87{clip-path:url(#SVGID_2_);fill:#AAAAAA;}
	.st88{clip-path:url(#SVGID_2_);fill:#A9A9A9;}
	.st89{clip-path:url(#SVGID_2_);fill:#A8A8A8;}
	.st90{clip-path:url(#SVGID_2_);fill:#A7A7A7;}
	.st91{clip-path:url(#SVGID_2_);fill:#A6A6A6;}
	.st92{clip-path:url(#SVGID_2_);fill:#A5A5A5;}
	.st93{clip-path:url(#SVGID_2_);fill:#A4A4A4;}
	.st94{clip-path:url(#SVGID_2_);fill:#A3A3A3;}
	.st95{clip-path:url(#SVGID_2_);fill:#A2A2A2;}
	.st96{clip-path:url(#SVGID_2_);fill:#A1A1A1;}
	.st97{clip-path:url(#SVGID_2_);fill:#A0A0A0;}
	.st98{clip-path:url(#SVGID_2_);fill:#9F9F9F;}
	.st99{clip-path:url(#SVGID_2_);fill:#9E9E9E;}
	.st100{clip-path:url(#SVGID_2_);fill:#9D9D9D;}
	.st101{clip-path:url(#SVGID_2_);fill:#9C9C9C;}
	.st102{clip-path:url(#SVGID_2_);fill:#9B9B9B;}
	.st103{clip-path:url(#SVGID_2_);fill:#9A9A9A;}
	.st104{clip-path:url(#SVGID_2_);fill:#999999;}
	.st105{clip-path:url(#SVGID_2_);fill:#989898;}
	.st106{clip-path:url(#SVGID_2_);fill:#979797;}
	.st107{clip-path:url(#SVGID_2_);fill:#969696;}
	.st108{clip-path:url(#SVGID_2_);fill:#959595;}
	.st109{clip-path:url(#SVGID_2_);fill:#949494;}
	.st110{clip-path:url(#SVGID_2_);fill:#939393;}
	.st111{clip-path:url(#SVGID_2_);fill:#929292;}
	.st112{clip-path:url(#SVGID_2_);fill:#919191;}
	.st113{clip-path:url(#SVGID_2_);fill:#909090;}
	.st114{clip-path:url(#SVGID_2_);fill:#8F8F8F;}
	.st115{clip-path:url(#SVGID_2_);fill:#8E8E8E;}
	.st116{clip-path:url(#SVGID_2_);fill:#8E8E8C;}
	.st117{clip-path:url(#SVGID_2_);fill:#8D8D8B;}
	.st118{clip-path:url(#SVGID_2_);fill:#8C8C8A;}
	.st119{clip-path:url(#SVGID_2_);fill:#8B8B89;}
	.st120{clip-path:url(#SVGID_2_);fill:#8A8A88;}
	.st121{clip-path:url(#SVGID_2_);fill:#898987;}
	.st122{clip-path:url(#SVGID_2_);fill:#888886;}
	.st123{clip-path:url(#SVGID_2_);fill:#878785;}
	.st124{clip-path:url(#SVGID_2_);fill:#868684;}
	.st125{clip-path:url(#SVGID_2_);fill:#858583;}
	.st126{clip-path:url(#SVGID_2_);fill:#848482;}
	.st127{clip-path:url(#SVGID_2_);fill:#838381;}
	.st128{clip-path:url(#SVGID_2_);fill:#828280;}
	.st129{clip-path:url(#SVGID_2_);fill:#81817F;}
	.st130{clip-path:url(#SVGID_2_);fill:#80807E;}
	.st131{clip-path:url(#SVGID_2_);fill:#7F7F7D;}
	.st132{clip-path:url(#SVGID_2_);fill:#7E7E7C;}
	.st133{clip-path:url(#SVGID_2_);fill:#7D7D7B;}
	.st134{clip-path:url(#SVGID_2_);fill:#7C7C7A;}
	.st135{clip-path:url(#SVGID_2_);fill:#7B7B79;}
	.st136{clip-path:url(#SVGID_2_);fill:#7A7A78;}
	.st137{clip-path:url(#SVGID_2_);fill:#797977;}
	.st138{clip-path:url(#SVGID_2_);fill:#787876;}
	.st139{clip-path:url(#SVGID_2_);fill:#777775;}
	.st140{clip-path:url(#SVGID_2_);fill:#767674;}
	.st141{clip-path:url(#SVGID_2_);fill:#757573;}
	.st142{clip-path:url(#SVGID_2_);fill:#747472;}
	.st143{clip-path:url(#SVGID_2_);fill:#737371;}
	.st144{clip-path:url(#SVGID_2_);fill:#727270;}
	.st145{clip-path:url(#SVGID_2_);fill:#71716F;}
	.st146{clip-path:url(#SVGID_2_);fill:#70706E;}
	.st147{clip-path:url(#SVGID_2_);fill:#6F6F6D;}
	.st148{clip-path:url(#SVGID_2_);fill:#6E6E6C;}
	.st149{clip-path:url(#SVGID_2_);fill:#6D6D6B;}
	.st150{clip-path:url(#SVGID_2_);fill:#6C6C6A;}
	.st151{clip-path:url(#SVGID_2_);fill:#6B6B69;}
	.st152{clip-path:url(#SVGID_2_);fill:#6A6A68;}
	.st153{clip-path:url(#SVGID_2_);fill:#696967;}
	.st154{clip-path:url(#SVGID_2_);fill:#686866;}
	.st155{clip-path:url(#SVGID_2_);fill:#676765;}
	.st156{clip-path:url(#SVGID_2_);fill:#666664;}
	.st157{clip-path:url(#SVGID_2_);fill:#656563;}
	.st158{clip-path:url(#SVGID_2_);fill:#646462;}
	.st159{clip-path:url(#SVGID_2_);fill:#636361;}
	.st160{clip-path:url(#SVGID_2_);fill:#626260;}
	.st161{clip-path:url(#SVGID_2_);fill:#61615F;}
	.st162{clip-path:url(#SVGID_2_);fill:#60605E;}
	.st163{clip-path:url(#SVGID_2_);fill:#5F5F5D;}
	.st164{clip-path:url(#SVGID_2_);fill:#5E5E5C;}
	.st165{clip-path:url(#SVGID_2_);fill:#5D5D5B;}
	.st166{clip-path:url(#SVGID_2_);fill:#5C5C5A;}
	.st167{clip-path:url(#SVGID_2_);fill:#5B5B59;}
	.st168{clip-path:url(#SVGID_2_);fill:#5A5A58;}
	.st169{clip-path:url(#SVGID_2_);fill:#595957;}
	.st170{clip-path:url(#SVGID_2_);fill:#585856;}
	.st171{clip-path:url(#SVGID_2_);fill:#575755;}
	.st172{clip-path:url(#SVGID_2_);fill:#565654;}
	.st173{clip-path:url(#SVGID_2_);fill:#555553;}
	.st174{clip-path:url(#SVGID_2_);fill:#545452;}
	.st175{clip-path:url(#SVGID_2_);fill:#535351;}
	.st176{clip-path:url(#SVGID_2_);fill:#525250;}
	.st177{clip-path:url(#SVGID_2_);fill:#51514F;}
	.st178{clip-path:url(#SVGID_2_);fill:#50504E;}
	.st179{clip-path:url(#SVGID_2_);fill:#4F4F4D;}
	.st180{clip-path:url(#SVGID_2_);fill:#4E4E4C;}
	.st181{clip-path:url(#SVGID_2_);fill:#4D4D4B;}
	.st182{clip-path:url(#SVGID_2_);fill:#4C4C4A;}
	.st183{clip-path:url(#SVGID_2_);fill:#4B4B49;}
	.st184{clip-path:url(#SVGID_2_);fill:#4A4A48;}
	.st185{clip-path:url(#SVGID_2_);fill:#494947;}
	.st186{clip-path:url(#SVGID_2_);fill:#484846;}
	.st187{clip-path:url(#SVGID_2_);fill:#474745;}
	.st188{clip-path:url(#SVGID_2_);fill:#464644;}
	.st189{clip-path:url(#SVGID_2_);fill:#454543;}
	.st190{clip-path:url(#SVGID_2_);fill:#444442;}
	.st191{clip-path:url(#SVGID_2_);fill:#434341;}
	.st192{clip-path:url(#SVGID_2_);fill:#424240;}
	.st193{clip-path:url(#SVGID_2_);fill:#41413F;}
	.st194{clip-path:url(#SVGID_2_);fill:#40403E;}
	.st195{clip-path:url(#SVGID_2_);fill:#3F3F3D;}
	.st196{clip-path:url(#SVGID_2_);fill:#3E3E3C;}
	.st197{clip-path:url(#SVGID_2_);fill:#3D3D3B;}
	.st198{clip-path:url(#SVGID_2_);fill:#3C3C3A;}
	.st199{clip-path:url(#SVGID_2_);fill:#3B3B39;}
	.st200{clip-path:url(#SVGID_2_);fill:#3A3A38;}
	.st201{clip-path:url(#SVGID_2_);fill:#393937;}
	.st202{clip-path:url(#SVGID_2_);fill:#383836;}
	.st203{clip-path:url(#SVGID_2_);fill:#373735;}
	.st204{clip-path:url(#SVGID_2_);fill:#363634;}
	.st205{clip-path:url(#SVGID_2_);fill:#353533;}
	.st206{clip-path:url(#SVGID_2_);fill:#343432;}
	.st207{clip-path:url(#SVGID_2_);fill:#333331;}
	.st208{clip-path:url(#SVGID_2_);fill:#323230;}
	.st209{clip-path:url(#SVGID_2_);fill:#31312F;}
	.st210{clip-path:url(#SVGID_2_);fill:#30302E;}
	.st211{clip-path:url(#SVGID_2_);fill:#2F2F2D;}
	.st212{clip-path:url(#SVGID_2_);fill:#2E2E2C;}
	.st213{clip-path:url(#SVGID_2_);fill:#2D2D2B;}
	.st214{clip-path:url(#SVGID_2_);fill:#2C2C2A;}
	.st215{clip-path:url(#SVGID_2_);fill:#2B2B29;}
	.st216{clip-path:url(#SVGID_2_);fill:#2A2A28;}
	.st217{clip-path:url(#SVGID_2_);fill:#292927;}
	.st218{clip-path:url(#SVGID_2_);fill:#282826;}
	.st219{clip-path:url(#SVGID_2_);fill:#272725;}
	.st220{clip-path:url(#SVGID_2_);fill:#262624;}
	.st221{clip-path:url(#SVGID_2_);fill:#252523;}
	.st222{clip-path:url(#SVGID_2_);fill:#242422;}
	.st223{clip-path:url(#SVGID_2_);fill:#232321;}
	.st224{clip-path:url(#SVGID_2_);fill:#222220;}
	.st225{clip-path:url(#SVGID_2_);fill:#21211F;}
	.st226{clip-path:url(#SVGID_2_);fill:#20201E;}
	.st227{clip-path:url(#SVGID_2_);fill:#1F1F1D;}
	.st228{clip-path:url(#SVGID_2_);fill:#1E1E1C;}
	.st229{clip-path:url(#SVGID_2_);fill:#1D1D1B;}
	.st230{fill:#FFFFFF;}
</style>
<g>
	<g>
		<path class="st0" d="M181.41,56.15H38.59c-14.44,0-26.15-11.71-26.15-26.15v0c0-14.44,11.71-26.15,26.15-26.15h142.81
			c14.44,0,26.15,11.71,26.15,26.15v0C207.56,44.44,195.85,56.15,181.41,56.15z"/>
	</g>
	<g class="st1">
		<g>
			<defs>
				<path id="SVGID_1_" d="M47.72,24.88c21.15-4.15,42.81-4.98,64.31-4.62c22.37,0.37,44.73,1.48,67.11,1.07
					c4.21-0.08,22.97-0.27,27.13-1c0,0-3.11-15.36-24.56-16.48c-0.09,0,9.73,0,9.64,0H34.99c-12.46,0-22.55,10.1-22.55,22.55v0
					c0,4.41,4.4,7.47,8.54,5.93C29.65,29.1,38.64,26.66,47.72,24.88z"/>
			</defs>
			<clipPath id="SVGID_2_">
				<use xlink:href="#SVGID_1_"  style="overflow:visible;"/>
			</clipPath>
			<path class="st2" d="M12.44,3.84v30.03V3.84z"/>
			<rect x="12.44" y="3.84" class="st2" width="0.85" height="30.03"/>
			<rect x="13.29" y="3.84" class="st3" width="0.85" height="30.03"/>
			<rect x="14.14" y="3.84" class="st4" width="0.85" height="30.03"/>
			<rect x="14.99" y="3.84" class="st5" width="0.85" height="30.03"/>
			<rect x="15.84" y="3.84" class="st6" width="0.85" height="30.03"/>
			<rect x="16.69" y="3.84" class="st7" width="0.85" height="30.03"/>
			<rect x="17.54" y="3.84" class="st8" width="0.85" height="30.03"/>
			<rect x="18.39" y="3.84" class="st9" width="0.85" height="30.03"/>
			<rect x="19.24" y="3.84" class="st10" width="0.85" height="30.03"/>
			<rect x="20.09" y="3.84" class="st11" width="0.85" height="30.03"/>
			<rect x="20.94" y="3.84" class="st12" width="0.85" height="30.03"/>
			<rect x="21.79" y="3.84" class="st13" width="0.85" height="30.03"/>
			<rect x="22.64" y="3.84" class="st14" width="0.85" height="30.03"/>
			<rect x="23.49" y="3.84" class="st15" width="0.85" height="30.03"/>
			<rect x="24.34" y="3.84" class="st16" width="0.85" height="30.03"/>
			<rect x="25.19" y="3.84" class="st17" width="0.85" height="30.03"/>
			<rect x="26.04" y="3.84" class="st18" width="0.85" height="30.03"/>
			<rect x="26.89" y="3.84" class="st19" width="0.85" height="30.03"/>
			<rect x="27.74" y="3.84" class="st20" width="0.85" height="30.03"/>
			<rect x="28.59" y="3.84" class="st21" width="0.85" height="30.03"/>
			<rect x="29.44" y="3.84" class="st22" width="0.85" height="30.03"/>
			<rect x="30.29" y="3.84" class="st23" width="0.85" height="30.03"/>
			<rect x="31.14" y="3.84" class="st24" width="0.85" height="30.03"/>
			<rect x="31.99" y="3.84" class="st25" width="0.85" height="30.03"/>
			<rect x="32.84" y="3.84" class="st26" width="0.85" height="30.03"/>
			<rect x="33.69" y="3.84" class="st27" width="0.85" height="30.03"/>
			<rect x="34.54" y="3.84" class="st28" width="0.85" height="30.03"/>
			<rect x="35.39" y="3.84" class="st29" width="0.85" height="30.03"/>
			<rect x="36.24" y="3.84" class="st30" width="0.85" height="30.03"/>
			<rect x="37.09" y="3.84" class="st31" width="0.85" height="30.03"/>
			<rect x="37.94" y="3.84" class="st32" width="0.85" height="30.03"/>
			<rect x="38.79" y="3.84" class="st33" width="0.85" height="30.03"/>
			<rect x="39.64" y="3.84" class="st34" width="0.85" height="30.03"/>
			<rect x="40.49" y="3.84" class="st35" width="0.85" height="30.03"/>
			<rect x="41.34" y="3.84" class="st36" width="0.85" height="30.03"/>
			<rect x="42.19" y="3.84" class="st37" width="0.85" height="30.03"/>
			<rect x="43.04" y="3.84" class="st38" width="0.85" height="30.03"/>
			<rect x="43.89" y="3.84" class="st39" width="0.85" height="30.03"/>
			<rect x="44.74" y="3.84" class="st40" width="0.85" height="30.03"/>
			<rect x="45.59" y="3.84" class="st41" width="0.85" height="30.03"/>
			<rect x="46.44" y="3.84" class="st42" width="0.85" height="30.03"/>
			<rect x="47.29" y="3.84" class="st43" width="0.85" height="30.03"/>
			<rect x="48.14" y="3.84" class="st44" width="0.85" height="30.03"/>
			<rect x="48.99" y="3.84" class="st45" width="0.85" height="30.03"/>
			<rect x="49.84" y="3.84" class="st46" width="0.85" height="30.03"/>
			<rect x="50.7" y="3.84" class="st47" width="0.85" height="30.03"/>
			<rect x="51.55" y="3.84" class="st48" width="0.85" height="30.03"/>
			<rect x="52.4" y="3.84" class="st49" width="0.85" height="30.03"/>
			<rect x="53.25" y="3.84" class="st50" width="0.85" height="30.03"/>
			<rect x="54.1" y="3.84" class="st51" width="0.85" height="30.03"/>
			<rect x="54.95" y="3.84" class="st52" width="0.85" height="30.03"/>
			<rect x="55.8" y="3.84" class="st53" width="0.85" height="30.03"/>
			<rect x="56.65" y="3.84" class="st54" width="0.85" height="30.03"/>
			<rect x="57.5" y="3.84" class="st55" width="0.85" height="30.03"/>
			<rect x="58.35" y="3.84" class="st56" width="0.85" height="30.03"/>
			<rect x="59.2" y="3.84" class="st57" width="0.85" height="30.03"/>
			<rect x="60.05" y="3.84" class="st58" width="0.85" height="30.03"/>
			<rect x="60.9" y="3.84" class="st59" width="0.85" height="30.03"/>
			<rect x="61.75" y="3.84" class="st60" width="0.85" height="30.03"/>
			<rect x="62.6" y="3.84" class="st61" width="0.85" height="30.03"/>
			<rect x="63.45" y="3.84" class="st62" width="0.85" height="30.03"/>
			<rect x="64.3" y="3.84" class="st63" width="0.85" height="30.03"/>
			<rect x="65.15" y="3.84" class="st64" width="0.85" height="30.03"/>
			<rect x="66" y="3.84" class="st65" width="0.85" height="30.03"/>
			<rect x="66.85" y="3.84" class="st66" width="0.85" height="30.03"/>
			<rect x="67.7" y="3.84" class="st67" width="0.85" height="30.03"/>
			<rect x="68.55" y="3.84" class="st68" width="0.85" height="30.03"/>
			<rect x="69.4" y="3.84" class="st69" width="0.85" height="30.03"/>
			<rect x="70.25" y="3.84" class="st70" width="0.85" height="30.03"/>
			<rect x="71.1" y="3.84" class="st71" width="0.85" height="30.03"/>
			<rect x="71.95" y="3.84" class="st72" width="0.85" height="30.03"/>
			<rect x="72.8" y="3.84" class="st73" width="0.85" height="30.03"/>
			<rect x="73.65" y="3.84" class="st74" width="0.85" height="30.03"/>
			<rect x="74.5" y="3.84" class="st75" width="0.85" height="30.03"/>
			<rect x="75.35" y="3.84" class="st76" width="0.85" height="30.03"/>
			<rect x="76.2" y="3.84" class="st77" width="0.85" height="30.03"/>
			<rect x="77.05" y="3.84" class="st78" width="0.85" height="30.03"/>
			<rect x="77.9" y="3.84" class="st79" width="0.85" height="30.03"/>
			<rect x="78.75" y="3.84" class="st80" width="0.85" height="30.03"/>
			<rect x="79.6" y="3.84" class="st81" width="0.85" height="30.03"/>
			<rect x="80.45" y="3.84" class="st82" width="0.85" height="30.03"/>
			<rect x="81.3" y="3.84" class="st83" width="0.85" height="30.03"/>
			<rect x="82.15" y="3.84" class="st84" width="0.85" height="30.03"/>
			<rect x="83" y="3.84" class="st85" width="0.85" height="30.03"/>
			<rect x="83.85" y="3.84" class="st86" width="0.85" height="30.03"/>
			<rect x="84.7" y="3.84" class="st87" width="0.85" height="30.03"/>
			<rect x="85.55" y="3.84" class="st88" width="0.85" height="30.03"/>
			<rect x="86.4" y="3.84" class="st89" width="0.85" height="30.03"/>
			<rect x="87.25" y="3.84" class="st90" width="0.85" height="30.03"/>
			<rect x="88.1" y="3.84" class="st91" width="0.85" height="30.03"/>
			<rect x="88.95" y="3.84" class="st92" width="0.85" height="30.03"/>
			<rect x="89.8" y="3.84" class="st93" width="0.85" height="30.03"/>
			<rect x="90.65" y="3.84" class="st94" width="0.85" height="30.03"/>
			<rect x="91.5" y="3.84" class="st95" width="0.85" height="30.03"/>
			<rect x="92.35" y="3.84" class="st96" width="0.85" height="30.03"/>
			<rect x="93.2" y="3.84" class="st97" width="0.85" height="30.03"/>
			<rect x="94.05" y="3.84" class="st98" width="0.85" height="30.03"/>
			<rect x="94.9" y="3.84" class="st99" width="0.85" height="30.03"/>
			<rect x="95.75" y="3.84" class="st100" width="0.85" height="30.03"/>
			<rect x="96.6" y="3.84" class="st101" width="0.85" height="30.03"/>
			<rect x="97.45" y="3.84" class="st102" width="0.85" height="30.03"/>
			<rect x="98.3" y="3.84" class="st103" width="0.85" height="30.03"/>
			<rect x="99.15" y="3.84" class="st104" width="0.85" height="30.03"/>
			<rect x="100" y="3.84" class="st105" width="0.85" height="30.03"/>
			<rect x="100.85" y="3.84" class="st106" width="0.85" height="30.03"/>
			<rect x="101.7" y="3.84" class="st107" width="0.85" height="30.03"/>
			<rect x="102.55" y="3.84" class="st108" width="0.85" height="30.03"/>
			<rect x="103.4" y="3.84" class="st109" width="0.85" height="30.03"/>
			<rect x="104.25" y="3.84" class="st110" width="0.85" height="30.03"/>
			<rect x="105.1" y="3.84" class="st111" width="0.85" height="30.03"/>
			<rect x="105.95" y="3.84" class="st112" width="0.85" height="30.03"/>
			<rect x="106.8" y="3.84" class="st113" width="0.85" height="30.03"/>
			<rect x="107.65" y="3.84" class="st114" width="0.85" height="30.03"/>
			<rect x="108.5" y="3.84" class="st115" width="0.85" height="30.03"/>
			<rect x="109.35" y="3.84" class="st116" width="0.85" height="30.03"/>
			<rect x="110.2" y="3.84" class="st117" width="0.85" height="30.03"/>
			<rect x="111.05" y="3.84" class="st118" width="0.85" height="30.03"/>
			<rect x="111.9" y="3.84" class="st119" width="0.85" height="30.03"/>
			<rect x="112.75" y="3.84" class="st120" width="0.85" height="30.03"/>
			<rect x="113.6" y="3.84" class="st121" width="0.85" height="30.03"/>
			<rect x="114.45" y="3.84" class="st122" width="0.85" height="30.03"/>
			<rect x="115.3" y="3.84" class="st123" width="0.85" height="30.03"/>
			<rect x="116.15" y="3.84" class="st124" width="0.85" height="30.03"/>
			<rect x="117" y="3.84" class="st125" width="0.85" height="30.03"/>
			<rect x="117.85" y="3.84" class="st126" width="0.85" height="30.03"/>
			<rect x="118.7" y="3.84" class="st127" width="0.85" height="30.03"/>
			<rect x="119.55" y="3.84" class="st128" width="0.85" height="30.03"/>
			<rect x="120.4" y="3.84" class="st129" width="0.85" height="30.03"/>
			<rect x="121.25" y="3.84" class="st130" width="0.85" height="30.03"/>
			<rect x="122.1" y="3.84" class="st131" width="0.85" height="30.03"/>
			<rect x="122.95" y="3.84" class="st132" width="0.85" height="30.03"/>
			<rect x="123.8" y="3.84" class="st133" width="0.85" height="30.03"/>
			<rect x="124.65" y="3.84" class="st134" width="0.85" height="30.03"/>
			<rect x="125.5" y="3.84" class="st135" width="0.85" height="30.03"/>
			<rect x="126.35" y="3.84" class="st136" width="0.85" height="30.03"/>
			<rect x="127.2" y="3.84" class="st137" width="0.85" height="30.03"/>
			<rect x="128.05" y="3.84" class="st138" width="0.85" height="30.03"/>
			<rect x="128.91" y="3.84" class="st139" width="0.85" height="30.03"/>
			<rect x="129.76" y="3.84" class="st140" width="0.85" height="30.03"/>
			<rect x="130.61" y="3.84" class="st141" width="0.85" height="30.03"/>
			<rect x="131.46" y="3.84" class="st142" width="0.85" height="30.03"/>
			<rect x="132.31" y="3.84" class="st143" width="0.85" height="30.03"/>
			<rect x="133.16" y="3.84" class="st144" width="0.85" height="30.03"/>
			<rect x="134.01" y="3.84" class="st145" width="0.85" height="30.03"/>
			<rect x="134.86" y="3.84" class="st146" width="0.85" height="30.03"/>
			<rect x="135.71" y="3.84" class="st147" width="0.85" height="30.03"/>
			<rect x="136.56" y="3.84" class="st148" width="0.85" height="30.03"/>
			<rect x="137.41" y="3.84" class="st149" width="0.85" height="30.03"/>
			<rect x="138.26" y="3.84" class="st150" width="0.85" height="30.03"/>
			<rect x="139.11" y="3.84" class="st151" width="0.85" height="30.03"/>
			<rect x="139.96" y="3.84" class="st152" width="0.85" height="30.03"/>
			<rect x="140.81" y="3.84" class="st153" width="0.85" height="30.03"/>
			<rect x="141.66" y="3.84" class="st154" width="0.85" height="30.03"/>
			<rect x="142.51" y="3.84" class="st155" width="0.85" height="30.03"/>
			<rect x="143.36" y="3.84" class="st156" width="0.85" height="30.03"/>
			<rect x="144.21" y="3.84" class="st157" width="0.85" height="30.03"/>
			<rect x="145.06" y="3.84" class="st158" width="0.85" height="30.03"/>
			<rect x="145.91" y="3.84" class="st159" width="0.85" height="30.03"/>
			<rect x="146.76" y="3.84" class="st160" width="0.85" height="30.03"/>
			<rect x="147.61" y="3.84" class="st161" width="0.85" height="30.03"/>
			<rect x="148.46" y="3.84" class="st162" width="0.85" height="30.03"/>
			<rect x="149.31" y="3.84" class="st163" width="0.85" height="30.03"/>
			<rect x="150.16" y="3.84" class="st164" width="0.85" height="30.03"/>
			<rect x="151.01" y="3.84" class="st165" width="0.85" height="30.03"/>
			<rect x="151.86" y="3.84" class="st166" width="0.85" height="30.03"/>
			<rect x="152.71" y="3.84" class="st167" width="0.85" height="30.03"/>
			<rect x="153.56" y="3.84" class="st168" width="0.85" height="30.03"/>
			<rect x="154.41" y="3.84" class="st169" width="0.85" height="30.03"/>
			<rect x="155.26" y="3.84" class="st170" width="0.85" height="30.03"/>
			<rect x="156.11" y="3.84" class="st171" width="0.85" height="30.03"/>
			<rect x="156.96" y="3.84" class="st172" width="0.85" height="30.03"/>
			<rect x="157.81" y="3.84" class="st173" width="0.85" height="30.03"/>
			<rect x="158.66" y="3.84" class="st174" width="0.85" height="30.03"/>
			<rect x="159.51" y="3.84" class="st175" width="0.85" height="30.03"/>
			<rect x="160.36" y="3.84" class="st176" width="0.85" height="30.03"/>
			<rect x="161.21" y="3.84" class="st177" width="0.85" height="30.03"/>
			<rect x="162.06" y="3.84" class="st178" width="0.85" height="30.03"/>
			<rect x="162.91" y="3.84" class="st179" width="0.85" height="30.03"/>
			<rect x="163.76" y="3.84" class="st180" width="0.85" height="30.03"/>
			<rect x="164.61" y="3.84" class="st181" width="0.85" height="30.03"/>
			<rect x="165.46" y="3.84" class="st182" width="0.85" height="30.03"/>
			<rect x="166.31" y="3.84" class="st183" width="0.85" height="30.03"/>
			<rect x="167.16" y="3.84" class="st184" width="0.85" height="30.03"/>
			<rect x="168.01" y="3.84" class="st185" width="0.85" height="30.03"/>
			<rect x="168.86" y="3.84" class="st186" width="0.85" height="30.03"/>
			<rect x="169.71" y="3.84" class="st187" width="0.85" height="30.03"/>
			<rect x="170.56" y="3.84" class="st188" width="0.85" height="30.03"/>
			<rect x="171.41" y="3.84" class="st189" width="0.85" height="30.03"/>
			<rect x="172.26" y="3.84" class="st190" width="0.85" height="30.03"/>
			<rect x="173.11" y="3.84" class="st191" width="0.85" height="30.03"/>
			<rect x="173.96" y="3.84" class="st192" width="0.85" height="30.03"/>
			<rect x="174.81" y="3.84" class="st193" width="0.85" height="30.03"/>
			<rect x="175.66" y="3.84" class="st194" width="0.85" height="30.03"/>
			<rect x="176.51" y="3.84" class="st195" width="0.85" height="30.03"/>
			<rect x="177.36" y="3.84" class="st196" width="0.85" height="30.03"/>
			<rect x="178.21" y="3.84" class="st197" width="0.85" height="30.03"/>
			<rect x="179.06" y="3.84" class="st198" width="0.85" height="30.03"/>
			<rect x="179.91" y="3.84" class="st199" width="0.85" height="30.03"/>
			<rect x="180.76" y="3.84" class="st200" width="0.85" height="30.03"/>
			<rect x="181.61" y="3.84" class="st201" width="0.85" height="30.03"/>
			<rect x="182.46" y="3.84" class="st202" width="0.85" height="30.03"/>
			<rect x="183.31" y="3.84" class="st203" width="0.85" height="30.03"/>
			<rect x="184.16" y="3.84" class="st204" width="0.85" height="30.03"/>
			<rect x="185.01" y="3.84" class="st205" width="0.85" height="30.03"/>
			<rect x="185.86" y="3.84" class="st206" width="0.85" height="30.03"/>
			<rect x="186.71" y="3.84" class="st207" width="0.85" height="30.03"/>
			<rect x="187.56" y="3.84" class="st208" width="0.85" height="30.03"/>
			<rect x="188.41" y="3.84" class="st209" width="0.85" height="30.03"/>
			<rect x="189.26" y="3.84" class="st210" width="0.85" height="30.03"/>
			<rect x="190.11" y="3.84" class="st211" width="0.85" height="30.03"/>
			<rect x="190.96" y="3.84" class="st212" width="0.85" height="30.03"/>
			<rect x="191.81" y="3.84" class="st213" width="0.85" height="30.03"/>
			<rect x="192.66" y="3.84" class="st214" width="0.85" height="30.03"/>
			<rect x="193.51" y="3.84" class="st215" width="0.85" height="30.03"/>
			<rect x="194.36" y="3.84" class="st216" width="0.85" height="30.03"/>
			<rect x="195.21" y="3.84" class="st217" width="0.85" height="30.03"/>
			<rect x="196.06" y="3.84" class="st218" width="0.85" height="30.03"/>
			<rect x="196.91" y="3.84" class="st219" width="0.85" height="30.03"/>
			<rect x="197.76" y="3.84" class="st220" width="0.85" height="30.03"/>
			<rect x="198.61" y="3.84" class="st221" width="0.85" height="30.03"/>
			<rect x="199.46" y="3.84" class="st222" width="0.85" height="30.03"/>
			<rect x="200.31" y="3.84" class="st223" width="0.85" height="30.03"/>
			<rect x="201.16" y="3.84" class="st224" width="0.85" height="30.03"/>
			<rect x="202.01" y="3.84" class="st225" width="0.85" height="30.03"/>
			<rect x="202.86" y="3.84" class="st226" width="0.85" height="30.03"/>
			<rect x="203.71" y="3.84" class="st227" width="0.85" height="30.03"/>
			<rect x="204.56" y="3.84" class="st228" width="0.85" height="30.03"/>
			<rect x="205.41" y="3.84" class="st229" width="0.85" height="30.03"/>
			<path class="st229" d="M206.26,33.87V3.84V33.87z"/>
		</g>
	</g>
	<g>
		<path class="st230" d="M51.85,16.18h7.91c1.48,0,2.97,0.25,4.46,0.74c1.49,0.49,2.84,1.24,4.04,2.24c1.2,1,2.17,2.24,2.91,3.74
			c0.74,1.49,1.11,3.23,1.11,5.2c0,2-0.37,3.74-1.11,5.22c-0.74,1.48-1.71,2.72-2.91,3.72c-1.2,1-2.55,1.74-4.04,2.24
			c-1.49,0.49-2.98,0.74-4.46,0.74h-7.91V16.18z M54.27,37.86h4.81c1.8,0,3.36-0.28,4.7-0.84c1.33-0.56,2.44-1.3,3.32-2.2
			c0.88-0.91,1.53-1.95,1.97-3.11c0.44-1.17,0.66-2.37,0.66-3.6c0-1.23-0.22-2.43-0.66-3.6c-0.44-1.17-1.09-2.2-1.97-3.11
			c-0.88-0.91-1.98-1.64-3.32-2.21c-1.34-0.56-2.9-0.84-4.7-0.84h-4.81V37.86z"/>
		<path class="st230" d="M98.24,32.14c0,1.19-0.21,2.29-0.62,3.3c-0.42,1.01-0.99,1.89-1.73,2.63c-0.74,0.74-1.63,1.32-2.66,1.73
			c-1.03,0.41-2.17,0.62-3.4,0.62c-1.21,0-2.33-0.21-3.37-0.62c-1.03-0.42-1.92-0.99-2.66-1.73c-0.74-0.74-1.32-1.62-1.73-2.63
			c-0.42-1.01-0.62-2.11-0.62-3.3c0-1.19,0.21-2.29,0.62-3.3c0.41-1.01,0.99-1.88,1.73-2.63c0.74-0.74,1.63-1.32,2.66-1.73
			c1.03-0.42,2.15-0.62,3.37-0.62c1.23,0,2.37,0.21,3.4,0.62c1.03,0.42,1.92,0.99,2.66,1.73c0.74,0.74,1.32,1.62,1.73,2.63
			C98.03,29.85,98.24,30.95,98.24,32.14z M95.81,32.14c0-0.88-0.14-1.7-0.42-2.47c-0.28-0.77-0.68-1.45-1.19-2.02
			c-0.52-0.57-1.14-1.03-1.89-1.36c-0.74-0.34-1.57-0.5-2.49-0.5c-0.92,0-1.75,0.17-2.47,0.5c-0.73,0.34-1.35,0.79-1.87,1.36
			c-0.52,0.57-0.91,1.24-1.19,2.02c-0.28,0.77-0.42,1.6-0.42,2.47c0,0.88,0.14,1.7,0.42,2.47c0.28,0.77,0.68,1.45,1.19,2.02
			c0.52,0.57,1.14,1.02,1.87,1.35c0.73,0.33,1.55,0.49,2.47,0.49c0.92,0,1.75-0.16,2.49-0.49c0.74-0.33,1.37-0.77,1.89-1.35
			c0.52-0.57,0.91-1.25,1.19-2.02C95.67,33.84,95.81,33.01,95.81,32.14z"/>
		<path class="st230" d="M110.59,24.26c0.04,0.43,0.08,0.9,0.1,1.41c0.02,0.52,0.03,0.94,0.03,1.28h0.07
			c0.45-0.92,1.18-1.67,2.19-2.24c1.01-0.57,2.08-0.86,3.2-0.86c2,0,3.5,0.59,4.49,1.78c1,1.19,1.5,2.76,1.5,4.71v9.66h-2.29V31.3
			c0-0.83-0.07-1.58-0.2-2.26c-0.13-0.67-0.36-1.25-0.69-1.73c-0.33-0.48-0.76-0.86-1.31-1.13c-0.55-0.27-1.24-0.4-2.07-0.4
			c-0.61,0-1.19,0.12-1.77,0.37c-0.57,0.25-1.08,0.62-1.53,1.13c-0.45,0.51-0.81,1.15-1.08,1.92c-0.27,0.77-0.4,1.69-0.4,2.74v8.08
			h-2.29V27.73c0-0.43-0.01-0.98-0.03-1.65c-0.02-0.67-0.06-1.28-0.1-1.82H110.59z"/>
		<path class="st230" d="M143.41,29.82c0-1.36-0.36-2.37-1.08-3.04c-0.72-0.67-1.76-1-3.13-1c-0.94,0-1.82,0.17-2.63,0.5
			c-0.81,0.34-1.49,0.79-2.05,1.35l-1.28-1.51c0.65-0.65,1.51-1.19,2.58-1.62c1.07-0.43,2.27-0.64,3.62-0.64
			c0.85,0,1.65,0.12,2.39,0.35c0.74,0.24,1.39,0.59,1.95,1.06c0.56,0.47,1,1.07,1.31,1.78c0.31,0.72,0.47,1.56,0.47,2.52v6.9
			c0,0.61,0.02,1.24,0.07,1.89c0.04,0.65,0.11,1.2,0.2,1.65h-2.05c-0.07-0.38-0.12-0.8-0.17-1.25c-0.05-0.45-0.07-0.89-0.07-1.31
			h-0.07c-0.72,1.06-1.53,1.81-2.44,2.27c-0.91,0.46-2,0.69-3.28,0.69c-0.61,0-1.23-0.08-1.87-0.25c-0.64-0.17-1.22-0.44-1.75-0.83
			c-0.53-0.38-0.97-0.88-1.31-1.49c-0.35-0.61-0.52-1.35-0.52-2.23c0-1.22,0.31-2.18,0.93-2.89c0.62-0.71,1.44-1.24,2.47-1.59
			c1.03-0.35,2.22-0.57,3.55-0.68c1.34-0.1,2.72-0.15,4.16-0.15V29.82z M142.74,32.14c-0.94,0-1.89,0.04-2.84,0.12
			c-0.95,0.08-1.82,0.24-2.59,0.47c-0.77,0.24-1.41,0.58-1.9,1.03c-0.49,0.45-0.74,1.04-0.74,1.78c0,0.56,0.11,1.03,0.32,1.41
			c0.21,0.38,0.5,0.69,0.86,0.93c0.36,0.24,0.76,0.4,1.19,0.51c0.44,0.1,0.88,0.15,1.33,0.15c0.81,0,1.53-0.14,2.15-0.42
			c0.63-0.28,1.16-0.66,1.58-1.15c0.43-0.48,0.75-1.04,0.98-1.67c0.22-0.63,0.34-1.29,0.34-1.99v-1.18H142.74z"/>
		<path class="st230" d="M156.81,26.08c-0.02-0.67-0.06-1.28-0.1-1.82h2.19c0.04,0.43,0.08,0.9,0.1,1.41
			c0.02,0.52,0.03,0.94,0.03,1.28h0.07c0.45-0.92,1.12-1.67,2.02-2.24c0.9-0.57,1.91-0.86,3.03-0.86c0.29,0,0.56,0.01,0.79,0.03
			c0.24,0.02,0.48,0.07,0.72,0.14l-0.3,2.19c-0.13-0.04-0.36-0.09-0.67-0.13c-0.31-0.04-0.63-0.07-0.94-0.07
			c-0.61,0-1.19,0.11-1.75,0.34c-0.56,0.22-1.05,0.58-1.46,1.06c-0.42,0.48-0.75,1.1-1.01,1.85c-0.26,0.75-0.39,1.65-0.39,2.7v8.06
			h-2.29V27.73C156.84,27.3,156.83,26.75,156.81,26.08z"/>
	</g>
</g>
</svg>
