<?xml version="1.0" encoding="utf-8"?>
<!-- Generator: Adobe Illustrator 25.0.0, SVG Export Plug-In . SVG Version: 6.00 Build 0)  -->
<svg version="1.1" id="Capa_1" xmlns="http://www.w3.org/2000/svg" xmlns:xlink="http://www.w3.org/1999/xlink" x="0px" y="0px"
	 viewBox="0 0 220 60" style="enable-background:new 0 0 220 60;" xml:space="preserve">
<style type="text/css">
	.st0{fill:#A8A8A8;}
	.st1{opacity:0.4;fill:url(#SVGID_1_);enable-background:new    ;}
	.st2{fill:#FFFFFF;}
</style>
<g>
	<path class="st0" d="M181.4,56.2H38.6c-14.4,0-26.1-11.7-26.1-26.2l0,0c0-14.4,11.7-26.1,26.1-26.1h142.8
		c14.4,0,26.1,11.7,26.1,26.1l0,0C207.6,44.4,195.9,56.2,181.4,56.2z"/>
	
		<linearGradient id="SVGID_1_" gradientUnits="userSpaceOnUse" x1="12.445" y1="198.5024" x2="205.745" y2="198.5024" gradientTransform="matrix(1 0 0 -1 0 216.7941)">
		<stop  offset="0" style="stop-color:#FFFFFF"/>
		<stop  offset="1" style="stop-color:#000000"/>
	</linearGradient>
	<path class="st1" d="M47.7,24.9c21.2-4.1,42.8-5,64.3-4.6c22.4,0.4,44.7,1.5,67.1,1.1c4.2-0.1,22.4-0.2,26.6-0.9
		c0,0-5.5-15.9-24-16.5c-0.1,0,9.7,0,9.6,0H35c-12.5,0-22.5,10.1-22.5,22.5l0,0c0,4.4,4.4,7.5,8.5,5.9
		C29.7,29.1,38.6,26.7,47.7,24.9z"/>
	<g>
		<g>
			<path class="st2" d="M52.2,37.9H65V40H49.8V16.2h14.8v2.1H52.2v8.2h11.5v2.2H52.2V37.9z"/>
			<path class="st2" d="M77,24.3c0,0.4,0.1,0.9,0.1,1.4c0,0.5,0,0.9,0,1.3h0.1c0.4-0.9,1.2-1.7,2.2-2.2s2.1-0.9,3.2-0.9
				c2,0,3.5,0.6,4.5,1.8c1,1.2,1.5,2.8,1.5,4.7V40h-2.3v-8.7c0-0.8-0.1-1.6-0.2-2.2c-0.1-0.7-0.4-1.2-0.7-1.7s-0.8-0.9-1.3-1.1
				c-0.6-0.3-1.2-0.4-2.1-0.4c-0.6,0-1.2,0.1-1.8,0.4s-1.1,0.6-1.5,1.1c-0.4,0.5-0.8,1.1-1.1,1.9c-0.3,0.8-0.4,1.7-0.4,2.7V40H75
				V27.7c0-0.4,0-1,0-1.7c0-0.7-0.1-1.3-0.1-1.8H77z"/>
			<path class="st2" d="M106.4,40h-2.5l-6.4-15.8h2.6l5.1,13.3h0.1l5.2-13.3h2.5L106.4,40z"/>
			<path class="st2" d="M124.5,18.2c0,0.5-0.2,0.9-0.5,1.2c-0.3,0.3-0.7,0.5-1.1,0.5s-0.8-0.2-1.1-0.5c-0.3-0.3-0.5-0.7-0.5-1.2
				c0-0.5,0.2-0.9,0.5-1.2s0.7-0.5,1.1-0.5s0.8,0.1,1.1,0.5C124.4,17.3,124.5,17.7,124.5,18.2z M124.1,40h-2.3V24.3h2.3V40z"/>
			<path class="st2" d="M145.5,29.8c0-1.4-0.4-2.4-1.1-3s-1.8-1-3.1-1c-0.9,0-1.8,0.2-2.6,0.5c-0.8,0.3-1.5,0.8-2.1,1.3l-1.3-1.5
				c0.6-0.7,1.5-1.2,2.6-1.6s2.3-0.6,3.6-0.6c0.9,0,1.6,0.1,2.4,0.4c0.7,0.2,1.4,0.6,1.9,1.1c0.6,0.5,1,1.1,1.3,1.8
				c0.3,0.7,0.5,1.6,0.5,2.5v6.9c0,0.6,0,1.2,0.1,1.9c0,0.7,0.1,1.2,0.2,1.7h-2.1c-0.1-0.4-0.1-0.8-0.2-1.2s-0.1-0.9-0.1-1.3h-0.1
				c-0.7,1.1-1.5,1.8-2.4,2.3s-2,0.7-3.3,0.7c-0.6,0-1.2-0.1-1.9-0.2s-1.2-0.5-1.8-0.8s-1-0.9-1.3-1.5c-0.4-0.6-0.5-1.3-0.5-2.2
				c0-1.2,0.3-2.2,0.9-2.9s1.4-1.2,2.5-1.6c1-0.4,2.2-0.6,3.6-0.7c1.3-0.1,2.7-0.2,4.2-0.2L145.5,29.8L145.5,29.8z M144.8,32.1
				c-0.9,0-1.9,0-2.8,0.1c-0.9,0.1-1.8,0.2-2.6,0.5c-0.8,0.2-1.4,0.6-1.9,1c-0.5,0.5-0.7,1-0.7,1.8c0,0.6,0.1,1,0.3,1.4
				s0.5,0.7,0.9,0.9s0.8,0.4,1.2,0.5s0.9,0.2,1.3,0.2c0.8,0,1.5-0.1,2.1-0.4c0.6-0.3,1.2-0.7,1.6-1.1c0.4-0.5,0.8-1,1-1.7
				c0.2-0.6,0.3-1.3,0.3-2v-1.2L144.8,32.1L144.8,32.1z"/>
			<path class="st2" d="M158.9,26.1c0-0.7-0.1-1.3-0.1-1.8h2.2c0,0.4,0.1,0.9,0.1,1.4c0,0.5,0,0.9,0,1.3h0.1c0.4-0.9,1.1-1.7,2-2.2
				c0.9-0.6,1.9-0.9,3-0.9c0.3,0,0.6,0,0.8,0s0.5,0.1,0.7,0.1l-0.3,2.2c-0.1,0-0.4-0.1-0.7-0.1s-0.6-0.1-0.9-0.1
				c-0.6,0-1.2,0.1-1.8,0.3c-0.6,0.2-1.1,0.6-1.5,1.1c-0.4,0.5-0.8,1.1-1,1.8s-0.4,1.7-0.4,2.7V40h-2.3V27.7
				C158.9,27.3,158.9,26.8,158.9,26.1z"/>
		</g>
	</g>
</g>
</svg>
