<?xml version="1.0" encoding="utf-8"?>
<!-- Generator: Adobe Illustrator 25.0.0, SVG Export Plug-In . SVG Version: 6.00 Build 0)  -->
<svg version="1.1" id="Capa_1" xmlns="http://www.w3.org/2000/svg" xmlns:xlink="http://www.w3.org/1999/xlink" x="0px" y="0px"
	 viewBox="0 0 220 60" style="enable-background:new 0 0 220 60;" xml:space="preserve">
<style type="text/css">
	.st0{fill:#474747;}
	.st1{opacity:0.4;fill:url(#SVGID_1_);}
	.st2{fill:#FFFFFF;}
</style>
<g>
	<path class="st0" d="M181.41,56.15H38.59c-14.44,0-26.15-11.71-26.15-26.15v0c0-14.44,11.71-26.15,26.15-26.15h142.81
		c14.44,0,26.15,11.71,26.15,26.15v0C207.56,44.44,195.85,56.15,181.41,56.15z"/>
	<linearGradient id="SVGID_1_" gradientUnits="userSpaceOnUse" x1="12.4402" y1="18.2901" x2="205.7422" y2="18.2901">
		<stop  offset="0" style="stop-color:#FFFFFF"/>
		<stop  offset="1" style="stop-color:#000000"/>
	</linearGradient>
	<path class="st1" d="M47.72,24.87c21.15-4.15,42.81-4.98,64.31-4.62c22.37,0.37,44.73,1.48,67.11,1.07
		c4.21-0.08,22.45-0.2,26.6-0.92c0,0-5.46-15.88-24.04-16.55c-0.09,0,9.73,0,9.64,0H34.99c-12.46,0-22.55,10.1-22.55,22.55v0
		c0,4.41,4.4,7.47,8.54,5.93C29.65,29.1,38.64,26.66,47.72,24.87z"/>
	<g>
		<g>
			<path class="st2" d="M52.22,37.86h12.76v2.15H49.8V16.18h14.78v2.15H52.22v8.18h11.55v2.16H52.22V37.86z"/>
			<path class="st2" d="M77.03,24.26c0.04,0.43,0.08,0.9,0.1,1.41s0.03,0.94,0.03,1.28h0.07c0.45-0.92,1.18-1.67,2.19-2.24
				s2.08-0.86,3.2-0.86c2,0,3.5,0.6,4.49,1.78c1,1.19,1.5,2.76,1.5,4.71v9.66h-2.29V31.3c0-0.83-0.07-1.58-0.2-2.25
				c-0.13-0.67-0.37-1.25-0.69-1.73s-0.76-0.86-1.31-1.13c-0.55-0.27-1.24-0.4-2.07-0.4c-0.61,0-1.2,0.12-1.77,0.37
				c-0.57,0.25-1.08,0.62-1.53,1.13c-0.45,0.5-0.81,1.14-1.08,1.92c-0.27,0.77-0.4,1.69-0.4,2.74v8.08h-2.29V27.73
				c0-0.43-0.01-0.98-0.03-1.65c-0.02-0.67-0.06-1.28-0.1-1.82H77.03z"/>
			<path class="st2" d="M106.38,40.01h-2.52l-6.43-15.75h2.56l5.12,13.33h0.07l5.15-13.33h2.46L106.38,40.01z"/>
			<path class="st2" d="M124.52,18.2c0,0.47-0.17,0.86-0.5,1.16c-0.34,0.3-0.71,0.45-1.11,0.45c-0.4,0-0.77-0.15-1.11-0.45
				c-0.34-0.3-0.5-0.69-0.5-1.16c0-0.47,0.17-0.86,0.5-1.16s0.71-0.45,1.11-0.45c0.4,0,0.77,0.15,1.11,0.45
				S124.52,17.73,124.52,18.2z M124.05,40.01h-2.29V24.26h2.29V40.01z"/>
			<path class="st2" d="M145.46,29.82c0-1.36-0.36-2.37-1.08-3.04c-0.72-0.67-1.76-1-3.13-1c-0.94,0-1.82,0.17-2.63,0.5
				c-0.81,0.34-1.49,0.79-2.05,1.35l-1.28-1.51c0.65-0.65,1.51-1.19,2.58-1.62c1.07-0.43,2.27-0.64,3.62-0.64
				c0.85,0,1.65,0.12,2.39,0.35c0.74,0.24,1.39,0.59,1.95,1.06c0.56,0.47,1,1.07,1.31,1.78c0.31,0.72,0.47,1.56,0.47,2.52v6.9
				c0,0.61,0.02,1.23,0.07,1.88c0.04,0.65,0.11,1.2,0.2,1.65h-2.05c-0.07-0.38-0.12-0.8-0.17-1.25c-0.05-0.45-0.07-0.89-0.07-1.31
				h-0.07c-0.72,1.06-1.53,1.81-2.44,2.27c-0.91,0.46-2,0.69-3.28,0.69c-0.61,0-1.23-0.08-1.87-0.25c-0.64-0.17-1.22-0.45-1.75-0.83
				s-0.96-0.88-1.31-1.49c-0.35-0.61-0.52-1.35-0.52-2.23c0-1.22,0.31-2.18,0.93-2.89c0.62-0.71,1.44-1.24,2.47-1.59
				c1.03-0.35,2.22-0.57,3.55-0.68c1.33-0.1,2.72-0.15,4.16-0.15V29.82z M144.79,32.14c-0.94,0-1.89,0.04-2.84,0.12
				c-0.95,0.08-1.82,0.24-2.59,0.47c-0.77,0.24-1.41,0.58-1.9,1.03c-0.49,0.45-0.74,1.04-0.74,1.78c0,0.56,0.11,1.03,0.32,1.41
				c0.21,0.38,0.5,0.69,0.86,0.93c0.36,0.24,0.76,0.4,1.2,0.5c0.44,0.1,0.88,0.15,1.33,0.15c0.81,0,1.53-0.14,2.15-0.42
				c0.63-0.28,1.16-0.66,1.58-1.14c0.43-0.48,0.75-1.04,0.98-1.67c0.22-0.63,0.34-1.29,0.34-1.99v-1.18H144.79z"/>
			<path class="st2" d="M158.86,26.08c-0.02-0.67-0.06-1.28-0.1-1.82h2.19c0.04,0.43,0.08,0.9,0.1,1.41s0.03,0.94,0.03,1.28h0.07
				c0.45-0.92,1.12-1.67,2.02-2.24c0.9-0.57,1.91-0.86,3.03-0.86c0.29,0,0.56,0.01,0.79,0.03s0.48,0.07,0.72,0.13l-0.3,2.19
				c-0.13-0.04-0.36-0.09-0.67-0.13c-0.31-0.04-0.63-0.07-0.94-0.07c-0.61,0-1.19,0.11-1.75,0.34c-0.56,0.22-1.05,0.58-1.46,1.06
				c-0.42,0.48-0.75,1.1-1.01,1.85s-0.39,1.65-0.39,2.7v8.06h-2.29V27.73C158.89,27.3,158.88,26.75,158.86,26.08z"/>
		</g>
	</g>
</g>
</svg>
