<?xml version="1.0" encoding="utf-8"?>
<!-- Generator: Adobe Illustrator 25.0.0, SVG Export Plug-In . SVG Version: 6.00 Build 0)  -->
<svg version="1.1" id="Capa_1" xmlns="http://www.w3.org/2000/svg" xmlns:xlink="http://www.w3.org/1999/xlink" x="0px" y="0px"
	 viewBox="0 0 38 38" style="enable-background:new 0 0 38 38;" xml:space="preserve">
<style type="text/css">
	.st0{fill:#999999;}
</style>
<path class="st0" d="M29.22,0.62H8.78c-4.5,0-8.16,3.65-8.16,8.16v20.45c0,4.5,3.65,8.16,8.16,8.16h20.45c4.5,0,8.16-3.65,8.16-8.16
	V8.78C37.38,4.27,33.73,0.62,29.22,0.62z M34.51,29.22c0,2.92-2.37,5.28-5.28,5.28H24.6V24.03h4.6l0.54-4.45H24.6v-4.81
	c0-1.19,0.96-2.15,2.15-2.15h3.23V8.45c-0.85-0.12-2.49-0.29-3.23-0.29c-1.67,0-3.35,0.71-4.61,1.94c-1.29,1.27-2,2.93-2,4.68v4.8
	h-4.67v4.45h4.67v10.48H8.78c-2.92,0-5.28-2.37-5.28-5.28V8.78c0-2.92,2.37-5.28,5.28-5.28h20.45c2.92,0,5.28,2.37,5.28,5.28V29.22z
	"/>
</svg>
