<?xml version="1.0" encoding="utf-8"?>
<!-- Generator: Adobe Illustrator 25.0.0, SVG Export Plug-In . SVG Version: 6.00 Build 0)  -->
<svg version="1.1" id="Capa_1" xmlns="http://www.w3.org/2000/svg" xmlns:xlink="http://www.w3.org/1999/xlink" x="0px" y="0px"
	 viewBox="0 0 38 38" style="enable-background:new 0 0 38 38;" xml:space="preserve">
<style type="text/css">
	.st0{fill:#999999;}
</style>
<path class="st0" d="M12.09,31.02H7.05V14.75h5.04V31.02z M12.59,9.57c0-1.63-1.32-2.95-2.95-2.95c-1.63,0-2.95,1.32-2.95,2.95
	c0,1.63,1.32,2.95,2.95,2.95C11.27,12.52,12.59,11.2,12.59,9.57z M30.95,22.07c0-4.37-0.92-7.61-6.02-7.61
	c-2.45,0-4.1,1.23-4.77,2.5h0v-2.21h-4.89v16.27h4.89v-8.08c0-2.12,0.54-4.16,3.16-4.16c2.59,0,2.67,2.42,2.67,4.3v7.94h4.97V22.07z
	 M37.43,29.93V8.07c0-4.14-3.35-7.49-7.49-7.49H8.07c-4.14,0-7.49,3.35-7.49,7.49v21.87c0,4.14,3.35,7.49,7.49,7.49h21.87
	C34.07,37.43,37.43,34.07,37.43,29.93z M29.93,3.45c2.55,0,4.61,2.07,4.61,4.61v21.87c0,2.55-2.07,4.61-4.61,4.61H8.07
	c-2.55,0-4.61-2.07-4.61-4.61V8.07c0-2.55,2.07-4.61,4.61-4.61H29.93z"/>
</svg>
