<?xml version="1.0" encoding="utf-8"?>
<!-- Generator: Adobe Illustrator 25.0.0, SVG Export Plug-In . SVG Version: 6.00 Build 0)  -->
<svg version="1.1" id="Capa_1" xmlns="http://www.w3.org/2000/svg" xmlns:xlink="http://www.w3.org/1999/xlink" x="0px" y="0px"
	 viewBox="0 0 38 38" style="enable-background:new 0 0 38 38;" xml:space="preserve">
<style type="text/css">
	.st0{fill:#999999;}
</style>
<g>
	<path class="st0" d="M27.28,0.53H10.72C5.1,0.53,0.53,5.1,0.53,10.72v16.55c0,5.62,4.57,10.2,10.19,10.2h16.55
		c5.62,0,10.2-4.57,10.2-10.2V10.72C37.47,5.1,32.9,0.53,27.28,0.53z M34.19,27.28c0,3.81-3.1,6.92-6.92,6.92H10.72
		c-3.81,0-6.92-3.1-6.92-6.92V10.72c0-3.81,3.1-6.92,6.92-6.92h16.55c3.81,0,6.92,3.1,6.92,6.92L34.19,27.28L34.19,27.28z"/>
	<path class="st0" d="M19,9.48c-5.25,0-9.52,4.27-9.52,9.52c0,5.25,4.27,9.52,9.52,9.52s9.52-4.27,9.52-9.52
		C28.52,13.75,24.25,9.48,19,9.48z M19,25.24c-3.44,0-6.24-2.8-6.24-6.24c0-3.44,2.8-6.24,6.24-6.24s6.24,2.8,6.24,6.24
		C25.24,22.44,22.44,25.24,19,25.24z"/>
	<path class="st0" d="M28.92,6.7c-0.63,0-1.25,0.26-1.7,0.7c-0.45,0.45-0.71,1.07-0.71,1.7c0,0.63,0.26,1.25,0.71,1.7
		c0.45,0.45,1.07,0.7,1.7,0.7c0.63,0,1.25-0.26,1.7-0.7c0.45-0.45,0.7-1.07,0.7-1.7c0-0.63-0.26-1.25-0.7-1.7
		C30.17,6.96,29.55,6.7,28.92,6.7z"/>
</g>
</svg>
