<?xml version="1.0" encoding="utf-8"?>
<!-- Generator: Adobe Illustrator 16.0.0, SVG Export Plug-In . SVG Version: 6.00 Build 0)  -->
<!DOCTYPE svg PUBLIC "-//W3C//DTD SVG 1.1//EN" "http://www.w3.org/Graphics/SVG/1.1/DTD/svg11.dtd">
<svg version="1.1" id="Capa_1" xmlns="http://www.w3.org/2000/svg" xmlns:xlink="http://www.w3.org/1999/xlink" x="0px" y="0px"
	 width="1920px" height="1047.34px" viewBox="0 0 1920 1047.34" enable-background="new 0 0 1920 1047.34" xml:space="preserve">
<g>
	<path fill="#060808" d="M401.517,682.069V372.673c-0.14-2.462,0.888-4.238,3.074-5.333c2.192-1.098,4.344-1.134,6.47-0.104
		c2.119,1.03,3.112,2.842,2.976,5.438v172.662l88.69-88.689c2.738-2.737,5.678-2.737,8.827,0l87.463,88.689V372.673
		c0-4.238,2.081-6.361,6.259-6.361c4.172,0,6.261,2.123,6.261,6.361v309.396c0,4.236-2.088,6.364-6.261,6.364
		c-4.179,0-6.259-2.128-6.259-6.364V567.304h-184.98v114.766c0,1.643-0.618,3.104-1.85,4.41c-1.229,1.304-2.737,1.954-4.514,1.954
		c-1.643,0-3.082-0.65-4.313-1.954C402.132,685.174,401.517,683.712,401.517,682.069 M422.865,554.575h167.319l-83.145-84.377
		L422.865,554.575z"/>
	<path fill="#231F20" d="M605.276,689.965c-5.025,0-7.792-2.806-7.792-7.896V568.836H415.571v113.233
		c0,2.03-0.764,3.869-2.271,5.459c-2.946,3.13-7.907,3.34-11.055,0c-1.498-1.59-2.26-3.429-2.26-5.459V372.673
		c-0.173-2.982,1.182-5.331,3.922-6.703c2.602-1.305,5.281-1.343,7.823-0.113c2.677,1.302,4.004,3.685,3.837,6.894l0.004,168.889
		l86.074-86.076c3.278-3.281,7.159-3.333,10.914-0.071l84.926,86.11V372.673c0-5.09,2.767-7.893,7.792-7.893
		c5.027,0,7.792,2.803,7.792,7.893v309.396C613.068,687.159,610.303,689.965,605.276,689.965z M412.507,565.774h188.041v116.295
		c0,3.389,1.416,4.835,4.729,4.835c3.314,0,4.728-1.446,4.728-4.835V372.673c0-3.386-1.414-4.83-4.728-4.83
		c-3.313,0-4.729,1.444-4.729,4.83v176.396l-90.085-91.347c-2.354-2.042-4.47-2.174-6.653,0.006l-91.302,91.306v-176.36
		c0.104-2.069-0.546-3.3-2.114-4.059c-1.703-0.825-3.319-0.796-5.114,0.096c-1.649,0.825-2.338,2.021-2.233,3.876l0.003,309.483
		c0,1.241,0.467,2.342,1.426,3.359c1.972,2.1,4.828,1.883,6.595,0c0.965-1.025,1.437-2.118,1.437-3.359V565.774z M593.84,556.104
		H419.174l87.872-88.081L593.84,556.104z M426.554,553.042h159.973l-79.495-80.67L426.554,553.042z"/>
	<path fill="#060808" d="M976.359,682.067V372.68c0-3.149,1.545-5.136,4.645-5.957l1.223-0.408h79.805
		c28.865,0,53.352,10.193,73.457,30.59c20.242,20.253,30.365,44.689,30.365,73.29c0,18.614-4.643,36.001-13.914,52.147
		c-9.279,16.016-21.691,28.469-37.252,37.363l78.68,119.076c1.092,1.508,1.641,2.806,1.641,3.906c0,1.773-1.027,3.346-3.09,4.721
		c-1.221,0.818-2.389,1.227-3.482,1.227h-0.406c-1.789,0-3.361-1.094-4.725-3.284l-79.926-119.685
		c-13.289,5.612-27.063,8.417-41.309,8.417h-73.189v107.984c0,4.236-2.088,6.364-6.258,6.364
		C978.449,688.432,976.359,686.304,976.359,682.067 M988.881,561.348h73.189c11.916,0,23.293-2.053,34.121-6.158L988.881,393.617
		V561.348z M994.23,378.835l113.26,170.4c13.982-7.798,25.076-18.751,33.305-32.846c8.361-14.098,12.537-29.492,12.537-46.195
		c0-25.184-8.908-46.672-26.723-64.464c-17.953-17.929-39.471-26.896-64.549-26.896H994.23z"/>
	<path fill="#231F20" d="M1188.436,690.169h-0.406c-2.344,0-4.373-1.35-6.025-4.012l-79.197-118.595
		c-13.07,5.345-26.77,8.052-40.736,8.052h-71.656v106.453c0,5.088-2.764,7.896-7.791,7.896c-5.023,0-7.793-2.808-7.793-7.896V372.68
		c0-3.865,1.996-6.438,5.783-7.436l1.613-0.462h79.805c29.158,0,54.24,10.444,74.547,31.047
		c20.439,20.449,30.807,45.471,30.807,74.365c0,18.797-4.75,36.596-14.117,52.91c-9.096,15.696-21.34,28.17-36.408,37.108
		l77.787,117.725c1.26,1.737,1.895,3.313,1.895,4.75c0,2.309-1.268,4.329-3.773,5.994
		C1191.303,689.666,1189.84,690.169,1188.436,690.169z M1103.947,563.764l0.707,1.052l79.924,119.687
		c1.621,2.604,2.996,2.604,3.451,2.604h0.406c0.783,0,1.67-0.325,2.627-0.968c1.627-1.083,2.416-2.211,2.416-3.45
		c0-0.523-0.232-1.466-1.352-3.005l-79.617-120.495l1.418-0.811c15.242-8.717,27.59-21.1,36.684-36.804
		c9.098-15.835,13.711-33.124,13.711-51.379c0-28.053-10.068-52.347-29.918-72.207c-19.717-20.002-44.064-30.143-72.373-30.143
		h-79.557l-0.986,0.331c-2.512,0.669-3.594,2.051-3.594,4.504v309.388c0,3.388,1.416,4.83,4.729,4.83
		c3.314,0,4.729-1.442,4.729-4.83V572.552h74.719c13.973,0,27.672-2.791,40.711-8.297L1103.947,563.764z M1062.07,562.877h-74.719
		V388.544l111.178,167.396l-1.793,0.682C1085.781,560.771,1074.117,562.877,1062.07,562.877z M990.414,559.814h71.656
		c11.016,0,21.695-1.813,31.77-5.392L990.414,398.689V559.814z M1107,551.262l-0.783-1.18L991.371,377.304h70.689
		c25.385,0,47.463,9.2,65.633,27.345c18.029,18.003,27.17,40.056,27.17,65.546c0,16.905-4.289,32.711-12.752,46.975
		c-8.33,14.272-19.727,25.513-33.873,33.403L1107,551.262z M997.088,380.366l110.887,166.831
		c13.096-7.578,23.684-18.197,31.496-31.58c8.186-13.794,12.33-29.072,12.33-45.423c0-24.646-8.842-45.97-26.275-63.382
		c-17.568-17.548-38.924-26.446-63.465-26.446H997.088z"/>
	<path fill="#060808" d="M1236.508,518.743c0-29.153,6.307-56.185,18.916-81.092c12.85-24.916,30.086-44.486,51.699-58.725
		c21.732-14.503,45.451-21.756,71.15-21.756c25.693,0,49.391,7.253,71.094,21.756c21.938,14.514,39.135,34.084,51.602,58.725
		c12.707,24.767,19.061,51.808,19.061,81.092c0,29.43-6.354,56.53-19.061,81.296c-12.467,24.636-29.664,44.275-51.602,58.924
		c-21.703,14.368-45.4,21.559-71.094,21.559c-25.699,0-49.418-7.19-71.15-21.559c-21.74-14.506-38.969-34.145-51.699-58.924
		C1242.814,575.273,1236.508,548.173,1236.508,518.743 M1247.498,518.943c0,27.103,5.826,52.017,17.475,74.735
		c11.645,22.72,27.494,40.789,47.551,54.193c19.934,13.281,41.854,19.918,65.75,19.918c23.895,0,45.813-6.637,65.746-19.918
		c20.047-13.404,35.906-31.474,47.553-54.193c11.646-22.719,17.465-47.633,17.465-74.735c0-27.234-5.818-52.205-17.465-74.93
		c-11.646-22.86-27.506-40.924-47.553-54.204c-20.059-13.409-41.977-20.119-65.746-20.119c-23.777,0-45.699,6.71-65.75,20.119
		c-20.057,13.28-35.906,31.344-47.551,54.204C1253.324,466.738,1247.498,491.709,1247.498,518.943"/>
	<line fill="#060808" x1="708.58" y1="394.804" x2="859.357" y2="394.804"/>
	<rect x="708.58" y="388.678" fill="#231F20" width="150.777" height="12.252"/>
	<line fill="#060808" x1="666.592" y1="646.103" x2="918.729" y2="646.103"/>
	<rect x="666.592" y="639.975" fill="#231F20" width="252.137" height="12.251"/>
	<line fill="#060808" x1="694.653" y1="525.449" x2="884.493" y2="525.449"/>
	<rect x="694.653" y="519.323" fill="#231F20" width="189.84" height="12.252"/>
</g>
</svg>
