<?xml version="1.0" encoding="utf-8"?>
<!-- Generator: Adobe Illustrator 25.0.0, SVG Export Plug-In . SVG Version: 6.00 Build 0)  -->
<svg version="1.1" id="Capa_1" xmlns="http://www.w3.org/2000/svg" xmlns:xlink="http://www.w3.org/1999/xlink" x="0px" y="0px"
	 viewBox="0 0 253.2 60" style="enable-background:new 0 0 253.2 60;" xml:space="preserve">
<style type="text/css">
	.st0{fill:#A8A8A8;}
	.st1{opacity:0.4;fill:url(#SVGID_1_);enable-background:new    ;}
	.st2{fill:#FFFFFF;}
</style>
<g>
	<g>
		<path class="st0" d="M221.6,56.1H31.4c-14.2,0-25.6-11.5-25.6-25.6v-1.1c0-14.2,11.5-25.6,25.6-25.6h190.3
			c14.2,0,25.6,11.5,25.6,25.6v1.1C247.3,44.6,235.8,56.1,221.6,56.1z"/>
		
			<linearGradient id="SVGID_1_" gradientUnits="userSpaceOnUse" x1="6" y1="-2695.075" x2="245.5" y2="-2695.075" gradientTransform="matrix(1 0 0 -1 0 -2676.6772)">
			<stop  offset="0" style="stop-color:#FFFFFF"/>
			<stop  offset="1" style="stop-color:#000000"/>
		</linearGradient>
		<path class="st1" d="M41.9,24.8c21.2-4.2,32.8-5,54.4-4.6c22.4,0.4,101,1.5,123.4,1.1c4.2-0.1,21.6-0.2,25.8-0.9
			c0,0-3.9-15.7-23.2-16.5c-0.1,0-190,0-190,0C21.2,3.1,8,11.1,6,26.4c0,0,0.3,8.8,9.2,6C23.8,29,32.8,26.6,41.9,24.8z"/>
	</g>
</g>
<g>
	<g>
		<path class="st2" d="M50.2,40.8h-2.4V17.1h7c1.2,0,2.2,0.1,3.2,0.3c1,0.2,1.9,0.6,2.6,1.1c0.7,0.5,1.3,1.2,1.7,2
			c0.4,0.8,0.6,1.8,0.6,2.9c0,0.9-0.2,1.7-0.5,2.4c-0.3,0.7-0.7,1.3-1.3,1.9c-0.5,0.5-1.2,0.9-1.9,1.3s-1.5,0.5-2.4,0.6l6.9,11.3
			h-2.9l-6.6-11.1h-4V40.8z M50.2,27.6h4.2c1.9,0,3.4-0.4,4.5-1.1c1-0.7,1.6-1.8,1.6-3.2c0-0.8-0.1-1.4-0.4-2
			c-0.3-0.5-0.7-1-1.2-1.3c-0.5-0.3-1.1-0.6-1.9-0.7c-0.7-0.2-1.6-0.2-2.4-0.2h-4.3V27.6z"/>
		<path class="st2" d="M86.9,32.5c0,0.2,0,0.3,0,0.5c0,0.2,0,0.4,0,0.6h-13c0,0.8,0.2,1.5,0.5,2.2c0.3,0.7,0.7,1.3,1.2,1.8
			c0.5,0.5,1.1,0.9,1.8,1.2c0.7,0.3,1.4,0.5,2.2,0.5c1.2,0,2.2-0.3,3.1-0.8c0.9-0.5,1.5-1.2,2-1.9l1.7,1.3c-0.9,1.2-2,2-3.1,2.5
			c-1.1,0.5-2.3,0.8-3.6,0.8c-1.2,0-2.2-0.2-3.2-0.6c-1-0.4-1.8-1-2.6-1.7c-0.7-0.7-1.3-1.6-1.7-2.6c-0.4-1-0.6-2.1-0.6-3.3
			c0-1.2,0.2-2.3,0.6-3.3c0.4-1,1-1.9,1.7-2.6c0.7-0.7,1.6-1.3,2.5-1.7c1-0.4,2-0.6,3.1-0.6c1.2,0,2.3,0.2,3.2,0.6
			c0.9,0.4,1.7,1,2.3,1.7c0.6,0.7,1.1,1.5,1.4,2.5C86.8,30.4,86.9,31.4,86.9,32.5z M84.6,31.7c-0.1-1.5-0.5-2.7-1.4-3.7
			c-0.9-1-2.1-1.5-3.8-1.5c-0.8,0-1.5,0.1-2.1,0.4c-0.6,0.3-1.2,0.7-1.7,1.1c-0.5,0.5-0.9,1-1.2,1.6c-0.3,0.6-0.5,1.3-0.5,1.9H84.6z
			"/>
		<path class="st2" d="M105.5,28.8c-0.3-0.6-0.8-1.2-1.5-1.6c-0.7-0.4-1.5-0.6-2.3-0.6c-0.4,0-0.8,0-1.2,0.1
			c-0.4,0.1-0.8,0.2-1.1,0.4c-0.3,0.2-0.6,0.5-0.8,0.8c-0.2,0.3-0.3,0.7-0.3,1.1c0,0.7,0.3,1.3,0.9,1.7c0.6,0.4,1.6,0.7,2.8,1
			c1.9,0.4,3.2,0.9,4.1,1.7c0.9,0.7,1.3,1.7,1.3,2.9c0,0.9-0.2,1.6-0.5,2.3c-0.3,0.6-0.8,1.1-1.4,1.5c-0.6,0.4-1.2,0.7-1.9,0.8
			s-1.4,0.3-2.1,0.3c-1.2,0-2.3-0.2-3.4-0.7c-1.1-0.5-2-1.3-2.7-2.3l1.8-1.3c0.4,0.7,1,1.3,1.8,1.7c0.8,0.5,1.6,0.7,2.6,0.7
			c0.5,0,1,0,1.4-0.1c0.4-0.1,0.8-0.2,1.2-0.5c0.3-0.2,0.6-0.5,0.8-0.9c0.2-0.3,0.3-0.8,0.3-1.3c0-0.8-0.4-1.4-1.2-1.9
			c-0.8-0.4-1.9-0.8-3.4-1.2c-0.5-0.1-1-0.3-1.5-0.4c-0.5-0.2-1-0.4-1.5-0.7c-0.4-0.3-0.8-0.7-1.1-1.2c-0.3-0.5-0.4-1.1-0.4-1.8
			c0-0.8,0.2-1.5,0.5-2.1c0.3-0.6,0.7-1,1.3-1.4c0.5-0.4,1.1-0.6,1.8-0.8c0.7-0.2,1.4-0.3,2.1-0.3c1.1,0,2.2,0.2,3.2,0.7
			c1,0.5,1.8,1.2,2.3,2.1L105.5,28.8z"/>
		<path class="st2" d="M131.6,32.5c0,0.2,0,0.3,0,0.5c0,0.2,0,0.4,0,0.6h-13c0,0.8,0.2,1.5,0.5,2.2c0.3,0.7,0.7,1.3,1.2,1.8
			c0.5,0.5,1.1,0.9,1.8,1.2c0.7,0.3,1.4,0.5,2.2,0.5c1.2,0,2.2-0.3,3.1-0.8c0.9-0.5,1.5-1.2,2-1.9l1.7,1.3c-0.9,1.2-2,2-3.1,2.5
			c-1.1,0.5-2.3,0.8-3.6,0.8c-1.2,0-2.2-0.2-3.2-0.6c-1-0.4-1.8-1-2.6-1.7c-0.7-0.7-1.3-1.6-1.7-2.6c-0.4-1-0.6-2.1-0.6-3.3
			c0-1.2,0.2-2.3,0.6-3.3c0.4-1,1-1.9,1.7-2.6c0.7-0.7,1.6-1.3,2.5-1.7c1-0.4,2-0.6,3.1-0.6c1.2,0,2.3,0.2,3.2,0.6
			c0.9,0.4,1.7,1,2.3,1.7c0.6,0.7,1.1,1.5,1.4,2.5C131.5,30.4,131.6,31.4,131.6,32.5z M129.3,31.7c-0.1-1.5-0.5-2.7-1.4-3.7
			c-0.9-1-2.1-1.5-3.8-1.5c-0.8,0-1.5,0.1-2.1,0.4c-0.6,0.3-1.2,0.7-1.7,1.1c-0.5,0.5-0.9,1-1.2,1.6c-0.3,0.6-0.5,1.3-0.5,1.9H129.3
			z"/>
		<path class="st2" d="M141.9,26.9c0-0.7-0.1-1.3-0.1-1.8h2.2c0,0.4,0.1,0.9,0.1,1.4c0,0.5,0,0.9,0,1.3h0.1c0.4-0.9,1.1-1.7,2-2.2
			c0.9-0.6,1.9-0.9,3-0.9c0.3,0,0.6,0,0.8,0c0.2,0,0.5,0.1,0.7,0.1l-0.3,2.2c-0.1,0-0.4-0.1-0.7-0.1c-0.3,0-0.6-0.1-0.9-0.1
			c-0.6,0-1.2,0.1-1.7,0.3c-0.6,0.2-1,0.6-1.5,1.1s-0.7,1.1-1,1.8c-0.3,0.7-0.4,1.6-0.4,2.7v8h-2.3V28.5
			C141.9,28.1,141.9,27.6,141.9,26.9z"/>
		<path class="st2" d="M165.7,40.8h-2.5l-6.4-15.7h2.5l5.1,13.3h0.1l5.1-13.3h2.4L165.7,40.8z"/>
		<path class="st2" d="M190.9,30.6c0-1.4-0.4-2.4-1.1-3c-0.7-0.7-1.8-1-3.1-1c-0.9,0-1.8,0.2-2.6,0.5c-0.8,0.3-1.5,0.8-2,1.3
			l-1.3-1.5c0.6-0.6,1.5-1.2,2.6-1.6c1.1-0.4,2.3-0.6,3.6-0.6c0.8,0,1.6,0.1,2.4,0.4c0.7,0.2,1.4,0.6,1.9,1.1c0.6,0.5,1,1.1,1.3,1.8
			c0.3,0.7,0.5,1.6,0.5,2.5v6.9c0,0.6,0,1.2,0.1,1.9c0,0.6,0.1,1.2,0.2,1.6h-2c-0.1-0.4-0.1-0.8-0.2-1.2c0-0.4-0.1-0.9-0.1-1.3h-0.1
			c-0.7,1-1.5,1.8-2.4,2.3c-0.9,0.5-2,0.7-3.3,0.7c-0.6,0-1.2-0.1-1.9-0.3c-0.6-0.2-1.2-0.4-1.7-0.8c-0.5-0.4-1-0.9-1.3-1.5
			c-0.3-0.6-0.5-1.3-0.5-2.2c0-1.2,0.3-2.2,0.9-2.9c0.6-0.7,1.4-1.2,2.5-1.6c1-0.3,2.2-0.6,3.5-0.7c1.3-0.1,2.7-0.2,4.1-0.2V30.6z
			 M190.2,32.9c-0.9,0-1.9,0-2.8,0.1c-0.9,0.1-1.8,0.2-2.6,0.5c-0.8,0.2-1.4,0.6-1.9,1c-0.5,0.4-0.7,1-0.7,1.8c0,0.6,0.1,1,0.3,1.4
			c0.2,0.4,0.5,0.7,0.9,0.9c0.4,0.2,0.8,0.4,1.2,0.5c0.4,0.1,0.9,0.2,1.3,0.2c0.8,0,1.5-0.1,2.1-0.4c0.6-0.3,1.1-0.7,1.6-1.1
			c0.4-0.5,0.7-1,1-1.7c0.2-0.6,0.3-1.3,0.3-2v-1.2H190.2z"/>
		<path class="st2" d="M204.2,26.9c0-0.7-0.1-1.3-0.1-1.8h2.2c0,0.4,0.1,0.9,0.1,1.4c0,0.5,0,0.9,0,1.3h0.1c0.4-0.9,1.1-1.7,2-2.2
			c0.9-0.6,1.9-0.9,3-0.9c0.3,0,0.6,0,0.8,0c0.2,0,0.5,0.1,0.7,0.1l-0.3,2.2c-0.1,0-0.4-0.1-0.7-0.1c-0.3,0-0.6-0.1-0.9-0.1
			c-0.6,0-1.2,0.1-1.7,0.3c-0.6,0.2-1,0.6-1.5,1.1c-0.4,0.5-0.7,1.1-1,1.8c-0.3,0.7-0.4,1.6-0.4,2.7v8h-2.3V28.5
			C204.2,28.1,204.2,27.6,204.2,26.9z"/>
	</g>
</g>
</svg>
