<?xml version="1.0" encoding="utf-8"?>
<!-- Generator: Adobe Illustrator 25.0.0, SVG Export Plug-In . SVG Version: 6.00 Build 0)  -->
<svg version="1.1" id="Capa_1" xmlns="http://www.w3.org/2000/svg" xmlns:xlink="http://www.w3.org/1999/xlink" x="0px" y="0px"
	 viewBox="0 0 290 60" style="enable-background:new 0 0 290 60;" xml:space="preserve">
<style type="text/css">
	.st0{fill:#474747;}
	.st1{opacity:0.4;fill:url(#SVGID_1_);}
	.st2{fill:#FFFFFF;}
</style>
<g>
	<path class="st0" d="M253.73,56.15H36.27c-14.13,0-25.59-11.46-25.59-25.59v-1.13c0-14.13,11.46-25.59,25.59-25.59h217.46
		c14.13,0,25.59,11.46,25.59,25.59v1.13C279.32,44.7,267.86,56.15,253.73,56.15z"/>
	<linearGradient id="SVGID_1_" gradientUnits="userSpaceOnUse" x1="10.7927" y1="18.3534" x2="277.5292" y2="18.3534">
		<stop  offset="0" style="stop-color:#FFFFFF"/>
		<stop  offset="1" style="stop-color:#000000"/>
	</linearGradient>
	<path class="st1" d="M45.96,24.87c21.15-4.15,79.6-4.98,101.1-4.62c22.38,0.37,81.46,1.48,103.84,1.07
		c4.21-0.08,22.47-0.27,26.63-1c0,0-6.27-16.48-24.07-16.48c-0.09,0-216.62,0-216.62,0c-12.46,0-24.29,8.8-26.04,23.73l0,0
		c0,4.41,4.29,6.29,8.43,4.75C27.9,29.1,36.88,26.66,45.96,24.87z"/>
	<g>
		<g>
			<path class="st2" d="M46.6,20.02c-0.52-0.72-1.18-1.3-1.99-1.73c-0.81-0.44-1.78-0.66-2.93-0.66c-0.58,0-1.18,0.09-1.78,0.27
				s-1.16,0.45-1.65,0.82c-0.49,0.37-0.89,0.84-1.2,1.4c-0.3,0.56-0.45,1.22-0.45,1.99s0.15,1.39,0.44,1.88
				c0.29,0.49,0.68,0.92,1.16,1.26c0.48,0.35,1.03,0.63,1.65,0.86c0.62,0.22,1.26,0.45,1.93,0.67c0.83,0.27,1.66,0.56,2.5,0.88
				c0.84,0.31,1.59,0.72,2.27,1.23c0.67,0.51,1.22,1.14,1.65,1.92c0.42,0.77,0.64,1.76,0.64,2.95c0,1.19-0.23,2.22-0.68,3.08
				c-0.45,0.86-1.04,1.58-1.77,2.14c-0.72,0.56-1.55,0.98-2.48,1.25s-1.87,0.4-2.81,0.4c-0.72,0-1.44-0.07-2.15-0.22
				c-0.72-0.15-1.4-0.36-2.05-0.66c-0.65-0.29-1.26-0.66-1.82-1.11s-1.05-0.96-1.48-1.55l2.09-1.55c0.52,0.85,1.24,1.57,2.17,2.14
				c0.93,0.57,2.02,0.86,3.28,0.86c0.61,0,1.22-0.09,1.85-0.29c0.63-0.19,1.19-0.48,1.7-0.88s0.92-0.88,1.25-1.45
				c0.33-0.57,0.49-1.24,0.49-2c0-0.83-0.16-1.52-0.49-2.07c-0.33-0.55-0.76-1.01-1.3-1.38c-0.54-0.37-1.16-0.68-1.85-0.93
				c-0.7-0.25-1.43-0.49-2.19-0.74c-0.79-0.25-1.56-0.53-2.32-0.84c-0.76-0.31-1.45-0.72-2.05-1.23c-0.61-0.5-1.09-1.13-1.46-1.87
				c-0.37-0.74-0.56-1.65-0.56-2.73c0-1.14,0.23-2.13,0.69-2.96s1.06-1.51,1.8-2.05c0.74-0.54,1.56-0.93,2.46-1.18
				s1.78-0.37,2.66-0.37c1.62,0,3,0.29,4.14,0.86s2.01,1.25,2.59,2.04L46.6,20.02z"/>
			<path class="st2" d="M70.74,40.02c-0.05-0.43-0.08-0.9-0.1-1.41c-0.02-0.52-0.03-0.94-0.03-1.28h-0.07
				c-0.45,0.92-1.18,1.67-2.19,2.24s-2.08,0.86-3.2,0.86c-2,0-3.5-0.59-4.49-1.78c-1-1.19-1.5-2.76-1.5-4.71v-9.66h2.29v8.72
				c0,0.83,0.07,1.58,0.2,2.25c0.13,0.67,0.36,1.25,0.69,1.73c0.33,0.48,0.76,0.86,1.31,1.13c0.55,0.27,1.24,0.4,2.07,0.4
				c0.61,0,1.2-0.12,1.77-0.37s1.08-0.62,1.53-1.13c0.45-0.5,0.81-1.14,1.08-1.92c0.27-0.77,0.4-1.69,0.4-2.74v-8.08h2.29v12.29
				c0,0.43,0.01,0.98,0.03,1.65c0.02,0.67,0.06,1.28,0.1,1.82H70.74z"/>
			<path class="st2" d="M92.62,28c-0.34-0.65-0.85-1.18-1.53-1.6s-1.46-0.62-2.34-0.62c-0.4,0-0.81,0.04-1.21,0.13
				s-0.76,0.24-1.08,0.44c-0.31,0.2-0.57,0.46-0.76,0.77c-0.19,0.31-0.29,0.68-0.29,1.11c0,0.74,0.3,1.31,0.91,1.7
				s1.56,0.72,2.86,0.99c1.86,0.38,3.24,0.94,4.12,1.67c0.89,0.73,1.33,1.71,1.33,2.95c0,0.9-0.17,1.66-0.52,2.27
				c-0.35,0.62-0.8,1.12-1.36,1.51c-0.56,0.39-1.2,0.67-1.9,0.84c-0.71,0.17-1.42,0.25-2.14,0.25c-1.19,0-2.35-0.25-3.47-0.74
				c-1.12-0.49-2.04-1.27-2.76-2.32l1.82-1.35c0.4,0.7,1,1.28,1.78,1.75c0.79,0.47,1.65,0.71,2.59,0.71c0.49,0,0.96-0.04,1.41-0.13
				c0.45-0.09,0.84-0.25,1.18-0.47c0.34-0.22,0.61-0.51,0.81-0.86s0.3-0.78,0.3-1.3c0-0.83-0.4-1.45-1.19-1.87
				c-0.8-0.42-1.95-0.8-3.45-1.16c-0.47-0.11-0.97-0.25-1.5-0.42c-0.53-0.17-1.02-0.42-1.46-0.74c-0.45-0.33-0.82-0.73-1.11-1.23
				c-0.29-0.49-0.44-1.11-0.44-1.85c0-0.81,0.16-1.5,0.47-2.07c0.31-0.57,0.73-1.04,1.26-1.41c0.53-0.37,1.13-0.64,1.8-0.82
				s1.37-0.27,2.09-0.27c1.1,0,2.17,0.25,3.2,0.74c1.03,0.49,1.81,1.19,2.32,2.09L92.62,28z"/>
			<path class="st2" d="M115.91,27.86c-0.38-0.61-0.94-1.1-1.67-1.5c-0.73-0.39-1.52-0.59-2.37-0.59c-0.92,0-1.75,0.16-2.49,0.49
				c-0.74,0.33-1.38,0.77-1.9,1.35c-0.53,0.57-0.93,1.25-1.21,2.02c-0.28,0.77-0.42,1.61-0.42,2.51s0.14,1.73,0.42,2.49
				c0.28,0.76,0.68,1.43,1.2,2c0.52,0.57,1.14,1.02,1.88,1.35c0.74,0.33,1.57,0.49,2.49,0.49c1.01,0,1.86-0.19,2.56-0.57
				c0.7-0.38,1.27-0.88,1.72-1.48l1.72,1.28c-0.67,0.83-1.5,1.49-2.47,1.99c-0.98,0.49-2.15,0.74-3.52,0.74
				c-1.28,0-2.44-0.21-3.47-0.62c-1.03-0.42-1.91-0.99-2.64-1.73c-0.73-0.74-1.3-1.62-1.7-2.63c-0.4-1.01-0.61-2.11-0.61-3.3
				s0.2-2.29,0.61-3.3c0.4-1.01,0.97-1.89,1.7-2.63c0.73-0.74,1.61-1.32,2.64-1.73c1.03-0.42,2.19-0.62,3.47-0.62
				c1.05,0,2.13,0.23,3.21,0.69c1.09,0.46,1.97,1.14,2.64,2.04L115.91,27.86z"/>
			<path class="st2" d="M126.75,26.08c-0.02-0.67-0.06-1.28-0.1-1.82h2.19c0.04,0.43,0.08,0.9,0.1,1.41
				c0.02,0.52,0.03,0.94,0.03,1.28h0.07c0.45-0.92,1.12-1.67,2.02-2.24c0.9-0.57,1.91-0.86,3.03-0.86c0.29,0,0.56,0.01,0.79,0.03
				s0.48,0.07,0.72,0.13l-0.3,2.19c-0.13-0.04-0.36-0.09-0.67-0.13c-0.31-0.04-0.63-0.07-0.94-0.07c-0.61,0-1.19,0.11-1.75,0.34
				c-0.56,0.22-1.05,0.58-1.46,1.06c-0.42,0.48-0.75,1.1-1.01,1.85c-0.26,0.75-0.39,1.65-0.39,2.7v8.06h-2.29V27.73
				C126.79,27.3,126.77,26.75,126.75,26.08z"/>
			<path class="st2" d="M147.08,18.2c0,0.47-0.17,0.86-0.5,1.16c-0.34,0.3-0.71,0.46-1.11,0.46c-0.4,0-0.77-0.15-1.11-0.46
				c-0.34-0.3-0.51-0.69-0.51-1.16c0-0.47,0.17-0.86,0.51-1.16c0.34-0.3,0.71-0.45,1.11-0.45c0.4,0,0.77,0.15,1.11,0.45
				C146.92,17.34,147.08,17.73,147.08,18.2z M146.61,40.02h-2.29V24.26h2.29V40.02z"/>
			<path class="st2" d="M160.45,37.36v2.66h-2.29V14.57h2.29v12.42h0.07c0.67-1.03,1.55-1.81,2.63-2.34
				c1.08-0.53,2.19-0.79,3.33-0.79c1.23,0,2.35,0.21,3.35,0.64c1,0.43,1.85,1.01,2.56,1.75c0.71,0.74,1.26,1.62,1.65,2.62
				s0.59,2.1,0.59,3.27s-0.2,2.25-0.59,3.27c-0.39,1.01-0.94,1.88-1.65,2.62c-0.71,0.74-1.56,1.32-2.56,1.75
				c-1,0.43-2.12,0.64-3.35,0.64c-1.14,0-2.26-0.26-3.33-0.77c-1.08-0.52-1.95-1.28-2.63-2.29H160.45z M172.2,32.14
				c0-0.88-0.13-1.7-0.4-2.47c-0.27-0.77-0.66-1.45-1.16-2.02s-1.13-1.03-1.87-1.36s-1.58-0.5-2.52-0.5c-0.88,0-1.68,0.16-2.42,0.49
				c-0.74,0.33-1.38,0.77-1.92,1.35s-0.96,1.25-1.26,2.02c-0.3,0.77-0.45,1.61-0.45,2.51s0.15,1.73,0.45,2.51
				c0.3,0.77,0.72,1.44,1.26,2c0.54,0.56,1.18,1,1.92,1.33c0.74,0.33,1.55,0.49,2.42,0.49c0.94,0,1.78-0.16,2.52-0.49
				s1.36-0.77,1.87-1.35s0.89-1.25,1.16-2.02C172.06,33.84,172.2,33.01,172.2,32.14z"/>
			<path class="st2" d="M187.72,18.2c0,0.47-0.17,0.86-0.5,1.16c-0.34,0.3-0.71,0.46-1.11,0.46c-0.4,0-0.77-0.15-1.11-0.46
				c-0.34-0.3-0.51-0.69-0.51-1.16c0-0.47,0.17-0.86,0.51-1.16c0.34-0.3,0.71-0.45,1.11-0.45c0.4,0,0.77,0.15,1.11,0.45
				C187.55,17.34,187.72,17.73,187.72,18.2z M187.24,40.02h-2.29V24.26h2.29V40.02z"/>
			<path class="st2" d="M198.69,26.08c-0.02-0.67-0.06-1.28-0.1-1.82h2.19c0.04,0.43,0.08,0.9,0.1,1.41
				c0.02,0.52,0.03,0.94,0.03,1.28h0.07c0.45-0.92,1.12-1.67,2.02-2.24c0.9-0.57,1.91-0.86,3.03-0.86c0.29,0,0.56,0.01,0.79,0.03
				s0.48,0.07,0.72,0.13l-0.3,2.19c-0.13-0.04-0.36-0.09-0.67-0.13c-0.31-0.04-0.63-0.07-0.94-0.07c-0.61,0-1.19,0.11-1.75,0.34
				c-0.56,0.22-1.05,0.58-1.46,1.06c-0.42,0.48-0.75,1.1-1.01,1.85c-0.26,0.75-0.39,1.65-0.39,2.7v8.06h-2.29V27.73
				C198.72,27.3,198.71,26.75,198.69,26.08z"/>
			<path class="st2" d="M224.61,28c-0.34-0.65-0.85-1.18-1.53-1.6s-1.46-0.62-2.34-0.62c-0.4,0-0.81,0.04-1.21,0.13
				s-0.76,0.24-1.08,0.44c-0.31,0.2-0.57,0.46-0.76,0.77c-0.19,0.31-0.29,0.68-0.29,1.11c0,0.74,0.3,1.31,0.91,1.7
				s1.56,0.72,2.86,0.99c1.86,0.38,3.24,0.94,4.12,1.67c0.89,0.73,1.33,1.71,1.33,2.95c0,0.9-0.17,1.66-0.52,2.27
				c-0.35,0.62-0.8,1.12-1.36,1.51c-0.56,0.39-1.2,0.67-1.9,0.84c-0.71,0.17-1.42,0.25-2.14,0.25c-1.19,0-2.35-0.25-3.47-0.74
				c-1.12-0.49-2.04-1.27-2.76-2.32l1.82-1.35c0.4,0.7,1,1.28,1.78,1.75c0.79,0.47,1.65,0.71,2.59,0.71c0.49,0,0.96-0.04,1.41-0.13
				c0.45-0.09,0.84-0.25,1.18-0.47c0.34-0.22,0.61-0.51,0.81-0.86s0.3-0.78,0.3-1.3c0-0.83-0.4-1.45-1.19-1.87
				c-0.8-0.42-1.95-0.8-3.45-1.16c-0.47-0.11-0.97-0.25-1.5-0.42c-0.53-0.17-1.02-0.42-1.46-0.74c-0.45-0.33-0.82-0.73-1.11-1.23
				c-0.29-0.49-0.44-1.11-0.44-1.85c0-0.81,0.16-1.5,0.47-2.07c0.31-0.57,0.73-1.04,1.26-1.41c0.53-0.37,1.13-0.64,1.8-0.82
				s1.37-0.27,2.09-0.27c1.1,0,2.17,0.25,3.2,0.74c1.03,0.49,1.81,1.19,2.32,2.09L224.61,28z"/>
			<path class="st2" d="M250.9,31.67c0,0.16,0,0.33,0,0.5c0,0.18-0.01,0.37-0.03,0.57H237.8c0.02,0.79,0.18,1.53,0.47,2.22
				c0.29,0.7,0.7,1.3,1.21,1.82c0.52,0.52,1.12,0.93,1.82,1.23c0.7,0.3,1.45,0.45,2.26,0.45c1.19,0,2.22-0.27,3.08-0.82
				c0.86-0.55,1.52-1.18,1.97-1.9l1.72,1.35c-0.94,1.19-1.98,2.04-3.11,2.56c-1.13,0.52-2.35,0.77-3.65,0.77
				c-1.17,0-2.25-0.21-3.25-0.62c-1-0.42-1.86-0.99-2.58-1.73c-0.72-0.74-1.29-1.62-1.7-2.63c-0.42-1.01-0.62-2.11-0.62-3.3
				s0.2-2.29,0.61-3.3c0.4-1.01,0.96-1.89,1.68-2.63c0.72-0.74,1.56-1.32,2.52-1.73s2.01-0.62,3.13-0.62c1.23,0,2.32,0.21,3.27,0.62
				s1.73,0.98,2.36,1.68c0.63,0.71,1.1,1.53,1.43,2.47C250.74,29.58,250.9,30.59,250.9,31.67z M248.58,30.93
				c-0.07-1.48-0.54-2.71-1.43-3.69c-0.89-0.98-2.15-1.46-3.79-1.46c-0.76,0-1.47,0.14-2.12,0.42s-1.22,0.66-1.72,1.14
				c-0.49,0.48-0.89,1.03-1.18,1.65c-0.29,0.62-0.46,1.26-0.51,1.94H248.58z"/>
		</g>
	</g>
</g>
</svg>
