<?xml version="1.0" encoding="utf-8"?>
<!-- Generator: Adobe Illustrator 25.0.0, SVG Export Plug-In . SVG Version: 6.00 Build 0)  -->
<svg version="1.1" id="Capa_1" xmlns="http://www.w3.org/2000/svg" xmlns:xlink="http://www.w3.org/1999/xlink" x="0px" y="0px"
	 viewBox="0 0 290 60" style="enable-background:new 0 0 290 60;" xml:space="preserve">
<style type="text/css">
	.st0{fill:#A8A8A8;}
	.st1{opacity:0.4;fill:url(#SVGID_1_);enable-background:new    ;}
	.st2{fill:#FFFFFF;}
</style>
<g>
	<path class="st0" d="M253.7,56.1H36.3c-14.1,0-25.6-11.5-25.6-25.6v-1.1c0-14.1,11.5-25.6,25.6-25.6h217.5
		c14.1,0,25.6,11.5,25.6,25.6v1.1C279.3,44.7,267.9,56.1,253.7,56.1z"/>
	
		<linearGradient id="SVGID_1_" gradientUnits="userSpaceOnUse" x1="10.8" y1="42.9775" x2="277.53" y2="42.9775" gradientTransform="matrix(1 0 0 -1 0 61.3228)">
		<stop  offset="0" style="stop-color:#FFFFFF"/>
		<stop  offset="1" style="stop-color:#000000"/>
	</linearGradient>
	<path class="st1" d="M46,24.9c21.2-4.1,79.6-5,101.1-4.6c22.4,0.4,81.5,1.5,103.8,1.1c4.2-0.1,22.5-0.3,26.6-1
		c0,0-6.3-16.5-24.1-16.5c-0.1,0-216.6,0-216.6,0c-12.5,0-24.3,8.8-26,23.7l0,0c0,4.4,4.3,6.3,8.4,4.8C27.9,29.1,36.9,26.7,46,24.9z
		"/>
	<g>
		<g>
			<path class="st2" d="M46.6,20c-0.5-0.7-1.2-1.3-2-1.7c-0.8-0.4-1.8-0.7-2.9-0.7c-0.6,0-1.2,0.1-1.8,0.3s-1.2,0.5-1.7,0.8
				c-0.5,0.4-0.9,0.8-1.2,1.4c-0.3,0.6-0.5,1.2-0.5,2s0.2,1.4,0.4,1.9c0.3,0.5,0.7,0.9,1.2,1.3c0.5,0.4,1,0.6,1.7,0.9
				c0.6,0.2,1.3,0.5,1.9,0.7c0.8,0.3,1.7,0.6,2.5,0.9c0.8,0.3,1.6,0.7,2.3,1.2c0.7,0.5,1.2,1.1,1.7,1.9c0.4,0.8,0.6,1.8,0.6,2.9
				s-0.2,2.2-0.7,3.1c-0.5,0.9-1,1.6-1.8,2.1c-0.7,0.6-1.5,1-2.5,1.2s-1.9,0.4-2.8,0.4c-0.7,0-1.4-0.1-2.2-0.2
				c-0.7-0.2-1.4-0.4-2-0.7c-0.7-0.3-1.3-0.7-1.8-1.1s-1-1-1.5-1.5l2.1-1.5c0.5,0.8,1.2,1.6,2.2,2.1c0.9,0.6,2,0.9,3.3,0.9
				c0.6,0,1.2-0.1,1.8-0.3c0.6-0.2,1.2-0.5,1.7-0.9s0.9-0.9,1.2-1.5s0.5-1.2,0.5-2c0-0.8-0.2-1.5-0.5-2.1s-0.8-1-1.3-1.4
				c-0.5-0.4-1.2-0.7-1.8-0.9c-0.7-0.2-1.4-0.5-2.2-0.7c-0.8-0.2-1.6-0.5-2.3-0.8s-1.5-0.7-2-1.2c-0.6-0.5-1.1-1.1-1.5-1.9
				c-0.4-0.7-0.6-1.6-0.6-2.7c0-1.1,0.2-2.1,0.7-3s1.1-1.5,1.8-2c0.7-0.5,1.6-0.9,2.5-1.2c0.9-0.2,1.8-0.4,2.7-0.4
				c1.6,0,3,0.3,4.1,0.9c1.1,0.6,2,1.2,2.6,2L46.6,20z"/>
			<path class="st2" d="M70.7,40c-0.1-0.4-0.1-0.9-0.1-1.4c0-0.5,0-0.9,0-1.3h-0.1c-0.4,0.9-1.2,1.7-2.2,2.2s-2.1,0.9-3.2,0.9
				c-2,0-3.5-0.6-4.5-1.8c-1-1.2-1.5-2.8-1.5-4.7v-9.7h2.3V33c0,0.8,0.1,1.6,0.2,2.2s0.4,1.2,0.7,1.7c0.3,0.5,0.8,0.9,1.3,1.1
				c0.5,0.3,1.2,0.4,2.1,0.4c0.6,0,1.2-0.1,1.8-0.4s1.1-0.6,1.5-1.1c0.4-0.5,0.8-1.1,1.1-1.9c0.3-0.8,0.4-1.7,0.4-2.7v-8.1h2.3v12.3
				c0,0.4,0,1,0,1.7c0,0.7,0.1,1.3,0.1,1.8L70.7,40L70.7,40z"/>
			<path class="st2" d="M92.6,28c-0.3-0.6-0.8-1.2-1.5-1.6s-1.5-0.6-2.3-0.6c-0.4,0-0.8,0-1.2,0.1s-0.8,0.2-1.1,0.4
				c-0.3,0.2-0.6,0.5-0.8,0.8c-0.2,0.3-0.3,0.7-0.3,1.1c0,0.7,0.3,1.3,0.9,1.7s1.6,0.7,2.9,1c1.9,0.4,3.2,0.9,4.1,1.7
				c0.9,0.7,1.3,1.7,1.3,3c0,0.9-0.2,1.7-0.5,2.3c-0.3,0.6-0.8,1.1-1.4,1.5s-1.2,0.7-1.9,0.8c-0.7,0.2-1.4,0.2-2.1,0.2
				c-1.2,0-2.3-0.2-3.5-0.7s-2-1.3-2.8-2.3l1.8-1.3c0.4,0.7,1,1.3,1.8,1.8c0.8,0.5,1.7,0.7,2.6,0.7c0.5,0,1,0,1.4-0.1
				c0.4-0.1,0.8-0.2,1.2-0.5c0.3-0.2,0.6-0.5,0.8-0.9s0.3-0.8,0.3-1.3c0-0.8-0.4-1.5-1.2-1.9c-0.8-0.4-1.9-0.8-3.4-1.2
				c-0.5-0.1-1-0.2-1.5-0.4s-1-0.4-1.5-0.7c-0.4-0.3-0.8-0.7-1.1-1.2c-0.3-0.5-0.4-1.1-0.4-1.9c0-0.8,0.2-1.5,0.5-2.1s0.7-1,1.3-1.4
				c0.5-0.4,1.1-0.6,1.8-0.8s1.4-0.3,2.1-0.3c1.1,0,2.2,0.2,3.2,0.7s1.8,1.2,2.3,2.1L92.6,28z"/>
			<path class="st2" d="M115.9,27.9c-0.4-0.6-0.9-1.1-1.7-1.5c-0.7-0.4-1.5-0.6-2.4-0.6c-0.9,0-1.8,0.2-2.5,0.5s-1.4,0.8-1.9,1.4
				c-0.5,0.6-0.9,1.2-1.2,2s-0.4,1.6-0.4,2.5s0.1,1.7,0.4,2.5c0.3,0.8,0.7,1.4,1.2,2s1.1,1,1.9,1.3c0.7,0.3,1.6,0.5,2.5,0.5
				c1,0,1.9-0.2,2.6-0.6s1.3-0.9,1.7-1.5l1.7,1.3c-0.7,0.8-1.5,1.5-2.5,2c-1,0.5-2.2,0.7-3.5,0.7c-1.3,0-2.4-0.2-3.5-0.6
				c-1-0.4-1.9-1-2.6-1.7c-0.7-0.7-1.3-1.6-1.7-2.6c-0.4-1-0.6-2.1-0.6-3.3s0.2-2.3,0.6-3.3c0.4-1,1-1.9,1.7-2.6
				c0.7-0.7,1.6-1.3,2.6-1.7c1-0.4,2.2-0.6,3.5-0.6c1.1,0,2.1,0.2,3.2,0.7c1.1,0.5,2,1.1,2.6,2L115.9,27.9z"/>
			<path class="st2" d="M126.8,26.1c0-0.7-0.1-1.3-0.1-1.8h2.2c0,0.4,0.1,0.9,0.1,1.4c0,0.5,0,0.9,0,1.3h0.1c0.4-0.9,1.1-1.7,2-2.2
				c0.9-0.6,1.9-0.9,3-0.9c0.3,0,0.6,0,0.8,0s0.5,0.1,0.7,0.1l-0.3,2.2c-0.1,0-0.4-0.1-0.7-0.1c-0.3,0-0.6-0.1-0.9-0.1
				c-0.6,0-1.2,0.1-1.8,0.3c-0.6,0.2-1.1,0.6-1.5,1.1c-0.4,0.5-0.8,1.1-1,1.9s-0.4,1.6-0.4,2.7V40h-2.3V27.7
				C126.8,27.3,126.8,26.7,126.8,26.1z"/>
			<path class="st2" d="M147.1,18.2c0,0.5-0.2,0.9-0.5,1.2c-0.3,0.3-0.7,0.5-1.1,0.5s-0.8-0.1-1.1-0.5c-0.3-0.3-0.5-0.7-0.5-1.2
				s0.2-0.9,0.5-1.2s0.7-0.5,1.1-0.5s0.8,0.1,1.1,0.5C146.9,17.3,147.1,17.7,147.1,18.2z M146.6,40h-2.3V24.3h2.3V40z"/>
			<path class="st2" d="M160.4,37.4V40h-2.3V14.6h2.3V27h0.1c0.7-1,1.6-1.8,2.6-2.3s2.2-0.8,3.3-0.8c1.2,0,2.4,0.2,3.4,0.6
				s1.9,1,2.6,1.8c0.7,0.7,1.3,1.6,1.6,2.6s0.6,2.1,0.6,3.3c0,1.2-0.2,2.2-0.6,3.3c-0.4,1-0.9,1.9-1.6,2.6c-0.7,0.7-1.6,1.3-2.6,1.8
				s-2.1,0.6-3.4,0.6c-1.1,0-2.3-0.3-3.3-0.8C162.1,39.1,161.2,38.4,160.4,37.4C160.5,37.4,160.4,37.4,160.4,37.4z M172.2,32.1
				c0-0.9-0.1-1.7-0.4-2.5c-0.3-0.8-0.7-1.5-1.2-2s-1.1-1-1.9-1.4s-1.6-0.5-2.5-0.5c-0.9,0-1.7,0.2-2.4,0.5s-1.4,0.8-1.9,1.4
				s-1,1.2-1.3,2c-0.3,0.8-0.4,1.6-0.4,2.5c0,0.9,0.1,1.7,0.4,2.5c0.3,0.8,0.7,1.4,1.3,2s1.2,1,1.9,1.3s1.6,0.5,2.4,0.5
				c0.9,0,1.8-0.2,2.5-0.5s1.4-0.8,1.9-1.3s0.9-1.2,1.2-2C172.1,33.8,172.2,33,172.2,32.1z"/>
			<path class="st2" d="M187.7,18.2c0,0.5-0.2,0.9-0.5,1.2c-0.3,0.3-0.7,0.5-1.1,0.5s-0.8-0.1-1.1-0.5c-0.3-0.3-0.5-0.7-0.5-1.2
				s0.2-0.9,0.5-1.2s0.7-0.5,1.1-0.5s0.8,0.1,1.1,0.5C187.6,17.3,187.7,17.7,187.7,18.2z M187.2,40H185V24.3h2.3V40z"/>
			<path class="st2" d="M198.7,26.1c0-0.7-0.1-1.3-0.1-1.8h2.2c0,0.4,0.1,0.9,0.1,1.4c0,0.5,0,0.9,0,1.3h0.1c0.4-0.9,1.1-1.7,2-2.2
				c0.9-0.6,1.9-0.9,3-0.9c0.3,0,0.6,0,0.8,0s0.5,0.1,0.7,0.1l-0.3,2.2c-0.1,0-0.4-0.1-0.7-0.1c-0.3,0-0.6-0.1-0.9-0.1
				c-0.6,0-1.2,0.1-1.8,0.3c-0.6,0.2-1.1,0.6-1.5,1.1c-0.4,0.5-0.8,1.1-1,1.9s-0.4,1.6-0.4,2.7V40h-2.3V27.7
				C198.7,27.3,198.7,26.7,198.7,26.1z"/>
			<path class="st2" d="M224.6,28c-0.3-0.6-0.9-1.2-1.5-1.6s-1.5-0.6-2.3-0.6c-0.4,0-0.8,0-1.2,0.1s-0.8,0.2-1.1,0.4
				c-0.3,0.2-0.6,0.5-0.8,0.8c-0.2,0.3-0.3,0.7-0.3,1.1c0,0.7,0.3,1.3,0.9,1.7s1.6,0.7,2.9,1c1.9,0.4,3.2,0.9,4.1,1.7
				c0.9,0.7,1.3,1.7,1.3,3c0,0.9-0.2,1.7-0.5,2.3c-0.4,0.6-0.8,1.1-1.4,1.5s-1.2,0.7-1.9,0.8c-0.7,0.2-1.4,0.2-2.1,0.2
				c-1.2,0-2.4-0.2-3.5-0.7s-2-1.3-2.8-2.3l1.8-1.3c0.4,0.7,1,1.3,1.8,1.8c0.8,0.5,1.6,0.7,2.6,0.7c0.5,0,1,0,1.4-0.1
				s0.8-0.2,1.2-0.5s0.6-0.5,0.8-0.9s0.3-0.8,0.3-1.3c0-0.8-0.4-1.5-1.2-1.9c-0.8-0.4-1.9-0.8-3.4-1.2c-0.5-0.1-1-0.2-1.5-0.4
				s-1-0.4-1.5-0.7c-0.4-0.3-0.8-0.7-1.1-1.2c-0.3-0.5-0.4-1.1-0.4-1.9c0-0.8,0.2-1.5,0.5-2.1s0.7-1,1.3-1.4
				c0.5-0.4,1.1-0.6,1.8-0.8s1.4-0.3,2.1-0.3c1.1,0,2.2,0.2,3.2,0.7s1.8,1.2,2.3,2.1L224.6,28z"/>
			<path class="st2" d="M250.9,31.7c0,0.2,0,0.3,0,0.5c0,0.2,0,0.4,0,0.6h-13.1c0,0.8,0.2,1.5,0.5,2.2c0.3,0.7,0.7,1.3,1.2,1.8
				c0.5,0.5,1.1,0.9,1.8,1.2c0.7,0.3,1.4,0.5,2.3,0.5c1.2,0,2.2-0.3,3.1-0.8s1.5-1.2,2-1.9l1.7,1.3c-0.9,1.2-2,2-3.1,2.6
				s-2.4,0.8-3.6,0.8c-1.2,0-2.2-0.2-3.2-0.6c-1-0.4-1.9-1-2.6-1.7c-0.7-0.7-1.3-1.6-1.7-2.6c-0.4-1-0.6-2.1-0.6-3.3
				s0.2-2.3,0.6-3.3c0.4-1,1-1.9,1.7-2.6c0.7-0.7,1.6-1.3,2.5-1.7s2-0.6,3.1-0.6c1.2,0,2.3,0.2,3.3,0.6s1.7,1,2.4,1.7
				c0.6,0.7,1.1,1.5,1.4,2.5C250.7,29.6,250.9,30.6,250.9,31.7z M248.6,30.9c-0.1-1.5-0.5-2.7-1.4-3.7c-0.9-1-2.1-1.5-3.8-1.5
				c-0.8,0-1.5,0.1-2.1,0.4s-1.2,0.7-1.7,1.1c-0.5,0.5-0.9,1-1.2,1.6c-0.3,0.6-0.5,1.3-0.5,1.9C237.8,30.9,248.6,30.9,248.6,30.9z"
				/>
		</g>
	</g>
</g>
</svg>
