<?xml version="1.0" encoding="utf-8"?>
<!-- Generator: Adobe Illustrator 25.0.0, SVG Export Plug-In . SVG Version: 6.00 Build 0)  -->
<svg version="1.1" id="Capa_1" xmlns="http://www.w3.org/2000/svg" xmlns:xlink="http://www.w3.org/1999/xlink" x="0px" y="0px"
	 viewBox="0 0 245.5 341.6" style="enable-background:new 0 0 245.5 341.6;" xml:space="preserve">
<style type="text/css">
	.st0{fill:#E26484;}
	.st1{fill:#FFFFFF;}
</style>
<g>
	<g>
		<path d="M25.1,289.4v6.3c-3.2,1.2-6.3,1.8-9.4,1.8c-5,0-9-1.5-12-4.5c-3-3-4.5-7-4.5-12c0-5.1,1.5-9.1,4.4-12.2
			c2.9-3.1,6.7-4.7,11.5-4.7c1.7,0,3.1,0.2,4.5,0.5c1.3,0.3,2.9,0.9,4.8,1.8v6.8c-3.2-2.1-6.2-3.2-8.9-3.2c-2.9,0-5.2,1-7.1,3.1
			c-1.8,2-2.8,4.6-2.8,7.8c0,3.3,1,5.9,3,7.8c2,1.9,4.7,2.9,8.1,2.9C19.1,291.5,21.9,290.8,25.1,289.4z"/>
		<path d="M39.2,264.8v7.3l0.3-0.6c3.1-5,6.1-7.5,9.2-7.5c2.4,0,4.9,1.2,7.5,3.6l-3.3,5.6c-2.2-2.1-4.2-3.1-6.1-3.1
			c-2,0-3.8,1-5.3,3c-1.4,1.9-2.1,4.3-2.1,6.9v16.8h-6.5v-32.1H39.2z"/>
		<path d="M81.2,296.9v-4.2c-1.3,1.5-2.9,2.7-4.7,3.5c-1.7,0.8-3.4,1.2-5.2,1.2c-2,0-3.9-0.5-5.6-1.5c-1.8-1-3-2.4-3.9-4.1
			c-0.9-1.8-1.3-4.6-1.3-8.7v-18.4h6.3v18.3c0,3.3,0.5,5.7,1.4,7c1,1.3,2.7,2,5.2,2c3.1,0,5.6-1.5,7.8-4.5v-22.9h6.3v32.1H81.2z"/>
		<path d="M93.3,264.8h27.4l-17,26.2h17v5.9H92.6l17-26.2H93.3V264.8z"/>
	</g>
	<g>
		<path d="M133,264.8v7.3l0.4-0.6c3-5,6.1-7.5,9.2-7.5c2.4,0,4.9,1.2,7.5,3.6l-3.3,5.6c-2.2-2.1-4.2-3.1-6.1-3.1c-2,0-3.8,1-5.3,3
			c-1.5,1.9-2.3,4.3-2.3,6.9v16.8h-6.4v-32.1H133z"/>
		<path d="M169.8,264.7c4.9,0,8.9,1.6,12.1,4.7c3.2,3.1,4.9,7.1,4.9,11.9c0,4.6-1.7,8.5-4.9,11.6c-3.3,3.1-7.4,4.5-12.4,4.5
			c-4.8,0-8.8-1.5-12-4.6c-3.2-3.1-4.9-7-4.9-11.7c0-4.7,1.6-8.6,4.9-11.7C160.8,266.3,164.9,264.7,169.8,264.7z M169.5,270.5
			c-3,0-5.5,1-7.4,3c-2,2-2.9,4.6-2.9,7.7c0,3,1,5.6,3,7.5c2,1.9,4.5,2.9,7.6,2.9c3.1,0,5.6-1,7.6-2.9c2-2,3-4.5,3-7.6
			c0-3-1-5.6-3.1-7.6C175.2,271.5,172.6,270.5,169.5,270.5z"/>
		<path d="M192.4,294.6v-6.9c1.8,1.2,3.6,2.3,5.5,3.1c1.8,0.7,3.4,1.2,4.7,1.2c1.3,0,2.4-0.4,3.4-1c0.9-0.7,1.4-1.5,1.4-2.4
			c0-0.9-0.3-1.7-0.9-2.3c-0.6-0.6-2-1.5-4-2.7c-4.1-2.3-6.8-4.3-8-5.9c-1.3-1.6-1.9-3.4-1.9-5.3c0-2.4,0.9-4.4,2.9-6
			c2-1.6,4.4-2.4,7.4-2.4c3.2,0,6.3,0.9,9.6,2.7v6.3c-3.7-2.2-6.8-3.4-9.3-3.4c-1.2,0-2.2,0.3-3,0.8c-0.7,0.5-1.1,1.2-1.1,2
			c0,0.8,0.3,1.4,1,2.2c0.7,0.6,1.9,1.5,3.6,2.4l2.2,1.3c5.4,3.1,8.1,6.4,8.1,10.1c0,2.6-1,4.8-3,6.5c-2.1,1.7-4.7,2.5-8,2.5
			c-1.9,0-3.6-0.2-5.1-0.6C196.5,296.4,194.6,295.7,192.4,294.6z"/>
		<path d="M241.6,277.6v13.7c0,1.1,0.3,1.6,1.1,1.6c0.8,0,2-0.5,3.7-1.7v3.8c-1.4,0.9-2.6,1.5-3.5,1.8c-0.9,0.3-1.8,0.5-2.8,0.5
			c-2.7,0-4.3-1-4.8-3.1c-2.7,2.1-5.6,3.1-8.6,3.1c-2.3,0-4.1-0.7-5.6-2.2c-1.5-1.5-2.2-3.3-2.2-5.6c0-2,0.7-3.8,2.2-5.4
			c1.5-1.6,3.5-2.8,6.2-3.8l8.1-2.8v-1.7c0-3.9-1.9-5.8-5.8-5.8c-3.5,0-6.8,1.8-10.1,5.4v-6.9c2.5-2.9,6-4.4,10.6-4.4
			c3.5,0,6.3,0.9,8.3,2.7c0.7,0.6,1.3,1.4,1.9,2.3c0.5,1,0.9,2,1.1,2.9C241.5,273.1,241.6,274.9,241.6,277.6z M235.3,290.6v-9.7
			l-4.2,1.7c-2.2,0.9-3.7,1.7-4.6,2.6c-0.9,0.9-1.3,2-1.3,3.3c0,1.4,0.4,2.4,1.2,3.3c0.9,0.9,2,1.3,3.3,1.3
			C231.8,293.1,233.6,292.3,235.3,290.6z"/>
	</g>
	<path class="st0" d="M57.9,82.6c-0.1-0.3-0.1-0.6-0.2-0.8C57.8,82,57.8,82.3,57.9,82.6L57.9,82.6z"/>
	<path class="st0" d="M93.5,110c0.4,0.1,0.8,0.3,1.2,0.4C94.3,110.2,93.9,110.1,93.5,110z"/>
	<path class="st0" d="M97.3,111.3c0.2,0.1,0.4,0.1,0.6,0.2C97.7,111.5,97.5,111.4,97.3,111.3z"/>
	<path class="st0" d="M83.7,105.8c0.7,0.3,1.4,0.7,2.1,1C85.1,106.4,84.4,106.1,83.7,105.8z"/>
	<path class="st0" d="M113.7,115.5c-0.3-1.1-0.5-2.2-0.8-3.3C113.2,113.3,113.5,114.4,113.7,115.5z"/>
	<path class="st0" d="M86.7,107.2c0.6,0.3,1.3,0.5,1.9,0.8C88,107.7,87.3,107.4,86.7,107.2z"/>
	<path class="st0" d="M90,108.6c0.5,0.2,1.1,0.4,1.6,0.6C91.1,109,90.5,108.8,90,108.6z"/>
	<path class="st0" d="M106.3,90c-0.2-0.7-0.5-1.3-0.7-1.9C105.8,88.7,106,89.4,106.3,90z"/>
	<path class="st0" d="M107.6,93.8c-0.3-0.9-0.6-1.7-0.9-2.6C107,92.1,107.3,92.9,107.6,93.8z"/>
	<path class="st0" d="M108.9,97.6c-0.3-0.8-0.5-1.7-0.8-2.5C108.4,95.9,108.6,96.8,108.9,97.6z"/>
	<path class="st0" d="M80.9,104.4c0.7,0.4,1.5,0.8,2.3,1.1C82.4,105.2,81.6,104.8,80.9,104.4z"/>
	<path class="st0" d="M111.5,106.4c-0.3-1.3-0.7-2.5-1-3.7C110.8,104,111.1,105.2,111.5,106.4z"/>
	<path class="st0" d="M110,101.4c-0.2-0.8-0.5-1.5-0.7-2.3C109.6,99.8,109.8,100.6,110,101.4z"/>
	<path class="st0" d="M112.6,110.6c-0.2-1-0.5-2-0.8-2.9C112.1,108.7,112.3,109.6,112.6,110.6z"/>
	<path class="st0" d="M61.4,89.5c0.2,0.3,0.4,0.5,0.6,0.8C61.8,90,61.6,89.7,61.4,89.5z"/>
	<path class="st0" d="M78.3,103c0.8,0.4,1.5,0.8,2.3,1.2C79.8,103.9,79.1,103.4,78.3,103z"/>
	<path class="st0" d="M59.1,85.7c0,0,0.1,0.1,0.1,0.2C59.1,85.9,59.1,85.8,59.1,85.7z"/>
	<path class="st0" d="M58.7,85L58.7,85L58.7,85z"/>
	<path class="st0" d="M105.1,87.1c-0.4-0.9-0.7-1.8-1.1-2.6C104.4,85.3,104.8,86.2,105.1,87.1z"/>
	<path class="st0" d="M62.2,90.5c0.3,0.3,0.5,0.6,0.8,0.9C62.7,91.1,62.5,90.8,62.2,90.5z"/>
	<path class="st0" d="M59.5,86.6c0.1,0.1,0.1,0.2,0.2,0.3C59.6,86.8,59.6,86.7,59.5,86.6z"/>
	<path class="st0" d="M60,87.5c0.1,0.1,0.2,0.3,0.3,0.4C60.2,87.8,60.1,87.6,60,87.5z"/>
	<path class="st0" d="M60.7,88.5c0.1,0.2,0.3,0.4,0.5,0.6C61,88.9,60.8,88.7,60.7,88.5z"/>
	<path class="st0" d="M63.2,91.6c0.3,0.4,0.7,0.7,1,1.1C63.8,92.3,63.5,92,63.2,91.6z"/>
	<path class="st0" d="M78.3,103c-6.5-3.6-11-7.1-14-10.2C67.3,95.9,71.7,99.4,78.3,103z"/>
	<path class="st0" d="M100.1,76.1c-0.4-0.7-0.7-1.3-1.1-1.9C99.4,74.8,99.7,75.5,100.1,76.1z"/>
	<path class="st0" d="M101.4,78.6c-0.4-0.8-0.8-1.5-1.2-2.3C100.6,77.1,101,77.9,101.4,78.6z"/>
	<path d="M245.2,82.6c-5.1,0-82.6,0-82.6,0h0V0H82.8v48.7c14.2-0.8,27.1,8.8,38.5,28.6c6.6,11.5,12.7,26.4,18.3,44.5
		c19.8,3.4,44.4,6.1,75,7.6l0.4,0l0.2,0.4c0.1,0.2,9.3,18.3,30,32c0.1,0.1,0.2,0.1,0.3,0.2c0-7.1,0-78,0-79.3
		C245.5,82.6,245.4,82.6,245.2,82.6z"/>
	<path class="st0" d="M102.5,81c-0.3-0.7-0.6-1.3-0.9-1.9C101.9,79.7,102.2,80.4,102.5,81z"/>
	<path class="st0" d="M103.8,83.9c-0.3-0.7-0.6-1.4-0.9-2.1C103.2,82.5,103.5,83.1,103.8,83.9z"/>
	<path d="M113.7,115.5c-0.3-1.1-0.5-2.2-0.8-3.3c-0.1-0.5-0.3-1.1-0.4-1.6c-0.2-1-0.5-2-0.8-2.9c-0.1-0.4-0.2-0.9-0.3-1.3
		c-0.3-1.3-0.7-2.5-1-3.7c-0.1-0.5-0.3-1-0.4-1.4c-0.2-0.8-0.5-1.5-0.7-2.3c-0.2-0.5-0.3-1-0.5-1.5c-0.3-0.8-0.5-1.7-0.8-2.5
		c-0.2-0.5-0.3-0.9-0.5-1.3c-0.3-0.9-0.6-1.7-0.9-2.6c-0.1-0.4-0.3-0.8-0.4-1.2c-0.2-0.7-0.5-1.3-0.7-1.9c-0.1-0.4-0.3-0.7-0.4-1.1
		c-0.4-0.9-0.7-1.8-1.1-2.6c-0.1-0.2-0.2-0.4-0.2-0.6c-0.3-0.7-0.6-1.4-0.9-2.1c-0.1-0.3-0.2-0.5-0.4-0.8c-0.3-0.7-0.6-1.3-0.9-1.9
		c-0.1-0.2-0.1-0.3-0.2-0.5c-0.4-0.8-0.8-1.5-1.2-2.3c0-0.1-0.1-0.2-0.1-0.2c-0.4-0.7-0.7-1.3-1.1-1.9c-0.1-0.1-0.1-0.2-0.2-0.3
		c-0.8-1.4-1.7-2.7-2.6-4.1c-0.8-1.1-1.6-2.2-2.5-3.3c-0.7-0.9-1.5-1.8-2.3-2.6c-0.7-0.7-1.4-1.4-2.1-2c-0.6-0.5-1.3-1-1.9-1.5
		c-0.5-0.4-1.1-0.7-1.7-1c-0.7-0.3-1.3-0.7-2-0.9c-0.7-0.2-3.8-0.3-4.6-0.2c0,0,0,0-0.1,0c-1,0.1-2.1,0.2-3.1,0.5
		c-0.8,0.2-1.6,0.6-2.4,1c-0.6,0.4-1.3,0.8-1.8,1.4c-0.5,0.5-0.9,1-1.3,1.6c-0.3,0.5-0.6,1.1-0.8,1.7c-0.2,0.5-0.4,1.1-0.5,1.6
		c-0.1,0.5-0.2,1-0.2,1.4c0,0.4-0.1,0.7-0.1,1.1c0,0.2,0,0.5,0,0.7c0,0,0,0.1,0,0.1c-2.7,0.1-5.4,0.9-7.5,2.8
		c-1.5,1.4-2.5,3.2-3,5.2C58,79,57.8,80.5,58,82.1c0.2,1.6,0.8,3.1,1.6,4.5c0.1,0.1,0.1,0.2,0.2,0.3c0.1,0.2,0.2,0.4,0.4,0.6
		c0.1,0.1,0.2,0.3,0.3,0.4c0.1,0.2,0.2,0.3,0.3,0.5c0.1,0.2,0.3,0.4,0.5,0.6c0.1,0.1,0.2,0.2,0.3,0.4c0.2,0.3,0.4,0.5,0.6,0.8
		c0.1,0.1,0.1,0.2,0.2,0.2c0.3,0.3,0.5,0.6,0.8,0.9c0,0.1,0.1,0.1,0.1,0.2c0.3,0.4,0.7,0.7,1,1.1c0,0,0,0,0,0.1
		c3,3.1,7.5,6.6,14,10.2c0,0,0,0,0,0c0.8,0.4,1.5,0.8,2.3,1.2c0.1,0,0.2,0.1,0.2,0.1c0.7,0.4,1.5,0.8,2.3,1.1
		c0.2,0.1,0.3,0.2,0.5,0.3c0.7,0.3,1.4,0.7,2.1,1c0.3,0.1,0.6,0.3,0.9,0.4c0.6,0.3,1.3,0.5,1.9,0.8c0.5,0.2,0.9,0.4,1.4,0.6
		c0.5,0.2,1.1,0.4,1.6,0.6c0.6,0.3,1.3,0.5,1.9,0.8c0.4,0.1,0.8,0.3,1.2,0.4c0.9,0.3,1.7,0.6,2.7,1c0.2,0.1,0.4,0.1,0.6,0.2
		c4.8,1.6,10.1,3.3,16,4.8C113.9,116,113.8,115.8,113.7,115.5z"/>
	<path class="st0" d="M78.3,103C78.3,103,78.3,103,78.3,103C78.3,103,78.3,103,78.3,103z"/>
	<path class="st0" d="M80.7,104.3c0.1,0,0.2,0.1,0.2,0.1C80.8,104.4,80.7,104.3,80.7,104.3z"/>
	<path class="st0" d="M64.2,92.8C64.2,92.8,64.2,92.7,64.2,92.8C64.2,92.7,64.2,92.8,64.2,92.8z"/>
	<path class="st0" d="M63,91.5c0,0.1,0.1,0.1,0.1,0.2C63.1,91.6,63.1,91.5,63,91.5z"/>
	<path class="st0" d="M83.2,105.5c0.2,0.1,0.3,0.2,0.5,0.3C83.5,105.7,83.4,105.6,83.2,105.5z"/>
	<path class="st0" d="M58.7,85c0.1,0.2,0.2,0.5,0.4,0.8C58.9,85.5,58.8,85.2,58.7,85z"/>
	<path class="st0" d="M62,90.3c0.1,0.1,0.1,0.2,0.2,0.2C62.1,90.4,62.1,90.4,62,90.3z"/>
	<path class="st0" d="M61.1,89.1c0.1,0.1,0.2,0.2,0.3,0.4C61.3,89.3,61.2,89.2,61.1,89.1z"/>
	<path class="st0" d="M88.6,108c0.5,0.2,0.9,0.4,1.4,0.6C89.5,108.4,89.1,108.2,88.6,108z"/>
	<path class="st0" d="M60.3,87.9c0.1,0.2,0.2,0.3,0.3,0.5C60.5,88.3,60.4,88.1,60.3,87.9z"/>
	<path class="st0" d="M59.7,86.9c0.1,0.2,0.2,0.4,0.4,0.6C59.9,87.3,59.8,87.1,59.7,86.9z"/>
	<path class="st0" d="M91.6,109.2c0.6,0.3,1.3,0.5,1.9,0.8C92.9,109.7,92.2,109.4,91.6,109.2z"/>
	<path class="st0" d="M94.7,110.4c0.9,0.3,1.7,0.6,2.7,1C96.4,111,95.6,110.7,94.7,110.4z"/>
	<path class="st0" d="M85.8,106.8c0.3,0.1,0.6,0.3,0.9,0.4C86.4,107,86.1,106.9,85.8,106.8z"/>
	<path class="st0" d="M59.1,85.9c0.1,0.2,0.2,0.5,0.4,0.7C59.4,86.4,59.3,86.1,59.1,85.9z"/>
	<path class="st0" d="M113,112.2c-0.1-0.5-0.3-1.1-0.4-1.6C112.7,111.2,112.8,111.7,113,112.2z"/>
	<path class="st0" d="M104,84.4c-0.1-0.2-0.2-0.4-0.2-0.6C103.9,84,104,84.2,104,84.4z"/>
	<path class="st0" d="M109.4,99.1c-0.2-0.5-0.3-1-0.5-1.5C109,98.1,109.2,98.6,109.4,99.1z"/>
	<path class="st0" d="M110.5,102.8c-0.1-0.5-0.3-1-0.4-1.4C110.2,101.8,110.3,102.3,110.5,102.8z"/>
	<path class="st0" d="M100.2,76.4c0-0.1-0.1-0.2-0.1-0.2C100.1,76.2,100.2,76.3,100.2,76.4z"/>
	<path class="st0" d="M105.5,88.1c-0.1-0.4-0.3-0.7-0.4-1.1C105.3,87.4,105.4,87.8,105.5,88.1z"/>
	<path class="st0" d="M101.6,79.1c-0.1-0.2-0.1-0.3-0.2-0.5C101.5,78.8,101.5,78.9,101.6,79.1z"/>
	<path class="st0" d="M108.1,95.1c-0.2-0.5-0.3-0.9-0.5-1.3C107.8,94.2,107.9,94.7,108.1,95.1z"/>
	<path class="st0" d="M106.7,91.2c-0.1-0.4-0.3-0.8-0.4-1.2C106.4,90.4,106.6,90.8,106.7,91.2z"/>
	<path class="st0" d="M113.7,115.5c0.1,0.3,0.1,0.6,0.2,0.9c0,0,0,0,0,0C113.9,116,113.8,115.8,113.7,115.5z"/>
	<path class="st0" d="M99,74.2c-0.1-0.1-0.1-0.2-0.2-0.3C98.9,74,99,74.1,99,74.2z"/>
	<path class="st0" d="M162,238.6c-0.2-2.3-0.6-5.3-1-8.9C161.1,231.5,161.5,235.2,162,238.6z"/>
	<path d="M161,229.8c0.4,3.6,0.8,6.6,1,8.9c0.3,2.2,0.5,4.3,0.7,5.9c0-8.7,0-82,0-82s47.8,0,70.8,0c-0.2,0-0.4-0.1-0.7-0.1
		c-18.2-2.2-52.5-7.1-86.3-15.5c7.8,32.2,12.3,64.6,14.4,82.7C160.9,229.7,160.9,229.7,161,229.8C160.9,229.7,160.9,229.7,161,229.8
		z"/>
	<path d="M126.5,222.3l-0.8,0v-0.7c-1.3-34.3-4-61.3-7.5-82.7c-16.3-5.3-29.8-11-40.4-17.2c-20-11.7-29.8-24.8-29-39.1
		c-22.5,0-48.1,0-48.9,0c0,1.3,0,76.9,0,79.8c0,0,0,0.1,0,0.1c1.4,0,82.8,0,82.8,0s0,81.5,0,82.8c1.2,0,68.4,0,78.6,0
		c-0.1-0.4-0.2-0.8-0.4-1.1C150.7,220.6,126.7,222.3,126.5,222.3z"/>
	<path class="st0" d="M160.9,229.7C160.9,229.7,160.9,229.7,160.9,229.7C160.9,229.7,160.9,229.7,160.9,229.7
		C160.9,229.7,160.9,229.7,160.9,229.7z"/>
	<g>
		<path class="st1" d="M145.9,144.6c0.1,0.3,0.1,0.5,0.2,0.8c0,0,0,0,0,0c42.5,10.6,86,15.6,97.1,16.8c-18.9-12.7-28-28.9-29.3-31.4
			c-28.2-1.3-52.8-3.8-73.9-7.4c0.3,1.1,0.6,2.1,0.9,3.2C142.7,132.2,144.3,138.2,145.9,144.6z"/>
		<path class="st1" d="M78.6,120.4c10.4,6,23.6,11.7,39.4,16.9c-0.3-1.6-0.5-3.2-0.8-4.7c0-0.2-0.1-0.4-0.1-0.7
			c-0.2-1.4-0.5-2.7-0.7-4c-0.1-0.6-0.2-1.3-0.4-1.9c-0.2-1-0.4-2-0.6-3c-0.1-0.5-0.2-1-0.3-1.5c-0.3-1.2-0.5-2.4-0.8-3.6
			c-13.3-3.4-24.6-7.5-33.7-12.1c-19.5-9.9-23.3-19.6-24-23.1h-6.2c0,0.5-0.1,1.1-0.1,1.6C50.3,97.3,59.8,109.5,78.6,120.4z"/>
		<path class="st1" d="M103.4,79.7c13.1,27.5,21,74.9,23.6,140.9c3.8-0.1,23.3,0.4,33.6,19.6c-1.3-12.6-6.1-54.4-16.1-95.3
			c-7-28.6-15.2-51-24.4-66.9C109,58.7,96.5,49.3,82.8,50.2V57C85.4,57.5,94.3,60.5,103.4,79.7z"/>
	</g>
	<g>
		<path d="M130.9,314.8v2.8c-1.7-1.3-3.1-1.9-4.3-1.9c-0.6,0-1,0.1-1.4,0.5c-0.4,0.3-0.5,0.6-0.5,1.1c0,0.2,0.1,0.5,0.3,0.9
			c0.2,0.3,0.9,0.9,2.2,1.7c1.2,0.8,2.1,1.6,2.5,2.3c0.4,0.7,0.6,1.4,0.6,2.1c0,1.2-0.4,2.3-1.3,3.1c-0.8,0.8-1.9,1.2-3.2,1.2
			c-1.6,0-3.3-0.7-5-1.9l0.5-2.6c1.8,1.5,3.3,2.1,4.4,2.1c0.6,0,1-0.1,1.3-0.4c0.3-0.3,0.5-0.7,0.5-1.2c0-0.3-0.1-0.7-0.3-1
			c-0.3-0.4-1-1-2.2-1.8c-1.2-0.8-2.1-1.6-2.4-2.2c-0.4-0.6-0.6-1.3-0.6-2c0-1.2,0.4-2.2,1.2-3c0.9-0.8,1.9-1.1,3.3-1.1
			C128,313.3,129.4,313.8,130.9,314.8z"/>
		<path d="M138.5,310.1l-0.5,3.7c0.7-0.3,1.6-0.5,2.5-0.5c1.7,0,3.1,0.6,4.2,1.9c1.1,1.2,1.7,2.8,1.7,4.8c0,2.2-0.8,4.3-2.3,5.9
			c-1.6,1.7-3.7,2.6-6.4,2.6H136l-1,6.9h-2.7l2.6-18.2c-0.6,0.5-1.1,1-1.6,1.6c-0.4,0.7-0.7,1-0.8,1c-0.1,0-0.1,0-0.1-0.2
			c0-0.5,0.3-1.2,0.8-2.1c0.5-0.9,1.2-1.7,2-2.3l0.7-5.3H138.5z M137.7,315.8l-1.5,10.4h1.3c1.9,0,3.3-0.6,4.4-1.9
			c1.1-1.2,1.7-2.7,1.7-4.3c0-1.4-0.4-2.6-1.1-3.4c-0.8-0.8-1.8-1.2-3-1.2C138.9,315.3,138.3,315.5,137.7,315.8z"/>
		<path d="M159.9,324.3l-0.4,2.6c-1.5,1-3.1,1.6-4.8,1.6c-1.8,0-3.3-0.6-4.4-1.9c-1.1-1.2-1.7-2.9-1.7-5c0-2.3,0.7-4.3,2-5.9
			c1.3-1.6,2.9-2.4,4.8-2.4c1.4,0,2.7,0.5,3.6,1.7c1,1.1,1.5,2.5,1.5,4.2c0,0.5,0,0.9-0.1,1.3h-8.9c0,0.5-0.1,0.9-0.1,1.4
			c0,1.3,0.3,2.4,1.1,3.2c0.7,0.7,1.6,1.2,2.7,1.2C156.6,326.2,158.2,325.6,159.9,324.3z M152,318.7h6c0-1-0.2-1.8-0.7-2.3
			c-0.5-0.6-1.1-0.9-1.9-0.9C153.9,315.5,152.7,316.5,152,318.7z"/>
		<path d="M118.4,324.1l-0.4,2.6c-1.5,1-3.1,1.6-4.8,1.6c-1.8,0-3.3-0.6-4.4-1.9c-1.1-1.2-1.7-2.9-1.7-5c0-2.3,0.7-4.3,2-5.9
			c1.3-1.6,2.9-2.4,4.8-2.4c1.4,0,2.7,0.5,3.6,1.7c1,1.1,1.5,2.5,1.5,4.2c0,0.5,0,0.9-0.1,1.3h-8.9c0,0.5-0.1,0.9-0.1,1.4
			c0,1.3,0.3,2.4,1.1,3.2c0.7,0.7,1.6,1.2,2.7,1.2C115.1,326.1,116.7,325.4,118.4,324.1z M110.5,318.5h6c0-1-0.2-1.8-0.7-2.3
			c-0.5-0.6-1.1-0.9-1.9-0.9C112.4,315.3,111.2,316.3,110.5,318.5z"/>
		<path d="M167.4,313.7l-0.4,2.8l0,0.1c0.9-1.2,1.6-2.1,2.1-2.5c0.5-0.4,1-0.6,1.8-0.6c0.4,0,0.8,0.1,1.1,0.2v3.1
			c-0.6-0.3-1.1-0.5-1.7-0.5c-0.5,0-1,0.1-1.4,0.4c-0.4,0.2-0.9,0.9-1.5,1.7c-0.6,0.9-0.9,1.4-0.9,1.6l-1.1,8.1h-2.8l2.1-14.4H167.4
			z"/>
		<path d="M185.8,313.8l-2,14.3H181l0.2-1.6l-0.1-0.1c-1.2,1.3-2.5,1.9-3.8,1.9c-1.3,0-2.4-0.5-3.4-1.7c-0.9-1.1-1.4-2.4-1.4-4
			c0-2.7,0.9-4.9,2.6-6.7c1.7-1.7,4.1-2.6,7.2-2.6C183.6,313.3,184.8,313.4,185.8,313.8z M181.6,324l1.2-8.3
			c-0.3-0.1-0.6-0.1-0.9-0.1c-2.1,0-3.7,0.7-4.8,2c-1.1,1.4-1.7,2.9-1.7,4.5c0,1.2,0.2,2.1,0.8,2.8c0.5,0.7,1.2,1.1,2,1.1
			c0.7,0,1.3-0.3,2.2-1C181.2,324.5,181.6,324.1,181.6,324z"/>
		<path d="M192.2,313.7l-0.4,2.5l0.1,0.1c1.5-1.8,3.1-2.8,4.7-2.8c1.1,0,1.9,0.4,2.5,1.2c0.6,0.8,0.9,1.9,0.9,3.2
			c0,0.4,0,0.8-0.1,1.2l-1.3,9.1H196l1.3-9.2c0-0.3,0-0.6,0-0.9c0-0.7-0.1-1.3-0.4-1.7c-0.3-0.4-0.7-0.6-1.2-0.6
			c-0.3,0-0.6,0.1-0.9,0.2c-0.3,0.1-0.7,0.3-1.1,0.6c-0.4,0.3-0.9,0.7-1.4,1.3c-0.6,0.6-0.9,0.9-0.9,1.1l-1.3,9.2h-2.7l2-14.4H192.2
			z"/>
		<path d="M215.7,313.7l-9.5,12h8.4l-0.6,2.4h-13l9.4-12h-7.3l0.3-2.4H215.7z"/>
		<path d="M230.4,313.8l-2.1,14.3h-2.7l0.3-1.6l0-0.1c-1.3,1.3-2.6,1.9-3.9,1.9c-1.3,0-2.4-0.5-3.3-1.7c-0.9-1.1-1.4-2.4-1.4-4
			c0-2.7,0.8-4.9,2.6-6.7c1.7-1.7,4.1-2.6,7.2-2.6C228.3,313.3,229.4,313.4,230.4,313.8z M226.2,324l1.2-8.3
			c-0.3-0.1-0.6-0.1-0.9-0.1c-2.1,0-3.8,0.7-4.8,2c-1.2,1.4-1.7,2.9-1.7,4.5c0,1.2,0.3,2.1,0.8,2.8c0.5,0.7,1.2,1.1,2,1.1
			c0.6,0,1.3-0.3,2.1-1C225.8,324.5,226.2,324.1,226.2,324z"/>
		<g>
			<path d="M15.9,306.4L5.5,328.1H4.3l-4.2-21.6h2.8l2.9,15l7.2-15H15.9z"/>
			<path d="M19.6,313.8l-2,14.1h-2.7l2-14.1H19.6z M17.2,309.3c0-0.4,0.2-0.8,0.5-1.1c0.3-0.3,0.7-0.5,1.1-0.5
				c0.4,0,0.8,0.2,1.1,0.5c0.3,0.3,0.5,0.7,0.5,1.1c0,0.4-0.2,0.8-0.5,1.1c-0.3,0.3-0.7,0.5-1.1,0.5c-0.4,0-0.8-0.2-1.1-0.5
				C17.3,310.1,17.2,309.8,17.2,309.3z"/>
			<path d="M35.1,306.4l-3,21.4c-1,0.3-2.2,0.4-3.6,0.4c-2.4,0-4.2-0.6-5.5-1.7c-1.3-1.1-1.9-2.7-1.9-4.8c0-2,0.8-4,2.5-5.8
				c1.7-1.8,3.9-2.7,6.8-2.7h1.1l1-6.9H35.1z M29.7,326.1l1.5-10.5h-0.7c-2,0-3.6,0.6-4.8,1.8c-1.2,1.2-1.8,2.7-1.8,4.4
				c0,1.4,0.4,2.5,1.2,3.2c0.8,0.8,2,1.1,3.5,1.1C29,326.1,29.5,326.1,29.7,326.1z"/>
			<path d="M48.9,313.8l-2,14.1h-2.7l0.3-1.6l-0.1-0.1c-1.2,1.3-2.5,2-3.8,2c-1.3,0-2.4-0.5-3.3-1.6c-0.9-1.1-1.4-2.4-1.4-4
				c0-2.7,0.8-4.9,2.5-6.6s4-2.6,7.1-2.6C46.8,313.3,47.9,313.5,48.9,313.8z M44.8,323.8l1.2-8.2c-0.3,0-0.6,0-0.8,0
				c-2.1,0-3.7,0.7-4.8,2s-1.6,2.8-1.6,4.5c0,1.1,0.3,2.1,0.8,2.8c0.5,0.7,1.2,1.1,2,1.1c0.6,0,1.4-0.3,2.1-1
				C44.4,324.4,44.8,324,44.8,323.8z"/>
			<path d="M69.6,324.7l-0.3,2.6c-1.2,0.7-2.5,1-3.9,1c-1.9,0-3.4-0.6-4.5-1.8c-1.1-1.2-1.7-2.8-1.7-4.7c0-2.4,0.9-4.4,2.6-6
				c1.7-1.6,3.9-2.5,6.6-2.5c0.7,0,1.5,0.1,2.4,0.2l-0.4,2.4c-0.7-0.2-1.3-0.2-2-0.2c-1.9,0-3.4,0.6-4.6,1.8s-1.8,2.6-1.8,4.2
				c0,1.3,0.3,2.4,1,3.1c0.7,0.8,1.6,1.1,2.8,1.1C67,325.9,68.3,325.5,69.6,324.7z"/>
			<path d="M78.3,313.3c1.6,0,2.9,0.6,3.8,1.7c1,1.1,1.4,2.6,1.4,4.5c0,2.6-0.6,4.7-1.9,6.4c-1.3,1.7-2.9,2.5-4.8,2.5
				c-1.7,0-3-0.6-3.9-1.7c-0.9-1.1-1.4-2.7-1.4-4.7c0-2.5,0.6-4.5,1.9-6.2C74.8,314.2,76.4,313.3,78.3,313.3z M78.3,315.4
				c-1.1,0-2,0.7-2.8,2c-0.8,1.4-1.2,3-1.2,4.8c0,1.1,0.2,2,0.7,2.7c0.5,0.7,1.1,1,1.8,1c1.1,0,2.1-0.6,2.9-1.9
				c0.8-1.3,1.2-2.9,1.2-4.8c0-1.2-0.2-2.1-0.7-2.8C79.7,315.8,79.1,315.4,78.3,315.4z"/>
			<path d="M90.1,313.8l-0.4,2.5l0.1,0c1.5-1.8,3.1-2.8,4.7-2.8c1.1,0,1.9,0.4,2.5,1.2s0.9,1.8,0.9,3.1c0,0.4,0,0.7-0.1,1.1
				l-1.4,8.9h-2.6l1.3-9c0.1-0.3,0.1-0.6,0.1-0.9c0-0.7-0.2-1.3-0.5-1.7c-0.3-0.4-0.7-0.6-1.2-0.6c-0.3,0-0.6,0.1-0.9,0.2
				c-0.3,0.1-0.7,0.3-1.1,0.6c-0.4,0.3-0.8,0.7-1.4,1.3c-0.6,0.6-0.9,0.9-0.9,1.1l-1.3,9h-2.6l2-14.1H90.1z"/>
		</g>
	</g>
	<g>
		<path d="M245.4,310.1c0,3.4-2.7,6.1-6.1,6.1c-3.4,0-6-2.7-6.1-6c-0.1-3.3,2.7-6.1,5.9-6.2C242.5,303.9,245.4,306.8,245.4,310.1z
			 M234.4,310.1c0,2.7,2.2,4.9,4.9,4.9c2.7,0,4.9-2.2,4.9-4.9c0-2.7-2.4-4.9-5-4.9C236.7,305.3,234.4,307.4,234.4,310.1z"/>
		<path d="M240.3,310.5c0.6,0.3,0.8,0.8,1.1,1.3c0.3,0.4,0.5,0.9,0.8,1.3c0,0.1,0.1,0.1,0.1,0.2c-0.4,0-0.8,0-1.2,0
			c-0.3,0-0.5-0.1-0.6-0.4c-0.2-0.5-0.5-1-0.8-1.5c-0.4-0.6-0.9-0.9-1.6-0.8c0,0.9,0,1.7,0,2.6c-0.5,0-0.9,0-1.3,0
			c0-2.2,0-4.3,0-6.5c0,0,0.1,0,0.1,0c1.1,0,2.2,0,3.4,0c0.9,0,1.5,0.5,1.7,1.2c0.3,1.1-0.3,2-1.3,2.3
			C240.4,310.5,240.3,310.5,240.3,310.5z M238,309.7c0.6,0,1.2,0,1.8-0.1c0.4,0,0.7-0.4,0.7-0.8c0-0.4-0.3-0.8-0.7-0.8
			c-0.6-0.1-1.2-0.1-1.8-0.1C238,308.5,238,309.1,238,309.7z"/>
	</g>
</g>
</svg>
