<?xml version="1.0" encoding="utf-8"?>
<!-- Generator: Adobe Illustrator 25.0.0, SVG Export Plug-In . SVG Version: 6.00 Build 0)  -->
<svg version="1.1" id="Layer_1" xmlns="http://www.w3.org/2000/svg" xmlns:xlink="http://www.w3.org/1999/xlink" x="0px" y="0px"
	 viewBox="0 0 405.9 116.4" style="enable-background:new 0 0 405.9 116.4;" xml:space="preserve">
<g>
	<path d="M82,111.9v4.6h-2.4v-13h4.2c0.9,0,1.6,0.1,2.3,0.3c0.6,0.2,1.2,0.5,1.6,0.9c0.4,0.4,0.7,0.8,0.9,1.3
		c0.2,0.5,0.3,1.1,0.3,1.7c0,0.6-0.1,1.2-0.3,1.7c-0.2,0.5-0.5,1-0.9,1.4c-0.4,0.4-0.9,0.7-1.6,0.9c-0.6,0.2-1.4,0.3-2.2,0.3H82z
		 M82,110h1.8c0.4,0,0.8-0.1,1.2-0.2c0.3-0.1,0.6-0.3,0.8-0.5c0.2-0.2,0.4-0.5,0.5-0.8c0.1-0.3,0.2-0.6,0.2-1c0-0.3-0.1-0.7-0.2-0.9
		c-0.1-0.3-0.3-0.5-0.5-0.7c-0.2-0.2-0.5-0.3-0.8-0.5c-0.3-0.1-0.7-0.2-1.2-0.2H82V110z"/>
	<path d="M94.4,116.4H92v-13h2.4V116.4z"/>
	<path d="M110.3,109.9c0,1-0.2,1.8-0.5,2.6c-0.3,0.8-0.8,1.5-1.3,2.1c-0.6,0.6-1.3,1-2.1,1.3c-0.8,0.3-1.7,0.5-2.7,0.5h-5v-13h5
		c1,0,1.9,0.2,2.7,0.5c0.8,0.3,1.5,0.8,2.1,1.3c0.6,0.6,1,1.3,1.3,2.1C110.1,108.1,110.3,109,110.3,109.9z M107.8,109.9
		c0-0.7-0.1-1.4-0.3-1.9c-0.2-0.6-0.5-1-0.8-1.4c-0.4-0.4-0.8-0.7-1.3-0.9c-0.5-0.2-1.1-0.3-1.7-0.3h-2.5v9.2h2.5
		c0.6,0,1.2-0.1,1.7-0.3c0.5-0.2,0.9-0.5,1.3-0.9c0.4-0.4,0.6-0.9,0.8-1.4C107.7,111.3,107.8,110.6,107.8,109.9z"/>
	<path d="M122,103.4v1.9h-5.8v3.6h4.6v1.9h-4.6v3.7h5.8v1.9h-8.2v-13H122z"/>
	<path d="M136.7,114.5c0.5,0,0.9-0.1,1.3-0.2c0.4-0.2,0.7-0.4,0.9-0.7c0.3-0.3,0.4-0.6,0.6-1c0.1-0.4,0.2-0.9,0.2-1.3v-7.8h2.4v7.8
		c0,0.8-0.1,1.5-0.4,2.1c-0.2,0.7-0.6,1.2-1.1,1.7c-0.5,0.5-1,0.8-1.7,1.1c-0.7,0.3-1.4,0.4-2.2,0.4c-0.8,0-1.6-0.1-2.3-0.4
		c-0.7-0.3-1.2-0.6-1.7-1.1c-0.5-0.5-0.8-1-1.1-1.7c-0.2-0.7-0.4-1.4-0.4-2.1v-7.8h2.4v7.8c0,0.5,0.1,0.9,0.2,1.3
		c0.1,0.4,0.3,0.7,0.6,1c0.3,0.3,0.6,0.5,0.9,0.7C135.8,114.4,136.2,114.5,136.7,114.5z"/>
	<path d="M147.8,103.4c0.1,0,0.1,0,0.2,0.1c0.1,0,0.1,0.1,0.2,0.1c0.1,0.1,0.1,0.1,0.2,0.2l6.8,8.7c0-0.2,0-0.4,0-0.6
		c0-0.2,0-0.4,0-0.6v-7.9h2.1v13H156c-0.2,0-0.4,0-0.5-0.1c-0.1-0.1-0.3-0.2-0.4-0.3l-6.8-8.7c0,0.2,0,0.4,0,0.6c0,0.2,0,0.4,0,0.5
		v8h-2.1v-13h1.3C147.6,103.4,147.7,103.4,147.8,103.4z"/>
	<path d="M178.9,109.9c0,1-0.2,1.8-0.5,2.6c-0.3,0.8-0.8,1.5-1.3,2.1c-0.6,0.6-1.3,1-2.1,1.3c-0.8,0.3-1.7,0.5-2.7,0.5h-5v-13h5
		c1,0,1.9,0.2,2.7,0.5c0.8,0.3,1.5,0.8,2.1,1.3c0.6,0.6,1,1.3,1.3,2.1C178.7,108.1,178.9,109,178.9,109.9z M176.4,109.9
		c0-0.7-0.1-1.4-0.3-1.9c-0.2-0.6-0.5-1-0.8-1.4c-0.4-0.4-0.8-0.7-1.3-0.9c-0.5-0.2-1.1-0.3-1.7-0.3h-2.5v9.2h2.5
		c0.6,0,1.2-0.1,1.7-0.3c0.5-0.2,0.9-0.5,1.3-0.9c0.4-0.4,0.6-0.9,0.8-1.4C176.3,111.3,176.4,110.6,176.4,109.9z"/>
	<path d="M190.7,103.4v1.9h-5.8v3.6h4.6v1.9h-4.6v3.7h5.8v1.9h-8.2v-13H190.7z"/>
	<path d="M201.3,105.8c-0.1,0.1-0.1,0.2-0.2,0.3c-0.1,0.1-0.2,0.1-0.3,0.1c-0.1,0-0.3,0-0.4-0.1c-0.1-0.1-0.3-0.2-0.5-0.3
		c-0.2-0.1-0.4-0.2-0.7-0.3c-0.3-0.1-0.6-0.1-1-0.1c-0.3,0-0.6,0-0.9,0.1c-0.3,0.1-0.5,0.2-0.6,0.3c-0.2,0.1-0.3,0.3-0.4,0.5
		c-0.1,0.2-0.1,0.4-0.1,0.7c0,0.3,0.1,0.6,0.3,0.8c0.2,0.2,0.4,0.4,0.7,0.5c0.3,0.1,0.6,0.3,1,0.4c0.4,0.1,0.7,0.2,1.1,0.4
		s0.7,0.3,1.1,0.4c0.4,0.2,0.7,0.4,1,0.6c0.3,0.3,0.5,0.6,0.7,1c0.2,0.4,0.3,0.8,0.3,1.4c0,0.6-0.1,1.1-0.3,1.7
		c-0.2,0.5-0.5,1-0.9,1.3c-0.4,0.4-0.9,0.7-1.4,0.9c-0.6,0.2-1.2,0.3-1.9,0.3c-0.4,0-0.8,0-1.2-0.1c-0.4-0.1-0.8-0.2-1.2-0.3
		c-0.4-0.1-0.7-0.3-1-0.5c-0.3-0.2-0.6-0.4-0.9-0.7l0.7-1.2c0.1-0.1,0.1-0.2,0.2-0.2c0.1-0.1,0.2-0.1,0.3-0.1c0.1,0,0.3,0.1,0.5,0.2
		c0.2,0.1,0.4,0.3,0.6,0.4c0.2,0.2,0.5,0.3,0.8,0.4c0.3,0.1,0.7,0.2,1.2,0.2c0.7,0,1.2-0.2,1.6-0.5c0.4-0.3,0.6-0.8,0.6-1.4
		c0-0.3-0.1-0.6-0.3-0.8c-0.2-0.2-0.4-0.4-0.7-0.5c-0.3-0.1-0.6-0.3-1-0.4c-0.4-0.1-0.7-0.2-1.1-0.3c-0.4-0.1-0.7-0.3-1.1-0.4
		c-0.4-0.2-0.7-0.4-1-0.7c-0.3-0.3-0.5-0.6-0.7-1c-0.2-0.4-0.3-0.9-0.3-1.5c0-0.5,0.1-0.9,0.3-1.4c0.2-0.4,0.5-0.8,0.8-1.2
		c0.4-0.3,0.8-0.6,1.3-0.8c0.5-0.2,1.1-0.3,1.8-0.3c0.8,0,1.5,0.1,2.1,0.4c0.6,0.2,1.2,0.6,1.7,1L201.3,105.8z"/>
	<path d="M213.9,103.4v1.9h-5.8v3.6h4.6v1.9h-4.6v3.7h5.8v1.9h-8.2v-13H213.9z"/>
	<path d="M229.5,109.9c0,1-0.2,1.8-0.5,2.7c-0.3,0.8-0.8,1.5-1.3,2.1c-0.6,0.6-1.3,1.1-2.1,1.4c-0.8,0.3-1.7,0.5-2.7,0.5
		c-1,0-1.9-0.2-2.7-0.5c-0.8-0.3-1.5-0.8-2.1-1.4c-0.6-0.6-1-1.3-1.3-2.1c-0.3-0.8-0.5-1.7-0.5-2.7c0-1,0.2-1.8,0.5-2.7
		c0.3-0.8,0.8-1.5,1.3-2.1c0.6-0.6,1.3-1.1,2.1-1.4c0.8-0.3,1.7-0.5,2.7-0.5c0.7,0,1.3,0.1,1.9,0.2c0.6,0.2,1.1,0.4,1.6,0.6
		c0.5,0.3,0.9,0.6,1.3,1c0.4,0.4,0.7,0.8,1,1.3c0.3,0.5,0.5,1,0.6,1.6C229.4,108.7,229.5,109.3,229.5,109.9z M227,109.9
		c0-0.7-0.1-1.4-0.3-1.9c-0.2-0.6-0.5-1-0.8-1.4c-0.4-0.4-0.8-0.7-1.3-0.9c-0.5-0.2-1.1-0.3-1.7-0.3c-0.6,0-1.2,0.1-1.7,0.3
		c-0.5,0.2-0.9,0.5-1.3,0.9c-0.4,0.4-0.6,0.9-0.8,1.4c-0.2,0.6-0.3,1.2-0.3,1.9c0,0.7,0.1,1.4,0.3,1.9c0.2,0.6,0.5,1,0.8,1.4
		c0.4,0.4,0.8,0.7,1.3,0.9c0.5,0.2,1.1,0.3,1.7,0.3c0.6,0,1.2-0.1,1.7-0.3c0.5-0.2,0.9-0.5,1.3-0.9c0.4-0.4,0.6-0.9,0.8-1.4
		C226.9,111.3,227,110.6,227,109.9z"/>
	<path d="M233.3,103.5c0.2,0,0.4,0,0.6,0.1c0.2,0.1,0.4,0.1,0.6,0.2c0.2,0.1,0.3,0.2,0.5,0.4c0.1,0.1,0.3,0.3,0.4,0.5
		c0.1,0.2,0.2,0.4,0.2,0.6c0.1,0.2,0.1,0.4,0.1,0.6c0,0.2,0,0.4-0.1,0.6c-0.1,0.2-0.1,0.4-0.2,0.6c-0.1,0.2-0.2,0.3-0.4,0.5
		c-0.1,0.1-0.3,0.3-0.5,0.4c-0.2,0.1-0.4,0.2-0.6,0.2c-0.2,0.1-0.4,0.1-0.6,0.1c-0.2,0-0.4,0-0.6-0.1c-0.2-0.1-0.4-0.1-0.6-0.2
		s-0.3-0.2-0.5-0.4c-0.1-0.1-0.3-0.3-0.4-0.5c-0.1-0.2-0.2-0.4-0.2-0.6c-0.1-0.2-0.1-0.4-0.1-0.6c0-0.2,0-0.4,0.1-0.6
		c0.1-0.2,0.1-0.4,0.2-0.6c0.1-0.2,0.2-0.3,0.4-0.5c0.1-0.1,0.3-0.3,0.5-0.4s0.4-0.2,0.6-0.2C232.9,103.5,233.1,103.5,233.3,103.5z
		 M234.7,107.2c0.2-0.2,0.3-0.4,0.4-0.6s0.1-0.5,0.1-0.7c0-0.2,0-0.4-0.1-0.5c0-0.2-0.1-0.3-0.2-0.5c-0.1-0.1-0.2-0.3-0.3-0.4
		c-0.1-0.1-0.2-0.2-0.4-0.3c-0.1-0.1-0.3-0.1-0.4-0.2c-0.2,0-0.3-0.1-0.5-0.1c-0.3,0-0.5,0-0.7,0.2c-0.2,0.1-0.4,0.2-0.6,0.4
		c-0.2,0.2-0.3,0.4-0.4,0.6c-0.1,0.2-0.1,0.5-0.1,0.8c0,0.3,0,0.5,0.1,0.8c0.1,0.2,0.2,0.4,0.4,0.6c0.2,0.2,0.4,0.3,0.6,0.4
		c0.2,0.1,0.5,0.1,0.7,0.1c0.2,0,0.5,0,0.7-0.1C234.2,107.6,234.4,107.4,234.7,107.2l-0.8,0.1c-0.1,0-0.2,0-0.2-0.1l-0.3-0.7
		c0,0,0-0.1-0.1-0.1c0,0-0.1,0-0.1,0H233v1h-0.9v-2.9h1.1c0.2,0,0.4,0,0.6,0.1c0.2,0,0.3,0.1,0.4,0.2c0.1,0.1,0.2,0.2,0.2,0.3
		c0,0.1,0.1,0.2,0.1,0.4c0,0.1,0,0.2,0,0.3c0,0.1-0.1,0.2-0.1,0.2c0,0.1-0.1,0.1-0.2,0.2c-0.1,0.1-0.2,0.1-0.2,0.1
		c0.1,0,0.1,0.1,0.2,0.1c0,0.1,0.1,0.1,0.1,0.2L234.7,107.2z M233.2,105.7c0.1,0,0.2,0,0.2,0c0.1,0,0.1,0,0.1-0.1c0,0,0-0.1,0.1-0.1
		c0,0,0-0.1,0-0.2c0-0.1,0-0.1,0-0.1c0,0,0-0.1,0-0.1c0,0-0.1-0.1-0.1-0.1c0,0-0.1,0-0.2,0H233v0.7H233.2z"/>
	<path d="M250.5,111.6c0.1,0.2,0.2,0.4,0.3,0.6c0.1-0.2,0.2-0.4,0.3-0.6c0.1-0.2,0.2-0.4,0.3-0.6l3.8-7.2c0-0.1,0.1-0.2,0.2-0.2
		c0.1-0.1,0.1-0.1,0.2-0.1c0.1,0,0.1,0,0.2,0c0.1,0,0.2,0,0.3,0h1.8v13h-2.1V108c0-0.2,0-0.3,0-0.5c0-0.2,0-0.4,0-0.6l-3.9,7.4
		c-0.2,0.4-0.5,0.5-0.9,0.5h-0.3c-0.4,0-0.7-0.2-0.9-0.5l-4-7.4c0,0.2,0,0.4,0,0.6c0,0.2,0,0.4,0,0.5v8.4h-2.1v-13h1.8
		c0.1,0,0.2,0,0.3,0c0.1,0,0.1,0,0.2,0c0.1,0,0.1,0.1,0.2,0.1c0.1,0.1,0.1,0.1,0.1,0.2l3.9,7.2C250.3,111.2,250.4,111.4,250.5,111.6
		z"/>
	<path d="M270.3,103.4v1.9h-5.8v3.6h4.6v1.9h-4.6v3.7h5.8v1.9h-8.2v-13H270.3z M270.1,99.7l-2.9,2.6c-0.1,0.1-0.2,0.2-0.3,0.2
		s-0.2,0-0.4,0h-1.6l1.9-2.4c0.1-0.1,0.1-0.2,0.2-0.2c0.1-0.1,0.1-0.1,0.2-0.1c0.1,0,0.2,0,0.2,0c0.1,0,0.2,0,0.3,0H270.1z"/>
	<path d="M277.1,109.7l-4.1-6.3h2.4c0.2,0,0.3,0,0.4,0.1c0.1,0,0.1,0.1,0.2,0.2l3,4.8c0-0.1,0.1-0.1,0.1-0.2c0-0.1,0.1-0.2,0.1-0.2
		l2.7-4.3c0.1-0.1,0.1-0.2,0.2-0.3c0.1-0.1,0.2-0.1,0.3-0.1h2.3l-4.2,6.2l4.3,6.8h-2.4c-0.2,0-0.3,0-0.4-0.1
		c-0.1-0.1-0.2-0.2-0.2-0.3l-3-5c0,0.1-0.1,0.3-0.2,0.4l-2.9,4.6c-0.1,0.1-0.2,0.2-0.2,0.3c-0.1,0.1-0.2,0.1-0.4,0.1h-2.3
		L277.1,109.7z"/>
	<path d="M290,116.4h-2.4v-13h2.4V116.4z"/>
	<path d="M303.3,113.4c0.1,0,0.2,0.1,0.4,0.2l1,1c-0.5,0.7-1.2,1.2-1.9,1.5c-0.8,0.3-1.7,0.5-2.8,0.5c-1,0-1.8-0.2-2.6-0.5
		c-0.8-0.3-1.4-0.8-2-1.4c-0.5-0.6-1-1.3-1.3-2.1c-0.3-0.8-0.4-1.7-0.4-2.7c0-1,0.2-1.9,0.5-2.7c0.3-0.8,0.8-1.5,1.3-2.1
		c0.6-0.6,1.2-1,2-1.4c0.8-0.3,1.7-0.5,2.6-0.5c0.9,0,1.8,0.2,2.5,0.5c0.7,0.3,1.4,0.7,1.9,1.2l-0.8,1.1c0,0.1-0.1,0.1-0.2,0.2
		c-0.1,0.1-0.2,0.1-0.3,0.1c-0.1,0-0.2,0-0.3-0.1c-0.1-0.1-0.2-0.1-0.3-0.2c-0.1-0.1-0.2-0.2-0.4-0.2c-0.1-0.1-0.3-0.2-0.5-0.2
		c-0.2-0.1-0.4-0.1-0.7-0.2c-0.3-0.1-0.6-0.1-0.9-0.1c-0.6,0-1.1,0.1-1.6,0.3c-0.5,0.2-0.9,0.5-1.2,0.9c-0.3,0.4-0.6,0.9-0.8,1.4
		c-0.2,0.6-0.3,1.2-0.3,1.9c0,0.7,0.1,1.4,0.3,2c0.2,0.6,0.5,1,0.8,1.4c0.4,0.4,0.8,0.7,1.3,0.9c0.5,0.2,1,0.3,1.5,0.3
		c0.3,0,0.6,0,0.9-0.1c0.3,0,0.5-0.1,0.7-0.2c0.2-0.1,0.4-0.2,0.6-0.3c0.2-0.1,0.4-0.3,0.6-0.5c0.1-0.1,0.1-0.1,0.2-0.1
		C303.2,113.4,303.2,113.4,303.3,113.4z"/>
	<path d="M319.8,109.9c0,1-0.2,1.8-0.5,2.7c-0.3,0.8-0.8,1.5-1.3,2.1c-0.6,0.6-1.3,1.1-2.1,1.4c-0.8,0.3-1.7,0.5-2.7,0.5
		c-1,0-1.9-0.2-2.7-0.5c-0.8-0.3-1.5-0.8-2.1-1.4c-0.6-0.6-1-1.3-1.3-2.1c-0.3-0.8-0.5-1.7-0.5-2.7c0-1,0.2-1.8,0.5-2.7
		c0.3-0.8,0.8-1.5,1.3-2.1c0.6-0.6,1.3-1.1,2.1-1.4c0.8-0.3,1.7-0.5,2.7-0.5c0.7,0,1.3,0.1,1.9,0.2c0.6,0.2,1.1,0.4,1.6,0.6
		c0.5,0.3,0.9,0.6,1.3,1c0.4,0.4,0.7,0.8,1,1.3c0.3,0.5,0.5,1,0.6,1.6C319.7,108.7,319.8,109.3,319.8,109.9z M317.3,109.9
		c0-0.7-0.1-1.4-0.3-1.9c-0.2-0.6-0.5-1-0.8-1.4c-0.4-0.4-0.8-0.7-1.3-0.9c-0.5-0.2-1.1-0.3-1.7-0.3c-0.6,0-1.2,0.1-1.7,0.3
		c-0.5,0.2-0.9,0.5-1.3,0.9c-0.4,0.4-0.6,0.9-0.8,1.4c-0.2,0.6-0.3,1.2-0.3,1.9c0,0.7,0.1,1.4,0.3,1.9c0.2,0.6,0.5,1,0.8,1.4
		c0.4,0.4,0.8,0.7,1.3,0.9c0.5,0.2,1.1,0.3,1.7,0.3c0.6,0,1.2-0.1,1.7-0.3c0.5-0.2,0.9-0.5,1.3-0.9c0.4-0.4,0.6-0.9,0.8-1.4
		C317.2,111.3,317.3,110.6,317.3,109.9z"/>
</g>
<path d="M177.3,66.7v1c0,0.5-0.4,1-1,1h-7.1c-0.5,0-1-0.4-1-1v-1c0-0.5,0.4-1,1-1h7.1C176.9,65.8,177.3,66.2,177.3,66.7z
	 M160.3,58.1c0.7,2.1,1,4.6,1,7.4v3.3h-23.9c0,2.6,0.3,4.9,0.8,6.7c0.5,1.9,1.2,3.4,2.1,4.6c0.9,1.2,2,2.1,3.3,2.7
	c1.3,0.6,2.8,0.9,4.5,0.9c1.2,0,2.4-0.1,3.4-0.4c1.1-0.3,2-0.7,2.9-1.1c0.9-0.5,1.6-1,2.3-1.6c0.7-0.6,1.2-1.2,1.6-1.9
	c0.3,0.1,0.6,0.4,0.9,0.9c0.3,0.4,0.4,1,0.4,1.6c0,0.7-0.3,1.5-0.8,2.3c-0.5,0.8-1.3,1.6-2.3,2.3c-1.1,0.7-2.4,1.3-3.9,1.7
	c-1.6,0.5-3.4,0.7-5.5,0.7c-2.6,0-4.9-0.4-7-1.3c-2.1-0.9-3.8-2.2-5.2-3.8c-1.4-1.7-2.5-3.7-3.3-6.2c-0.8-2.4-1.1-5.2-1.1-8.3
	c0-6.7,1.4-11.7,4.1-15.1c2.8-3.4,6.7-5.1,11.8-5.1c2.3,0,4.4,0.4,6.2,1.1c1.8,0.7,3.4,1.8,4.7,3.2
	C158.6,54.2,159.6,55.9,160.3,58.1z M154.1,64.9c0-1.9-0.1-3.6-0.4-5.2c-0.3-1.6-0.7-2.9-1.3-4c-0.6-1.1-1.4-2-2.4-2.6
	c-1-0.6-2.2-0.9-3.7-0.9c-2.7,0-4.7,1.1-6.1,3.2c-1.4,2.2-2.3,5.3-2.5,9.5H154.1z M28.2,77.3l-14.8-41H0v3c3.4,0,3.8,1.2,3.8,3.7
	v37.8c0,2.5-0.5,3.7-3.8,3.7v3h12v-3c-3.4,0-3.8-1.2-3.8-3.7l0,0v-39l16.6,45.7h3.9l16.4-45.8l0,39.1c0,2.5-0.5,3.7-3.8,3.7v3h14.5
	v-3c-3.4,0-3.8-1.2-3.8-3.7V43c0-2.5,0.5-3.7,3.8-3.7v-3H42.9L28.2,77.3z M127.3,83c-1.2-1-2.5-2.5-3.7-4.4l-9.5-14.2l5-5.7
	c1.9-2.1,3.6-3.8,5.2-4.9c1.6-1.2,3.2-1.7,4.9-1.7v-3h-5.1l0,0h-9.2v3c3.2,0,4,1,2.1,3.3c-2,2.2-3.8,4.1-4.1,4.5l-8.1,8.8V41.2V33
	H94.3v3c3.4,0,3.8,1.2,3.8,3.7v41.2c0,2.5-0.5,3.7-3.8,3.7v3h14.4v-3c-3.4,0-3.8-1.2-3.8-3.7l0,0v-6.3l4.7-5.2l6.8,10.5
	c1,1.6,1.9,2.8,2.7,3.8c2.5,3,3.7,4.7,7.7,4.7c4.4,0,5-3.7,5-3.7h-0.2C130,84.5,128.5,84,127.3,83z M92,84.5v0.2
	c0,0.8-0.4,3.6-4.8,3.6c-4.7,0-5.8-5.8-6-6.8l0-0.1c-0.7,1-2.3,6.9-11.8,6.9c-1.6,0-3.1-0.2-4.4-0.7c-1.4-0.5-2.5-1.2-3.5-2.1
	c-1-0.9-1.8-2.1-2.3-3.6c-0.6-1.4-0.8-3.1-0.8-5.1c0-3.8,1.4-6.6,4.1-8.5c5.4-3.7,13.2-3.2,18.2-3.2v-4.3c0-1.3-0.1-2.5-0.2-3.6
	c-0.1-1.1-0.4-2-0.9-2.8c-0.5-0.8-1.1-1.4-2-1.8c-0.9-0.4-2-0.6-3.5-0.6c-1.4,0-2.5,0.2-3.3,0.6c-0.9,0.4-1.5,0.9-2,1.6
	c-0.5,0.7-0.8,1.5-1,2.5s-0.2,2-0.2,3.1c-2,0-3.5-0.3-4.5-1c-1-0.7-1.6-1.8-1.6-3.5c0-1.2,0.3-2.3,1-3.1c0.7-0.9,1.6-1.6,2.8-2.1
	c1.2-0.5,2.5-0.9,4.1-1.2c1.6-0.3,3.2-0.4,5-0.4c2.2,0,4.1,0.2,5.7,0.6c1.6,0.4,3,1.1,4.1,2.1c1.1,1,1.9,2.3,2.5,3.8
	c0.5,1.6,0.8,3.5,0.8,5.8v18.6c0,1,0.1,1.7,0.2,2.4C88.3,85.8,92,84.5,92,84.5z M80.6,68.2c-3.5,0-9.7-0.4-13,2.5
	c-0.8,0.7-1.4,1.6-1.8,2.7c-0.4,1.1-0.5,2.3-0.5,3.7c0,2.2,0.5,3.9,1.4,5c0.9,1.1,2.4,1.7,4.4,1.7c1.4,0,2.8-0.2,3.9-0.7
	c1.2-0.5,2.2-1.1,3-2c0.8-0.9,1.5-1.9,1.9-3.1c0.4-1.2,0.7-2.6,0.7-4.1V68.2z M389.3,80.4V62.4c0-8.9-3.8-14-12.5-14
	c-4.6,0-8.7,1.8-10.8,6.1V33.1h-5.8h-1h-3.8v3c3.4,0,3.8,1.2,3.8,3.7c0,11.9,0,36.2,0,41.1c0,2.5-0.5,3.7-3.8,3.7v3h14.4v-3
	c-3.4,0-3.8-1.2-3.8-3.6V65.4c0-6.4,2.7-12.4,8.7-12.4c6,0,7.9,3.8,7.9,9.8V82c0,2.6,1.5,6.4,6.9,6.4c3.9,0,4.6-2.9,4.6-2.9
	S389.3,86.2,389.3,80.4z M403,85c0.1,0.7,0.3,1,0.3,1.2h-1.2c-0.1-0.2-0.2-0.6-0.4-1.2c-0.1-0.5-0.4-0.7-1-0.7h-0.5v1.9h-1.1v-4.7
	c0.4-0.1,1-0.1,1.8-0.1c0.9,0,1.3,0.1,1.6,0.4c0.3,0.2,0.5,0.5,0.5,1c0,0.6-0.4,1-1,1.1v0.1C402.6,84,402.8,84.3,403,85z
	 M401.9,82.8c0-0.4-0.3-0.7-1-0.7c-0.3,0-0.5,0-0.6,0.1v1.4h0.5C401.4,83.5,401.9,83.3,401.9,82.8z M233.1,85.2h0.9v3h-19.7v-3h1.6
	c3.7,0,4.8-2.1,4.1-4.7c-0.1-0.4-0.3-0.9-0.4-1.4l-2.1-5.8c-3.2,1.1-6.7,1.8-10.6,1.8c-3.6,0-6.9-0.6-9.9-1.6l-1.9,5.2
	c-0.2,0.6-0.4,1.1-0.5,1.7c-0.5,2.3,0.1,3.5,1,4.1c0.8,0.6,2,0.8,3.6,0.8h1.6v3h-17.5v-3h1.4c0.7,0,1.3-0.1,1.8-0.2
	c1.2-0.4,1.9-1.5,2.5-2.6c0.4-0.7,0.8-1.7,1.2-2.8l2.9-7.8c-10-5.3-15.6-16.1-15.6-27.4c0-30.8,34.3-41,63.7-41c25.7,0,51,9.6,65,20
	c0.1,0.1,0.1,0.2,0.1,0.3c-0.1,0.1-0.2,0.2-0.3,0.1c-10.1-5.4-32.3-15.6-63-15.6c-26.8,0-60.5,8.5-60.5,36.8
	c0,9.6,4.7,18.1,12.1,22.8l11.5-30.8h5.6L223,67.7c4.5-2.9,7.8-7.1,9.8-12c0-0.1,0.2-0.2,0.3-0.1c0.1,0,0.2,0.1,0.2,0.3
	c-0.8,5.6-4.2,10.8-9.4,14.4l4.1,11.3c0.3,0.7,0.6,1.4,0.9,1.9C229.9,84.9,231.3,85.2,233.1,85.2z M216.7,70.6l-9.1-25.8l-9.1,25
	c3,1.2,6.3,1.9,9.9,1.9C211.4,71.7,214.2,71.3,216.7,70.6z M405.9,83.7c0,2.7-2.1,4.8-4.8,4.8c-2.7,0-4.9-2.1-4.9-4.8
	c0-2.7,2.2-4.7,4.9-4.7h0C403.8,78.9,405.9,81,405.9,83.7z M405,83.7c0-2.2-1.7-3.9-4-3.9c-2.2,0-4,1.7-4,3.9c0,2.2,1.8,3.9,4,3.9
	C403.3,87.6,405,85.9,405,83.7z M320.5,26.6c-0.2-0.2-0.3-0.5-0.3-0.8l1-4.8c0.1-0.3-0.3-0.6-0.5-0.4l-4.4,2.3
	c-0.3,0.1-0.6,0.1-0.9,0l-4.3-2.5c-0.3-0.2-0.6,0.1-0.6,0.4l0.8,4.9c0.1,0.3-0.1,0.6-0.3,0.8l-3.7,3.3c-0.2,0.2-0.1,0.6,0.2,0.7
	l4.9,0.7c0.3,0,0.6,0.2,0.7,0.5l2,4.5c0.1,0.3,0.5,0.3,0.7,0l2.2-4.4c0.1-0.3,0.4-0.5,0.7-0.5l4.9-0.5c0.3,0,0.5-0.4,0.2-0.7
	L320.5,26.6z M349.9,69.9c-0.9-0.9-2-1.7-3.3-2.5c-1.4-0.8-3-1.6-4.9-2.3c-1.6-0.7-2.9-1.2-4.1-1.8c-1.1-0.5-2.1-1.1-2.8-1.6
	c-0.7-0.6-1.2-1.2-1.6-1.8c-0.3-0.7-0.5-1.5-0.5-2.4c0-0.8,0.1-1.6,0.4-2.3c0.3-0.7,0.7-1.3,1.2-1.8c0.5-0.5,1.3-0.9,2.1-1.2
	c0.9-0.3,1.9-0.4,3.1-0.4c2.1,0,3.7,0.7,4.7,2c1,1.3,1.5,3.2,1.5,5.6c1.7,0,2.9-0.4,3.8-1.2c0.9-0.8,1.3-1.8,1.3-3.1
	c0-0.9-0.2-1.7-0.7-2.5s-1.1-1.5-2-2.1c-0.9-0.6-2-1.1-3.3-1.4c-1.3-0.4-2.8-0.5-4.5-0.5c-2,0-3.9,0.2-5.5,0.7
	c-1.7,0.4-3.1,1.1-4.3,1.9c-1.2,0.9-2.1,1.9-2.7,3.2c-0.6,1.3-1,2.7-1,4.3c0,1.6,0.2,2.9,0.7,4c0.4,1.1,1.1,2.1,2,3
	c0.9,0.9,2,1.7,3.4,2.5c1.4,0.8,3,1.5,4.8,2.4c1.7,0.7,3.2,1.4,4.3,2c1.1,0.6,2,1.2,2.7,1.7c0.7,0.6,1.1,1.2,1.4,1.8
	c0.3,0.6,0.4,1.4,0.4,2.3c0,1-0.2,1.8-0.5,2.6c-0.4,0.8-0.9,1.5-1.5,2.1c-0.7,0.6-1.5,1-2.5,1.3c-1,0.3-2.1,0.5-3.4,0.5
	c-1.4,0-2.7-0.2-3.7-0.7c-1-0.5-1.8-1.1-2.4-2c-0.6-0.8-1-1.8-1.3-2.9c-0.3-1.1-0.4-2.3-0.4-3.5c-0.4,0-0.9,0.1-1.4,0.2
	c-0.5,0.2-1,0.4-1.5,0.8c-0.5,0.4-0.8,0.9-1.2,1.5c-0.3,0.6-0.5,1.4-0.5,2.4c0,1.3,0.3,2.4,0.8,3.3c0.6,0.9,1.4,1.7,2.4,2.4
	c1,0.6,2.3,1.1,3.7,1.4c1.5,0.3,3.1,0.5,4.9,0.5c2.1,0,4.1-0.2,5.8-0.7c1.7-0.5,3.2-1.2,4.5-2.1c1.2-0.9,2.2-2.1,2.9-3.5
	c0.7-1.4,1-3,1-4.9c0-1.5-0.2-2.8-0.6-4C351.4,71.9,350.8,70.9,349.9,69.9z M243,65.8h-7.1c-0.5,0-1,0.4-1,1v1c0,0.5,0.4,1,1,1h7.1
	c0.5,0,1-0.4,1-1v-1C243.9,66.2,243.5,65.8,243,65.8z M310.4,37.1h-15.2v3h1.6c1.6,0,2.7,0.3,3.5,0.8c0.8,0.5,1.2,1.4,1.2,2.6
	c0,0.8-0.6,2.9-0.8,3.7l-9.2,31.5l-11.9-41.1h-5.1l-11.4,42.2L253.7,46c-0.1-0.5-0.3-1-0.4-1.4c-0.4-1.3-0.2-2.9,0.9-3.8
	c0.7-0.5,1.8-0.8,3.2-0.8h1.6v-3h-19.5v3c1.4,0,3-0.1,4.1,0.8c0.9,0.7,1.4,1.9,1.8,3l12.9,43.8h6.5l10.8-39.6l11.5,39.6h6.3l12.1-42
	c0.3-1.2,0.7-2.1,1-2.8c1-2,2-2.5,3.6-2.7V37.1z M319.8,80.8c0-0.5,0-31.8,0-31.8h-9.7l-0.9,3c3.4,0,3.8,1.2,3.8,3.7l0,0l0,25.1
	c0,2.5-0.5,3.7-3.8,3.7v3h14.3v-3C320.2,84.5,319.8,83.3,319.8,80.8z"/>
</svg>
