<?xml version="1.0" encoding="utf-8"?>
<!-- Generator: Adobe Illustrator 25.0.0, SVG Export Plug-In . SVG Version: 6.00 Build 0)  -->
<svg version="1.1" xmlns="http://www.w3.org/2000/svg" xmlns:xlink="http://www.w3.org/1999/xlink" x="0px" y="0px"
	 viewBox="0 0 528.2 464.1" style="enable-background:new 0 0 528.2 464.1;" xml:space="preserve">
<g id="Layer_1">
	<g>
		<g>
			<path d="M189.7,286c-0.2-0.5-0.4-1.1-0.7-1.6c0.1-0.1,0.2-0.2,0.2-0.3c13.5,9.7,26.9,19.4,40.4,29.1c-0.1,0.1-0.2,0.2-0.2,0.4
				c-12.8-8.8-25.6-17.6-38.6-26.5c-1.8,3.3-4.6,1.9-7,1.6c-10.3-1-19.7-5.2-29.4-8c-1.9-0.5-3.5-0.8-5.3,0.1c-1.9,1-3.7,0.7-5.6,0
				c-5.5-1.8-9.6-5.6-14.3-8.7c-5-3.3-10-6.8-14.8-10.3c-11-8.1-21.5-16.9-29.8-27.8c-5-6.6-9-13.9-13.6-20.8c-4-6.1-8.3-12-12.4-18
				c-5.1-7.2-7.5-15.4-8.4-24c-0.4-4-0.1-8.1-0.5-12.1c-0.2-1.9-1.4-3.6-1.9-5.4c-0.4-1.3-0.5-2.7-0.5-4c0-0.7,0.2-1.3,0.3-2
				c1-9.6,6.9-16.7,12.4-23.9c6.4-8.4,14.4-15.3,22.8-21.8c6.2-4.9,13.2-8,20.7-10.5c11.5-3.9,23.1-7.1,35.3-8
				c8.5-0.6,16.9,0.4,25,3.1c0.7,0.2,1.5,0.5,1.9,1c4,4.2,9.3,6.4,14.3,9.1c12.8,7,24.9,14.9,35.3,25.3c4.7,4.7,8.6,10,11.8,15.9
				c0.4,0.8,1,1.5,1.7,2.6c0.4-0.9,0.7-1.3,0.8-1.8c1.4-8.1,3-16.2,4.2-24.3c1.4-9.9,3.8-19.5,7.4-28.7c2.2-5.5,5.1-10.7,7.7-16.1
				c4.6-9.4,11.2-17.3,18.2-25c4.3-4.7,8.3-9.8,12.8-14.3c4.4-4.4,9.1-8.4,13.8-12.5c1.1-0.9,2.6-1.4,3.9-2.1
				c5.3-2.6,10.7-5,15.8-7.8c5.3-2.9,11.1-3.6,16.9-4.8c4.7-1,9.4-2.2,14.1-2.7c3.3-0.3,6.7,0.3,10,0.8c8.7,1.3,17.3,2.7,26,4.1
				c1.1,0.2,2.3,0.8,3.1,1.6c6.9,6.6,13.8,13.2,20.6,19.8c1,1,2,2.2,2.7,3.5c2.3,3.8,4.3,7.6,6.6,11.4c4.7,7.8,7,16.5,9.9,25
				c1.3,3.8,1,8,1.4,12c0.4,3.9,0.8,7.8,1.1,11.7c0.1,2.1-0.3,4.3-0.2,6.5c0.4,10.8-1.9,21.1-4.9,31.3c-4.2,14.4-8.7,28.7-13.6,42.8
				c-2.6,7.5-6.3,14.6-9.8,21.8c-4.7,9.9-9.9,19.5-14.5,29.5c-3.5,7.7-6.3,15.8-9.6,23.6c-4.6,11-9.1,22-14.1,32.7
				c-3.5,7.4-8.1,14.2-12,21.4c-6,10.9-11.6,22-17.7,32.8c-3.5,6.2-7.7,11.9-11.5,17.9c-4.4,6.9-8.7,13.8-13.2,20.6
				c-2.4,3.6-5.4,6.9-8.2,10.3c-0.2-0.1-0.3-0.2-0.5-0.3c0.8-1.4,1.5-2.8,2.3-4.3c3-5.8,6-11.6,9.1-17.4c0.8-1.5,0.7-2.6-0.8-3.6
				c-1.5-1.1-2.9-2.3-4.3-3.4c-1.1-0.9-1.9-0.8-2.5,0.5c-1.1,2.3-2.2,4.7-3.3,7c-0.3,0.6-0.6,1.3-1.4,1.7c1.2-2.8,2.4-5.6,3.6-8.4
				c1.2-2.7,1.2-2.7-1.4-4.7c-20.3-15.7-41.3-30.3-62.5-44.7c-14.5-9.8-29.1-19.4-43.7-29.1c-0.5-0.3-1-0.6-1.9-1.1
				c33.6,27.2,66.9,54.1,100.1,81c-0.1,0.2-0.2,0.3-0.4,0.5c-3.2-2.3-6.4-4.7-9.5-7c-14.1-10.3-28.2-20.7-42.4-30.9
				c-25.6-18.4-51.2-36.7-76.8-54.9c-10.7-7.6-21.6-14.8-32.3-22.5c-3.9-2.8-7.5-6-10.9-9.3c-5.8-5.7-12-10.9-18.6-15.6
				c-1.6-1.1-3-2.4-4.9-3.2c0.8,1.4,1.6,2.8,2.4,4.3c2.7,5.1,5.7,10.1,8,15.4c3.2,7.2,7.9,12.8,14.5,17c1.7,1,3.3,2.2,4.8,3.3
				c3.7,2.8,7.8,4,12.3,3.6c3.9-0.4,7.2,1,10.3,2.9c11.1,6.5,22.3,13.1,33.2,19.8c3.3,2,6,5,9,7.5c0.4,0.3,0.8,0.7,1.2,1.1
				C189.5,286.1,189.6,286,189.7,286z M397.2,115c-0.2,0-0.3-0.1-0.5-0.1c-0.4,1.1-0.8,2.2-1.1,3.3c-1.5,4.5-2.6,9.1-4.5,13.4
				c-1.6,3.7-4.1,7-6.1,10.5c-2.3,4-4.8,7.8-6.7,12c-2.5,5.4-4.5,11-6.5,16.6c-1,2.9-1.7,5.9-1,9.1c0.9,3.9,0.5,7.7-1,11.5
				c-4.5,11.3-9,22.6-13,34.1c-2.1,6-4.2,11.8-7.8,17c-0.5,0.8-1,1.5-1.7,2.7c-0.6-1-1.2-1.6-1.3-2.3c-0.4-2.3-0.9-4.6-0.8-6.8
				c0.3-8.2,0.9-16.4,1.4-24.6c0.3-4,1-7.8-0.6-11.9c-0.9-2.4-0.2-5.8,0.7-8.4c1.4-4,3.7-7.6,5.5-11.5c5.1-10.8,11.1-21.2,14.4-32.8
				c2.2-7.9,5.1-15.5,7.2-23.4c1.7-6.2,2.9-12.6,4.1-19c0.4-1.9,0.6-4.2,0-6c-2.5-7.9-6.2-15-12.5-20.7c-2.8-2.5-5.6-4.2-9.3-4.8
				c-1.6-0.2-3.4-0.6-4.5-1.6c-1.9-1.8-3.8-1.6-6-1.1c-7.8,1.7-14.6,5.5-20.8,10.5c-3.2,2.6-6.9,3.8-10.9,4.5
				c-0.6,0.1-1.4,0.2-1.9,0.6c-4.8,4.5-9.6,8.9-12.7,14.8c-3,5.6-5.9,11.2-8.9,16.9c-6.7,12.6-12.9,25.5-16.1,39.5
				c-4.5,19.7-8.6,39.6-12.9,59.3c-0.2,0.8-0.2,1.7,0.1,2.4c3.8,9.8,7.5,19.7,11.4,29.4c1.3,3.3,3,6.4,4.6,9.7
				c-1.5,0.8-2.9,1.6-4.3,2.3c-3.7,1.8-10.3,0.4-12.7-3c-2.8-3.8-5.6-7.7-8-11.7c-5.6-9.4-10.9-19-16.3-28.5
				c-0.4-0.6-0.9-1.2-1.3-1.8c-0.5,0.9-0.7,1.6-0.6,2.3c0.3,4,0.7,7.9,1.1,11.9c0.5,4.1,1.5,8.1,3.8,11.6
				c5.5,8.2,10.9,16.5,16.3,24.7c0.6,0.9,1.2,2,1.7,2.9c-0.1,0.1-0.3,0.2-0.4,0.4c-5.2-3.1-10.3-6.1-15.5-9.2
				c-0.7-0.4-1.4-1.1-1.8-1.8c-5.3-8.9-10.6-17.9-15.9-26.9c-2.5-4.4-4.6-9-7.4-13.3c-4.1-6.3-8.5-12.3-12.9-18.4
				c-4.7-6.5-9-13.2-14.2-19.2c-7.9-9.3-16.3-18.3-27.3-24.3c-7.4-4-15.2-6.3-23.6-2.6c-0.4,0.2-0.9,0.3-1.3,0.5
				c-3.8,1.3-7.8,2.2-11.5,3.9c-8.2,3.9-13.2,10.9-16.5,19.2c-0.2,0.5-0.4,1.2-0.2,1.8c1.5,6.1,2.5,12.4,5.9,18
				c6.5,10.6,15,19.1,24.8,26.4c8.2,6,16.7,11.4,25,17.3c30,21.4,60,42.9,90,64.4c5.3,3.8,10.8,7.6,15.5,12.1
				c9.8,9.4,19.2,19.2,28.8,28.9c0.6,0.6,1.2,1.1,2.1,1.9c0.5-1,1-1.8,1.3-2.5c2.8-6.4,5.2-13.1,8.4-19.3
				c7.7-15.3,15.7-30.5,23.6-45.7c2.9-5.6,6.4-11,9-16.8c4.6-10.3,8.7-20.9,13.1-31.4c3.4-8.1,6.7-16.2,10.6-24.1
				c9.3-19.2,19.9-37.8,26.2-58.3c1.2-3.8,2.4-7.6,2.8-11.5c0.7-7,0.9-14.1,1.3-21.2C397.4,116,397.3,115.5,397.2,115z M243.8,173.1
				c0.2,0,0.4-0.1,0.6-0.1c0.1-0.9,0.3-1.8,0.3-2.6c0.9-10.9,1.4-21.8,2.7-32.7c1.5-12.6,4.7-24.8,9.1-36.7
				c5.7-15.5,13.5-29.7,25.5-41.4c10.3-10,21.6-18.8,34.3-25.6c1.4-0.7,2.7-1.6,4.1-2.3c0-0.2-0.1-0.4-0.1-0.5c-0.6,0-1.3-0.1-1.9,0
				c-3.2,0.6-6.6,0.9-9.7,1.9c-11.8,3.5-21.5,10.6-30.6,18.6c-14.8,13.1-24.6,29.5-30.5,48.2c-5.1,16-9.1,32.3-10.6,49.2
				c-0.5,5.3-0.5,10.3,2.5,15c1.2,1.8,1.8,3.9,2.7,5.9C242.7,171,243.3,172,243.8,173.1z M128.8,129c0,0.2,0,0.4,0,0.6
				c0.6,0.3,1.3,0.6,2,0.7c7.7,1.4,15.2,3.5,22.3,6.9c4.2,2.1,8.9,3.4,12.8,6c11.1,7.2,20.6,16.1,28.2,27c10,14.3,20,28.7,30,43.1
				c0.3,0.5,0.4,1.1,0.6,1.7c0.5-0.2,0.9-0.5,1.4-0.7c0-3.8,0.1-7.6-0.1-11.5c-0.1-1.4-0.5-3-1.2-4.1c-5.1-7.4-10.2-14.8-15.5-22
				c-5.5-7.5-10.7-15.1-16.8-22c-8.5-9.6-18.1-17.9-30.1-23.2c-9.7-4.2-19.6-5.9-30-3.6C131.1,128.2,130,128.6,128.8,129z
				 M364.2,232.4c-0.1-0.1-0.3-0.1-0.4-0.2c-0.2,0.3-0.4,0.6-0.6,1c-2.3,5.2-4.7,10.5-7,15.7c-4.3,9.5-8.1,19.1-13.9,27.9
				c-4.6,7.1-8.9,14.3-13.2,21.6c-3.7,6.3-7.5,12.5-10.9,18.9c-5.4,9.9-10.5,20-15.6,30c-0.3,0.6-0.1,1.9,0.4,2.5
				c1,1.4,2.2,2.5,3.3,3.8c2.3,2.7,2.3,2.6,3.8-0.6c10.8-22.9,21.6-45.8,32.4-68.7c2.5-5.2,5.6-10.2,7.9-15.5
				c4-9.5,7.5-19.3,11.2-28.9C362.5,237.5,363.3,235,364.2,232.4z M384.1,59.3c0.1-0.1,0.3-0.2,0.4-0.3c-0.1-0.4-0.2-0.8-0.4-1.1
				c-3.5-5.5-6.9-11.1-10.7-16.4c-1.8-2.4-4-4.6-7-6c-4.2-2-8.6-2.1-13-2.4c-1.2-0.1-2.4,0.3-3.6,0.4c3.3,1,6.5,1.5,9.7,1.9
				c3.8,0.5,6.2,2.8,8.1,5.9c2,3.3,3.9,6.6,6.4,9.5c2.4,2.7,5.5,4.7,8.3,7.1C383,58.4,383.6,58.9,384.1,59.3z M76.4,164.2
				c0.3,0.1,0.7,0.2,1,0.3c4.9-13.3,14.2-23.3,24.1-32.9c-1,0.1-1.7,0.5-2.4,1c-6.1,4.4-12.2,8.9-18.4,13.2
				c-1.5,1.1-2.2,2.3-2.5,4.1c-0.4,2.9-1.1,5.7-1.5,8.5C76.5,160.4,76.5,162.3,76.4,164.2z M414.3,73c-2.5-14.5-8.5-27.4-17.2-39.2
				c-0.1,0.7,0.1,1.3,0.3,1.9c1.9,5.5,4.3,10.8,5.7,16.4C405.2,60,409.4,66.7,414.3,73z M390.9,171.3c0.2,0.1,0.4,0.2,0.6,0.3
				c0.7-0.9,1.6-1.7,2-2.7c2.4-5.4,4.8-10.8,7.1-16.3c0.3-0.8-0.1-2-0.1-3c-1.9,0-2.2,1.1-2.6,2.2c-1.8,4.9-3.6,9.9-5.4,14.8
				C392,168.2,391.4,169.7,390.9,171.3z M98.4,179.6c1.3-4.6,2.4-8.9,3.7-13.7c-3.7,2.4-6.1,5.4-8.3,8.6c-0.2,0.2-0.2,0.7,0,0.9
				C95,177.2,96.3,179.1,98.4,179.6z M128.9,233.8c1-1.6,0.7-2.5-0.2-3.3c-2.4-2.4-4.7-4.8-7.1-7.1c-1.3-1.3-2.8-1.6-4.9-0.8
				C120.6,226.3,124.6,229.9,128.9,233.8z"/>
			<path d="M434,456c-3.1,0-5.8,0-8.6,0c0-20.1,0-40.1,0-60.3c2,0,3.9-0.1,5.8,0.1c0.6,0.1,1.3,0.8,1.7,1.4
				c9.1,13,18.1,26.1,27.1,39.1c0.3,0.4,0.6,0.7,1.1,1.5c0-14.2,0-28,0-41.9c2.9,0,5.7,0,8.6,0c0,20,0,40,0,60.2c-2,0-4,0.1-6-0.1
				c-0.6-0.1-1.3-0.8-1.7-1.4c-8.9-12.8-17.7-25.5-26.5-38.3c-0.4-0.5-0.8-1-1.5-2C434,428.5,434,442.1,434,456z"/>
			<path d="M153.2,404.5c0,5.9,0,11.3,0,17c9.1,0,18.1,0,27.2,0c0,3,0,5.7,0,8.7c-9.1,0-18,0-27.1,0c0,5.8,0,11.3,0,17.1
				c9.2,0,18.4,0,27.7,0c0,3,0,5.8,0,8.7c-12.1,0-24.2,0-36.4,0c0-20,0-39.9,0-60c12.1,0,24.2,0,36.4,0c0,2.8,0,5.5,0,8.5
				C171.7,404.5,162.5,404.5,153.2,404.5z"/>
			<path d="M384.8,395.9c12.1,0,24.2,0,36.4,0c0,2.8,0,5.6,0,8.6c-9.2,0-18.3,0-27.6,0c0,5.7,0,11.2,0,17c9,0,17.9,0,27,0
				c0,3,0,5.7,0,8.7c-9,0-17.9,0-27,0c0,5.8,0,11.3,0,17.1c9.2,0,18.5,0,27.8,0c0,3,0,5.8,0,8.6c-12.2,0-24.3,0-36.6,0
				C384.8,436,384.8,416,384.8,395.9z"/>
			<path d="M347.8,436c0,6.7,0,13.3,0,19.9c-3,0-5.8,0-8.7,0c0-20,0-40,0-59.9c0.2-0.1,0.3-0.3,0.4-0.3c7.6,0,15.3-0.1,22.9,0
				c10.2,0.2,17,8.2,18,17.5c1,9.5-3.4,17.9-11.7,21.2c-1.9,0.8-4,1.2-6.1,1.3c-4.2,0.2-8.5,0.1-12.8,0.1
				C349.3,435.9,348.7,436,347.8,436z M347.9,427.3c4.7,0,9.3,0.1,13.8,0c6-0.2,10.4-5.2,10.3-11.3c-0.1-6.7-4.4-11.3-10.7-11.4
				c-4.1-0.1-8.1,0-12.2,0c-0.4,0-0.9,0.1-1.3,0.2C347.9,412.3,347.9,419.7,347.9,427.3z"/>
			<path d="M46.1,456.1c1.7-4.3,3.3-8.4,4.9-12.5c6.2-15.7,12.5-31.3,18.6-47c0.6-1.4,1.3-1.7,2.7-1.7c4.3,0.1,4.4,0,6,4
				c7.4,18.7,14.8,37.4,22.2,56.1c0.1,0.3,0.2,0.6,0.3,1c-3.1,0-6,0-9.2,0c-2-4.9-4.1-9.7-6-14.7c-0.8-2.2-1.8-3.1-4.3-3
				c-5.6,0.2-11.2,0.1-16.8,0c-1.4,0-2,0.5-2.5,1.7c-1.9,4.8-3.9,9.6-5.8,14.4c-0.5,1.3-1.2,1.7-2.5,1.7
				C51.2,456,48.8,456.1,46.1,456.1z M73.8,409.5c-0.2,0-0.3,0-0.5,0c-2.4,6.8-4.8,13.6-7.3,20.5c5.1,0,9.9,0,14.9,0
				C78.5,423,76.2,416.2,73.8,409.5z"/>
			<path d="M528.2,456.1c-2.8,0-5.5,0.1-8.1-0.1c-0.6,0-1.4-0.7-1.6-1.3c-2.1-4.8-4.1-9.7-6-14.6c-0.5-1.3-1.2-1.8-2.6-1.8
				c-5.9,0.1-11.9,0.1-17.8,0c-1.4,0-2.2,0.4-2.7,1.8c-1.9,4.9-4,9.7-5.9,14.6c-0.4,1.1-0.9,1.5-2,1.4c-2.6-0.1-5.1,0-7.9,0
				c2-5.2,4-10.1,5.9-15c5.9-14.8,11.7-29.6,17.6-44.4c0.5-1.3,1.2-1.8,2.6-1.8c4.5,0.1,4.5,0,6,3.9c7.4,18.7,14.8,37.5,22.3,56.2
				C527.9,455.2,528,455.5,528.2,456.1z M500.9,408.8c-2.6,7.4-5,14.2-7.5,21.2c5.1,0,9.9,0,14.9,0
				C505.9,423,503.5,416.2,500.9,408.8z"/>
			<path d="M307.7,456.1c-2.9,0-5.4,0.1-8-0.1c-0.7,0-1.5-0.9-1.8-1.6c-2.1-4.8-4.1-9.7-6-14.6c-0.4-1.1-1-1.5-2.2-1.5
				c-6.1,0.1-12.3,0.1-18.4,0c-1.2,0-1.8,0.4-2.2,1.5c-2,4.9-4.1,9.8-6,14.8c-0.4,1.1-0.9,1.6-2.2,1.5c-2.5-0.1-5,0-7.8,0
				c1.5-3.8,2.9-7.5,4.3-11.1c6.2-15.6,12.4-31.2,18.6-46.8c0.4-1.1,0.8-2.9,1.6-3.1c1.8-0.5,3.7-0.3,5.6-0.1c0.4,0,0.8,0.8,1,1.4
				c3.6,8.9,7.2,17.9,10.7,26.9c4.1,10.3,8.1,20.6,12.2,30.8C307.3,454.6,307.5,455.2,307.7,456.1z M287.9,430
				c-2.4-7-4.8-13.8-7.2-20.5c-0.1,0-0.3,0-0.4,0c-2.4,6.8-4.9,13.6-7.3,20.6C278,430,282.8,430,287.9,430z"/>
			<path d="M54.6,395.8c-2.1,5.2-4,10-5.9,14.8c-5.9,14.6-11.8,29.3-17.6,43.9c-0.5,1.3-1.2,1.7-2.5,1.7c-4.4,0-4.5,0-6.2-4.3
				c-7.3-18.1-14.5-36.2-21.8-54.2c-0.2-0.5-0.3-1-0.6-1.9c3,0,5.8-0.1,8.6,0.1c0.5,0,1.1,1,1.4,1.7c3.6,8.8,7,17.7,10.6,26.5
				c2.1,5.4,4.3,10.8,6.6,16.7c0.9-2.2,1.7-3.9,2.4-5.7c5-12.5,10-24.9,15-37.4c0.6-1.5,1.4-2,3-1.9
				C49.7,395.9,51.9,395.8,54.6,395.8z"/>
			<path d="M215.8,455.9c0-20.1,0-40,0-60c2.9,0,5.6,0,8.6,0c0,17,0,34,0,51.3c9.6,0,18.9,0,28.3,0c0,3.1,0,5.8,0,8.7
				C240.4,455.9,228.2,455.9,215.8,455.9z"/>
			<path d="M112.6,447.3c9.7,0,18.9,0,28.3,0c0,3,0,5.7,0,8.6c-12.3,0-24.5,0-36.8,0c0-20,0-39.9,0-60c2.8,0,5.5,0,8.5,0
				C112.6,412.9,112.6,429.9,112.6,447.3z"/>
			<path d="M232.6,326c-6.3-4.9-12.7-9.7-18.7-14.8c-1.9-1.6-2.9-4.2-4.3-6.4c0.2-0.1,0.3-0.3,0.5-0.4c0.4,0.2,0.8,0.3,1.1,0.5
				c5.3,3.8,10.6,7.5,15.7,11.5c1.4,1.1,2.3,2.7,3.3,4.3c1,1.6,1.9,3.3,2.8,4.9C232.9,325.7,232.8,325.9,232.6,326z"/>
			<path d="M315,295.2c3.7-6.7,7.4-13.4,11.1-20.1c0.2-0.4,0.6-0.7,1-1c2.5-2,5-4,7.8-5.9c-1.4,2.5-2.9,5-4.3,7.4
				c-1.4,2.5-3.1,4.9-4.3,7.6C324.1,288.6,320.1,292.3,315,295.2z"/>
			<path d="M350.8,242.6c-6.1,14.9-12.2,29.8-21.6,43.6c1.4-2.6,2.4-4.8,3.6-6.9c5.8-9.9,10-20.5,14.2-31.1c0.8-2.1,2.2-3.9,3.3-5.9
				C350.4,242.4,350.6,242.5,350.8,242.6z"/>
		</g>
	</g>
</g>
<g id="Layer_2">
</g>
</svg>
