<?xml version="1.0" encoding="utf-8"?>
<!-- Generator: Adobe Illustrator 25.0.0, SVG Export Plug-In . SVG Version: 6.00 Build 0)  -->
<svg version="1.1" xmlns="http://www.w3.org/2000/svg" xmlns:xlink="http://www.w3.org/1999/xlink" x="0px" y="0px"
	 viewBox="0 0 459.63 415.67" style="enable-background:new 0 0 459.63 415.67;" xml:space="preserve">
<g id="Capa_1_copia">
</g>
<g id="Capa_2">
	<g>
		<g>
			<path d="M273.16,85.06c0-25.85-20.96-46.81-46.81-46.81c-25.86,0-46.83,20.96-46.83,46.81c0,25.85,20.97,46.82,46.83,46.82
				C252.21,131.88,273.16,110.91,273.16,85.06"/>
			<path d="M231.78,261.97V143.46l15.17-7.25v-3.09c-3.48,2.37-31.44,4.16-39.59,0v3.09l19.35,7.25v118.51H231.78z"/>
			<path d="M450.57,188.34v-0.04l-0.31-0.04l-1.82-0.24l-11.09-1.46c3.95-1.71,6.72-5.54,6.72-9.97c0-0.11,0-0.22-0.02-0.34
				c-0.12-3.71-2.12-6.92-5.05-8.78c-0.32-0.18-0.61-0.37-0.95-0.54l-0.38-0.08l-5.04-1.03l-76.76-11.29c0,0,30.68-4.15,39.43-4.15
				c8.78,0,10.99-12.67,10.99-12.67l-41.82-6.01c-0.03-35.52-15.73-68.76-41.06-91.89c-25.33-23.18-60.28-37.45-98.83-37.45
				c-36.88,0-70.27,14.46-94.43,37.88c-24.16,23.39-39.11,56.39-39.13,92.17l-37.66,5.41c0,0,2.19,12.65,10.97,12.65
				c8.76,0,39.45,4.16,39.45,4.16l-76.76,11.29l-5.42,1.13l0.33,0.66H21.9l-0.32-0.66c-0.33,0.15-0.63,0.34-0.95,0.53
				c-2.94,1.87-4.95,5.06-5.07,8.77v0.34c0,4.43,2.76,8.27,6.72,9.96l-11.02,1.44l-1.92,0.25l-0.28,0.05v0.02
				c-5.04,1.22-8.89,5.24-9.06,10.28v0.32c0,5.84,5,10.56,11.3,11.05v0.03l2.13,0.56c-4.6,1.38-8.05,5.27-8.22,10.08
				c0,0.12-0.01,0.22-0.01,0.33c0.01,6.01,5.16,10.9,11.6,11.1v0.02l13.54,0.79c-3.13,1.65-5.35,4.85-5.47,8.66v0.32
				c0,5.46,4.36,9.21,9.86,9.41l0.76,0.01h69.86v-57.69H90.95v-12.63h15.77c10.62,0,13.38,13.37,13.38,13.37v56.95h3.53v-56.95
				c0,0,2.78-13.37,13.4-13.37h15.78v12.63H138.4v57.69h33.86c0,0,10.95-3.83,10.95-13.69h3.29l35.06,24.57V154.63l-65.74-31.53
				l-57.38,8.25c0.16-33.51,14.17-63.78,36.86-85.77c22.83-22.11,54.35-35.79,89.26-35.79c36.72,0,69.87,13.6,93.83,35.51
				c23.93,21.91,38.64,52.04,38.64,85.34L303.81,123l-65.74,31.54v107.63l35.05-24.59h3.29c0,9.88,10.95,13.71,10.95,13.71h36.32
				c0,0,0-0.01,0-0.01l-0.31,0c0,0,0.02-55.84,0.02-59.8c-21.1-8.75-19.49-30.22-19.49-30.22h12.7c0,0,4.18,18.49,17.6,17.59
				l0,72.45h3.99c-0.02-0.13-0.03-0.25-0.04-0.38h-0.1v-72.07c13.42,0.9,17.6-17.59,17.6-17.59h12.72c0,0,1.59,21.47-19.47,30.22
				v59.44h-0.04c0,0.13,0,0.25,0.01,0.38h75.28l0.58-0.09c5.5-0.16,10.02-3.86,10.04-9.34c-0.02-0.11,0-0.2-0.02-0.32
				c-0.1-3.8-2.33-7.01-5.46-8.66l13.52-0.79l0.72-0.05v-0.05c6.09-0.52,10.88-5.23,10.88-11.01v-0.32
				c-0.18-4.81-3.6-8.72-8.22-10.09l2.13-0.56v-0.02c6.3-0.49,11.28-5.22,11.3-11.07v-0.32
				C459.44,193.56,455.61,189.55,450.57,188.34z M122.27,149.95c8.33,0,15.04,6.74,15.04,15.04c0,8.31-6.72,15.04-15.04,15.04
				c-8.29,0-15.03-6.73-15.03-15.04C107.25,156.69,113.98,149.95,122.27,149.95z M335.22,174.97c-8.18,0-14.8-6.63-14.8-14.81
				c0-8.19,6.62-14.81,14.8-14.81c8.19,0,14.8,6.62,14.8,14.81C350.02,168.33,343.41,174.97,335.22,174.97z"/>
			<path d="M11.27,188.85c-0.56,0.05-1.12,0.12-1.66,0.22C10.15,188.97,10.71,188.9,11.27,188.85"/>
			<path d="M450.01,188.98c-0.53-0.1-1.09-0.18-1.65-0.22C448.93,188.79,449.49,188.87,450.01,188.98"/>
			<polygon points="266.32,271.42 266.32,313.94 222.55,271.42 211.19,271.42 211.19,325.65 221.82,325.65 221.82,282.95 
				265.59,325.65 276.96,325.65 276.96,271.42 			"/>
			<path d="M175.06,273.94c-6.12-2.34-13.16-3.59-20.71-3.59h-0.19c-11.7,0-21.25,2.52-28.63,7.75
				c-7.58,5.04-11.16,12.06-11.16,21.07c0,4.69,1.61,9.19,4.67,13.51c3.24,4.32,7.92,7.56,14.05,10.08
				c6.3,2.53,13.33,3.79,21.08,3.79c7.21,0,14.04-1.26,20.36-3.42c6.12-2.17,10.99-5.59,14.42-9.91c3.41-4.33,5.23-9.19,5.23-14.77
				c0-5.41-1.65-10.27-4.86-14.42C186.04,279.71,181.18,276.29,175.06,273.94 M174.69,314.66c-5.41,3.78-12.25,5.76-20.54,5.76
				c-8.1,0-14.96-1.98-20.34-5.76c-5.42-3.79-8.12-8.82-8.12-15.31c0-8.29,2.87-14.05,8.47-17.47c5.6-3.6,12.24-5.22,19.99-5.41
				h0.19c5.39,0,10.43,0.9,14.76,2.89c4.52,1.8,7.94,4.32,10.1,7.56c2.33,3.24,3.41,7.21,3.41,11.54
				C182.61,305.47,179.92,310.88,174.69,314.66"/>
			<path d="M82.27,316.82c-4.17,2.33-9.38,3.6-15.68,3.6c-5.05,0-9.72-0.9-14.06-2.7c-4.51-1.62-7.55-4.15-9.72-7.57
				c-1.99-3.6-3.06-7.56-3.06-12.07c0-3.6,0.89-7.21,2.52-10.45c1.8-3.43,4.86-6.13,9.18-8.11c4.34-1.98,9.55-3.06,16.04-3.06
				c5.58,0,10.27,0.9,13.87,2.7c3.6,1.8,6.47,4.68,8.47,8.65l10.81-1.63c-2.17-5.04-6.12-8.83-11.9-11.7
				c-5.77-2.71-12.59-4.15-21.08-4.15c-7.38,0-14.04,1.08-20.17,3.42c-6.12,2.16-10.81,5.22-14.24,9.55
				c-3.24,4.14-4.86,9-4.86,14.77c0,5.04,1.43,9.9,4.32,14.4c2.89,4.69,7.23,8.11,12.79,10.45c5.77,2.35,12.98,3.6,21.99,3.6
				c8.66,0,16.04-1.63,22.16-4.68c5.95-3.07,10.08-7.56,12.42-13.51l-10.98-1.8C89.46,311.06,86.57,314.48,82.27,316.82"/>
			<polygon points="378.63,319.4 378.63,301.02 424.76,301.02 424.76,294.54 378.63,294.54 378.63,277.97 427.99,277.97 
				427.99,271.66 367.64,271.66 367.64,325.89 429.81,325.89 429.81,319.4 			"/>
			<polygon points="296.85,325.89 307.85,325.89 307.85,301.21 346.94,301.21 346.94,294.72 307.85,294.72 307.85,277.97 
				353.05,277.97 353.05,271.66 296.85,271.66 			"/>
		</g>
		<g>
			<path d="M34.52,344.36h-6.9v-2.49h16.8v2.49h-6.94v20.2h-2.96V344.36z"/>
			<path d="M44.79,353.35c0-1.92-0.03-3.57-0.13-5.08h2.59l0.1,3.2h0.13c0.74-2.19,2.52-3.57,4.51-3.57c0.34,0,0.57,0.03,0.84,0.1
				v2.79c-0.3-0.07-0.61-0.1-1.01-0.1c-2.09,0-3.57,1.58-3.97,3.81c-0.07,0.4-0.13,0.88-0.13,1.38v8.69h-2.93V353.35z"/>
			<path d="M64.12,364.56l-0.23-2.05h-0.1c-0.91,1.28-2.66,2.42-4.98,2.42c-3.3,0-4.98-2.32-4.98-4.68c0-3.94,3.5-6.09,9.8-6.06
				v-0.34c0-1.35-0.37-3.77-3.7-3.77c-1.51,0-3.1,0.47-4.24,1.21l-0.67-1.95c1.35-0.88,3.3-1.45,5.35-1.45
				c4.98,0,6.19,3.4,6.19,6.67v6.09c0,1.42,0.07,2.8,0.27,3.91H64.12z M63.68,356.25c-3.23-0.07-6.9,0.51-6.9,3.67
				c0,1.92,1.28,2.83,2.79,2.83c2.12,0,3.47-1.35,3.94-2.73c0.1-0.3,0.17-0.64,0.17-0.94V356.25z"/>
			<path d="M70.65,364.56c0.07-1.11,0.13-2.76,0.13-4.21v-19.7h2.93v10.23h0.07c1.04-1.82,2.93-3,5.55-3c4.04,0,6.9,3.37,6.87,8.32
				c0,5.83-3.67,8.72-7.31,8.72c-2.36,0-4.24-0.91-5.46-3.06h-0.1l-0.13,2.69H70.65z M73.71,358.03c0,0.37,0.07,0.74,0.13,1.08
				c0.57,2.05,2.29,3.47,4.45,3.47c3.1,0,4.95-2.53,4.95-6.26c0-3.27-1.68-6.06-4.85-6.06c-2.02,0-3.91,1.38-4.51,3.64
				c-0.07,0.34-0.17,0.74-0.17,1.21V358.03z"/>
			<path d="M98.42,364.56l-0.24-2.05h-0.1c-0.91,1.28-2.66,2.42-4.98,2.42c-3.3,0-4.98-2.32-4.98-4.68c0-3.94,3.5-6.09,9.8-6.06
				v-0.34c0-1.35-0.37-3.77-3.7-3.77c-1.51,0-3.1,0.47-4.24,1.21l-0.67-1.95c1.35-0.88,3.3-1.45,5.35-1.45c4.98,0,6.2,3.4,6.2,6.67
				v6.09c0,1.42,0.07,2.8,0.27,3.91H98.42z M97.99,356.25c-3.23-0.07-6.9,0.51-6.9,3.67c0,1.92,1.28,2.83,2.79,2.83
				c2.12,0,3.47-1.35,3.94-2.73c0.1-0.3,0.17-0.64,0.17-0.94V356.25z"/>
			<path d="M101.12,369.28c1.35-0.1,2.53-0.47,3.23-1.25c0.81-0.94,1.11-2.22,1.11-6.13v-13.64h2.96v14.78c0,3.17-0.5,5.22-1.95,6.7
				c-1.31,1.32-3.47,1.85-5.05,1.85L101.12,369.28z M108.76,343.69c0.03,0.98-0.67,1.82-1.85,1.82c-1.11,0-1.82-0.84-1.82-1.82
				c0-1.04,0.77-1.85,1.88-1.85C108.05,341.84,108.76,342.65,108.76,343.69z"/>
			<path d="M121.76,364.56l-0.24-2.05h-0.1c-0.91,1.28-2.66,2.42-4.98,2.42c-3.3,0-4.98-2.32-4.98-4.68c0-3.94,3.5-6.09,9.8-6.06
				v-0.34c0-1.35-0.37-3.77-3.7-3.77c-1.51,0-3.1,0.47-4.24,1.21l-0.67-1.95c1.35-0.88,3.3-1.45,5.35-1.45c4.98,0,6.2,3.4,6.2,6.67
				v6.09c0,1.42,0.07,2.8,0.27,3.91H121.76z M121.32,356.25c-3.23-0.07-6.9,0.51-6.9,3.67c0,1.92,1.28,2.83,2.79,2.83
				c2.12,0,3.47-1.35,3.94-2.73c0.1-0.3,0.17-0.64,0.17-0.94V356.25z"/>
			<path d="M128.42,352.68c0-1.68-0.03-3.06-0.13-4.41h2.63l0.17,2.69h0.07c0.81-1.55,2.69-3.06,5.39-3.06
				c2.26,0,5.76,1.35,5.76,6.94v9.73h-2.96v-9.39c0-2.63-0.98-4.82-3.77-4.82c-1.95,0-3.47,1.38-3.97,3.03
				c-0.13,0.37-0.2,0.88-0.2,1.38v9.8h-2.96V352.68z"/>
			<path d="M160.64,340.66v19.7c0,1.45,0.03,3.1,0.13,4.21h-2.66l-0.13-2.83h-0.07c-0.91,1.82-2.9,3.2-5.56,3.2
				c-3.94,0-6.97-3.33-6.97-8.28c-0.03-5.42,3.33-8.75,7.31-8.75c2.49,0,4.17,1.18,4.92,2.49h0.07v-9.73H160.64z M157.68,354.9
				c0-0.37-0.03-0.88-0.13-1.25c-0.44-1.88-2.05-3.43-4.28-3.43c-3.06,0-4.88,2.69-4.88,6.29c0,3.3,1.62,6.03,4.81,6.03
				c1.99,0,3.8-1.31,4.34-3.54c0.1-0.4,0.13-0.81,0.13-1.28V354.9z"/>
			<path d="M179.77,356.28c0,6.03-4.17,8.65-8.11,8.65c-4.41,0-7.81-3.23-7.81-8.38c0-5.45,3.57-8.65,8.08-8.65
				C176.6,347.9,179.77,351.3,179.77,356.28z M166.84,356.45c0,3.57,2.05,6.26,4.95,6.26c2.83,0,4.95-2.66,4.95-6.33
				c0-2.76-1.38-6.26-4.88-6.26C168.35,350.12,166.84,353.35,166.84,356.45z"/>
			<path d="M189.56,353.59c0-2.09-0.07-3.77-0.13-5.32h2.66l0.13,2.79h0.07c1.21-1.99,3.13-3.17,5.79-3.17c3.94,0,6.9,3.33,6.9,8.28
				c0,5.86-3.57,8.75-7.41,8.75c-2.15,0-4.04-0.94-5.02-2.56h-0.07v8.86h-2.93V353.59z M192.49,357.93c0,0.44,0.07,0.84,0.13,1.21
				c0.54,2.05,2.32,3.47,4.44,3.47c3.13,0,4.95-2.56,4.95-6.3c0-3.27-1.72-6.06-4.85-6.06c-2.02,0-3.9,1.45-4.48,3.67
				c-0.1,0.37-0.2,0.81-0.2,1.21V357.93z"/>
			<path d="M217.21,364.56l-0.24-2.05h-0.1c-0.91,1.28-2.66,2.42-4.98,2.42c-3.3,0-4.98-2.32-4.98-4.68c0-3.94,3.5-6.09,9.8-6.06
				v-0.34c0-1.35-0.37-3.77-3.7-3.77c-1.51,0-3.1,0.47-4.24,1.21l-0.67-1.95c1.35-0.88,3.3-1.45,5.35-1.45c4.98,0,6.2,3.4,6.2,6.67
				v6.09c0,1.42,0.07,2.8,0.27,3.91H217.21z M216.77,356.25c-3.23-0.07-6.9,0.51-6.9,3.67c0,1.92,1.28,2.83,2.79,2.83
				c2.12,0,3.47-1.35,3.94-2.73c0.1-0.3,0.17-0.64,0.17-0.94V356.25z"/>
			<path d="M223.87,353.35c0-1.92-0.04-3.57-0.13-5.08h2.59l0.1,3.2h0.13c0.74-2.19,2.53-3.57,4.51-3.57c0.34,0,0.57,0.03,0.84,0.1
				v2.79c-0.3-0.07-0.61-0.1-1.01-0.1c-2.09,0-3.57,1.58-3.97,3.81c-0.07,0.4-0.13,0.88-0.13,1.38v8.69h-2.93V353.35z"/>
			<path d="M243.2,364.56l-0.24-2.05h-0.1c-0.91,1.28-2.66,2.42-4.98,2.42c-3.3,0-4.98-2.32-4.98-4.68c0-3.94,3.5-6.09,9.8-6.06
				v-0.34c0-1.35-0.37-3.77-3.7-3.77c-1.51,0-3.1,0.47-4.24,1.21l-0.67-1.95c1.35-0.88,3.3-1.45,5.35-1.45
				c4.98,0,6.19,3.4,6.19,6.67v6.09c0,1.42,0.07,2.8,0.27,3.91H243.2z M242.76,356.25c-3.23-0.07-6.9,0.51-6.9,3.67
				c0,1.92,1.28,2.83,2.79,2.83c2.12,0,3.47-1.35,3.94-2.73c0.1-0.3,0.17-0.64,0.17-0.94V356.25z"/>
			<path d="M256.46,353.59c0-2.09-0.07-3.77-0.13-5.32h2.66l0.14,2.79h0.07c1.21-1.99,3.13-3.17,5.79-3.17c3.94,0,6.9,3.33,6.9,8.28
				c0,5.86-3.57,8.75-7.41,8.75c-2.16,0-4.04-0.94-5.02-2.56h-0.07v8.86h-2.93V353.59z M259.39,357.93c0,0.44,0.07,0.84,0.13,1.21
				c0.54,2.05,2.32,3.47,4.44,3.47c3.13,0,4.95-2.56,4.95-6.3c0-3.27-1.72-6.06-4.85-6.06c-2.02,0-3.91,1.45-4.48,3.67
				c-0.1,0.37-0.2,0.81-0.2,1.21V357.93z"/>
			<path d="M276.73,356.96c0.07,4.01,2.63,5.66,5.59,5.66c2.12,0,3.4-0.37,4.51-0.84l0.5,2.12c-1.04,0.47-2.83,1.01-5.42,1.01
				c-5.02,0-8.01-3.3-8.01-8.21c0-4.91,2.89-8.79,7.64-8.79c5.32,0,6.73,4.68,6.73,7.68c0,0.61-0.07,1.08-0.1,1.38H276.73z
				 M285.42,354.83c0.03-1.89-0.77-4.81-4.11-4.81c-3,0-4.31,2.76-4.54,4.81H285.42z"/>
			<path d="M291.41,353.35c0-1.92-0.03-3.57-0.13-5.08h2.59l0.1,3.2h0.14c0.74-2.19,2.52-3.57,4.51-3.57c0.34,0,0.57,0.03,0.84,0.1
				v2.79c-0.3-0.07-0.61-0.1-1.01-0.1c-2.09,0-3.57,1.58-3.97,3.81c-0.07,0.4-0.13,0.88-0.13,1.38v8.69h-2.93V353.35z"/>
			<path d="M301.48,361.53c0.88,0.57,2.42,1.18,3.91,1.18c2.15,0,3.17-1.08,3.17-2.42c0-1.42-0.84-2.19-3.03-3
				c-2.93-1.04-4.31-2.66-4.31-4.61c0-2.63,2.12-4.78,5.62-4.78c1.65,0,3.1,0.47,4.01,1.01l-0.74,2.15
				c-0.64-0.4-1.82-0.94-3.33-0.94c-1.75,0-2.73,1.01-2.73,2.22c0,1.35,0.98,1.95,3.1,2.76c2.83,1.08,4.28,2.49,4.28,4.92
				c0,2.86-2.22,4.88-6.09,4.88c-1.79,0-3.43-0.44-4.58-1.11L301.48,361.53z"/>
			<path d="M329.42,356.28c0,6.03-4.17,8.65-8.11,8.65c-4.41,0-7.81-3.23-7.81-8.38c0-5.45,3.57-8.65,8.08-8.65
				C326.26,347.9,329.42,351.3,329.42,356.28z M316.49,356.45c0,3.57,2.05,6.26,4.95,6.26c2.83,0,4.95-2.66,4.95-6.33
				c0-2.76-1.38-6.26-4.88-6.26C318.01,350.12,316.49,353.35,316.49,356.45z"/>
			<path d="M332.62,352.68c0-1.68-0.03-3.06-0.13-4.41h2.63l0.17,2.69h0.07c0.81-1.55,2.69-3.06,5.39-3.06
				c2.26,0,5.76,1.35,5.76,6.94v9.73h-2.96v-9.39c0-2.63-0.98-4.82-3.77-4.82c-1.95,0-3.47,1.38-3.97,3.03
				c-0.13,0.37-0.2,0.88-0.2,1.38v9.8h-2.96V352.68z"/>
			<path d="M359.79,364.56l-0.24-2.05h-0.1c-0.91,1.28-2.66,2.42-4.98,2.42c-3.3,0-4.98-2.32-4.98-4.68c0-3.94,3.5-6.09,9.8-6.06
				v-0.34c0-1.35-0.37-3.77-3.7-3.77c-1.51,0-3.1,0.47-4.24,1.21l-0.67-1.95c1.35-0.88,3.3-1.45,5.35-1.45
				c4.98,0,6.19,3.4,6.19,6.67v6.09c0,1.42,0.07,2.8,0.27,3.91H359.79z M359.35,356.25c-3.23-0.07-6.9,0.51-6.9,3.67
				c0,1.92,1.28,2.83,2.79,2.83c2.12,0,3.47-1.35,3.94-2.73c0.1-0.3,0.17-0.64,0.17-0.94V356.25z"/>
			<path d="M366.05,361.53c0.88,0.57,2.42,1.18,3.91,1.18c2.16,0,3.17-1.08,3.17-2.42c0-1.42-0.84-2.19-3.03-3
				c-2.93-1.04-4.31-2.66-4.31-4.61c0-2.63,2.12-4.78,5.62-4.78c1.65,0,3.1,0.47,4,1.01l-0.74,2.15c-0.64-0.4-1.82-0.94-3.33-0.94
				c-1.75,0-2.73,1.01-2.73,2.22c0,1.35,0.98,1.95,3.1,2.76c2.83,1.08,4.28,2.49,4.28,4.92c0,2.86-2.22,4.88-6.09,4.88
				c-1.79,0-3.44-0.44-4.58-1.11L366.05,361.53z"/>
			<path d="M397.46,363.96c-0.77,0.4-2.49,0.94-4.68,0.94c-4.92,0-8.11-3.33-8.11-8.32c0-5.02,3.43-8.65,8.75-8.65
				c1.75,0,3.3,0.44,4.11,0.84l-0.67,2.29c-0.71-0.4-1.82-0.77-3.43-0.77c-3.74,0-5.76,2.76-5.76,6.16c0,3.77,2.43,6.09,5.66,6.09
				c1.68,0,2.79-0.44,3.64-0.81L397.46,363.96z"/>
			<path d="M414.94,356.28c0,6.03-4.17,8.65-8.11,8.65c-4.41,0-7.81-3.23-7.81-8.38c0-5.45,3.57-8.65,8.08-8.65
				C411.77,347.9,414.94,351.3,414.94,356.28z M402.01,356.45c0,3.57,2.05,6.26,4.95,6.26c2.83,0,4.95-2.66,4.95-6.33
				c0-2.76-1.38-6.26-4.88-6.26C403.53,350.12,402.01,353.35,402.01,356.45z"/>
			<path d="M418.14,352.68c0-1.68-0.03-3.06-0.14-4.41h2.63l0.17,2.69h0.07c0.81-1.55,2.69-3.06,5.39-3.06
				c2.25,0,5.76,1.35,5.76,6.94v9.73h-2.96v-9.39c0-2.63-0.98-4.82-3.77-4.82c-1.95,0-3.47,1.38-3.97,3.03
				c-0.13,0.37-0.2,0.88-0.2,1.38v9.8h-2.96V352.68z"/>
			<path d="M83.91,382.74v19.7c0,1.45,0.03,3.1,0.13,4.21h-2.66l-0.13-2.83h-0.07c-0.91,1.82-2.9,3.2-5.56,3.2
				c-3.94,0-6.97-3.33-6.97-8.28c-0.03-5.42,3.33-8.75,7.31-8.75c2.49,0,4.17,1.18,4.92,2.49h0.07v-9.73H83.91z M80.95,396.99
				c0-0.37-0.03-0.87-0.14-1.25c-0.44-1.88-2.05-3.43-4.28-3.43c-3.06,0-4.88,2.69-4.88,6.29c0,3.3,1.62,6.03,4.81,6.03
				c1.99,0,3.8-1.31,4.34-3.54c0.1-0.4,0.14-0.81,0.14-1.28V396.99z"/>
			<path d="M91.59,385.77c0.03,1.01-0.71,1.82-1.88,1.82c-1.04,0-1.78-0.81-1.78-1.82c0-1.04,0.77-1.85,1.85-1.85
				C90.88,383.92,91.59,384.73,91.59,385.77z M88.29,406.65v-16.3h2.96v16.3H88.29z"/>
			<path d="M95.23,403.62c0.88,0.57,2.42,1.18,3.91,1.18c2.15,0,3.16-1.08,3.16-2.42c0-1.42-0.84-2.19-3.03-3
				c-2.93-1.04-4.31-2.66-4.31-4.61c0-2.63,2.12-4.78,5.62-4.78c1.65,0,3.1,0.47,4.01,1.01l-0.74,2.16
				c-0.64-0.4-1.82-0.94-3.33-0.94c-1.75,0-2.73,1.01-2.73,2.22c0,1.35,0.98,1.95,3.1,2.76c2.83,1.08,4.28,2.49,4.28,4.91
				c0,2.86-2.22,4.88-6.09,4.88c-1.78,0-3.43-0.44-4.58-1.11L95.23,403.62z"/>
			<path d="M120.04,406.04c-0.77,0.4-2.49,0.94-4.68,0.94c-4.92,0-8.11-3.33-8.11-8.32c0-5.02,3.43-8.65,8.75-8.65
				c1.75,0,3.3,0.44,4.11,0.84l-0.67,2.29c-0.71-0.4-1.82-0.77-3.43-0.77c-3.74,0-5.76,2.76-5.76,6.16c0,3.77,2.42,6.09,5.66,6.09
				c1.68,0,2.79-0.44,3.64-0.81L120.04,406.04z"/>
			<path d="M131.99,406.65l-0.24-2.05h-0.1c-0.91,1.28-2.66,2.42-4.98,2.42c-3.3,0-4.98-2.32-4.98-4.68c0-3.94,3.5-6.09,9.8-6.06
				v-0.34c0-1.35-0.37-3.77-3.7-3.77c-1.51,0-3.1,0.47-4.24,1.21l-0.67-1.95c1.35-0.88,3.3-1.45,5.35-1.45c4.98,0,6.2,3.4,6.2,6.67
				v6.1c0,1.41,0.07,2.79,0.27,3.91H131.99z M131.55,398.33c-3.23-0.07-6.9,0.5-6.9,3.67c0,1.92,1.28,2.83,2.79,2.83
				c2.12,0,3.47-1.35,3.94-2.73c0.1-0.3,0.17-0.64,0.17-0.94V398.33z"/>
			<path d="M138.66,395.67c0-2.09-0.07-3.77-0.13-5.32h2.66l0.13,2.79h0.07c1.21-1.99,3.13-3.17,5.79-3.17c3.94,0,6.9,3.33,6.9,8.28
				c0,5.86-3.57,8.75-7.41,8.75c-2.16,0-4.04-0.94-5.02-2.56h-0.07v8.86h-2.93V395.67z M141.59,400.02c0,0.44,0.07,0.84,0.13,1.21
				c0.54,2.05,2.32,3.47,4.44,3.47c3.13,0,4.95-2.56,4.95-6.3c0-3.27-1.72-6.06-4.85-6.06c-2.02,0-3.91,1.45-4.48,3.67
				c-0.1,0.37-0.2,0.81-0.2,1.21V400.02z"/>
			<path d="M166.3,406.65l-0.24-2.05h-0.1c-0.91,1.28-2.66,2.42-4.98,2.42c-3.3,0-4.98-2.32-4.98-4.68c0-3.94,3.5-6.09,9.8-6.06
				v-0.34c0-1.35-0.37-3.77-3.7-3.77c-1.52,0-3.1,0.47-4.24,1.21l-0.67-1.95c1.35-0.88,3.3-1.45,5.35-1.45c4.98,0,6.2,3.4,6.2,6.67
				v6.1c0,1.41,0.07,2.79,0.27,3.91H166.3z M165.86,398.33c-3.23-0.07-6.9,0.5-6.9,3.67c0,1.92,1.28,2.83,2.79,2.83
				c2.12,0,3.47-1.35,3.94-2.73c0.1-0.3,0.17-0.64,0.17-0.94V398.33z"/>
			<path d="M184.58,406.04c-0.78,0.4-2.49,0.94-4.68,0.94c-4.92,0-8.12-3.33-8.12-8.32c0-5.02,3.43-8.65,8.75-8.65
				c1.75,0,3.3,0.44,4.11,0.84l-0.67,2.29c-0.71-0.4-1.82-0.77-3.43-0.77c-3.74,0-5.76,2.76-5.76,6.16c0,3.77,2.42,6.09,5.66,6.09
				c1.68,0,2.79-0.44,3.64-0.81L184.58,406.04z"/>
			<path d="M190.81,385.77c0.03,1.01-0.71,1.82-1.88,1.82c-1.04,0-1.79-0.81-1.79-1.82c0-1.04,0.77-1.85,1.85-1.85
				C190.1,383.92,190.81,384.73,190.81,385.77z M187.51,406.65v-16.3h2.96v16.3H187.51z"/>
			<path d="M208.92,382.74v19.7c0,1.45,0.03,3.1,0.13,4.21h-2.66l-0.13-2.83h-0.07c-0.91,1.82-2.89,3.2-5.55,3.2
				c-3.94,0-6.97-3.33-6.97-8.28c-0.03-5.42,3.33-8.75,7.3-8.75c2.49,0,4.18,1.18,4.92,2.49h0.07v-9.73H208.92z M205.96,396.99
				c0-0.37-0.03-0.87-0.13-1.25c-0.44-1.88-2.05-3.43-4.28-3.43c-3.06,0-4.88,2.69-4.88,6.29c0,3.3,1.62,6.03,4.81,6.03
				c1.99,0,3.8-1.31,4.34-3.54c0.1-0.4,0.13-0.81,0.13-1.28V396.99z"/>
			<path d="M222.32,406.65l-0.24-2.05h-0.1c-0.91,1.28-2.66,2.42-4.98,2.42c-3.3,0-4.98-2.32-4.98-4.68c0-3.94,3.5-6.09,9.8-6.06
				v-0.34c0-1.35-0.37-3.77-3.7-3.77c-1.51,0-3.1,0.47-4.24,1.21l-0.67-1.95c1.35-0.88,3.3-1.45,5.35-1.45
				c4.98,0,6.19,3.4,6.19,6.67v6.1c0,1.41,0.07,2.79,0.27,3.91H222.32z M221.88,398.33c-3.23-0.07-6.9,0.5-6.9,3.67
				c0,1.92,1.28,2.83,2.79,2.83c2.12,0,3.47-1.35,3.94-2.73c0.1-0.3,0.17-0.64,0.17-0.94V398.33z"/>
			<path d="M243.06,382.74v19.7c0,1.45,0.03,3.1,0.13,4.21h-2.66l-0.13-2.83h-0.07c-0.91,1.82-2.89,3.2-5.55,3.2
				c-3.94,0-6.97-3.33-6.97-8.28c-0.03-5.42,3.33-8.75,7.3-8.75c2.49,0,4.18,1.18,4.92,2.49h0.07v-9.73H243.06z M240.1,396.99
				c0-0.37-0.03-0.87-0.13-1.25c-0.44-1.88-2.05-3.43-4.28-3.43c-3.06,0-4.88,2.69-4.88,6.29c0,3.3,1.62,6.03,4.81,6.03
				c1.99,0,3.8-1.31,4.34-3.54c0.1-0.4,0.13-0.81,0.13-1.28V396.99z"/>
			<path d="M257.34,385.77c0.03,1.01-0.71,1.82-1.88,1.82c-1.04,0-1.78-0.81-1.78-1.82c0-1.04,0.77-1.85,1.85-1.85
				C256.63,383.92,257.34,384.73,257.34,385.77z M254.04,406.65v-16.3H257v16.3H254.04z"/>
			<path d="M261.38,394.76c0-1.68-0.03-3.06-0.13-4.41h2.63l0.17,2.69h0.07c0.81-1.55,2.69-3.06,5.39-3.06
				c2.25,0,5.76,1.35,5.76,6.94v9.73h-2.96v-9.39c0-2.63-0.98-4.82-3.77-4.82c-1.95,0-3.47,1.38-3.97,3.03
				c-0.13,0.37-0.2,0.88-0.2,1.38v9.8h-2.96V394.76z"/>
			<path d="M282.96,385.67v4.68h4.24v2.26h-4.24v8.79c0,2.02,0.57,3.16,2.22,3.16c0.77,0,1.35-0.1,1.72-0.2l0.13,2.22
				c-0.57,0.24-1.48,0.4-2.63,0.4c-1.38,0-2.49-0.44-3.2-1.25c-0.84-0.88-1.14-2.33-1.14-4.24v-8.89h-2.53v-2.26h2.53v-3.91
				L282.96,385.67z"/>
			<path d="M291.44,399.04c0.07,4.01,2.62,5.66,5.59,5.66c2.12,0,3.4-0.37,4.51-0.84l0.5,2.12c-1.04,0.47-2.83,1.01-5.42,1.01
				c-5.02,0-8.01-3.3-8.01-8.21c0-4.92,2.89-8.79,7.64-8.79c5.32,0,6.73,4.68,6.73,7.68c0,0.61-0.07,1.08-0.1,1.38H291.44z
				 M300.13,396.92c0.03-1.89-0.77-4.82-4.11-4.82c-3,0-4.31,2.76-4.54,4.82H300.13z"/>
			<path d="M306.12,382.74h2.96v23.91h-2.96V382.74z"/>
			<path d="M315.18,399.04c0.07,4.01,2.62,5.66,5.59,5.66c2.12,0,3.4-0.37,4.51-0.84l0.51,2.12c-1.04,0.47-2.83,1.01-5.42,1.01
				c-5.02,0-8.01-3.3-8.01-8.21c0-4.92,2.9-8.79,7.64-8.79c5.32,0,6.73,4.68,6.73,7.68c0,0.61-0.07,1.08-0.1,1.38H315.18z
				 M323.86,396.92c0.03-1.89-0.77-4.82-4.11-4.82c-3,0-4.31,2.76-4.54,4.82H323.86z"/>
			<path d="M341.47,406.04c-0.78,0.4-2.49,0.94-4.68,0.94c-4.92,0-8.11-3.33-8.11-8.32c0-5.02,3.43-8.65,8.75-8.65
				c1.75,0,3.3,0.44,4.11,0.84l-0.67,2.29c-0.71-0.4-1.82-0.77-3.43-0.77c-3.74,0-5.76,2.76-5.76,6.16c0,3.77,2.42,6.09,5.66,6.09
				c1.68,0,2.79-0.44,3.64-0.81L341.47,406.04z"/>
			<path d="M348.41,385.67v4.68h4.24v2.26h-4.24v8.79c0,2.02,0.57,3.16,2.22,3.16c0.77,0,1.34-0.1,1.72-0.2l0.13,2.22
				c-0.57,0.24-1.48,0.4-2.63,0.4c-1.38,0-2.49-0.44-3.2-1.25c-0.84-0.88-1.15-2.33-1.15-4.24v-8.89h-2.52v-2.26h2.52v-3.91
				L348.41,385.67z"/>
			<path d="M369.08,402.21c0,1.68,0.03,3.16,0.13,4.44h-2.63l-0.17-2.66h-0.07c-0.78,1.31-2.49,3.03-5.39,3.03
				c-2.56,0-5.62-1.42-5.62-7.14v-9.53h2.96v9.02c0,3.1,0.94,5.18,3.64,5.18c1.99,0,3.37-1.38,3.91-2.69
				c0.17-0.44,0.27-0.98,0.27-1.52v-10h2.96V402.21z"/>
			<path d="M382.48,406.65l-0.24-2.05h-0.1c-0.91,1.28-2.66,2.42-4.98,2.42c-3.3,0-4.98-2.32-4.98-4.68c0-3.94,3.5-6.09,9.8-6.06
				v-0.34c0-1.35-0.37-3.77-3.7-3.77c-1.52,0-3.1,0.47-4.24,1.21l-0.67-1.95c1.35-0.88,3.3-1.45,5.35-1.45
				c4.98,0,6.19,3.4,6.19,6.67v6.1c0,1.41,0.07,2.79,0.27,3.91H382.48z M382.04,398.33c-3.23-0.07-6.9,0.5-6.9,3.67
				c0,1.92,1.28,2.83,2.79,2.83c2.12,0,3.47-1.35,3.94-2.73c0.1-0.3,0.17-0.64,0.17-0.94V398.33z"/>
			<path d="M389.14,382.74h2.96v23.91h-2.96V382.74z"/>
		</g>
	</g>
</g>
</svg>
