<?xml version="1.0" encoding="utf-8"?>
<!-- Generator: Adobe Illustrator 25.0.0, SVG Export Plug-In . SVG Version: 6.00 Build 0)  -->
<svg version="1.1" id="Layer_1" xmlns="http://www.w3.org/2000/svg" xmlns:xlink="http://www.w3.org/1999/xlink" x="0px" y="0px"
	 viewBox="0 0 861.93 239.12" style="enable-background:new 0 0 861.93 239.12;" xml:space="preserve">
<g>
	<g>
		<g>
			<path d="M140.46,55.72c11.85,2.51,25.93,7.25,40.58,28.05l3.1,4.4c1.27,0.27,2.52,0.57,3.76,0.88c-8.17-18-22.84-32.44-41-40.31
				C145.34,51.54,143.13,53.94,140.46,55.72z"/>
			<path d="M49.19,96.76c2.51-11.85,7.25-25.93,28.05-40.58l4.36-3.07c0.27-1.28,0.57-2.53,0.88-3.77
				c-17.98,8.18-32.4,22.83-40.26,40.98C45.03,91.88,47.42,94.08,49.19,96.76z"/>
			<path d="M181.5,146.99c-2.51,11.85-7.25,25.93-28.05,40.58l-4.36,3.07c-0.27,1.28-0.57,2.53-0.88,3.77
				c17.97-8.18,32.4-22.83,40.26-40.97C185.66,151.87,183.27,149.65,181.5,146.99z"/>
			<path d="M90.23,188.01c-11.85-2.51-25.93-7.25-40.58-28.05l-3.1-4.4c-1.27-0.27-2.52-0.57-3.76-0.88
				c8.17,18,22.83,32.44,41,40.31C85.35,192.19,87.57,189.79,90.23,188.01z"/>
		</g>
		<path d="M115.35,121.86C59.11,88.17,102.9,18.72,102.9,18.72s-0.87,25.15,13.96,36.65s35.26-0.21,58.31,32.52
			C137.33,66.79,101.89,86.58,115.35,121.86z M129.44,51.85c7.07,0,12.8-5.73,12.8-12.8c0-7.06-5.73-12.78-12.8-12.78
			c-7.06,0-12.79,5.72-12.79,12.78C116.65,46.11,122.38,51.85,129.44,51.85z"/>
		<path d="M115.35,121.86c-33.7,56.24-103.14,12.45-103.14,12.45s25.15,0.87,36.65-13.96S48.65,85.1,81.38,62.05
			C60.26,99.88,80.07,135.32,115.35,121.86z M45.33,107.76c0-7.07-5.73-12.8-12.8-12.8c-7.06,0-12.78,5.73-12.78,12.8
			c0,7.06,5.72,12.79,12.78,12.79C39.6,120.56,45.33,114.83,45.33,107.76z"/>
		<path d="M115.35,121.86c56.24,33.69,12.45,103.14,12.45,103.14s0.87-25.15-13.96-36.65s-35.26,0.21-58.31-32.52
			C93.36,176.94,128.8,157.15,115.35,121.86z M101.25,191.88c-7.07,0-12.8,5.73-12.8,12.8c0,7.06,5.73,12.78,12.8,12.78
			c7.06,0,12.79-5.72,12.79-12.78C114.04,197.62,108.31,191.88,101.25,191.88z"/>
		<path d="M115.35,121.86c33.69-56.24,103.14-12.45,103.14-12.45s-25.15-0.87-36.65,13.96s0.21,35.26-32.52,58.31
			C170.43,143.85,150.62,108.41,115.35,121.86z M185.36,135.97c0,7.07,5.73,12.8,12.8,12.8c7.06,0,12.78-5.73,12.78-12.8
			c0-7.06-5.72-12.79-12.78-12.79C191.09,123.17,185.36,128.9,185.36,135.97z"/>
	</g>
	<g>
		<g>
			<g>
				<path d="M301.11,84.69c-5.05-6.82-13.26-10.48-21.72-10.48c-15.15,0-25.38,11.62-25.38,26.39c0,15.03,10.36,25.89,25.76,25.89
					c8.08,0,16.16-3.91,21.34-10.1v29.67c-8.21,2.53-14.14,4.42-21.84,4.42c-13.26,0-25.89-5.05-35.74-14.01
					c-10.48-9.47-15.28-21.85-15.28-35.99c0-13.01,4.92-25.51,14.01-34.85c9.34-9.6,22.86-15.4,36.24-15.4
					c7.96,0,15.28,1.77,22.6,4.8L301.11,84.69L301.11,84.69z"/>
			</g>
			<g>
				<path d="M395.57,147.96h-30.81l-23.36-36.62h-0.25v36.62H316.4V52.75h37c18.81,0,33.08,8.96,33.08,29.3
					c0,13.13-7.33,24.5-20.84,26.9L395.57,147.96z M341.15,95.42h2.4c8.08,0,17.17-1.52,17.17-11.87s-9.09-11.87-17.17-11.87h-2.4
					V95.42z"/>
			</g>
			<g>
				<path d="M427.02,147.96h-24.75V52.75h24.75V147.96z"/>
			</g>
			<g>
				<path d="M467.43,131.41l-6.57,16.54h-26.27l36.62-95.21h27.02l35.86,95.21h-26.38l-6.19-16.54H467.43z M484.73,82.16h-0.25
					l-10.23,30.3h20.58L484.73,82.16z"/>
			</g>
			<g>
				<path d="M541.81,52.75h24.75l45.33,58.21h0.25V52.75h24.75v95.21h-24.75l-45.33-58.34h-0.25v58.34h-24.75V52.75z"/>
			</g>
			<g>
				<path d="M690.95,147.96H666.2V73.7h-20.46V52.75h65.67V73.7h-20.46L690.95,147.96L690.95,147.96z"/>
			</g>
			<g>
				<path d="M745.13,147.96h-24.75V52.75h24.75V147.96z"/>
			</g>
			<g>
				<path d="M785.54,131.41l-6.57,16.54h-26.26l36.62-95.21h27.02l35.86,95.21h-26.39l-6.19-16.54H785.54z M802.84,82.16h-0.25
					l-10.23,30.3h20.58L802.84,82.16z"/>
			</g>
		</g>
	</g>
	<g>
		<g>
			<g>
				<path d="M255.82,173.76c-1.66-1.48-3.94-2.28-6.13-2.28c-5.2,0-9.18,4.34-9.18,9.49c0,5.08,3.94,9.42,9.12,9.42
					c2.28,0,4.47-0.86,6.19-2.4v3.42c-1.79,1.05-4.07,1.63-6.1,1.63c-6.62,0-12.1-5.27-12.1-11.98c0-6.87,5.51-12.23,12.35-12.23
					c2.03,0,4.1,0.49,5.85,1.57V173.76z"/>
			</g>
			<g>
				<path d="M263.79,186.74l-2.65,5.82h-3.11l11.09-24.21l11.09,24.21h-3.11l-2.65-5.82H263.79z M269.12,174.69l-4.13,9.39h8.25
					L269.12,174.69z"/>
			</g>
			<g>
				<path d="M287.32,177.22h-0.06l-2.71,15.34h-2.99l4.74-24.21l7.98,18.29l7.98-18.29l4.74,24.21h-2.99l-2.71-15.34h-0.06
					l-6.96,15.83L287.32,177.22z"/>
			</g>
			<g>
				<path d="M310.56,169.34h2.83c4.37,0,8.5,1.14,8.5,6.38c0,1.69-0.93,3.66-2.49,4.4v0.06c2.74,0.49,4.65,3.17,4.65,5.88
					c0,4.65-3.97,6.5-8.07,6.5h-5.42L310.56,169.34L310.56,169.34z M313.46,179.63h0.74c2.74,0,4.99-0.55,4.99-3.88
					c0-3.26-2.22-3.82-4.93-3.82h-0.8V179.63z M313.46,189.97h2.22c2.68,0,5.48-0.8,5.48-4.1c0-3.26-3.33-3.94-5.91-3.94h-1.79
					V189.97z"/>
			</g>
			<g>
				<path d="M331.31,192.56h-2.89v-23.22h2.89V192.56z"/>
			</g>
			<g>
				<path d="M340.18,186.74l-2.65,5.82h-3.11l11.09-24.21l11.09,24.21h-3.11l-2.65-5.82H340.18z M345.51,174.69l-4.13,9.39h8.25
					L345.51,174.69z"/>
			</g>
			<g>
				<path d="M359.49,168.22l17.43,18.26v-17.16h2.89v24.18l-17.43-18.27v17.31h-2.9L359.49,168.22L359.49,168.22z"/>
			</g>
			<g>
				<path d="M384.92,169.34h4.81c7.11,0,13.03,3.76,13.03,11.49c0,7.92-5.79,11.73-13.12,11.73h-4.71v-23.22H384.92z M387.82,189.91
					h1.02c5.91,0,11.03-2.22,11.03-8.96c0-6.78-5.11-8.96-11.03-8.96h-1.02V189.91z"/>
			</g>
			<g>
				<path d="M429.57,180.94c0,6.9-5.45,12.1-12.16,12.1s-12.17-5.2-12.17-12.1c0-6.65,5.51-12.11,12.17-12.11
					C424.06,168.84,429.57,174.29,429.57,180.94z M426.68,180.94c0-5.11-3.82-9.39-9.27-9.39c-5.45,0-9.27,4.28-9.27,9.39
					c0,5.3,4.25,9.39,9.27,9.39S426.68,186.25,426.68,180.94z"/>
			</g>
			<g>
				<path d="M447.03,186.74l-2.65,5.82h-3.11l11.09-24.21l11.09,24.21h-3.11l-2.65-5.82H447.03z M452.35,174.69l-4.13,9.39h8.25
					L452.35,174.69z"/>
			</g>
			<g>
				<path d="M480.68,177.22h-0.06l-2.71,15.34h-2.99l4.74-24.21l7.98,18.29l7.98-18.29l4.74,24.21h-2.99l-2.71-15.34h-0.06
					l-6.96,15.83L480.68,177.22z"/>
			</g>
			<g>
				<path d="M504.17,169.34h12.47v2.65h-9.58v6.5h9.3v2.65h-9.3v8.78h9.58v2.65h-12.47V169.34z M513.57,162.5l-5.05,4.59l-1.36-0.83
					l3.85-5.11L513.57,162.5z"/>
			</g>
			<g>
				<path d="M520.12,169.34h3.3l4.74,8.47l5.05-8.47h3.3l-6.68,11.06l7.05,12.16h-3.23l-5.48-9.52l-5.7,9.52h-3.23l7.3-12.16
					L520.12,169.34z"/>
			</g>
			<g>
				<path d="M543.15,192.56h-2.89v-23.22h2.89V192.56z"/>
			</g>
			<g>
				<path d="M565.64,173.76c-1.66-1.48-3.94-2.28-6.13-2.28c-5.2,0-9.18,4.34-9.18,9.49c0,5.08,3.94,9.42,9.12,9.42
					c2.28,0,4.47-0.86,6.19-2.4v3.42c-1.79,1.05-4.07,1.63-6.1,1.63c-6.62,0-12.1-5.27-12.1-11.98c0-6.87,5.51-12.23,12.35-12.23
					c2.03,0,4.1,0.49,5.85,1.57V173.76z"/>
			</g>
			<g>
				<path d="M593.01,180.94c0,6.9-5.45,12.1-12.16,12.1c-6.72,0-12.17-5.2-12.17-12.1c0-6.65,5.51-12.11,12.17-12.11
					C587.5,168.84,593.01,174.29,593.01,180.94z M590.11,180.94c0-5.11-3.82-9.39-9.27-9.39s-9.27,4.28-9.27,9.39
					c0,5.3,4.25,9.39,9.27,9.39S590.11,186.25,590.11,180.94z"/>
			</g>
			<g>
				<path d="M606.92,169.34h4.81c7.11,0,13.03,3.76,13.03,11.49c0,7.92-5.79,11.73-13.12,11.73h-4.71v-23.22H606.92z M609.82,189.91
					h1.02c5.91,0,11.03-2.22,11.03-8.96c0-6.78-5.11-8.96-11.03-8.96h-1.02V189.91z"/>
			</g>
			<g>
				<path d="M628.88,169.34h12.47v2.65h-9.58v6.5h9.3v2.65h-9.3v8.78h9.58v2.65h-12.47V169.34z"/>
			</g>
			<g>
				<path d="M656.47,173.74c-0.86-1.45-1.97-2.19-3.73-2.19c-1.85,0-3.88,1.26-3.88,3.3c0,1.82,1.79,2.77,3.23,3.33l1.66,0.65
					c3.3,1.29,5.76,3.11,5.76,6.99c0,4.22-3.26,7.24-7.42,7.24c-3.76,0-6.68-2.77-7.18-6.5l2.92-0.62c-0.03,2.56,2,4.4,4.5,4.4
					c2.49,0,4.28-2.09,4.28-4.53c0-2.49-2-3.57-4-4.4l-1.6-0.68c-2.65-1.14-5.05-2.65-5.05-5.88c0-3.76,3.33-6.01,6.84-6.01
					c2.59,0,4.71,1.26,5.97,3.51L656.47,173.74z"/>
			</g>
			<g>
				<path d="M663.67,169.34h4.81c7.11,0,13.03,3.76,13.03,11.49c0,7.92-5.79,11.73-13.12,11.73h-4.71v-23.22H663.67z M666.57,189.91
					h1.02c5.91,0,11.03-2.22,11.03-8.96c0-6.78-5.11-8.96-11.03-8.96h-1.02V189.91z"/>
			</g>
			<g>
				<path d="M685.63,169.34h12.47v2.65h-9.58v6.5h9.3v2.65h-9.3v8.78h9.58v2.65h-12.47V169.34z"/>
			</g>
			<g>
				<path d="M715.92,189.91h7.05v2.65h-9.95v-23.22h2.89v20.57H715.92z"/>
			</g>
			<g>
				<path d="M729.41,186.74l-2.65,5.82h-3.11l11.09-24.21l11.09,24.21h-3.11l-2.65-5.82H729.41z M734.74,174.69l-4.13,9.39h8.25
					L734.74,174.69z"/>
			</g>
			<g>
				<path d="M776.03,173.76c-1.66-1.48-3.94-2.28-6.13-2.28c-5.2,0-9.18,4.34-9.18,9.49c0,5.08,3.94,9.42,9.12,9.42
					c2.28,0,4.47-0.86,6.19-2.4v3.42c-1.79,1.05-4.07,1.63-6.1,1.63c-6.62,0-12.1-5.27-12.1-11.98c0-6.87,5.51-12.23,12.35-12.23
					c2.03,0,4.1,0.49,5.85,1.57V173.76z"/>
			</g>
			<g>
				<path d="M783.2,169.34v13.71c0,3.79,1.14,7.3,5.6,7.3c4.47,0,5.61-3.51,5.61-7.3v-13.71h2.89v14.69c0,5.11-3.17,9.02-8.5,9.02
					s-8.5-3.91-8.5-9.02v-14.69H783.2z"/>
			</g>
			<g>
				<path d="M802.26,168.22l17.43,18.26v-17.16h2.89v24.18l-17.43-18.27v17.31h-2.9v-24.32H802.26z"/>
			</g>
			<g>
				<path d="M831.24,186.74l-2.65,5.82h-3.11l11.09-24.21l11.09,24.21h-3.11l-2.65-5.82H831.24z M836.57,174.69l-4.13,9.39h8.25
					L836.57,174.69z"/>
			</g>
		</g>
	</g>
</g>
</svg>
