<?xml version="1.0" encoding="utf-8"?>
<!-- Generator: Adobe Illustrator 25.0.0, SVG Export Plug-In . SVG Version: 6.00 Build 0)  -->
<svg version="1.1" id="Capa_1" xmlns="http://www.w3.org/2000/svg" xmlns:xlink="http://www.w3.org/1999/xlink" x="0px" y="0px"
	 viewBox="0 0 853 347" style="enable-background:new 0 0 853 347;" xml:space="preserve">
<style type="text/css">
	.st0{fill:#FFFFFF;}
	.st1{fill-rule:evenodd;clip-rule:evenodd;}
	.st2{fill:none;}
</style>
<g>
	<polygon class="st0" points="348.37,204.76 369.33,168.75 370.25,125.76 360.67,122.45 356.22,140.04 351.71,153.14 339.4,152.49 
		329.07,167.08 323.61,190.47 334.95,201.42 	"/>
	<g>
		<g>
			<path id="XMLID_122_" d="M55.6,255.08c-0.01-0.03-0.02-0.07-0.03-0.1c-6.69-16.55-15.43-38.15-15.43-38.17
				c-0.79-1.94-2.74-3.21-4.85-3.1c-2.08,0.1-3.88,1.49-4.5,3.49l0,0c-0.52,1.51-6.77,15.93-12.66,29.38
				c-0.46,1.06-0.92,2.11-1.37,3.15c-0.41,0.57-0.72,1.21-0.87,1.96c-5.05,11.54-9.42,21.46-9.43,21.48
				c-1.12,2.53,0.01,5.5,2.53,6.61c2.51,1.13,5.46-0.01,6.57-2.54l0,0c0,0,3.78-8.59,8.37-19.05l23.6,3.53
				c3.45,8.57,6.15,15.19,6.31,15.62c0.78,1.96,2.66,3.15,4.63,3.15c0.62,0,1.24-0.11,1.84-0.36c2.55-1.03,3.8-3.95,2.78-6.51
				C62.88,273.09,59.61,264.99,55.6,255.08z M28.08,248.68c2.62-6.01,5.23-11.99,7.35-16.91c2.22,5.51,5,12.4,7.73,19.16
				L28.08,248.68z"/>
			<path id="XMLID_119_" d="M96.74,263.88c0.25-1.28,0.43-2.55,0.45-3.8c0-1.25-0.49-2.39-1.24-3.27l-0.38-3.39
				c-0.07-0.63-0.26-1.2-0.53-1.74c0.1-0.27,0.18-0.56,0.23-0.86c0.45-2.72-1.38-5.3-4.08-5.76c-0.2-0.05-1.42-0.24-3.22-0.24
				c-2.4,0.01-5.97,0.31-9.65,2.12c-3.68,1.77-7.37,5.49-8.84,10.98c-0.73,2.67-1.11,5.15-1.11,7.48
				c-0.01,4.17,1.25,7.94,3.72,10.62c2.41,2.66,5.84,3.99,9.12,3.99c0.02,0,0.04,0,0.06,0c0.67,0,1.24-0.05,1.73-0.11
				c2.07-0.32,3.81-1.07,5.29-2.05l2.92,26.02c0.29,2.56,2.44,4.46,4.95,4.46c0.18,0,0.37-0.02,0.56-0.04
				c2.73-0.3,4.71-2.79,4.4-5.53L96.74,263.88z M85.21,266.67c-1.29,2.3-2.91,3.33-3.42,3.3c-0.18,0.02-0.39,0.03-0.52,0.03
				c-0.86-0.02-1.38-0.26-1.86-0.74c-0.46-0.52-1.07-1.56-1.07-3.84c0-1.27,0.2-2.85,0.73-4.77c0.84-2.83,2.05-3.83,3.66-4.71
				c0.9-0.45,1.97-0.74,2.99-0.89l0.94,8.26C86.31,264.43,85.82,265.64,85.21,266.67z"/>
			<path id="XMLID_118_" d="M117.02,243.15c-2.01,1.89-2.13,5.06-0.24,7.08c4.51,4.85,5.6,8.39,5.58,10.4
				c-0.03,1.93-0.8,3.19-2.37,4.45c-1.53,1.19-3.85,1.94-5.57,1.93c-0.24-0.29-0.86-1.46-1.18-3.17c-0.39-1.92-0.54-4.31-0.54-6.41
				c0-3,0.28-5.25,0.26-5.26c0.33-2.75-1.63-5.23-4.35-5.56c-2.73-0.32-5.21,1.64-5.52,4.39l0,0c-0.02,0.12-0.34,2.83-0.34,6.42
				c0.02,3.31,0.21,7.3,1.45,11.13c0.64,1.9,1.54,3.84,3.21,5.55c1.59,1.68,4.15,2.91,6.78,2.91c0.05,0,0.11,0,0.15,0
				c4.03-0.02,8.16-1.31,11.67-3.96c3.48-2.6,6.34-7.04,6.3-12.44c-0.02-5.54-2.74-11.28-8.26-17.23
				C122.17,241.38,119.03,241.26,117.02,243.15z"/>
			<path id="XMLID_117_" d="M153.03,241.43c-0.33-2.74-2.82-4.7-5.55-4.35c-2.73,0.33-4.66,2.85-4.32,5.58l3.43,27.85
				c0.31,2.54,2.46,4.4,4.93,4.4c0.21,0,0.41-0.02,0.62-0.04c2.73-0.34,4.66-2.85,4.33-5.6L153.03,241.43z"/>
			<path id="XMLID_116_" d="M149.26,220.54l-6.59,6.89c-1.92,2-1.85,5.17,0.14,7.08c0.96,0.93,2.21,1.41,3.45,1.41
				c1.3,0,2.6-0.53,3.58-1.55l6.59-6.9c1.92-1.99,1.86-5.16-0.13-7.08C154.31,218.48,151.17,218.54,149.26,220.54z"/>
			<path id="XMLID_115_" d="M399.78,238.02c-4.53-2.2-7.36-3.94-8.66-5.05c-0.36-0.3-0.6-0.55-0.75-0.71c0.2-0.55,0.9-1.84,1.9-3.53
				c0.21-0.46,1.08-1.2,2.89-1.73c1.73-0.52,4.04-0.71,5.9-0.69c1.09,0,2.03,0.05,2.68,0.1c0.66,0.06,0.95,0.1,0.95,0.1
				c2.73,0.37,5.25-1.55,5.61-4.29c0.38-2.74-1.53-5.28-4.25-5.64l0,0c-0.15-0.02-2.16-0.29-4.98-0.29
				c-2.47,0.01-5.54,0.19-8.68,1.11c-3.08,0.9-6.62,2.64-8.76,6.35c-1.29,2.48-3.08,4.64-3.27,8.72c-0.04,3.35,2,6.3,4.43,8.22
				c2.5,2.06,5.8,3.94,10.63,6.33c3.7,1.8,5.85,5.66,5.82,8.88c-0.03,2-0.67,3.64-2.24,5.04c-1.57,1.38-4.46,2.67-9.5,2.69
				c-4.46,0.01-10.51-1.08-18.19-3.91c-2.58-0.95-5.45,0.39-6.39,2.99c-0.93,2.59,0.38,5.48,2.97,6.43c8.48,3.11,15.6,4.5,21.61,4.5
				c0,0,0.02,0,0.03,0c6.7,0,12.16-1.8,16-5.14c3.85-3.34,5.69-8.08,5.65-12.61C411.14,248.63,406.92,241.59,399.78,238.02z"/>
			<path id="XMLID_112_" d="M451.98,263.99c0,0-0.04,0.05-0.25,0.23c-1.42,1.4-8.85,7.19-16.02,7.04c-1.66,0-3.3-0.26-5-0.87
				c-0.82-0.35-1.5-0.67-2.06-0.98c0.58,0.02,1.16,0.03,1.76,0.03c4.52-0.06,10.32-0.66,14.38-5.71c1.78-2.33,2.75-5.06,2.75-7.76
				c0-3.01-1.21-5.9-3.34-7.94c-2.1-2.05-5.08-3.21-8.18-3.2c-2.74,0-5.57,0.84-8.29,2.46c-4.9,3.01-9.16,7.53-10.93,13.08
				c-0.29,0.46-0.54,0.97-0.68,1.52c-0.2,0.75-0.22,1.5-0.08,2.22c-0.06,0.46-0.08,0.92-0.11,1.41
				c-0.18,5.99,4.26,11.91,11.38,14.28c2.87,1.06,5.73,1.48,8.42,1.48c13.55-0.22,22.81-9.86,23.21-10.11
				c1.98-1.93,2.02-5.11,0.09-7.08C457.1,262.1,453.96,262.05,451.98,263.99z M432.77,255.92c1.47-0.87,2.56-1.08,3.25-1.08
				c1.51,0.16,1.43,0.49,1.56,1.12c-0.01,0.32-0.09,0.88-0.71,1.69c-0.39,0.81-3.01,1.85-6.45,1.76c-0.57,0-1.15-0.02-1.71-0.05
				C429.83,258.01,431.24,256.77,432.77,255.92z"/>
			<path id="XMLID_111_" d="M539.39,264.6c-0.63-1.47-1.72-7.62-2.38-12.73c-0.7-5.2-1.15-9.79-1.16-9.79
				c-0.27-2.77-2.71-4.78-5.45-4.49c-2.74,0.28-4.73,2.72-4.46,5.48c0.01,0.03,0.54,5.39,1.34,11.24c0.4,2.92,0.88,5.97,1.4,8.62
				c0.62,2.73,0.91,4.64,2.18,6.94c0.95,1.53,2.57,2.37,4.25,2.37c0.89,0,1.79-0.23,2.6-0.74c2.35-1.44,3.08-4.52,1.63-6.89
				L539.39,264.6z"/>
			<path id="XMLID_107_" d="M660.72,258.34c0,0-0.03,0.04-0.25,0.24c-1.42,1.39-8.85,7.18-16.02,7.03c-1.65,0-3.3-0.25-5-0.87
				c-0.83-0.36-1.5-0.68-2.07-0.99c0.59,0.03,1.17,0.05,1.77,0.05c4.51-0.06,10.31-0.69,14.37-5.72c1.78-2.34,2.75-5.07,2.74-7.77
				c0.01-3-1.21-5.9-3.34-7.93c-2.11-2.05-5.07-3.2-8.18-3.2c-2.74,0-5.57,0.85-8.28,2.47c-4.92,3-9.17,7.53-10.94,13.09
				c-0.29,0.45-0.53,0.95-0.67,1.51c-0.2,0.73-0.23,1.48-0.09,2.19c-0.06,0.46-0.09,0.94-0.1,1.42c-0.02,0.93,0.1,1.86,0.29,2.77
				c-0.82-0.41-1.74-0.6-2.68-0.52c0.54-1.32,0.55-2.88-0.15-4.24c-2.72-5.15-3.74-11.89-3.72-18.43c0-5.75,0.75-11.3,1.53-15.35
				c0.37-2.02,0.76-3.68,1.04-4.82c0.29-1.13,0.45-1.69,0.45-1.69c0.79-2.64-0.72-5.44-3.35-6.23c-2.65-0.78-5.41,0.74-6.19,3.39
				h-0.01c-0.05,0.26-3.4,11.49-3.42,24.71c0,1.3,0.04,2.63,0.12,3.96c-2.55,0.06-5.75,0.59-8.78,2.68
				c-3.18,2.17-5.65,6.08-6.5,11.09c-0.22,1.24-0.34,2.46-0.35,3.63c-0.76-1.84-1.78-4.01-3.1-6.25c-1.64-2.81-3.76-5.75-6.6-8.17
				c-2.75-2.36-6.42-4.25-10.72-4.36c-0.2-0.01-0.34-0.01-0.41-0.01c-0.05,0-0.06,0-0.06,0c-7.84,0.17-13.83,3.63-17.88,6.99
				c-1.01-2.02-1.84-3.27-1.9-3.42c-1.49-2.31-4.59-2.97-6.89-1.46c-2.3,1.5-2.96,4.61-1.44,6.93h-0.01c0.01,0,0.23,0.33,0.66,1.11
				c0.72,1.27,1.81,3.55,2.65,6.07c0,0.93,0.26,1.84,0.75,2.63c0.27,1.26,0.46,2.52,0.43,3.69c0,1.17-0.16,2.23-0.47,3.18
				c-0.86,2.63,0.56,5.47,3.17,6.33c0.51,0.18,1.04,0.27,1.55,0.27c2.1,0,4.05-1.34,4.74-3.44c0.71-2.13,0.97-4.28,0.97-6.33
				c-0.04-1.82-0.25-3.58-0.56-5.26c2.61-2.76,8.22-7.43,14.25-7.26c0,0,0.01-0.01,0.04-0.01l0.09,0.01
				c1.58,0.02,3.02,0.64,4.64,2.01c2.42,2.01,4.7,5.68,6.14,8.84c0.74,1.58,1.3,3.01,1.67,4.04c0.35,1.01,0.5,1.53,0.51,1.53
				c0.62,2.18,2.62,3.61,4.77,3.61c0.46,0,0.92-0.06,1.4-0.2c1.71-0.5,2.93-1.85,3.39-3.45c0.8,1.45,1.83,2.76,3.11,3.79
				c3.13,2.58,7.06,3.54,11.08,3.54c5.06,0,10.51-1.49,16.01-4.19c1.38-0.68,2.29-1.94,2.63-3.35c1.98,2.58,4.89,4.7,8.51,5.9
				c2.86,1.05,5.72,1.49,8.41,1.49c13.55-0.22,22.81-9.87,23.22-10.1c1.97-1.93,2-5.11,0.09-7.09
				C665.84,256.46,662.7,256.43,660.72,258.34z M641.51,250.29c1.46-0.87,2.55-1.08,3.24-1.08c1.51,0.16,1.43,0.48,1.57,1.11
				c-0.01,0.35-0.11,0.89-0.71,1.7c-0.39,0.82-3.02,1.84-6.45,1.77c-0.57,0-1.14-0.02-1.72-0.05
				C638.57,252.39,639.98,251.13,641.51,250.29z M604.15,264.51c-0.71-0.66-1.2-1.3-1.25-3.44c0-0.6,0.05-1.3,0.2-2.11
				c0.6-3.06,1.54-4.01,2.37-4.64c0.87-0.62,2.16-0.92,3.51-0.91c0.35,0,0.7,0.03,1.01,0.06c0.76,3.09,1.81,6.13,3.31,9.04
				c0.49,0.94,1.25,1.64,2.12,2.1c-2.43,0.76-4.7,1.16-6.52,1.16C606.45,265.77,604.88,265.15,604.15,264.51z"/>
			<path id="XMLID_104_" d="M500.32,249.52c-0.99-0.57-1.95-1.1-2.9-1.61c1.22-0.71,2.4-1.51,3.51-2.38
				c4.68-3.69,8.53-9.06,8.57-15.71c0.04-3.99-1.57-8.1-4.6-11.57c-4.09-4.73-9.91-6.28-15.14-6.25
				c-9.21,0.11-18.45,4.05-23.82,6.78c-0.3,0.04-0.6,0.11-0.91,0.2c-0.83,0.3-1.5,0.78-2.06,1.38c-1.02,0.57-1.66,0.95-1.72,0.97
				c-2.36,1.42-3.11,4.5-1.7,6.88c0.91,1.51,2.49,2.35,4.11,2.41l12.86,38.54c0.71,2.08,2.66,3.42,4.73,3.42
				c0.53,0,1.06-0.09,1.58-0.28c2.61-0.87,4.01-3.71,3.14-6.33L481,251.12c0.08,0.05,0.17,0.09,0.26,0.13c0,0,1.56,0.63,4.16,1.83
				c7.78,3.46,24.34,12.67,29.15,21.41c0.94,1.59,2.6,2.48,4.31,2.48c0.85,0,1.71-0.22,2.51-0.68c2.36-1.41,3.17-4.47,1.76-6.86
				C518,260.74,508.52,254.31,500.32,249.52z M494.79,237.65c-3.05,2.45-7.31,4.01-10.49,3.97c-0.33,0-0.63-0.01-0.85-0.03
				c-2-0.14-3.83,0.97-4.73,2.68l-5.89-17.68c4.86-2.21,11.66-4.64,16.94-4.57c3.59,0.04,5.95,0.91,7.63,2.84
				c1.72,2,2.14,3.53,2.17,4.97C499.62,232.16,497.94,235.19,494.79,237.65z"/>
			<path id="XMLID_103_" d="M208.57,216.09c-2.75-0.07-5.04,2.11-5.12,4.86l-0.9,33.37l-27.78-39.06c-1.59-2.25-4.7-2.77-6.94-1.16
				c-2.24,1.61-2.76,4.75-1.16,6.99v-0.01l4.38,6.17l1.55,45.48c0.09,2.7,2.3,4.83,4.97,4.83c0.06,0,0.12,0,0.18,0
				c2.75-0.09,4.89-2.42,4.8-5.18l-1.04-30.4l21.55,30.31c0.94,1.33,2.48,2.1,4.05,2.1c0.48,0,0.98-0.07,1.45-0.22
				c2.05-0.63,3.46-2.52,3.52-4.65l1.31-48.28C213.48,218.47,211.32,216.16,208.57,216.09z"/>
			<path id="XMLID_99_" d="M287.88,259.61c0.54-1.32,0.54-2.86-0.16-4.23c-2.7-5.15-3.72-11.89-3.71-18.41
				c0-5.76,0.75-11.31,1.51-15.37c0.38-2.01,0.77-3.68,1.06-4.82c0.28-1.14,0.43-1.68,0.43-1.68c0.8-2.66-0.71-5.44-3.35-6.22
				c-2.64-0.78-5.4,0.72-6.19,3.37c-0.06,0.26-3.42,11.48-3.44,24.72c0.01,1.29,0.06,2.62,0.14,3.94c-2.55,0.05-5.76,0.6-8.77,2.69
				c-3.2,2.17-5.66,6.06-6.51,11.1c-0.23,1.32-0.36,2.61-0.36,3.88c-0.02,1.45,0.17,2.88,0.54,4.24c-0.09-0.15-0.17-0.31-0.29-0.46
				c-0.04-0.04-3.7-4.87-7.94-9.81c-2.13-2.46-4.39-4.94-6.53-6.94c-1.08-1.01-2.12-1.9-3.24-2.66c-1.18-0.71-2.24-1.56-4.7-1.67
				c-1.97,0.03-3.5,0.52-5.43,1.22c-2.82,1.11-6.05,2.83-8.92,5.47c-2.8,2.59-5.43,6.42-5.45,11.39c-0.01,3.2,1.19,6.51,3.39,9.53
				c2.6,3.72,6.72,5.85,10.57,5.85c0.09,0,0.18,0,0.25-0.01c6.48-0.15,11.26-3.96,14.97-7.14c0.93-0.85,1.8-1.68,2.55-2.45
				c1.56,1.96,2.58,3.29,2.58,3.3c1.67,2.19,4.79,2.61,6.99,0.93c1.43-1.09,2.08-2.83,1.9-4.51c0.84,1.91,2.06,3.6,3.65,4.89
				c3.14,2.58,7.07,3.55,11.09,3.55c5.06-0.02,10.51-1.51,16-4.2c2.47-1.21,3.5-4.21,2.29-6.69
				C291.86,260.47,289.87,259.44,287.88,259.61z M236.84,261.98c-2.34,1.8-4.83,2.81-6.06,2.74c-0.97-0.09-1.43-0.07-2.78-1.76
				c-1.24-1.72-1.46-2.81-1.47-3.6c-0.12-1.44,1.31-3.62,4.03-5.43c1.28-0.88,2.75-1.61,3.93-2.06c0.5-0.18,0.94-0.34,1.29-0.43
				c1.29,0.92,3.68,3.32,6.07,5.99C240.53,258.82,238.74,260.57,236.84,261.98z M269.75,262c-0.71-0.65-1.2-1.29-1.25-3.43
				c-0.01-0.61,0.05-1.3,0.19-2.11c0.6-3.08,1.54-4.01,2.38-4.65c0.86-0.62,2.16-0.91,3.51-0.9c0.36,0,0.68,0.02,1.01,0.06
				c0.75,3.09,1.81,6.14,3.31,9.05c0.49,0.94,1.25,1.64,2.12,2.09c-2.45,0.75-4.7,1.18-6.52,1.17
				C272.04,263.27,270.48,262.64,269.75,262z"/>
			<path id="XMLID_96_" d="M349.36,252.41c0-0.02-0.05,0.04-0.25,0.23c-1.43,1.38-8.86,7.17-16.03,7.02c-1.65,0-3.3-0.25-5-0.87
				c-0.83-0.35-1.5-0.68-2.06-0.99c0.58,0.03,1.16,0.05,1.77,0.06c4.52-0.08,10.31-0.68,14.38-5.73c1.77-2.34,2.74-5.06,2.74-7.76
				c0.01-2.99-1.22-5.89-3.33-7.93c-2.12-2.05-5.08-3.22-8.19-3.2c-2.73,0.01-5.56,0.84-8.28,2.46c-4.91,3.01-9.16,7.53-10.93,13.09
				c-0.3,0.44-0.53,0.95-0.68,1.51c-0.2,0.76-0.22,1.51-0.09,2.22c-0.06,0.46-0.08,0.93-0.09,1.4c-0.18,6.01,4.25,11.91,11.37,14.3
				c2.86,1.05,5.71,1.48,8.41,1.48c13.56-0.22,22.79-9.87,23.22-10.11c1.97-1.94,2.02-5.11,0.08-7.08
				C354.47,250.52,351.33,250.47,349.36,252.41z M330.14,244.35c1.47-0.88,2.55-1.09,3.24-1.09c1.52,0.17,1.44,0.49,1.57,1.12
				c-0.01,0.34-0.1,0.88-0.7,1.7c-0.4,0.81-3.03,1.85-6.46,1.77c-0.58,0-1.15-0.02-1.73-0.07
				C327.19,246.43,328.59,245.18,330.14,244.35z"/>
			<path id="XMLID_95_" d="M307.67,264.6c-0.62-1.47-1.72-7.62-2.37-12.73c-0.69-5.2-1.15-9.79-1.15-9.79
				c-0.28-2.77-2.72-4.78-5.45-4.49c-2.73,0.28-4.74,2.72-4.45,5.48c0,0.03,0.52,5.39,1.34,11.24c0.41,2.92,0.87,5.97,1.4,8.62
				c0.62,2.73,0.91,4.64,2.19,6.94c0.94,1.53,2.58,2.37,4.25,2.37c0.89,0,1.8-0.23,2.61-0.74c2.33-1.44,3.06-4.52,1.62-6.89
				L307.67,264.6z"/>
			<path id="XMLID_94_" class="st1" d="M299.41,227.33c0,0-1.61-1.79-4.07-0.33c-2.43,1.47-2.27,5.23,0.32,6.88
				C298.27,235.51,306.23,233.72,299.41,227.33z"/>
			<g>
				<g>
					<path id="XMLID_93_" class="st1" d="M803.56,263.19c0,0-1.62-1.8-4.08-0.32c-2.43,1.47-2.27,5.24,0.33,6.88
						C802.42,271.39,810.4,269.58,803.56,263.19z"/>
					<path id="XMLID_90_" d="M774.58,215.22c-0.72-1.95-2.54-3.21-4.48-3.11c-1.92,0.1-3.6,1.5-4.18,3.49l0,0
						c-0.49,1.51-6.27,15.96-11.74,29.43c-0.42,1.06-0.85,2.11-1.27,3.16c-0.39,0.57-0.65,1.22-0.8,1.95
						c-4.68,11.57-8.76,21.52-8.76,21.54c-1.04,2.53,0.02,5.5,2.34,6.62c2.34,1.13,5.06-0.01,6.1-2.54h-0.01
						c0.01-0.01,3.5-8.6,7.76-19.09l21.9,3.53c3.21,8.58,5.69,15.22,5.85,15.64c0.72,1.97,2.45,3.16,4.28,3.16
						c0.58,0,1.15-0.11,1.71-0.36c2.38-1.04,3.53-3.96,2.59-6.52C795.37,270.73,774.6,215.25,774.58,215.22z M763.42,247.16
						c2.43-6.02,4.84-12.02,6.82-16.94c2.05,5.52,4.65,12.43,7.17,19.2L763.42,247.16z"/>
					<path id="XMLID_89_" class="st1" d="M836.49,263.2c0,0-1.63-1.81-4.07-0.33c-2.43,1.46-2.28,5.23,0.34,6.88
						C835.36,271.38,843.32,269.57,836.49,263.2z"/>
					<path id="XMLID_86_" d="M834.88,249.75c1.22-0.76,2.41-1.63,3.52-2.57c4.69-4,8.54-9.79,8.59-16.99
						c0.04-4.3-1.58-8.75-4.61-12.5c-4.1-5.11-9.92-6.8-15.17-6.76c-9.23,0.12-18.49,4.38-23.86,7.33c-0.3,0.04-0.61,0.12-0.92,0.22
						c-0.83,0.32-1.5,0.84-2.07,1.49c-1.02,0.62-1.66,1.02-1.73,1.05c-2.36,1.54-3.11,4.87-1.7,7.43c0.91,1.64,2.5,2.55,4.12,2.6
						l12.88,41.66c0.71,2.25,2.66,3.7,4.74,3.7c0.53,0,1.06-0.1,1.58-0.3c2.62-0.94,4.01-4.01,3.14-6.84l-4.96-16.07
						c0.08,0.05,0.16,0.1,0.26,0.14c0,0,1.31,1.45,4.17,1.97C823.13,255.37,834.88,249.75,834.88,249.75z M832.24,238.65
						c-3.06,2.66-7.32,4.34-10.51,4.29c-0.33,0-0.63-0.01-0.86-0.04c-2.01-0.14-3.83,1.05-4.74,2.89l-5.89-19.11
						c4.87-2.38,11.68-5.02,16.96-4.94c3.6,0.04,5.96,0.98,7.65,3.07c1.72,2.17,2.15,3.81,2.17,5.37
						C837.08,232.72,835.4,236,832.24,238.65z"/>
					<path id="XMLID_85_" class="st1" d="M737.74,263.2c0,0-1.63-1.81-4.07-0.33c-2.43,1.46-2.28,5.23,0.34,6.88
						C736.61,271.38,744.58,269.57,737.74,263.2z"/>
					<path d="M724.92,265.73l-9.47,1.63c0.98-2.44,1.07-5.63,0.02-8.26l0.02-0.01c-0.63-2.31-1.73-11.96-2.39-19.97
						c-0.7-8.16-1.16-15.36-1.17-15.36c-0.05-0.81-0.2-1.56-0.39-2.27l9.84-1.7c1.78-0.31,2.99-2.06,2.7-3.92
						c-0.29-1.86-1.97-3.12-3.75-2.81l-26.19,4.52c-1.78,0.31-2.99,2.06-2.7,3.92l0,0c0.29,1.86,1.97,3.12,3.74,2.81l6.84-1.18
						c-0.08,0.71-0.12,1.43-0.08,2.18c0.01,0.05,0.55,8.46,1.35,17.63c0.41,4.58,0.88,9.37,1.42,13.52
						c0.62,4.28,0.91,7.27,2.2,10.89c0.2,0.51,0.46,0.95,0.72,1.36l-8.92,1.54c-1.78,0.31-2.98,2.07-2.69,3.92l0,0
						c0.29,1.86,1.97,3.12,3.75,2.81l26.19-4.52c1.78-0.31,2.98-2.06,2.69-3.92C728.37,266.68,726.7,265.43,724.92,265.73z"/>
				</g>
			</g>
			<path id="XMLID_84_" class="st1" d="M531.13,227.33c0,0-1.62-1.79-4.06-0.33c-2.43,1.47-2.27,5.23,0.33,6.88
				C529.99,235.51,537.96,233.72,531.13,227.33z"/>
		</g>
		<g id="XMLID_40_">
			<g id="XMLID_43_">
				<path id="XMLID_81_" d="M130.96,277.92c-0.47-1.16-1.62-1.9-2.85-1.83c-1.24,0.05-2.31,0.9-2.68,2.09
					c-0.02,0.21-3.99,9.45-7.72,17.92c-0.35,0.82-0.71,1.64-1.06,2.44c-0.2,0.29-0.35,0.62-0.43,0.99
					c-3.19,7.26-5.95,13.55-5.97,13.56c-0.65,1.48,0.02,3.24,1.49,3.89c1.48,0.67,3.22-0.01,3.88-1.5c0,0,2.39-5.42,5.28-12.01
					l14.96,2.22c2.18,5.39,3.87,9.58,3.98,9.85c0.46,1.15,1.56,1.86,2.73,1.86c0.35,0,0.73-0.08,1.08-0.21
					c1.51-0.61,2.24-2.32,1.64-3.84C144.95,312.5,130.96,277.92,130.96,277.92z M123.35,297.89c1.76-4.04,3.47-7.98,4.84-11.14
					c1.44,3.58,3.29,8.16,5.1,12.63L123.35,297.89z"/>
				<path id="XMLID_80_" d="M181.72,295.93c-1.18,1.11-1.24,2.98-0.13,4.17c3.44,3.71,4.4,6.54,4.38,8.33
					c-0.02,1.71-0.76,2.91-2.09,3.96c-1.31,1.03-3.23,1.63-4.7,1.62c-0.33-0.02-0.58,0.01-1.28-1.75c-0.54-1.61-0.76-4.13-0.74-6.22
					c0-2.29,0.21-4.01,0.21-4.02c0.18-1.62-0.98-3.09-2.57-3.28c-1.62-0.19-3.08,0.97-3.27,2.58v-0.01c0,0.08-0.24,2.07-0.24,4.72
					c0.01,2.44,0.17,5.37,1.04,8.08c0.74,2.57,2.96,5.79,6.83,5.79c0.01,0,0.02,0,0.02,0c5.41-0.01,12.46-3.7,12.66-11.47
					c-0.02-3.87-1.93-7.99-5.98-12.37C184.76,294.88,182.91,294.81,181.72,295.93z"/>
				<path id="XMLID_77_" d="M240.54,302.68c-1.45-1.68-2.99-3.37-4.45-4.74c-1.63-1.3-2.36-2.52-5.12-2.84
					c-2.28,0.1-4.75,1.09-7.56,2.89c-2.63,1.81-5.51,4.7-5.57,9.04c-0.01,2.09,0.77,4.26,2.25,6.27c1.73,2.44,4.39,3.82,6.88,3.82
					c0.06,0,0.1,0,0.17,0c4.22-0.11,7.45-2.63,9.96-4.8c0.8-0.72,1.51-1.42,2.12-2.07c1.27,1.59,2.12,2.71,2.13,2.71
					c0.98,1.3,2.82,1.54,4.11,0.56c1.29-1,1.53-2.85,0.54-4.14C245.96,309.37,243.45,306.05,240.54,302.68z M233.17,307.92
					c-2.01,1.88-4.68,3.4-6.05,3.29c-0.82-0.06-1.33-0.15-2.33-1.4c-0.9-1.27-1.09-2.11-1.1-2.77c-0.06-1.24,1.07-2.85,2.99-4.14
					c0.92-0.63,1.95-1.13,2.8-1.47c0.43-0.15,0.81-0.28,1.1-0.34c0.03-0.01,0.06-0.02,0.08-0.02c0.78,0.55,2.85,2.53,4.73,4.65
					C234.81,306.35,234.05,307.14,233.17,307.92z"/>
				<path id="XMLID_74_" d="M364.92,302.68c-1.46-1.68-2.99-3.37-4.45-4.74c-1.62-1.3-2.37-2.52-5.12-2.84
					c-2.28,0.1-4.75,1.09-7.57,2.89c-2.62,1.81-5.5,4.7-5.57,9.04c-0.01,2.09,0.77,4.26,2.25,6.27c1.72,2.44,4.39,3.82,6.88,3.82
					c0.06,0,0.11,0,0.16,0c4.23-0.11,7.46-2.63,9.96-4.8c0.8-0.72,1.52-1.42,2.12-2.07c1.27,1.59,2.13,2.71,2.14,2.71
					c0.98,1.3,2.82,1.54,4.1,0.56c1.3-1,1.54-2.85,0.56-4.14C370.34,309.37,367.83,306.05,364.92,302.68z M357.55,307.92
					c-2.01,1.88-4.68,3.4-6.06,3.29c-0.81-0.06-1.31-0.15-2.31-1.4c-0.9-1.27-1.1-2.11-1.11-2.77c-0.06-1.24,1.07-2.85,2.99-4.14
					c0.92-0.63,1.95-1.13,2.8-1.47c0.43-0.15,0.81-0.28,1.1-0.34c0.03-0.01,0.06-0.02,0.08-0.02c0.78,0.55,2.85,2.53,4.72,4.66
					C359.19,306.35,358.42,307.14,357.55,307.92z"/>
				<path id="XMLID_71_" d="M696.13,309.4c-0.02-0.03-2.53-3.35-5.43-6.72c-1.47-1.68-3.01-3.37-4.46-4.74
					c-1.63-1.3-2.37-2.52-5.13-2.84c-2.27,0.1-4.75,1.09-7.56,2.89c-2.62,1.81-5.5,4.7-5.57,9.04c-0.01,2.09,0.77,4.26,2.25,6.27
					c1.73,2.44,4.38,3.82,6.88,3.82c0.05,0,0.1,0,0.16,0c4.22-0.11,7.46-2.63,9.97-4.8c0.79-0.72,1.51-1.42,2.1-2.07
					c1.28,1.59,2.14,2.71,2.14,2.71c0.99,1.3,2.82,1.54,4.1,0.56c1.3-1,1.54-2.85,0.57-4.14H696.13z M683.31,307.92
					c-2,1.88-4.67,3.4-6.05,3.29c-0.82-0.06-1.32-0.15-2.33-1.4c-0.9-1.27-1.08-2.11-1.09-2.77c-0.06-1.24,1.06-2.85,2.99-4.14
					c0.92-0.63,1.96-1.13,2.81-1.47c0.41-0.15,0.81-0.28,1.09-0.34c0.02-0.01,0.05-0.02,0.08-0.02c0.78,0.55,2.85,2.53,4.72,4.65
					C684.96,306.35,684.2,307.14,683.31,307.92z"/>
				<path id="XMLID_68_" d="M212.64,307.61c0.59-0.88,0.73-2.02,0.21-3.02c-1.76-3.36-2.42-7.72-2.41-11.93
					c-0.01-7.43,1.98-14.07,1.95-14.09c0.46-1.57-0.43-3.2-1.99-3.67c-1.55-0.46-3.18,0.44-3.64,2v0
					c-0.04,0.15-2.18,7.34-2.19,15.77c0,0.92,0.06,1.84,0.11,2.77c-0.01,0-0.02,0-0.02,0c-3.2-0.27-8.83,1.99-9.8,8.64
					c-0.15,0.82-0.24,1.64-0.24,2.44c-0.03,2.76,1.07,5.35,3.04,6.95c1.95,1.6,4.42,2.22,6.94,2.22c3.18-0.01,6.64-0.95,10.14-2.65
					c1.46-0.72,2.06-2.49,1.35-3.95C215.46,307.77,213.99,307.21,212.64,307.61z M200.5,306.52c0-0.39,0.03-0.87,0.14-1.4
					c0.88-3.75,2.12-3.49,4.02-3.77c0.33,0,0.63,0.02,0.91,0.06c0.48,2.02,1.11,4.02,2.09,5.92c0.4,0.78,1.1,1.29,1.88,1.49
					c-1.85,0.64-3.55,0.97-4.92,0.96C201.3,309.45,200.71,309.04,200.5,306.52z"/>
				<path id="XMLID_65_" d="M297.12,307.61c0.59-0.88,0.73-2.02,0.21-3.02c-1.77-3.36-2.41-7.72-2.41-11.93
					c-0.02-7.43,1.98-14.07,1.94-14.09c0.46-1.57-0.43-3.2-1.98-3.67c-1.55-0.46-3.19,0.44-3.65,2v0
					c-0.04,0.15-2.18,7.34-2.19,15.77c0,0.92,0.06,1.84,0.12,2.77c-0.02,0-0.03,0-0.04,0c-3.19-0.27-8.82,1.99-9.8,8.64
					c-0.15,0.82-0.23,1.64-0.23,2.44c-0.03,2.76,1.06,5.35,3.03,6.95c1.95,1.6,4.42,2.22,6.95,2.22c3.18-0.01,6.64-0.95,10.14-2.65
					c1.46-0.72,2.06-2.49,1.35-3.95C299.94,307.77,298.47,307.21,297.12,307.61z M284.98,306.52c0-0.39,0.04-0.87,0.14-1.4
					c0.88-3.75,2.12-3.49,4.02-3.77c0.32,0,0.63,0.02,0.91,0.06c0.47,2.02,1.11,4.02,2.09,5.92c0.41,0.78,1.1,1.29,1.88,1.49
					c-1.84,0.64-3.55,0.97-4.92,0.96C285.78,309.45,285.2,309.04,284.98,306.52z"/>
				<path id="XMLID_64_" d="M439.11,313.38c-0.35-0.84-0.99-4.41-1.37-7.37c-0.4-3.02-0.66-5.68-0.66-5.69
					c-0.16-1.62-1.6-2.8-3.22-2.63c-1.61,0.16-2.78,1.61-2.62,3.24l-0.01-0.01c0.01,0.02,0.32,3.12,0.79,6.52
					c0.22,1.7,0.49,3.47,0.81,4.99c0.36,1.6,0.52,2.7,1.27,4.05c0.55,0.91,1.51,1.41,2.5,1.41c0.52,0,1.06-0.15,1.53-0.44
					c1.38-0.85,1.81-2.67,0.96-4.05L439.11,313.38z"/>
				<path id="XMLID_63_" d="M275.65,305.45c-2.15-3.63-5.64-8.05-11.4-8.31c-0.15-0.01-0.24,0-0.3,0c-0.04,0-0.06,0-0.06,0
					c-5.48,0.1-9.65,2.69-12.36,5.04c-0.8-1.66-1.5-2.73-1.53-2.83c-0.89-1.37-2.71-1.76-4.06-0.87c-1.36,0.89-1.75,2.72-0.86,4.09
					h0c0,0,0.77,1.18,1.58,3.05c0.29,0.66,0.56,1.41,0.79,2.17c0.02,0.53,0.13,1.04,0.4,1.5c0.21,0.93,0.36,1.87,0.36,2.75
					c0,0.84-0.1,1.63-0.34,2.34c-0.51,1.54,0.34,3.22,1.87,3.72c0.31,0.1,0.62,0.15,0.93,0.15c1.23,0,2.38-0.79,2.79-2.03
					c0.45-1.41,0.63-2.81,0.63-4.18c-0.01-1.28-0.19-2.51-0.44-3.68c1.74-1.96,5.75-5.4,10.25-5.32h0.06l0,0h0.04
					c2.28-0.09,4.79,2.27,6.6,5.42c0.89,1.52,1.58,3.08,2.04,4.26c0.46,1.16,0.65,1.87,0.65,1.87c0.38,1.3,1.55,2.14,2.82,2.14
					c0.27,0,0.54-0.03,0.82-0.12c1.56-0.46,2.46-2.1,2.01-3.66C278.88,312.81,277.86,309.23,275.65,305.45z"/>
				<path id="XMLID_62_" d="M471.87,306.58c-2.16-3.64-5.64-8.05-11.4-8.32c-0.15-0.01-0.24-0.01-0.3-0.01c-0.04,0-0.05,0.01-0.05,0
					c-5.49,0.11-9.66,2.7-12.37,5.06c-0.79-1.66-1.51-2.73-1.54-2.83c-0.88-1.37-2.69-1.75-4.05-0.87c-1.36,0.9-1.74,2.72-0.86,4.09
					l0,0c0,0,0.77,1.17,1.58,3.05c0.29,0.66,0.55,1.41,0.8,2.18c0.01,0.52,0.12,1.04,0.4,1.49c0.21,0.94,0.36,1.88,0.36,2.75
					c0,0.84-0.11,1.62-0.35,2.33c-0.5,1.55,0.34,3.21,1.88,3.73c0.3,0.1,0.61,0.16,0.92,0.16c1.24,0,2.38-0.79,2.78-2.04
					c0.46-1.39,0.64-2.81,0.64-4.17c-0.02-1.29-0.2-2.51-0.44-3.68c1.73-1.96,5.74-5.4,10.26-5.33h0.05l0,0h0.04
					c2.29-0.08,4.78,2.27,6.61,5.43c0.89,1.52,1.58,3.08,2.03,4.26c0.46,1.17,0.66,1.87,0.66,1.87c0.37,1.3,1.54,2.14,2.83,2.14
					c0.26,0,0.54-0.04,0.8-0.12c1.56-0.45,2.46-2.1,2.02-3.66C475.09,313.93,474.08,310.36,471.87,306.58z"/>
				<path id="XMLID_61_" d="M428.12,306.58c-2.17-3.64-5.65-8.06-11.41-8.32c-0.15-0.01-0.23-0.01-0.29-0.01
					c-0.05,0-0.07,0.01-0.07,0c-5.48,0.11-9.65,2.7-12.35,5.06c-0.8-1.66-1.5-2.73-1.53-2.83c-0.88-1.37-2.72-1.75-4.07-0.87
					c-1.36,0.9-1.73,2.72-0.84,4.09l0,0c0,0,0.76,1.17,1.57,3.05c0.28,0.66,0.54,1.41,0.79,2.19c0.01,0.52,0.13,1.03,0.41,1.48
					c0.2,0.94,0.36,1.88,0.35,2.75c0,0.84-0.11,1.62-0.34,2.33c-0.51,1.55,0.32,3.21,1.87,3.73c0.3,0.1,0.61,0.16,0.91,0.16
					c1.23,0,2.39-0.79,2.79-2.04c0.47-1.39,0.65-2.81,0.64-4.17c-0.02-1.29-0.19-2.51-0.44-3.68c1.74-1.96,5.76-5.4,10.25-5.33h0.07
					l0,0h0.03c2.29-0.08,4.78,2.27,6.6,5.43c0.9,1.52,1.58,3.08,2.04,4.26c0.46,1.17,0.66,1.87,0.66,1.87
					c0.37,1.3,1.54,2.14,2.82,2.14c0.26,0,0.54-0.04,0.8-0.12c1.57-0.45,2.46-2.1,2.01-3.66
					C431.34,313.93,430.33,310.36,428.12,306.58z"/>
				<path id="XMLID_60_" d="M621.61,306.58c-2.16-3.64-5.63-8.05-11.39-8.32c-0.15-0.01-0.25-0.01-0.29-0.01
					c-0.04,0-0.07,0.01-0.07,0c-5.48,0.11-9.65,2.7-12.36,5.06c-0.79-1.66-1.49-2.73-1.55-2.83c-0.88-1.37-2.69-1.75-4.05-0.87
					c-1.36,0.9-1.74,2.72-0.86,4.09l0,0c0,0,0.77,1.17,1.58,3.05c0.29,0.65,0.55,1.4,0.79,2.17c0.02,0.53,0.13,1.04,0.41,1.5
					c0.2,0.94,0.36,1.88,0.35,2.75c0,0.84-0.11,1.62-0.35,2.33c-0.5,1.55,0.33,3.21,1.88,3.73c0.3,0.1,0.6,0.16,0.91,0.16
					c1.25,0,2.39-0.79,2.79-2.04c0.46-1.39,0.64-2.81,0.64-4.17c-0.02-1.29-0.2-2.52-0.44-3.7c1.75-1.96,5.74-5.39,10.25-5.32h0.07
					l0,0h0.04c2.27-0.08,4.78,2.27,6.59,5.43c0.89,1.52,1.59,3.08,2.03,4.26c0.46,1.17,0.65,1.87,0.66,1.87
					c0.37,1.3,1.54,2.14,2.82,2.14c0.26,0,0.54-0.04,0.82-0.12c1.55-0.45,2.45-2.1,2.01-3.66
					C624.85,313.93,623.82,310.36,621.61,306.58z"/>
				<path id="XMLID_59_" d="M434.27,291.78c0,0-0.95-1.05-2.35-0.19c-1.41,0.86-1.32,3.04,0.18,3.99
					C433.62,296.52,438.24,295.47,434.27,291.78z"/>
				<path id="XMLID_58_" d="M167.12,305.53c0.07-0.66,0.1-1.34,0.1-2.01c0-1.7-0.2-3.46-0.63-5.16c-0.38-1.48-1.81-2.43-3.31-2.18
					c-1.49,0.24-2.56,1.58-2.47,3.11l0.42,6.12c-0.24,1.84-0.81,3.5-1.58,4.65c-1.06,1.55-2.1,2.18-3.44,2.2
					c-0.46,0-0.98-0.08-1.6-0.29c-1.69-0.5-2.51-2.54-2.56-5.99c-0.01-3.88,1.24-7.92,1.21-7.93c0.48-1.56-0.38-3.21-1.93-3.69
					c-1.54-0.49-3.19,0.38-3.67,1.94c-0.05,0.14-1.47,4.67-1.49,9.69c-0.05,4.03,1.05,9.58,6.51,11.58c1.19,0.42,2.37,0.61,3.52,0.6
					c2.2,0.02,4.16-0.77,5.75-1.99l1.13,16.71c-0.01,0.07-0.03,0.19-0.06,0.35c-0.45,1.3-0.59,2.7-3.17,2.75
					c-0.12,0-0.32-0.01-0.56-0.02c-2.01-0.22-2.4-0.78-2.78-1.31c-0.37-0.53-0.47-1.4-0.47-1.76v-0.02
					c0.22-1.62-0.93-3.11-2.53-3.31c-1.6-0.22-3.08,0.91-3.29,2.53c-0.01,0.11-0.05,0.38-0.05,0.8c0.02,0.99,0.13,2.92,1.38,4.93
					c1.23,2.05,3.84,3.81,7.35,4.03c0.31,0.01,0.6,0.02,0.94,0.02c0.08,0,0.15,0,0.22,0c3.91,0,6.66-2.42,7.69-4.6
					c1.13-2.19,1.17-4.06,1.2-4.3l-0.01-0.32L167.12,305.53z"/>
				<path id="XMLID_55_" d="M323.76,302.85c-0.04-0.66-0.3-1.32-0.79-1.85l0,0c-0.25-0.16-3.43-3.94-8.9-4.06
					c-2.56-0.03-5.47,1.07-7.9,3.58c-2.58,2.58-3.97,5.46-3.98,8.34c0.04,5.43,4.88,8.85,9.84,8.86c3.36-0.01,6.59-0.88,9.14-2.83
					c2.58-1.93,4.3-5.13,4.26-8.81c0-0.27-0.01-0.49-0.01-0.63C325.4,304.29,324.72,303.32,323.76,302.85z M312.03,311.82
					c-2.64-0.08-3.97-1.5-3.97-2.96c0-0.88,0.43-2.33,2.27-4.17c1.58-1.56,2.68-1.82,3.74-1.85c0.02,0,0.03,0,0.05,0
					c1.1,0,2.28,0.5,3.18,1.1c0.46,0.3,0.84,0.6,1.08,0.82c0.25,0.22,0.3,0.29,0.3,0.29c0.26,0.28,0.56,0.48,0.87,0.64
					c0.01,0.18,0.02,0.31,0.02,0.39C319.55,309.69,316.84,311.64,312.03,311.82z"/>
				<path id="XMLID_52_" d="M587.48,301.38c-0.04-0.66-0.3-1.32-0.79-1.84v-0.01c-0.25-0.16-3.44-3.93-8.91-4.07
					c-2.54-0.02-5.45,1.07-7.9,3.58c-2.58,2.58-3.97,5.47-3.97,8.33c0,0.29,0.07,0.55,0.09,0.82c-0.87-0.63-2.05-0.78-3.07-0.22
					c-0.01,0-2.04,1.08-4.96,2.19c-2.9,1.12-6.66,2.18-9.58,2.16c-1.03,0-1.93-0.11-2.66-0.34c-1.92-0.56-2.83-2.41-2.9-5.38
					c-0.13-2.92,1.54-6.12,2.07-6.21c0.38-0.25,0.89-0.39,1.65-0.39c1.12-0.02,2.62,0.4,3.75,0.87c1.13,0.46,1.82,0.89,1.84,0.87
					c1.39,0.84,3.19,0.38,4.02-1.02c0.82-1.4,0.36-3.22-1.04-4.05l0,0c-0.22-0.07-3.95-2.5-8.57-2.58c-1.52,0-3.24,0.3-4.81,1.33
					c-3.42,2.44-4.65,6.72-4.78,11.18c-0.08,4.18,1.77,9.38,7.06,11.03c1.44,0.45,2.92,0.6,4.37,0.6c8.29-0.09,17.09-5,17.29-5.05
					c0.68-0.36,1.14-0.97,1.38-1.65c1.71,2.95,5.15,4.71,8.69,4.71c3.34,0,6.58-0.88,9.14-2.84c2.57-1.93,4.29-5.13,4.27-8.81
					c0-0.27-0.02-0.49-0.02-0.63C589.11,302.82,588.44,301.85,587.48,301.38z M575.76,310.33c-2.64-0.08-3.97-1.5-3.98-2.96
					c0-0.86,0.44-2.31,2.28-4.16c1.57-1.55,2.68-1.81,3.73-1.85c0.01,0,0.04,0,0.05,0c1.1,0,2.28,0.5,3.2,1.1
					c0.44,0.29,0.83,0.6,1.07,0.82c0.24,0.22,0.29,0.29,0.31,0.29c0.25,0.28,0.56,0.49,0.88,0.64c0,0.18,0,0.31,0,0.39
					C583.27,308.21,580.55,310.16,575.76,310.33z"/>
				<path id="XMLID_51_" d="M446.32,297.19c0.05,0,0.1,0,0.15-0.01c0.02,0,3.93-0.18,8.38-0.59c4.54-0.46,9.22-0.92,12.14-2.21
					c1.47-0.68,2.1-2.45,1.42-3.92c-0.68-1.48-2.42-2.13-3.89-1.43c-0.98,0.54-6.03,1.35-10.22,1.69c-4.29,0.39-8.09,0.56-8.1,0.56
					c-1.63,0.07-2.88,1.44-2.8,3.09C443.46,295.95,444.76,297.19,446.32,297.19z"/>
				<path id="XMLID_48_" d="M508.65,299.98c-2.62-0.38-2.8-1.55-2.8-1.55s0.03-0.05,0.2-0.15c0.16-0.09,0.25-0.12,0.52-0.13
					c0.48-0.02,1.46,0.32,2.23,0.79c0.75,0.45,1.2,0.88,1.21,0.86c1.21,1.08,3.06,0.97,4.14-0.25c1.07-1.22,0.97-3.09-0.24-4.17
					c-0.26-0.1-2.98-2.97-7.34-3.14c-1.06-0.01-2.29,0.23-3.41,0.89c-1.93,1.03-3.23,3.15-3.19,5.29c0.05,3.89,3.44,6.89,7.96,7.42
					c1.97,0.22,2.82,1.79,2.84,3.03c-0.02,0.68-0.2,0.86-0.37,0.96c-0.36,0.31-3.18,0.76-5.76,0.7c-3.43,0-6.75-0.38-6.75-0.38
					c-0.51-0.05-0.99,0.06-1.43,0.25c0.54-1.33,0.91-2.77,0.89-4.33c-0.01-0.27-0.01-0.49-0.01-0.63c-0.03-1.16-0.72-2.14-1.68-2.59
					c-0.04-0.66-0.3-1.32-0.78-1.85l0,0c-0.25-0.16-3.44-3.94-8.91-4.06c-2.56-0.03-5.45,1.07-7.9,3.58
					c-2.57,2.58-3.97,5.46-3.97,8.34c0.04,5.43,4.88,8.85,9.84,8.86c3.35-0.01,6.59-0.88,9.15-2.83c0.58-0.44,1.11-0.96,1.6-1.53
					c0.13,1.36,1.13,2.51,2.53,2.67c0.07,0,3.59,0.42,7.43,0.42c3.02-0.05,6-0.09,8.64-1.46c2.36-1.33,3.39-3.87,3.37-6.11
					C516.68,304.95,513.77,300.64,508.65,299.98z M483.93,311.82c-2.63-0.08-3.97-1.5-3.97-2.96c0-0.88,0.43-2.33,2.26-4.17
					c1.58-1.56,2.69-1.82,3.74-1.85c0.02,0,0.04,0,0.04,0c1.11,0,2.29,0.5,3.19,1.1c0.47,0.3,0.83,0.6,1.09,0.82
					c0.23,0.22,0.29,0.29,0.3,0.29c0.26,0.28,0.55,0.48,0.88,0.64c0,0.18,0.01,0.31,0.01,0.39
					C491.45,309.69,488.73,311.64,483.93,311.82z"/>
				<path id="XMLID_47_" d="M663.98,307.97c0,0-2.03,1.08-4.95,2.19c-2.92,1.12-6.67,2.18-9.6,2.16c-1.01,0-1.91-0.11-2.64-0.34
					c-1.92-0.56-2.83-2.41-2.9-5.38c-0.13-2.92,1.54-6.12,2.07-6.21c0.36-0.25,0.88-0.39,1.64-0.39c1.12-0.02,2.61,0.4,3.74,0.87
					c1.15,0.46,1.84,0.89,1.84,0.87c1.4,0.84,3.19,0.38,4.03-1.02c0.82-1.4,0.36-3.22-1.03-4.05l0,0c-0.22-0.07-3.96-2.5-8.58-2.58
					c-1.52,0-3.24,0.3-4.8,1.33c-3.42,2.44-4.66,6.72-4.79,11.18c-0.07,4.18,1.77,9.38,7.06,11.03c1.46,0.45,2.91,0.6,4.36,0.6
					c8.3-0.09,17.1-5,17.31-5.05c1.43-0.77,1.97-2.56,1.22-3.99C667.19,307.74,665.41,307.2,663.98,307.97z"/>
				<path id="XMLID_44_" d="M804.62,302.37c-2.76-4.77-6.61-7.12-10.31-7.07c-4.31,0.17-7.48,2.48-9.48,4.41
					c-0.65-0.23-1.36-0.27-2.05,0.01c-1.5,0.59-2.24,2.32-1.64,3.83l0.69,1.75c-0.23,0.13-0.46,0.24-0.65,0.43
					c0-0.01-0.25,0.24-0.82,0.7c-1.71,1.43-5.91,4.2-10.04,4.14c-1.13,0-2.24-0.17-3.39-0.59c-1.17-0.48-1.92-0.92-2.4-1.35
					c0.73,0.06,1.51,0.1,2.32,0.11c2.92-0.05,6.61-0.45,9.14-3.61c1.13-1.48,1.72-3.19,1.72-4.88c-0.01-3.82-3.24-6.94-7.22-6.96
					c-1.71,0-3.51,0.54-5.26,1.58c-3.16,1.93-5.89,4.86-7.01,8.42c-0.19,0.28-0.34,0.59-0.44,0.93c-0.12,0.44-0.13,0.9-0.04,1.33
					c-0.03,0.31-0.04,0.62-0.06,0.94c-0.01,0.45,0.02,0.91,0.1,1.35c-0.77-0.29-1.63-0.29-2.41,0.13c-0.01,0-2.04,1.08-4.96,2.19
					c-2.9,1.12-6.65,2.18-9.59,2.16c-1.02,0-1.92-0.11-2.65-0.34c-1.92-0.56-2.83-2.41-2.91-5.38c-0.12-2.92,1.55-6.12,2.08-6.21
					c0.36-0.25,0.88-0.39,1.64-0.39c1.12-0.02,2.62,0.4,3.75,0.87c1.14,0.46,1.82,0.89,1.84,0.87c1.39,0.84,3.18,0.38,4.02-1.02
					c0.83-1.4,0.37-3.22-1.03-4.05l0,0c-0.22-0.07-3.96-2.5-8.58-2.58c-1.51,0-3.24,0.3-4.8,1.33c-3.42,2.44-4.66,6.72-4.79,11.18
					c-0.02,1.43,0.2,2.98,0.68,4.46c-0.52-1.29-1.23-2.86-2.18-4.47c-2.16-3.64-5.65-8.05-11.41-8.32
					c-0.14-0.01-0.23-0.01-0.28-0.01c-0.04,0-0.07,0.01-0.07,0c-5.49,0.11-9.66,2.7-12.35,5.06c-0.81-1.66-1.51-2.73-1.54-2.83
					c-0.89-1.37-2.71-1.75-4.06-0.87c-1.36,0.9-1.75,2.72-0.86,4.09h-0.01c0.01,0,0.76,1.17,1.58,3.05c0.29,0.66,0.55,1.41,0.8,2.19
					c0.01,0.52,0.12,1.03,0.4,1.48c0.21,0.94,0.35,1.88,0.35,2.75c0,0.84-0.11,1.62-0.34,2.33c-0.5,1.55,0.33,3.21,1.87,3.73
					c0.3,0.1,0.62,0.16,0.92,0.16c1.23,0,2.38-0.79,2.79-2.04c0.46-1.39,0.64-2.81,0.64-4.17c-0.03-1.29-0.21-2.51-0.44-3.68
					c1.74-1.96,5.74-5.4,10.25-5.33h0.07l0,0h0.03c2.28-0.08,4.79,2.27,6.6,5.43c0.89,1.52,1.58,3.08,2.03,4.26
					c0.45,1.17,0.65,1.87,0.65,1.87c0.37,1.3,1.55,2.14,2.82,2.14c0.27,0,0.54-0.04,0.82-0.12c1.55-0.45,2.45-2.1,2-3.66
					c-0.01-0.06-0.23-0.78-0.65-1.88c1.07,2.4,2.93,4.5,5.95,5.43c1.44,0.45,2.91,0.6,4.35,0.6c8.3-0.09,17.1-5,17.3-5.05
					c0.63-0.34,1.06-0.88,1.3-1.5c1.25,1.67,3.12,3.06,5.49,3.86c1.82,0.67,3.63,0.95,5.33,0.95c0.03,0,0.05,0,0.08,0
					c6.54-0.1,11.57-3.67,13.76-5.48l2.5,6.37c0.46,1.16,1.57,1.86,2.74,1.86c0.36,0,0.72-0.06,1.09-0.21
					c1.5-0.6,2.23-2.32,1.64-3.83l-4.07-10.3c1.34-1.5,4.27-3.8,6.33-3.67c1.36,0.06,2.99,0.51,5.28,4.2c0.83,1.39,2.63,1.84,4.01,1
					C804.99,305.58,805.46,303.77,804.62,302.37z M768.21,299.96c1.02-0.6,1.77-0.76,2.29-0.77c1.14,0.1,1.26,0.48,1.35,1.06
					c0,0.29-0.09,0.72-0.52,1.3c-0.38,0.67-2.2,1.33-4.48,1.29c-0.6,0-1.2-0.04-1.76-0.09C765.9,301.66,767,300.63,768.21,299.96z"
					/>
			</g>
			<g id="XMLID_41_">
				<path id="XMLID_42_" d="M684.41,292.57c-1.07-0.92-1.2-2.55-0.29-3.62l0,0l4.97-5.82c0.91-1.09,2.52-1.2,3.59-0.28l0,0
					c1.08,0.93,1.19,2.55,0.28,3.62l0,0l-4.96,5.82c-0.51,0.59-1.22,0.9-1.94,0.9l0,0C685.48,293.19,684.9,292.99,684.41,292.57
					L684.41,292.57z"/>
			</g>
		</g>
		<g>
			<path d="M254.63,66.73c-3.3,0-5.99-2.73-5.99-6.12V41.25c0-3.37,2.69-6.12,5.99-6.12h18.91c3.31,0,5.97,2.75,5.97,6.12v19.36
				c0,3.39-2.66,6.12-5.97,6.12H254.63z"/>
			<path d="M597.22,65.96c-3.29,0-5.96-2.59-5.96-5.8V41.84c0-3.19,2.67-5.81,5.96-5.81h18.83c3.3,0,5.94,2.61,5.94,5.81v18.33
				c0,3.21-2.64,5.8-5.94,5.8H597.22z"/>
			<path d="M139.82,92.1c-6.13,0-11.09-4.95-11.09-11.04V46.17c0-6.1,4.97-11.05,11.09-11.05h35.02c6.13,0,11.09,4.94,11.09,11.05
				v34.89c0,6.09-4.96,11.04-11.09,11.04H139.82z"/>
			<path d="M643.84,159.31c-5.52,0-9.99-4.59-9.99-10.25V116.7c0-5.67,4.47-10.25,9.99-10.25h31.54c5.52,0,9.98,4.58,9.98,10.25
				v32.36c0,5.65-4.47,10.25-9.98,10.25H643.84z"/>
			<path d="M169.62,153.36c-2.58,0-4.67-2.12-4.67-4.71v-14.86c0-2.6,2.09-4.7,4.67-4.7h14.77c2.58,0,4.68,2.1,4.68,4.7v14.86
				c0,2.59-2.09,4.71-4.68,4.71H169.62z"/>
			<path d="M786.35,57c-2,0-3.61-1.63-3.61-3.63V41.87c0-2.01,1.61-3.63,3.61-3.63h11.41c2,0,3.61,1.62,3.61,3.63v11.49
				c0,2-1.62,3.63-3.61,3.63H786.35z"/>
			<path d="M741.76,138.68c-2.58,0-4.67-2.12-4.67-4.7v-14.87c0-2.59,2.09-4.7,4.67-4.7h14.76c2.59,0,4.68,2.1,4.68,4.7v14.87
				c0,2.59-2.09,4.7-4.68,4.7H741.76z"/>
			<path d="M40.46,85.09c-2.66,0-4.82-2.16-4.82-4.76v-15c0-2.61,2.16-4.75,4.82-4.75h15.25c2.67,0,4.84,2.14,4.84,4.75v15
				c0,2.6-2.17,4.76-4.84,4.76H40.46z"/>
			<path d="M799.78,112.4c-2.36,0-4.28-1.96-4.28-4.33V94.4c0-2.38,1.92-4.32,4.28-4.32h13.58c2.38,0,4.3,1.94,4.3,4.32v13.66
				c0,2.37-1.92,4.33-4.3,4.33H799.78z"/>
			<path d="M90.91,167.23c-4.77,0-8.64-3.95-8.64-8.8v-27.88c0-4.84,3.87-8.81,8.64-8.81h27.19c4.79,0,8.65,3.97,8.65,8.81v27.88
				c0,4.85-3.86,8.8-8.65,8.8H90.91z"/>
			<path d="M698.17,85c-4.74,0-8.61-3.9-8.61-8.7V48.73c0-4.8,3.87-8.72,8.61-8.72h27.09c4.77,0,8.63,3.92,8.63,8.72V76.3
				c0,4.8-3.86,8.7-8.63,8.7H698.17z"/>
			<path d="M244.69,141.69c-1.95,0-3.56-1.59-3.56-3.57v-11.31c0-1.96,1.61-3.57,3.56-3.57h11.22c1.95,0,3.55,1.61,3.55,3.57v11.31
				c0,1.98-1.61,3.57-3.55,3.57H244.69z"/>
			<path d="M572.37,146.74c-2.2,0-4.05-1.84-4.05-4.14v-13.13c0-2.28,1.85-4.15,4.05-4.15h12.8c2.22,0,4.04,1.87,4.04,4.15v13.13
				c0,2.3-1.83,4.14-4.04,4.14H572.37z"/>
		</g>
		<g>
			<path id="XMLID_36_" d="M372.85,165.17c0.84-2.19,1.02-4.5,1.05-6.86c-0.02-5.59-1.33-11.5-1.87-13.74
				c0.67-2.78,1.08-6.29,1.09-9.91c-0.02-3.38-0.34-6.78-1.45-9.76c-0.95-2.86-3.52-6.14-7.6-6.13c-0.59,0-1.16,0.06-1.73,0.19
				c-3.32,0.58-6.1,2.87-7.15,5.61c-1.1,2.69-1.14,5.38-1.16,8.16c0,1.37,0.03,2.75,0.03,4.15c0,1.6-0.03,3.21-0.17,4.83
				c-0.43,4.06-1.79,5.55-2.84,6.41c-0.54,0.42-1.08,0.65-1.43,0.76c0,0-0.02,0.01-0.03,0.01c-2.04-0.38-3.91-0.55-5.59-0.55
				c-5.25-0.07-9.19,1.9-11.31,4.8c-2.02,2.69-2.41,5.6-2.46,7.67c-1.21,0.56-2.26,1.33-3.06,2.29c-1.42,1.69-1.89,3.73-1.86,5.39
				c0.03,1.61,0.36,3.02,0.75,4.17c-2.55,2.38-3.49,5.66-3.39,8.06c0.02,1.12,0.14,2.15,0.32,3.01c-2.08,1.67-3.46,3.93-3.45,6.52
				c0.07,3.17,1.73,5.51,3.63,7.51c5.87,5.86,15.74,10.17,20.71,11.16c0.55,0.07,1.07,0.12,1.65,0.12c0.02,0,0.06,0,0.07,0
				c4.56,0,7.21-3.59,8.05-6.04c0.39-1.01,0.64-1.97,0.81-2.76c5.71-3.19,7.47-8.93,8.05-11.45c3.05-3.41,4.08-7.72,4.47-10.26
				c2.35-1.33,3.86-3.52,4.6-5.49c0.93-2.39,1.11-4.65,1.13-6.27C372.86,166.28,372.91,165.72,372.85,165.17z M360.8,142.35
				c0.19-1.93,0.21-3.77,0.21-5.47c0-1.52-0.03-2.91-0.03-4.15c-0.03-2.57,0.19-4.52,0.6-5.41c0.47-0.83,0.48-1.04,2.19-1.51
				c0.16-0.03,0.24-0.03,0.29-0.03c0.01,0,0.02,0,0.02-0.02c0.12,0,0.36-0.01,1.07,1.62c0.64,1.65,1.02,4.44,1.01,7.29
				c0,3.39-0.5,6.93-1.08,8.92c-0.16,0.6-0.18,1.26-0.01,1.88c0,0.01,0.46,1.72,0.94,4.26c0.47,2.52,0.93,5.8,0.93,8.6
				c0,0.18-0.01,0.34-0.02,0.52c-0.11-0.07-0.19-0.13-0.3-0.21c-3.11-2.02-6.99-4.07-10.41-5.75
				C358.42,150.78,360.39,147.3,360.8,142.35z M345.52,202.06c-0.1,0-0.3-0.02-0.56-0.05c-1.63-0.23-7.04-2.31-11.34-4.96
				c-2.2-1.33-4.19-2.81-5.47-4.15c-1.35-1.35-1.71-2.47-1.66-2.64c0.03-0.05-0.18-0.56,2.16-1.85c1.64-0.86,2.34-2.85,1.6-4.55
				c0,0,0-0.01-0.06-0.15c-0.18-0.47-0.58-1.78-0.57-2.98c0.15-1.66,0.22-2.54,2.3-3.62c0.92-0.42,1.61-1.22,1.89-2.19
				c0.29-0.96,0.13-2-0.39-2.86c0,0-0.03-0.04-0.15-0.26c-0.36-0.62-1.06-2.34-1.01-3.29c0.02-0.54,0.1-0.7,0.23-0.87
				c0.15-0.17,0.59-0.6,2.07-0.9c0.91-0.18,1.72-0.72,2.23-1.51c0.5-0.78,0.69-1.74,0.5-2.65c0,0-0.01-0.04-0.04-0.3
				c-0.03-0.25-0.07-0.66-0.07-1.11c-0.01-1.25,0.28-2.81,1.05-3.78c0.77-0.95,1.96-1.98,5.77-2.04c0.32,0,0.73,0.05,1.09,0.07
				c0.01,0,0.01,0,0.02,0c0.02,0.01,5.01,2.16,10.3,4.86c2.64,1.35,5.34,2.84,7.44,4.22c1.27,0.78,2.3,1.63,2.9,2.2
				c-0.01,1.1-0.17,2.63-0.65,3.77c-0.31,0.71-0.6,1.19-0.98,1.56c-8.83-6.01-18.19-7.26-18.47-7.32c-1.9-0.26-3.66,1.06-3.91,2.97
				c-0.27,1.91,1.06,3.68,2.95,3.95c0,0,0.48,0.06,1.47,0.29c2.71,0.57,8.63,2.25,13.92,5.82c-0.3,1.55-0.96,3.73-1.84,5.25
				c-8.69-4.92-16.6-6.66-16.79-6.71c-1.88-0.41-3.74,0.79-4.15,2.68c-0.41,1.87,0.78,3.75,2.65,4.16c0,0,0.45,0.1,1.35,0.36
				c2.49,0.7,8.06,2.49,13.79,5.78c-0.65,1.59-1.73,3.38-3.32,4.5c-0.61-0.43-1.26-0.83-1.97-1.26c-4.71-2.69-11.37-5.2-11.45-5.23
				c-1.81-0.7-3.82,0.23-4.5,2.03c-0.67,1.8,0.23,3.81,2.03,4.51l0-0.01c0,0.01,2.86,1.1,5.99,2.53c1.57,0.72,3.19,1.5,4.47,2.24
				c0.45,0.27,0.85,0.52,1.21,0.77c-0.17,0.69-0.44,1.46-0.77,1.95C346.24,201.94,346.23,201.99,345.52,202.06z"/>
			<g>
				<path id="XMLID_35_" class="st0" d="M447.21,188.1c-7.69,7.12-29.32-3.66-29.23-8.05c0,0-17.55-1.56-20.93-15.17
					c0,0-9.23-23.52-3.68-52c0,0-8.92-7.43-0.62-27.24c0,0,0.92-23.84,19.39-37.45c18.46-13.62,20.31-8.98,20.31-8.98l41.23,44.89
					c0,0,19.38,12.06,42.76,0.92l12.92,17.65c0,0,5.41,20.82-13.43,20.82c0,0-11.24,47.37-30.69,55.63
					c-19.45,8.25-32.21,6.11-32.21,6.11L447.21,188.1z"/>
				<path id="XMLID_33_" class="st0" d="M441.5,31.36c0,0,8.95-17.77,48.48-21.52c0,0,19.64,29.77,10.2,57.78
					C500.18,67.62,483.77,46.62,441.5,31.36z"/>
				<path id="XMLID_32_" class="st0" d="M428.06,30.62l46.25,52.27c0,0,9.45,6.75,26.35,5.26c16.91-1.5,12.94-7,12.94-7
					S462.88,33.36,428.06,30.62z"/>
				<path id="XMLID_31_" class="st0" d="M393.16,82.88c0,0-2.47-33.44,37.64-45.33c0,0-3.57-12.99-25.55-11.62
					c-22,1.38-45.07,8.57-48.92,43.41C356.34,69.34,356.07,91.46,393.16,82.88z"/>
				<path id="XMLID_30_" class="st0" d="M498.83,15.57c0,0,43.42,23.2,29.3,80.8l-27.4-26.75
					C500.73,69.62,506.69,56.52,498.83,15.57z"/>
				<path id="XMLID_29_" class="st0" d="M439.4,32.22c0,0,18.17-18.29,46.13-22.66c0,0-51.83-19.67-72.73,16.1L439.4,32.22z"/>
				<path id="XMLID_28_" d="M411.35,122.45c0,0.82-0.65,1.47-1.46,1.47l0,0c-0.82,0-1.47-0.66-1.47-1.47l0,0
					c0-0.82,0.65-1.48,1.47-1.48l0,0C410.69,120.97,411.35,121.63,411.35,122.45L411.35,122.45z"/>
				<path id="XMLID_27_" d="M475.67,107.44c0,0.97-0.78,1.75-1.73,1.75l0,0c-0.96,0-1.74-0.78-1.74-1.75l0,0
					c0-0.97,0.78-1.74,1.74-1.74l0,0C474.89,105.7,475.67,106.47,475.67,107.44L475.67,107.44z"/>
				<path id="XMLID_26_" d="M464.2,143.3c-0.71,0.73-2.53,0.08-4.06-1.45c-1.52-1.54-2.16-3.37-1.45-4.09
					c0.73-0.73,2.55-0.06,4.06,1.46C464.27,140.76,464.93,142.59,464.2,143.3z"/>
				<path id="XMLID_25_" d="M410.82,145.78c0,0,8.82,11.01,23.9,11.15c15.08,0.12,19.09-3.9,22.16-6.59c0,0,0.8-0.67,1.59-0.13
					c0.8,0.54,0.4,1.88-1.06,3.23c-1.48,1.33-10.02,9-24.83,7.11c-14.82-1.88-22.42-8.6-24.04-11.42
					C406.95,146.31,409.62,144.7,410.82,145.78z"/>
				<path id="XMLID_24_" d="M431.64,102.98c0,0-0.83,6.47-4.24,9.77c-3.42,3.3-11.91,13.76-7.67,18.71
					c4.25,4.96,12.6,6.06,13.27,5.09c0.68-0.96,0.41-1.91-1.36-2.74c-1.79-0.83-13.27-1.24-8.07-9.91
					c5.19-8.68,12.31-14.6,12.31-19.96C435.88,98.58,431.22,101.61,431.64,102.98z"/>
				<path id="XMLID_21_" d="M468.82,103.46c-5.33-0.67-5.42-9.28-5.14-9.75c0.28-0.48,11.69,1.34,11.69,1.34
					C479.18,97.53,474.14,104.13,468.82,103.46z M470.9,100.79c2.29,0.29,3.33-2.39,3.42-2.68c0.1-0.28-6.74-1.24-6.74-1.24
					C466.72,97.44,468.63,100.49,470.9,100.79z"/>
				<path id="XMLID_18_" d="M412.44,100.15c-5.34-0.67-5.43-9.28-5.14-9.76c0.28-0.48,11.69,1.34,11.69,1.34
					C422.81,94.21,417.76,100.8,412.44,100.15z M414.53,97.46c2.28,0.28,3.32-2.4,3.43-2.67c0.08-0.29-6.76-1.25-6.76-1.25
					C410.34,94.11,412.25,97.16,414.53,97.46z"/>
				<g id="XMLID_5_">
					<path id="XMLID_17_" class="st2" d="M403.59,28.85c-15.32,0.02-26.05,6.01-33.2,13.93c-7.15,7.91-10.52,17.96-10.5,25.46
						c0,0.62,0.03,1.23,0.07,1.82c0.46,4.97,2.58,7.27,5.93,9.08c3.37,1.74,8.05,2.35,12.18,2.32c2.57,0.02,4.92-0.2,6.63-0.42
						c0.7-0.09,1.25-0.17,1.68-0.25c0.15-0.05,0.29-0.11,0.43-0.14l3.65-0.92c0.45-16.56,9.47-27.83,18.23-34.61
						c7.2-5.61,14.27-8.45,16.93-9.41c-1.9-2.02-3.36-3.56-4.12-4.36C414.95,29.6,408.97,28.85,403.59,28.85z"/>
					<path id="XMLID_16_" class="st2" d="M476.07,8.76c-6.16-1.47-12.42-2.21-18.49-2.21c-17.49-0.02-32.96,6.11-40.46,17.08
						c2.26,0.42,4.6,0.95,7.01,1.6l0.86,0.24l0.63,0.65c0,0,0.12,0.15,0.36,0.39c0.73-1.24,2.21-1.9,3.66-1.49
						c0.07,0.03,3.49,0.99,9.11,3.09C448.88,16.43,464.94,11.13,476.07,8.76z"/>
					<path id="XMLID_15_" class="st2" d="M445.19,30.69c13.54,5.66,34,15.96,53.71,32.69c0.64-4.97,0.92-9.49,0.92-13.6
						c-0.05-23.96-9.26-33.77-12.05-36.29c-0.91,0.09-2.29,0.26-4.05,0.53c-3.31,0.51-7.9,1.39-12.91,2.84
						C461.98,19.38,451.96,23.77,445.19,30.69z"/>
					<path id="XMLID_14_" class="st2" d="M526.21,90.28c1-4.55,1.99-10.96,1.99-18.21c-0.02-13.82-3.54-30.51-17.31-44.36
						c-3.4-3.44-7.22-6.46-11.29-9.07c3.53,6.7,6.76,16.73,6.72,31.13c0,5.58-0.5,11.82-1.6,18.74
						c7.39,6.84,14.55,14.64,21.08,23.47C525.95,91.45,526.08,90.89,526.21,90.28z"/>
					<path id="XMLID_13_" class="st2" d="M437.77,34.75c-2.49-0.96-4.55-1.69-6.16-2.24c9.9,10.53,29.55,31.47,39.51,42.44
						c6.75,7.42,16.15,10.17,24.92,10.18c5.14,0.02,10.01-1,13.71-2.41C484.42,55.29,453.37,40.74,437.77,34.75z"/>
					<path id="XMLID_6_" d="M531.04,97.62c1.21-4,3.67-13.59,3.67-25.55c0.03-14.88-3.91-33.61-19.21-49
						C499.97,7.47,477.88,0.01,457.57,0c-20.06,0.01-38.86,7.34-47.49,22.65c-3.7-0.38-6.55-0.36-7.31-0.33
						c-16.65,0.19-29.13,7.02-37.21,16.06c-8.24,9.21-12.15,20.5-12.18,29.86c0,0.8,0.03,1.57,0.09,2.32
						c0.46,7.14,4.61,12.05,9.5,14.43c4.89,2.46,10.42,3.01,15.11,3.04c5.86-0.01,10.43-0.96,10.57-0.99
						c0.32-0.06,0.6-0.18,0.86-0.32l1.14-0.28l0.01,0.88c0.01,1.81,1.47,3.26,3.26,3.26h0.01c1.8,0,3.25-1.48,3.24-3.28l-0.04-9.71
						c1.09-12.87,8.19-21.49,15.57-27.29c3.99-3.11,8.04-5.32,11.05-6.73c1.51-0.69,2.76-1.19,3.62-1.53
						c0.87-0.33,1.28-0.45,1.28-0.45c0.62-0.2,1.15-0.56,1.53-1.04c10.5,11.16,27.25,29.03,36.13,38.81
						c8.29,9.11,19.63,12.32,29.68,12.32c0.02,0,0.04,0,0.04,0c6.97-0.01,13.37-1.47,18.26-3.8c3.31,3.92,6.54,8.09,9.55,12.51
						c0.63,0.92,1.67,1.42,2.69,1.42c0.12,0,0.24-0.04,0.36-0.05c0.1,0.01,0.21,0.04,0.31,0.06c0.74,1.43,1.17,3.4,1.17,5.52
						c0.01,3.12-0.92,6.49-2.49,8.78c-1.94,2.89-5.16,3.58-7.92,3.6c-0.96,0-1.81-0.09-2.39-0.18c-0.6-0.09-0.85-0.17-0.85-0.16
						c-1.46-0.38-2.95,0.51-3.33,1.98c-0.15,0.63-0.07,1.27,0.17,1.82c-6.58,26.37-15.84,41.25-24.76,49.48
						c-9.09,8.36-17.9,10.13-24.29,10.16c-2.77,0.01-5.05-0.35-6.62-0.71c-0.77-0.17-1.38-0.34-1.76-0.46
						c-0.39-0.12-0.48-0.16-0.48-0.16l-1.37-0.54l-1.35,0.56c-5.6,2.33-10.25,3.15-14.08,3.15c-5.96-0.01-10.04-1.97-12.74-3.89
						c-1.35-0.96-2.33-1.92-2.94-2.62c-0.31-0.35-0.54-0.62-0.67-0.8c-0.06-0.09-0.11-0.15-0.13-0.18l-0.85-1.31l-1.52-0.28
						c-4.74-0.92-8.33-3.27-11.36-6.79c-9.2-10.5-11.35-32.4-11.25-46.03c0-7.17,0.49-11.98,0.48-11.99l-6.55-1.43l-0.71-0.28
						c-0.01,0.09-0.51,6.2-0.51,13.7c0.01,9.52,0.78,22.83,4.56,34.71c1.89,5.93,4.55,11.54,8.43,16.1
						c3.59,4.21,8.32,7.49,14.14,8.91c2.4,2.87,9.31,9.47,21.61,9.5c4.55,0,9.77-0.92,15.6-3.2c1.88,0.55,5.42,1.35,10.06,1.35
						c7.78,0.03,18.74-2.39,29.22-12.09c10.28-9.49,20.04-25.72,26.84-52.86c3.55-0.1,8.59-1.2,11.84-5.98
						c2.3-3.45,3.43-7.73,3.44-11.88c-0.02-2.87-0.55-5.71-1.84-8.18C531.72,98.62,531.39,98.11,531.04,97.62z M487.77,13.49
						c2.79,2.52,12,12.33,12.05,36.29c0,4.11-0.29,8.62-0.92,13.6c-19.71-16.72-40.17-27.03-53.71-32.69
						c6.77-6.92,16.79-11.3,25.62-13.84c5.01-1.45,9.6-2.33,12.91-2.84C485.48,13.75,486.86,13.58,487.77,13.49z M408.71,45.11
						c-8.76,6.79-17.79,18.05-18.23,34.61l-3.65,0.92c-0.15,0.04-0.28,0.09-0.43,0.14c-0.43,0.08-0.98,0.16-1.68,0.25
						c-1.7,0.22-4.05,0.44-6.63,0.42c-4.13,0.03-8.81-0.58-12.18-2.32c-3.35-1.8-5.48-4.1-5.93-9.08c-0.05-0.59-0.07-1.2-0.07-1.82
						c-0.02-7.5,3.36-17.55,10.5-25.46c7.15-7.92,17.88-13.91,33.2-13.93c5.38,0,11.35,0.75,17.92,2.48
						c0.76,0.8,2.22,2.34,4.12,4.36C422.98,36.65,415.91,39.5,408.71,45.11z M429.63,25.03c-1.46-0.4-2.94,0.25-3.66,1.49
						c-0.25-0.25-0.36-0.39-0.36-0.39l-0.63-0.65l-0.86-0.24c-2.41-0.66-4.75-1.19-7.01-1.6c7.5-10.97,22.97-17.1,40.46-17.08
						c6.07,0,12.33,0.74,18.49,2.21c-11.13,2.38-27.19,7.67-37.32,19.37C433.13,26.02,429.71,25.06,429.63,25.03z M496.04,85.13
						c-8.77-0.01-18.17-2.77-24.92-10.18c-9.96-10.96-29.61-31.91-39.51-42.44c1.61,0.55,3.67,1.28,6.16,2.24
						c15.6,6,46.65,20.54,71.98,47.97C506.05,84.13,501.19,85.15,496.04,85.13z M504.73,68.52c1.09-6.92,1.6-13.17,1.6-18.74
						c0.04-14.41-3.18-24.43-6.72-31.13c4.07,2.6,7.88,5.62,11.29,9.07c13.76,13.85,17.29,30.54,17.31,44.36
						c0,7.26-1,13.66-1.99,18.21c-0.13,0.6-0.26,1.17-0.41,1.7C519.29,83.16,512.13,75.35,504.73,68.52z"/>
				</g>
				<path id="XMLID_1_" d="M519.86,104.47c-11.06-4.48-21.34-5.27-26.06-5.38c-0.35-1.24-0.76-2.51-1.27-3.75l-0.4-0.97l-0.88-0.56
					c-0.32-0.18-9.1-5.69-22.9-5.71c-6.36,0-13.77,1.2-21.76,4.62c-0.22,0.09-0.43,0.22-0.62,0.34c-3.99-2.02-8.02-2.64-11.41-2.64
					c-2.59,0.02-4.81,0.36-6.46,0.74c-0.33-0.68-0.59-1.12-0.63-1.21l-0.54-0.87l-0.93-0.41c-8.38-3.7-15.51-4.94-21.19-4.93
					c-10.18-0.01-15.68,3.94-16.07,4.24c-0.62,0.47-1.03,1.11-1.21,1.82c-0.38,0.38-0.66,0.88-0.83,1.44
					c-0.87,3.15-1.27,5.99-1.27,8.59c-0.07,5.98,2.42,10.73,6.25,13.43c3.79,2.71,8.43,3.59,13.01,3.61
					c4.56-0.01,9.13-0.9,13.01-2.25c3.89-1.41,7.05-3,9.13-5.52c2.44-3.1,3.28-6.58,3.27-9.52c-0.01-0.74-0.07-1.45-0.14-2.12
					c1.24-0.25,2.83-0.47,4.61-0.47c2.41,0,5.09,0.4,7.75,1.58c-0.08,0.69-0.13,1.47-0.13,2.35c-0.02,3.23,0.8,7.79,4.27,11.78
					c3.46,4.03,9.31,7.16,18.43,8.31c2.98,0.39,5.7,0.58,8.2,0.58c7.02-0.01,12.37-1.45,16.15-4.4c3.71-2.86,5.45-7.17,5.5-11.51
					c4.64,0.2,13.49,1.11,22.71,4.87c0.39,0.16,0.81,0.23,1.21,0.23c1.29,0,2.5-0.77,3.02-2.04
					C522.33,107.05,521.53,105.15,519.86,104.47z M421.72,105.05c-0.41,0.66-2.91,2.32-6.12,3.38c-3.23,1.12-7.21,1.89-10.9,1.88
					c-3.72,0.02-7.07-0.79-9.21-2.37c-2.11-1.59-3.47-3.72-3.53-8.1c0-1.88,0.3-4.13,1.02-6.8c1.16-0.7,5.11-2.74,11.85-2.74
					c4.53,0,10.36,0.93,17.53,3.95c0.52,1.12,1.25,3.2,1.24,5.34C423.58,101.39,423.16,103.19,421.72,105.05z M485.22,112.03
					c-2.12,1.68-5.99,3.01-12.14,3c-2.18,0.01-4.63-0.16-7.37-0.51c-8.09-1.06-12.17-3.61-14.33-6.11
					c-2.17-2.51-2.67-5.28-2.69-7.49c0-0.79,0.08-1.5,0.15-2.03c0.12-0.04,0.22-0.07,0.33-0.12c7.16-3.07,13.64-4.09,19.2-4.09
					c6.02,0,10.95,1.22,14.34,2.42c1.7,0.6,3.02,1.19,3.89,1.63c0.12,0.07,0.23,0.12,0.34,0.18c0.88,2.34,1.31,4.56,1.3,6.43
					C488.17,108.3,487.32,110.32,485.22,112.03z"/>
			</g>
		</g>
	</g>
</g>
</svg>
