<?xml version="1.0" encoding="utf-8"?>
<!-- Generator: Adobe Illustrator 25.0.0, SVG Export Plug-In . SVG Version: 6.00 Build 0)  -->
<svg version="1.1" id="Capa_1" xmlns="http://www.w3.org/2000/svg" xmlns:xlink="http://www.w3.org/1999/xlink" x="0px" y="0px"
	 viewBox="0 0 495.51 433.48" style="enable-background:new 0 0 495.51 433.48;" xml:space="preserve">
<g>
	<g>
		<path d="M33.61,279.58c-1.2-2.24-2.37-3.93-3.55-5.05c-1.2-1.12-2.9-1.68-5.22-1.68c-3.19,0-5.92,1.43-8.16,4.25
			c-2.25,2.83-3.37,6.65-3.37,11.47c0,5.82,1.33,10.33,3.95,13.54c2.6,3.19,5.73,4.8,9.33,4.8c1.43,0,2.73-0.23,3.9-0.7
			c1.17-0.43,2.24-1.04,3.21-1.83c1.1-0.97,2.24-2.35,3.44-4.21l0.07-0.18c0.61-0.89,1.04-1.48,1.33-1.76
			c0.31-0.28,0.69-0.41,1.17-0.41c0.33,0,0.74,0.13,1.17,0.41c0.46,0.28,0.68,0.82,0.68,1.61c0,1.02-0.33,2.29-0.99,3.88
			c-0.64,1.56-1.66,3.09-3.01,4.62c-1.35,1.5-3.11,2.78-5.27,3.77c-2.15,1.02-4.64,1.53-7.47,1.53c-2.91,0-5.51-0.56-7.83-1.68
			c-2.34-1.15-4.31-2.71-5.89-4.72c-1.6-2.04-2.83-4.36-3.7-7.11c-0.84-2.7-1.27-5.66-1.27-8.87c0-6.88,1.73-12.46,5.22-16.74
			c3.47-4.29,8.32-6.45,14.53-6.45c2.42,0,4.56,0.38,6.45,1.12c1.89,0.79,3.49,1.73,4.79,2.88c1.3,1.15,2.27,2.32,2.9,3.54
			c0.66,1.2,0.99,2.24,0.99,3.14c0,1.19-0.41,2.06-1.17,2.65c-0.77,0.58-1.58,0.89-2.47,0.89c-1.6,0-2.83-0.84-3.7-2.53
			L33.61,279.58z"/>
		<path d="M85.84,299.13c-0.89,2.78-2.19,5.23-3.92,7.39c-1.75,2.17-3.87,3.88-6.37,5.15c-2.52,1.33-5.33,1.96-8.46,1.96
			c-3.19,0-6.07-0.64-8.64-1.91c-2.55-1.25-4.72-2.96-6.45-5.13c-1.73-2.16-3.06-4.59-3.96-7.29c-0.89-2.73-1.32-5.51-1.32-8.37
			c0-2.98,0.46-5.84,1.38-8.59c0.9-2.75,2.24-5.2,4.01-7.34c1.81-2.16,3.93-3.88,6.45-5.1c2.5-1.25,5.33-1.86,8.44-1.86
			c3.31,0,6.24,0.68,8.79,2.06c2.52,1.38,4.62,3.19,6.32,5.43c1.69,2.24,2.93,4.67,3.74,7.32c0.84,2.63,1.28,5.2,1.33,7.73
			C87.17,293.5,86.73,296.35,85.84,299.13z M74.83,277.26c-2.4-2.98-5.18-4.48-8.36-4.48c-3.5,0-6.3,1.55-8.39,4.71
			c-2.09,3.14-3.13,7.22-3.13,12.26c0,5.66,1.22,10.2,3.72,13.62c2.47,3.42,5.4,5.15,8.77,5.15c3.29,0,6.01-1.63,8.13-4.84
			c2.12-3.24,3.22-7.77,3.22-13.66C78.53,284.5,77.22,280.27,74.83,277.26z"/>
		<path d="M130.91,310.94c0,0.46-0.05,0.81-0.2,1.12c-0.15,0.33-0.43,0.51-0.84,0.56H125c-0.79,0-1.3-0.1-1.56-0.28
			c-0.28-0.2-0.41-0.66-0.41-1.4v-28.25c0-1.4-0.07-2.62-0.2-3.65c-0.16-1.04-0.57-2.06-1.22-3.11c-0.64-1.05-1.69-1.88-3.11-2.52
			c-1.48-0.66-3.39-0.97-5.81-0.97c-2.2,0-3.95,0.28-5.33,0.79c-1.35,0.53-2.32,1.2-2.91,2.01c-0.58,0.82-0.97,1.58-1.12,2.32
			c-0.13,0.71-0.2,1.5-0.2,2.37v31c0,0.74-0.13,1.2-0.4,1.4c-0.29,0.18-0.77,0.28-1.46,0.28h-4.33c-0.66,0-1.1-0.13-1.35-0.33
			c-0.23-0.23-0.36-0.64-0.36-1.28v-33.85c0-1.68,0.25-2.98,0.74-3.82c0.46-0.89,1.4-1.65,2.81-2.32c1.38-0.68,2.85-1.22,4.48-1.65
			c1.61-0.41,3.14-0.69,4.57-0.87c1.4-0.18,2.63-0.28,3.67-0.33c1.02-0.05,1.88-0.1,2.52-0.1c3.95,0,7.11,0.46,9.48,1.4
			c2.37,0.92,4.05,2.07,5.12,3.49c1.07,1.38,1.71,2.78,1.94,4.2c0.25,1.4,0.36,2.99,0.36,4.77V310.94z"/>
		<path d="M158.82,288.07l0.15,0.08c1.61,0.74,2.96,1.43,4.06,2.07c1.07,0.66,2.11,1.45,3.13,2.39c1,0.97,1.84,2.12,2.47,3.54
			c0.67,1.4,1,3.01,1,4.87c0,1.81-0.39,3.52-1.12,5.17c-0.75,1.66-1.76,3.03-3.06,4.16c-1.58,1.32-3.34,2.21-5.23,2.65
			c-1.88,0.41-3.69,0.64-5.48,0.64c-2.78,0-5.17-0.36-7.19-1.07c-1.98-0.68-3.59-1.55-4.76-2.6c-1.2-1.02-2.04-2.06-2.58-3.16
			c-0.54-1.05-0.79-1.94-0.79-2.68c0-1.12,0.35-2.02,1.09-2.65c0.74-0.64,1.58-0.97,2.52-0.97c0.82,0,1.53,0.21,2.09,0.64
			c0.56,0.41,1.04,0.94,1.46,1.56c0.31,0.46,0.68,1.09,1.14,1.94c0.84,1.22,1.81,2.24,2.94,3.03c1.1,0.77,2.67,1.14,4.68,1.14
			c2.19,0,3.88-0.61,5.05-1.86c1.17-1.28,1.79-2.78,1.79-4.52c0-2.24-0.74-3.97-2.2-5.2c-1.43-1.22-3.46-2.45-6.14-3.62l-0.18-0.1
			c-2.47-1.12-4.41-2.04-5.76-2.75c-1.35-0.74-2.63-1.58-3.79-2.57c-1.18-0.97-2.12-2.17-2.78-3.57c-0.69-1.4-1.02-3.03-1.02-4.87
			c0-3.26,1.2-6.02,3.62-8.28c2.42-2.29,5.91-3.41,10.45-3.41c2.35,0,4.43,0.3,6.19,0.89c1.78,0.58,3.21,1.35,4.33,2.27
			c1.12,0.92,1.97,1.86,2.5,2.8c0.51,0.97,0.79,1.81,0.79,2.52c0,0.97-0.33,1.74-0.95,2.32c-0.61,0.59-1.4,0.89-2.35,0.89
			c-1,0-1.76-0.25-2.29-0.71c-0.54-0.49-1.07-1.2-1.58-2.14l-0.1-0.25c-0.77-1.25-1.63-2.27-2.6-3.09c-1-0.81-2.35-1.2-4.13-1.2
			c-2.19,0-3.85,0.64-4.97,1.94c-1.12,1.27-1.69,2.68-1.69,4.18c0,2.07,0.67,3.67,2.02,4.79c1.32,1.12,3.14,2.17,5.43,3.14
			L158.82,288.07z"/>
		<path d="M187.4,272.78v27.32v0.26c0.07,1.79,0.15,3.01,0.23,3.7c0.08,0.66,0.38,1.35,0.84,2.09c1.05,1.97,2.83,2.96,5.32,2.96
			l1.15-0.1h1.15c0.71,0,1.17,0.18,1.4,0.56c0.25,0.35,0.38,0.74,0.38,1.12c0,0.51-0.26,0.94-0.76,1.33
			c-0.51,0.36-1.15,0.64-1.89,0.87c-1.38,0.38-2.8,0.58-4.28,0.58c-2.04,0-3.88-0.36-5.43-1.04c-1.58-0.71-2.86-1.65-3.85-2.8
			c-0.89-1.2-1.48-2.4-1.73-3.62c-0.26-1.25-0.41-2.7-0.41-4.39v-28.83h-4.69c-0.59,0-0.95-0.05-1.1-0.21
			c-0.15-0.15-0.23-0.49-0.23-1.04c0-1.15,0.08-1.81,0.18-2.05c0.13-0.2,0.51-0.35,1.15-0.4h4.69v-5.05c0-0.74,0.1-1.28,0.25-1.63
			c0.21-0.36,0.56-0.79,1.1-1.32l4.05-3.42c0.72-0.64,1.2-0.94,1.53-0.94c0.38,0,0.66,0.2,0.77,0.58c0.13,0.41,0.18,0.89,0.18,1.53
			v10.25h7.72c0.59,0,0.97,0.08,1.15,0.2c0.17,0.12,0.28,0.45,0.28,0.97c0,1.17-0.08,1.89-0.21,2.14c-0.1,0.25-0.51,0.39-1.12,0.39
			H187.4z"/>
		<path d="M210.27,311.19c-0.08,0.61-0.2,1.02-0.41,1.17c-0.2,0.18-0.61,0.25-1.2,0.25h-4.52c-0.71,0-1.17-0.07-1.4-0.25
			c-0.25-0.15-0.36-0.56-0.36-1.17v-35.16c0-1.5,0.13-2.57,0.43-3.26c0.28-0.69,0.92-1.25,1.86-1.76c1.4-0.79,3.44-1.48,6.07-2.06
			c2.63-0.59,5.31-0.89,8.01-0.89c2.6,0,4.77,0.35,6.53,1.1c1.73,0.74,2.6,1.99,2.6,3.8c0,0.99-0.33,1.86-1.02,2.55
			c-0.69,0.71-1.55,1.04-2.6,1.04c-0.71,0-1.3-0.15-1.78-0.46c-0.46-0.3-1.12-0.92-1.94-1.78c-0.76-0.74-1.48-1.27-2.11-1.61
			c-0.66-0.33-1.58-0.51-2.75-0.51c-1.2,0-2.16,0.18-2.93,0.57c-0.76,0.35-1.32,0.81-1.63,1.4c-0.33,0.61-0.53,1.2-0.66,1.83
			c-0.13,0.59-0.18,1.28-0.18,1.99v0.1V311.19z"/>
		<path d="M266.15,302.19c-0.05,2.42-0.31,4.2-0.77,5.38c-0.43,1.2-1.43,2.22-2.95,3.11c-1.35,0.69-3.24,1.33-5.69,1.99
			c-2.42,0.64-5.37,0.97-8.84,0.97c-3.26,0-5.84-0.3-7.75-0.92c-1.92-0.64-3.52-1.43-4.82-2.37c-1.53-1.23-2.6-2.63-3.19-4.21
			c-0.61-1.58-0.89-3.49-0.89-5.79v-29.77c0-0.99,0.53-1.5,1.58-1.5h4.62c0.66,0,1.12,0.1,1.38,0.28c0.26,0.2,0.41,0.64,0.41,1.32
			v27.89v0.1c0.05,1.45,0.15,2.68,0.3,3.65c0.16,0.97,0.54,1.96,1.15,2.93c0.61,0.99,1.61,1.79,3.01,2.42
			c1.38,0.61,3.21,0.92,5.43,0.92c2.2,0,3.93-0.28,5.2-0.81c1.27-0.54,2.19-1.2,2.73-2.06c0.56-0.82,0.92-1.71,1.04-2.62
			c0.1-0.95,0.15-2.1,0.15-3.5v-28.76c0-0.51,0.08-0.89,0.23-1.17c0.15-0.28,0.43-0.46,0.84-0.51c0.18-0.05,1.79-0.08,4.87-0.08
			c0.71,0,1.2,0.1,1.48,0.33c0.26,0.23,0.44,0.64,0.49,1.28V302.19z"/>
		<path d="M292.89,318.58c-0.77,1.91-1.56,3.65-2.35,5.18c-0.79,1.55-1.84,3.01-3.11,4.41c-1.28,1.4-2.75,2.5-4.46,3.31
			c-1.71,0.82-3.7,1.23-5.94,1.23c-0.53,0-1.1-0.02-1.68-0.08c-0.58-0.05-1.22-0.2-1.93-0.46c-0.72-0.25-1.3-0.66-1.84-1.23
			c-0.49-0.56-0.74-1.27-0.74-2.19c0-0.99,0.36-1.86,1.07-2.55c0.69-0.71,1.61-1.05,2.75-1.05c0.23,0,0.97,0.1,2.27,0.33
			c1.43,0.26,2.27,0.41,2.5,0.41c1.99,0,3.75-0.94,5.17-2.8c1.45-1.89,3.01-5.38,4.67-10.48l-17.2-41.09l-0.16-0.36
			c-0.23-0.56-0.35-0.92-0.35-1.1c0-0.43,0.13-0.71,0.43-0.84c0.31-0.1,0.69-0.15,1.15-0.15h5.23c0.72,0,1.15,0.08,1.32,0.25
			c0.18,0.15,0.44,0.59,0.72,1.25l12.49,32.38l11.52-32.38c0.23-0.61,0.43-0.99,0.61-1.17c0.18-0.18,0.44-0.28,0.79-0.33h4.34
			c0.84,0,1.25,0.3,1.25,0.92c0,0.18-0.03,0.34-0.06,0.51c-0.05,0.18-0.15,0.51-0.4,1.02L292.89,318.58z"/>
		<path d="M320.98,289.5c0.34,5.56,1.81,9.82,4.41,12.8c2.61,2.96,5.69,4.44,9.31,4.44c2.52,0,4.82-0.64,6.85-1.94
			c2.04-1.27,3.8-3.1,5.36-5.45c0.63-1.05,1.1-1.74,1.37-2.02c0.26-0.28,0.66-0.43,1.2-0.43c0.41,0,0.82,0.15,1.2,0.43
			c0.38,0.28,0.56,0.82,0.56,1.58c0,0.74-0.33,1.91-0.92,3.49c-0.64,1.61-1.63,3.29-3.01,5.02c-1.4,1.73-3.23,3.21-5.53,4.41
			c-2.32,1.2-5.07,1.81-8.26,1.81c-1.4,0-2.88-0.15-4.36-0.46c-1.5-0.33-3.01-0.84-4.48-1.61c-1.48-0.77-2.88-1.79-4.2-3.03
			c-1.33-1.25-2.47-2.83-3.42-4.67c-1.07-1.88-1.81-3.95-2.19-6.14c-0.43-2.17-0.63-4.44-0.63-6.78c0-2.93,0.28-5.5,0.81-7.75
			c0.51-2.25,1.25-4.18,2.2-5.81c0.41-0.76,0.97-1.63,1.68-2.55c0.71-0.92,1.71-1.91,3.01-2.98c1.3-1.07,2.93-1.96,4.92-2.7
			c1.99-0.74,4.23-1.1,6.78-1.1c3.24,0,5.99,0.58,8.29,1.73c2.27,1.15,4,2.55,5.25,4.21c1.25,1.63,2.12,3.29,2.68,4.92
			c0.53,1.61,0.79,2.98,0.79,4.1c0,1.02-0.23,1.68-0.67,2.01c-0.45,0.36-1.07,0.56-1.81,0.69h-0.1L320.98,289.5z M342.14,282.28
			c-0.25-2.7-1.27-4.95-3.08-6.73c-1.79-1.79-3.93-2.7-6.4-2.7c-3.44,0-6.12,1.12-8.08,3.36c-1.97,2.24-3.16,5.3-3.6,9.18
			L342.14,282.28z"/>
		<path d="M394.73,310.94c0,0.46-0.08,0.81-0.23,1.12c-0.16,0.33-0.44,0.51-0.84,0.56h-4.87c-0.76,0-1.28-0.1-1.55-0.28
			c-0.26-0.2-0.41-0.66-0.41-1.4v-28.25c0-1.4-0.07-2.62-0.2-3.65c-0.15-1.04-0.53-2.06-1.2-3.11c-0.63-1.05-1.7-1.88-3.13-2.52
			c-1.46-0.66-3.39-0.97-5.81-0.97c-2.17,0-3.95,0.28-5.33,0.79c-1.35,0.53-2.32,1.2-2.91,2.01c-0.61,0.82-0.97,1.58-1.09,2.32
			c-0.15,0.71-0.23,1.5-0.23,2.37v31c0,0.74-0.16,1.2-0.41,1.4c-0.25,0.18-0.74,0.28-1.45,0.28h-4.34c-0.66,0-1.09-0.13-1.32-0.33
			c-0.23-0.23-0.36-0.64-0.36-1.28v-33.85c0-1.68,0.24-2.98,0.69-3.82c0.48-0.89,1.43-1.65,2.83-2.32c1.37-0.68,2.88-1.22,4.49-1.65
			c1.63-0.41,3.16-0.69,4.56-0.87c1.43-0.18,2.65-0.28,3.67-0.33c1.05-0.05,1.89-0.1,2.52-0.1c3.95,0,7.12,0.46,9.49,1.4
			c2.34,0.92,4.05,2.07,5.12,3.49c1.07,1.38,1.71,2.78,1.96,4.2c0.23,1.4,0.36,2.99,0.36,4.77V310.94z"/>
		<path d="M441.21,303.72c0,1.05-0.08,1.94-0.24,2.63c-0.12,0.71-0.48,1.37-1.02,2.06c-0.71,0.94-1.73,1.76-3.06,2.42
			c-1.33,0.69-2.75,1.22-4.33,1.65c-1.56,0.43-3.12,0.72-4.64,0.89c-1.56,0.18-2.98,0.25-4.33,0.25c-6.38,0-11.45-1.89-15.17-5.58
			c-3.77-3.75-5.64-9.03-5.64-15.86c0-2.98,0.43-5.89,1.33-8.75c0.87-2.85,2.22-5.46,4.03-7.77c1.81-2.35,4-4.18,6.58-5.56
			c2.6-1.38,5.53-2.06,8.87-2.06c2.06,0,3.8,0.25,5.27,0.76c1.43,0.51,2.88,1.17,4.36,2.01v-20.67c0-0.71,0.1-1.19,0.31-1.48
			c0.21-0.23,0.66-0.38,1.4-0.38h4.49c0.64,0,1.12,0.1,1.4,0.31c0.25,0.2,0.38,0.66,0.38,1.4V303.72z M433.22,275.55
			c-1.17-0.97-2.4-1.71-3.67-2.27c-1.28-0.56-2.88-0.84-4.82-0.84c-2.01,0-3.88,0.43-5.58,1.29c-1.71,0.87-3.19,2.12-4.46,3.75
			c-1.28,1.64-2.25,3.52-2.93,5.71c-0.66,2.19-1.02,4.51-1.02,6.96c0,5.74,1.35,10.19,4.05,13.43c2.65,3.22,6.19,4.82,10.55,4.82
			c1.84,0,3.29-0.2,4.33-0.64c1.07-0.41,1.86-0.97,2.35-1.63c0.51-0.66,0.84-1.35,0.97-2.06c0.15-0.69,0.23-1.43,0.23-2.22v-0.1
			V275.55z"/>
		<path d="M488.06,299.13c-0.89,2.78-2.22,5.23-3.95,7.39c-1.76,2.17-3.88,3.88-6.38,5.15c-2.52,1.33-5.35,1.96-8.46,1.96
			c-3.19,0-6.07-0.64-8.62-1.91c-2.6-1.25-4.75-2.96-6.48-5.13c-1.73-2.16-3.06-4.59-3.95-7.29c-0.9-2.73-1.33-5.51-1.33-8.37
			c0-2.98,0.45-5.84,1.37-8.59c0.92-2.75,2.24-5.2,4.03-7.34c1.76-2.16,3.9-3.88,6.42-5.1c2.5-1.25,5.3-1.86,8.44-1.86
			c3.31,0,6.25,0.68,8.77,2.06c2.55,1.38,4.64,3.19,6.35,5.43c1.65,2.24,2.93,4.67,3.77,7.32c0.79,2.63,1.25,5.2,1.3,7.73
			C489.36,293.5,488.92,296.35,488.06,299.13z M477.02,277.26c-2.4-2.98-5.18-4.48-8.39-4.48c-3.47,0-6.27,1.55-8.36,4.71
			c-2.09,3.14-3.14,7.22-3.14,12.26c0,5.66,1.25,10.2,3.72,13.62c2.47,3.42,5.4,5.15,8.74,5.15c3.34,0,6.04-1.63,8.16-4.84
			c2.14-3.24,3.19-7.77,3.19-13.66C480.74,284.5,479.42,280.27,477.02,277.26z"/>
	</g>
	<g>
		<path d="M63.74,410.13c-0.77,1.91-1.53,3.62-2.35,5.17c-0.79,1.53-1.84,3.01-3.09,4.41c-1.28,1.4-2.78,2.5-4.48,3.31
			c-1.71,0.82-3.67,1.23-5.94,1.23c-0.51,0-1.1-0.03-1.68-0.1c-0.59-0.05-1.23-0.2-1.94-0.46c-0.71-0.26-1.32-0.64-1.8-1.2
			c-0.51-0.56-0.77-1.3-0.77-2.19c0-1.02,0.36-1.87,1.07-2.57c0.71-0.69,1.63-1.05,2.75-1.05c0.23,0,1,0.1,2.29,0.33
			c1.4,0.28,2.25,0.43,2.48,0.43c2.01,0,3.75-0.94,5.17-2.83c1.45-1.86,3.01-5.36,4.67-10.45l-17.18-41.12l-0.18-0.33
			c-0.23-0.56-0.35-0.94-0.35-1.1c0-0.43,0.15-0.74,0.43-0.84c0.31-0.13,0.69-0.15,1.15-0.15h5.22c0.74,0,1.17,0.08,1.35,0.23
			c0.15,0.17,0.41,0.58,0.72,1.27l12.47,32.35l11.52-32.35c0.23-0.61,0.43-1.02,0.61-1.2c0.18-0.15,0.46-0.28,0.82-0.31h4.34
			c0.81,0,1.22,0.28,1.22,0.92c0,0.18,0,0.33-0.02,0.51c-0.06,0.15-0.18,0.51-0.41,0.99L63.74,410.13z"/>
		<path d="M134.68,371.1c-1.2-2.22-2.37-3.9-3.57-5.05c-1.17-1.09-2.9-1.66-5.2-1.66c-3.19,0-5.92,1.43-8.16,4.23
			c-2.24,2.83-3.36,6.65-3.36,11.47c0,5.84,1.33,10.35,3.95,13.56c2.63,3.18,5.74,4.77,9.33,4.77c1.43,0,2.73-0.2,3.9-0.66
			c1.18-0.45,2.24-1.07,3.19-1.84c1.13-0.97,2.27-2.37,3.44-4.21l0.1-0.18c0.59-0.89,1.05-1.48,1.32-1.76
			c0.3-0.31,0.66-0.44,1.15-0.44c0.35,0,0.76,0.13,1.2,0.44c0.45,0.28,0.66,0.79,0.66,1.58c0,1.02-0.34,2.32-0.97,3.87
			c-0.64,1.58-1.66,3.11-3.01,4.64c-1.35,1.51-3.1,2.78-5.27,3.77c-2.17,1-4.64,1.51-7.47,1.51c-2.9,0-5.5-0.56-7.85-1.69
			c-2.32-1.12-4.29-2.68-5.89-4.69c-1.58-2.04-2.8-4.39-3.65-7.11c-0.87-2.73-1.32-5.66-1.32-8.87c0-6.88,1.76-12.49,5.25-16.77
			c3.47-4.29,8.31-6.43,14.51-6.43c2.42,0,4.59,0.38,6.48,1.12c1.88,0.77,3.49,1.74,4.77,2.88c1.33,1.14,2.3,2.32,2.93,3.52
			c0.66,1.22,1,2.27,1,3.14c0,1.2-0.38,2.07-1.17,2.65c-0.77,0.61-1.58,0.89-2.47,0.89c-1.6,0-2.83-0.84-3.72-2.52L134.68,371.1z"/>
		<path d="M158.14,402.73c-0.05,0.59-0.2,1-0.38,1.17c-0.23,0.15-0.61,0.26-1.22,0.26h-4.51c-0.72,0-1.17-0.1-1.41-0.26
			c-0.25-0.18-0.35-0.59-0.35-1.17v-35.15c0-1.53,0.15-2.6,0.43-3.29c0.31-0.66,0.94-1.25,1.86-1.73c1.43-0.82,3.44-1.5,6.07-2.09
			c2.63-0.58,5.3-0.87,8-0.87c2.6,0,4.8,0.36,6.53,1.1c1.73,0.71,2.62,1.99,2.62,3.77c0,1.02-0.35,1.86-1.04,2.55
			c-0.66,0.71-1.53,1.07-2.6,1.07c-0.72,0-1.31-0.15-1.77-0.46c-0.48-0.3-1.15-0.92-1.96-1.81c-0.77-0.74-1.46-1.28-2.12-1.61
			c-0.66-0.33-1.55-0.51-2.75-0.51c-1.2,0-2.17,0.18-2.91,0.55c-0.79,0.36-1.33,0.84-1.66,1.43c-0.33,0.59-0.53,1.2-0.66,1.81
			c-0.13,0.61-0.18,1.28-0.18,2.01v0.07V402.73z"/>
		<path d="M184.01,381.04c0.33,5.53,1.81,9.79,4.41,12.77c2.6,2.98,5.71,4.43,9.3,4.43c2.55,0,4.82-0.61,6.86-1.91
			c2.04-1.3,3.82-3.11,5.36-5.46c0.66-1.06,1.12-1.76,1.37-2.01c0.25-0.31,0.66-0.43,1.2-0.43c0.41,0,0.81,0.13,1.2,0.43
			c0.41,0.25,0.56,0.79,0.56,1.58c0,0.74-0.31,1.89-0.92,3.49c-0.61,1.61-1.63,3.26-3.01,5c-1.4,1.76-3.24,3.21-5.53,4.41
			c-2.32,1.22-5.08,1.81-8.24,1.81c-1.43,0-2.88-0.16-4.38-0.46c-1.51-0.31-3.01-0.85-4.49-1.61c-1.45-0.76-2.85-1.76-4.2-3.01
			c-1.3-1.27-2.45-2.83-3.42-4.69c-1.05-1.88-1.78-3.92-2.19-6.12c-0.41-2.19-0.63-4.46-0.63-6.8c0-2.91,0.28-5.48,0.81-7.75
			c0.53-2.22,1.25-4.16,2.19-5.79c0.41-0.79,1-1.63,1.71-2.57c0.69-0.92,1.71-1.91,3.01-2.99c1.27-1.07,2.93-1.96,4.92-2.67
			c1.96-0.74,4.23-1.1,6.75-1.1c3.27,0,6.02,0.56,8.29,1.74c2.27,1.12,4.03,2.55,5.25,4.18c1.25,1.66,2.14,3.29,2.68,4.92
			c0.54,1.63,0.79,3.01,0.79,4.13c0,0.99-0.21,1.69-0.64,2.02c-0.46,0.33-1.08,0.56-1.83,0.66h-0.11L184.01,381.04z M205.17,373.8
			c-0.25-2.7-1.27-4.92-3.06-6.73c-1.81-1.76-3.96-2.68-6.42-2.68c-3.44,0-6.09,1.12-8.06,3.37c-1.94,2.24-3.16,5.28-3.62,9.15
			L205.17,373.8z"/>
		<path d="M247.13,371.1c-1.17-2.22-2.37-3.9-3.52-5.05c-1.2-1.09-2.93-1.66-5.25-1.66c-3.18,0-5.89,1.43-8.13,4.23
			c-2.24,2.83-3.39,6.65-3.39,11.47c0,5.84,1.35,10.35,3.95,13.56c2.63,3.18,5.76,4.77,9.36,4.77c1.4,0,2.7-0.2,3.9-0.66
			c1.17-0.45,2.25-1.07,3.19-1.84c1.12-0.97,2.26-2.37,3.44-4.21l0.1-0.18c0.59-0.89,1.02-1.48,1.33-1.76
			c0.28-0.31,0.67-0.44,1.12-0.44c0.38,0,0.77,0.13,1.22,0.44c0.43,0.28,0.67,0.79,0.67,1.58c0,1.02-0.34,2.32-1,3.87
			c-0.64,1.58-1.63,3.11-3.01,4.64c-1.35,1.51-3.11,2.78-5.25,3.77c-2.17,1-4.66,1.51-7.49,1.51c-2.88,0-5.5-0.56-7.83-1.69
			c-2.35-1.12-4.28-2.68-5.89-4.69c-1.61-2.04-2.83-4.39-3.67-7.11c-0.87-2.73-1.27-5.66-1.27-8.87c0-6.88,1.73-12.49,5.2-16.77
			c3.49-4.29,8.33-6.43,14.53-6.43c2.42,0,4.57,0.38,6.48,1.12c1.89,0.77,3.47,1.74,4.77,2.88c1.3,1.14,2.27,2.32,2.93,3.52
			c0.64,1.22,0.97,2.27,0.97,3.14c0,1.2-0.38,2.07-1.15,2.65c-0.76,0.61-1.6,0.89-2.47,0.89c-1.61,0-2.86-0.84-3.72-2.52
			L247.13,371.1z"/>
		<path d="M270.1,351.75c-0.84,0.92-2.01,1.38-3.49,1.38c-1.48,0-2.62-0.43-3.49-1.24c-0.87-0.84-1.27-1.89-1.27-3.11
			c0-1.3,0.43-2.37,1.35-3.21c0.92-0.84,2.09-1.25,3.52-1.25c1.22,0,2.32,0.39,3.24,1.18c0.92,0.79,1.38,1.79,1.45,3.03
			C271.4,349.73,270.97,350.81,270.1,351.75z M270.51,402.66c0,0.66-0.1,1.07-0.36,1.25c-0.23,0.15-0.71,0.26-1.4,0.26h-4.79
			c-0.59,0-0.97-0.1-1.09-0.31c-0.15-0.18-0.23-0.58-0.23-1.2V362.2c0-0.62,0.08-1.02,0.23-1.28c0.12-0.21,0.58-0.31,1.27-0.31h4.61
			c0.69,0,1.17,0.08,1.4,0.28c0.26,0.2,0.36,0.64,0.36,1.3V402.66z"/>
		<path d="M285.4,381.04c0.35,5.53,1.81,9.79,4.41,12.77c2.6,2.98,5.71,4.43,9.3,4.43c2.55,0,4.84-0.61,6.86-1.91
			c2.04-1.3,3.82-3.11,5.38-5.46c0.64-1.06,1.09-1.76,1.35-2.01c0.25-0.31,0.69-0.43,1.2-0.43c0.41,0,0.82,0.13,1.2,0.43
			c0.39,0.25,0.59,0.79,0.59,1.58c0,0.74-0.33,1.89-0.95,3.49c-0.61,1.61-1.6,3.26-2.98,5c-1.4,1.76-3.27,3.21-5.56,4.41
			c-2.29,1.22-5.05,1.81-8.23,1.81c-1.43,0-2.88-0.16-4.39-0.46c-1.5-0.31-3.01-0.85-4.45-1.61c-1.48-0.76-2.91-1.76-4.21-3.01
			c-1.33-1.27-2.47-2.83-3.41-4.69c-1.07-1.88-1.81-3.92-2.22-6.12c-0.41-2.19-0.62-4.46-0.62-6.8c0-2.91,0.26-5.48,0.79-7.75
			c0.53-2.22,1.28-4.16,2.22-5.79c0.4-0.79,0.97-1.63,1.65-2.57c0.74-0.92,1.73-1.91,3.03-2.99c1.27-1.07,2.93-1.96,4.89-2.67
			c1.99-0.74,4.26-1.1,6.81-1.1c3.23,0,5.99,0.56,8.25,1.74c2.27,1.12,4.03,2.55,5.28,4.18c1.23,1.66,2.14,3.29,2.65,4.92
			c0.54,1.63,0.79,3.01,0.79,4.13c0,0.99-0.2,1.69-0.66,2.02c-0.43,0.33-1.04,0.56-1.81,0.66h-0.1L285.4,381.04z M306.55,373.8
			c-0.23-2.7-1.25-4.92-3.06-6.73c-1.81-1.76-3.95-2.68-6.42-2.68c-3.42,0-6.09,1.12-8.05,3.37c-1.94,2.24-3.16,5.28-3.62,9.15
			L306.55,373.8z"/>
		<path d="M359.17,402.48c0,0.43-0.08,0.82-0.25,1.12c-0.13,0.31-0.41,0.49-0.82,0.56h-4.87c-0.79,0-1.27-0.1-1.56-0.31
			c-0.28-0.18-0.4-0.66-0.4-1.37v-28.25c0-1.4-0.08-2.63-0.2-3.67c-0.18-1.02-0.56-2.06-1.2-3.11c-0.66-1.05-1.71-1.88-3.16-2.5
			c-1.43-0.67-3.39-1-5.79-1c-2.2,0-3.95,0.28-5.33,0.82c-1.35,0.54-2.32,1.2-2.91,2.01c-0.58,0.81-0.96,1.58-1.12,2.29
			c-0.16,0.74-0.21,1.53-0.21,2.37v31.03c0,0.71-0.15,1.2-0.38,1.37c-0.31,0.21-0.79,0.31-1.48,0.31h-4.37
			c-0.63,0-1.09-0.13-1.32-0.33c-0.23-0.23-0.35-0.66-0.35-1.28v-33.87c0-1.68,0.25-2.96,0.71-3.82c0.49-0.87,1.43-1.63,2.83-2.29
			c1.38-0.69,2.85-1.22,4.49-1.65c1.6-0.44,3.13-0.72,4.56-0.89c1.4-0.15,2.63-0.28,3.67-0.33c1.02-0.05,1.86-0.08,2.52-0.08
			c3.95,0,7.11,0.46,9.48,1.41c2.37,0.92,4.06,2.06,5.12,3.47c1.07,1.4,1.71,2.81,1.97,4.21c0.23,1.4,0.36,2.98,0.36,4.79V402.48z"
			/>
		<path d="M405.64,395.24c0,1.07-0.08,1.94-0.2,2.65c-0.15,0.72-0.48,1.38-1.02,2.04c-0.71,0.97-1.73,1.78-3.06,2.45
			c-1.32,0.68-2.78,1.22-4.34,1.63c-1.58,0.43-3.13,0.74-4.66,0.89c-1.53,0.18-2.98,0.26-4.33,0.26c-6.38,0-11.45-1.86-15.19-5.58
			c-3.75-3.73-5.63-9.03-5.63-15.85c0-2.96,0.45-5.89,1.32-8.75c0.88-2.85,2.24-5.43,4.05-7.78c1.79-2.32,3.97-4.18,6.58-5.53
			c2.62-1.37,5.56-2.06,8.87-2.06c2.04,0,3.82,0.26,5.25,0.74c1.45,0.51,2.93,1.2,4.39,2.04V341.7c0-0.74,0.1-1.25,0.33-1.48
			c0.2-0.25,0.66-0.38,1.35-0.38h4.54c0.64,0,1.1,0.1,1.35,0.28c0.26,0.2,0.41,0.69,0.41,1.4V395.24z M397.66,367.07
			c-1.17-0.94-2.39-1.71-3.67-2.27c-1.25-0.56-2.85-0.84-4.82-0.84c-2.01,0-3.87,0.46-5.58,1.3c-1.73,0.87-3.21,2.12-4.49,3.75
			c-1.25,1.63-2.24,3.52-2.9,5.71c-0.66,2.19-1.02,4.51-1.02,6.99c0,5.71,1.35,10.19,4.02,13.41c2.7,3.21,6.22,4.82,10.58,4.82
			c1.84,0,3.29-0.21,4.36-0.61c1.04-0.43,1.83-0.97,2.34-1.63c0.48-0.69,0.81-1.38,0.97-2.07c0.13-0.68,0.2-1.45,0.2-2.22v-0.1
			V367.07z"/>
		<path d="M452.5,390.65c-0.89,2.78-2.22,5.25-3.93,7.39c-1.76,2.17-3.88,3.9-6.4,5.17c-2.5,1.3-5.33,1.94-8.46,1.94
			c-3.19,0-6.07-0.64-8.61-1.89c-2.58-1.27-4.72-2.98-6.48-5.12c-1.73-2.17-3.06-4.59-3.93-7.31c-0.89-2.73-1.35-5.53-1.35-8.36
			c0-2.96,0.49-5.84,1.38-8.59c0.94-2.73,2.27-5.17,4.03-7.34c1.79-2.14,3.93-3.85,6.43-5.1c2.52-1.22,5.33-1.84,8.46-1.84
			c3.31,0,6.22,0.69,8.77,2.06c2.52,1.35,4.64,3.17,6.32,5.41c1.69,2.24,2.96,4.69,3.77,7.32c0.82,2.63,1.27,5.23,1.33,7.72
			C453.82,385.04,453.36,387.9,452.5,390.65z M441.46,368.8c-2.37-2.98-5.18-4.51-8.36-4.51c-3.5,0-6.27,1.58-8.36,4.72
			c-2.09,3.16-3.16,7.24-3.16,12.29c0,5.63,1.25,10.2,3.75,13.62c2.45,3.41,5.38,5.12,8.74,5.12c3.32,0,6.02-1.61,8.13-4.84
			c2.15-3.22,3.21-7.78,3.21-13.64C445.16,376.04,443.86,371.81,441.46,368.8z"/>
	</g>
	<g>
		<path d="M389.38,34.62c0-12.13,6.63-22.59,16.16-27.25v-0.1H301.15c-15.09,0-27.35,12.23-27.35,27.35s12.26,27.35,27.35,27.35
			h104.39v-0.1C396,57.21,389.38,46.78,389.38,34.62"/>
		<path d="M264.98,34.62c0-12.13,6.65-22.59,16.19-27.25v-0.1H176.77c-15.12,0-27.35,12.23-27.35,27.35s12.24,27.35,27.35,27.35
			h104.39v-0.1C271.63,57.21,264.98,46.78,264.98,34.62"/>
		<path d="M329.93,101.13c0-12.16,6.63-22.59,16.16-27.25v-0.1H241.71c-15.1,0-27.36,12.23-27.36,27.35
			c0,15.11,12.26,27.35,27.36,27.35h104.39v-0.1C336.56,123.72,329.93,113.29,329.93,101.13"/>
		<path d="M205.53,101.13c0-12.16,6.65-22.59,16.16-27.25v-0.1H117.33c-15.12,0-27.35,12.23-27.35,27.35
			c0,15.11,12.24,27.35,27.35,27.35h104.37v-0.1C212.18,123.72,205.53,113.29,205.53,101.13"/>
		<path d="M388.66,165.02c0-11.83,6.63-21.97,16.14-26.56v-0.08H300.43c-15.09,0-27.34,11.93-27.34,26.64
			c0,14.74,12.25,26.66,27.34,26.66H404.8v-0.1C395.29,187.01,388.66,176.84,388.66,165.02"/>
		<path d="M263.22,165.4c0-11.65,7.09-21.67,17.23-26.16v-0.1h-111.1c-16.08,0-29.14,11.75-29.14,26.26
			c0,14.5,13.05,26.28,29.14,26.28h111.1v-0.1C270.31,187.09,263.22,177.08,263.22,165.4"/>
	</g>
</g>
</svg>
