<?xml version="1.0" encoding="utf-8"?>
<!-- Generator: Adobe Illustrator 25.0.0, SVG Export Plug-In . SVG Version: 6.00 Build 0)  -->
<svg version="1.1" id="Layer_1" xmlns="http://www.w3.org/2000/svg" xmlns:xlink="http://www.w3.org/1999/xlink" x="0px" y="0px"
	 viewBox="0 0 893.98 277.89" style="enable-background:new 0 0 893.98 277.89;" xml:space="preserve">
<style type="text/css">
	.st0{fill:none;}
	.st1{fill:#30488C;}
	.st2{fill:#F8E000;}
</style>
<g>
	<g>
		<path d="M4.59,269.53v-35.21H26v4.52H9.46v11.32h15v4.57h-15v14.8H4.59z"/>
		<path d="M35.54,257.51v-23.19h4.82v23.04c0,5.36,2.93,8.39,7.85,8.39c4.97,0,7.8-3.03,7.8-8.39v-23.04h4.87v23.19
			c0,8.29-5.51,12.76-12.66,12.76S35.54,265.81,35.54,257.51z"/>
		<path d="M96.9,269.53l-19.02-28.7v28.7h-4.87v-35.21h6.51l17.58,27.01v-27.01h4.87v35.21H96.9z"/>
		<path d="M114.62,269.53v-35.21h12.32c8.94,0,16.73,6.11,16.73,17.68c0,11.52-7.9,17.53-16.83,17.53H114.62z M126.69,265.21
			c6.5,0,11.97-4.37,11.97-13.21c0-8.89-5.36-13.36-11.87-13.36h-7.3v26.57H126.69z"/>
		<path d="M173.41,259.7h-15.59l-3.72,9.83h-5.21l14-35.21h5.61l14,35.21h-5.26L173.41,259.7z M159.55,255.18h12.12l-6.11-15.79
			L159.55,255.18z"/>
		<path d="M187.7,251.9c0-11.77,8.74-18.32,17.48-18.32c8.04,0,13.71,4.37,15.49,11.17l-4.52,1.59c-1.34-5.31-5.21-8.29-10.97-8.29
			c-6.41,0-12.51,4.67-12.51,13.85c0,9.19,6.11,13.9,12.51,13.9c6.01,0,9.78-3.62,11.22-8.44l4.32,1.59
			c-1.89,6.6-7.45,11.32-15.54,11.32C196.09,270.27,187.7,263.67,187.7,251.9z"/>
		<path d="M230.89,269.53v-35.21h4.97v35.21H230.89z"/>
		<path d="M263.96,233.58c8.84,0,17.68,6.55,17.68,18.32c0,11.77-8.84,18.37-17.68,18.37c-8.84,0-17.68-6.6-17.68-18.37
			C246.28,240.13,255.12,233.58,263.96,233.58z M263.96,265.81c6.56,0,12.71-4.72,12.71-13.9c0-9.19-6.16-13.85-12.71-13.85
			c-6.55,0-12.71,4.67-12.71,13.85C251.25,261.09,257.4,265.81,263.96,265.81z M265.89,231.84h-4.67l5.02-5.91h6.46L265.89,231.84z"
			/>
		<path d="M315.94,269.53l-19.02-28.7v28.7h-4.87v-35.21h6.51l17.58,27.01v-27.01H321v35.21H315.94z"/>
		<path d="M349.79,269.53v-35.21h21.4v4.52h-16.54v10.83h15v4.57h-15v10.78h16.54v4.52H349.79z"/>
		<path d="M382.36,269.53v-35.21h12.32c8.94,0,16.73,6.11,16.73,17.68c0,11.52-7.9,17.53-16.83,17.53H382.36z M394.42,265.21
			c6.5,0,11.97-4.37,11.97-13.21c0-8.89-5.36-13.36-11.87-13.36h-7.3v26.57H394.42z"/>
		<path d="M421.33,257.51v-23.19h4.82v23.04c0,5.36,2.93,8.39,7.85,8.39c4.97,0,7.8-3.03,7.8-8.39v-23.04h4.87v23.19
			c0,8.29-5.51,12.76-12.66,12.76C426.84,270.27,421.33,265.81,421.33,257.51z"/>
		<path d="M456.58,251.9c0-11.77,8.74-18.32,17.48-18.32c8.04,0,13.71,4.37,15.49,11.17l-4.52,1.59c-1.34-5.31-5.21-8.29-10.97-8.29
			c-6.41,0-12.51,4.67-12.51,13.85c0,9.19,6.11,13.9,12.51,13.9c6.01,0,9.78-3.62,11.22-8.44l4.32,1.59
			c-1.89,6.6-7.45,11.32-15.54,11.32C464.97,270.27,456.58,263.67,456.58,251.9z"/>
		<path d="M519.33,259.7h-15.59l-3.72,9.83h-5.21l14-35.21h5.61l14,35.21h-5.26L519.33,259.7z M505.48,255.18h12.12l-6.11-15.79
			L505.48,255.18z"/>
		<path d="M586.46,269.53v-27.41l-12.02,27.41h-4.47l-11.92-27.41v27.41h-4.82v-35.21h6.6l12.41,28.65l12.51-28.65h6.5v35.21H586.46
			z"/>
		<path d="M603.92,269.53v-35.21h21.4v4.52h-16.54v10.83h15v4.57h-15v10.78h16.54v4.52H603.92z M615.74,231.84h-4.67l5.02-5.91h6.46
			L615.74,231.84z"/>
		<path d="M650.2,251.9l11.82,17.63h-5.81l-8.89-13.76l-9.09,13.76h-5.71l12.02-17.63l-11.92-17.58h5.86l8.89,13.81l9.04-13.81h5.76
			L650.2,251.9z"/>
		<path d="M670.84,269.53v-35.21h4.97v35.21H670.84z"/>
		<path d="M686.23,251.9c0-11.77,8.74-18.32,17.48-18.32c8.04,0,13.71,4.37,15.49,11.17l-4.52,1.59c-1.34-5.31-5.21-8.29-10.97-8.29
			c-6.41,0-12.51,4.67-12.51,13.85c0,9.19,6.11,13.9,12.51,13.9c6.01,0,9.78-3.62,11.22-8.44l4.32,1.59
			c-1.89,6.6-7.45,11.32-15.54,11.32C694.63,270.27,686.23,263.67,686.23,251.9z"/>
		<path d="M744.37,233.58c8.84,0,17.68,6.55,17.68,18.32c0,11.77-8.84,18.37-17.68,18.37s-17.68-6.6-17.68-18.37
			C726.7,240.13,735.53,233.58,744.37,233.58z M744.37,265.81c6.56,0,12.71-4.72,12.71-13.9c0-9.19-6.16-13.85-12.71-13.85
			c-6.55,0-12.71,4.67-12.71,13.85C731.66,261.09,737.82,265.81,744.37,265.81z"/>
		<path d="M809.16,259.7h-15.59l-3.72,9.83h-5.21l14-35.21h5.61l14,35.21h-5.26L809.16,259.7z M795.31,255.18h12.12l-6.11-15.79
			L795.31,255.18z"/>
		<path d="M829.36,262.88c1.94,0,3.48,1.54,3.48,3.48c0,1.94-1.54,3.43-3.48,3.43s-3.43-1.49-3.43-3.43
			C825.94,264.41,827.42,262.88,829.36,262.88z"/>
		<path d="M840.78,251.9c0-11.77,8.74-18.32,17.48-18.32c8.04,0,13.71,4.37,15.49,11.17l-4.52,1.59c-1.34-5.31-5.21-8.29-10.97-8.29
			c-6.41,0-12.51,4.67-12.51,13.85c0,9.19,6.11,13.9,12.51,13.9c6.01,0,9.78-3.62,11.22-8.44l4.32,1.59
			c-1.89,6.6-7.45,11.32-15.54,11.32C849.17,270.27,840.78,263.67,840.78,251.9z"/>
		<path d="M885.91,262.88c1.94,0,3.48,1.54,3.48,3.48c0,1.94-1.54,3.43-3.48,3.43c-1.94,0-3.43-1.49-3.43-3.43
			C882.48,264.41,883.97,262.88,885.91,262.88z"/>
	</g>
	<g>
		<g>
			<path class="st0" d="M228.13,143.92c28.46,0,49.38-21.41,49.38-52.55c0-31.38-21.89-53.03-51.09-53.03h-33.07v105.58H228.13z"/>
			<g>
				<path d="M227.15,5.98h-33.8v32.36h33.07c29.19,0,51.09,21.65,51.09,53.03c0,31.14-20.92,52.55-49.38,52.55h-34.78v32.36h32.34
					c53.76,0,90.99-35.03,90.99-85.15C316.68,40.77,279.95,5.98,227.15,5.98z"/>
				<path d="M464.82,105c0,24.57-15.08,39.41-37.95,39.41c-22.87,0-38.92-14.84-38.92-39.41v-1.89h-38.44V105
					c0,45.01,30.17,72.98,77.36,72.98c46.95,0,76.39-27.98,76.39-72.98v-1.89h-38.44V105z"/>
				<path class="st1" d="M536.63,90.89h0.02c0-0.08-0.01-0.16-0.01-0.24C536.64,90.73,536.63,90.81,536.63,90.89z"/>
				<path d="M536.66,90.4h39.39c0-29.68,22.62-52.3,51.82-52.3c15.81,0,32.6,8.76,44.28,22.14l22.38-27.25
					c-16.79-17.27-42.57-28.22-67.14-28.22C575.97,4.77,536.92,41.51,536.66,90.4z"/>
			</g>
			<rect x="154.9" y="176.28" class="st2" width="38.45" height="0.02"/>
			<rect x="193.34" y="38.34" class="st2" width="0.01" height="105.58"/>
			<rect x="154.9" y="5.97" class="st2" width="38.45" height="0.02"/>
			<polygon points="193.34,143.92 193.34,38.34 193.35,38.34 193.35,5.98 154.9,5.98 154.9,176.28 193.35,176.28 193.35,143.92 			
				"/>
			<polygon points="387.95,103.1 387.96,103.1 387.96,5.98 349.51,5.98 349.51,5.98 387.95,5.98 			"/>
			<rect x="349.51" y="5.98" width="38.44" height="97.12"/>
			<polygon points="464.81,103.1 464.82,103.1 464.82,5.98 503.26,5.98 503.26,5.96 464.81,5.96 			"/>
			<rect x="464.82" y="5.98" width="38.44" height="97.12"/>
			<path d="M672.14,123c-12.16,12.16-28.95,19.95-44.28,19.95c-29.19,0-51.82-22.87-51.82-52.55h-39.39h-0.02
				c0,0.08,0.01,0.16,0.01,0.25c0,0.08,0.01,0.16,0.01,0.24c0.26,49.15,38.58,87.09,89.26,87.09c24.81,0,50.84-11.92,68.85-30.41
				L672.14,123z"/>
		</g>
		<g>
			<rect x="39.09" y="6.5" width="75.78" height="31.3"/>
			<rect x="39.1" y="72.77" width="71.02" height="31.3"/>
			<rect x="39.1" y="145.21" width="77.43" height="31.3"/>
		</g>
		<g>
			<polygon class="st0" points="819.22,114.2 795.32,54.96 771.13,114.2 			"/>
			<polyline points="819.22,114.2 771.13,114.2 795.32,54.96 778.4,13.02 710.3,176.14 746.5,176.14 760.04,143.13 830.68,143.13 
							"/>
		</g>
		<polyline points="819.22,114.2 844.22,176.14 880.42,176.14 809.43,6.12 781.28,6.12 778.4,13.02 795.32,54.96 795.36,54.87 		"/>
		<polygon points="39.1,145.21 39.1,104.07 39.1,104.07 39.1,72.77 39.1,72.77 39.1,37.8 39.09,37.8 39.09,6.5 4.94,6.5 
			4.94,176.52 39.1,176.52 39.1,145.21 		"/>
	</g>
</g>
</svg>
