<?xml version="1.0" encoding="utf-8"?>
<!-- Generator: Adobe Illustrator 25.0.0, SVG Export Plug-In . SVG Version: 6.00 Build 0)  -->
<svg version="1.1" id="Capa_1" xmlns="http://www.w3.org/2000/svg" xmlns:xlink="http://www.w3.org/1999/xlink" x="0px" y="0px"
	 viewBox="0 0 425.2 231.5" style="enable-background:new 0 0 425.2 231.5;" xml:space="preserve">
<style type="text/css">
	.st0{stroke:#000000;stroke-miterlimit:10;}
	.st1{fill:#FFFFFF;stroke:#000000;stroke-miterlimit:10;}
	.st2{fill-rule:evenodd;clip-rule:evenodd;fill:#FFFFFF;stroke:#000000;stroke-miterlimit:10;}
</style>
<g>
	<g>
		<path class="st0" d="M0,113.9c2.4-0.5,5.1-0.8,8-1.1c2.9-0.3,5.8-0.4,8.7-0.4c3,0,6,0.2,9,0.7c3,0.5,5.7,1.5,8.1,2.9
			c2.4,1.5,4.4,3.5,5.9,6.1c1.5,2.6,2.3,6,2.3,10.2c0,3.8-0.7,7-2,9.6c-1.3,2.6-3.1,4.8-5.3,6.4c-2.2,1.7-4.7,2.9-7.5,3.6
			c-2.8,0.8-5.7,1.1-8.7,1.1c-0.3,0-0.7,0-1.4,0c-0.6,0-1.3,0-2,0c-0.7,0-1.4-0.1-2-0.1c-0.7-0.1-1.1-0.1-1.4-0.2v20.8H0V113.9z
			 M17.6,122.6c-1.1,0-2.2,0-3.3,0.1c-1,0.1-1.9,0.2-2.5,0.3v19.6c0.2,0.1,0.6,0.1,1,0.2c0.5,0.1,0.9,0.1,1.5,0.1c0.5,0,1,0,1.5,0
			c0.5,0,0.8,0,1.1,0c1.5,0,3.1-0.1,4.6-0.4c1.5-0.3,2.9-0.8,4.1-1.6c1.2-0.8,2.2-1.9,2.9-3.2c0.7-1.4,1.1-3.2,1.1-5.4
			c0-1.9-0.3-3.5-1-4.7c-0.7-1.2-1.6-2.2-2.7-3c-1.1-0.7-2.4-1.3-3.8-1.6C20.5,122.8,19.1,122.6,17.6,122.6z"/>
		<path class="st0" d="M46.3,133.1c2.3-1,5-1.9,8.2-2.5c3.2-0.6,6.5-0.9,9.9-0.9c3,0,5.5,0.4,7.5,1.1c2,0.7,3.6,1.7,4.8,3.1
			c1.2,1.3,2,2.9,2.5,4.7c0.5,1.8,0.7,3.9,0.7,6.2c0,2.5-0.1,5.1-0.3,7.6c-0.2,2.6-0.3,5.1-0.3,7.5c0,2.5,0,4.9,0.2,7.2
			c0.2,2.3,0.6,4.5,1.3,6.6h-9.1l-1.8-5.9h-0.4c-1.1,1.8-2.7,3.3-4.8,4.6c-2,1.3-4.7,1.9-7.9,1.9c-2,0-3.8-0.3-5.4-0.9
			c-1.6-0.6-3-1.5-4.1-2.6c-1.1-1.1-2-2.4-2.7-4c-0.6-1.5-0.9-3.2-0.9-5.1c0-2.6,0.6-4.9,1.8-6.7c1.2-1.8,2.9-3.3,5.1-4.4
			c2.2-1.1,4.9-1.9,7.9-2.3c3.1-0.4,6.5-0.6,10.3-0.4c0.4-3.2,0.2-5.5-0.7-6.9c-0.9-1.4-2.8-2.1-5.8-2.1c-2.2,0-4.6,0.2-7.1,0.7
			c-2.5,0.5-4.6,1.1-6.2,1.8L46.3,133.1z M60.5,165.1c2.2,0,4-0.5,5.3-1.5c1.3-1,2.3-2.1,2.9-3.2v-5.6c-1.8-0.2-3.5-0.2-5.1-0.1
			c-1.6,0.1-3.1,0.4-4.3,0.8c-1.3,0.4-2.3,1-3,1.7c-0.7,0.7-1.1,1.7-1.1,2.8c0,1.6,0.5,2.9,1.4,3.7
			C57.5,164.7,58.8,165.1,60.5,165.1z"/>
		<path class="st0" d="M103.4,155.8h-3v17.8H89.2v-60.3h11.2v35.6l2.6-1.2l9.8-17.1h12.3l-10.3,16.4l-4.4,3.3l4.7,3.4l11.6,20.1
			h-12.8L103.4,155.8z"/>
		<path class="st0" d="M131.8,113.9c2.4-0.5,5.1-0.8,8-1.1c2.9-0.3,5.8-0.4,8.7-0.4c3,0,6,0.2,9,0.7c3,0.5,5.7,1.5,8.1,2.9
			c2.4,1.5,4.4,3.5,5.9,6.1c1.5,2.6,2.3,6,2.3,10.2c0,3.8-0.7,7-2,9.6c-1.3,2.6-3.1,4.8-5.3,6.4c-2.2,1.7-4.7,2.9-7.5,3.6
			c-2.8,0.8-5.7,1.1-8.7,1.1c-0.3,0-0.7,0-1.4,0c-0.6,0-1.3,0-2,0c-0.7,0-1.4-0.1-2-0.1c-0.7-0.1-1.1-0.1-1.4-0.2v20.8h-11.8V113.9z
			 M149.3,122.6c-1.1,0-2.2,0-3.3,0.1c-1,0.1-1.9,0.2-2.5,0.3v19.6c0.2,0.1,0.6,0.1,1,0.2c0.5,0.1,0.9,0.1,1.5,0.1c0.5,0,1,0,1.5,0
			c0.5,0,0.8,0,1.1,0c1.5,0,3.1-0.1,4.6-0.4c1.5-0.3,2.9-0.8,4.1-1.6c1.2-0.8,2.2-1.9,2.9-3.2c0.7-1.4,1.1-3.2,1.1-5.4
			c0-1.9-0.3-3.5-1-4.7c-0.7-1.2-1.6-2.2-2.7-3c-1.1-0.7-2.4-1.3-3.8-1.6C152.3,122.8,150.8,122.6,149.3,122.6z"/>
		<path class="st0" d="M178,133.1c2.3-1,5-1.9,8.2-2.5c3.2-0.6,6.5-0.9,9.9-0.9c3,0,5.5,0.4,7.5,1.1c2,0.7,3.6,1.7,4.8,3.1
			c1.2,1.3,2,2.9,2.5,4.7c0.5,1.8,0.7,3.9,0.7,6.2c0,2.5-0.1,5.1-0.3,7.6c-0.2,2.6-0.3,5.1-0.3,7.5c0,2.5,0,4.9,0.2,7.2
			c0.2,2.3,0.6,4.5,1.3,6.6h-9.1l-1.8-5.9h-0.4c-1.2,1.8-2.7,3.3-4.8,4.6c-2,1.3-4.7,1.9-7.9,1.9c-2,0-3.8-0.3-5.4-0.9
			c-1.6-0.6-3-1.5-4.1-2.6c-1.1-1.1-2-2.4-2.7-4c-0.6-1.5-0.9-3.2-0.9-5.1c0-2.6,0.6-4.9,1.8-6.7c1.2-1.8,2.9-3.3,5.1-4.4
			c2.2-1.1,4.9-1.9,7.9-2.3c3.1-0.4,6.5-0.6,10.3-0.4c0.4-3.2,0.2-5.5-0.7-6.9c-0.9-1.4-2.8-2.1-5.8-2.1c-2.2,0-4.6,0.2-7.1,0.7
			c-2.5,0.5-4.6,1.1-6.2,1.8L178,133.1z M192.2,165.1c2.2,0,4-0.5,5.3-1.5c1.3-1,2.3-2.1,2.9-3.2v-5.6c-1.8-0.2-3.5-0.2-5.1-0.1
			c-1.6,0.1-3.1,0.4-4.3,0.8c-1.3,0.4-2.3,1-3,1.7c-0.7,0.7-1.1,1.7-1.1,2.8c0,1.6,0.5,2.9,1.4,3.7
			C189.3,164.7,190.6,165.1,192.2,165.1z"/>
		<path class="st0" d="M235.2,155.8h-3v17.8H221v-60.3h11.2v35.6l2.6-1.2l9.8-17.1h12.3l-10.3,16.4l-4.4,3.3l4.7,3.4l11.6,20.1
			h-12.8L235.2,155.8z"/>
	</g>
	<g>
		<path class="st0" d="M0.2,78.7h13.2v3.9H4.6v5.5h8.2V92H4.6v9H0.2V78.7z"/>
		<path class="st0" d="M30.1,78.7h4.1v14.4c0,1.4-0.2,2.7-0.6,3.7c-0.4,1-0.9,1.9-1.6,2.6c-0.7,0.7-1.5,1.2-2.5,1.5
			c-1,0.3-2.1,0.5-3.2,0.5c-5.7,0-8.5-2.6-8.5-7.7V78.7h4.4v14.1c0,0.9,0.1,1.6,0.2,2.2c0.2,0.6,0.4,1.1,0.8,1.5
			c0.3,0.4,0.8,0.6,1.3,0.8c0.5,0.2,1.1,0.2,1.8,0.2c1.3,0,2.3-0.4,2.9-1.1c0.6-0.7,0.9-1.9,0.9-3.6V78.7z"/>
		<path class="st0" d="M45.1,89.4l-1.8-3.5h-0.2l0.5,3.5V101h-4.1V78.6h3.2l8.4,11.9l1.7,3.4H53l-0.5-3.4V78.7h4.1v22.5h-3.2
			L45.1,89.4z"/>
		<path class="st0" d="M62.1,78.7c0.4-0.1,1-0.1,1.5-0.2c0.6,0,1.1-0.1,1.7-0.1c0.6,0,1.2,0,1.7,0c0.6,0,1.1,0,1.5,0
			c2,0,3.7,0.3,5.1,0.8c1.4,0.6,2.5,1.3,3.4,2.3c0.9,1,1.5,2.2,1.9,3.6c0.4,1.4,0.6,2.9,0.6,4.6c0,1.5-0.2,3-0.6,4.4
			c-0.4,1.4-1,2.6-1.9,3.7c-0.9,1.1-2.1,2-3.5,2.6c-1.5,0.7-3.3,1-5.4,1c-0.3,0-0.8,0-1.4,0c-0.6,0-1.1,0-1.8-0.1
			c-0.6,0-1.2-0.1-1.7-0.1c-0.6,0-1-0.1-1.2-0.1V78.7z M68.9,82.3c-0.5,0-0.9,0-1.4,0c-0.5,0-0.8,0.1-1.1,0.1v14.9
			c0.1,0,0.2,0,0.4,0c0.2,0,0.4,0,0.7,0c0.2,0,0.5,0,0.7,0c0.2,0,0.4,0,0.5,0c1.2,0,2.3-0.2,3.1-0.7c0.8-0.4,1.5-1,1.9-1.7
			c0.5-0.7,0.8-1.6,1-2.5c0.2-0.9,0.3-1.9,0.3-2.9c0-0.9-0.1-1.7-0.3-2.6c-0.2-0.9-0.5-1.7-0.9-2.4c-0.5-0.7-1.1-1.3-1.9-1.7
			C71.1,82.5,70.1,82.3,68.9,82.3z"/>
		<path class="st0" d="M94.4,96.1h-6.9l-1.7,4.9h-4.4l8-22.5h3.2l8,22.5h-4.6L94.4,96.1z M88.7,92.6h4.8l-1.7-5l-0.7-3.5H91
			l-0.7,3.5L88.7,92.6z"/>
		<path class="st0" d="M118.4,100.1c-0.7,0.5-1.5,0.8-2.6,1c-1.1,0.2-2.1,0.3-3.2,0.3c-1.3,0-2.6-0.2-3.8-0.6
			c-1.2-0.4-2.3-1.1-3.2-2c-0.9-0.9-1.6-2.1-2.2-3.6c-0.5-1.5-0.8-3.3-0.8-5.4c0-2.2,0.3-4,0.9-5.5c0.6-1.5,1.4-2.7,2.4-3.6
			c1-0.9,2-1.5,3.2-1.9c1.2-0.4,2.4-0.6,3.6-0.6c1.3,0,2.4,0.1,3.2,0.3c0.9,0.2,1.6,0.4,2.2,0.6l-0.9,3.7c-0.5-0.2-1.1-0.4-1.7-0.5
			c-0.7-0.1-1.5-0.2-2.4-0.2c-1.8,0-3.2,0.6-4.3,1.9c-1.1,1.3-1.6,3.2-1.6,5.8c0,1.1,0.1,2.2,0.4,3.1c0.3,0.9,0.6,1.8,1.2,2.4
			c0.5,0.7,1.2,1.2,1.9,1.6c0.8,0.4,1.7,0.6,2.7,0.6c1,0,1.8-0.1,2.4-0.3c0.7-0.2,1.2-0.4,1.7-0.7L118.4,100.1z"/>
		<path class="st0" d="M123.1,78.7h4.4V101h-4.4V78.7z"/>
		<path class="st0" d="M132.7,89.9c0-3.7,0.8-6.6,2.5-8.6c1.6-2,4-3,7-3c1.6,0,3,0.3,4.2,0.8c1.2,0.6,2.2,1.3,3,2.4
			c0.8,1,1.4,2.2,1.8,3.7c0.4,1.4,0.6,3,0.6,4.7c0,3.7-0.8,6.6-2.5,8.6c-1.6,2-4,3-7,3c-1.6,0-3-0.3-4.2-0.8
			c-1.2-0.6-2.2-1.3-2.9-2.4c-0.8-1-1.4-2.2-1.7-3.7C132.9,93.2,132.7,91.6,132.7,89.9z M137.3,89.9c0,1.1,0.1,2.2,0.3,3.1
			c0.2,0.9,0.5,1.8,0.9,2.4c0.4,0.7,0.9,1.2,1.5,1.6c0.6,0.4,1.3,0.6,2.2,0.6c1.6,0,2.8-0.6,3.6-1.8c0.8-1.2,1.3-3.2,1.3-5.9
			c0-1.1-0.1-2.1-0.3-3c-0.2-0.9-0.5-1.8-0.8-2.5c-0.4-0.7-0.9-1.2-1.5-1.6c-0.6-0.4-1.4-0.6-2.3-0.6c-1.5,0-2.8,0.6-3.6,1.9
			C137.7,85.3,137.3,87.2,137.3,89.9z M143.2,73.3h5.1v1l-5.1,2.8h-3.3L143.2,73.3z"/>
		<path class="st0" d="M161.9,89.4l-1.8-3.5H160l0.5,3.5V101h-4.1V78.6h3.2l8.4,11.9l1.7,3.4h0.2l-0.5-3.4V78.7h4.1v22.5h-3.2
			L161.9,89.4z"/>
	</g>
	<g>
		<path class="st0" d="M9.5,207c-1.2,1.8-2.8,2.7-4.7,2.7c-0.3,0-0.6,0-0.9-0.1c-1.1-0.1-1.8-0.7-2.3-1.6c-0.3-0.6-0.5-1.6-0.7-3
			c-0.2-1.7-0.3-3.2-0.3-4.6c0-3.5,0.7-6.6,2-9.3c0.6-1.1,1.4-1.7,2.6-1.7c1.1,0,1.7,0.6,2,1.7c0.3,1.3,0.4,2.4,0.3,3.3
			c-0.1,0.7-0.2,1.1-0.3,1.2c-0.3,0-0.6,0.1-1,0.2c-0.4-1.9-1-3.4-1.7-4.7c-1.6,2.2-2.4,5.2-2.4,9c0,0.6,0,1.2,0.1,1.9
			c0.1,1.4,0.2,2.4,0.3,3c0.2,1.3,0.6,2.2,1.1,2.7c0.4,0.4,0.8,0.6,1.3,0.6c0.8,0,1.7-0.5,2.7-1.6c1-1.1,1.9-2.8,2.9-5.3
			c0.7-1.2,1.5-3.1,2.6-5.6c0.6,0.8,0.9,1.7,0.9,2.7c0,1.3-0.6,2.8-1.7,4.5C11.4,204.3,10.5,205.6,9.5,207z"/>
		<path class="st0" d="M18.9,208.6c-0.5,0.6-0.8,1-0.8,1s-0.2,0-0.7,0c-0.7,0-1.2-0.8-1.5-2.3c-0.3-1.4-0.4-2.8-0.4-4.3
			c0-3.1,0.5-5.7,1.6-7.7c1.3-2.5,3.2-3.7,5.8-3.7c0.6,0,1.3,0.1,2,0.3c0,0.2-0.3,2-0.9,5.2c-0.3,2.1-0.5,3.9-0.4,5.4
			c0,0.6,0.2,1.4,0.6,2.4c0.4,1,0.5,1.7,0.5,2.1c0,0.7-0.4,1.3-1.1,1.8c-0.3-0.6-0.8-1.5-1.3-2.7c-0.5,0.2-0.7,0.4-0.8,0.5
			c0.2-0.1,0.4-0.4,0.5-0.9c0.1-0.3,0.1-0.6,0.1-0.8c0-0.2-0.2-0.8-0.5-1.8c0,0.1-0.4,1.1-1.2,2.9C19.9,207.1,19.4,208,18.9,208.6z
			 M17.9,206.3c0.8-0.7,1.5-1.7,1.9-3.2c0-0.1,0.3-1.3,0.8-3.8c0-0.1,0.2-0.9,0.7-2.6c0.3-1.1,0.4-2,0.4-2.7c0-0.4,0-0.7-0.1-1.1
			c-1.4,0.6-2.4,1.9-3.1,3.9c-0.6,1.6-0.9,3.6-0.9,5.8C17.6,204.1,17.7,205.3,17.9,206.3z"/>
		<path class="st0" d="M28.5,205.3c0-0.3-0.1-1.1-0.3-2.3c-0.4-2-0.6-3.9-0.6-5.8c0-3,0.5-6.1,1.6-9.4c0.3-0.9,0.6-1.5,1-1.9
			c0.5-0.5,1.2-0.8,2-0.7c1.2,0.1,1.8,1.3,1.8,3.4c0,0.6-0.1,1.5-0.2,2.5c-0.6,5.1-1.6,9.2-3,12.3c-0.3,0.8-0.5,1.3-0.5,1.7
			c0,0.6,0.4,1.2,1.2,1.9c0.2,0.2,0.5,0.5,0.7,0.7c0.3,0.2,0.6,0.3,0.9,0.3c0.2,0,0.4-0.1,0.7-0.3c0.3-0.2,0.5-0.3,0.6-0.4
			c0.3-0.1,1,0.1,2,0.4c-0.5,1.2-1.2,1.9-2.2,1.9c-0.4,0-1.2-0.2-2.5-0.5c-0.4-0.2-0.9-0.4-1.6-0.7c-0.3-0.1-0.6-0.1-0.8-0.1
			c-0.3,0-0.7,0.1-1,0.4c-0.5,0.4-0.9,0.6-1.2,0.7c0-0.6,0.2-1.2,0.6-2C28.2,206.6,28.4,205.9,28.5,205.3z M29.5,200.7
			c1.4-2.2,2.2-4.6,2.3-7.3c0-0.5,0.1-1.2,0.3-2.2c0.1-0.9,0.2-1.5,0.2-2c0-0.8-0.2-1.5-0.5-2.2c-2,2.2-3,5.1-3,8.5
			C28.8,197.1,29,198.8,29.5,200.7z"/>
		<path class="st0" d="M40.2,196.4h0.3c0.8,0,1.3,0.1,1.6,0.2c0.5,0.2,0.7,0.6,0.7,1.2c0,0.3-0.1,0.7-0.3,1
			c-0.2,0.3-0.4,0.5-0.7,0.7h-0.7c-0.2,0-0.4,0-0.5,0c-0.8,0-1.5-0.2-2.1-0.7c-0.3-0.3-0.5-0.4-0.6-0.5c-0.1-0.1-0.1-0.4-0.1-0.8
			c0-0.5,0.3-0.8,0.6-1c0.2-0.1,0.4-0.1,0.7-0.1C39.7,196.3,40,196.4,40.2,196.4z M40.2,204.7v-3c0-0.4,0.1-0.6,0.1-0.7
			c0.1-0.2,0.3-0.3,0.6-0.3c0.3,0,0.5,0.1,0.7,0.3c0,0,0.1,0.2,0.3,0.7c0.3,0.7,0.4,1.6,0.3,2.7c0,0.7,0,1.8,0,3.3
			c0,0.4-0.1,0.8-0.4,1.1c-0.2,0.3-0.4,0.6-0.6,0.9c-0.9-0.4-1.3-1.1-1.3-2c0-0.3,0-0.7,0.1-1.4C40.1,205.6,40.2,205.1,40.2,204.7z"
			/>
		<path class="st0" d="M47.5,209.3c-1.6-0.1-2.4-1.1-2.4-2.8c0-0.4,0.2-1.5,0.5-3.2c0.2-1.1,0.7-2.1,1.5-3.2c0.8-1,1.7-1.7,2.8-2.1
			c0.3-0.1,0.7-0.2,1.1-0.3c0.1-0.1,0.2-0.4,0.3-1.1c0-0.3,0.1-0.6,0.1-1c0-0.6-0.1-1.3-0.2-2.2c-0.1-1.1-0.2-1.8-0.2-2.2
			c-0.2-3.1,0.4-4.9,1.7-5.3c0.4,0.9,0.6,2.2,0.6,3.6c0,0.6,0,1.6-0.1,2.9c-0.1,1.3-0.1,2.3-0.1,3c0,1.2,0.1,2.2,0.4,3.1
			c0.4,1.3,0.8,2.5,1.2,3.8c0.5,1.6,0.7,3,0.7,4c0,0.7-0.1,1.3-0.3,1.9c-0.3,0.9-0.8,1.3-1.3,1.3c-0.6,0-1-0.5-1-1.6
			c0-1.5-0.3-2.9-0.7-4.3c-0.4,1.3-0.8,2.5-1.3,3.8C49.9,208.8,48.9,209.4,47.5,209.3z M47.5,208.3c1.5-1.5,2.4-2.7,2.7-3.6
			c0.4-1.7,0.6-2.7,0.6-3V201c-0.1-0.3-0.2-0.5-0.3-0.5l-0.1,0c0,0,0,0-0.1,0c-0.2,0-0.3-0.1-0.3-0.4c0-0.1,0.1-0.3,0.2-0.4
			c0.1-0.2,0.2-0.3,0.2-0.4c-1.1,0.7-2,1.6-2.7,2.7c-0.7,1.2-1,2.3-1,3.5C46.7,206.6,47,207.5,47.5,208.3z"/>
		<path class="st0" d="M60.9,208.6c-0.5,0.6-0.8,1-0.8,1s-0.2,0-0.7,0c-0.7,0-1.2-0.8-1.5-2.3c-0.3-1.4-0.4-2.8-0.4-4.3
			c0-3.1,0.5-5.7,1.6-7.7c1.3-2.5,3.2-3.7,5.8-3.7c0.6,0,1.3,0.1,2,0.3c0,0.2-0.3,2-0.9,5.2c-0.3,2.1-0.5,3.9-0.5,5.4
			c0,0.6,0.2,1.4,0.6,2.4c0.4,1,0.5,1.7,0.5,2.1c0,0.7-0.4,1.3-1.1,1.8c-0.3-0.6-0.8-1.5-1.3-2.7c-0.5,0.2-0.7,0.4-0.8,0.5
			c0.2-0.1,0.4-0.4,0.5-0.9c0.1-0.3,0.1-0.6,0.1-0.8c0-0.2-0.1-0.8-0.4-1.8c0,0.1-0.4,1.1-1.2,2.9C61.9,207.1,61.5,208,60.9,208.6z
			 M59.9,206.3c0.8-0.7,1.5-1.7,1.9-3.2c0-0.1,0.3-1.3,0.8-3.8c0-0.1,0.2-0.9,0.7-2.6c0.3-1.1,0.4-2,0.4-2.7c0-0.4,0-0.7-0.1-1.1
			c-1.4,0.6-2.4,1.9-3.1,3.9c-0.6,1.6-0.9,3.6-0.9,5.8C59.6,204.1,59.7,205.3,59.9,206.3z"/>
		<path class="st0" d="M71.5,209.3c-1.6-0.1-2.4-1.1-2.4-2.8c0-0.4,0.2-1.5,0.5-3.2c0.2-1.1,0.7-2.1,1.5-3.2c0.8-1,1.7-1.7,2.8-2.1
			c0.3-0.1,0.7-0.2,1.1-0.3c0.1-0.1,0.2-0.4,0.3-1.1c0-0.3,0.1-0.6,0.1-1c0-0.6-0.1-1.3-0.2-2.2c-0.1-1.1-0.2-1.8-0.2-2.2
			c-0.2-3.1,0.4-4.9,1.7-5.3c0.4,0.9,0.6,2.2,0.6,3.6c0,0.6,0,1.6-0.1,2.9c-0.1,1.3-0.1,2.3-0.1,3c0,1.2,0.1,2.2,0.4,3.1
			c0.4,1.3,0.8,2.5,1.2,3.8c0.5,1.6,0.7,3,0.7,4c0,0.7-0.1,1.3-0.3,1.9c-0.3,0.9-0.8,1.3-1.3,1.3c-0.6,0-1-0.5-1-1.6
			c0-1.5-0.3-2.9-0.7-4.3c-0.4,1.3-0.8,2.5-1.3,3.8C73.9,208.8,72.9,209.4,71.5,209.3z M71.5,208.3c1.5-1.5,2.4-2.7,2.7-3.6
			c0.4-1.7,0.6-2.7,0.6-3V201c-0.1-0.3-0.2-0.5-0.3-0.5l-0.1,0c0,0,0,0-0.1,0c-0.2,0-0.3-0.1-0.3-0.4c0-0.1,0.1-0.3,0.2-0.4
			c0.1-0.2,0.2-0.3,0.2-0.4c-1.1,0.7-2,1.6-2.7,2.7c-0.7,1.2-1,2.3-1,3.5C70.7,206.6,71,207.5,71.5,208.3z"/>
		<path class="st0" d="M89.4,209.3c-1.6-0.1-2.4-1.1-2.4-2.8c0-0.4,0.2-1.5,0.5-3.2c0.2-1.1,0.7-2.1,1.5-3.2c0.8-1,1.7-1.7,2.8-2.1
			c0.3-0.1,0.7-0.2,1.1-0.3c0.1-0.1,0.2-0.4,0.3-1.1c0-0.3,0.1-0.6,0.1-1c0-0.6-0.1-1.3-0.2-2.2c-0.1-1.1-0.2-1.8-0.2-2.2
			c-0.2-3.1,0.4-4.9,1.7-5.3c0.4,0.9,0.6,2.2,0.6,3.6c0,0.6,0,1.6-0.1,2.9c-0.1,1.3-0.1,2.3-0.1,3c0,1.2,0.1,2.2,0.4,3.1
			c0.4,1.3,0.8,2.5,1.2,3.8c0.5,1.6,0.7,3,0.7,4c0,0.7-0.1,1.3-0.3,1.9c-0.3,0.9-0.8,1.3-1.3,1.3c-0.6,0-1-0.5-1-1.6
			c0-1.5-0.3-2.9-0.7-4.3c-0.4,1.3-0.8,2.5-1.3,3.8C91.9,208.8,90.8,209.4,89.4,209.3z M89.4,208.3c1.5-1.5,2.4-2.7,2.7-3.6
			c0.4-1.7,0.6-2.7,0.6-3V201c-0.1-0.3-0.2-0.5-0.3-0.5l-0.1,0c0,0,0,0-0.1,0c-0.2,0-0.3-0.1-0.3-0.4c0-0.1,0.1-0.3,0.2-0.4
			c0.1-0.2,0.2-0.3,0.2-0.4c-1.1,0.7-2,1.6-2.7,2.7c-0.7,1.2-1,2.3-1,3.5C88.7,206.6,88.9,207.5,89.4,208.3z"/>
		<path class="st0" d="M106.9,195.1c0.7,0.3,1,0.9,1,1.7c0,0.7-0.3,1.8-1,3.3c-0.8,1.7-2.1,3.1-4,4.3c-0.8,0.5-1.2,0.8-1.3,0.9
			c-0.5,0.4-0.7,0.9-0.6,1.4c0.1,1,0.6,1.5,1.6,1.5c0.3,0,0.7-0.1,1.1-0.2c3.3-0.8,5.4-3.3,6.3-7.3c0.9,0.4,1.3,1,1.3,1.9
			c0,0.8-0.5,1.8-1.4,3c-0.8,0.9-1.6,1.7-2.6,2.4c-1.4,1-2.9,1.5-4.7,1.5c-2.3,0-3.4-1.1-3.3-3.2c0.1-2.4,0.7-4.6,1.8-6.8
			c1.3-2.6,2.9-4.2,4.9-4.8C106.2,194.8,106.5,194.9,106.9,195.1z M101.9,203.3c0.8-0.8,1.5-1.5,2.3-2.3c0.9-0.9,1.4-1.7,1.7-2.4
			c0.1-0.2,0.1-0.4,0.1-0.6c0-0.2-0.1-0.4-0.2-0.7c-0.1-0.3-0.2-0.5-0.3-0.6c-1,0.5-1.9,1.3-2.7,2.5c-0.7,1.1-1.1,2.3-1.1,3.4
			C101.8,202.9,101.8,203.1,101.9,203.3z"/>
		<path class="st0" d="M126.3,202c-0.2,0.9-0.4,2.4-0.6,4.3c-0.1,0.8-0.2,1.6-0.3,2.3c-0.2,0.9-0.7,1.3-1.4,1.3
			c-0.8,0-1.3-0.4-1.5-1.2c0-0.7-0.1-1.4-0.2-2.1c-0.1-1.1-0.7-3.1-1.7-6c-0.9-2.7-1.4-4.7-1.4-6.1c0-0.4,0-0.8,0.1-1.2
			c1.1,0.4,1.8,1.2,2.2,2.3c0.1,0.3,0.2,1.4,0.4,3.3c0.1,0.9,0.4,1.9,0.8,2.9c0.8,1.7,1.1,2.6,1.2,2.7c0.7-2.1,1.3-4.1,1.7-6
			c0.2-1,0.7-2.8,1.4-5.1c0.6-2.2,1.1-3.9,1.3-5.1c0.6,0.8,0.9,1.7,0.9,2.9c0,1.2-0.4,3-1.3,5.4C127,199.5,126.5,201.3,126.3,202z"
			/>
		<path class="st0" d="M132.8,196.4h0.3c0.8,0,1.3,0.1,1.6,0.2c0.5,0.2,0.7,0.6,0.8,1.2c0,0.3-0.1,0.7-0.3,1
			c-0.2,0.3-0.4,0.5-0.7,0.7h-0.7c-0.2,0-0.4,0-0.5,0c-0.8,0-1.5-0.2-2.1-0.7c-0.3-0.3-0.5-0.4-0.6-0.5c-0.1-0.1-0.1-0.4-0.1-0.8
			c0-0.5,0.3-0.8,0.6-1c0.2-0.1,0.4-0.1,0.7-0.1C132.4,196.3,132.7,196.4,132.8,196.4z M132.9,204.7v-3c0-0.4,0.1-0.6,0.1-0.7
			c0.1-0.2,0.3-0.3,0.6-0.3c0.3,0,0.5,0.1,0.7,0.3c0,0,0.1,0.2,0.3,0.7c0.3,0.7,0.4,1.6,0.3,2.7c0,0.7,0,1.8,0,3.3
			c0,0.4-0.1,0.8-0.4,1.1c-0.2,0.3-0.4,0.6-0.6,0.9c-0.9-0.4-1.3-1.1-1.3-2c0-0.3,0-0.7,0.1-1.4
			C132.8,205.6,132.9,205.1,132.9,204.7z"/>
		<path class="st0" d="M140.2,209.3c-1.6-0.1-2.4-1.1-2.4-2.8c0-0.4,0.2-1.5,0.5-3.2c0.2-1.1,0.7-2.1,1.5-3.2c0.8-1,1.7-1.7,2.8-2.1
			c0.3-0.1,0.7-0.2,1.1-0.3c0.1-0.1,0.2-0.4,0.3-1.1c0-0.3,0.1-0.6,0.1-1c0-0.6-0.1-1.3-0.2-2.2c-0.1-1.1-0.2-1.8-0.2-2.2
			c-0.2-3.1,0.4-4.9,1.7-5.3c0.4,0.9,0.6,2.2,0.6,3.6c0,0.6,0,1.6-0.1,2.9c-0.1,1.3-0.1,2.3-0.1,3c0,1.2,0.1,2.2,0.4,3.1
			c0.4,1.3,0.8,2.5,1.2,3.8c0.5,1.6,0.7,3,0.7,4c0,0.7-0.1,1.3-0.3,1.9c-0.3,0.9-0.8,1.3-1.3,1.3c-0.6,0-1-0.5-1-1.6
			c0-1.5-0.3-2.9-0.7-4.3c-0.4,1.3-0.8,2.5-1.3,3.8C142.6,208.8,141.6,209.4,140.2,209.3z M140.2,208.3c1.5-1.5,2.4-2.7,2.7-3.6
			c0.4-1.7,0.6-2.7,0.6-3V201c-0.1-0.3-0.2-0.5-0.3-0.5l-0.1,0c0,0,0,0-0.1,0c-0.2,0-0.3-0.1-0.3-0.4c0-0.1,0.1-0.3,0.2-0.4
			c0.1-0.2,0.2-0.3,0.2-0.4c-1.1,0.7-2,1.6-2.7,2.7c-0.7,1.2-1,2.3-1,3.5C139.4,206.6,139.7,207.5,140.2,208.3z"/>
		<path class="st0" d="M153.6,208.6c-0.5,0.6-0.8,1-0.8,1s-0.2,0-0.7,0c-0.7,0-1.2-0.8-1.5-2.3c-0.3-1.4-0.4-2.8-0.4-4.3
			c0-3.1,0.5-5.7,1.6-7.7c1.3-2.5,3.2-3.7,5.8-3.7c0.6,0,1.3,0.1,2,0.3c0,0.2-0.3,2-0.9,5.2c-0.3,2.1-0.5,3.9-0.4,5.4
			c0,0.6,0.2,1.4,0.6,2.4c0.4,1,0.5,1.7,0.5,2.1c0,0.7-0.4,1.3-1.1,1.8c-0.3-0.6-0.8-1.5-1.3-2.7c-0.5,0.2-0.7,0.4-0.8,0.5
			c0.2-0.1,0.4-0.4,0.5-0.9c0.1-0.3,0.1-0.6,0.1-0.8c0-0.2-0.2-0.8-0.5-1.8c0,0.1-0.4,1.1-1.2,2.9
			C154.6,207.1,154.1,208,153.6,208.6z M152.6,206.3c0.8-0.7,1.5-1.7,1.9-3.2c0-0.1,0.3-1.3,0.8-3.8c0-0.1,0.2-0.9,0.7-2.6
			c0.3-1.1,0.4-2,0.4-2.7c0-0.4,0-0.7-0.1-1.1c-1.4,0.6-2.4,1.9-3.1,3.9c-0.6,1.6-0.9,3.6-0.9,5.8
			C152.3,204.1,152.4,205.3,152.6,206.3z"/>
		<path class="st0" d="M168.4,210.9v-3.3c0-2.9,0-4.5,0-4.6c-0.1-1.7-0.3-3.2-0.7-4.4c-0.2-0.6-0.3-1.1-0.3-1.6c0-0.9,0.7-1.8,2-2.7
			c1.3-0.9,2-1.5,2.2-1.6c0.9-0.6,1.8-0.8,2.5-0.8c0.5,0,1,0.1,1.5,0.4c0.9,0.5,1.4,1.3,1.4,2.4c0,0.8-0.2,1.7-0.6,2.9
			c-0.3,0.9-0.7,1.7-1.1,2.6c-0.4,0.9-1.1,1.8-2.3,2.7c-1.4,1-2.3,1.8-2.7,2.2c-0.4,0.6-0.7,1.4-0.7,2.3c0,0.4,0.1,1.1,0.2,1.9
			c0.1,0.9,0.2,1.4,0.2,1.7c0,0.7,0.2,1.9,0.4,3.6c0.2,1.7,0.3,2.9,0.3,3.8c0,0.4,0,0.8-0.1,1.2h-1.3c-0.3-1.1-0.5-2.6-0.6-4.5
			C168.6,213.9,168.5,212.4,168.4,210.9z M173,194.7c-1.3,0-2.1,0.5-2.3,1.4c-0.2,1-0.4,2-0.6,3l0.3,0.3v0.3
			c-0.5,0.2-0.7,0.7-0.7,1.3c0.2,0.5,0.4,1.2,0.7,2c0.8-1,1.7-2.1,2.5-3.1c1.3-1.8,1.9-3.1,1.9-3.9
			C174.8,195.1,174.2,194.7,173,194.7z"/>
		<path class="st0" d="M182.3,208.6c-0.5,0.6-0.8,1-0.8,1s-0.2,0-0.7,0c-0.7,0-1.2-0.8-1.5-2.3c-0.3-1.4-0.4-2.8-0.4-4.3
			c0-3.1,0.5-5.7,1.6-7.7c1.3-2.5,3.2-3.7,5.8-3.7c0.6,0,1.3,0.1,2,0.3c0,0.2-0.3,2-0.9,5.2c-0.3,2.1-0.5,3.9-0.5,5.4
			c0,0.6,0.2,1.4,0.6,2.4c0.4,1,0.5,1.7,0.5,2.1c0,0.7-0.4,1.3-1.1,1.8c-0.3-0.6-0.8-1.5-1.4-2.7c-0.4,0.2-0.7,0.4-0.8,0.5
			c0.2-0.1,0.4-0.4,0.5-0.9c0.1-0.3,0.1-0.6,0.1-0.8c0-0.2-0.1-0.8-0.4-1.8c0,0.1-0.4,1.1-1.2,2.9
			C183.3,207.1,182.8,208,182.3,208.6z M181.3,206.3c0.8-0.7,1.5-1.7,1.9-3.2c0-0.1,0.3-1.3,0.8-3.8c0-0.1,0.2-0.9,0.7-2.6
			c0.3-1.1,0.4-2,0.4-2.7c0-0.4,0-0.7-0.1-1.1c-1.4,0.6-2.4,1.9-3.1,3.9c-0.6,1.6-0.9,3.6-0.9,5.8
			C180.9,204.1,181,205.3,181.3,206.3z"/>
		<path class="st0" d="M201.1,195.1c-1.9,0.4-3.5,1-4.5,1.8c-1.4,1-2.4,2.4-2.8,4.2c-0.1,0.6-0.2,2.1-0.3,4.4c0,1.8-0.4,3.2-1,4.2
			c-1-0.5-1.6-2-1.6-4.6c0-1.9,0-3.7,0-5.6c0-0.1-0.2-0.7-0.4-1.8c-0.2-0.9-0.3-1.6-0.3-2.1c0-1,0.5-1.5,1.4-1.5c0.6,0,1,0.7,1.2,2
			c0,0.9,0.1,1.8,0.2,2.7c2.7-3.4,4.8-5.1,6.3-5.1C199.9,193.6,200.6,194.1,201.1,195.1z"/>
		<path class="st0" d="M206,208.6c-0.5,0.6-0.8,1-0.8,1s-0.2,0-0.7,0c-0.7,0-1.2-0.8-1.5-2.3c-0.3-1.4-0.4-2.8-0.4-4.3
			c0-3.1,0.5-5.7,1.6-7.7c1.3-2.5,3.2-3.7,5.8-3.7c0.6,0,1.3,0.1,2,0.3c0,0.2-0.3,2-0.9,5.2c-0.3,2.1-0.5,3.9-0.4,5.4
			c0,0.6,0.2,1.4,0.6,2.4c0.4,1,0.5,1.7,0.5,2.1c0,0.7-0.4,1.3-1.1,1.8c-0.3-0.6-0.8-1.5-1.4-2.7c-0.5,0.2-0.7,0.4-0.8,0.5
			c0.2-0.1,0.4-0.4,0.5-0.9c0.1-0.3,0.1-0.6,0.1-0.8c0-0.2-0.2-0.8-0.5-1.8c0,0.1-0.4,1.1-1.2,2.9C207.1,207.1,206.6,208,206,208.6z
			 M205,206.3c0.8-0.7,1.5-1.7,1.9-3.2c0-0.1,0.3-1.3,0.8-3.8c0-0.1,0.2-0.9,0.7-2.6c0.3-1.1,0.4-2,0.4-2.7c0-0.4,0-0.7-0.1-1.1
			c-1.4,0.6-2.4,1.9-3.1,3.9c-0.6,1.6-0.9,3.6-0.9,5.8C204.7,204.1,204.8,205.3,205,206.3z"/>
		<path class="st0" d="M226.1,189.8c0,0.6,0,0.9,0,0.9c0,0.1,0.1,0.3,0.3,0.7c0.3,0.6,0.5,1.3,0.8,2.1c0.2,0.7,0.4,1.5,0.6,2.2
			c0.4,1.4,1.1,3,2,4.8c0.8,1.5,1.6,3,2.3,4.4c0.6,1.1,0.8,1.8,0.8,2.2c0,0.4-0.2,0.8-0.5,1.1c-0.3,0.3-0.6,0.4-0.9,0.4
			c-0.4,0-0.8-0.3-1.2-1c-0.2-0.4-0.7-1.8-1.3-4c-0.3-1.2-0.9-2.5-1.6-4.1c-0.7-1.4-1.3-2.8-2-4.1c-1.7,3.5-2.4,6.4-2.3,8.6
			c0.5-0.2,1.2-0.4,2.1-0.6c0.9-0.2,1.6-0.4,2.2-0.7h0.4v1c-0.1,0.5-0.4,0.8-0.9,1c-0.5,0.1-1,0.2-1.5,0.4c-1.5,0.5-2.4,1.5-2.6,3
			c-0.2,1.2-0.6,1.7-1.2,1.7c-0.3,0-0.8-0.1-1.5-0.4c0.4-1.4,0.9-3.4,1.4-6c0.7-3.4,1.1-5.5,1.3-6.3c0.4-1.6,0.7-3.2,1.1-4.7
			c0.5-1.9,1.2-3.3,1.9-4.2C226,189.1,226.1,189.6,226.1,189.8z"/>
		<path class="st0" d="M236.9,209.3c-1.6-0.1-2.4-1.1-2.4-2.8c0-0.4,0.2-1.5,0.5-3.2c0.2-1.1,0.7-2.1,1.5-3.2c0.8-1,1.7-1.7,2.8-2.1
			c0.3-0.1,0.7-0.2,1.1-0.3c0.1-0.1,0.2-0.4,0.3-1.1c0-0.3,0.1-0.6,0.1-1c0-0.6-0.1-1.3-0.2-2.2c-0.1-1.1-0.2-1.8-0.2-2.2
			c-0.2-3.1,0.4-4.9,1.7-5.3c0.4,0.9,0.6,2.2,0.6,3.6c0,0.6,0,1.6-0.1,2.9c-0.1,1.3-0.1,2.3-0.1,3c0,1.2,0.1,2.2,0.4,3.1
			c0.4,1.3,0.8,2.5,1.2,3.8c0.5,1.6,0.7,3,0.7,4c0,0.7-0.1,1.3-0.3,1.9c-0.3,0.9-0.8,1.3-1.3,1.3c-0.6,0-1-0.5-1-1.6
			c0-1.5-0.3-2.9-0.7-4.3c-0.4,1.3-0.8,2.5-1.3,3.8C239.3,208.8,238.3,209.4,236.9,209.3z M236.9,208.3c1.5-1.5,2.4-2.7,2.7-3.6
			c0.4-1.7,0.6-2.7,0.6-3V201c-0.1-0.3-0.2-0.5-0.3-0.5l-0.1,0c0,0,0,0-0.1,0c-0.2,0-0.3-0.1-0.3-0.4c0-0.1,0.1-0.3,0.2-0.4
			c0.1-0.2,0.2-0.3,0.2-0.4c-1.1,0.7-2,1.6-2.7,2.7c-0.7,1.2-1,2.3-1,3.5C236.2,206.6,236.4,207.5,236.9,208.3z"/>
		<path class="st0" d="M255,199c0,0.5,0,1.2,0,2.2c0,1,0,1.7,0,2.1c0,2.3,0.2,4.3,0.7,5.9c-1.1,0.1-1.7-0.2-2.1-0.8
			c-0.2-0.4-0.4-1.2-0.4-2.3c0-1.4-0.1-2.3-0.2-2.8c-0.3,0.3-0.6,0.9-1,1.8c-0.4,0.9-0.7,1.6-1,1.9c-0.5,0.6-1.1,0.9-2,0.9
			c-1.3,0-2-1-2-2.9c0-0.2,0-0.5,0-0.9c0-0.4,0-0.7,0-0.8c0-0.6,0-1.5-0.1-2.6c0-1.1-0.1-1.9-0.1-2.4c0-1.5,0.2-2.8,0.5-3.9
			c0.6,0.1,1.5,0.3,2.7,0.7c-1,2.1-1.6,4.3-1.6,6.5c0,1.9,0.4,3.4,1.2,4.7c0.8-1.4,1.6-3.7,2.4-7c0.8-3.1,1.5-5.3,2.3-6.5
			c0.6,0.6,0.9,1.6,0.9,2.8c0,0.4,0,0.9-0.1,1.7C255,198,255,198.6,255,199z"/>
		<path class="st0" d="M259.4,205.3c0-0.3-0.1-1.1-0.3-2.3c-0.4-2-0.6-3.9-0.6-5.8c0-3,0.5-6.1,1.6-9.4c0.3-0.9,0.6-1.5,1-1.9
			c0.5-0.5,1.2-0.8,2-0.7c1.2,0.1,1.8,1.3,1.8,3.4c0,0.6-0.1,1.5-0.2,2.5c-0.6,5.1-1.6,9.2-3,12.3c-0.3,0.8-0.5,1.3-0.5,1.7
			c0,0.6,0.4,1.2,1.2,1.9c0.2,0.2,0.5,0.5,0.7,0.7c0.3,0.2,0.6,0.3,0.9,0.3c0.2,0,0.4-0.1,0.7-0.3c0.3-0.2,0.5-0.3,0.6-0.4
			c0.3-0.1,1,0.1,2,0.4c-0.5,1.2-1.2,1.9-2.2,1.9c-0.4,0-1.2-0.2-2.5-0.5c-0.4-0.2-0.9-0.4-1.6-0.7c-0.3-0.1-0.6-0.1-0.8-0.1
			c-0.3,0-0.7,0.1-1,0.4c-0.5,0.4-0.9,0.6-1.2,0.7c0-0.6,0.2-1.2,0.6-2C259.1,206.6,259.3,205.9,259.4,205.3z M260.3,200.7
			c1.4-2.2,2.2-4.6,2.3-7.3c0-0.5,0.1-1.2,0.3-2.2c0.1-0.9,0.2-1.5,0.2-2c0-0.8-0.2-1.5-0.5-2.2c-2,2.2-3,5.1-3,8.5
			C259.7,197.1,259.9,198.8,260.3,200.7z"/>
		<path class="st0" d="M274.7,196.1c0.2-0.1,1.1-0.6,2.6-1.6c1-0.7,1.9-1.1,2.7-1.4h0.4c0.3,0.1,0.4,0.3,0.5,0.6
			c0.1,0.2,0.1,0.5,0.1,0.7c-0.6,0.3-1.5,0.7-2.5,1.3c-1.2,0.7-2,1.1-2.4,1.3c-0.7,0.3-1.2,0.7-1.4,1c-0.2,0.3-0.3,0.7-0.3,1.2
			c0,0.1,0,0.4,0,0.7c0,0.4,0,0.6,0,0.8s0,0.9,0.1,2.1c0.1,1,0.1,1.9,0.1,2.5c0,2.4-0.4,3.8-1.2,4c-0.5-1-0.8-2.2-0.9-3.7
			c0-1.3-0.1-2.6-0.1-4c0-0.9-0.4-1.6-1.2-2c-0.8-0.3-1.6-0.6-2.4-1c0.8-0.4,1.6-0.9,2.4-1.4c0.8-0.5,1.2-1.2,1.2-2.2
			c0-1.2,0-2.4,0-3.7c0-1.4,0.3-2.5,0.7-3.3c0.7,0.8,1,2.1,1.1,3.9C274.2,194,274.4,195.4,274.7,196.1z"/>
		<path class="st0" d="M283.8,194.7c0-0.4,0.1-0.8,0.5-1c0.3-0.2,0.7-0.3,1.2-0.3c0.6,0,1.5,0.2,2.5,0.7c1,0.5,1.7,1,2.2,1.6
			c1.1,1.4,1.6,3.2,1.6,5.7c0,2.2-0.5,4.1-1.4,5.7c-1.1,1.8-2.6,2.6-4.5,2.6c-2.4-0.1-3.6-1.5-3.6-4.2c0-0.6,0.1-1.6,0.3-3.1
			c0.1-0.9,0.5-2,1.1-3.5c0.7-1.6,1.1-2.8,1.2-3.5c-0.1,0-0.3-0.1-0.4-0.1c0,0-0.1,0-0.2,0c-0.1,0-0.1,0-0.1,0
			C283.9,195.3,283.8,195.1,283.8,194.7z M284.2,203.3c0,0.1,0,0.4,0,0.9c0,0.4,0,0.8,0,1c0,1.7,0.4,2.6,1.2,2.6
			c0.2,0,0.5-0.1,0.8-0.2c1.5-0.7,2.6-2.8,3.3-6.3c0.1-0.5,0.2-0.9,0.2-1.4c0-1.3-0.7-2.7-2.2-4.3c-1.2,1.9-1.9,3.1-2.2,3.6
			C284.6,200.7,284.2,202.1,284.2,203.3z"/>
		<path class="st0" d="M295.3,201.4c-1-0.6-1.5-1.2-1.5-1.8c0-0.5,0.4-1.2,1.2-2.2c1.2-1.5,2.8-2.7,4.6-3.6c0.5-0.3,0.9-0.6,1.4-0.9
			c0.5-0.3,1-0.5,1.5-0.5c0.1,0,0.3,0,0.4,0c0.7,0.1,1.1,0.4,1.1,0.7c0,0.1,0,0.2,0,0.4c0,0.2,0,0.4,0,0.5c-1.8,0-3.3,0.4-4.6,1.3
			c-2.2,1.5-3.3,2.7-3.3,3.7c0,0.7,0.6,1.2,1.7,1.6c2.4,0.8,4.2,1.1,5.5,1.1c0.5,0,1,0,1.5-0.1c0.6-0.2,1.6-0.4,3-0.7
			c0.3,0,0.8-0.2,1.4-0.3c0.5-0.2,0.8-0.2,1.1-0.2c0.6,0,1.1,0.4,1.5,1.2c0,0-0.3,0.2-0.8,0.6c-0.3,0.2-0.6,0.3-0.9,0.4
			c-0.8,0-1.7,0-2.5,0c-0.9,0.1-1.4,0.6-1.5,1.7c-0.1,1.9-0.9,3.3-2.3,4c-1.6,0.8-3,1.2-4,1.2c-0.4,0-0.8-0.1-1.3-0.2
			c-0.9-0.3-1.3-0.7-1.3-1.2c0-0.6,0.5-1.4,1.5-2.4c1.3-1.4,2-2.2,2.1-2.3c-0.5-0.2-1.4-0.5-2.7-0.9
			C296.8,202.1,295.9,201.7,295.3,201.4z M299.3,207.7c0.9,0.1,1.9-0.1,3-0.7c0.7-0.4,1.1-0.7,1.1-1c0-0.1-0.1-0.5-0.5-1.3
			C301.3,205,300.1,206,299.3,207.7z"/>
		<path class="st0" d="M330.7,187.1c0.3,0.1,0.5,0.4,0.5,0.7c0,0.3,0.1,0.6,0.1,1c0.1,1.7,0.3,4.3,0.4,7.6c0,2.1,0,4.2,0.1,6.2
			c0.1,2.3,0.5,4.3,1.3,6c-1,0.2-1.5,0.3-1.6,0.3c-0.6,0-0.9-0.4-1-1.3c-0.2-2.2-0.4-4.1-0.4-5.7c0-4.3-0.2-7.4-0.6-9.3
			c-0.6,1.6-1.1,3.5-1.6,5.7c-0.4,1.9-0.9,3.9-1.3,5.9c-0.2,0.9-0.4,1.7-0.5,2.6c-0.4,1-1,1.5-1.8,1.4c-0.7-0.1-1.1-0.4-1.3-0.9
			c0-0.6-0.1-1.2-0.1-1.7c-0.2-3-0.8-5.9-2-8.6c-0.3,1.5-0.5,3.2-0.5,5c0,1.5,0.2,3.8,0.5,6.9c-0.4,0.1-0.7,0.1-1,0.1
			c-0.9,0-1.3-0.5-1.3-1.4c0-0.3,0.1-0.8,0.2-1.5c0.1-0.7,0.2-1.2,0.2-1.6c0-1,0-2.4,0-4c0-2.1,0-3.4,0-4c0-2.3,0.1-4.3,0.4-5.8
			c1.1,0.2,1.9,0.7,2.4,1.6c0.3,0.5,0.6,1.5,0.9,3c0,0.1,0.2,1.6,0.7,4.3c0.3,1.8,0.6,3.2,1,4.3c0.7-1.4,1.2-3.3,1.8-5.8
			c0.7-3.2,1.1-5.1,1.4-5.9c0.7-2.2,1.6-3.9,2.8-5.2H330.7z"/>
		<path class="st0" d="M338.1,208.6c-0.5,0.6-0.8,1-0.8,1s-0.2,0-0.7,0c-0.7,0-1.2-0.8-1.5-2.3c-0.3-1.4-0.4-2.8-0.4-4.3
			c0-3.1,0.5-5.7,1.6-7.7c1.3-2.5,3.2-3.7,5.7-3.7c0.6,0,1.3,0.1,2,0.3c0,0.2-0.3,2-0.9,5.2c-0.3,2.1-0.5,3.9-0.5,5.4
			c0,0.6,0.2,1.4,0.6,2.4c0.4,1,0.5,1.7,0.5,2.1c0,0.7-0.4,1.3-1.1,1.8c-0.3-0.6-0.8-1.5-1.3-2.7c-0.5,0.2-0.7,0.4-0.8,0.5
			c0.2-0.1,0.4-0.4,0.5-0.9c0.1-0.3,0.1-0.6,0.1-0.8c0-0.2-0.1-0.8-0.4-1.8c0,0.1-0.4,1.1-1.2,2.9
			C339.1,207.1,338.6,208,338.1,208.6z M337.1,206.3c0.8-0.7,1.5-1.7,1.9-3.2c0-0.1,0.3-1.3,0.8-3.8c0-0.1,0.2-0.9,0.7-2.6
			c0.3-1.1,0.4-2,0.4-2.7c0-0.4,0-0.7-0.1-1.1c-1.4,0.6-2.4,1.9-3.1,3.9c-0.6,1.6-0.9,3.6-0.9,5.8
			C336.8,204.1,336.9,205.3,337.1,206.3z"/>
		<path class="st0" d="M351.3,193.7c0.1-0.8,0.4-1.3,0.6-1.3c0.2,0,0.4,0.2,0.7,0.5c0.3,0.4,0.4,1,0.5,1.8c0.1,0.6,0.1,1.2,0.2,1.9
			c0.4,2.2,0.6,3.4,0.6,3.7c0.3,1.4,0.6,2.6,1,3.6c0.8-0.8,1.6-1.6,2.3-2.4c0.8-0.7,1.7-1,2.6-0.9c-0.2,1.1-0.9,2.1-2.2,3
			c-1.3,0.9-2,1.8-2.1,2.6c-0.1,0.4-0.1,0.9-0.1,1.5c0,0.9,0.1,2.1,0.4,3.6c0.2,1.2,0.5,2.3,0.7,3.5c0,0.2,0.3,1.4,0.8,3.6
			c0.3,1.4,0.5,2.6,0.5,3.7c0,0.2,0,0.7,0,1.3c0,0.6,0,1.1,0,1.5c0,2-0.2,3.5-0.6,4.5c-0.6,1.4-1.8,2.1-3.4,2
			c-3.6-0.2-5.4-3-5.4-8.4c0-1.5,0.1-3,0.4-4.5c0.2-1.3,0.7-2.8,1.3-4.7c0.5-1.5,1.1-3,1.6-4.6c0-0.1,0.3-0.7,0.8-1.8
			c0.4-0.7,0.5-1.4,0.5-1.9c0-0.5-0.2-1.2-0.5-2c-0.3-0.6-0.5-1.3-0.8-2c-0.3,1-0.9,2.4-1.6,4.3c-0.4,0.9-0.9,1.3-1.4,1.3
			c-0.8,0-1.3-0.7-1.6-2c-0.3-1.3-0.5-2.7-0.8-4.1c-0.3-1.6-0.4-3-0.4-4.2c0-0.9,0.1-1.8,0.3-2.6c1,0.3,1.6,0.6,1.8,1
			c0.2,0.2,0.2,0.9,0.2,2c-0.1,2.9,0,5,0.3,6.3c0.9-0.9,1.5-2.4,1.9-4.6C350.8,197.3,351.1,195.5,351.3,193.7z M350.6,222.2
			c0,3.9,0.7,6.3,2,7.3c0.5,0.4,1,0.6,1.4,0.6c1,0,1.5-1.3,1.5-3.8c0-0.9-0.1-2.1-0.2-3.4c-0.2-2.2-0.4-4.4-0.6-6.7
			c-0.3-2.7-0.6-4.8-1-6.6C351.6,211.6,350.6,215.8,350.6,222.2z"/>
		<path class="st0" d="M362.6,194.7c0-0.4,0.1-0.8,0.5-1c0.3-0.2,0.7-0.3,1.2-0.3c0.6,0,1.5,0.2,2.5,0.7c1,0.5,1.7,1,2.2,1.6
			c1.1,1.4,1.6,3.2,1.6,5.7c0,2.2-0.5,4.1-1.4,5.7c-1.1,1.8-2.6,2.6-4.5,2.6c-2.4-0.1-3.6-1.5-3.6-4.2c0-0.6,0.1-1.6,0.3-3.1
			c0.1-0.9,0.5-2,1.1-3.5c0.7-1.6,1.1-2.8,1.3-3.5c-0.1,0-0.3-0.1-0.4-0.1c0,0-0.1,0-0.2,0c-0.1,0-0.1,0-0.1,0
			C362.8,195.3,362.7,195.1,362.6,194.7z M363,203.3c0,0.1,0,0.4,0,0.9c0,0.4,0,0.8,0,1c0,1.7,0.4,2.6,1.2,2.6
			c0.2,0,0.5-0.1,0.8-0.2c1.5-0.7,2.6-2.8,3.3-6.3c0.1-0.5,0.2-0.9,0.2-1.4c0-1.3-0.7-2.7-2.2-4.3c-1.2,1.9-1.9,3.1-2.2,3.6
			C363.4,200.7,363,202.1,363,203.3z"/>
		<path class="st0" d="M383.4,195.1c-2,0.4-3.5,1-4.5,1.8c-1.4,1-2.4,2.4-2.8,4.2c-0.1,0.6-0.2,2.1-0.3,4.4c0,1.8-0.4,3.2-1,4.2
			c-1-0.5-1.6-2-1.6-4.6c0-1.9,0-3.7,0-5.6c0-0.1-0.1-0.7-0.4-1.8c-0.2-0.9-0.3-1.6-0.3-2.1c0-1,0.5-1.5,1.4-1.5c0.6,0,1,0.7,1.2,2
			c0,0.9,0.1,1.8,0.2,2.7c2.7-3.4,4.8-5.1,6.3-5.1C382.2,193.6,382.9,194.1,383.4,195.1z"/>
		<path class="st0" d="M392.4,195.1c0.7,0.3,1,0.9,1,1.7c0,0.7-0.3,1.8-1,3.3c-0.8,1.7-2.1,3.1-4,4.3c-0.8,0.5-1.2,0.8-1.4,0.9
			c-0.5,0.4-0.7,0.9-0.6,1.4c0.1,1,0.6,1.5,1.6,1.5c0.3,0,0.7-0.1,1.1-0.2c3.3-0.8,5.4-3.3,6.3-7.3c0.9,0.4,1.3,1,1.3,1.9
			c0,0.8-0.5,1.8-1.4,3c-0.8,0.9-1.6,1.7-2.6,2.4c-1.3,1-2.9,1.5-4.7,1.5c-2.3,0-3.4-1.1-3.3-3.2c0.1-2.4,0.7-4.6,1.8-6.8
			c1.3-2.6,2.9-4.2,4.9-4.8C391.7,194.8,392,194.9,392.4,195.1z M387.4,203.3c0.8-0.8,1.5-1.5,2.3-2.3c0.9-0.9,1.4-1.7,1.7-2.4
			c0.1-0.2,0.1-0.4,0.1-0.6c0-0.2-0.1-0.4-0.2-0.7c-0.1-0.3-0.2-0.5-0.3-0.6c-1,0.5-1.9,1.3-2.7,2.5c-0.7,1.1-1.1,2.3-1.1,3.4
			C387.3,202.9,387.4,203.1,387.4,203.3z"/>
		<path class="st0" d="M400,201.4c-1-0.6-1.5-1.2-1.5-1.8c0-0.5,0.4-1.2,1.2-2.2c1.2-1.5,2.8-2.7,4.6-3.6c0.5-0.3,0.9-0.6,1.4-0.9
			c0.5-0.3,1-0.5,1.5-0.5c0.1,0,0.3,0,0.4,0c0.7,0.1,1.1,0.4,1.1,0.7c0,0.1,0,0.2,0,0.4c0,0.2,0,0.4,0,0.5c-1.8,0-3.3,0.4-4.6,1.3
			c-2.2,1.5-3.3,2.7-3.3,3.7c0,0.7,0.6,1.2,1.7,1.6c2.4,0.8,4.2,1.1,5.5,1.1c0.5,0,1,0,1.5-0.1c0.6-0.2,1.6-0.4,3-0.7
			c0.3,0,0.8-0.2,1.4-0.3c0.5-0.2,0.8-0.2,1.1-0.2c0.6,0,1.1,0.4,1.5,1.2c0,0-0.3,0.2-0.8,0.6c-0.3,0.2-0.6,0.3-0.9,0.4
			c-0.8,0-1.7,0-2.5,0c-0.9,0.1-1.4,0.6-1.5,1.7c-0.1,1.9-0.9,3.3-2.3,4c-1.6,0.8-3,1.2-4,1.2c-0.4,0-0.8-0.1-1.3-0.2
			c-0.9-0.3-1.4-0.7-1.4-1.2c0-0.6,0.5-1.4,1.5-2.4c1.3-1.4,2-2.2,2.1-2.3c-0.5-0.2-1.4-0.5-2.7-0.9
			C401.5,202.1,400.6,201.7,400,201.4z M404,207.7c0.9,0.1,1.9-0.1,3-0.7c0.7-0.4,1.1-0.7,1.1-1c0-0.1-0.1-0.5-0.4-1.3
			C406,205,404.8,206,404,207.7z"/>
	</g>
	<g>
		<g>
			<path class="st1" d="M317.9,104.8c13.7,0,25.7,3.6,32.1,8.9c-5-6.1-17.5-10.5-32.1-10.5c-14.6,0-27,4.3-32,10.5
				C292.2,108.4,304.1,104.8,317.9,104.8z"/>
		</g>
		<g>
			<path class="st1" d="M386.1,49.1c9.2,0,17.3,3.4,21.6,8.4c-3.4-5.8-11.8-9.9-21.6-9.9c-9.8,0-18.2,4.1-21.6,9.9
				C368.8,52.5,376.8,49.1,386.1,49.1z"/>
		</g>
		<g>
			<path class="st1" d="M312.1,18c1.5,3.1,3.7,5.1,6.1,5.1c2.4,0,4.6-2,6.1-5.1c-1.9,0.9-4,1.5-6.1,1.5C316.1,19.5,314,19,312.1,18z
				"/>
		</g>
		<g>
			<path class="st1" d="M312.5,6.2c1-0.8,2.5-1.3,4.1-1.3c1.6,0,3.1,0.5,4.1,1.3c-1.3-0.2-2.7-0.4-4.1-0.4
				C315.1,5.8,313.8,6,312.5,6.2z"/>
		</g>
		<g>
			<path class="st1" d="M312.1,3.5c0.8-0.6,2-1,3.3-1c1.3,0,2.5,0.4,3.3,1.1c-1-0.2-2.1-0.3-3.3-0.3C314.3,3.2,313.1,3.4,312.1,3.5z
				"/>
		</g>
		<path class="st1" d="M386.6,11.6c-1.7-0.7-3.5-1-5.2-1.2c1.8-1.2,4-1.5,6-0.7c2,0.8,3.3,2.5,3.9,4.6
			C389.9,13.2,388.3,12.3,386.6,11.6z"/>
		<g>
			<path class="st1" d="M377,25.5c1.2,2.7,3,4.5,4.9,4.5c2,0,3.7-1.7,4.9-4.5c-1.5,0.8-3.2,1.3-4.9,1.3
				C380.2,26.8,378.6,26.3,377,25.5z"/>
		</g>
		<path class="st1" d="M393.9,23.3c0.4-0.3,0.7-0.7,0.9-1.4c0.2-0.7,0.2-1.3-0.1-1.5c-0.3-0.3-0.6-0.3-0.8-0.2
			c0.1,0.8,0.2,1.6,0.2,2.5C394,22.8,393.9,23,393.9,23.3z"/>
		<path class="st0" d="M425.1,84.4c1-6.2-2.5-36.7-29.7-48.3c7.3-4.6,5.4-10.5,0.7-11.8c-0.4,2.7-1.9,5-4,6c1.8-1.5,2.9-3.7,3.4-6.3
			c0.3-3.2,0.3-6.6-0.1-10.1c-0.2-1.3-0.6-2.4-1.1-3.4c-1.3-2.1-2.9-3.5-4.9-4.3c-2.9-1.1-5.5-0.7-7.8,1.4c-1.2,0.9-2.2,2.2-3,3.7
			c-2.6,2.5-4.3,6.6-4.3,11.3c0,4.7,1.7,8.8,4.3,11.3c0,0.2,0,0.4,0,0.6c-17.6,7.6-29.3,19.2-26.5,42.3c1.1,5.9,2.7-13.8,12.8-19.9
			c-5.3,20.1-8,50.5,0.5,77.5c0.8,3.8,5.1,0.2,6.4,3.2c3.2,9.2,8.6,23.9,8,24.7c-4.9,6-4.6,12.5-4.6,12.5s7.8,1.4,6.9-14.3
			c-2.7-11.5-3.6-14.8-3-21.6c3.9,1.9,19.4,3.3,27.7,0.7c-0.2,4.6,0.6,3.2-1.1,14.2c-0.2,3.7-0.3,12.8,3.4,13
			c1.7,0.1,1.4-6.6-0.9-11c0.4-2.4,2-10.6,2.5-16c0.7-1.9,4.1-0.5,4.4-1.4c3.6-37.3-4.8-71.8-7.6-81.2c12.7,8.6,14.7,24.5,16.6,27.8
			C424.6,86,425,85.6,425.1,84.4z M394.6,20.3c0.3,0.3,0.4,0.8,0.1,1.5c-0.2,0.7-0.4,1.1-0.9,1.4c0-0.2,0-0.5,0-0.7
			c0-0.8-0.1-1.7-0.2-2.5C394.1,20,394.4,20.1,394.6,20.3z"/>
		<path class="st0" d="M352.3,77.9c0.6-7.8-1.3-37.7-29.4-50.3c0-0.3-0.5-1.2,0-1.5c1.8-0.6,8.1-6.7,5-10.1c0-0.4,0.1-0.8,0.1-1.3
			c0.1-0.3,0.2-0.6,0.2-0.6s1.2,0.2,1.5-1.3c0.2-1.5-0.9-2.1-0.9-2.1s1.2-0.4,0.1-1.5c-0.6-0.5-1.4-0.8-2.1-0.9
			c-2.1-5-6.5-8.4-11.8-8.4c-4.4,0-8.4,2.5-10.7,6.3c-0.2-0.1-0.4-0.1-0.8-0.1c-1.2-0.1-1.7,1.4-1.7,1.4s-1.2-0.4-1.6,1.1
			c-0.4,1.5,0.6,2.2,0.6,2.2s-1.2,0.3-0.2,1.4c0.4,0.4,0.9,0.7,1.5,0.9c0,0.1,0,0.3,0,0.4c-3.5,4.5,0.1,5.9-0.4,12.7
			c-36,22.9-35.8,51.4-31.8,72.3c-2,1-3.2,4-2.1,10.7c0.9,8.1,3.3,14.1,5.5,26.4c2.3,5.6,4.2,38.7,4.2,38.7s2.3,0.6,2.8,0
			c0.4-0.7-2.9-32-4.1-36.4c-0.5-5.3-4.8-23.5-5.4-26.2c-0.5-2.7-0.8-8.4,0-10c1.5-3,6.6,2.9,6.6,2.9s0.4,0.9,1.3,0
			c1.9-1.7-3.5-6.8-7.5-6.5c1.1-6.6,3.4-23.5,11.8-27.2c-4.1,32,11.8,76.7,12.8,79.6c-8.3,15.4-2.6,17.2-2.6,17.2s12-4.9,4.5-18.1
			c-1.6-8.4-6.2-36.6,19.2-35.7c22.1,1.3,18.7,35.7,17.5,50.6c-4.3,5.2-1.2,9.8,1.2,13.8c1.7,2.4,10.8,8.3,1.2-14.4
			c19.6-36.3,13-82.3,7.6-99.5C346.5,65.3,350.5,73.9,352.3,77.9z"/>
		<g>
			<path class="st1" d="M317.9,104.8c13.7,0,25.7,3.6,32.1,9c-5-6.1-17.5-10.5-32.1-10.5c-14.6,0-27,4.3-32,10.5
				C292.2,108.4,304.1,104.8,317.9,104.8z"/>
		</g>
		<g>
			<path class="st1" d="M386.1,49.1c9.3,0,17.3,3.4,21.6,8.4c-3.4-5.8-11.8-9.9-21.6-9.9c-9.8,0-18.2,4.1-21.6,9.9
				C368.8,52.5,376.8,49.1,386.1,49.1z"/>
		</g>
		<g>
			<path class="st1" d="M312.1,18c1.5,3.1,3.7,5.1,6.1,5.1c2.4,0,4.6-2,6.1-5.1c-1.9,0.9-4,1.5-6.1,1.5C316.1,19.5,314,19,312.1,18z
				"/>
		</g>
		<g>
			<path class="st1" d="M312.5,6.2c1-0.8,2.5-1.3,4.1-1.3c1.6,0,3.1,0.5,4.1,1.3c-1.3-0.2-2.7-0.4-4.1-0.4
				C315.1,5.8,313.8,6,312.5,6.2z"/>
		</g>
		<g>
			<path class="st1" d="M312.1,3.5c0.8-0.6,2-1,3.3-1c1.3,0,2.5,0.4,3.3,1.1c-1-0.2-2.1-0.3-3.3-0.3C314.3,3.2,313.2,3.4,312.1,3.5z
				"/>
		</g>
		<path class="st1" d="M386.6,11.6c-1.7-0.7-3.5-1-5.2-1.2c1.8-1.2,4-1.5,6-0.7c2,0.8,3.3,2.5,3.9,4.6
			C389.9,13.2,388.3,12.3,386.6,11.6z"/>
		<g>
			<path class="st1" d="M377,25.5c1.2,2.7,3,4.5,4.9,4.5c2,0,3.7-1.7,4.9-4.5c-1.5,0.8-3.2,1.3-4.9,1.3
				C380.2,26.8,378.6,26.3,377,25.5z"/>
		</g>
		<path class="st2" d="M353.1,104.7c-0.3,0.5-0.9,0.8-1.5,0.8c-0.6,0-1.1-0.3-1.5-0.8c-6.8-10.6-27.7-18.5-27.7-34.2
			c0-8.2,6.7-14.9,14.9-14.9c6.9,0,12.6,4.7,14.3,11c1.7-6.3,7.5-11,14.3-11c8.2,0,14.8,6.7,14.8,14.9
			C380.8,86.2,359.9,94.1,353.1,104.7L353.1,104.7z M352.8,99.6c-0.3,0.4-0.7,0.6-1.2,0.6c-0.5,0-0.9-0.2-1.2-0.6
			c-5.4-8.3-21.9-14.6-21.9-27c0-6.5,5.2-11.7,11.7-11.7c5.4,0,10,3.7,11.3,8.7c1.3-5,5.9-8.7,11.3-8.7c6.5,0,11.7,5.2,11.7,11.7
			C374.6,85,358.2,91.2,352.8,99.6L352.8,99.6z M352.4,94.5c-0.2,0.3-0.5,0.5-0.9,0.5c-0.4,0-0.7-0.2-0.9-0.5
			c-4-6.1-16-10.7-16-19.8c0-4.7,3.8-8.6,8.6-8.6c4,0,7.3,2.7,8.3,6.3c1-3.7,4.3-6.3,8.3-6.3c4.7,0,8.6,3.8,8.6,8.6
			C368.4,83.8,356.4,88.4,352.4,94.5L352.4,94.5z M352.1,89.4c-0.1,0.2-0.3,0.3-0.5,0.3c-0.2,0-0.4-0.1-0.5-0.3
			c-2.5-3.9-10.2-6.8-10.2-12.5c0-3,2.4-5.4,5.4-5.4c2.5,0,4.6,1.7,5.3,4c0.6-2.3,2.7-4,5.3-4c3,0,5.4,2.4,5.4,5.4
			C362.3,82.6,354.6,85.5,352.1,89.4z"/>
	</g>
</g>
</svg>
